<svg xmlns="http://www.w3.org/2000/svg" width="512" height="512"><path d="M156.8 354c19.7-1.3 40.5 3.4 59-4.6 38-19.2 41.3-78 11.1-105.5 24.3-27.9 11.5-82-27.7-87.6-16 0-32.3-1.5-48 .8-14 6.4-7.8 23.5-9.2 35.6.2 50.2-.4 100.5.3 150.6 1.4 6.5 8 10.8 14.5 10.7zM170 185c12 1.5 27.4-4.4 36 6.7 12.1 15.5 1.4 44.4-20.1 39.3-7-.9-19.5 3.8-15.9-7.5V185zm0 75c14.9 1.3 34.5-5.1 43 11.5 8.7 17.2 7.6 45.2-12.4 53.9-10.1 1.3-20.4.3-30.6.6v-66zm108 94.7c15.2-.2 14.6-17 14-28V279c21.7-.8 47.7 4.8 63-15.3 16.3-19 13.9-45.6 11.6-68.7a47.4 47.4 0 0 0-52-39c-14 .6-28.3-1.3-42 1.1-13.4 6.8-7.2 23.6-8.6 35.6.2 50.2-.4 100.5.3 150.7a14 14 0 0 0 13.7 11.3zM292 185c12.5.9 25.7-2 37.7 1.8 14.4 10.2 9.7 29.6 10 44.8-.6 17.5-17.5 21.3-31.3 19.4-6-1.5-19.6 4.5-16.4-6.3V185zM481.7 53H30.3c-15.2 0-15 16.9-14.3 28 .2 122.2-.4 244.5.3 366.8 4 15.5 22.2 10.3 34.1 11.2h431.3c15.2 0 15-16.9 14.3-28-.2-122.2.4-244.5-.3-366.7a14.4 14.4 0 0 0-14-11.3zM466 429H44V81h422v348z"/></svg>