<svg xmlns="http://www.w3.org/2000/svg" width="512" height="512"><path d="M496.7 250.2a242.7 242.7 0 0 0-93-184 241 241 0 0 0-237.4-33.4 240.5 240.5 0 1 0 330.4 217.4zm-27.1 10.7a214.4 214.4 0 0 1-123.4 188.6 214.5 214.5 0 0 1-220.6-24.3 214 214 0 0 1-79.2-210.4A214.2 214.2 0 0 1 201 49.6 213.6 213.6 0 0 1 469.5 261zm-44.8-11.3A170 170 0 0 0 330 104.2a169.3 169.3 0 0 0-184.8 24.3c-50.1 42.7-71 116-50 178.6a169.2 169.2 0 0 0 146.5 117 169.4 169.4 0 0 0 183.1-174.6zm-27 12.2A142.3 142.3 0 0 1 292.3 393a142.3 142.3 0 0 1-155.7-60.2 155.3 155.3 0 0 1-23.5-81.1c3-40.2 20.8-79.8 52.6-105.3a142.4 142.4 0 0 1 165.8-10.6c42.5 26.4 68.7 76 66.1 126zm-95.8-7a46.4 46.4 0 0 0-58.1-43.2c-29 6.8-43.6 44.4-26.7 68.9 14.7 25.1 53.5 28.6 72.6 6.6a47 47 0 0 0 12.2-32.3zm-27 2.8c-.6 17-25.7 23.8-34.6 9.1-10.3-13.1 3.6-33.8 19.7-29.4 9.2 2 15.6 11 14.9 20.3z"/></svg>