<svg xmlns="http://www.w3.org/2000/svg" width="512" height="512"><path d="M494 352.7c-.1-64.9.3-130-.2-194.8-1-10.7-13.5-14-21.5-8.7l-212.3 88c-.3-27.1.6-54.3-.4-81.4-1.7-7.2-9.7-10.5-16.3-8.8h-216c-10.3 2.8-9.8 15.2-9.3 23.7.2 61.2-.4 122.5.2 183.7.8 8 9.2 12.4 16.7 10.6 72.2-.2 144.5.4 216.6-.3 9.5-2.9 8.9-14.1 8.4-22v-67.9c73 30 145.7 60.7 218.8 90.4 7.9 1.8 15-5 15.3-12.5zM214.5 172l-75.4 67.4L63.8 172h150.7zM43 187.3l76.9 68.7L43 324.8V187.2zM63.7 340l75.4-67.4 75.4 67.4H63.7zM235 255.9v68.8L158.1 256l76.9-68.8V256zM469 334l-188.3-78L469 178v156z"/></svg>