<svg xmlns="http://www.w3.org/2000/svg" width="512" height="512"><path d="M172.8 221.8c17.4-1 51.4 26.3 51.1-6.8-9.6-17-33-20.8-51-21.8-35.1.6-49.9 47.4-30.9 73.3 11.8 15 30.3 22.1 45.4 33 20.4 13.8.7 45.7-20.7 29.8-12.9-15.7-43.9-3.6-29.1 16.4 18.3 13.2 45.2 21.8 66.3 10.2 29.3-18.4 26.3-67.9-4.7-82.8-10.7-7.3-22.3-13.3-32.4-21.3-7-8.3-6.1-27.1 6-30zm321.8.2L457.5 83C448 61.8 426 79 426.4 96c-11.3 43-23.5 86-34.3 129 0 22.4 31.5 16.5 30.3-3.3 3-5.9 1.8-17.5 7.8-19.6h29.2c4.1 11.5 4.4 25 12 34.8 10.4 9.3 27.1-1.5 23.2-14.8zm-59.2-49l8.2-30.8 8.2 30.8h-16.4zm-94.1 98.8a162.8 162.8 0 0 0-99.4-144.2A162.8 162.8 0 0 0 67 159.7a163 163 0 0 0-45.2 157.8 162.8 162.8 0 0 0 131.1 120 163 163 0 0 0 188.3-165.6zm-28.8 12.9a134.3 134.3 0 0 1-93.2 120 120 120 0 0 1-45 5.5C115 410.4 60.5 364 48.5 306.6c-4.5-22.6-3.9-46.6 2.7-68.7a134 134 0 0 1 122.4-94.2 134 134 0 0 1 138.8 141z"/></svg>