<svg xmlns="http://www.w3.org/2000/svg" width="512" height="512"><path d="M482.4 142H29.5c-13.6-.3-14.4 14.4-13.5 24.4.2 64.5-.4 129 .3 193.5 4 14 20.4 9.3 31.3 10.1h434.9c13.5.3 14.4-14.3 13.5-24.4-.2-64.5.4-129-.3-193.6-1.3-6-7.3-10.1-13.3-10zM470 344H42c.3-13-.7-26.3.5-39l43.3-78.5c15.6 28 30.6 56.2 46.5 84 6.2 8.4 20.5 5.5 23.5-4.5l43.6-79.4c15.4 27.9 30.5 56 46.2 83.8 6.1 8.5 20.4 5.6 23.4-4.4l43.6-79.5c15.4 28 30.6 56.1 46.2 84 6.2 8.3 20.4 5.4 23.5-4.5l43.9-79.5 43.8 79.3V344zm0-92.7c-11.5-20-21.9-40.8-34-60.3-6.4-8.3-20.2-5-23.2 4.8l-43.6 79.5c-15.7-28.2-30.6-57-46.9-84.8-6.5-7.8-19.9-4.1-22.7 5.3L256 275.2c-15.7-28.1-30.7-56.9-47-84.7-6.5-7.8-19.8-4.2-22.7 5.3l-43.6 79.4c-15.7-28.1-30.6-56.9-46.9-84.7-6.7-8-19.8-3.9-23 5.3L42 251.4V168h428v83.3z"/></svg>