<svg xmlns="http://www.w3.org/2000/svg" width="512" height="512"><path d="M156 340c14.5 0 14.8-16 14-26.7V262c14-.6 28.4 1.3 42.2-1.1 16.8-7.4 5.1-31.9-11.2-26.9h-31v-34c14-.6 28.4 1.3 42.2-1.1 16.8-7.4 5.1-31.9-11.2-26.9-16.5.6-33.3-1.3-49.6 1-13.8 5.9-8.2 22.3-9.4 33.9.2 40.7-.4 81.4.3 122 1.3 6.3 7.3 11.1 13.7 11zm84.7-.5c14 3.7 18-11.8 20.1-22.2 3.2-5.2.6-18 9-16.3h28.3c4.3 12 4.3 26.2 12.7 36.2 16.3 10.7 27-10.7 19.2-23.6l-35-131.3c-9-21.6-30.2-4-30 12.4-11.4 43.6-23.5 87-34.5 130.7-.5 6.3 4 12.6 10.2 14zm41-99.7l9 34.2c-5-1.7-19.3 3.7-17.3-3.4l8.3-30.8zM357 339.9c14.5 0 14.8-16 14-26.6-.2-43.4.4-86.9-.3-130.3-3.9-18.7-32.7-10.3-27.7 7.5.2 46.1-.4 92.3.3 138.4 1.2 6.3 7.3 11.1 13.7 11zm137-239.1c0-14.5-16-14.5-26.6-13.8H30.8c-14.5 0-14.5 16-13.8 26.6.2 100.1-.4 200.3.3 300.4 3.6 15 20.9 10.2 32.2 11h430.7c14.5 0 14.5-16 13.8-26.6V100.8zM469 398H45V114h424v284z"/></svg>