<svg xmlns="http://www.w3.org/2000/svg" width="512" height="512"><path d="M159.5 355.4c15.4-.2 15.2-17.3 14.5-28.5V262c17-.7 34.2 1.4 51-1.2 18-7.9 5.5-34.1-12-28.8h-39v-45c17-.7 34.2 1.4 51-1.2 18-7.9 5.5-34.1-12-28.8-19.9.7-40-1.4-59.6 1.1-13.1 7-7 23.8-8.4 35.8.2 49.9-.4 99.8.3 149.7 1.2 6.6 7.4 11.9 14.2 11.8zM264.2 187H295c.2 52.2-.4 104.4.3 156.6 4.2 20 35 11 29.7-8V187c12.5-1 26 2.4 37.7-2.6 15.5-11 .4-32.4-15.7-27.4-28.6.2-57.2-.4-85.7.3-17.2 3.6-14.6 29.6 3 29.7zM479.6 54H32.4C17 54 17.4 71.2 18 82.3c.2 121.4-.4 242.8.3 364.1 3.7 16 22.1 10.7 34 11.6h427.3c15.4 0 15-17.2 14.4-28.3-.2-121.4.4-242.8-.3-364.1a14.3 14.3 0 0 0-14-11.6zM465 429H47V83h418v346z"/></svg>