<svg xmlns="http://www.w3.org/2000/svg" width="512" height="512"><path d="M137.5 339.8c14.4-.1 14.1-16 13.5-26.5V261c13.9-.6 28 1.2 41.7-1 16.9-7.2 4.9-31-11.1-26H151v-34c13.9-.6 28 1.2 41.7-1 16.9-7.2 4.9-31-11.1-26-16.5.5-33.1-1.1-49.4 1-12.5 5.5-7 21-8.2 31.8.2 41-.4 82 .3 123.1 1.1 6.2 7 11 13.2 10.9zm112.3-.8c11.4-1.2 24.6 3.2 34.6-4 11.8-12.4-4.3-27-17.9-23-9.9-.4-24.2 3-27.4-10-2.4-22.8-.5-46-1.1-69 .5-11.6-3.2-29.6 11.8-33 11.4-1.2 24.6 3.2 34.6-4 11.8-12.4-4.3-27-17.9-23-16.8-.7-36.5-.3-46.6 15.8-13.6 19.4-7.5 43.7-8.9 65.7 1.1 20.6-3.2 42 4.7 61.6 6 13 19.3 23 34 22.9zm62.2.8c14.5 0 14.8-15.9 14-26.5V278c17.7-.3 38.7 3.1 50.8-13.4 14-16.8 12.2-40.5 9.5-60.8a40.5 40.5 0 0 0-45-30.8c-12.2.8-25.2-2-37 2-10.3 7.3-5 21.3-6.3 32 .2 40.6-.4 81.3.3 121.9 1.3 6.3 7.4 11 13.7 10.9zM326 200c9.8 1 20.8-2.5 29.5 2.7 8.3 9.1 5 22.4 5.2 33.7-.2 14.5-14.3 15.9-25.2 14.6-10 2.9-10.7-3.4-9.5-11.7V200zM481 87H31c-14.5 0-14.8 15.8-14 26.4.2 100.3-.4 200.6.3 300.8 4 14.8 21 10 32.4 10.8H481c14.5 0 14.8-15.8 14-26.4-.2-100.3.4-200.6-.3-300.8A14 14 0 0 0 481 87zm-14 311H45V114h422v284z"/></svg>