<svg xmlns="http://www.w3.org/2000/svg" width="512" height="512"><path d="M494.3 164.7c.1-10.3-11.4-15.8-20.4-12.9L120 189.2c-.5-11.4 1.2-23.2-1.1-34.4-6-13-21.7-7.7-33-8.8-18.9.2-37.9-.4-56.8.3C14.8 149.8 18.4 166 18 177c.2 59.2-.4 118.4.3 177.6 2.8 14.1 18.6 11.2 29.3 11.4 20.4-.2 40.8.4 61.1-.3 14.4-3.4 11-19.7 11.3-30.7v-24.7L356.5 344c4.7 2 11.5-2.6 14.3-7.2 40.6-55.2 81.8-110.1 122-165.6 1-2 1.6-4.2 1.5-6.5zM93 204.7V338H45V174h48v30.7zm259.4 110.7l-232.4-33V217l330.6-35-98.2 133.3z"/></svg>