<svg xmlns="http://www.w3.org/2000/svg" width="512" height="512"><path d="M126 340.7c14.7 0 14.7-16.3 14-27V264c13.5-.6 27.4 1.3 40.7-1 17.3-7.4 5.2-32.1-11.3-27H140v-36c13.5-.6 27.4 1.3 40.7-1 17.3-7.4 5.2-32.1-11.3-27-16.4.7-33.2-1.4-49.3 1.2-12.6 7.5-6.7 23.8-8 35.8.1 40.2-.5 80.3.2 120.4a14 14 0 0 0 13.7 11.3zm82.9-.4c15.7 3.7 18.5-13.7 21.2-24.7 2.4-6 1-17 10.6-13.6H266c4.1 11.7 4.3 25.3 11.9 35.3 13.9 11.7 29.6-7.6 21.1-21L263.4 183c-9.1-21.8-30.9-4.4-30.6 12.5-11.4 43.4-23.5 86.7-34.4 130.2a14.2 14.2 0 0 0 10.5 14.5zm40.9-98.3l8.5 32c-5-1.7-19.9 4.1-15.9-4.5l7.4-27.5zm74.2 98.7c14.7 0 14.7-16.3 14-27V278c17.6-.3 38.6 3.2 50.9-13 14.2-16.7 12-40.4 9.4-60.6a40.8 40.8 0 0 0-44.8-32.4c-12.3 1-25.6-2.4-37.1 2.6-10.5 8.8-5 23.7-6.4 35.6.2 39.7-.4 79.5.3 119.2a14 14 0 0 0 13.7 11.3zM338 200c9 .8 18.8-1.6 27.4 1.4 9.6 9.2 6 23.6 6.4 35.6-.2 14.4-15.1 13.5-25.4 13-10.4 3.3-8.7-5.5-8.4-12.9V200zM480.6 87H31.4c-14.7.1-15.3 16.3-14.4 27.2v296.4c.2 14.8 16.4 15.2 27.3 14.4h436.3c14.7-.1 15.3-16.3 14.4-27.2V101.4c.1-7.7-6.8-14.5-14.4-14.4zM466 398H46V115h420v283z"/></svg>