<svg xmlns="http://www.w3.org/2000/svg" width="512" height="512"><path d="M303 135.8c-17 .8-14 19.6-14 31.5V230h-66c-.2-27.7.4-55.5-.3-83.1-8.2-23.4-34-4.5-27.7 13.6.2 68.1-.4 136.3.3 204.5 8.2 23.3 34 4.4 27.7-13.6V257h66c.2 36-.4 72 .3 108 8.2 23.3 34 4.4 27.7-13.6-.2-68.2.4-136.4-.3-204.5a14.1 14.1 0 0 0-13.7-11zm192.2 112.7a239.5 239.5 0 0 0-368-194.1A239.9 239.9 0 0 0 17 264.9a239.9 239.9 0 0 0 123.2 200.3 240 240 0 0 0 243.5-7 239.8 239.8 0 0 0 111.6-200.6c.1-3 0-6.1-.1-9.1zm-27.9 19.3a212.5 212.5 0 0 1-116 177 212.5 212.5 0 0 1-218-16.5 213.7 213.7 0 0 1-88.7-160.1 213.2 213.2 0 0 1 88.5-184.5 212.3 212.3 0 0 1 220.3-15.5 212 212 0 0 1 114 193.2v6.3z"/></svg>