<svg xmlns="http://www.w3.org/2000/svg" width="512" height="512"><path d="M152.6 330c15.3-1 31.4 2.5 46-3.1 18.2-9 21.6-30.5 20.4-48.7-.3-21.4.8-42.8-.7-64-2.3-18.8-20-34-39-31.2-11 .8-22.7-2-33.2 2-8.6 7.2-3.9 19.6-5.1 29.3.2 35.4-.3 70.8.2 106.1 1 5.3 6 9.7 11.4 9.6zM164 206c8.4.6 17.3-1.3 25.3 1.2 10.5 9.1 5.5 24.4 6.7 36.7-.5 17.7 1 35.6-1 53.2-2 11.9-14.2 10-23 9.9-9.3 2.8-8.5-4.4-8-11.5V206zm330.8-41.8c-.3-9.5-12.4-15-19.5-8.7L343 235.7c-.2-24.2.3-48.6-.2-72.8-3.7-12.6-18.6-8-28.3-8.9-96 .1-191.9-.3-287.8.2-13 2.5-9.2 17.1-9.7 26.6.2 56.3-.3 112.7.3 169 3.8 13 19.3 8.3 29.5 9.2 95.5-.2 191.1.3 286.7-.2 13-3.1 8.8-18.2 9.5-28v-54c44.7 27 89.5 53.8 134.2 80.7 8.4 5.3 18.6-3.2 17.8-12-.2-60.5.3-121.1-.2-181.3zM320 336H40V177h280v159zm152-9l-117.8-70.7L472 185v142z"/></svg>