<svg xmlns="http://www.w3.org/2000/svg" width="512" height="512"><path d="M195.5 356.1c15.9 0 16.4-17.3 15.5-29-.2-53 .4-106.1-.3-159.2-4.3-20.5-36-11.5-30.7 8.1.2 56-.4 112 .3 168 1.4 7 8.2 12.3 15.2 12.1zm83.5 0c34.4 0 56.2-37 53-68.6-.2-39.9.4-79.7-.3-119.6-4.3-20.5-36-11.5-30.7 8.1-.3 41.4.6 82.8-.5 124.2.7 24.7-34.9 35.6-41.7 8.7-5.2-19.6-1.8-40.3-2.8-60.4-.2-26.8.4-53.7-.3-80.6-4-20.6-35.3-11.2-29.7 8.1.4 42.4-.8 85 .6 127.3 3 26.5 24 53 52.4 52.8zM480.4 53H31.6C15.8 52.9 15 70.1 16 81.9v362c.4 15.8 17.9 15.8 29.5 15.1h434.9c15.8.1 16.6-17.1 15.6-28.9v-362c.1-8.4-7.5-15.2-15.6-15.1zM465 429H47V83h418v346z"/></svg>