<svg xmlns="http://www.w3.org/2000/svg" width="512" height="512"><path d="M494 30.8c-.9-17-19.6-13.7-31.4-13.8-144.8.2-289.7-.4-434.6.3-16.3 5-9.6 23.8-11 36.5.2 143-.4 286.1.3 429.2 5 16.3 23.8 9.6 36.5 11 143-.2 286.1.4 429.2-.3 16.3-5 9.6-23.8 11-36.5V30.8zM468 468H45V45h423v423zM130.5 263.7c2.3 53.3 42 102.2 93.8 115.1 5.5 2.7 15.3 1.1 18.7 4.8 26.5.4 55.3-3.9 78.6-18.6 46.6-27 71.3-86 57.7-138.2a126.8 126.8 0 0 0-117-96.4c-8.2.2-16.8-1.4-23.4 1.2a126.8 126.8 0 0 0-108.4 132.2zm27.8-14.5A99.2 99.2 0 0 1 243 159v195.3a99 99 0 0 1-85-96.6l.3-8.5z"/></svg>