<svg xmlns="http://www.w3.org/2000/svg" width="512" height="512"><path d="M150 356c15.2-.1 14.6-17 14-28v-93.5c7 13.8 12.8 28.2 20.7 41.5 14 14.1 25.8-4.5 29.8-17l11.5-24.4c.2 36.7-.4 73.4.3 110 4 19.6 34 10.7 28.7-7.9v-165c-3.8-25-30.2-11.2-33 6.2l-26.5 55.2c-12-23.7-22.1-48.5-35.2-71.5-18.3-14.1-27.5 10.2-24.3 25.1.2 52.7-.4 105.3.3 158A14 14 0 0 0 150 356zm136 0c15.2-.1 14.6-17 14-28v-47c20.4-1 44.1 4.7 59.9-12.1 19-18.2 17-46 15.2-69.9-3.1-24.5-26.1-44.4-51-41-14.5.6-29.2-1.2-43.4 1-13.3 6.1-7.4 22.5-8.7 34 .2 50.5-.4 101.1.3 151.6A14 14 0 0 0 286 356zm14-169c12.5.8 25.7-1.9 37.7 1.8 14.3 10 9.7 29.2 10 44.2-.8 17.2-17.4 20.9-31.1 19-6.1-1.5-19.7 4.5-16.6-6.3V187zM495 68.3c-.1-15.3-17-15-28-14.3H31.2c-15.3.1-15 17-14.3 28 .2 122-.4 243.8.3 365.6 4 15.7 22.1 10.5 34 11.4h429.4c15.3-.1 15-17 14.3-28V68.2zM466 431H46V82h420v349z"/></svg>