<svg xmlns="http://www.w3.org/2000/svg" width="512" height="512"><path d="M480.9 17c-150.9.2-301.8-.4-452.6.3-16.6 5-10 24-11.3 36.8.2 143.2-.4 286.5.3 429.6 5 16.6 24 10 36.8 11.3 143.2-.2 286.5.4 429.6-.3 16.6-5 10-24 11.3-36.8-.2-143.2.4-286.5-.3-429.6A14 14 0 0 0 481 17zM154 71.7a211.1 211.1 0 0 1 240.3 25.6L255.9 235.8 117.6 97.4A211 211 0 0 1 154 71.7zm260.5 45.9a211.2 211.2 0 0 1 0 276.8L276.2 256l138.4-138.4zM45 45h97.5C103 67 69.5 99.7 47 139c-4.2 7-1-13.3-2-18.2V45zm0 208.5a215.5 215.5 0 0 1 52.3-136L235.7 256 97.3 394.4c-34-38.6-52-89.7-52.3-140.9zM45 467v-97.5a248.7 248.7 0 0 0 97.1 97.1c-11.7 1-27.1.1-40.2.4H45zm316.5-28.8a211.2 211.2 0 0 1-244-23.6L256 276.2c46 46.2 92.6 92.4 138.3 138.5a220 220 0 0 1-32.8 23.5zM467 467h-97.5a251.1 251.1 0 0 0 97-97c1.1 4.9.2 16.3.5 23.7V467zm0-324.4a250 250 0 0 0-93-95c-10.3-5.1 11-1.6 15.8-2.6H467v97.7z"/></svg>