<svg xmlns="http://www.w3.org/2000/svg" width="512" height="512"><path d="M91.5 333.3c13.6-.2 13-15.3 12.5-25V277c7.7-.7 15-1 15.8 8.4C126 300 131 315 138 329c13 13.8 29.3-6.8 18.7-19.2-5-12.8-10.2-25.5-15.4-38.3 20.2-12.2 20-38 18-58.8C156.8 193 138 177.1 118 180c-11.3 1-23.5-2.2-34.2 2.1-8.5 8.3-3.6 21.4-5 32 .3 36.4-.2 72.8.3 109.2 1.1 5.7 6.5 10 12.3 10zM104 205c9.2 1.3 21-3.5 27.8 4.5 5 9.8 3.3 21.6 2.3 32.2-2.6 13.3-16.8 10-26.6 10.3-7.5.6-1.7-12-3.5-17v-30zm78.5 128.3c13.6-.2 13-15.3 12.5-25V262c12.4-.5 25.1 1.1 37.4-1 15.5-6.8 4.2-28.7-10.6-24H195v-32c12.4-.5 25.1 1.1 37.4-1 15.5-6.8 4.2-28.7-10.6-24-14.8.6-30-1.2-44.7 1-11.3 6.5-5.8 21.3-7.1 32 .2 36.7-.3 73.5.3 110.3 1 5.6 6.4 10 12.2 10zm76-.5c13.1 3.5 16.5-11.1 18.5-20.7 2.5-6 1.1-17.2 10.6-14.1H311c3.9 11 4 23.8 11.5 32.9 15.3 9.7 24.6-10.3 17.3-22.1L308 189.3c-8.7-20-27.6-3-27.4 12-10.4 39.6-21.4 79-31.4 118.7a12.6 12.6 0 0 0 9.3 12.8zm37.4-91.4l8.4 31.6c-5-1.6-19.5 4-15.7-4.4l7.3-27.2zm68.6 91.8c13.6 0 13-15.2 12.5-25V277c16-.2 35.3 2.9 46-12.4 12.6-15.6 10.9-37.2 8.5-55.8a36.3 36.3 0 0 0-39.8-28.8c-11.4 1-23.6-2.2-34.3 2.1-9.1 8-4 21.4-5.4 32 .2 36.4-.3 72.8.3 109.2 1 5.6 6.4 10 12.2 10zM377 205c8.3.6 17.1-1.3 25 1.2 9.2 9.3 5.7 23.9 5.2 35.6-1.4 12.7-14.5 10.1-23.5 10.2-10.3 3.1-5.8-8.5-6.7-14.8V205zm117-90.5c-.1-13.6-15.2-13-25-12.5H29.5c-13.6.1-13 15.2-12.5 25 .2 91.3-.3 182.7.3 274 3.5 14 19.8 9.1 30.4 10h433.8c13.6-.1 13-15.2 12.5-25V114.5zM470 387H42V127h428v260z"/></svg>