<svg xmlns="http://www.w3.org/2000/svg" width="512" height="512"><path d="M90.5 217.6c13.6 0 37.2 19.4 39-5.8-5.6-14.7-24.9-17.9-39-18.7-28.6.5-39.4 40.3-21.1 59.4 9.8 9.3 22.6 14.7 33.1 23 11.7 20.7-15.4 21.6-26.2 10.8-22.7-3.8-17.3 27.7 1.7 28 15.8 6.7 37.7 5.8 46.4-11.3a38.2 38.2 0 0 0-16.6-53.6c-7-5.4-16.2-8.5-21.6-15.5-2.3-5.1-2-14.2 4.3-16.3zM197.9 194c-18.7.2-37.5-.3-56.2.2-16.9 3.2-8.9 28.5 6.8 23.8 8.3-1.6 12.7.7 10.5 9.6.2 27-.3 54 .3 81 3.5 16.7 29.2 9 24.7-6.8V218c9.2-.3 23.1 2.6 26-9.5 1.7-7.4-4.6-14.8-12-14.5zm285.5 50H253.6c-4-48.2-40.6-91.3-87.4-103.2-46-13-98.5 5.2-126.4 43.9A114.4 114.4 0 0 0 16.6 254c-.6 12.7 1.3 26.5 5.6 39a119.5 119.5 0 0 0 107.3 81.5A119.3 119.3 0 0 0 253.6 269c77.4-.1 154.9.4 232.3-.2 14.2-3 12-24.8-2.5-24.7zm-253.8 17a95 95 0 0 1-76.2 87.5c-11 2.1-22 3.3-33 .6a94.7 94.7 0 1 1-18-182A94.9 94.9 0 0 1 229.6 261z"/></svg>