<svg xmlns="http://www.w3.org/2000/svg" width="512" height="512"><path d="M219.6 279.3c-13.6-9.2-28.4-17-41.2-27.1-17-22.5 11.1-46.5 32.5-28.5 16 20.2 44.6-10 20.5-21.6-22-12.7-55.5-21.1-74.3 1.4-21.2 23.9-13.7 66.1 15.5 79.9 11.3 7.7 23.7 14.1 34.4 22.7 17.8 22.3-10.6 47-32.2 28.9-16-20.2-44.5 10-20.4 21.6 22 12.7 55.5 21 74.3-1.5 18.9-21.6 15.4-59.8-9.1-75.8zM480 58.2c-15.1.2-14.6 17-14 28 .2 46.7-.4 93.5.3 140.3 3.7 19.7 33.2 10.4 27.7-7.9-.2-49.6.4-99.3-.3-149A14 14 0 0 0 480 58.2zM367.3 273.5a175.1 175.1 0 0 0-101.5-152.7c-57.5-27.1-129.2-19-179.2 20.2A175 175 0 0 0 21 308.9a175 175 0 0 0 123.2 138c16.6 4.9 34.7 7.5 51.4 6.6 69 .7 135-45.6 159.6-109.9a173.3 173.3 0 0 0 12.1-70.1zm-28.8 14a146.4 146.4 0 0 1-100.3 130.4 146.3 146.3 0 0 1-159.4-48 153.8 153.8 0 0 1-32-83.1 147.5 147.5 0 0 1 6.1-48.4 146.3 146.3 0 0 1 130.6-104.6 146.3 146.3 0 0 1 155 153.7z"/></svg>