<svg xmlns="http://www.w3.org/2000/svg" width="512" height="512"><path d="M158 257c10.9 7.4 22.7 13.7 33.1 21.7 13.8 17.5-8 36.8-25 22.7-13.8-17-38.7 8.3-17.8 18.8 18.3 10.5 46 17.2 61.6-1.4 17.6-19.8 11.4-55-13-66.4-9.1-6.3-19.2-11.5-27.9-18.4-13.8-17.5 8.1-36.8 25.2-22.7 18.2 19.8 38.7-15.1 13-21.3-18.4-9.3-46-13.4-59.1 6.7-13.2 18.4-9.6 47.8 9.9 60.3zm337 90.7c-.2-62 .3-124-.2-185.9-1.8-9.6-14.5-12.5-21.4-6.3L343 234.3c-.2-23.8.3-47.7-.2-71.5-2-12.8-15.9-10.9-25.4-10.8H29.2c-13 .6-12.7 15.2-12.2 24.8.2 57.7-.3 115.4.2 173.1 3 13.6 18.6 9.5 28.7 10.1H331c12.9-.2 12.5-14.7 12-24v-57.7c44.5 26.6 88.8 53.4 133.3 79.9 8 5 19-1.4 18.8-10.5zM318 335H42V177h276v158zm152-9.5l-115.2-69.2L470 186.6v138.9z"/></svg>