<svg xmlns="http://www.w3.org/2000/svg" width="512" height="512"><path d="M157.6 251.6c-8.7-6.4-19.2-10.7-26.7-18.3-4-27.1 25.3 3.6 36.7-6.8 17-13.9-4.1-31.1-19.2-32.7-17.7-6.3-39.5 1.6-45.3 20.4a40.1 40.1 0 0 0 20.2 50.3c6.8 5.6 17.1 8 21 16.3-.6 25.5-28.5-9.5-39.6 6.6-13.5 16.2 9.3 29.4 23.6 31.3 18.5 6.1 40-4.8 44.2-24.3 4.3-15.5-1.1-34-14.9-42.8zm322-10.6c-74.5-.1-149.4.3-223.6-.2a120 120 0 0 0-87.6-100.3 119.9 119.9 0 1 0-63.3 230.8 111 111 0 0 0 36.2 4.1A119.4 119.4 0 0 0 256.1 271h223.6c19.2.2 19.1-30.2 0-30zm-252.2 20a90.7 90.7 0 0 1-73.8 83.8 90.7 90.7 0 0 1-99.8-54.4 90.7 90.7 0 0 1 31-107.9c32.4-24.1 81-22 111.2 4.8 21.2 18 33.1 46 31.4 73.8z"/></svg>