<svg xmlns="http://www.w3.org/2000/svg" width="512" height="512"><path d="M172.4 166.4c21.6-2.3 39.4 13.3 59 16.5 30.9-14-6-41.1-25.9-42.5-24.4-8.2-56-7.8-72 15.5-24.8 31.3-15.1 83.6 21.6 101.3 16.5 11.3 34.7 20.3 50 33.2 15.4 17.4 7.7 58-20.2 54.4-21.4 2.8-38.5-21-58.4-13.8-22.2 23.6 21.2 38.6 39.6 42.3 23.4 6.8 51.8 2 65.6-19.9 22.7-31.5 12.4-81.9-23.4-99-16.5-11.3-34.7-20.4-50-33.3-13.1-15.7-10-51.3 14-54.7zm188.1 111.4C387 264.6 394 233.1 392 206c2.8-30.2-13.5-66.2-46.5-70.7-21.5-.5-43-.6-64.4 0-17.1 5.1-11 25.2-12.1 38.6.2 63.2-.4 126.5.3 189.7 4.3 21.3 36.5 11.5 30.7-8.5V284h29.6c12.1 28.9 22.5 58.5 35.7 86.9 15.8 16.8 36-8.3 23.1-23.5l-27.9-69.6zM340 252.5c-12.5 1.2-26.7.1-39.9.5v-87c14.8.4 29.7-.8 44.4.7 20.8 9.9 16 35.2 16.6 54.1 0 13-6.1 30.3-21 31.7zm154-4.1a238.6 238.6 0 0 0-119.7-199A238.6 238.6 0 0 0 143 46.8 238.5 238.5 0 0 0 32.6 336.3a238 238 0 0 0 270.2 152.5 238.4 238.4 0 0 0 191-240.4zm-31.2 19a207.6 207.6 0 0 1-119.4 175.9 205 205 0 0 1-146.8 10.4A207.4 207.4 0 0 1 52 288.7 207 207 0 0 1 132 90.5 207.4 207.4 0 0 1 349 71.1a207.3 207.3 0 0 1 113.6 194c1-.4-.9 2.4 0 2.2z"/></svg>