<svg xmlns="http://www.w3.org/2000/svg" width="512" height="512"><path d="M210.2 277.5c-13-8.7-26.8-16.1-39.1-25.6-16-20.7 10-41.2 29.1-25.4 16.5 20 44.5-11 20.4-22.6-21.2-12.2-53.6-20-71.7 1.6-20.6 23.2-13.3 64.2 15.1 77.5 10.6 7.2 22.1 13.2 32.2 21.2 16 20.4-9.7 41.1-28.8 25.6C145.9 307 122 348 152 355.2c21.4 11 53.5 15.5 68.8-7.9 15.3-21.1 11.4-54.7-10.7-69.8zM479.9 210c-10.3-1-21.9 2.4-31.2-2.6-9.6-11.2-4.3-27.1-5.7-40.7.6-19.7-1.3-39.7 1.1-59.3 3.9-14.6 20.2-9.5 31.2-10.4 19 5 27.5-25.7 7.6-29.7-19.6-.1-43.2-4.2-57 13.7-17.3 20.2-10.5 47.8-11.9 72.2 1.3 22.2-4.2 46 7 66.3 8.7 17 28.1 22.1 45.8 20.5 11.2 1 28 .3 27.9-15a15 15 0 0 0-14.8-15zm-130.1 62.5a167 167 0 0 0-102.9-148.3 166.9 166.9 0 0 0-179 34.4 166.6 166.6 0 0 0-44.4 164.2 166.8 166.8 0 0 0 187.3 119.3 167 167 0 0 0 139-169.6zm-29.6 13.2A137.5 137.5 0 0 1 225 408.5a137.5 137.5 0 0 1-149.6-46.8 137.6 137.6 0 0 1-4.9-160.4c31-47.4 93.4-70.7 147.9-55.6a137.3 137.3 0 0 1 102 140z"/></svg>