<svg xmlns="http://www.w3.org/2000/svg" width="512" height="512"><path d="M256.9 229.2c15.2 1.7 40 21.6 42.1-6.3-1.9-18.4-24-24.7-39.7-26.2-27.3-.7-39.4 32.8-33.9 55.6 2.6 21 22 31.2 37 42.8 14.1 5 10.9 34.3-6.5 24.4-14.7-17.4-42.3-1.1-28 19.2 16 15 47 23.4 61.5 2.2 17-23.2 11.2-60.6-14.5-75-7.4-7.2-19.7-10.7-22.6-21.4-.7-5-.4-12.6 4.6-15.3zM58.9 88c-11 .7-22.7-1.5-33.4 1.3-11.9 9.2-6.1 25.8-7.5 38.7.2 34.8-.3 69.7.2 104.5 1 14.2 16.2 12.8 26.5 12.5 13.4.6 29 .5 37-12.6 14-20.5 8-46 9.3-69.3-.7-23.9 4.6-52.7-16.6-69.7A25.4 25.4 0 0 0 58.9 88zM64 201.6c3.8 12.2-15.6 14.7-19 9V120c10.4-2 21.8 1.3 19 14.7v66.9zm430-35c.3-24.2-1.3-52.4-17.3-72.2-22-19.2-41.8 12.9-43.2 33-5.4 35.3-6.7 74 10.3 106.6 14.4 25 44.5 3.5 45.5-19 4.8-15.7 4.4-32 4.7-48.5zm-27 .4c-.6 9.8-.5 37-5.6 36a172.2 172.2 0 0 1 1.2-75.3c4 12.6 4.2 26.2 4.4 39.3zm-79.2 103.2c-1.2-53.3-29.2-108.5-78.5-132.3A110.7 110.7 0 0 0 193.8 150c-39.9 30-60.2 81.6-58 130.6.8 54.7 31 111.5 82.6 133.8a109.2 109.2 0 0 0 97.9-5.6c48.3-27.3 73.3-85 71.5-138.7zM360 281.7c-1.7 44.6-28.2 90.8-72.1 105.1-35.8 12.4-76.7-3.5-98.8-33.3a122.5 122.5 0 0 1-25.1-83.1c-.5-47 29.7-96 76.5-108.3 37.4-10.4 78 9.2 98.4 41.1 15.3 23 22.6 51 21 78.5z"/></svg>