<svg xmlns="http://www.w3.org/2000/svg" width="512" height="512"><path d="M210.3 276.2c-12.7-8.5-26.1-15.8-38.2-25-16.2-22.6 14-38 31.4-21.7 20.2 18.6 41.4-20.5 15.1-27.8-22.2-12.4-56.5-18.1-72.8 6.6-18.3 24.6-9.1 63.5 18.9 76.4 10.8 8 24.6 13 33 23.6 12.1 30.8-27 28-42.9 14.1-27-1.9-20 35 2.7 36.2 21 9.1 50.4 11 64.4-10.7 15.9-21.8 11.5-56.7-11.7-71.7zM495 153.7c-.5-27.7-3.3-59-23.3-80.2-21-17.8-46.8 4.5-51 26.7a187.4 187.4 0 0 0 .8 110.3c4.3 23.4 34.2 42.7 53 21.7 17.5-21.9 20.3-51.5 20.5-78.5zm-33.8 29c-1 12.6-8.8 33-12.3 10-7.1-29.5-7.4-62.1 5.1-90.2 10.5 21.8 9.5 46.8 8.6 70-.3 3.4-.8 6.9-1.3 10.3zm-110.5 89.8a167.7 167.7 0 0 0-102.2-148.4 167.5 167.5 0 0 0-178 31.2A167.7 167.7 0 0 0 22.7 322a167.5 167.5 0 0 0 135.5 121.2 90 90 0 0 0 27.7 1c17.9 2 36.8-3 54-8.6a167.5 167.5 0 0 0 111-163zM319 285.7A136 136 0 0 1 224.6 407c-46 14.6-99.5 2.8-134.1-31.1A134.4 134.4 0 0 1 49 267.8 135.3 135.3 0 0 1 319 285.7z"/></svg>