<svg xmlns="http://www.w3.org/2000/svg" width="512" height="512"><path d="M135.8 328.4c9 22 30.2 4.2 30-12.4 11.4-43.5 23.5-86.9 34.5-130.5 1.3-19.2-28.6-18.4-28.3 0L149 271.2c-8.4-30.9-16-62-25-92.7-8.5-17.3-33.9-1.4-24.4 14.4l36.1 135.6zm84.5 9.5c14 3.8 18.1-11.5 20.2-22 3.1-5 .4-17.8 9-15.9h28c4.3 11.9 4.4 26 12.7 35.8 16.4 10.6 27.2-10.8 19.2-23.8l-34.9-131c-9-21.5-30.2-4-30 12.4C233.1 237 221 280.2 210 323.8c-.4 6.3 4 12.5 10.3 14.1zm40.9-99.7l9 33.8c-5-1.7-19.3 3.8-17.2-3.4l8.2-30.4zM336 338.4c14.6 0 14.8-16 14-26.7V277c17.7-.2 38.7 3 50.6-13.6 14.3-16.9 12.5-40.7 9.6-61.1A41.4 41.4 0 0 0 365 170c-12.2 1-25.5-2.4-36.9 2.6-10 8.9-4.8 23.5-6.1 35.3.2 39.8-.4 79.7.3 119.5a14 14 0 0 0 13.7 11zM350 198c9.7 1.1 20.8-2.7 29.2 2.9 8.6 10.2 5.9 25.1 4.7 37.4-2.6 13-16.2 10.7-25.9 10.7-10.7 3.4-7.8-7-8-14v-37zM479.7 86H30.2c-14.6.2-15 16.2-14.2 27v297.4c.3 14.4 16.5 14.2 27 13.6h436.7c14.4 0 13.8-16.1 13.3-26.5-.2-100 .3-200.1-.3-300.2-1-6.2-6.6-11.4-13-11.3zM466 395H44V114h422v281z"/></svg>