<svg xmlns="http://www.w3.org/2000/svg" width="512" height="512"><path d="M156.82 354c19.67-1.26 40.45 3.42 59.05-4.58 37.9-19.23 41.27-78.02 11.07-105.54 24.22-27.87 11.43-82.07-27.72-87.61-15.96.06-32.27-1.46-48.03.83-14.04 6.38-7.84 23.51-9.21 35.6.21 50.2-.42 100.45.32 150.63 1.44 6.51 8.07 10.76 14.52 10.67zM170 185c12.1 1.48 27.38-4.4 36.05 6.68 12.06 15.53 1.39 44.41-20.16 39.32-6.92-.9-19.44 3.82-15.89-7.54V185zm0 75c14.9 1.26 34.5-5.12 43.02 11.5 8.68 17.17 7.62 45.22-12.43 53.87-10.12 1.3-20.4.34-30.59.63v-66zm108 94.67c15.15-.17 14.58-17.05 14-27.98V279c21.7-.78 47.69 4.78 62.92-15.3 16.4-18.98 13.98-45.6 11.67-68.74-4.14-24.21-27.47-42.38-51.93-38.96-14 .61-28.33-1.3-42.11 1.1-13.32 6.84-7.11 23.6-8.55 35.6.19 50.22-.37 100.47.28 150.66 1.17 6.4 7.18 11.44 13.72 11.31zM292 185c12.53.86 25.7-1.92 37.74 1.78 14.32 10.26 9.67 29.64 9.9 44.82-.54 17.46-17.4 21.3-31.27 19.4-6.04-1.5-19.58 4.48-16.37-6.29V185zM481.7 53H30.3c-15.25.05-14.98 16.9-14.3 27.93.2 122.27-.4 244.58.3 366.82 4.08 15.6 22.23 10.34 34.12 11.25H481.7c15.24-.06 14.99-16.9 14.3-27.93-.2-122.26.4-244.57-.3-366.8-1.25-6.49-7.47-11.34-14-11.27zM466 429H44V81h422v348z"/></svg>