<svg xmlns="http://www.w3.org/2000/svg" width="512" height="512"><path d="M496.68 250.2c-1.85-71.07-36.45-140.71-93.02-184.08C337.84 13.94 243.91.7 166.26 32.8 90.86 62.44 33.4 132.66 19.43 212.5c-14.17 73.12 9.04 152.26 60.04 206.7 54.49 59.9 140.82 88.6 220.11 73.17 81.72-14.3 153.33-74.28 181.68-152.25 10.92-28.56 15.85-59.88 15.42-89.92zm-27.12 10.73c-1.07 79.55-50.9 155.76-123.37 188.6-70.53 33.74-159.04 23.9-220.55-24.33-63.26-47.76-95.67-132.77-79.23-210.42 14.5-78.6 77.11-145.46 154.53-165.23 77.4-21.5 165.58 5.67 217.18 67.32 34.13 39.51 52.88 91.85 51.44 144.06zm-44.73-11.38c-2.1-60.97-39.63-119.16-94.86-145.37-59.16-29.79-135.3-19.72-184.73 24.35-50.17 42.63-70.95 116.04-50.06 178.53 19.32 63.9 80.02 112.23 146.57 117.02 64.75 6.37 131.22-29.22 162.04-86.6a171.36 171.36 0 0 0 21.04-87.93zm-27.1 12.25c-1.53 60.58-46.55 116.58-105.34 131.23-57.8 16.34-123.94-9.33-155.7-60.27-15.65-23.95-22.8-52.82-23.47-81.1 3.02-40.16 20.73-79.8 52.55-105.27 45.5-38.66 115.77-43.13 165.82-10.6 42.52 26.38 68.69 76 66.14 126.01zm-95.73-7c.09-28.75-30.58-51.66-58.11-43.22-28.93 6.79-43.64 44.42-26.67 68.9 14.64 25.15 53.5 28.63 72.54 6.67A47.02 47.02 0 0 0 302 254.8zm-27 2.75c-.59 17.13-25.7 23.85-34.6 9.16-10.27-13.11 3.65-33.8 19.68-29.38 9.2 1.9 15.66 10.93 14.92 20.22z"/></svg>