<svg xmlns="http://www.w3.org/2000/svg" width="512" height="512"><path d="M494 352.73c-.15-64.93.3-130-.22-194.85-.95-10.64-13.51-13.9-21.43-8.73L260 237.17c-.29-27.1.57-54.31-.41-81.35-1.72-7.2-9.68-10.48-16.33-8.82-71.93.02-144.11-.03-215.88.02-10.43 2.75-9.91 15.14-9.41 23.65.19 61.22-.37 122.55.28 183.71.78 8.07 9.2 12.43 16.68 10.63 72.18-.2 144.43.4 216.57-.3 9.52-2.88 8.9-14.15 8.43-22.08v-67.81c72.93 30.05 145.66 60.71 218.72 90.39 7.9 1.8 14.97-4.95 15.35-12.48zM214.52 172l-75.4 67.42L63.75 172h150.77zM43 187.25L119.88 256 43 324.75v-137.5zM63.74 340l75.4-67.4L214.5 340H63.74zM235 255.86v68.88L158.12 256 235 187.25v68.61zm234 78.18L280.7 256 469 177.96v156.08z"/></svg>