<svg xmlns="http://www.w3.org/2000/svg" width="512" height="512"><path d="M172.8 221.8c17.36-.94 51.39 26.3 51.1-6.8-9.63-16.95-32.93-20.81-51.09-21.85-35.02.67-49.8 47.45-30.77 73.4 11.77 14.89 30.24 22.09 45.4 33.03 20.36 13.7.7 45.6-20.72 29.75-12.9-15.71-43.9-3.67-29.13 16.38 18.34 13.15 45.21 21.74 66.28 10.16 29.37-18.34 26.37-67.84-4.72-82.78-10.7-7.24-22.26-13.34-32.4-21.3-6.96-8.28-6.1-27.09 6.05-29.99zm321.84.23c-12.31-46.34-24.76-92.64-37.15-138.96-9.5-21.36-31.47-4.22-31.12 12.8-11.3 43.06-23.42 85.94-34.27 129.1 0 22.33 31.48 16.41 30.35-3.33 3.03-5.94 1.75-17.5 7.71-19.63h29.29c4.1 11.52 4.4 25 11.92 34.82 10.4 9.25 27.15-1.48 23.27-14.8zM435.4 173l8.23-30.82 8.2 30.82H435.4zm-94.14 98.8c-1.43-62.01-41.87-120.9-99.4-144.21-57.88-25.17-129.67-11.94-174.84 32.13-42.13 39.43-59.94 102.15-45.2 157.83C36.71 378.83 90.58 428 152.93 437.4c39.5 6.25 81.43-2.13 114.97-24.47 46.95-30.15 75.46-85.51 73.35-141.14zm-28.77 12.9c-2.4 54.2-41.2 104.3-93.17 119.97-14.54 4.93-29.87 6.3-45.08 5.48-59.17.3-113.63-46.05-125.6-103.57-4.56-22.6-3.94-46.57 2.67-68.72 15.5-53.13 67.1-92.72 122.4-94.15 55.44-2.98 110.18 32.7 129.7 84.7a134.19 134.19 0 0 1 9.08 56.29z"/></svg>