<svg xmlns="http://www.w3.org/2000/svg" width="512" height="512"><path d="M494 351.13V160.46c-1.13-7.46-7.23-16.18-16-15.23-4.1-.22-9.53 2.3-14.59 4.57L264 232.62c-.23-25.07.46-50.2-.35-75.24-4.54-14.94-21.99-10.79-33.9-11.38-66.24.18-132.51-.36-198.73.27-13.77 1.58-13.6 16.3-13.02 26.8V351.3c.3 14.7 16.65 15.5 27.72 14.7 68.35-.19 136.73.37 205.06-.28 13.84-1.65 13.87-16.4 13.23-27.02v-59.55c69.2 28.83 139.37 57.71 207.98 86.5 10.5 4.35 20.5-3.35 22.01-14.52zm-261-95.4V335H49V177h184v78.73zm230 72.3L288.92 255.9 463 183.73v144.3z"/></svg>