<svg xmlns="http://www.w3.org/2000/svg" width="512" height="512"><path d="M482.44 142H29.52c-13.58-.3-14.41 14.35-13.52 24.37.19 64.52-.38 129.08.28 193.57 4.09 13.94 20.43 9.24 31.3 10.06h434.87c13.6.3 14.45-14.34 13.55-24.37-.19-64.52.38-129.09-.29-193.58-1.27-6-7.29-10.16-13.27-10.05zM470 344H42c.34-12.99-.69-26.33.51-39.09l43.32-78.4c15.57 27.93 30.57 56.23 46.5 83.93 6.17 8.43 20.44 5.55 23.45-4.44l43.6-79.45c15.45 27.93 30.53 56.1 46.2 83.89 6.13 8.42 20.43 5.55 23.42-4.44l43.6-79.46c15.45 27.95 30.59 56.08 46.22 83.91 6.17 8.36 20.42 5.46 23.47-4.46l43.91-79.48 43.8 79.27V344zm0-92.7c-11.47-20.02-21.88-40.79-34.01-60.33-6.37-8.23-20.22-4.9-23.14 4.84l-43.61 79.47c-15.75-28.18-30.68-56.9-46.93-84.76-6.52-7.8-19.87-4.14-22.72 5.3L256 275.23c-15.75-28.17-30.65-56.9-46.92-84.73-6.55-7.8-19.88-4.2-22.75 5.28l-43.59 79.46c-15.75-28.17-30.64-56.9-46.91-84.73-6.68-7.96-19.82-3.9-23.03 5.26L42 251.37V168h428v83.3z"/></svg>