<svg xmlns="http://www.w3.org/2000/svg" width="512" height="512"><path d="M494.3 164.7c.1-10.25-11.4-15.85-20.38-12.87L120 189.22c-.54-11.45 1.2-23.2-1.12-34.43-6.03-12.92-21.64-7.73-32.9-8.8-18.97.2-37.98-.4-56.92.3-14.26 3.55-10.62 19.8-11.06 30.76.19 59.16-.37 118.36.28 177.5C21.13 368.7 36.91 365.81 47.6 366c20.37-.2 40.79.39 61.13-.3 14.4-3.43 10.9-19.72 11.28-30.75v-24.61c78.82 11.23 157.65 22.38 236.46 33.65 4.7 1.94 11.54-2.6 14.33-7.16 40.63-55.23 81.78-110.13 122.09-165.58a13.36 13.36 0 0 0 1.42-6.55zM93 204.66V338H45V174h48v30.66zm259.4 110.72L120 282.34V217.1l330.63-34.93c-32.74 44.4-65.52 88.8-98.23 133.21z"/></svg>