<svg xmlns="http://www.w3.org/2000/svg" width="512" height="512"><path d="M156 339.93c14.54-.02 14.77-15.97 14-26.62V262c14.02-.6 28.37 1.3 42.16-1.12 16.85-7.36 5.17-31.86-11.2-26.88H170v-34c14.02-.6 28.37 1.3 42.16-1.12 16.85-7.36 5.17-31.86-11.2-26.88-16.5.6-33.3-1.28-49.58 1.1-13.81 5.77-8.22 22.17-9.37 33.77.2 40.68-.39 81.41.29 122.07 1.26 6.3 7.33 11.08 13.7 10.99zm84.67-.46c14 3.68 18.1-11.77 20.16-22.14 3.16-5.26.53-18.06 9.05-16.33h28.24c4.27 12 4.33 26.2 12.64 36.16 16.32 10.79 27.13-10.63 19.2-23.57l-35-131.33c-9.02-21.53-30.16-4.05-29.9 12.42-11.42 43.59-23.58 87.03-34.57 130.71-.48 6.36 4.06 12.62 10.18 14.08zm40.98-99.67l9.1 34.2c-5.03-1.7-19.37 3.75-17.33-3.39l8.23-30.81zM357 339.93c14.54-.02 14.77-15.97 14-26.62-.2-43.42.39-86.87-.29-130.26-3.89-18.74-32.66-10.36-27.71 7.45.2 46.14-.39 92.32.29 138.44 1.26 6.3 7.32 11.08 13.71 10.99zm137-239.17c-.07-14.48-16.07-14.45-26.62-13.76H30.76c-14.48.07-14.45 16.07-13.76 26.62.19 100.13-.37 200.3.28 300.4 3.65 14.93 20.88 10.23 32.19 10.98h430.77c14.48-.07 14.45-16.07 13.76-26.62V100.76zM469 398H45V114h424v284z"/></svg>