<svg xmlns="http://www.w3.org/2000/svg" width="512" height="512"><path d="M126 340.73c14.68-.06 14.7-16.28 14-27V264c13.54-.6 27.38 1.27 40.7-1.1 17.34-7.28 5.19-32.03-11.34-26.9H140v-36c13.54-.6 27.38 1.27 40.7-1.1 17.34-7.28 5.19-32.03-11.34-26.9-16.38.68-33.15-1.45-49.25 1.21-12.59 7.51-6.75 23.76-8.1 35.82.19 40.13-.37 80.3.28 120.42 1.18 6.4 7.2 11.4 13.71 11.28zm82.87-.47c15.77 3.74 18.52-13.65 21.22-24.67 2.36-6.07 1.06-16.92 10.66-13.59h25.12c4.15 11.66 4.34 25.32 11.92 35.3 13.86 11.71 29.6-7.58 21.13-21.09l-35.49-133.06c-9.13-21.9-30.88-4.41-30.62 12.44-11.37 43.43-23.5 86.69-34.4 130.21a14.18 14.18 0 0 0 10.46 14.46zm40.9-98.3l8.56 32.04c-5.06-1.7-19.92 4.15-15.9-4.53 2.45-9.16 4.92-18.39 7.34-27.51zM324 340.73c14.68-.06 14.7-16.28 14-27V278c17.63-.34 38.63 3.23 50.89-12.96 14.2-16.71 12-40.45 9.41-60.67-4.13-20.53-24.07-35.36-44.85-32.37-12.3 1.01-25.59-2.43-37.05 2.62-10.48 8.8-5.05 23.67-6.4 35.58.19 39.74-.37 79.52.28 119.25 1.17 6.4 7.2 11.41 13.72 11.28zM338 200c9.06.78 18.84-1.65 27.41 1.39 9.6 9.19 6.03 23.66 6.35 35.58-.2 14.44-15.07 13.56-25.33 13.02-10.46 3.36-8.7-5.51-8.43-12.88V200zM480.55 87H31.45c-14.77.11-15.3 16.3-14.45 27.24v296.4c.18 14.76 16.41 15.18 27.33 14.36h436.22c14.77-.11 15.3-16.3 14.45-27.24v-296.4c.1-7.68-6.8-14.47-14.45-14.36zM466 398H46V115h420v283z"/></svg>