<svg xmlns="http://www.w3.org/2000/svg" width="512" height="512"><path d="M494.96 296.78c.5-80.06-42.44-158.67-110.3-201.22-68.41-44.59-160.02-50-233.16-13.68-75.28 35.7-128.14 113.44-133.82 196.53-.31 10.94-4.61 27.61 9.75 31.32 49.83.62 99.72.1 149.57.27v118c-32.6.17-65.25-.34-97.84.26-18.4 3.65-9.37 30.98 7.63 25.74 35.39-.16 70.81.32 106.18-.24 15-4.5 8.68-21.88 10.03-33.47V310h106c.16 44.68-.32 89.38.24 134.04 4.15 14.63 20.98 8.75 32.17 9.96 30.44-.17 60.9.35 91.32-.26 18.37-3.66 9.36-30.97-7.63-25.74H335V310c50.05-.27 100.2.54 150.19-.4a13.24 13.24 0 0 0 9.77-12.82z"/></svg>