<svg xmlns="http://www.w3.org/2000/svg" width="512" height="512"><path d="M159.5 355.35c15.45-.12 15.16-17.28 14.5-28.5V262c16.93-.69 34.24 1.44 50.91-1.2 18.06-7.87 5.55-34.13-11.98-28.8H174v-45c16.93-.69 34.24 1.44 50.91-1.2 18.06-7.87 5.55-34.13-11.98-28.8-19.8.66-39.95-1.37-59.53 1.1-13.14 7-6.96 23.76-8.4 35.78.2 49.89-.38 99.82.29 149.7 1.18 6.65 7.41 11.92 14.21 11.77zM264.24 187H295c.2 52.18-.41 104.41.31 156.57 4.15 20.1 35 11.11 29.69-7.97V187c12.52-1.02 26 2.43 37.7-2.6 15.54-10.98.38-32.37-15.73-27.4-28.56.2-57.16-.41-85.69.31-17.14 3.6-14.61 29.6 2.96 29.69zM479.62 54H32.38C16.97 54.02 17.37 71.15 18 82.28c.19 121.37-.38 242.79.28 364.14 3.73 15.91 22.14 10.71 34.08 11.58h427.26c15.41-.02 15.01-17.15 14.38-28.28-.19-121.37.38-242.79-.28-364.14A14.25 14.25 0 0 0 479.62 54zM465 429H47V83h418v346z"/></svg>