<svg xmlns="http://www.w3.org/2000/svg" width="512" height="512"><path d="M137.5 339.8c14.39-.12 14.12-16.09 13.5-26.53V261c13.88-.59 28.06 1.25 41.73-1.05 16.84-7.15 4.82-31-11.16-25.95H151v-34c13.88-.59 28.06 1.25 41.73-1.05 16.84-7.15 4.82-31-11.16-25.95-16.42.54-33.1-1.13-49.34.95-12.57 5.58-6.99 21.04-8.23 31.8.18 41.05-.36 82.13.27 123.15 1.13 6.2 6.94 11 13.23 10.9zm112.25-.8c11.5-1.23 24.7 3.18 34.63-3.93 11.84-12.46-4.32-27.03-17.84-23.07-9.9-.4-24.24 3.08-27.46-10-2.34-22.83-.49-46.08-1.08-69.08.45-11.56-3.19-29.5 11.75-32.92 11.5-1.23 24.7 3.18 34.63-3.93 11.84-12.46-4.32-27.03-17.84-23.07-16.87-.73-36.51-.29-46.64 15.85-13.56 19.3-7.55 43.62-8.9 65.64 1.1 20.57-3.19 42.1 4.7 61.64 6.06 13.05 19.34 23.04 34.05 22.87zm62.25.8c14.5-.01 14.8-15.9 14-26.53V278c17.67-.25 38.74 3.1 50.76-13.42 14.13-16.8 12.27-40.52 9.52-60.8-4.37-20.3-24.7-33.56-44.9-30.78-12.31.83-25.29-1.97-37.03 2.08-10.39 7.2-5.01 21.2-6.35 31.85.2 40.65-.39 81.34.3 121.97 1.29 6.27 7.36 10.95 13.7 10.9zM326 200c9.79 1.03 20.78-2.5 29.53 2.66 8.27 9.16 4.92 22.46 5.2 33.72-.28 14.5-14.3 15.88-25.21 14.62-9.96 2.88-10.73-3.42-9.52-11.7V200zM481.03 87H30.97c-14.5-.05-14.76 15.8-13.97 26.4.2 100.27-.39 200.58.3 300.82 3.96 14.74 21.07 10 32.4 10.78h431.33c14.5.05 14.76-15.8 13.97-26.4-.2-100.27.39-200.58-.3-300.82-1.27-6.24-7.36-10.87-13.67-10.78zM467 398H45V114h422v284z"/></svg>