<svg xmlns="http://www.w3.org/2000/svg" width="512" height="512"><path d="M195.5 356.15c15.86.02 16.42-17.3 15.5-29-.22-53.06.43-106.17-.32-159.2-4.29-20.56-36.01-11.53-30.68 8.09.22 56-.43 112.05.32 168.02 1.42 6.95 8.14 12.2 15.18 12.09zm83.52 0c34.42-.12 56.15-37.1 52.98-68.67-.21-39.84.43-79.72-.32-119.53-4.29-20.55-36-11.54-30.68 8.08-.3 41.37.6 82.8-.46 124.13.69 24.73-34.94 35.59-41.79 8.77-5.16-19.6-1.77-40.29-2.75-60.4-.2-26.85.4-53.75-.3-80.58-3.95-20.69-35.25-11.3-29.7 8.09.37 42.4-.76 84.88.61 127.25 2.97 26.54 24 53.06 52.41 52.86zM480.35 53H31.65C15.75 52.87 15.02 70.14 16 81.86v362.11c.35 15.76 17.88 15.77 29.48 15.03h434.87c15.89.12 16.63-17.14 15.65-28.86V68.03c.13-8.28-7.54-15.18-15.65-15.03zM465 429H47V83h418v346z"/></svg>