<svg xmlns="http://www.w3.org/2000/svg" width="512" height="512"><path d="M494 30.83c-.87-16.94-19.64-13.7-31.37-13.83-144.86.19-289.75-.38-434.58.28C11.7 22.33 18.39 41.08 17 53.77c.19 143.05-.38 286.15.28 429.18 5.05 16.34 23.8 9.66 36.49 11.05 143.06-.19 286.15.38 429.19-.28 16.33-5.05 9.65-23.8 11.04-36.49V30.83zM468 468H45V45h423v423zM130.53 263.75c2.3 53.3 41.97 102.14 93.77 115.05 5.48 2.73 15.32 1.1 18.7 4.82 26.47.37 55.28-3.88 78.55-18.6 46.68-27.02 71.38-86 57.77-138.2-12.04-53.4-62.37-94.77-117.09-96.37-8.1.11-16.72-1.4-23.3 1.12-56 6.88-102.87 55.8-107.8 111.91-.88 6.71-.76 13.55-.6 20.27zm27.74-14.52C161 204.2 198.15 164.4 243 159v195.34c-47.07-5.55-85.43-49.22-84.95-96.6-.1-2.84.12-5.68.22-8.51z"/></svg>