<svg xmlns="http://www.w3.org/2000/svg" width="512" height="512"><path d="M150 356.05c15.19-.17 14.56-17.13 14-28.08V234.5c7.02 13.77 12.84 28.23 20.7 41.52 14 14.08 25.76-4.54 29.84-17.03L226 234.58c.2 36.68-.4 73.4.3 110.05 4.06 19.6 33.98 10.64 28.7-7.9V171.7c-3.82-24.91-30.23-11.22-33.03 6.25l-26.44 55.17c-11.95-23.74-22.15-48.51-35.27-71.57-18.22-14.09-27.48 10.24-24.26 25.19.18 52.63-.37 105.3.28 157.9 1.13 6.46 7.13 11.58 13.72 11.41zm136 0c15.19-.17 14.56-17.13 14-28.08V281c20.38-1.05 44.12 4.75 59.85-12.13 19.13-18.16 17.01-45.94 15.25-69.87-3.13-24.45-26.11-44.39-51.02-41-14.44.57-29.16-1.21-43.4 1.03-13.29 6.08-7.35 22.47-8.68 33.95.18 50.55-.37 101.13.28 151.65 1.12 6.45 7.13 11.57 13.72 11.42zM300 187c12.53.85 25.7-1.89 37.74 1.75 14.28 10.05 9.7 29.24 9.9 44.23-.73 17.2-17.38 20.87-31.08 19.02-6.1-1.5-19.68 4.46-16.56-6.27V187zM495 68.3c-.1-15.26-17.02-14.97-28.08-14.3H31.3c-15.26.1-14.97 17.02-14.3 28.08.2 121.83-.39 243.7.29 365.5 3.93 15.73 22.15 10.55 34.06 11.42H480.7c15.26-.1 14.97-17.02 14.3-28.08V68.3zM466 431H46V82h420v349z"/></svg>