<svg xmlns="http://www.w3.org/2000/svg" width="512" height="512"><path d="M480.87 17c-150.87.19-301.77-.38-452.62.28C11.68 22.3 18.4 41.31 17 54.13c.19 143.2-.38 286.43.28 429.6 5 16.6 24.01 9.89 36.83 11.27 143.21-.19 286.45.38 429.64-.28 16.57-5.02 9.86-24.03 11.25-36.85-.19-143.2.38-286.43-.28-429.6-1.15-6.46-7.34-11.42-13.85-11.27zM154.13 71.73c68.2-38.6 157.84-34.11 221.75 11.3a214.82 214.82 0 0 1 18.47 14.32l-138.42 138.4L117.56 97.4a211 211 0 0 1 36.57-25.67zM414.6 117.6c50.94 57.28 66.07 143.2 37.69 214.42a212.67 212.67 0 0 1-37.69 62.41L276.2 256l138.4-138.4zM45 45h97.5c-39.55 22.01-73.09 54.67-95.46 94.02-4.27 6.92-1.03-13.34-2.04-18.22V45zm0 208.53c1.27-49.54 19.47-98.63 52.27-135.96L235.7 256 97.27 394.4C63.22 355.8 45.25 304.74 45 253.53zM45 467v-97.45c22.55 40.54 56.36 74.76 97.1 97.05-11.75.93-27.1.13-40.24.4H45zm316.48-28.78c-65.54 38.7-152.02 37.48-216.33-3.28-9.72-6-18.93-12.83-27.56-20.32l138.4-138.4c46.03 46.17 92.6 92.35 138.3 138.52a219.94 219.94 0 0 1-32.81 23.48zM467 467h-97.5c40.49-22.61 74.64-56.37 97.07-96.95 1.07 4.83.15 16.28.46 23.65-.02 24.42.04 48.93-.03 73.3zm0-324.35c-21.82-39.23-54.06-72.56-92.98-94.97-10.37-5.18 11.02-1.65 15.76-2.68H467v97.65z"/></svg>