<svg xmlns="http://www.w3.org/2000/svg" width="512" height="512"><path d="M256.9 229.22c15.17 1.66 40.04 21.57 42.12-6.35-1.9-18.35-24.08-24.64-39.77-26.15-27.3-.74-39.31 32.78-33.83 55.56 2.54 21.04 21.99 31.2 36.97 42.83 14.15 5.04 10.88 34.3-6.53 24.35-14.66-17.33-42.27-1.06-27.87 19.28 15.83 15 46.92 23.39 61.45 2.18 17.05-23.26 11.18-60.61-14.54-75.03-7.4-7.18-19.7-10.73-22.58-21.38-.72-5.05-.45-12.6 4.58-15.29zM58.94 88c-11.12.68-22.7-1.5-33.47 1.34-11.83 9.19-6.1 25.74-7.47 38.67.15 34.83-.3 69.68.23 104.5.97 14.2 16.2 12.8 26.43 12.49 13.42.6 29.13.47 37.06-12.63 14.05-20.44 7.91-46.04 9.28-69.27-.7-23.9 4.6-52.72-16.65-69.69A25.4 25.4 0 0 0 58.94 88zM64 201.57c3.81 12.21-15.62 14.73-19 9.1V120c10.43-1.98 21.75 1.26 19 14.71v66.86zm430-35.02c.33-24.14-1.32-52.32-17.35-72.14-22-19.22-41.76 12.87-43.13 32.97-5.45 35.29-6.73 74.1 10.26 106.6 14.46 25 44.5 3.48 45.53-19.02 4.79-15.7 4.4-31.9 4.69-48.41zm-27 .45c-.58 9.83-.53 36.98-5.59 35.92-4.73-24.6-5.18-50.82 1.17-75.2 4.1 12.59 4.2 26.21 4.42 39.28zm-79.24 103.22c-1.19-53.37-29.12-108.53-78.43-132.37-36.78-18.5-83.18-12.94-115.49 12.21-39.92 30-60.24 81.67-58.1 130.6.84 54.76 30.99 111.58 82.65 133.88 31.23 13.87 68.36 11.45 97.9-5.63 48.28-27.27 73.36-84.95 71.47-138.69zm-27.78 11.48c-1.63 44.6-28.17 90.77-72.12 105.12-35.77 12.37-76.67-3.55-98.75-33.32-18.13-23.43-27.32-53.61-25.13-83.15-.48-46.89 29.68-95.93 76.51-108.25 37.43-10.45 78.03 9.23 98.41 41.14 15.32 22.91 22.6 51.04 21.08 78.46z"/></svg>