<svg xmlns="http://www.w3.org/2000/svg" width="512" height="512"><path d="M90.48 217.63c13.65 0 37.23 19.36 39.06-5.85-5.6-14.71-24.91-17.86-39.06-18.66-28.56.5-39.34 40.26-21.1 59.38 9.78 9.27 22.59 14.67 33.12 22.96 11.7 20.75-15.4 21.6-26.2 10.88-22.73-3.89-17.34 27.63 1.73 28.03 15.78 6.65 37.66 5.76 46.42-11.36 11.46-18.56 3.26-44.83-16.63-53.64-7.03-5.36-16.25-8.43-21.66-15.5-2.3-5.1-1.9-14.18 4.32-16.24zM197.92 194c-18.73.16-37.48-.32-56.19.24-16.89 3.2-8.91 28.45 6.75 23.76 8.32-1.6 12.73.7 10.52 9.64.17 26.95-.35 53.94.26 80.88 3.53 16.76 29.2 9.15 24.74-6.75V218c9.25-.3 23.14 2.64 25.92-9.54 1.76-7.32-4.56-14.73-12-14.46zm285.48 50H253.6c-3.96-48.19-40.6-91.28-87.41-103.22-45.92-13.05-98.47 5.23-126.43 43.91-14.65 19.86-23.72 44.53-23.18 69.32a108.53 108.53 0 0 0 5.63 39c14.45 45.88 59.22 79.82 107.26 81.53 46.01 2.86 92.39-24.26 112.34-65.98 6.29-12.3 10.08-26.3 11.79-39.62 77.42-.17 154.87.35 232.27-.26 14.25-3 12.06-24.79-2.47-24.68zm-253.76 17c-1.75 42.01-34.75 80.09-76.19 87.47-10.97 2.15-22.03 3.37-33.03.62-42.29-6.05-77.3-43.93-79.35-86.7-3.62-40.79 22.73-81.67 61.32-95.3 39.88-15.57 88.87.53 111.76 36.7 11.1 16.76 16.52 37.4 15.49 57.21z"/></svg>