<svg xmlns="http://www.w3.org/2000/svg" width="512" height="512"><path d="M157.6 251.56c-8.66-6.32-19.18-10.63-26.66-18.22-4.01-27.17 25.22 3.53 36.65-6.85 17.04-13.86-4.1-31.11-19.2-32.69-17.67-6.26-39.5 1.55-45.27 20.44-7.63 18.96 1.74 41.79 20.16 50.28 6.83 5.56 17.16 8.05 21 16.29-.58 25.48-28.46-9.48-39.55 6.58-13.57 16.24 9.27 29.4 23.55 31.35 18.5 6.1 40.02-4.8 44.19-24.33 4.34-15.47-1.1-33.93-14.87-42.85zM479.62 241c-74.49-.13-149.43.27-223.63-.2-5.49-47.07-41.61-88.61-87.57-100.33-46.51-13.22-99.83 5.48-127.8 44.96-17.25 23.33-25.18 53.08-22.46 81.84 3.8 48.28 40.16 91.65 86.94 104.04 11.74 3.48 24.38 4.64 36.21 4.09 50.09-.44 96.92-36.87 110.63-84.92 1.9-6.37 3.27-12.88 4.19-19.46h223.58c19.23.15 19.12-30.26-.09-30.02zm-252.18 20.06c-1.6 40.53-33.8 77.1-73.84 83.73-40.64 8.27-84.66-15.78-99.78-54.38-16.22-37.47-2.7-84.72 30.93-107.9 32.5-24.11 80.99-21.99 111.27 4.84 21.17 17.98 33.1 45.98 31.42 73.71z"/></svg>