<svg xmlns="http://www.w3.org/2000/svg" width="512" height="512"><path d="M210.2 277.54c-12.9-8.73-26.78-16.18-39.13-25.64-16.04-20.71 10.07-41.18 29.16-25.43 16.44 19.96 44.5-10.88 20.41-22.52-21.25-12.23-53.6-20.13-71.73 1.56-20.59 23.17-13.26 64.22 15.1 77.52 10.61 7.2 22.13 13.2 32.15 21.18 15.98 20.41-9.7 41.14-28.79 25.62-21.52-22.9-45.36 18.14-15.31 25.33 21.49 10.95 53.59 15.53 68.85-7.86 15.27-21.14 11.34-54.75-10.71-69.76zM479.94 210c-10.36-1.02-21.9 2.45-31.24-2.63-9.6-11.2-4.33-27.09-5.7-40.62.61-19.77-1.3-39.79 1.1-59.37 3.88-14.59 20.15-9.5 31.2-10.38 18.96 5.04 27.48-25.67 7.61-29.69-19.61-.11-43.2-4.22-56.93 13.66-17.4 20.26-10.59 47.84-11.98 72.19 1.32 22.2-4.16 45.98 7 66.35 8.7 17 28.14 22.13 45.76 20.49 11.27.92 27.95.26 27.92-15 .15-7.91-6.75-15.14-14.74-15zM349.8 272.5c-1.45-63.94-43.43-124.6-102.89-148.25-59.52-25.25-133.04-11.3-178.93 34.3C24.66 199.81 6.62 265.38 23.46 322.8c16.28 60.8 69.95 109.22 132.1 119.14 18.5 3.26 36.73 3.53 55.22.14 63.4-9.75 118.1-59.67 133.67-121.89 4.07-15.5 5.85-31.8 5.35-47.69zm-29.57 13.2c-2.45 55.47-42.15 106.76-95.34 122.83-53.21 17.6-115.84-2.02-149.54-46.8-35.87-45.14-37.96-113.22-4.95-160.47 31.07-47.33 93.36-70.7 147.9-55.56 54.36 13.48 96.8 63.45 101.42 119.24.75 6.89.63 13.91.51 20.76z"/></svg>