<svg xmlns="http://www.w3.org/2000/svg" width="512" height="512"><path d="M157.97 257c10.93 7.4 22.74 13.7 33.18 21.74 13.76 17.49-8.03 36.75-25.09 22.66-13.75-17-38.63 8.3-17.74 18.8 18.24 10.5 46 17.19 61.56-1.38 17.64-19.85 11.38-55.02-12.92-66.43-9.2-6.27-19.24-11.45-27.94-18.4-13.77-17.52 8.08-36.82 25.14-22.65 18.28 19.71 38.76-15.16 13.08-21.3-18.46-9.39-46.04-13.4-59.15 6.7-13.22 18.33-9.61 47.72 9.88 60.26zm337.08 90.7c-.25-61.95.25-123.97-.25-185.89-1.8-9.63-14.53-12.54-21.44-6.3L343 234.3c-.16-23.83.31-47.68-.23-71.49-1.9-12.77-15.85-10.9-25.33-10.81H29.2c-12.94.64-12.73 15.22-12.2 24.83.16 57.69-.32 115.41.24 173.08 3.01 13.57 18.53 9.47 28.66 10.09H331c12.9-.24 12.5-14.7 12-24.07v-57.6c44.45 26.6 88.83 53.4 133.33 79.87 7.9 4.94 18.95-1.43 18.72-10.5zM318 335H42V177h276v158zm152-9.52L354.83 256.3 470 186.6v138.88z"/></svg>