<svg xmlns="http://www.w3.org/2000/svg" width="512" height="512"><path d="M210.25 276.16c-12.61-8.45-26.07-15.8-38.15-24.95-16.18-22.62 13.95-37.97 31.4-21.74 20.18 18.64 41.44-20.42 15.14-27.8-22.28-12.33-56.54-18.07-72.89 6.63-18.25 24.59-9.05 63.54 18.95 76.37 10.8 8.05 24.56 12.98 32.93 23.6 12.2 30.85-26.96 27.95-42.81 14.14-26.96-1.88-20.11 35.05 2.67 36.18 20.95 9.13 50.4 11.1 64.42-10.7 15.84-21.82 11.48-56.69-11.66-71.73zM495 153.72c-.53-27.75-3.32-59.04-23.31-80.2-21.02-17.85-46.83 4.45-51.02 26.67-10.58 35.55-10.7 74.96.85 110.29 4.26 23.38 34.2 42.76 52.99 21.77 17.48-21.92 20.3-51.6 20.49-78.53zm-33.75 29.06c-.96 12.5-8.8 32.95-12.31 9.86-7.18-29.45-7.44-62.09 5.09-90.14 10.46 21.78 9.45 46.84 8.57 69.92-.34 3.46-.76 6.94-1.35 10.36zM350.73 272.5c-1.5-63.8-43.12-124.32-102.26-148.37-58.7-25.46-131.37-12.77-177.9 31.19C25.2 196.27 6.13 263.16 22.64 321.94c16.19 62.4 71.67 112.05 135.5 121.19 9.23 1.65 18.66 2.13 27.71.91 17.81 2.11 36.74-2.98 53.92-8.59 60.4-20.7 105.49-78.81 110.4-142.49.64-6.77.88-13.78.56-20.46zm-31.77 13.18c-2.45 54.86-41.71 105.59-94.34 121.43-45.98 14.63-99.5 2.8-134.13-31.11-29.34-27.38-44.73-68.3-41.4-108.22 3.14-57.42 47.65-109.05 103.7-121.38 54.95-13.76 116.7 11.7 145.92 60.24a136.04 136.04 0 0 1 20.25 79.04z"/></svg>