<svg xmlns="http://www.w3.org/2000/svg" width="512" height="512"><path d="M172.38 166.44c21.63-2.35 39.4 13.21 59.03 16.43 30.85-14.06-6.01-41.08-25.87-42.48-24.4-8.21-56.03-7.82-72.11 15.47-24.7 31.3-15.06 83.68 21.63 101.3 16.5 11.3 34.76 20.39 50.02 33.27 15.46 17.33 7.7 58-20.22 54.41-21.37 2.76-38.44-21.01-58.31-13.8-22.3 23.56 21.19 38.53 39.51 42.21 23.4 6.84 51.88 2.01 65.63-19.84 22.74-31.55 12.41-81.89-23.39-99.03-16.48-11.28-34.7-20.35-49.91-33.24-13.2-15.79-10-51.35 13.99-54.7zm188.15 111.38c26.38-13.25 33.47-44.67 31.47-71.8 2.8-30.23-13.54-66.17-46.53-70.7-21.44-.49-42.96-.58-64.38.02-17.1 5.06-10.95 25.2-12.09 38.53.21 63.25-.42 126.55.32 189.78 4.26 21.22 36.44 11.44 30.68-8.5V284h29.62c12.1 28.85 22.52 58.54 35.7 86.86 15.8 16.85 36-8.27 23.12-23.5-9.3-23.17-18.63-46.38-27.91-69.54zm-20.6-25.35c-12.58 1.24-26.74.18-39.93.53v-87c14.78.37 29.68-.8 44.38.66 20.83 9.92 16.05 35.24 16.62 54.17-.06 12.93-6.15 30.32-21.07 31.64zm153.89-4.07c-1.95-81.12-48.78-159.27-119.59-198.97C304.37 8.73 213.68 7.7 142.9 46.79 71.1 85 22.35 162.3 18.85 243.55c-2.23 31.2 3.38 63.16 13.77 92.76 27.36 78.66 99.3 139.27 181.32 153.36a229.76 229.76 0 0 0 88.86-.85c79.85-15.18 149.11-74.62 176.58-151.08a239.27 239.27 0 0 0 14.44-89.34zm-31.14 18.93c-3.56 74.72-51.2 145.07-119.36 175.94-45.54 21.23-98.8 25.58-146.85 10.43-74.4-21.59-132.89-88.43-144.36-165.05C38.93 214.62 71.6 135.17 131.86 90.5c61.06-46.84 148.81-54.85 217.2-19.43 71.69 34.96 118.17 114.48 113.59 194.09 1.06-.42-.83 2.37.03 2.17z"/></svg>