<svg xmlns="http://www.w3.org/2000/svg" width="512" height="512"><path d="M219.57 279.3c-13.56-9.24-28.35-16.91-41.16-27.13-17-22.47 11.1-46.44 32.54-28.48 16.04 20.18 44.53-9.94 20.45-21.63-22-12.65-55.55-21.06-74.33 1.45-21.12 23.89-13.65 66.1 15.48 79.86 11.37 7.72 23.7 14.16 34.43 22.72 17.8 22.28-10.56 47.08-32.17 28.87-16.03-20.18-44.5 9.97-20.43 21.63 21.99 12.67 55.52 21.04 74.3-1.45 18.92-21.67 15.41-59.88-9.11-75.84zM480 58.2c-15.12.16-14.58 17.04-14 27.96.18 46.76-.37 93.57.28 140.31 3.67 19.76 33.2 10.46 27.72-7.84-.18-49.66.37-99.35-.28-148.98-1.12-6.47-7.11-11.62-13.72-11.45zM367.32 273.5c-1.52-64.7-42.45-126.33-101.55-152.73-57.42-27.08-129.19-18.92-179.16 20.2C35.98 179.16 9.4 246.59 20.96 308.89c10.34 64.57 60.29 120.5 123.27 138.05 16.56 4.82 34.64 7.47 51.35 6.52 69.05.74 134.96-45.6 159.64-109.81 8.74-22.18 13.1-46.46 12.1-70.15zm-28.84 13.98c-2.56 58.63-44.23 112.87-100.24 130.4-56.33 19.24-123.13-.74-159.49-47.9-19.25-23.52-29.17-53.27-32.04-83.22-1.5-16.18 2.36-32.63 6.24-48.32 15.97-57.7 70.75-101.62 130.55-104.62 59.27-4.65 118.84 31.27 142.43 85.83a146.2 146.2 0 0 1 12.55 67.83z"/></svg>