<svg xmlns="http://www.w3.org/2000/svg" width="512" height="512"><path d="M135.8 328.44c8.97 22.03 30.19 4.15 29.96-12.42 11.41-43.52 23.54-86.89 34.5-130.51 1.33-19.2-28.6-18.41-28.3.06l-22.82 85.53c-8.42-30.87-16.12-61.98-24.99-92.7-8.55-17.33-33.91-1.44-24.46 14.39 12.03 45.21 24.1 90.45 36.11 135.65zm84.45 9.46c14 3.84 18.18-11.54 20.23-21.92 3.15-5.12.46-17.86 8.98-15.98h28.1c4.29 11.87 4.3 25.97 12.64 35.76 16.4 10.64 27.18-10.78 19.25-23.75L274.5 181c-9.07-21.5-30.23-4.06-29.97 12.43-11.4 43.46-23.53 86.77-34.48 130.33a13.88 13.88 0 0 0 10.2 14.14zm40.92-99.74L270.2 272c-4.95-1.72-19.3 3.78-17.16-3.39l8.13-30.45zM336 338.37c14.55-.03 14.77-16 14-26.66V277c17.66-.18 38.66 2.92 50.6-13.6 14.28-16.87 12.47-40.75 9.65-61.14-4.42-20.48-24.45-35.2-45.23-32.26-12.25 1.02-25.5-2.44-36.9 2.6-10.11 8.89-4.77 23.53-6.12 35.34.2 39.8-.38 79.64.29 119.41A14.1 14.1 0 0 0 336 338.37zM350 198c9.67 1.14 20.83-2.73 29.25 2.9 8.56 10.23 5.81 25.14 4.65 37.41-2.64 12.98-16.15 10.72-25.9 10.69-10.72 3.38-7.78-6.9-8-14.03V198zM479.7 86H30.2c-14.6.18-15.02 16.2-14.2 27v297.36c.33 14.47 16.46 14.27 27.06 13.64h436.62c14.4-.07 13.86-16.14 13.32-26.5-.17-100.05.35-200.13-.26-300.16-1.04-6.2-6.6-11.48-13.04-11.34zM466 395H44V114h422v281z"/></svg>