<svg xmlns="http://www.w3.org/2000/svg" width="512" height="512"><path d="M400.86 123.87c-1.1-11.5-14.02-14.57-23.6-12.87-84.87.24-169.81-.48-254.63.36-12.12 2.19-12.6 16.27-11.64 25.96.21 83.74-.43 167.56.32 251.25 1.58 11.8 15.19 13.75 24.8 12.39 84.19-.23 168.45.47 252.57-.35 11.88-1.53 13.62-15.18 12.28-24.78-.07-83.97.13-168.09-.1-251.96zM352.42 140l-96.4 96.4-96.4-96.4h192.8zM140 159.52l96.4 96.4-96.4 96.4v-192.8zM159.63 372l96.4-96.4 96.4 96.4h-192.8zM372 352.32l-96.4-96.4 96.4-96.4v192.8zm121-90.09c3.23-83.07-41.73-165.6-112.94-208.4-70.01-43.76-163.04-46.61-235.58-7.18C68 86.46 17.28 170.89 18.94 257.19c-.7 85.64 49.95 168.98 125.95 208.31 73.1 39.6 166.94 36.16 236.98-8.62C448.45 415.84 491.39 340.3 493 262.23zm-28.25-.66c-1.25 77.75-50.22 152.1-121.18 183.92-70.64 33.54-159.55 22.27-219.6-27.81-61.48-49-90.26-134.56-70.94-210.77 17.44-75.78 80.8-138.3 156.84-154.65 76.51-18.45 161.6 11.9 209.83 73.95 30.25 38.01 46.58 86.87 45.05 135.36z"/></svg>