<?xml version="1.0" encoding="UTF-8" standalone="no"?>
<svg
   xmlns:dc="http://purl.org/dc/elements/1.1/"
   xmlns:cc="http://creativecommons.org/ns#"
   xmlns:rdf="http://www.w3.org/1999/02/22-rdf-syntax-ns#"
   xmlns:svg="http://www.w3.org/2000/svg"
   xmlns="http://www.w3.org/2000/svg"
   xmlns:sodipodi="http://sodipodi.sourceforge.net/DTD/sodipodi-0.dtd"
   xmlns:inkscape="http://www.inkscape.org/namespaces/inkscape"
   width="512"
   height="512"
   viewBox="0 0 512 512"
   version="1.1"
   id="svg4"
   sodipodi:docname="lighting _ automation.svg"
   inkscape:version="0.92.1 r15371">
  <metadata
     id="metadata10">
    <rdf:RDF>
      <cc:Work
         rdf:about="">
        <dc:format>image/svg+xml</dc:format>
        <dc:type
           rdf:resource="http://purl.org/dc/dcmitype/StillImage" />
      </cc:Work>
    </rdf:RDF>
  </metadata>
  <defs
     id="defs8" />
  <sodipodi:namedview
     pagecolor="#ffffff"
     bordercolor="#666666"
     borderopacity="1"
     objecttolerance="10"
     gridtolerance="10"
     guidetolerance="10"
     inkscape:pageopacity="0"
     inkscape:pageshadow="2"
     inkscape:window-width="638"
     inkscape:window-height="493"
     id="namedview6"
     showgrid="false"
     inkscape:zoom="0.4609375"
     inkscape:cx="256"
     inkscape:cy="256"
     inkscape:window-x="0"
     inkscape:window-y="0"
     inkscape:window-maximized="0"
     inkscape:current-layer="svg4" />
  <path
     d="m 480.44,162 c -149.87853,0.0933 -299.92879,-0.18668 -449.7,0.14 -7.595645,-0.14898 -15.096611,8.46359 -11.7,15.14725 0.142577,54.05862 -0.285706,108.14054 0.215117,162.18455 1.848954,13.12387 16.458714,10.29808 25.975642,10.5082 145.117781,-0.0734 290.304641,0.14668 435.379241,-0.11 7.05209,0.0643 12.49686,-6.1502 13.09,-12.82 0.70059,-43.13715 0.0996,-86.91653 0.3,-130.30046 -0.55546,-12.18642 1.22198,-24.69376 -1.11188,-36.64048 C 490.76163,165.34309 485.62428,161.84502 480.44,162 Z M 45,324 c 0,-43.42 0,-86.84 0,-130.26 120.28333,43.42 240.56667,86.84 360.85,130.26 -120.28333,0 -240.56667,0 -360.85,0 z"
     id="path2"
     inkscape:connector-curvature="0" />
</svg>
