<?xml version="1.0" encoding="UTF-8" standalone="no"?>
<svg
   xmlns:dc="http://purl.org/dc/elements/1.1/"
   xmlns:cc="http://creativecommons.org/ns#"
   xmlns:rdf="http://www.w3.org/1999/02/22-rdf-syntax-ns#"
   xmlns:svg="http://www.w3.org/2000/svg"
   xmlns="http://www.w3.org/2000/svg"
   xmlns:sodipodi="http://sodipodi.sourceforge.net/DTD/sodipodi-0.dtd"
   xmlns:inkscape="http://www.inkscape.org/namespaces/inkscape"
   width="512"
   height="512"
   viewBox="0 0 512 512"
   version="1.1"
   id="svg4"
   sodipodi:docname="pir automation sensor pink loop.svg"
   inkscape:version="0.92.1 r15371">
  <metadata
     id="metadata10">
    <rdf:RDF>
      <cc:Work
         rdf:about="">
        <dc:format>image/svg+xml</dc:format>
        <dc:type
           rdf:resource="http://purl.org/dc/dcmitype/StillImage" />
      </cc:Work>
    </rdf:RDF>
  </metadata>
  <defs
     id="defs8" />
  <sodipodi:namedview
     pagecolor="#ffffff"
     bordercolor="#666666"
     borderopacity="1"
     objecttolerance="10"
     gridtolerance="10"
     guidetolerance="10"
     inkscape:pageopacity="0"
     inkscape:pageshadow="2"
     inkscape:window-width="640"
     inkscape:window-height="493"
     id="namedview6"
     showgrid="false"
     inkscape:zoom="0.4609375"
     inkscape:cx="256"
     inkscape:cy="256"
     inkscape:window-x="0"
     inkscape:window-y="0"
     inkscape:window-maximized="0"
     inkscape:current-layer="svg4" />
  <path
     d="m 415.1,265.8 c 8.14311,-7.92577 2.27304,-19.93 -5.77889,-25.39729 C 360.51916,191.78578 312.20515,142.63103 263.09859,94.349844 248.75982,85.959856 239.64544,103.53425 230.22741,111.34056 184.84442,156.91809 139.04004,202.11488 93.92,247.93 c -5.867519,8.68064 -1.185681,16.93664 6.26401,22.70447 49.23318,48.87402 97.97055,98.29605 147.51333,146.82787 15.16626,8.05952 23.75747,-9.99035 33.73917,-18.00668 C 325.98261,354.90883 370.59585,310.32156 415.1,265.8 Z M 255.33,386.15 C 216.54,347.43333 177.75,308.71667 138.96,270 c 77.51333,0 155.02667,0 232.54,0 -38.72473,38.70806 -77.43829,77.48496 -116.17,116.15 z M 292.86,82.6 C 305.9923,80.077953 312.82559,66.519033 322.74349,58.501851 330.61081,48.340029 347.46036,41.038638 343.31,25.909531 335.26407,9.0899639 317.64956,21.362986 310.03347,31.788137 300.20162,42.484502 288.34348,51.613763 279.93437,63.415469 276.02248,72.298261 283.28791,82.907525 292.86,82.6 Z m 40.19,45.72 c 12.65882,11.38395 23.70852,-4.18873 32.08518,-12.49471 9.11987,-10.05145 20.25233,-18.55998 27.94982,-29.707477 6.10121,-23.093784 -23.50394,-22.192282 -31.38088,-6.414521 -10.37071,11.338369 -22.81455,21.083858 -31.75771,33.523428 -2.12083,5.0706 -0.80435,11.30128 3.10359,15.09328 z m 49.75,49.98 c 12.60742,11.46928 23.68422,-4.15145 32.10334,-12.39672 9.20327,-10.04997 20.39171,-18.56566 28.18228,-29.71312 6.17521,-23.08404 -23.41592,-22.27866 -31.3514,-6.52667 -10.46402,11.34146 -22.96472,21.10591 -32.01547,33.54604 -2.14284,5.05916 -0.8402,11.31753 3.08125,15.09047 z m 50,50.03 c 12.62065,11.45984 23.70103,-4.14042 32.12499,-12.39507 9.20311,-10.05309 20.40603,-18.56167 28.18501,-29.7204 6.17666,-23.08802 -23.43078,-22.27123 -31.36464,-6.51989 -10.45554,11.34222 -22.96342,21.09743 -31.99536,33.54489 -2.14523,5.0593 -0.81636,11.30998 3.05,15.09047 z m 19.72,55.34 c -20.34163,-15.7812 -32.01625,17.28971 -13.04217,26.37605 11.99165,11.08782 22.37495,24.25561 35.47592,33.91395 23.06811,6.14853 22.24854,-23.43934 6.49818,-31.3612 C 471.81467,302.95588 462.1239,293.31292 452.52,283.67 Z M 302.7,433.47 c -20.34986,-15.76647 -31.98877,17.31828 -13.02039,26.39427 11.98673,11.08459 22.37837,24.22932 35.46414,33.89948 23.07187,6.16351 22.26242,-23.42948 6.51161,-31.35839 C 322.00359,452.76696 312.35177,443.07505 302.7,433.47 Z m 50.07,-49.99 c -20.30621,-15.85299 -32.0753,17.19507 -13.12721,26.351 11.91587,11.08273 22.19069,24.27194 35.23096,33.9165 23.04016,6.20808 22.31337,-23.36094 6.60036,-31.34078 C 371.91469,402.76312 362.28648,393.13048 352.77,383.48 Z m 49.7,-49.83 c -20.40212,-15.70645 -31.96081,17.40414 -12.94989,26.42369 11.97593,10.99478 22.35267,24.07116 35.42114,33.64881 23.14038,6.13838 22.2343,-23.49144 6.43203,-31.37493 C 421.74456,352.78407 412.07022,343.20175 402.47,333.65 Z m -192.93,99.82 c -13.29375,14.22573 -28.71421,26.80287 -40.58563,42.13391 -6.15824,23.09328 23.41997,22.26723 31.3637,6.51489 10.4566,-11.33957 22.97711,-21.08287 32.00193,-33.53427 5.99669,-13.80358 -12.48069,-25.83929 -22.78,-15.11453 z M 179.2,383.44 c -12.62236,-11.42743 -23.68839,4.14337 -32.09507,12.40499 -9.19983,10.05802 -20.3826,18.58489 -28.17055,29.73876 -6.15569,23.08895 23.42714,22.25737 31.35797,6.49933 10.4538,-11.34227 22.95003,-21.10449 31.98749,-33.54683 2.14246,-5.06509 0.8311,-11.3048 -3.07984,-15.09625 z m -49.98,-49.72 c -12.57873,-11.48714 -23.70072,4.06174 -32.14141,12.28851 -9.192127,9.98631 -20.375999,18.42269 -28.160778,29.50977 -6.247201,23.0571 23.354432,22.34077 31.333188,6.61353 10.44117,-11.27028 22.94695,-20.93299 31.96681,-33.31431 2.17946,-5.05074 0.83117,-11.32746 -2.99781,-15.0975 z M 79.17,283.67 c -12.624888,-11.43993 -23.704435,4.13692 -32.12003,12.40003 -9.193848,10.0544 -20.394721,18.56017 -28.15997,29.72263 -6.172682,23.10818 23.439109,22.25742 31.374636,6.5027 C 60.712286,320.95748 73.220198,311.21255 82.24,298.76625 84.375844,293.70268 83.076467,287.46493 79.17,283.67 Z M 59.45,228.33 C 79.787925,244.12829 91.48655,211.04644 72.504841,201.95128 60.524348,190.86905 50.159,177.69957 37.065938,168.05 13.978668,161.87474 14.792095,191.48053 30.544636,199.41464 40.174031,209.05071 49.849068,218.70572 59.45,228.33 Z M 209.54,78.53 C 229.89346,94.299314 241.55394,61.242356 222.58306,52.153061 210.59462,41.063084 200.21128,27.899334 187.11594,18.234375 164.02344,12.064561 164.86994,41.65388 180.61349,49.58578 190.24993,59.231469 199.93202,68.896107 209.54,78.53 Z M 159.5,128.3 c 20.37464,15.7374 32.00116,-17.3168 13.03484,-26.40872 C 160.55859,90.807306 150.1872,77.650824 137.10609,67.988594 114.02342,61.820717 114.84585,91.40134 130.5912,99.338068 140.21879,108.99343 149.91544,118.63768 159.5,128.3 Z m -50.03,50 c 20.33558,15.80034 32.01749,-17.288 13.04484,-26.37872 C 110.53378,140.83922 100.16906,127.66803 87.074531,118.02 63.981257,111.84641 64.79899,141.44818 80.554636,149.38464 90.193091,159.02309 99.831545,168.66155 109.47,178.3 Z"
     id="path2"
     inkscape:connector-curvature="0" />
</svg>
