<?xml version="1.0" encoding="UTF-8" standalone="no"?>
<svg
   xmlns:dc="http://purl.org/dc/elements/1.1/"
   xmlns:cc="http://creativecommons.org/ns#"
   xmlns:rdf="http://www.w3.org/1999/02/22-rdf-syntax-ns#"
   xmlns:svg="http://www.w3.org/2000/svg"
   xmlns="http://www.w3.org/2000/svg"
   xmlns:sodipodi="http://sodipodi.sourceforge.net/DTD/sodipodi-0.dtd"
   xmlns:inkscape="http://www.inkscape.org/namespaces/inkscape"
   width="512"
   height="512"
   viewBox="0 0 512 512"
   version="1.1"
   id="svg4"
   sodipodi:docname="pir automation sensor.svg"
   inkscape:version="0.92.1 r15371">
  <metadata
     id="metadata10">
    <rdf:RDF>
      <cc:Work
         rdf:about="">
        <dc:format>image/svg+xml</dc:format>
        <dc:type
           rdf:resource="http://purl.org/dc/dcmitype/StillImage" />
      </cc:Work>
    </rdf:RDF>
  </metadata>
  <defs
     id="defs8" />
  <sodipodi:namedview
     pagecolor="#ffffff"
     bordercolor="#666666"
     borderopacity="1"
     objecttolerance="10"
     gridtolerance="10"
     guidetolerance="10"
     inkscape:pageopacity="0"
     inkscape:pageshadow="2"
     inkscape:window-width="638"
     inkscape:window-height="493"
     id="namedview6"
     showgrid="false"
     inkscape:zoom="0.4609375"
     inkscape:cx="256"
     inkscape:cy="256"
     inkscape:window-x="0"
     inkscape:window-y="0"
     inkscape:window-maximized="0"
     inkscape:current-layer="svg4" />
  <path
     d="M 329.57,18 C 231.28,18 132.99,18 34.7,18 15.713799,18.151538 18.937151,37.798452 19,50.651737 19.198529,144.71163 18.60281,238.80685 19.298086,332.84465 22.555979,350.10343 42.157426,345.38035 54.864671,346 147.57563,345.77858 240.33064,346.44299 333.01404,345.66754 350.51291,341.43001 345.17247,321.25194 346,307.99102 345.81518,215.73666 346.36977,123.45111 345.7225,31.21625 344.38078,23.678993 337.25891,17.795804 329.57,18 Z M 52,312 C 52,232.79 52,153.58 52,74.37 131.17333,153.58 210.34667,232.79 289.52,312 210.34667,312 131.17333,312 52,312 Z M 403.3,52 c 25.6794,-0.228022 51.4071,0.461424 77.05555,-0.354355 C 502.79834,47.012076 493.11362,12.253242 471.64275,18 447.74791,18.226642 423.80491,17.540452 399.94105,18.354355 380.7061,22.497319 383.48116,51.830876 403.3,52 Z m 73.7,64 c -25.67718,0.22806 -51.40277,-0.46148 -77.04895,0.35436 -22.42859,4.64948 -12.74072,39.39417 8.7262,33.64564 23.88704,-0.22685 47.82218,0.45984 71.6783,-0.35436 C 499.60996,145.51222 496.8289,116.16502 477,116 Z m 0,98 c -25.67718,0.22806 -51.40277,-0.46148 -77.04895,0.35436 -22.42859,4.64948 -12.74072,39.39417 8.7262,33.64564 23.88704,-0.22685 47.82218,0.45984 71.6783,-0.35436 C 499.60996,243.51222 496.8289,214.16502 477,214 Z m 0,98 c -25.67718,0.22806 -51.40277,-0.46148 -77.04895,0.35436 -22.42859,4.64948 -12.74072,39.39417 8.7262,33.64564 23.88704,-0.22685 47.82218,0.45984 71.6783,-0.35436 C 499.60996,341.51222 496.8289,312.16502 477,312 Z m -147.5,74.62 c -17.07905,0.0379 -17.3916,18.85105 -16.5,31.38743 0.72628,21.76353 -1.53473,43.90189 1.28859,65.40491 8.51556,20.26938 37.65935,6.24137 31.71141,-13.1839 -0.2127,-23.44312 0.43142,-46.92876 -0.33287,-70.34451 C 344.26833,392.33411 337.17089,386.4987 329.5,386.62 Z m -294,0 c -17.079045,0.0379 -17.391596,18.85105 -16.5,31.38743 0.726278,21.76353 -1.534728,43.90189 1.288594,65.40491 C 28.804149,503.68172 57.947938,489.65371 52,470.22844 51.787298,446.78532 52.431419,423.29968 51.667129,399.88393 50.268332,392.33411 43.170888,386.4987 35.5,386.62 Z m 98,0 c -17.07905,0.0379 -17.3916,18.85105 -16.5,31.38743 0.72628,21.76353 -1.53473,43.90189 1.28859,65.40491 8.51556,20.26938 37.65935,6.24137 31.71141,-13.1839 -0.2127,-23.44312 0.43142,-46.92876 -0.33287,-70.34451 C 148.26833,392.33411 141.17089,386.4987 133.5,386.62 Z m 98,0 c -17.07905,0.0379 -17.3916,18.85105 -16.5,31.38743 0.72628,21.76353 -1.53473,43.90189 1.28859,65.40491 8.51556,20.26938 37.65935,6.24137 31.71141,-13.1839 -0.2127,-23.44312 0.43142,-46.92876 -0.33287,-70.34451 C 246.26833,392.33411 239.17089,386.4987 231.5,386.62 Z"
     id="path2"
     inkscape:connector-curvature="0" />
</svg>
