<?xml version="1.0" encoding="UTF-8" standalone="no"?>
<svg
   xmlns:dc="http://purl.org/dc/elements/1.1/"
   xmlns:cc="http://creativecommons.org/ns#"
   xmlns:rdf="http://www.w3.org/1999/02/22-rdf-syntax-ns#"
   xmlns:svg="http://www.w3.org/2000/svg"
   xmlns="http://www.w3.org/2000/svg"
   xmlns:sodipodi="http://sodipodi.sourceforge.net/DTD/sodipodi-0.dtd"
   xmlns:inkscape="http://www.inkscape.org/namespaces/inkscape"
   width="512"
   height="512"
   viewBox="0 0 512 512"
   version="1.1"
   id="svg4"
   sodipodi:docname="touch screen.svg"
   inkscape:version="0.92.1 r15371">
  <metadata
     id="metadata10">
    <rdf:RDF>
      <cc:Work
         rdf:about="">
        <dc:format>image/svg+xml</dc:format>
        <dc:type
           rdf:resource="http://purl.org/dc/dcmitype/StillImage" />
      </cc:Work>
    </rdf:RDF>
  </metadata>
  <defs
     id="defs8" />
  <sodipodi:namedview
     pagecolor="#ffffff"
     bordercolor="#666666"
     borderopacity="1"
     objecttolerance="10"
     gridtolerance="10"
     guidetolerance="10"
     inkscape:pageopacity="0"
     inkscape:pageshadow="2"
     inkscape:window-width="638"
     inkscape:window-height="493"
     id="namedview6"
     showgrid="false"
     inkscape:zoom="0.4609375"
     inkscape:cx="256"
     inkscape:cy="256"
     inkscape:window-x="0"
     inkscape:window-y="0"
     inkscape:window-maximized="0"
     inkscape:current-layer="svg4" />
  <path
     d="M 480.4,97 C 330.8,97 181.2,97 31.6,97 17.482598,96.834443 17.215527,112.21176 18,122.49392 c 0.19057,94.07741 -0.381109,188.19594 0.285781,282.24766 4.322972,14.52415 21.453376,9.28035 32.77755,10.25842 143.112219,0 286.224449,0 429.336669,0 14.11117,0.15711 14.38681,-15.21117 13.6,-25.49392 -0.19057,-94.07741 0.38111,-188.19594 -0.28578,-282.24766 C 492.44396,101.2197 486.46327,96.918154 480.4,97 Z M 108,389 c -21,0 -42,0 -63,0 0,-88.66667 0,-177.33333 0,-266 21,0 42,0 63,0 0,9.66667 0,19.33333 0,29 -10.722298,0.83279 -22.205933,-2.00277 -32.283203,2.17107 -9.574382,7.93638 -4.383046,21.67298 -5.716797,32.50206 0.17386,54.24662 -0.348303,108.5275 0.262109,162.75263 3.454374,14.50019 20.182892,9.7987 31.086321,10.57424 10.31164,-3.13321 5.67988,8.67698 6.65157,14.88372 0,4.70543 0,9.41085 0,14.11628 z M 417,178 c 0,52 0,104 0,156 -107,0 -214,0 -321,0 0,-52 0,-104 0,-156 107,0 214,0 321,0 z m 52,211 c -21.66667,0 -43.33333,0 -65,0 0,-9.66667 0,-19.33333 0,-29 11.2172,-0.86349 23.21782,2.08279 33.76562,-2.26916 10.22601,-7.7093 4.9061,-21.76911 6.23438,-32.71397 -0.19555,-54.24103 0.39174,-108.52559 -0.29479,-162.73931 C 439.24226,147.77572 422.12913,152.95755 410.73667,152 400.38153,155.14834 404.93369,143.38939 404,137.11628 c 0.76756,-6.22767 -3.42553,-17.41599 6.86941,-14.11628 19.37686,0 38.75373,0 58.13059,0 0,88.66667 0,177.33333 0,266 z"
     id="path2"
     inkscape:connector-curvature="0" />
</svg>
