<?xml version="1.0" encoding="UTF-8" standalone="no"?>
<svg
   xmlns:dc="http://purl.org/dc/elements/1.1/"
   xmlns:cc="http://creativecommons.org/ns#"
   xmlns:rdf="http://www.w3.org/1999/02/22-rdf-syntax-ns#"
   xmlns:svg="http://www.w3.org/2000/svg"
   xmlns="http://www.w3.org/2000/svg"
   xmlns:sodipodi="http://sodipodi.sourceforge.net/DTD/sodipodi-0.dtd"
   xmlns:inkscape="http://www.inkscape.org/namespaces/inkscape"
   width="512"
   height="512"
   viewBox="0 0 512 512"
   version="1.1"
   id="svg4"
   sodipodi:docname="wind sensor.svg"
   inkscape:version="0.92.1 r15371">
  <metadata
     id="metadata10">
    <rdf:RDF>
      <cc:Work
         rdf:about="">
        <dc:format>image/svg+xml</dc:format>
        <dc:type
           rdf:resource="http://purl.org/dc/dcmitype/StillImage" />
      </cc:Work>
    </rdf:RDF>
  </metadata>
  <defs
     id="defs8" />
  <sodipodi:namedview
     pagecolor="#ffffff"
     bordercolor="#666666"
     borderopacity="1"
     objecttolerance="10"
     gridtolerance="10"
     guidetolerance="10"
     inkscape:pageopacity="0"
     inkscape:pageshadow="2"
     inkscape:window-width="640"
     inkscape:window-height="493"
     id="namedview6"
     showgrid="false"
     inkscape:zoom="0.4609375"
     inkscape:cx="256"
     inkscape:cy="256"
     inkscape:window-x="0"
     inkscape:window-y="0"
     inkscape:window-maximized="0"
     inkscape:current-layer="svg4" />
  <path
     d="M 297.84,253.73 C 293.39751,243.54121 282.91827,237.33671 275.81604,228.93235 238.47945,191.90183 201.62033,154.33264 163.98562,117.63844 151.52001,111.12986 143.96162,125.5495 135.8862,132.349 96.891629,171.33937 57.757226,210.19625 18.85,249.27 c -6.45853,8.77067 2.844344,17.34097 9.104464,22.81953 41.078612,40.69668 81.684076,81.92768 123.058346,122.29047 12.46727,6.49149 19.99913,-7.94276 28.06756,-14.74244 C 218.12573,340.31662 257.75955,301.48323 296.44,261.86 c 1.40021,-2.40565 1.88818,-5.40047 1.4,-8.13 z M 157.48,368.9 C 123.84667,335.26667 90.213333,301.63333 56.58,268 c 67.2,0 134.4,0 201.6,0 -33.56862,33.62861 -67.12159,67.29499 -100.7,100.9 z M 320.14,161.77 c 22.33799,-14.97128 54.1342,-8.40325 70.63737,12.22411 26.77837,25.53233 72.86717,29.69897 102.28216,6.71667 9.7815,-18.88424 -16.46022,-22.60116 -26.9785,-11.58166 -23.45904,8.56962 -50.72657,-0.17654 -66.44329,-19.1783 -25.21738,-23.55772 -68.58716,-27.21542 -95.40165,-4.69004 -7.3642,10.09434 5.51042,23.48261 15.90391,16.50922 z m 157.49,68.33 c -24.86663,15.78668 -59.67458,8.93812 -77.96532,-13.77129 -25.23179,-23.49525 -68.46953,-27.0759 -95.37281,-4.79793 -9.33511,18.40121 16.08018,22.54168 26.37912,11.50689 21.21249,-7.93115 45.92151,0.0865 60.1066,17.30633 26.78482,25.52406 72.87923,29.70428 102.28616,6.69819 C 500.69857,237.14131 488.19916,223.43636 477.63,230.1 Z m -0.06,65.72 c -24.8328,15.94607 -59.64881,8.86753 -77.91203,-13.81964 -25.23145,-23.49698 -68.46424,-27.06438 -95.3661,-4.78552 -9.32805,18.39517 16.07342,22.52019 26.36703,11.49349 21.23039,-7.93858 45.92445,0.11392 60.1309,17.32503 26.76246,25.58137 72.98611,29.89057 102.30426,6.62602 7.57251,-9.94767 -5.0135,-23.57217 -15.52406,-16.83938 z m 0,65.68 c -24.83458,15.94766 -59.64832,8.86476 -77.91532,-13.81954 -25.23173,-23.48386 -68.4631,-27.07318 -95.36281,-4.79812 -9.33626,18.39611 16.05843,22.55554 26.36035,11.51599 21.23172,-7.93823 45.92887,0.11385 60.13758,17.32492 26.76618,25.57264 72.99066,29.87987 102.31129,6.62456 C 500.67775,368.42348 488.09754,354.74253 477.57,361.5 Z"
     id="path2"
     inkscape:connector-curvature="0" />
</svg>
