<svg xmlns="http://www.w3.org/2000/svg" width="512" height="512"><path d="M0 496c8.87-.16 20.22-2.8 16 10.14 4.42 9.15-16.3 7.72-16 2.96V496zM0 0c8.87-.16 20.22-2.8 16 10.14 4.42 9.15-16.3 7.72-16 2.96V0zm496 0c8.87-.16 20.22-2.8 16 10.14 4.42 9.15-16.3 7.72-16 2.96V0zm0 496c8.87-.16 20.22-2.8 16 10.14 4.42 9.15-16.3 7.72-16 2.96V496zM76.15 255.06c-22 3.08-16.26-22.51-.3-9.3 16.95 6.41-19.41-22.45-20.32 1.78.68 11.05 37.58 13.61 13.41 22.44-7.57-2.8-20.34-15.34-10.64 1.06 11.33 10.42 35.4-5.04 17.85-15.98zm28.83-15.09c-12.23-1.18-19.21-4.22-16.98 12.06 2.2 6.46-4.7 22.02 4 21.97-6.8-20.6 19.14-.71 18.01-22.6-.01-4.22-1.3-8.97-5.03-11.43zm-1.42 18.92c-22.9 11.15-3.89-36.6 2.04-7.55 2.18 3.27-2.05 4.9-2.04 7.55zm22.08-16.19c-30.35 4.6 5.05 43.45 9.98 18.2-14.13 11.6-23.97-8.8-2.9-3.91 12.08 3.11-.3-17.5-7.08-14.29zM118 254c5.24-18.44 24.13 5.4 3.08 0H118zm45.3 11.3c8.61-18.33-20.33-31.22-18.67-14.35 8.8-13.16 23.33 6.48 2.57 3.79-18.05 10.54 8.67 17.74 12.74 13.29 2.72-.14 6.12 1.1 3.36-2.73zM158 258c-1.16 18.47-24.11-1.41-2.55-1.17 3.32-3.09 2.45-.28 2.55 1.17zm31.87-9c-8.15-4.1-17.83 18.3-15.88 2.23 3.9-10.9-7.16-18.15-5-3.54 1.02 7.9-2.01 19.85 1.45 25.31 6.2 1.14 2.73-21.95 10.64-6.69 6.83 12.48 12.14 4.33 2.28-3.99l-3.22-4.6m24.56-15.02c-30.34 4.61 5.06 43.45 10 18.2-14.16 11.6-24-8.8-2.93-3.91 11.96 3.04-.2-17.54-7.07-14.29zM198 254c6.97-18.32 21.55 6.42 0 0zm30.43-9.94c-3 1-8.64-.66-6.43 11.53-3.13 10.2 5.14 20.23 4 4.72-6.03-13.79 21.14-14.3 2.43-16.25zm45.52-3.9c-36.07-17.04-28.92 54.4 3.23 29.14 7.26-7.97 6.4-23.4-3.23-29.14zm-.18 26.34c-30.82 19.48-20.59-45.76 1.94-17.95 2.28 5.72 2.2 13.03-1.94 17.95zM304 256.37c-9.5 22.48-12.53-6.3-13.44-13.37-7.9 2.02-4.97 32.96 9.94 24.66 6.08 1.34 9.08-2 7.51-14.14 2.66-14.12-6.92-11.53-4 1.07-2.49-1.9.6 1.8-.01 1.78zm18.18 12.93c-4.56-5.56-2.74-18.87 1.82-21.2-5.17-1.4-6.33-17.04-9-1.05-3.76 2.78 2.3 10.76 0 18.49-4.61 10.28 17.4 8.69 7.18 3.76zM38 239c-8.33 1.03-11.15 13.08-17.26 18.55-9.22 9.86 6.9 7.39 13.26 7.45 1.01 16.99 2.05-.64 9 0-4.49-4.3-6.35-11.24-5-21.38V239zm-4 22c-15.26 3.2-8.29-5.02-1.9-12.96 3.86-9.21 1.03 12.32 1.9 12.96zm455.27-12.28l-124.34-74.64c-17.89-4.49-11.95 18.39-12.93 29.08v127.4c5.27 17.72 21.9.86 31.55-3.8l105.72-63.33c5.51-3 5.48-11.7 0-14.71zM369 315.42V196.6l99.07 59.47L369 315.42z"/></svg>