<svg xmlns="http://www.w3.org/2000/svg" width="512" height="512"><path d="M484.4 123H26.6c-13.34 1.49-8.8 16.74-9.6 25.98V379.4c1.49 13.34 16.74 8.8 25.98 9.6H484.4c13.34-1.49 8.8-16.74 9.6-25.98V132.6c.13-5.14-4.46-9.73-9.6-9.6zM475 370H37V173.65c8.49 2.98 18.51.57 27.62 1.35H105l88.3 143c-9.23.53-24.93-3.36-25.3 10.5.98 9.84-2.48 20.94 2.96 29.62 9.56 5.37 21.4 1.88 32.06 2.88h133.92c12.11-2.39 6.92-17.2 8.06-26.11 2.59-11.27-5.53-19.62-16.8-16.89-11.48 2.5-.91-6.92 1.42-11.88L415.44 175H475v195zm-259.17-52l-88.3-143h265l-93.6 143h-83.1zM326 337c2.24 9-10.02 3.5-15.3 5H187c-2.24-9 10.02-3.5 15.3-5H326zm149-181H39.5c-3.64-1.65-5.62-17.6 2.96-14H475v14z"/></svg>