<svg xmlns="http://www.w3.org/2000/svg" width="512" height="512"><path d="M47 250H24v-19c-9.48-3-6.76 6.2-7 12.43V278c9.48 3 6.76-6.2 7-12.43-1.8-8.1 1.07-11.53 9.32-9.57 5.04 1.25 16.26-3.69 13.68 5.18 1.34 4.96-2.71 15.3 2.07 16.82 7.67 1.17 2.36-10.62 3.93-15.54V231h-6m47.56 4.13C85.7 228.66 74.22 231.72 64 231v47c12.3-.43 28.98 2.94 35.2-10.93 4.25-10.06 4.03-24.26-4.64-31.94zm-.24 27.66c-1.65 10.42-20.94 11.83-25.32 7.13v-32.93c10.59-.46 26.45-1.24 26.38 13.54.31 4.1.2 8.3-1.06 12.26zm41.83-10.03C153 241.4 132.61 226.81 119 231c-8.78-2.32-10.34 2.57-9 10.36V278c11.27-.98 26.56 3.66 33.48-7.95 3.43-6.54.3-15.63-7.33-17.29zM116 237c8.37-1 27.3-.29 17.95 11.98-5.7-.1-21.06 5.54-17.95-5.2V237zm21.6 30.82c-3.43 4.19-20.84 7.64-21.6 1.06.71-5.66-3.12-15.85 6.22-12.89 7.66-.7 20.08.78 15.38 11.83zm41.4-4.52c4.05-14.43-8.23-27-22.84-17.55-10.2 9.08 2.43 10.97 6.2 2.43 12.68-4.44 15.92 13.52 1.4 9.88-22.6-.8-9.68 30.73 7.5 17.6.74-3.61 12.71 9.01 8.4-2-.52-3.43-.65-6.9-.66-10.36zm-6-.7c4.97 16.43-27.94 10.85-11.61.63 2.48 1.3 13.2-5.5 11.61-.63zm35.8-2.93c-10.55.81-24.86-13-6.1-11.54 5.28 10.3 15.72 1.55 3.57-3.87-17.9-9.47-27.55 19.3-5.68 18.89 19.45 4.34-7.79 17.9-9.9 3.46-15.19 7.66 24.92 20.84 23.18.89.21-3.38-2-6.64-5.07-7.83zm25.54-16.54c-25.85-.05-16.39 46.03 7.89 33.34 11.77-4.33 3.42-16.82-2.22-4.7-15.3 6.6-20.46-15.83-2.99-9.77 13.52 4.38 17.12-7.6 6.01-16.31a14.7 14.7 0 0 0-8.69-2.56zM224.9 257c4.01-22.24 30.83 5.04 7.28 0h-7.28zm29.1-20c4.83 1.55 16.57-3.8 15 4.14V278c9.32 2.83 5.11-7.87 6-13.47V237c4.8-1.58 16.2 3.47 16-3.1-.35-6.15-11.58-1.4-16.58-2.9H254m236.4 16.3l-148.63-89.22c-13.72-6.63-17.53 10.13-15.77 20.2v166.84c1.51 15.12 17.77 9.56 25.5 2.95l138.87-83.17c6.6-3.62 6.57-13.98.03-17.6zM346 327.02V185l118.42 71.08L346 327.02z"/></svg>