<svg xmlns="http://www.w3.org/2000/svg" width="512" height="512"><path d="M55 249H25v-25c-9.8-3.16-6.59 6.71-7 12.95V284c9.8 3.16 6.59-6.71 7-12.95 1.34-5.48-3.87-17.5 5.4-15.05H55v28c9.8 3.16 6.59-6.71 7-12.95V224h-7m60.57 5.35c-11.35-8.52-26.38-4.36-39.57-5.36v60c15.89-.64 37.26 4.03 45.5-13.85 5.43-12.88 5.13-30.93-5.93-40.79zm-.3 35.3C111.37 279.3 94.73 276.91 83 277v-45c11.23.77 27.3-3.75 32.11 10.02a39.22 39.22 0 0 1 .16 22.63zm51.7.49c-3.49 18.93-6.8-4.96-10.39-12.62l-9.5-28.52c-6.63-.09-15.22-2.13-12.08 7.56V284c9.66 3.03 8.37-4.88 8-11.88v-39.07L159.9 284c8.8 2.98 8.8-6.33 11.2-12.26L184 233.9V284c9.66 3.03 8.37-4.88 8-11.88V224c-7.2-.96-13.45-.57-13.72 8.17-3.77 10.99-7.53 22-11.31 32.97zM205 224c9.17-2.57 10.22 2.98 9 10.8V284c-9.17 2.57-10.22-2.98-9-10.8V224zm283.07 20.9L298.34 131c-15.8-8.16-22.82 10.6-20.34 23.1v215.68c1.46 17.7 21.01 13.52 30.46 5.13l179.57-107.54c8.38-4.61 8.44-17.85.04-22.47zM304 346.66v-181.3l151.18 90.74c-50.39 30.18-100.82 60.43-151.18 90.56z"/></svg>