<svg xmlns="http://www.w3.org/2000/svg" width="512" height="512"><path d="M258.62 91.73c-71.91-1.2-135.88 57.33-148 127-15.7 73 25.28 154.92 96.1 181.34 61.3 25.01 136.17.08 172.94-54.27 47.18-64.17 37.66-162.3-22.2-215.25-26.68-24.54-62.5-39.01-98.84-38.82zm0 296.8c-64.62 1.09-120.74-54.02-128.36-116.84-10.97-65.57 30.48-137.29 95.94-154.41 57.14-16.88 121.13 14.97 146.62 67.82 33.42 62.43 11.97 148.67-49.6 185.15a123.64 123.64 0 0 1-64.6 18.28zM256 17.52c-94.79-1.3-185.96 60.46-220.83 148.44-35.71 84.64-16 188.83 48.28 254.5 62.5 67.27 165.47 92 251.72 60.5C425.55 450.2 491.93 360.8 494.3 265.2c4.83-92.86-50.97-184.7-135.02-224.13A237.35 237.35 0 0 0 256 17.52zm0 455.75c-92.69 1.34-181.15-63.82-207.49-152.73-27.18-83.74 3.28-182 73.43-235.4 71.37-58 180.08-61.91 255.45-9.23 73.64 48.19 111.16 143.73 90.3 229.12C447.75 397.33 361.5 469.59 267.16 473c-3.7.18-7.49.3-11.15.26z"/></svg>