<svg xmlns="http://www.w3.org/2000/svg" width="512" height="512"><path d="M317.3 147.44c-52.07-.92-97.25 44.05-102.2 94.87-7.51 51.95 27 107.5 78.96 119.45 46.5 12.3 97.54-15.13 116.35-58.67 23.88-49.58 4.7-115.62-43.9-142.51a98.83 98.83 0 0 0-49.21-13.14zm0 200.96c-49.48.97-89.34-46.72-86.87-94.66-.12-47.17 40.5-92.43 89.12-90.14 49.64.42 88.46 49.21 84.84 97.27-1.3 45.73-40.01 88.35-87.09 87.53zM110.86 204.85c-34.48-1.19-63.7 34.22-55.57 67.86 5.86 33.98 46.3 55.36 77.64 40.84 32.04-12.33 45.26-55.97 24.97-83.81-10.31-15.4-28.53-25.1-47.04-24.89zm.6 86.52c-26.03.34-36.8-36.99-17.41-52.73 15.04-14.94 42.16-3.26 44.56 16.97 3.74 16.92-9.08 36.02-27.15 35.76zM495 125.06c-1.89-12.04-16.13-6.99-24.65-8.06H25.06c-12.04 1.89-6.99 16.13-8.06 24.65v245.29c1.89 12.04 16.13 6.99 24.65 8.06h445.29c12.04-1.89 6.99-16.13 8.06-24.65V125.06zM33 379V133h244c-54.65 18.25-93.15 75.67-87.22 133.32 3.65 51.47 41.45 98.25 90.98 112.68H33zm172.46-122.98c-1.18-55.1 43.64-106.2 98.43-112.15 53.75-8.02 109.22 28.78 123.11 81.23 15.68 51.1-11.27 110.36-59.8 132.55-47.7 24.11-110.83 7.79-140.9-36.4a112.35 112.35 0 0 1-20.84-65.23zM477 379H355.78c56.8-16.18 97.15-75.16 91.22-134-3.47-50.42-39.85-95.83-87.45-112H477v246z"/></svg>