<svg xmlns="http://www.w3.org/2000/svg" width="512" height="512"><path d="M298.2 325.5H170.05c-19.67 5.9-2.35 23.98 11.25 19h116.9c11.95 0 11.95-19 0-19zm35.24-34.14c2.22-16.37-16.92-12.08-23.42-2.98-37.3.51-74.86-.43-112.2.47-16.12 8.05-.2 22.88 12.3 18.65h117.93c8.63.5 12.49-11.63 5.39-16.14zM164.45 177c-1.2-12.88-15.66-8.86-24.5-9.5H27.13c-19.68 5.9-2.34 23.98 11.26 19 6.95.38 14.93-2.05 19.58 4.63l66.23 56.11c18.8 7.9 16.56-16.25 3.3-21.17L80.73 186.5h74.57c5.02.06 9.22-4.6 9.15-9.5zM375 167.5H246.85c-19.67 5.9-2.35 23.98 11.25 19H375c11.95 0 11.95-19 0-19zm109.87 0c-10.54.3-21.19-.65-31.65.55-21.32 16.42-41.25 34.81-62.02 52-16.01 10.54 5.86 26.38 14.62 12l53.93-45.55c9.54-.4 19.26.88 28.67-.77 9.02-3.87 6.32-18.18-3.55-18.23z" stroke="#000" stroke-width="3" stroke-miterlimit="10"/></svg>