<svg xmlns="http://www.w3.org/2000/svg" width="512" height="512"><path d="M485.4 168H26.6c-18.87 5.93-1.76 22.77 11.17 18 6.58.73 14.6-2.45 19.1 3.95L175.5 291c-11.03-2.6-16.6 7.38-14.5 17.14.39 10.12-.83 20.4.7 30.4 5.7 8.94 17.53 4.3 26.42 5.46h152.96c12.35-1.46 8.2-15.5 8.92-24.09-.95-8.85 2.36-18.98-2.67-26.7-11.01-2.07-11.86-2.38-3.06-8.79 38.6-32.8 77.18-65.61 115.77-98.42 9.56-.38 19.3.82 28.73-.73 8.5-3.52 5.94-17.34-3.37-17.27zM333 326H178c.69-5.65-1.37-14.05 1.02-18H333v18zm-22.82-35H201.84L78.94 186H433.3c-41.03 35-82.12 70.01-123.12 105z"/></svg>