<svg xmlns="http://www.w3.org/2000/svg" width="512" height="512"><path d="M256.54 392.04c64.89 1.33 125.34-50.41 134.03-114.72 10.75-61.94-28.18-127.34-87.45-147.94-57.66-22.34-128.22 1.68-160.53 54.32-34.96 52.4-25.83 128.38 20.65 170.93 24.8 23.84 58.88 37.58 93.3 37.41zm0-247.14c55.59-1.23 106.76 45.02 111.26 100.41 6.78 54.26-32.65 108.86-86.03 120.1-52.1 13.2-110.27-17.54-129.02-67.82-20.75-49.7 1.2-111.91 48.32-137.85a110.77 110.77 0 0 1 55.47-14.84zM495 106.88c-.72-14.5-16.79-11.79-26.84-11.88H29.88c-14.5.72-11.79 16.79-11.88 26.84.16 95.22-.32 190.47.24 285.67 4.3 14 20.35 8.3 31.2 9.49h433.68c14.5-.72 11.79-16.79 11.88-26.84V106.88zM472 395H41V119h431v276z"/></svg>