<svg xmlns="http://www.w3.org/2000/svg" width="512" height="512"><path d="M494 108.5c-1.46-14.34-17.75-9.73-27.66-10.5H28.5c-14.34 1.46-9.73 17.75-10.5 27.66V404.5c1.46 14.34 17.75 9.73 27.66 10.5H483.5c14.34-1.46 9.73-17.75 10.5-27.66V108.5zM109 393H39V119h70v35c-10.97.41-22.1-.89-32.94.76-9.98 6.46-4.74 19.88-6.06 29.93v163.68c1.59 13.76 17.68 8.64 27.24 9.63 7.98-1.01 14.67-.73 11.76 9.15V393zm312-218v162H91V175h330zm52 218h-70v-35c10.96-.38 22.05.8 32.9-.69 9.97-5.76 4.81-18.84 6.1-28.38V164.1c-1.37-14.1-17.59-9.22-27.28-10.1-7.98 1.03-14.62.71-11.72-9.15V119h70v274z"/></svg>