<svg xmlns="http://www.w3.org/2000/svg" width="512" height="512"><path d="M492.34 136.52c-5.27-11.54-20.86-11.56-30.62-17.51C322.08 62.95 159 66.5 22.87 130.96c-7.7 7.94-1.64 20.48-2.43 30.13 9.23 114.5 88.1 219.54 195.24 260.8 18.11 8.37 37.82 14.14 56.6 4.03 114.61-35.66 203.06-141.68 217.61-260.83.88-9.34 2.68-19.75 2.45-28.57zm-236.62-35.18c57.72-.06 115.63 8.66 170.22 27.66H85.5c54.59-19 112.5-27.72 170.22-27.66zM431.22 150L307.28 300h-103.1L80.23 150h350.99zM156 310.52c-.07 18.01.13 36.04-.1 54.04C88.56 314.46 45.3 233.8 40.77 150c7.55-.84 14.57-.54 18.05 7.28L176.9 300c-8.21-.06-20.88-1.54-20.9 10.52zm92.34 100.12c-27.82-8.25-54.54-20.4-78.62-36.64h162.9c-26.08 16.28-54.48 28.96-84.28 36.64zM334 353H177v-32h157v32zm21 5.07c-.46-17.2.95-34.56-.75-51.65-1.58-12.1-28.45-.55-14.45-12.8L458.63 150c21.44-5.3 6.23 22.6 6.44 34.5-14.49 68.55-54.43 131.08-110.07 173.57z"/></svg>