<svg xmlns="http://www.w3.org/2000/svg" width="512" height="512"><path d="M339.3 351H186v-28c44.83-.16 89.7.32 134.51-.24 20.92-4.36 10.7-40.01-9.19-23.52-34.49-.29-68.98-.25-103.47-.24L106.07 175.84c-20.8-14.7-25.5 15.88-9.89 25.13L177.14 299c-14.51-2.18-16.41 13.99-15.14 24.64.68 15.08-1.48 30.58 1.32 45.34-26.02-7.48-18.2 26.4 1.06 29.47 27.17 17.12 56.75 31.24 88.02 38.77 22.75-6.43 49.82-10.75 67.02-27.3-2.08-32.6-38.72-.9-57.04.48-17.8 6.12-35.17-7.83-51.8-13.39-9.82-5.36-39.05-18.49-34.78-22.01h163.5c15.45.2 15.4-24.23 0-24zm66.86-127.8L468 148c17.86 6.53 35.31-20.48 10.3-24h-37.72c18.62-21.8-20.78-26-35.41-30.73-44.3-11.39-90.04-18.27-135.79-18.22-26.36 17 10.33 27.87 26.78 24.24a554.38 554.38 0 0 1 131.13 24.73H313.62c-24.81 6.6-4.05 30.19 13.18 24h110.5l-49.43 60.13c-10.1 12.27 8.8 26.93 18.29 15.05zM41.65 148h239.22c24.8-6.62 4.05-30.18-13.18-24H92.93c22.9-10.79 55.53-6.64 72.46-24.97-5.55-28.64-43.47-3.58-62.58-2.32-27.76 8.51-55.98 17.37-81.61 31.03-8 9.02-1.66 22.5-2.33 33.2C23.95 210.9 40.32 260.23 68.3 302c18.7 12.61 25.77-17.1 11-27.03A296.88 296.88 0 0 1 41.65 148zm443.85 34.04c-21.2 1.13-16.1 30.23-25.28 44.52a303.31 303.31 0 0 1-64.6 102.67c-11.78 28.62 25.72 19.34 31.52.29a326.7 326.7 0 0 0 67.1-133.21c1.66-6.13-2.58-12.97-8.74-14.27z"/></svg>