<svg xmlns="http://www.w3.org/2000/svg" width="512" height="512"><path d="M382 290.54c13.12-1.88 7.96-17.24 9-26.46V179.3c-6.6-20.5-22.97-.6-18 12.71v89.4c-.15 4.85 4.12 9.3 9 9.13zm52 0c13.12-1.88 7.96-17.24 9-26.46V179.3c-6.6-20.5-22.97-.6-18 12.71v89.4c-.15 4.85 4.12 9.3 9 9.13zm-25.5 0c13.52-1.6 8.57-17.11 9.5-26.46V179.3c-6.86-20.38-24.12-1.01-19 12.71v89.4c-.07 5.01 4.61 9.23 9.5 9.13zM329.7 392c10.52-.94 22.09 2.27 31.7-2.46 5-9.44 1.6-21.1 2.6-31.57-1.78-13.11-17.15-7.91-26.32-8.97-11.97-2.97-19.22 7-16.68 18.2 1.14 8.47-4.18 23.85 8.7 24.8zm9.3-25c8.71-4.54 12.14 9.9 2.23 7-4.2 1.24-1.44-4.76-2.23-7zm17.5-76.46c13.52-1.6 8.57-17.11 9.5-26.46V179.3c-6.86-20.38-24.12-1.01-19 12.71v89.4c-.07 5.01 4.61 9.23 9.5 9.13zm-26.5 0c13.12-1.88 7.96-17.24 9-26.46V179.3c-6.6-20.5-22.97-.6-18 12.71v89.4c-.15 4.85 4.12 9.3 9 9.13zM381.73 392c10.52-.94 22.08 2.27 31.69-2.46 4.96-9.45 1.6-21.1 2.58-31.57-1.74-13.12-17.12-7.91-26.27-8.97-11.97-2.96-19.28 6.98-16.73 18.2 1.14 8.48-4.18 23.86 8.73 24.8zm9.27-25c8.71-4.54 12.14 9.9 2.23 7-4.2 1.24-1.44-4.76-2.23-7zm94.52-273H71.54c-13.58 1.39-8.6 16.93-9.54 26.22V170c-12.12-.04-27.26-2.1-33.67 11.26-14.65 27.35-14.32 61.48-4.36 90.37 3.92 16.12 19.79 21.31 34.35 19.37 7.71-.7 1.86 12.14 3.68 17.32V409.1c2.24 12.99 17.55 7.86 26.86 8.9h396.66c13.54-1.42 8.53-16.95 9.48-26.22V102.9c.1-5-4.66-9.01-9.48-8.9zM45.67 272.06c-13.16-19.57-11.81-45.85-7.21-68.09 1.4-13.13 11.17-20.14 13.57-2.9 5.68 22.6 6.51 48.63-4.97 69.55zm21.22.94c9.73-27.1 10-57.95-.02-85H218v85H66.89zM477 399H80v-83h397v83zm0-101H80c-3.4-10.36 7.6-6.3 13.86-7h184.82c13.32-2.06 8.37-17.48 9.32-26.92V179.3c-1.86-13.34-17.3-8.33-26.64-9.3H80c-3.4-10.36 7.6-6.3 13.86-7H477v135zm-241-25v-85h34v85h-34zm241-128H80v-32h397v32zm-43.23 247c10.5-.94 22.07 2.27 31.66-2.46 4.92-9.47 1.58-21.1 2.56-31.57-1.7-13.12-17.08-7.9-26.22-8.97-11.96-2.96-19.34 6.96-16.78 18.2 1.13 8.5-4.18 23.87 8.78 24.8zm9.23-25c8.68-4.53 10.33 10.45 1.23 7-2.9.62-.39-5.4-1.23-7zm16-76.46c13.12-1.88 7.96-17.24 9-26.46V179.3c-6.6-20.5-22.97-.6-18 12.71v89.4c-.15 4.85 4.12 9.3 9 9.13z"/></svg>