<svg xmlns="http://www.w3.org/2000/svg" width="512" height="512"><path d="M288.3 229.45c-25.72.34-58.03 7.5-69.1 33.7-7.4 24.28 17.83 41.6 38.28 46.6 31.5 7.96 70.92 5.78 94.18-19.58 16.04-18.06.96-43.68-18.48-51.19-13.87-6.8-29.6-9.54-44.88-9.53zm0 66.36c-18.25-.58-40.37-3.49-51.43-19.72-1.97-22.22 28.58-26.86 45.89-28.43 19.9-.43 44.46 2.1 56.65 19.81 2.01 22.12-28.45 26.63-45.63 28.2 1.75.1-7.36.14-5.48.14zm74.42-86.51c-48.89-34.9-122.9-32.82-167.74 8.04-26.75 23.24-33.12 66.53-10.86 94.97 34.1 45.11 100.27 55.29 151.1 35.72 36.18-13 69-49.19 60.47-89.88-3.81-19.94-16.85-37.06-32.97-48.85zm-10.74 109.24c-43.04 30.4-109 28.3-147.22-9.2-21.35-19.97-21.33-56.26 0-76.24 38.85-38.1 106.38-39.73 149.4-7.73 23.13 16.08 33.2 50.35 16 74.27-4.8 7.38-11.15 13.67-18.18 18.9zm142.76 94.44c-7.42-37.35-16.1-74.58-22.74-112.02V200.87c-2.02-13.04-17.39-7.77-26.62-8.86h-51.56c-23.7-33.87-46.74-68.32-70.85-101.84-8.32-4.78-18.82-.94-27.96-2.17h-52.39c-10.74 3.36-14.33 16.07-21.38 24.14L170.7 185c-23.78.46-47.75-.92-71.42.7-8.97 6.28-4.01 18.73-5.3 28.12v87.6c-25.34 36.88-51.45 73.3-76.31 110.48-3.25 13.97 13.5 12.41 22.43 12.1 148.9-.09 297.81.17 446.69-.13 5.2-.56 9.07-5.8 7.95-10.89zM43.3 406c22.63-33.07 46.19-65.6 68.24-99.01 1.07-34.59.16-69.34.46-103.99h63.42c10.74-3.37 14.33-16.06 21.38-24.14L247.35 106h65.23l69.1 99.96c8.33 7.21 20.53 2.84 30.78 4.04H454c.23 32.43-.45 64.95.34 97.33L474.8 406c-143.83 0-287.69-.01-431.5.01z"/></svg>