<svg xmlns="http://www.w3.org/2000/svg" width="512" height="512"><path d="M298.26 96.28c-24.37-4.02-19.04 31.36 2.71 29.1 50.47 18.89 83.31 72.03 82.73 125.18 9.19 30.48 36.77.07 25.57-20-6.78-61.32-50.82-117.64-111.01-134.28zM133.5 250.56c-.2-38.4 16.21-76.82 45.15-102.27 16.95-20.37-18.82-32.38-27.05-11.1-45.41 46.78-58.3 122.48-29.97 181.23 21.38 16.54 28.5-15.82 16.93-30.08a139.08 139.08 0 0 1-5.06-37.78zm255.32 51.74c-27.27-.52-28.84 42.1-53.3 53.4-28.04 23.68-67.26 33.37-103.05 25.08-31.58 1.83-8.47 36.54 13.9 29.15 62.32 5.96 123.96-33.26 149.04-89.88 3.17-6.45-.04-14.92-6.59-17.75zM121.13 93.18c45.2-37.57 106.51-54.8 164.67-46.48 28.58-2.31 9.52-35.15-11.69-28.15-60.79-4.51-123.14 15.01-170.08 54.01-13.67 11.27 3.84 31.84 17.1 20.62zM44.65 255.75c-4.36-24.65 14.12-51.16 3.93-73.1-31.36-9.53-26.23 40.28-30.38 60.45-2.44 48.88 9.79 99.16 37.05 140 26.47 14.2 24.37-23.3 10.14-35.93a211.26 211.26 0 0 1-20.74-91.42zm295.18 194.22c-53.87 23.48-117.62 22.98-171.07-1.48-28.37-5.75-18.82 31.2 3.56 30.44 56.97 21.63 122.32 20.02 178.14-4.43 16.2-6.57 5.18-31.81-10.63-24.53zm76.15-370.39c-24-13.84-27.74 21.69-7.99 29.5 60.49 61.03 76.98 160.22 39 237.4-10.66 13-25.2 48.7 4.85 42 17.51-19.13 26.27-45.4 33.92-69.97 23.88-84.84-4.06-180.29-69.78-238.93z"/></svg>