<svg xmlns="http://www.w3.org/2000/svg" width="512" height="512"><path d="M302.2 317.97c37.44 1.25 68.94-37.3 60.15-73.75-6.34-36.83-50.17-59.92-84.13-44.22-34.84 13.3-49.2 60.67-27.14 90.89 11.2 16.73 31 27.34 51.12 27.08zm0-102.77c30.1-1.34 51.96 35.26 36.38 61.1-13.15 26.94-55.2 28.85-70.9 3.4-19.09-26.33 2.2-65.52 34.52-64.5zm-203.1-5.8c32.7 1.41 56.27-38.43 39.42-66.45-14.2-29.2-59.79-31.3-76.78-3.7-20.65 28.54 2.37 71.23 37.36 70.15zm0-69.92c21.5-1.32 33.31 28.28 17.55 42.55-14.27 16.06-43.77 3.63-42.6-17.71-.31-13.42 11.78-25.12 25.05-24.84zm0 256.42c32.7 1.41 56.27-38.43 39.42-66.45-14.2-29.2-59.79-31.3-76.78-3.7-20.65 28.54 2.37 71.23 37.36 70.15zm0-69.9c21.49-1.32 33.32 28.26 17.55 42.52-14.27 16.06-43.77 3.63-42.6-17.71-.31-13.4 11.77-25.11 25.05-24.81zm205.04 69.9c65.47 1.28 126.48-50.13 136.86-114.68 12.34-62.1-24.17-129.04-82.79-152.74-58.08-25.78-131.76-4.7-167.66 47.67-38.63 52.02-32.84 130.54 12.78 176.5 25.87 27.39 63.16 43.45 100.81 43.25zm0-258.33c58.1-1.24 111.83 46.15 118.06 103.88 8.44 56.65-30.23 115.18-85.52 129.89-53.96 16.52-116.54-11.9-140.06-63.1-25.52-50.35-8.2-117 38.5-148.69a119.04 119.04 0 0 1 69.02-21.98zM492 95c-1.65-14.04-17.77-9.1-27.51-10H29c-14.04 1.65-9.1 17.77-10 27.51V417c1.65 14.04 17.77 9.1 27.51 10H482c14.04-1.65 9.1-17.77 10-27.51V95zm-21 310H39V105h432v300z"/></svg>