<svg xmlns="http://www.w3.org/2000/svg" width="512" height="512"><path d="M416.56 22.9C447.23 42.1 474 69.2 487.92 103c27.28 13.4 14.47-28.14 2.27-37.96C472.6 40.4 449.96 18 422.87 4.25c-10.7-1.55-15.72 13.45-6.31 18.65zm-68.91 71.26c30.68 19.2 57.45 46.32 71.37 80.12 27.28 13.4 14.42-28.14 2.25-37.96-17.59-24.64-40.23-47.06-67.33-60.78-10.66-1.6-15.76 13.46-6.29 18.62zm-335.03 6.27c23.81-4.77 25.75-44.27 48.93-56.73 8.81-15.36 53.23-25.97 31.4-44.82C69.13 4.61 51 26.41 34 43.51c-8.46 14.3-39.09 41.72-21.39 56.92zm68.91 71.27c23.83-4.81 25.74-44.26 48.92-56.72 8.8-15.36 53.25-25.98 31.4-44.8-23.82 5.7-41.93 27.52-58.92 44.61-8.46 14.3-39.1 41.71-21.4 56.91zm16.51 317.4c-31.1-19.26-57.52-46.98-71.98-80.8-30.3-10.15-9.66 32.4 1.3 42.84 16.94 22.66 38.3 42.64 63.1 56.35 11.09 3.34 17.63-13.03 7.58-18.39zm68.91-71.27c-31.1-19.27-57.52-46.98-71.98-80.8-30.28-10.19-9.69 32.43 1.3 42.85 16.93 22.67 38.32 42.6 63.1 56.34 11.1 3.26 17.64-12.93 7.58-18.39zm329.82-6.25c-23.9 6.68-27.52 46.1-51.8 59.44-9.37 12.65-53.44 28.52-26 42.42 26.55-11.67 47.97-33.98 65.67-56.68 5.46-11.56 28.98-34.71 12.13-45.18zm-68.92-71.26c-23.89 6.73-27.52 46.1-51.8 59.45-9.36 12.64-53.42 28.51-26 42.39 26.57-11.63 47.98-33.97 65.68-56.67 5.45-11.56 28.99-34.69 12.12-45.17zM258.3 367.5c-61.32 1.7-115.61-55.44-110.76-116.6 1.48-61.29 61.25-112.6 122.08-104.63 61.1 4.64 109.32 66.85 98.3 127.2-7.24 52.77-56.3 94.99-109.62 94.03zm0-195.05c-49.72-1.57-92.3 48.03-83.18 96.95 6.05 49.23 61.23 83.82 108.16 67.55 47.7-13.3 73.77-72.8 50.83-116.8-13.54-28.7-44.1-48.05-75.81-47.7zm97.5 84.15c1.7 55.8-52.13 104.42-107.47 97.03-55.63-4.03-98.45-62.4-85.59-116.69 9.63-54.87 71.84-91.6 124.54-73.48 40 11.92 69.11 51.38 68.52 93.14z"/></svg>