<svg xmlns="http://www.w3.org/2000/svg" width="512" height="512"><path d="M91.5 333.25c13.57-.14 13.02-15.23 12.5-25V277c7.66-.71 15.02-.99 15.83 8.43 6.21 14.46 11.11 29.56 18.2 43.59 12.88 13.76 29.29-6.85 18.71-19.2l-15.41-38.32c20.18-12.24 19.99-38.03 17.95-58.75-2.47-19.8-21.15-35.67-41.21-32.75-11.31.95-23.52-2.18-34.13 2.14-8.5 8.27-3.67 21.34-4.95 31.96.17 36.38-.34 72.8.25 109.17a12.55 12.55 0 0 0 12.26 9.98zM104 205c9.22 1.3 20.95-3.46 27.77 4.46 5.01 9.8 3.32 21.68 2.34 32.26-2.6 13.28-16.77 9.97-26.56 10.28-7.5.64-1.75-11.98-3.55-17.05V205zm78.5 128.25c13.57-.14 13.02-15.23 12.5-25V262c12.43-.53 25.14 1.13 37.36-.98 15.58-6.79 4.26-28.76-10.54-24.02H195v-32c12.43-.53 25.14 1.13 37.36-.98 15.58-6.79 4.26-28.76-10.54-24.02-14.86.58-30.04-1.21-44.69.98-11.37 6.51-5.79 21.28-7.13 31.98.17 36.77-.34 73.56.25 110.3a12.55 12.55 0 0 0 12.25 9.99zm75.97-.42c13.13 3.48 16.53-11.18 18.54-20.74 2.48-6.08 1.12-17.16 10.61-14.09H311c3.88 10.91 3.98 23.82 11.53 32.86 15.3 9.75 24.61-10.25 17.3-22.09-10.6-39.82-21.2-79.65-31.83-119.47-8.68-19.96-27.65-3.02-27.4 12.06-10.37 39.58-21.43 79.01-31.4 118.67a12.56 12.56 0 0 0 9.27 12.8zm37.43-91.43l8.43 31.6c-5-1.63-19.48 4-15.69-4.4l7.26-27.2zm68.6 91.85c13.57-.14 13.02-15.23 12.5-25V277c16.05-.24 35.35 2.88 46.05-12.4 12.6-15.6 10.8-37.19 8.43-55.78-3.65-18.18-21.35-31.45-39.8-28.82-11.38.93-23.6-2.15-34.3 2.14-9.11 7.96-4.07 21.32-5.38 31.96.17 36.38-.34 72.8.25 109.17a12.55 12.55 0 0 0 12.25 9.98zM377 205c8.3.61 17.12-1.32 25.04 1.17 9.11 9.3 5.62 23.93 5.16 35.67-1.43 12.7-14.52 10.07-23.48 10.16-10.3 3.13-5.8-8.52-6.72-14.78V205zm117-90.5c-.14-13.57-15.23-13.02-25-12.5H29.5c-13.57.14-13.02 15.23-12.5 25 .17 91.34-.34 182.7.25 274.02 3.58 13.96 19.85 9.12 30.44 9.98H481.5c13.57-.14 13.02-15.23 12.5-25V114.5zM470 387H42V127h428v260z"/></svg>