<svg xmlns="http://www.w3.org/2000/svg" width="512" height="512"><path d="M52.4 193c-10.7 1-22.4-2.3-32.1 2.7-6 8.9-2.2 20.7-3.3 31v82.7c2.4 13.6 18.4 8.6 28.2 9.6 14.4 1.4 30-2.5 37.6-15.9 17.3-28.6 17.4-68.9-3-96A36 36 0 0 0 52.4 193zm4 106c-6-.7-15.1 1.5-19.4-1v-85c10.4 0 23.3-2 29.1 9.2a69 69 0 0 1-1.9 72.2c-2 2.2-4.5 4.5-7.8 4.6zm433.3-51.6L284.4 124.2c-14-6.5-17 10.7-15.4 20.6v234.4c1.7 15.2 18 8.8 25.7 2.4l195-117c6.4-3.6 6.4-13.7 0-17.2zM289 361.5v-211L464.9 256 289 361.5zm-74.9-168.7c-9.7 1.3-20.4-2.2-29.1 3-5.6 9.4-2 21.3-3 32v81.6c6 21.5 25.3 2.5 20-12V266c18 2.1 38-6.5 43.6-25.2a37 37 0 0 0-31.5-48zm9.2 47.5c-3.4 5-23.7 11-21.3.2V213c12-2 27.5 3.6 25.2 18.5-.3 3.3-1.8 6.3-3.9 8.8zM135 192.8c-9.7 1.3-20.4-2.3-29.1 3-5.4 9.4-1.9 21.3-2.9 32v81.6c6 21.5 25.3 2.5 20-12V266c18 2.1 38-6.5 43.4-25.2a37 37 0 0 0-31.4-48zm9.2 47.5c-3.3 5-23.6 11-21.2.2V213c12-2 27.4 3.7 25.1 18.6-.4 3.2-1.8 6.3-4 8.7z"/></svg>