<svg xmlns="http://www.w3.org/2000/svg" width="512" height="512"><path d="M343.4 105c-46.4.2-92.8-.4-139.2.3-16 4.3-10 23.2-11.2 35.4.2 84.8-.4 169.7.3 254.5 4 19.7 33.3 10 27.7-8.3V270c24.2-.2 48.4.4 72.6-.3 19.8-4 10-33.3-8.3-27.7H221V133c41.7-.2 83.5.4 125.2-.3 16.5-2.9 13.9-28.2-2.8-27.7zm80.8-17.2c-65-66.9-170.6-88-256.7-52.7C81 68.7 19.2 157 18.3 250A238.4 238.4 0 0 0 149 468.5c85.2 44 196.3 29.3 266.5-36.2 67-59 94.4-157.5 68.9-243-11-38.2-32-73.5-60.3-101.6zM256 465.5C163 467 75 398.6 53.1 308.3c-23.3-85.3 15-182.2 90-228.7 75.4-50 182.6-42.3 250 18 69.2 58 92.3 162.8 53.8 244.5A210.3 210.3 0 0 1 256 465.5z"/></svg>