<svg xmlns="http://www.w3.org/2000/svg" width="512" height="512"><path d="M65 209c-14 .4-28-.8-41.8.6-8.6 5.4-4 16.8-5.2 25.3.4 21-.8 42 .7 62.9 11 14.6 19.3-5 16.3-15.7 1.3-5.1-2.6-15.4 2-17.1 10 1.7 28.4-1.5 19.2-15.3-4.9-6.6-18.4 1-21.2-4.8V226c11.1-.4 22.4.8 33.4-.7C77 222 74.2 208.7 65 209zm67.3 75.6l-24.5-21c9.7-5.5 19.8-18.6 15.2-30.2A30 30 0 0 0 96 213c-11.3-4-24.3 1.5-21 14.8V291c5.7 19.1 21.6 1.3 17-11.3-2.3-11.4 4.6-2.8 9.4 1 7.5 6 14.2 13.2 22.3 18.5 8.9 3.4 15.8-8.7 8.6-14.7zm-28-40.2c-7 8.4-15.7 5.3-12.3-5.3-3.8-11 7.6-11.2 12.7-3.2 2.8 3.3 1.7 5.1-.4 8.5zm41.2-32.4c-12.1 1.6-7.6 15.6-8.5 24.1.4 19.5-.8 39 .7 58.4 11 14.6 19.3-5 16.3-15.7-.4-20.5.8-41.1-.7-61.5a8.5 8.5 0 0 0-7.8-5.3zm172.3 70c-5.5-.7-14 1.5-17.8-1v-19c15.8 5.2 21.5-19.7 2.8-17-6-.3-1.3-11.2-2.8-16 8.9-1.2 20.6 3.5 26-5.7 3.4-14.4-13.6-12.5-22.6-12.3-8.7-.5-22.3-1.3-20.4 11.7V258c-5.8-9.4-17.6-5-26.7-6-17.4 4-4 22.7 8.7 18 3 11.8-3.4 17-16 12.6-12.7-5-12.3-21.7-11.9-33.3-1-13.6 14.3-26.4 26.9-18.7 13.5 11 23.8-12.8 7-15.9-10.2-6-23.3-4.2-33.2 1-22 15-23.4 47.6-11.4 69.4 9.4 19 33.3 16.7 50.8 12.7 3.5 0 5.2-8.8 6-2.8 7 7 18 2.9 27 4 12.5 3.9 25.4-13 7.6-17zm172-33.5l-148-88.9c-12.7-5.7-15.3 9.8-13.8 18.8v166.5c2 13.7 16.5 7.3 23.4 1.6 46.7-28.3 93.8-56 140.2-84.6a8.7 8.7 0 0 0-1.8-13.4zM346 329.6V182.3L468.6 256 346 329.6zM184 209c-8.6 1.2-20-3.5-25.4 5-1.4 26.1-.2 52.4-.6 78.5-1.3 12.9 13.2 10.4 21.5 10.5a30 30 0 0 0 32.7-22.2c8.3-23.6 5.6-56.6-18.5-69.7-3-1.4-6.5-2.1-9.8-2.1zm2.8 77c-6.3 0-14.8 2.1-11.8-7.2V226c13-3 22.4 8.6 23.3 20.9 1.5 12.8 1.4 32.2-11.5 39.1z"/></svg>