<svg xmlns="http://www.w3.org/2000/svg" width="512" height="512"><path d="M75 191.6c-13.7 1.5-9.2 17.1-10 26.6V240H37c-.4-14 .9-28.2-.8-42.1-12-16.9-22.7 4.5-19.2 17v93.6c5.9 21.8 25.3 2.7 20-12V261h28c.5 17.1-1 34.4.8 51.4 12 16.9 22.7-4.5 19.2-17v-93.5a10 10 0 0 0-10-10.3zm175.6 104.5l-36.1-31c13-4.2 20-17 24.6-29a42 42 0 0 0-19.8-33.9 81.4 81.4 0 0 0-39.8-5.2c-10.4 6-5.3 19.2-6.5 29V304c6.1 21.8 26.5 3 21-12 1.2-4.1-2.7-19.5 2.5-15 14.7 12 28.5 25.5 43.9 36.6 10.3 4.3 18.9-10.4 10.2-17.4zm-45.3-49.7c-7.5 2-14 3-11.3-7v-22.2c8.8.9 19.6 2 22.6 12 4.3 6-5.4 16.4-11.3 17.2zM157.1 192H99.6c-21.7 6.1-3 26.5 12 21 9.9-3 5.5 8.2 6.4 14.2v81.3c5.9 21.8 25.3 2.7 20-12V213c9.7-1.2 22.7 3.8 28.5-6.5 3-6.4-2.3-14.7-9.4-14.5zm330 54.4L282.1 123c-14-6.6-16.6 11-15.1 20.8v234.3c1.3 15.5 17.8 9.1 25.4 2.6L487.2 264c6.6-3.6 6.5-14 0-17.5zM288 360V150l174.8 105-174.8 105z"/></svg>