<svg xmlns="http://www.w3.org/2000/svg" width="512" height="512"><path d="M488.4 247.9L285.4 126c-13.5-6.2-15.8 10.6-14.4 20v231.6c1.7 14.8 17.3 8.1 24.7 2l192.7-115.6c6-3.3 6-12.9 0-16.2zM290 361V151l175 105-175 105zM77.5 193.7c-13.2 1.5-8.7 16.6-9.5 25.8V242H38c-.4-14.1.9-28.5-.7-42.5-12-15.8-21.6 4.9-18.3 16.7v92.6c6.1 20.6 24.1 1.9 19-12V261h30c.5 17.1-1 34.5.7 51.5 12 15.8 21.6-4.8 18.3-16.7v-92.6c.1-5-4.4-9.6-9.5-9.5zm56.3 0c-26.1 1.4-38.3 30-40.3 52.7-2.2 25.1 4 56.2 28 69.1 21.7 10.4 42.6-9.8 48.2-29.6 9.3-28.6 6.5-65.8-18-86.1-5.2-3.8-11.5-6.1-17.9-6zm0 105.6c-19.2-5.6-22.1-30.7-21.7-48-.6-15.5 11.8-49.6 31.3-33.7 16.3 20.7 16.2 53 1.8 74.7-2.8 3.6-6.6 6.9-11.4 7zm114.6-28.7c-1.6-7.5-7.4-13.6-12.7-18.9 8.6-9.2 17.4-23.8 9.4-36.2-6.8-19.8-32-29.6-49.7-17.9-8.8 4.3-17.2 12.1-15.4 22.2V299c2.8 10 14.6 14 23.2 18 19.9 9.8 44-5.3 45-27.2 1-6.3 1-12.9.2-19.2zm-49.4-53c15-18 42.4 9.2 21.3 22-10 8-26 4.3-21.3-10v-12zm23.5 82c-10.9 3.4-27.8-3-23.5-16.4-3.7-12.5 9.3-25.3 21.5-18.8 12.8 6.7 11.6 26.6 2 35.2z"/></svg>