<svg xmlns="http://www.w3.org/2000/svg" width="512" height="512"><path d="M145 241h-44v-42c-7.1 1-18.2-2-23 1.3V311c7.1-1 18.2 2 23-1.3V261h44v50c6.5-1.7 20 3.5 22-2.7V199h-22m142 81c-5.3-26.6-11.2-54-17-81h-24.7c-5.7 26.8-10.6 54.5-15.8 81-4.4-27.3-11.6-54-17.8-81h-25l31.7 112c7.3-2.2 22.4 5.2 22.9-5.4 5.6-27.4 11.3-55.5 16.5-82.6 5 29.5 11.1 58.7 17.3 88 7.1-1.6 19.2 3.2 23.1-2.6L329 199c-7.5 1.7-20.4-3.5-24.3 2.9-6 26-12.4 51.9-17.5 78.1zm112 12.7c-24.5.2-30.5-29.8-27-49-1.3-26.2 38.6-40.1 49.8-14.7 1.7 11.2 16.6 4 24.8 6 .3-23.1-24.8-41.6-47.7-39.8-30.2-2-52.4 27-51.4 55.3-2.9 28.2 14.2 61.3 45.6 62.3 25.1 5.1 53.8-17.6 52.7-40.8-9.3 1.8-24.8-5.7-25.3 8.7a23.7 23.7 0 0 1-21.5 12zM255.8 18.4c-93.4-1.3-183.3 59-218.7 145.3a238 238 0 0 0 45 254.1A238 238 0 0 0 329.2 482c90.7-28.3 159-115.6 164-210.6 7-91.6-45.1-183.7-126.7-225.6-33.9-18-72.3-27.4-110.7-27.4zm0 446c-92.5 1.7-180-66.4-201.7-156.3C30.4 221.6 70.6 123.2 148 77.8c76.1-48 182.6-37.6 248.1 24 67.6 59.4 88.2 164.2 47.8 244.6a209.4 209.4 0 0 1-188 118z"/></svg>