<svg xmlns="http://www.w3.org/2000/svg" width="512" height="512"><path d="M254.1 195c-19.5.5-39.2-1-58.6.8-16.6 12 4.5 22.7 17 19.2 8.5-2 3 10.2 4.5 15.2v76.4c6 21.6 25.3 2.7 20-11.9V215c9-1 21 3.4 26.5-6 3-6.4-2.4-14.3-9.4-14zm-75.5 0c-18.2.5-36.5-1-54.5.8-10 6.7-4.8 20-6.1 30.2v80.6c6.2 21.5 26.4 3 21-11.9V266c9.9-1.3 23 3.8 29.4-6 4.3-15.9-14.5-14.3-24.5-14-8.9 2.2-3.4-10-4.9-15.2 1.6-5-4-17.4 4.3-15.8 13-.4 26.3 1 39.3-.8 10-3.7 6.7-19.7-4-19.2zM65.9 297H37v-91.8c-6-21.7-25.3-2.7-20 11.9v89.5c1.1 14 16.7 9.8 26.3 10.4 9.9-1 21 2.4 29.8-2.9 6.5-6 1.6-17.5-7.2-17.1zM92 195c-13.6 1.4-9.3 17-10 26.4v85.2c6 21.6 25.3 2.7 20-11.9v-89.5A10 10 0 0 0 92 195zm398 52.3L295.2 130.6c-13.8-6.4-15.4 11.2-14.2 20.6.2 74.7-.4 149.5.3 224.2 4 13.6 17.7 4.4 25.2-.6L490 264.7c6.5-3.6 6.4-13.8-.1-17.4zM301 354.9V157.2L466 256l-165 98.9z"/></svg>