<svg xmlns="http://www.w3.org/2000/svg" width="512" height="512"><path d="M71.8 212.6c-11-1.9-14 11.5-19.8 18.2-3.4 10.2-6.9-.1-10.4-4.7-4-8.9-16.4-21.5-23.1-7.5-1.1 23.8-.2 47.9-.5 71.8 5.7 20.1 24 2.6 19-11.2v-26.7c3 9.5 16.3 15.3 21 3.5 4-7.6 1.2 8.4 2 12 1 9.6-2.2 20.3 2.6 29 14.2 10 17-9.8 15.4-19.8-.2-19.5.5-39.1-.4-58.6-.7-2.8-3-5.2-5.7-6zm63.2 40c13.2-17.9-3-46.1-25-43.6-8.8-.6-23-.7-21 12.2v74.4c2 9.8 13.3 7.2 20.5 7.4 10.6-.3 23.3 2.2 30-8.5a29.7 29.7 0 0 0-4.5-42zM108 228c17.7-4.2 13.3 25 0 18v-18zm19 50.8c-1.6 8-14.7 5.7-19 4.4.7-5.7-1.3-14.2 1-18.2 9-.7 21 1.6 18 13.8zM489.6 248l-132.4-79.3c-13-6.2-17 9.6-15.2 19.2v147.6c2 14.2 17.3 8.5 24.7 2.3 41.5-25.1 83.6-49.6 124.8-75.1a9.4 9.4 0 0 0-1.9-14.7zM361 318.7V193.3L465.7 256 361 318.7zM186 282c-5.1-1.2-15.2 2.5-17-2v-58.6c-5.7-20-24-2.5-19 11.2.5 20.5-1 41.1.7 61.5 5.7 9.5 17.9 4.7 27 5.9 13.3 4 28-13.5 8.3-18zm21.5-70c-12.9 1.2-8.9 15.8-9.5 24.7.5 19-1 38.4.8 57.4 11.3 15.4 21.6-4.1 18.2-15.9-.5-20.1 1-40.4-.8-60.4a9.6 9.6 0 0 0-8.7-5.8zm60.1 1c-12.8 1-8.7 15.5-9.3 24.2-.7 3.6 1.6 19-1.4 13.4-6.8-12-12.5-24.6-20-36-13.6-9.2-17.8 9-15.9 19 .5 20.2-1 40.5.8 60.5 11.3 15.4 21.6-4.1 18.2-15.9v-19.6c7.1 12.8 13.5 26 21.1 38.4 12.5 9.8 18.5-7.7 16.1-17.8l-.1-57.3c.2-5-4.6-9.1-9.5-8.9zm39.1 0c-8 1-19-3.1-24 5-1.5 24-.3 48.3-.7 72.4.7 13 15.3 9 24 9.6 20.7 1.8 30.8-21.4 31.2-38.9 1.6-19.8-7.3-47-30.5-48.1zm2.8 69c-8.7 2.4-9.6-2.8-8.5-10.2V232c15.7-2.4 18.7 19.2 17.2 30.8-1 6.7-2.3 15.6-8.7 19.2z"/></svg>