<svg xmlns="http://www.w3.org/2000/svg" width="512" height="512"><path d="M489.7 247.5L310.8 140.2c-13.7-6.4-17.6 10.1-15.8 20.2v202.9c2 14.9 18 9 25.7 2.4l168.9-101.3c6.3-3.4 6.4-13.4 0-16.9zM315 346V166L464.8 256 315 345.9zM109.1 205c-9.4 1-20-2.4-28.3 2.9-5.2 9.7-1.8 21.7-2.8 32.4V308c1 13.6 16.3 9.5 25.6 10.1 14.2 1.8 29-4.5 35.2-18.1 13.3-26.5 12.8-62.8-8-85.4a31 31 0 0 0-21.7-9.5zm3.6 93c-5.4-1.3-17.1 3.8-14.7-5.3V225c11.6-2 23.4 3.3 26.3 15.7 5.6 17.8 6.6 46.8-11.6 57.3zM250 205c-9.5 1.2-22.3-3.7-28.3 6-1.8 21.7-.3 43.7-.8 65.4.4 11.8-.8 23.7.7 35.4 11.7 16.2 21.7-4.7 18.3-16.6V272c19.5 2.5 40.4-12.2 40.1-33 .7-17-13-32.5-30-34zm7 42.2c-4.3 5.8-21.1 8.9-17.1-2.6V225c10.7-2.4 23.9 5.1 19.7 17.6 2.3.4-4.3 4.6-2.5 4.6zM181.3 205c-9.6 1-22.3-3.8-28.4 6-1.8 21.2-.3 42.9-.8 64.3.4 12-.8 24.4.7 36.4 11.7 16.2 21.7-4.7 18.3-16.6V272c19.5 2.5 40.4-12.1 40.2-33 .7-17-13.2-32.6-30-34zm7 42c-4.4 6-21.2 9-17.2-2.5V225c10.7-2.4 24 5 19.8 17.6l-1 2.4zM63 225c21-6 2.7-25.3-11.7-20-9.3.4-18.7-.8-27.8.8-8.9 6.4-4.2 18.7-5.4 28.2v74c.6 13.6 15.9 9.4 25 10 9.8-1.2 22.8 3.9 29-6.1 4.2-15.6-14-14.3-24-13.9-7.4 1-13.7.7-11-8.5V267c11.8 3.5 31.2-7.5 15.4-18.3-6.6-2.3-18.9 3.3-15.4-8.1 1.6-5-3.9-17.1 4.2-15.6H63z"/></svg>