<svg xmlns="http://www.w3.org/2000/svg" width="512" height="512"><path d="M272.7 201c-13.9 1.7-9.3 17.5-10 27.2v32c-10.5-18.5-19.7-38-31-56-14.5-9.7-20 9-17.7 20v76.2c5.8 21.3 25.3 2.9 20-11.6v-37.4c10.5 18.6 20.2 37.7 31.2 56 13.2 10.4 20.3-7.6 17.7-18.7l-.2-77.4c.1-5.4-4.5-10.4-10-10.3zM201 221c21.4-5.8 3-25.3-11.6-20-9.8 1-21-2.7-29.6 3.2-5.4 10.2-2 22.6-2.9 33.8v62.4c1 13.9 16.3 10.1 25.8 10.6 9.3-1.1 21.8 3.6 27.6-6 4.3-15.7-14-14.4-24-14-9 2.3-10.9-2.4-9.4-10.5 1.3-5.3-2.7-15.7 2.1-17.5 16.8 6 26.8-21 5.2-20-9.7 3-7.2-6.1-7.3-12.6-2.3-9 2.4-10.9 10.5-9.4h13.6zm288 26.4L318.6 145c-13.7-6.6-17.3 10.2-15.6 20.2v193c1.6 15 17.8 9.2 25.5 2.7L489 264.6c6.4-3.6 6.4-13.6 0-17.2zM324 340.5v-169L464.9 256 324 340.5zM54.3 201.6c-25 1.5-35.8 29.9-36.3 51.6-.8 22.4 7.8 51.4 32.6 57 24.7 2.5 38.2-24.8 39.7-45.8 2.2-23.1-4.5-52.6-28.6-61.7 1.9 1-9.2-2.9-7.4-1.1zm0 88.7c-18.9-9.1-18.5-36.8-12.8-54.3 5.4-24.2 29-9.3 28.1 9 2 15.2 1.3 38.7-15.3 45.3zm93.3-88.3c-13.4-2.6-13.7 13.2-16.9 22l-11.5 40-15.9-55.1c-11.5-19-25.3 4.1-16.1 16.7 8 26.7 14.8 54 23.7 80.5 11.5 12.4 20.3-4.5 21.5-15.1l22-76.6a10.1 10.1 0 0 0-6.8-12.4z"/></svg>