<svg xmlns="http://www.w3.org/2000/svg" width="512" height="512"><path d="M72.3 284.9l-25-21.4c10-4.3 17-15.6 17-26.2-3.9-12.3-14-23.4-27.8-23.2-10.9-3.8-22.6 1.7-19.5 14.4.4 21.8-.8 43.9.6 65.6 11 13.8 18.1-5.4 15.4-15.5-2.3-11.4 4.7-2.6 9.4 1.2 7.5 6.1 14.3 13.2 22.2 18.7 8.2 3.1 14.5-8.2 7.7-13.6zm-32.5-35.8c-9.4 4.6-6.5-5.2-6.8-11.3-4.2-11.4 10.3-9 13.4-1 4 4.2-2.7 11.3-6.6 12.3zM304 230c18.1-6 .4-20.4-11.3-16-8.1 1-21.5-3.7-23.8 7.2V291c2.4 10.8 15.7 5.9 23.8 7 11.8 4.4 29.4-10 11.3-16H285v-20c13 5.2 24.6-15.3 6.3-16-9.3 3-5.7-6.8-6.3-12.4-.9-7.3 10.7-2 15.5-3.6h3.6zM263 289.6c-.3-10.5.6-21-.5-31.5-4.4-8.5-15.4-4-23.2-5.1-19 4.5-1.7 19 7.7 17 1.2 9.1.6 17.9-12.3 13.3-14.6-.1-16.6-18.6-16.7-29.7-.6-12.5 7.8-26.7 21.6-25.7 8.3 5.7 27.9 7.5 20-8.3a36.1 36.1 0 0 0-34.4-5.3c-9.3 3.2-16.2 12.3-19.9 21-6.6 20.3-4.4 48.2 15 60.7 12.3 5.4 26.8 3.9 39.5.6 2-1 5.4-5 3.2-7zM188.8 212c-11.8 1.7-7.1 15.4-8 23.7v24.1c-8.5-15-16-30.8-25.1-45.5-13-8-15.1 9.4-13.7 18.3.4 20.8-.8 41.6.6 62.3 11 13.8 18.1-5.4 15.4-15.6V252c8.4 15.1 16.2 30.6 25 45.4 11.9 8.7 15.8-8 14-17-.5-21 .7-42.3-.9-63.3a8 8 0 0 0-7.3-5zm-58.6 58.5c-5.5-18-10-36.3-16-54-10.4-10.6-16.5 5.7-17.8 14.3-5.4 20.4-12.5 40.5-17 61.1 6.5 16.1 18.8.2 18.8-10.2 2-5.8 12-1.3 17.3-2.7 4.3 5.8 2.4 21.6 14.5 19.4 11.7-4.7 1.1-19.6.2-28zm-26.6-7.5c1.8-3.8 3.6-19.7 5.4-8.9 2.6 7.5 4 10.4-5.4 8.9zm386.7-15.7l-146.6-88.2c-13.7-6.6-17.4 10.2-15.7 20.2V344c1.5 15.1 17.7 9.5 25.4 3 45.6-27.5 91.3-54.8 137-82.2 6.5-3.7 6.5-14 0-17.6zM348 326.1V186l116.6 70L348 326z"/></svg>