<svg xmlns="http://www.w3.org/2000/svg" width="512" height="512"><path d="M489 247.3L242.2 99.4C228 93 225.5 110.6 227 120.6V404c1.8 15.6 18.2 8.5 26 2 78.7-47.1 157.3-94.3 236-141.6 6.4-3.5 6.3-13.6 0-17.1zm-242 139V125.7L464.1 256 247 386.3zM54.3 181.9c-11 1.3-23.3-2.6-33.3 3-5.6 9.8-2 22.1-3 33.2v101.8c6.4 21.8 25.4 2 20-12.6V266c18.7 1.6 39.8-3.2 49-21.4 15.3-25.5-3.2-60.5-32.7-62.7zm12.8 56.5C61.9 246.2 43 249 38 243.7V202c12-.6 27.1-.7 32.4 12.8a22 22 0 0 1-3.4 23.6zm80-56.5c-11 1.3-23.3-2.6-33.3 3-5.3 9.9-1.8 22.1-2.8 33.2v101.8c6.4 21.8 25.4 2 20-12.6V266c18.6 1.6 39.6-3.3 48.8-21.5 15.3-25.4-3.3-60.5-32.8-62.6zm12.7 56.5c-5 7.6-24 10.8-28.8 5.3V202c12-.6 27-.6 32.1 12.8a22 22 0 0 1-3.3 23.5z"/></svg>