<svg xmlns="http://www.w3.org/2000/svg" width="512" height="512"><path d="M0 496c8.9-.2 20.2-2.8 16 10.1 4.4 9.2-16.3 7.8-16 3V496zM0 0c8.9-.2 20.2-2.8 16 10.1 4.4 9.2-16.3 7.8-16 3V0zm496 0c8.9-.2 20.2-2.8 16 10.1 4.4 9.2-16.3 7.8-16 3V0zm0 496c8.9-.2 20.2-2.8 16 10.1 4.4 9.2-16.3 7.8-16 3V496zM76.1 255c-22 3.1-16.2-22.5-.2-9.2 16.9 6.4-19.5-22.5-20.4 1.7.7 11 37.6 13.6 13.4 22.5-7.5-2.8-20.3-15.4-10.6 1 11.3 10.5 35.4-5 17.9-16zm28.9-15c-12.2-1.2-19.2-4.3-17 12 2.2 6.5-4.7 22 4 22-6.8-20.6 19.1-.7 18-22.6 0-4.2-1.3-9-5-11.4zm-1.4 18.9c-23 11.1-4-36.6 2-7.6 2.2 3.3-2 5-2 7.6zm22-16.2c-30.3 4.6 5 43.4 10 18.2-14.1 11.6-24-8.8-2.9-4 12.1 3.2-.3-17.4-7-14.2zM118 254c5.2-18.4 24.1 5.4 3 0h-3zm45.3 11.3c8.6-18.3-20.3-31.2-18.7-14.4 8.8-13.1 23.4 6.5 2.6 3.8-18 10.6 8.7 17.8 12.7 13.3 2.8-.1 6.2 1.1 3.4-2.7zM158 258c-1.2 18.5-24.1-1.4-2.5-1.2 3.3-3 2.4-.3 2.5 1.2zm31.9-9c-8.2-4-17.9 18.3-16 2.2 4-10.9-7-18.1-5-3.5 1.1 7.9-2 19.8 1.5 25.3 6.2 1.1 2.8-22 10.7-6.7 6.8 12.5 12.1 4.3 2.3-4l-3.3-4.6m24.6-15c-30.3 4.6 5 43.4 10 18.2-14.2 11.6-24-8.8-3-4 12 3.1-.1-17.5-7-14.2zM198 254c7-18.3 21.6 6.4 0 0zm30.4-10c-3 1-8.6-.6-6.4 11.6-3.1 10.2 5.1 20.2 4 4.7-6-13.8 21.1-14.3 2.4-16.2zm45.6-3.8c-36.1-17-29 54.4 3.2 29.1 7.2-8 6.4-23.4-3.2-29.1zm-.2 26.3c-30.9 19.5-20.6-45.8 2-18 2.2 5.8 2.1 13-2 18zm30.2-10.1c-9.5 22.4-12.5-6.3-13.4-13.4-8 2-5 33 9.9 24.7 6 1.3 9-2 7.5-14.2 2.7-14.1-7-11.5-4 1-2.5-1.8.6 1.9 0 1.9zm18.2 12.9c-4.6-5.6-2.8-18.9 1.8-21.2-5.2-1.4-6.3-17-9-1-3.8 2.7 2.3 10.7 0 18.4-4.6 10.3 17.4 8.7 7.2 3.8zM38 239c-8.3 1-11.2 13-17.3 18.6-9.2 9.8 7 7.3 13.3 7.4 1 17 2-.6 9 0-4.5-4.3-6.3-11.2-5-21.4V239zm-4 22c-15.3 3.2-8.3-5-1.9-13 3.9-9.2 1 12.4 1.9 13zm455.3-12.3l-124.4-74.6c-17.9-4.5-12 18.4-12.9 29v127.5c5.3 17.7 21.9.8 31.6-3.8l105.7-63.4c5.5-3 5.4-11.7 0-14.7zM369 315.4V196.6l99 59.5-99 59.3z"/></svg>