<svg xmlns="http://www.w3.org/2000/svg" width="512" height="512"><path d="M484.4 123H26.6c-13.3 1.5-8.8 16.7-9.6 26v230.4c1.5 13.3 16.7 8.8 26 9.6h441.4c13.3-1.5 8.8-16.7 9.6-26V132.6a9.6 9.6 0 0 0-9.6-9.6zM475 370H37V173.7c8.5 3 18.5.5 27.6 1.3H105l88.3 143c-9.2.5-25-3.4-25.3 10.5 1 9.8-2.5 21 3 29.6 9.5 5.4 21.4 1.9 32 2.9h134c12-2.4 6.9-17.2 8-26.1 2.6-11.3-5.5-19.6-16.8-16.9-11.5 2.5-1-7 1.4-11.9L415.4 175H475v195zm-259.2-52l-88.3-143h265L299 318h-83zM326 337c2.2 9-10 3.5-15.3 5H187c-2.2-9 10-3.5 15.3-5H326zm149-181H39.5c-3.6-1.6-5.6-17.6 3-14H475v14z"/></svg>