<svg xmlns="http://www.w3.org/2000/svg" width="512" height="512"><path d="M74 246.4c-9.1.7-25.4-10.8-8.1-13.2 5.8-.8 15.3 14.7 11.4.8-15.7-18.8-37 14.6-10 15.2 22.2 6-9.8 21-12 4.2C42 266.2 90 272.6 78.6 250c-1.3-1-2.6-3.6-4.6-3.6zm29.1-5.9c-8.8-1.6-13.6-.5-17.1 1.5v33c9.7 3.2-2-19.7 8.8-9.6 13.8 2.6 17.7-18 8.3-24.9zm-1.4 19.1c-19.1 12.5-10.9-32.6 1.5-11.9.9 4 1 8.5-1.5 11.9zm22.3-20.8c-21.2.3-11 37.5 7.6 24.7 11-17.6-15.4 10.8-15.1-9.5h19.1c1-7.3-3.6-15.4-11.6-15.2zm-7 11.2c1.4-17.7 24.2 3.3 6 0h-6zm45.2 12c4.2-14.1-8.2-33.3-21.2-17.7-.3 9 16.3-11.5 16.3 4.5-11.8-2.7-27.2 14-9 16.8 8-2.8 8-1.8 14.8-.6 0-.2-2-3-1-3zm-5.2-8c2.6 14.8-24 4.7-7-.2 2 1.3 8.4-4.5 7 .2zm31.8-14c-7.4-1.9-10.7 6-15.8 9.8V230c-8.7-2.3-3.7 9-5 14.2V265c9.7 2.7 1.1-10.1 7.9-13 3.8 3.3 5.2 12 10.5 13 7.4.6-4.2-8.8-5.2-12.6l-2.2-3.2m24.8-10.4c-21.2.3-11 37.5 7.6 24.7 11-17.6-15.4 10.8-15.1-9.5h19.1c1-7.3-3.6-15.4-11.6-15.2zM197 250c1.3-17.7 24 3.4 5.7 0H197zm30.6-10.3c-1.4 4.6-8.5-4.1-6.6 7.4.7 5.6-1.4 14 1 17.9 6.8-.6.5-13.2 3.8-18.5 2.5-3 15-4.5 4.5-7.7l-2.7.9zm46-7.1c-17.7-11.2-34.4 15.3-21.2 29 11 12.8 33.2.8 29.2-15.6a17.1 17.1 0 0 0-8-13.4zm-.1 26.6c-16.8 16-31.3-20.5-11-24.7 13.8-2.8 18.3 16 11 24.7zm30.5-4.8c-2.2 16.6-17 5-12-6.6 3-9.2-8.1-8.6-5 .3-3.2 10.8 6.6 26.7 17 14.4 1.7 9.7 6-2.6 4-7.7-.6-4.3 2.3-17.5-4-12.8v12.4zm18.3 8.2c-4-3.2-2.6-14.8-1.3-18.6 7.5-1.4-5.4-4.3-1-12.1-6.9.8-4.4 9-7 12.1 5 2.6-.2 14.2 2.8 20 2.7 6.3 14.5.5 6.5-1.4zm-297.6-4c13.2-5.2 23.8-30.2 2-29-12.9-.3-7.5 19.7-2.7 5.4 18.1-7.4 10 16.8-1.4 19.9-12.6 10-.6 11.3 8.4 10.1 6.6 2.7 15.7-4.2 5-4-3-1-16.4 2.4-11.3-2.4zm466.3-10c-42.6-25.3-84.8-51.3-127.6-76.2C351.1 170.3 353 185 353 193c.2 46.9-.3 93.8.3 140.6 4 12 16 3.2 22.7-1 38.9-23.6 78.2-46.5 116.8-70.4 3.9-3.8 2.8-10.8-1.8-13.5zM370 316V196l100 60-100 60z"/></svg>