<svg xmlns="http://www.w3.org/2000/svg" width="512" height="512"><path d="M47 250H24v-19c-9.5-3-6.8 6.2-7 12.4V278c9.5 3 6.8-6.2 7-12.4-1.8-8.1 1-11.6 9.3-9.6 5 1.2 16.3-3.7 13.7 5.2 1.3 5-2.7 15.3 2 16.8 7.7 1.2 2.4-10.6 4-15.5V231h-6m47.6 4.1c-8.9-6.4-20.4-3.4-30.6-4.1v47c12.3-.4 29 3 35.2-11 4.2-10 4-24.2-4.6-31.9zm-.3 27.7c-1.6 10.4-21 11.8-25.3 7.1v-33c10.6-.4 26.5-1.2 26.4 13.6.3 4.1.2 8.3-1 12.3zm41.9-10c16.8-11.4-3.6-26-17.2-21.8-8.8-2.3-10.3 2.6-9 10.4V278c11.3-1 26.6 3.7 33.5-8 3.4-6.5.3-15.6-7.4-17.2zM116 237c8.4-1 27.3-.3 18 12-5.8-.1-21.1 5.5-18-5.2V237zm21.6 30.8c-3.4 4.2-20.8 7.7-21.6 1 .7-5.6-3.1-15.8 6.2-12.8 7.7-.7 20.1.8 15.4 11.8zm41.4-4.5c4-14.4-8.2-27-22.8-17.5-10.2 9 2.4 11 6.2 2.4 12.6-4.5 15.9 13.5 1.4 9.9-22.6-.8-9.7 30.7 7.5 17.6.7-3.7 12.7 9 8.4-2-.6-3.5-.7-7-.7-10.4zm-6-.7c5 16.4-28 10.8-11.6.6 2.5 1.3 13.2-5.5 11.6-.6zm35.8-3c-10.5.9-24.9-13-6-11.5 5.2 10.3 15.6 1.6 3.5-3.8-18-9.5-27.6 19.3-5.7 18.9 19.4 4.3-7.8 17.9-10 3.4-15.1 7.7 25 20.8 23.3.9a8 8 0 0 0-5.1-7.8zm25.5-16.5c-25.8 0-16.3 46 8 33.4 11.7-4.4 3.3-16.9-2.3-4.7-15.3 6.6-20.5-15.9-3-9.8 13.5 4.4 17.1-7.6 6-16.3a14.7 14.7 0 0 0-8.7-2.6zM225 257c4-22.2 30.8 5 7.3 0h-7.3zm29.1-20c4.8 1.6 16.6-3.8 15 4.1V278c9.3 2.8 5.1-7.9 6-13.5V237c4.8-1.6 16.2 3.5 16-3.1-.3-6.2-11.6-1.4-16.6-2.9H254m236.4 16.3l-148.6-89.2c-13.7-6.6-17.6 10.1-15.8 20.2V345c1.5 15.1 17.8 9.6 25.5 3l138.9-83.2c6.6-3.6 6.5-14 0-17.6zM346 327V185l118.4 71L346 327z"/></svg>