<svg xmlns="http://www.w3.org/2000/svg" width="512" height="512"><path d="M23 233c-8.7-2.3-3.7 9.2-5 14.3V277h26c2.8-9.2-7.7-5.2-13.3-6H23m39.7-27c-27.2.2-11.5 48.4 10.6 28.4 8.2-9.3 4-29.2-10.6-28.4zm6.5 25.3c-28 14.8-10.6-42.5 2.5-12 .4 4 .3 8.7-2.5 12zm32 1c-20.5 11.7-16.1-35 1.2-18.4 11.7 9.7.4-15-10.2-7.5-21.1 5.7-6.8 44 12.5 29.1 9.7-7-1.1-15-3.5-3.2zm37.8-7.5c4.8-15-12.1-26-24-14.6-6.4 17 19-12.8 18.5 7.9-12.6-2.6-33.1 12.8-13.5 20.3 10.1-1.1 12.3-3.2 19 .6 3 .4-2-11.5 0-14.2zm-5-.8c3.5 15.3-27.5 10.3-11.8.7 2.2 1.2 13-4.9 11.8-.7zm14-29c7.7-1.3 2.5 10.4 4 15.3V277c-7.7 1.3-2.5-10.4-4-15.3V233zm38.3 0l-16.6 44c8.4 2.7 7.7-7.3 10.3-12.6 4-3.3 12.3-.5 17.9-1.4 4 3 2.1 14.6 8.7 14 7.3.7-2.1-10-2.3-14.2L192.4 233h-6.1zm-4.2 26c2.6-6 6.6-20.3 7.7-19.5-.7 5.4 10.7 18.6 3.9 19.5h-11.5zm45.6 5.2c-3 14.6-6.3-8.5-9.8-14.4-2.6-5.2-3.3-13.2-7-16.8-9.7-2.5-1 7.8-.4 12.4l12 31.6c8 2.6 7.7-7.3 10.5-12.4l12.1-31.6c-8.1-2.6-7.6 7.3-10.4 12.5l-7 18.7zM268 233c8.7-2.3 3.7 9.2 5 14.3V277c-8.7 2.3-3.7-9.2-5-14.3V233zm38.4 14.7c-8-10-17.7 4.6-20.4-2.7-6.3.2-1.5 11.4-3 16.4 1.6 4.6-3.5 15.9 3 15.6 4.4-2.1.8-12.1 2-17.4 0-18.4 20.7-9.7 15 4.5.8 5.5-3.2 15.7 6 12.9-.8-9.7 2-20.5-2.6-29.3zm183.3.2l-138.6-83.3c-13.2-6.2-16.8 9.9-15.1 19.5v155c1.8 14.5 17.2 8.7 24.6 2.5 43.6-26.4 87.7-52 131-78.8a9.6 9.6 0 0 0-1.9-15zM355 322.3V189.8L465.5 256 355 322.3z"/></svg>