<svg xmlns="http://www.w3.org/2000/svg" width="512" height="512"><path d="M55 249H25v-25c-9.8-3.2-6.6 6.7-7 13v47c9.8 3.2 6.6-6.7 7-13 1.3-5.4-3.9-17.5 5.4-15H55v28c9.8 3.2 6.6-6.7 7-13v-47h-7m60.6 5.3c-11.4-8.5-26.4-4.3-39.6-5.3v60c15.9-.7 37.3 4 45.5-13.9 5.4-12.8 5.1-30.9-6-40.8zm-.3 35.3c-4 14.7-20.6 12.3-32.3 12.4v-45c11.2.8 27.3-3.7 32.1 10 2.3 7.3 2.3 15.4.2 22.6zm51.7.5c-3.5 19-6.8-5-10.4-12.6L147 224c-6.7 0-15.2-2.1-12.1 7.6V284c9.7 3 8.4-4.9 8-11.9v-39l16.9 50.9c8.8 3 8.8-6.3 11.2-12.3L184 234V284c9.7 3 8.4-4.9 8-11.9V224c-7.2-1-13.4-.6-13.7 8.2l-11.3 33zm38-41.1c9.2-2.6 10.2 3 9 10.8V284c-9.2 2.6-10.2-3-9-10.8V224zm283 20.9L298.4 131c-15.8-8.2-22.8 10.6-20.3 23.1v215.7c1.5 17.7 21 13.5 30.5 5.1L488 267.4c8.4-4.6 8.5-17.9 0-22.5zM304 346.7V165.4L455.2 256 304 346.7z"/></svg>