<svg xmlns="http://www.w3.org/2000/svg" width="512" height="512"><path d="M317.3 147.4c-52-.9-97.3 44-102.2 95-7.5 51.9 27 107.4 79 119.4 46.5 12.3 97.5-15.2 116.3-58.7 23.9-49.6 4.7-115.6-43.9-142.5a98.8 98.8 0 0 0-49.2-13.2zm0 201c-49.5 1-89.3-46.7-86.9-94.7 0-47.1 40.5-92.4 89.1-90.1 49.7.4 88.5 49.2 84.9 97.3-1.3 45.7-40 88.3-87.1 87.5zM110.9 204.9c-34.5-1.2-63.7 34.2-55.6 67.8 5.8 34 46.3 55.4 77.6 40.9 32-12.4 45.3-56 25-83.9a56.8 56.8 0 0 0-47-24.8zm.6 86.5c-26 .3-36.8-37-17.5-52.8 15-14.9 42.2-3.2 44.6 17 3.8 17-9 36-27.1 35.8zM495 125c-1.9-12-16.1-7-24.6-8.1H25c-12 1.9-7 16.1-8.1 24.6V387c1.9 12 16.1 7 24.6 8.1H487c12-1.9 7-16.1 8.1-24.6V125zM33 379V133h244c-54.7 18.2-93.1 75.7-87.2 133.3a129.6 129.6 0 0 0 91 112.7H33zm172.5-123A113.6 113.6 0 0 1 303.9 144c53.7-8 109.2 28.8 123.1 81.2a113.3 113.3 0 0 1-59.8 132.6 113.3 113.3 0 0 1-141-36.4c-13.4-19-20.8-42.1-20.7-65.3zM477 379H355.8A129.7 129.7 0 0 0 447 245a131 131 0 0 0-87.4-112H477v246z"/></svg>