<svg xmlns="http://www.w3.org/2000/svg" width="512" height="512"><path d="M258.6 91.7c-71.9-1.2-135.9 57.4-148 127-15.7 73 25.3 155 96.1 181.4 61.3 25 136.2 0 173-54.3 47.1-64.2 37.6-162.3-22.2-215.2a146.5 146.5 0 0 0-98.9-38.9zm0 296.8c-64.6 1.1-120.7-54-128.3-116.8-11-65.6 30.4-137.3 95.9-154.4 57.1-16.9 121.1 15 146.6 67.8 33.4 62.4 12 148.7-49.6 185.1a123.6 123.6 0 0 1-64.6 18.3zm-2.6-371C161.2 16.2 70 78 35.2 166a238.8 238.8 0 0 0 48.2 254.5A239 239 0 0 0 335.2 481c90.4-30.8 156.7-120.2 159.1-215.8 4.8-92.9-51-184.7-135-224.1A237.4 237.4 0 0 0 256 17.5zm0 455.8c-92.7 1.3-181.2-63.8-207.5-152.8A217.9 217.9 0 0 1 122 85.1c71.4-58 180.1-61.9 255.5-9.2A218.1 218.1 0 0 1 467.7 305c-20 92.3-106.2 164.6-200.5 168l-11.2.3z"/></svg>