<svg xmlns="http://www.w3.org/2000/svg" width="512" height="512"><path d="M298.2 325.5H170c-19.6 5.9-2.3 24 11.3 19h116.9c12 0 12-19 0-19zm35.2-34.1c2.3-16.4-16.9-12.1-23.4-3-37.3.5-74.8-.4-112.2.5-16.1 8-.2 22.8 12.3 18.6h118c8.6.5 12.4-11.6 5.3-16.1zM164.4 177c-1.1-12.9-15.6-8.9-24.5-9.5H27.1c-19.6 6-2.3 24 11.3 19 7 .4 15-2 19.6 4.6l66.2 56.1c18.8 8 16.6-16.2 3.3-21.1l-46.8-39.6h74.6c5 0 9.2-4.6 9.2-9.5zm210.6-9.5H246.8c-19.6 5.9-2.3 24 11.3 19H375c12 0 12-19 0-19zm109.9 0c-10.6.3-21.2-.7-31.7.6-21.3 16.4-41.2 34.8-62 52-16 10.5 5.9 26.3 14.6 12l54-45.6c9.5-.4 19.2.9 28.6-.8 9-3.8 6.3-18.2-3.5-18.2z" stroke="#000" stroke-width="3" stroke-miterlimit="10"/></svg>