<svg xmlns="http://www.w3.org/2000/svg" width="512" height="512"><path d="M256.5 392c65 1.4 125.4-50.4 134-114.7 10.8-62-28.1-127.3-87.4-148a135.8 135.8 0 0 0-160.5 54.4 135.9 135.9 0 0 0 20.6 171 135 135 0 0 0 93.3 37.3zm0-247.1c55.6-1.2 106.8 45 111.3 100.4 6.8 54.3-32.7 108.9-86 120.1a112.2 112.2 0 0 1-129-67.8A112.4 112.4 0 0 1 201 159.7a110.8 110.8 0 0 1 55.4-14.8zm238.5-38c-.7-14.5-16.8-11.8-26.8-11.9H29.9c-14.5.7-11.8 16.8-11.9 26.8.2 95.3-.3 190.5.2 285.7 4.3 14 20.4 8.3 31.2 9.5h433.7c14.5-.7 11.8-16.8 11.9-26.8V106.9zM472 395H41V119h431v276z"/></svg>