<svg xmlns="http://www.w3.org/2000/svg" width="512" height="512"><path d="M494 108.5c-1.5-14.3-17.7-9.7-27.7-10.5H28.5c-14.3 1.5-9.7 17.7-10.5 27.7v278.8c1.5 14.3 17.7 9.7 27.7 10.5h437.8c14.3-1.5 9.7-17.7 10.5-27.7V108.5zM109 393H39V119h70v35c-11 .4-22-.9-33 .8-10 6.4-4.7 19.8-6 29.9v163.7c1.6 13.7 17.7 8.6 27.2 9.6 8-1 14.7-.7 11.8 9.2V393zm312-218v162H91V175h330zm52 218h-70v-35c11-.4 22 .8 33-.7 9.9-5.8 4.7-18.8 6-28.4V164.1c-1.4-14.1-17.6-9.2-27.3-10.1-8 1-14.6.7-11.7-9.2V119h70v274z"/></svg>