<svg xmlns="http://www.w3.org/2000/svg" width="512" height="512"><path d="M492.3 136.5c-5.2-11.5-20.8-11.5-30.6-17.5C322.1 63 159 66.5 23 131c-7.7 7.9-1.7 20.4-2.5 30A312.3 312.3 0 0 0 215.7 422c18 8.4 37.8 14.1 56.6 4a319.6 319.6 0 0 0 217.6-260.8c.9-9.3 2.7-19.8 2.4-28.6zm-236.6-35.2c57.7 0 115.7 8.7 170.2 27.7H85.5a516.7 516.7 0 0 1 170.2-27.7zM431.2 150l-124 150h-103l-124-150h351zM156 310.5c0 18 .1 36-.1 54A290.6 290.6 0 0 1 40.8 150c7.5-.8 14.5-.5 18 7.3L177 300c-8.2 0-20.9-1.5-20.9 10.5zm92.3 100.1a286 286 0 0 1-78.6-36.6h163c-26.2 16.3-54.6 29-84.4 36.6zM334 353H177v-32h157v32zm21 5c-.5-17.1 1-34.5-.8-51.6-1.5-12-28.4-.5-14.4-12.8L458.6 150c21.5-5.3 6.3 22.6 6.5 34.5A298.2 298.2 0 0 1 355 358.1z"/></svg>