<svg xmlns="http://www.w3.org/2000/svg" width="512" height="512"><path d="M339.3 351H186v-28c44.8-.2 89.7.3 134.5-.2 21-4.4 10.7-40-9.2-23.6-34.5-.2-69-.2-103.5-.2L106.1 175.8c-20.8-14.7-25.5 16-10 25.2l81 98c-14.5-2.2-16.4 14-15.1 24.6.7 15.1-1.5 30.6 1.3 45.4-26-7.5-18.2 26.4 1 29.4a297.7 297.7 0 0 0 88.1 38.8c22.8-6.4 49.8-10.7 67-27.3-2-32.6-38.7-.9-57 .5-17.8 6.1-35.2-7.8-51.8-13.4-9.8-5.3-39-18.5-34.8-22h163.5c15.4.2 15.4-24.2 0-24zm66.9-127.8L468 148c17.9 6.5 35.3-20.5 10.3-24h-37.7c18.6-21.8-20.8-26-35.4-30.7A544.5 544.5 0 0 0 269.4 75c-26.4 17 10.3 28 26.8 24.3 44.5 3 88.6 11.2 131 24.7H313.7c-24.8 6.6-4 30.2 13.2 24h110.5l-49.4 60.1c-10.1 12.3 8.8 27 18.3 15.1zM41.6 148H281c24.8-6.6 4-30.2-13.2-24H92.9c23-10.8 55.6-6.6 72.5-25-5.6-28.6-43.5-3.5-62.6-2.3a457 457 0 0 0-81.6 31c-8 9-1.7 22.5-2.3 33.2 5 50 21.4 99.3 49.4 141.1 18.7 12.6 25.8-17 11-27a296.9 296.9 0 0 1-37.6-127zm443.9 34c-21.2 1.2-16 30.3-25.3 44.6a303.3 303.3 0 0 1-64.6 102.6c-11.8 28.7 25.7 19.4 31.5.3a326.7 326.7 0 0 0 67.1-133.2c1.7-6.1-2.5-13-8.7-14.3z"/></svg>