<svg xmlns="http://www.w3.org/2000/svg" width="512" height="512"><path d="M382 290.5c13.1-1.8 8-17.2 9-26.4v-84.8c-6.6-20.5-23-.6-18 12.7v89.4a9 9 0 0 0 9 9.1zm52 0c13.1-1.8 8-17.2 9-26.4v-84.8c-6.6-20.5-23-.6-18 12.7v89.4a9 9 0 0 0 9 9.1zm-25.5 0c13.5-1.6 8.6-17 9.5-26.4v-84.8c-6.9-20.4-24.1-1-19 12.7v89.4c0 5 4.6 9.2 9.5 9.1zM329.7 392c10.5-1 22 2.3 31.7-2.5 5-9.4 1.6-21 2.6-31.5-1.8-13.1-17.2-8-26.3-9-12-3-19.2 7-16.7 18.2 1.1 8.5-4.2 23.9 8.7 24.8zm9.3-25c8.7-4.5 12.1 9.9 2.2 7-4.2 1.2-1.4-4.8-2.2-7zm17.5-76.5c13.5-1.6 8.6-17 9.5-26.4v-84.8c-6.9-20.4-24.1-1-19 12.7v89.4c0 5 4.6 9.2 9.5 9.1zm-26.5 0c13.1-1.8 8-17.2 9-26.4v-84.8c-6.6-20.5-23-.6-18 12.7v89.4a9 9 0 0 0 9 9.1zM381.7 392c10.5-1 22.1 2.3 31.7-2.5 5-9.4 1.6-21 2.6-31.5-1.7-13.1-17.1-8-26.3-9-12-3-19.3 7-16.7 18.2 1.1 8.5-4.2 23.9 8.7 24.8zm9.3-25c8.7-4.5 12.1 9.9 2.2 7-4.2 1.2-1.4-4.8-2.2-7zm94.5-273h-414C58 95.4 63 111 62 120.2V170c-12.1 0-27.3-2.1-33.7 11.3-14.6 27.3-14.3 61.4-4.3 90.3 3.9 16.1 19.8 21.3 34.3 19.4 7.7-.7 1.9 12.1 3.7 17.3v100.8c2.2 13 17.5 7.9 26.9 8.9h396.6c13.6-1.4 8.5-17 9.5-26.2V102.9c.1-5-4.7-9-9.5-8.9zM45.7 272c-13.2-19.5-11.8-45.8-7.2-68 1.4-13.2 11.1-20.2 13.5-3 5.7 22.7 6.5 48.7-5 69.6zm21.2 1c9.7-27.1 10-58 0-85H218v85H66.9zM477 399H80v-83h397v83zm0-101H80c-3.4-10.4 7.6-6.3 13.9-7h184.8c13.3-2 8.3-17.5 9.3-27v-84.7c-1.9-13.3-17.3-8.3-26.6-9.3H80c-3.4-10.4 7.6-6.3 13.9-7H477v135zm-241-25v-85h34v85h-34zm241-128H80v-32h397v32zm-43.2 247c10.5-1 22 2.3 31.6-2.5 5-9.4 1.6-21 2.6-31.5-1.7-13.2-17-8-26.2-9-12-3-19.4 7-16.8 18.2 1.1 8.5-4.2 23.9 8.8 24.8zm9.2-25c8.7-4.5 10.3 10.5 1.2 7-2.9.6-.4-5.4-1.2-7zm16-76.5c13.1-1.8 8-17.2 9-26.4v-84.8c-6.6-20.5-23-.6-18 12.7v89.4a9 9 0 0 0 9 9.1z"/></svg>