<svg xmlns="http://www.w3.org/2000/svg" width="512" height="512"><path d="M218.8 261.4c-3.3 20 21 14.3 24.9.3a85.7 85.7 0 0 1 86.8-1.7c24.3 19.4-17 31.2-30.5 37-6 27 31.3 12 42.7 3 21.4-11.6 21.5-43.7.9-56-29.7-19.6-70.4-20-102.2-5.2a45.4 45.4 0 0 0-22.6 22.6zm122.8 62c-17.4 22.6 19.1 22.1 27.4 5.8 28.2-22 38.4-65.3 17.4-95.7-23-34.7-67.5-51.4-108-48.6-18.4 19.2 15.6 21.4 28.6 21.9 32.4 5.4 69.3 28 70.1 64.4.2 22.8-16.6 41.7-35.5 52.1zm63 80.6h-144c-22.4 6.4-2 25.4 12.9 20h131c13.5.5 13.5-20.5 0-20zM88 326.8c12.5 7 17.8-9.2 23.7-16.9 2.8-16 .6-32.7 1.3-49V205c18.8 6 24.7-25.1 3-22-10.9-1.7-25.7 1.9-23 16v101.8c-4.5 7.8-15.8 17.9-5 26zm69.8 77.2H45.5c-1.4-19.2-21.9-8.7-26 3.6-8.7 13.7 9.3 18.5 19.7 16.4h118.6c13.4.5 13.4-20.5 0-20zM407 191c-7.1 0-15.2 1.9-17.8-6.7-22-31.3-43-63.3-65.6-94.1-11.6-4.4-25-1.3-37.4-2.2-15.3.2-30.6-.4-45.8.3-9.7 5.1-13.7 17-20.7 25.1-8.7 13.4-19.1 25.9-26.7 39.9.2 20.2 21.3 10.7 25.2-1.9l30-43.4h63.5c23.4 33.4 46.2 67.4 70 100.5 7.5 4.6 17 1.7 25.3 2.5 13.4.5 13.4-20.5 0-20zm87.2 221c-7.6-36.8-16-73.4-23.2-110.2-.5-18.8 1-38-.8-56.6-13-17-23.9 5-20.2 18V304c8.5 34 14.7 68.6 22.3 102.8-1.2 15.5 20.4 28 22 5.3zm-237.4-66.1c-3.4-21-36.6-17-48.1-35.2-19.6-17-25-48.5-8.3-69.5 8.3-22-23-17.6-24 .5-16.8 33.5-.1 75.1 30.5 94.2 12.3 5.8 40.3 28.5 49.9 10z"/></svg>