<svg xmlns="http://www.w3.org/2000/svg" width="512" height="512"><path d="M288.3 229.4c-25.7.4-58 7.6-69 33.8-7.5 24.2 17.7 41.6 38.2 46.6 31.5 8 70.9 5.7 94.2-19.6 16-18 1-43.7-18.5-51.2a102.1 102.1 0 0 0-44.9-9.6zm0 66.4c-18.2-.6-40.4-3.5-51.4-19.7-2-22.2 28.6-26.9 45.9-28.4 19.9-.5 44.4 2 56.6 19.8 2 22-28.4 26.6-45.6 28.2l-5.5.1zm74.4-86.5c-48.9-35-122.9-32.8-167.7 8-26.8 23.3-33.1 66.6-10.9 95 34.1 45.1 100.3 55.3 151.1 35.7 36.2-13 69-49.2 60.5-89.8-3.8-20-16.9-37.1-33-48.9zM352 318.5c-43 30.4-109 28.3-147.2-9.2a53.4 53.4 0 0 1 0-76.2c38.8-38 106.3-39.7 149.4-7.7 23 16 33.2 50.3 16 74.2a74.3 74.3 0 0 1-18.2 19zM494.7 413c-7.4-37.4-16-74.6-22.7-112V200.9c-2-13-17.4-7.8-26.6-8.9h-51.6c-23.7-33.9-46.7-68.3-70.8-101.8-8.4-4.8-18.8-1-28-2.2h-52.4c-10.7 3.4-14.3 16-21.4 24.1L170.7 185c-23.8.5-47.8-1-71.4.7-9 6.3-4 18.7-5.3 28.1v87.6C68.6 338.3 42.5 374.7 17.7 412c-3.3 14 13.5 12.4 22.4 12.1 148.9 0 297.8.2 446.7-.1 5.2-.6 9-5.8 8-11zm-451.4-7c22.6-33 46.2-65.6 68.2-99 1.1-34.6.2-69.4.5-104h63.4c10.8-3.4 14.3-16 21.4-24.1l50.5-72.9h65.3l69 100c8.4 7.2 20.6 2.8 30.9 4H454c.2 32.4-.5 65 .3 97.3l20.5 98.7H43.3z"/></svg>