<svg xmlns="http://www.w3.org/2000/svg" width="512" height="512"><path d="M298.3 96.3c-24.4-4-19 31.3 2.7 29 50.4 19 83.3 72.1 82.7 125.3 9.2 30.4 36.8 0 25.6-20-6.8-61.4-50.8-117.7-111-134.3zM133.5 250.6a136.7 136.7 0 0 1 45.1-102.3c17-20.4-18.8-32.4-27-11.1a164.6 164.6 0 0 0-30 181.2c21.4 16.6 28.5-15.8 17-30a139 139 0 0 1-5.1-37.8zm255.3 51.7c-27.2-.5-28.8 42.1-53.3 53.4a120.2 120.2 0 0 1-103 25c-31.6 2-8.5 36.6 13.9 29.2 62.3 6 124-33.2 149-89.8 3.2-6.5 0-15-6.6-17.8zM121.1 93.2a213.6 213.6 0 0 1 164.7-46.5c28.6-2.3 9.5-35.1-11.7-28.1a241 241 0 0 0-170 54c-13.7 11.2 3.8 31.8 17 20.6zM44.7 255.8c-4.4-24.7 14-51.2 3.9-73.2-31.4-9.5-26.2 40.3-30.4 60.5a233 233 0 0 0 37 140c26.5 14.2 24.4-23.3 10.2-36a211.3 211.3 0 0 1-20.8-91.4zM339.8 450a212.5 212.5 0 0 1-171-1.5c-28.4-5.8-18.9 31.2 3.5 30.4 57 21.7 122.3 20 178.2-4.4 16.2-6.6 5.1-31.8-10.7-24.5zM416 79.6c-24-13.9-27.8 21.7-8 29.5a212 212 0 0 1 39 237.4c-10.7 13-25.2 48.7 4.8 42 17.6-19.1 26.3-45.4 34-70 23.8-84.8-4.1-180.3-69.8-239z"/></svg>