<svg xmlns="http://www.w3.org/2000/svg" width="512" height="512"><path d="M302.2 318c37.4 1.2 69-37.3 60.2-73.8-6.4-36.8-50.2-59.9-84.2-44.2-34.8 13.3-49.2 60.7-27.1 90.9a61.7 61.7 0 0 0 51.1 27zm0-102.8c30.1-1.3 52 35.3 36.4 61-13.2 27-55.2 29-71 3.5-19-26.3 2.3-65.5 34.6-64.5zm-203.1-5.8c32.7 1.4 56.3-38.4 39.4-66.5-14.2-29.2-59.8-31.3-76.8-3.6-20.6 28.5 2.4 71.2 37.4 70.1zm0-70c21.5-1.2 33.3 28.4 17.5 42.6-14.2 16-43.7 3.7-42.5-17.7a25.1 25.1 0 0 1 25-24.8zm0 256.5c32.7 1.4 56.3-38.4 39.4-66.5-14.2-29.2-59.8-31.3-76.8-3.6-20.6 28.5 2.4 71.2 37.4 70.1zm0-69.9c21.5-1.3 33.3 28.3 17.5 42.5-14.2 16-43.7 3.6-42.5-17.7A25 25 0 0 1 99 326zm205 69.9c65.5 1.3 126.5-50.1 136.9-114.7a139.8 139.8 0 0 0-82.8-152.7 139.9 139.9 0 0 0-167.6 47.7 139.3 139.3 0 1 0 113.6 219.7zm0-258.3c58.1-1.3 111.9 46.1 118.1 103.9a120 120 0 0 1-85.5 129.8 119.9 119.9 0 0 1-140-63A119.4 119.4 0 0 1 304 137.5zM492 95c-1.6-14-17.8-9.1-27.5-10H29c-14 1.6-9.1 17.8-10 27.5V417c1.6 14 17.8 9.1 27.5 10H482c14-1.6 9.1-17.8 10-27.5V95zm-21 310H39V105h432v300z"/></svg>