<svg xmlns="http://www.w3.org/2000/svg" width="512" height="512"><path d="M245.2 120c54-.2 108.1.3 162.2-.2 18-3.3 9.3-29.9-7.2-24.8-52.6.2-105.1-.3-157.6.2-15.2 2.4-12.7 25.4 2.6 24.8zm-54 272H45c-.2-37.6.4-75.2-.3-112.8-4-17.7-31.4-9.8-26.7 7.2.2 40.1-.4 80.3.3 120.4 4.4 14.4 21.5 9.2 32.9 10.2 47.5-.2 95 .3 142.6-.2 15.2-2.4 12.7-25.4-2.6-24.8zM31.5 180.8c14 0 14.3-15.3 13.5-25.6V120c29.6-.2 59.2.3 88.8-.2 18-3.3 9.3-29.9-7.2-24.8-32.5.2-65-.3-97.6.3-14.4 2.9-10.5 19-11 29.8.6 15.9-1.3 32.1 1.1 47.8 2.1 4.7 7.2 8 12.4 8zm449-47.6c-14 0-14.3 15.4-13.5 25.7.2 49.8-.4 99.7.3 149.5 4 17.7 31.4 9.8 26.7-7.2-.2-52.5.4-105-.3-157.6-1.3-6-7.1-10.4-13.2-10.4zM464.8 392c-54 .2-108.2-.3-162.2.2-18 3.3-9.3 29.9 7.2 24.8 52.5-.2 105 .3 157.6-.2 15.2-2.4 12.7-25.4-2.6-24.8zM288.4 124.9c-24.3 3.8-9.1 32 9.5 30a111.2 111.2 0 0 1 67.7 103.7c6.7 21.8 34.4 4 25.3-14-4.2-56.2-47-107.8-102.5-119.8zM131 307.9c15.2 22.4 34.1-7.5 19.5-22.6-12.4-42.6 4.5-91 40-117.5 13.5-21.7-21.7-28.3-29.6-8.4-39 37.5-51.2 99-30 148.6zm243 14.7c9.4-22.2-25.7-25.6-28.6-3.8a111.4 111.4 0 0 1-119.2 42.8c-26 5-6.5 34.8 13 29.2A135.7 135.7 0 0 0 374 322.6zm-118.2-22.3c16.3 3 26-10.3 25.3-23 7.5-11 28-15 17.3-34.5-8.3-31-52.2-41.9-74-18.1-23.7 21.6-12.8 65.5 18.2 73.6 4.3 1.4 8.7 2 13.2 2z"/></svg>