<svg xmlns="http://www.w3.org/2000/svg" width="512" height="512"><path d="M416.6 22.9c30.6 19.2 57.4 46.3 71.3 80.1 27.3 13.4 14.5-28.1 2.3-38a192.5 192.5 0 0 0-67.3-60.8c-10.7-1.5-15.7 13.5-6.3 18.7zm-69 71.3c30.7 19.2 57.5 46.3 71.4 80 27.3 13.5 14.4-28 2.3-37.9a192 192 0 0 0-67.4-60.8c-10.6-1.6-15.7 13.5-6.3 18.7zm-335 6.2c23.8-4.7 25.8-44.2 49-56.7 8.8-15.4 53.2-26 31.3-44.8C69.1 4.6 51 26.4 34 43.5c-8.5 14.3-39 41.7-21.4 57zm69 71.3c23.8-4.8 25.7-44.3 48.9-56.7 8.8-15.4 53.2-26 31.4-44.8-23.9 5.7-42 27.5-59 44.6-8.4 14.3-39 41.7-21.4 56.9zM98 489.1c-31-19.3-57.5-47-72-80.8-30.2-10.2-9.6 32.4 1.4 42.8 16.9 22.7 38.3 42.7 63 56.4 11.1 3.3 17.7-13 7.6-18.4zm69-71.3c-31.1-19.2-57.6-47-72-80.8-30.3-10.2-9.7 32.5 1.3 42.9a203 203 0 0 0 63 56.3c11.2 3.3 17.7-13 7.6-18.4zm329.8-6.2c-24 6.7-27.5 46-51.8 59.4-9.4 12.7-53.5 28.5-26 42.4 26.5-11.6 48-34 65.6-56.6 5.5-11.6 29-34.8 12.2-45.2zm-69-71.3c-23.8 6.7-27.5 46.1-51.8 59.5-9.3 12.6-53.4 28.5-26 42.4 26.6-11.7 48-34 65.7-56.7 5.5-11.6 29-34.7 12.2-45.2zm-169.5 27.2c-61.3 1.7-115.6-55.4-110.8-116.6 1.5-61.3 61.3-112.6 122.1-104.6C330.7 150.9 379 213 368 273.5c-7.2 52.7-56.3 95-109.6 94zm0-195c-49.7-1.6-92.3 48-83.2 96.9 6 49.2 61.2 83.8 108.2 67.6C331 323.6 357 264 334 220.2a84.5 84.5 0 0 0-75.8-47.8zm97.5 84.1c1.7 55.8-52.1 104.4-107.5 97-55.6-4-98.4-62.4-85.6-116.7 9.7-54.8 71.9-91.6 124.6-73.4 40 11.9 69 51.3 68.5 93.1z"/></svg>