<svg xmlns="http://www.w3.org/2000/svg" width="512" height="512"><path d="M38 255c5.6.7 15.8-3.1 13 6-12.9 15.8-36.5-5.3-24.6-21.3 8.6-14 21.4.2 28 1.7-1-19.3-37.5-14.7-36 6-4 19 19.6 30.3 34.2 20.2 6.5-1.5 5.8-16 2.4-17.9-5.1 1.2-15.2-2.5-17 2v3.3zm50 3.1a13.9 13.9 0 0 0-23.4-13.8c-6.5 15.8 18-12 17.5 7.5-11.8-2-31.4 12.3-12.8 19.2 8.6.8 11.7-5.5 17.2-1 4.8 1.4-.8-9.2 1.5-11.9zm-6-.6c2.5 17.5-27.7 5.4-8.1 0 2 1.4 9.5-4.9 8.1 0zm43.8-17.2c-8.6 4-9 4-17.5 0-7.3 1-9 6.8-10.3-.3-6.3.2-1.5 11.3-3 16.2 1.2 5-3.6 16.2 5 13.8 2.9-5.6-1-16.2 2.2-22.9 11.3-8.6 10.1 9.2 9.8 16.4-3 9.2 8.2 8 5-.6-4.5-10.9 10.7-28 13-10 1.2 5.2-2.5 15.3 2 17.1 7.7 1.3 2.5-10.3 4-15.2.7-7-1.5-15.1-10.2-14.5zm28.7 0c-22.9 0-14.5 40.7 7 29.5 11.4-6.4 1.3-13.6-4.2-3.1-14 1.1-13.7-14.4-.3-9.7 13.7 4.9 13.9-10.5 2.9-15.7 1.4.2-7-2-5.4-1zm-8.3 12.7c4.3-20.4 27.1 5.1 5.3 0h-5.3zm44.8-23c9.3-3 6.8 6 7 12.2V270c-9.3 3-6.8-6-7-12.2V230zm36.9 13.8c-8.5-9.2-16.7 5-19-3.8-7.6-1.3-2.4 10.3-3.9 15.2 1.5 4.8-3.7 16.3 4 14.8 4.5-2.4.7-12.7 2.1-18.2 5.3-15.8 18.2-1 13.9 9.9-3.6 7.4 6.2 12.8 5 3.2-.6-7 1.5-14.8-2.1-21.1zm29.3-1.6C248 236 242.6 248 240 240c-4.4 2-.8 12-2 17.2V282c8.7 2.3 3.7-9 5-14.2 15 13.7 28.3-15.8 14.2-25.6zm-1.6 22c-27.5 12.4-4.7-42.3 2.3-8.7 0 3-.4 6.2-2.3 8.7zm32.4-7.4c-1.2 18.4-19.7 6.7-14-6.6 2.4-5.6-2.6-16-5-7.2.9 8.7-2.4 18.8 3.2 26 12 4.5 13-3.4 21.8 1v-30c-9.2-2.8-5.2 7.6-6 13.2v3.6zm21.5 9.4c-6.6-3.4-2.3-13.7-3.5-20.3 5.3-2.2 8.6-5.7 0-7 3.3-8.9-5.3-9.8-5-1.2-4 4.8 1.2 7 0 14.4-2 8.3 2.4 25.6 11 16.3-.4-1.2.4-4.1-2.5-2.2zm180-17.9L358 169.5c-12.8-6-15.6 9.8-14.1 19v146.3c1.7 14 16.6 7.9 23.6 2 41.2-24.9 82.8-49.1 123.7-74.4 4-4 3-11.3-1.9-14.1zM362 318.8V193.3L466.6 256 362 318.8z"/></svg>