<svg xmlns="http://www.w3.org/2000/svg" width="512" height="512"><path d="M18 237c5.1 1.3 16.4-3.7 14 5.2V278c9.3 2.8 5.1-7.8 6-13.4V237c4.8-1.6 16.2 3.4 16-3-.3-6.3-11.5-1.5-16.5-3H18m60.3 33.4c-3 15.6-6.2-7.4-9.7-13.6l-7-19.8c-10.4-2.8-3.8 6.1-2.2 11.6L72.7 278c8.2 2.8 8-6.4 10.6-11.6L96.8 231c-8.4-2.7-8 7.2-10.8 12.6l-7.7 20.8zM129 231l-17.6 47c8.4 2.9 8-6.3 10.4-11.7 1.5-6.7 11.3-1.8 16.5-3.3 7-.9 5.7 10 8.9 14.6 9.4 3.6 5.7-4.4 2.8-10.1L135.5 231H129zm-4.4 28c2.6-7.5 6-14.8 7.5-22.6 1 7 7.7 17.2 7 22.6h-14.5zm54.4 3c.3 18.9-21.4 9-15-5.8.6-5.6 1-16.5-6-11.2.7 9.6-1.8 20 2.2 29 7.6 11.9 21.1-7.6 20.8 4 7.7 1.2 2.5-10.5 4-15.5-.7-5.8 1.4-14.4-1-18.5-8.7-2.2-3.7 9.3-5 14.4v3.6zm36-14.2c-17-17-33.4 17.8-16.2 27.9 9.8 7.1 15.8-6.5 18.3 2.3 7.6 1.2 2.3-10.5 3.9-15.5V231c-9.3-2.8-5.1 7.8-6 13.4v3.4zm-2.1 22.4c-22.2 15.5-17.8-38.6 1-17.3 2 5.3 2.4 12.6-1 17.3zM230 231c10.8-3 1.3 13.2 0 3v-3zm0 13c8.7-2.3 3.7 9.3 5 14.4V278c-8.7 2.3-3.7-9.3-5-14.4V244zm27-.8c-23.2-.9-19 41.3 4.1 34.2 17.3-3.9 14.5-35.4-4.1-34.1zm7 26.9c-29.9 15.8-11.4-45.1 2.5-12.6.5 4.2.3 9.2-2.6 12.6zm225.3-22.7L342.2 159c-13.6-6.5-16.8 10.3-15.2 20v165.3c1.2 15 17.3 9.3 24.9 2.8 46.4-28 93.4-55.4 139.5-84a10.2 10.2 0 0 0-2-15.7zm-142.3 79V185.6l117.3 70.4L347 326.3z"/></svg>