<svg xmlns="http://www.w3.org/2000/svg" width="512" height="512"><path d="M491.42 287.2c.58-58.46-37.64-114.77-92.24-135.69-54.53-22.63-121.76-7.47-161.4 36.26-41.08 42.93-51.04 111.72-23.97 164.6 25.65 53.62 86.5 87.45 145.58 80.76 59.64-5 112.95-50.62 127.26-108.7a148.33 148.33 0 0 0 4.77-37.23zm-24.7 3.5c-.66 51.11-37.16 99.04-86.26 113.25-49.18 15.8-106.87-4.34-135.6-47.25-29.78-41.73-28.5-102.24 3.03-142.68 30.75-41.99 89.93-59.5 138.58-40.99 48.67 17.03 82.01 66.2 80.25 117.67zM91.8 189.38c21.53-10.78 26.84-36.4 25.2-58.42 2.73-26.34-16.1-57.3-45.23-54.96-15.21.58-30.73-1.22-45.73 1-12.56 6.19-6.68 21.8-8.04 32.92.17 49.21-.34 98.47.26 147.66 3.7 17.15 29.56 8.85 24.74-7.23V193h23.98c9.64 23.16 17.92 46.98 28.42 69.72 16.04 14.97 27.6-9.76 16.93-22.16-6.84-17.05-13.67-34.14-20.53-51.18zm-16.58-20.5c-10.66.28-21.5.04-32.22.12v-69c11.9.33 23.9-.69 35.74.55 17.14 8.75 12.72 30.05 13.17 45.94-.66 9.43-5.81 21.7-16.69 22.39zM22.6 256.14h467.15"/></svg>