<svg xmlns="http://www.w3.org/2000/svg" width="512" height="512"><path d="M494.22 288.35c.58-58.89-37.89-115.62-92.88-136.73-55.38-22.97-123.8-7.37-163.65 37.47-40.8 43.35-50.57 112.18-23.41 165.16 24.9 51.98 82.68 85.76 140.15 81.8 59.94-2.17 115.42-45.25 132.79-102.6 4.73-14.54 6.84-29.85 7-45.1zm-25.12 3.52c-.62 51.86-37.9 100.52-87.9 114.4-49.28 15.28-106.71-4.99-135.4-47.88-30.5-42.67-28.56-104.8 4.48-145.5 31.33-41.03 89.88-57.68 138.13-39.38 48.88 17.15 82.6 66.8 80.69 118.36zM74.82 76c-16.48.56-33.25-1.16-49.55.94-11.69 6.83-5.85 21.7-7.27 32.8.16 49.6-.31 99.22.24 148.8 3.3 14.65 20.08 9.57 30.95 10.46 19.35-.26 42.4 3.35 55.48-14.84 17.7-20.77 11-48.8 12.33-73.66-.62-22.45 1.4-45.1-1.32-67.4-3.85-19.3-20.12-37.3-40.86-37.1zM92 218.72c1.8 17.23-13.83 27.36-29.12 24.28-5.97-1.46-17.86 3-19.88-2.39V101c12.78.86 26.23-1.97 38.46 1.94C97 114.98 90.66 136.06 92 153v65.72zm-69.4 37.42h467.15"/></svg>