<svg xmlns="http://www.w3.org/2000/svg" width="512" height="512"><path d="M292.38 288c-9.13 2.41-10.78-2.66-9.38-10.78.15-9.24 1.65-22.65-10.4-24.96-14.07-2.67-17.07 12.91-15.6 23.39.02 6.65 2.2 15.47-7.54 12.35-5.8-.77-17.56 3.22-12.37-6.3 8.06-35.97 16.8-71.82 24.43-107.86.45-17.86-27.29-15.9-26.36 1.21-9.4 42.1-19.66 84.04-28.54 126.23.25 14.02 15.76 13.13 25.8 12.72H257c.87 10.27-2.09 21.36 2.24 30.93 9.51 13.55 28.07.34 23.76-13.65 1.43-5.05-2.88-15.83 2.16-17.28 12.82 3.68 27.26-10.72 16.32-22.16a12.77 12.77 0 0 0-9.1-3.84zm201.8 73.4c-1.75-77.98-44.85-153.47-111.19-194.53-64.36-41.23-148.86-48.16-219.15-18.16C93.38 177.7 39.21 242.5 23.25 317.01c-3.55 17.7-6.48 36.07-4.94 54.03 3.35 17.61 29.9 9.54 25.24-6.9.7-74.21 44-145.99 109.16-181.45 63.16-35.83 144.8-35.63 207.73.63 64.91 35.77 107.65 107.73 108.12 181.83-3.83 14.94 19.16 24.15 24.75 8.57 1.54-3.91.72-8.27.87-12.32zM22.6 256.14h467.15"/></svg>