<svg xmlns="http://www.w3.org/2000/svg" width="512" height="512"><path d="M494.1 360.83c-1.8-77.22-44.08-152-109.41-193.22-64.25-41.99-149.15-49.5-219.85-19.68-72.77 29.4-128.2 97.2-142.68 174.32-2.97 16.03-4.98 32.45-4.06 48.74 2.07 11.22 16.17 14.15 24.62 7.9l213.2-91.66c72.73 31.3 145.46 62.57 218.18 93.87 10.44 4.8 22.26-5.58 19.95-16.6.1-1.14-.22-2.7.05-3.67zM47.75 345.6a209.5 209.5 0 0 1 57.55-123.13l114.4 49.2c-57.32 24.64-114.63 49.3-171.95 73.93zm81.2-144.22c56.34-43.7 135.5-55.13 201.9-29.15 18.69 7.15 36.32 17 52.25 29.11L256 256.02l-127.05-54.64zm163.4 70.27l114.4-49.2c32.12 33.16 52.8 77.21 57.55 123.15-57.31-24.65-114.65-49.28-171.95-73.95zM22.6 256.14h467.15"/></svg>