<svg xmlns="http://www.w3.org/2000/svg" width="512" height="512"><path d="M487.97 102.72c-23.66-13.25-46.7-27.82-70.76-40.22-15.6-2.24-18.73 15.8-25.98 25.6L282.36 276.68A178.33 178.33 0 0 0 211 256.1c-.18-52.2.36-104.45-.27-156.64-3.77-18.77-31.95-9.8-26.73 7.7v148.97c-66.46 4.34-128.07 48.99-152.92 110.77a179.16 179.16 0 0 0-13.73 71.93c3.96 18.71 32.05 9.91 27.13-7.66 1.3-61.02 42.75-118.64 100.35-138.97 57.74-22.1 127.74-4.51 168.01 42.44 25.5 28.4 38.74 66.53 38.68 104.5 3.43 18.23 31.45 10.59 26.77-6.75-.76-55-28.54-108.7-72.9-141.2L419.03 94.23c19.62 11 38.73 23.05 58.69 33.36 15.17 4.16 23.75-17.31 10.25-24.87zM22.6 256.14h467.15"/></svg>