<svg xmlns="http://www.w3.org/2000/svg" width="512" height="512"><path d="M492.73 360.6c-1.76-75.54-42.39-148.76-105.62-190.15-37.73-24.88-82.8-39.62-128.13-39.21-8.1 1.23-17.22-.82-25.89.72-76.37 6.83-147.57 53.69-184.21 121.02A235.6 235.6 0 0 0 19.3 370.4c3.65 18.1 31.21 10.2 26.73-6.99.92-70.75 40.49-139.44 101.4-175.5a208.98 208.98 0 0 1 95.58-29.84c.17 70.76-.34 141.56.26 212.3 3.24 18.23 30.66 9.97 25.74-6.99V158.07c72.4 3.82 140.87 48.37 173.55 113.1 15.98 30.34 23.46 64.64 23.8 98.8 3.42 16.72 30.6 10.4 26.41-6.18-.01-1.07-.04-2.13-.04-3.19zM22.6 256.14h467.15"/></svg>