<svg xmlns="http://www.w3.org/2000/svg" width="512" height="512"><path d="M256.17 205c12.17-.9 25.14 2.13 36.64-2.27 14.42-9.8.45-29.22-14.15-24.73-18.33.01-39.86-2.54-52.4 14.22-17.02 19.23-11.21 45.93-12.26 69.33.6 22.81-1.37 45.82 1.31 68.48 3.79 22 24.59 39.9 47.32 36.97 10.72-1.09 23.02 2.93 32.22-3.9 11.73-12.09-3.83-26.96-17.27-23.1-10.83-1.25-24.74 3.99-32.03-6.71-7.73-14.37-3.43-31.25-4.55-46.9.2-21.22-.42-42.48.32-63.67 1.16-7.72 5.97-17.32 14.85-17.72zm237.6 155.93c-1.81-77.06-43.93-151.73-109.15-192.88-64.53-42.21-149.97-49.49-220.78-19.04-69.9 28.98-123.72 93.27-139.7 167.26-4.03 17.85-5.74 36.48-5.88 54.54 3.83 18.53 32.2 10.58 27.73-7.11 1.05-69.7 39.3-137.44 98.75-173.95 58.47-37.14 135.51-42.29 198.37-13.14 66.63 29.58 114.84 96.17 121.98 168.74 2.35 10.57-1.7 22.92 5.33 31.85 11.3 10.76 27.4-2.73 23.32-16.23v-.06zM22.6 256.14h467.15"/></svg>