<svg xmlns="http://www.w3.org/2000/svg" width="512" height="512"><path d="M303.1 355c10.71-.97 28.4 4.42 30.3-11-1.82-15.37-19.6-10.03-30.3-11-12.76-5.22-6.65-21.55-8.1-32.42.43-12.75-.92-25.66.78-38.3 7.32-14.54 29.35 2.14 36.72-13.31 4.83-18.73-17.5-16.15-29.26-15.97-21.27-.22-34.12 22.28-31.24 41.61 1.01 20.07-2.4 40.74 2.51 60.31 4.53 11.5 16.03 20.19 28.59 20.08zM182.46 460c10.84-.85 28.64 4.29 30.29-11.5-1.57-15.72-19.46-10.66-30.29-11.5-10.73-5.68-4.99-20.7-6.46-30.85.88-14.15-2-28.98 1.93-42.6 9.74-7.4 27.05 4.03 33.92-9.58 4.83-18.73-17.5-16.15-29.26-15.97-21.1-.52-32.33 22.2-29.59 40.82.9 20.13-2.14 40.74 2.25 60.47 3.9 11.46 14.72 20.95 27.21 20.71zM409.72 50.9C391 40.14 372.35 29.24 353.58 18.57c-14.99-4.95-18.53 13.76-25.32 22.87l-90 155.56c-43.42.24-87.5-.48-130.5.36-7.77.61-13.14 8.4-10.76 15.82v269.97c1.78 15.65 20.1 9.62 30.93 10.82 85.92-.05 172.09.1 257.85-.07 12.37-5.47 7.07-21.5 8.2-32.11V209.15c-2.34-16.96-21.57-11.14-33.48-12.17h-95.74l70.67-122.06c16.04 9.04 31.64 18.97 47.96 27.45 22.48 1.53 12.81-24.64-2.9-27.59L346.9 55.42c3.23-10.17 8.63-12.26 16.6-4.72 13.62 6.86 25.97 17.09 40.47 21.59 11.26.49 15.99-16.04 5.75-21.39zM120 471V236.87L354.2 471H120zm251-251v235.5L135.57 220H371zM22.6 256.14h467.15"/></svg>