<svg xmlns="http://www.w3.org/2000/svg" width="512" height="512"><path d="M482.4 208H332c-.16-44.83.32-89.68-.24-134.5-3.98-15.13-21.23-9.36-32.7-10.5-90.64.19-181.33-.37-271.95.28C12.37 67.9 18.16 85.37 17 96.91v269.46c1.88 15.76 19.96 10.81 31.03 11.63H162c.6 21.1-1.23 42.44 1 63.36 11.77 18.86 28.7-1.96 24-17.08V378h132.95c16.13-1 11.31-19.14 12.05-30.06V233h59c.56 17.44-1.19 35.12 1 52.4 11.77 18.85 28.7-1.97 24-17.09V233h54c.56 17.44-1.19 35.12 1 52.4 11.77 18.85 28.7-1.97 24-17.09-.6-17.3 1.26-34.94-1.01-52.04-1.9-4.6-6.47-8.28-11.59-8.27zM308 354H42V88h266v266zM157.37 221.2L57.17 321.4c-13.45 22.9 18.9 24.9 26.96 7.84l90.64-90.64 100.2 100.2c22.9 13.45 24.9-18.9 7.84-26.96l-90.64-90.64 100.2-100.18c13.45-22.9-18.9-24.9-26.96-7.84l-90.64 90.64-100.2-100.2c-22.9-13.45-24.9 18.9-7.84 26.96 30.2 30.2 60.45 60.48 90.64 90.62zM22.6 256.14h467.15"/></svg>