<svg xmlns="http://www.w3.org/2000/svg" width="512" height="512"><path d="M132.45 394.83c12.97 10.5 22.46-6.72 31.23-14.17l75.96-75.95 90.13 90.13c23.66 13.1 23.65-19.6 6.68-27.46l-79.73-79.73 90.12-90.1c13.11-23.66-19.59-23.66-27.46-6.69l-79.74 79.73-90.13-90.12c-23.66-13.09-23.64 19.6-6.67 27.46l79.73 79.71-90.13 90.13c-4.68 4.45-4.67 12.64.01 17.06zM413.1 58.77c-14.2-13.32-26.87-28.66-42.06-40.71-12.52-3.77-18.69 10.82-27.2 17.34L234.64 145H108.1c-17.4.51-12.4 19.62-13.1 31.14v243.04c2.47 17.46 22.14 11.91 34.48 12.82H228c.53 18.46-1.12 37.15.94 55.46 14.71 19.97 27.3-5.76 23.06-20.74V432h119.2c17.48-2.27 11.87-21.94 12.8-34.2V156.1c-2.76-15.8-21.41-9.97-32.84-11.1H268.8l46.96-47.45c11.32 10.43 21.19 22.66 33.5 31.86 24.56 3.5 15.43-23.57 1.76-31.21L332.8 80l33.68-33.68C377.8 56.86 387.68 69.18 400 78.5c11.92 5.1 22.38-10.8 13.1-19.73zM360 169v239H120V169h240zM22.6 256.14h467.15"/></svg>