<svg xmlns="http://www.w3.org/2000/svg" width="512" height="512"><path d="M423.6 315H298c-.32-33.35.57-66.99-.29-100.07-4.33-48.2-43.95-90.2-91.83-97.29l19.33-33.48c9.32 10.45 33.78 9.14 24.67-9.79-8.49-6.22-17.82-12.3-27.78-15.8-12.9.96-14.62 16.55-21.43 25.14-3.66 5.53-.73-13.74-1.67-18.47-.47-13.92.99-28.03-.8-41.83-14.17-18.47-23.82 6.87-20.2 20.24v73.15c-49.66 3.5-93.07 44.93-99.2 94.3-2.1 23.72-.1 47.7-.79 71.6v142.96c1.45 16.03 19.66 10.38 30.56 11.4H178c.48 17.18-1 34.55.8 51.61 14.18 18.47 23.82-6.9 20.2-20.27V437h88.5c15.21-2.62 9.32-20.53 10.5-31.46V337h48c.53 14.34-1.1 28.9.88 43.09 14.4 18.41 24.95-6.45 21.12-20.26 1-7.06-1.92-18.04 1.34-22.83H413c.48 14.34-1 28.87.8 43.09 14.16 18.48 23.82-6.9 20.2-20.26-.45-12.64.94-25.46-.78-37.99-1.43-3.93-5.35-6.94-9.62-6.84zm-323.57-99.28c4.37-42.73 43.68-78.03 86.64-77.78 42.94-1.63 83.3 32.5 88.99 75.07.25 6.98-14.26 1-19.68 2.98-51.88-.18-104.61.36-155.95-.27zM277 415H99V238h178v177zm-171.3-6.58c12.44 9.55 21.05-7.32 29.53-14.2L188 341.45l66.97 66.97c22.5 11.6 20.36-18.68 4.93-25.74l-56.56-56.58 66.96-66.97c11.63-22.48-18.68-20.35-25.73-4.92L188 310.8l-66.96-66.97c-22.47-11.64-20.36 18.67-4.93 25.72l56.58 56.57-66.97 66.97c-4.22 4-4.15 11.34-.02 15.33zM22.6 256.14h467.15"/></svg>