<svg xmlns="http://www.w3.org/2000/svg" width="512" height="512"><path d="M436.76 65.42C420.46 50 405.79 32.6 388.4 18.52c-14.9-3.6-22.32 12.97-32.44 20.87-41.56 41.53-83.1 83.07-124.64 124.6-49.68.18-99.4-.36-149.05.27-16.6 5.01-9.88 24.22-11.27 37.13V481.2c2.27 17.4 21.82 11.9 34.02 12.8h283.75c17.6-1.12 12.47-20.87 13.23-32.82v-283.8c-1.37-17.65-21.14-12.67-33.25-13.38h-99.53l55.55-55.54c13.12 12.28 24.67 26.47 38.88 37.42 25.97 4.54 18.22-24.89 3.2-33.2L343.7 89.51l39.65-39.64c13.13 12.28 24.68 26.5 38.9 37.42 13.2 5.66 24.88-11.94 14.51-21.88zM375 190v278H98V190h277zM217.94 329.3L113.48 433.74c-14.66 24.88 20.56 27.11 29.32 8.56l94.08-94.09L341.34 452.7c24.92 14.62 27.13-20.55 8.57-29.33l-94.09-94.07 104.46-104.46c14.65-24.9-20.55-27.12-29.32-8.56l-94.08 94.07L132.42 205.9c-24.9-14.65-27.12 20.55-8.56 29.32l94.08 94.08zM22.6 256.14h467.15"/></svg>