<svg xmlns="http://www.w3.org/2000/svg" width="512" height="512"><path d="M482.82 207H334c-.2-44.72.38-89.48-.29-134.18-4.11-15.12-21.8-9.89-33.4-10.82-91.29.18-182.61-.36-273.88.27C11.55 66.34 17.04 83.94 16 95.34c.17 91.3-.34 182.62.26 273.9 3.57 15.2 21.33 9.76 32.68 10.76H161c.19 19.84-.38 39.72.3 59.53 4.01 18.83 32.8 10.14 27.7-7.7V380c44.61-.18 89.25.36 133.84-.27 15.44-3.63 10.28-21.46 11.16-33.02V234h56c.64 17.26-1.35 34.86 1.12 51.87 7.55 16.94 32 4.9 26.88-11.5V234h50c.64 17.26-1.35 34.86 1.12 51.87 7.55 16.94 32 4.9 26.88-11.5-.6-19.55 1.24-39.38-1-58.73-1.82-5-6.78-8.74-12.18-8.64zM307 352H44V89h263v263zM22.6 256.14h467.15"/></svg>