<svg xmlns="http://www.w3.org/2000/svg" width="512" height="512"><path d="M438.32 63.9c-15.15-15.08-30.16-30.3-45.39-45.29-13.41-9.46-22.19 6.69-30.82 14.18C318.54 76.44 274.98 119.16 231.2 163H83.1c-17.83 2.38-12.16 22.65-13.1 35.24V483.8c1.96 16.85 21.43 11.2 33.2 12.2h286.93c17.39-.99 12.02-20.59 12.87-32.3V176.8c-1.06-17.9-20.8-13.21-32.97-13.8H268.3l57.13-56.8c13.32 12.55 25.1 26.96 39.47 38.23 25.7 4.49 17.58-24.54 2.84-32.7L344 88l40.67-40.65c13.33 12.46 25.06 26.86 39.47 38 12.91 5.54 24.37-11.74 14.18-21.45zM377 189v281H96V189h281zM22.6 256.14h467.15"/></svg>