<svg xmlns="http://www.w3.org/2000/svg" width="512" height="512"><path d="M169.74 265.9c1.32 30.97 30.02 57.85 61.1 56.16 8.67.3 17.34-2 25.17-5.66 26.36 13.14 61.36 3.41 76.82-21.81 17.04-25.32 10.51-62.8-14.26-80.7-17.51-13.6-42.7-16.18-62.59-6.37-27.35-13.88-63.84-2.4-78.43 24.54a60.08 60.08 0 0 0-7.81 33.84zm105.2-47.13c24.9-4.83 50.51 16.02 50.79 41.39 1.8 25.4-22.23 48.34-47.52 45.35-9.09.78-2.51-3.82.34-7.69 17.66-23.02 15.05-58.48-5.89-78.59.74-.17 1.55-.28 2.28-.46zm-34.47 29.56a43.8 43.8 0 0 1 15.52-21.53c21.15 14.65 23.7 48.36 4.93 65.98-4.05 7.25-9.19 1.47-12.67-3.06a43.84 43.84 0 0 1-7.78-41.39zm-54.13 11c.7-25.7 27.47-46.27 52.5-40.23-1.67 3.05-6.76 7.76-8.8 12.14-14.08 22.83-10.03 54.74 9.28 73.34-24.96 6.37-52.07-13.88-53.01-39.64-.1-1.85-.19-3.86.03-5.61zM486.92 248h-50.7c-3.2-33.52-31.8-62.1-65.24-65.56 2.56-11.72-9.67-14.95-18.88-13.42H149.7c-12.16.23-4 16.78-16.15 14.74-30.37 6.27-54.63 33.43-57.75 64.24-17.96.42-36.1-.86-53.94.68C7.76 259.7 26.67 267.97 37.3 265h38.46c3.4 33.37 31.83 61.84 65.21 65.26-2.31 11.45 10.05 14.08 18.88 12.72h202.42c11.7-.24 4.21-16.15 16.15-14.05 30.26-6.25 54.51-33.26 57.75-63.94 17.96-.42 36.1.86 53.94-.68 8.27-3.42 5.7-16.4-3.2-16.31zM141 313.47c-29.94-3.92-53.03-34.16-48.57-64.09 2.57-25.18 23.6-46.68 48.6-50.22-.02 38.1.04 76.22-.03 114.31zM354 326H158V186h196v140zm65.97-66.64c-.94 26.68-22.59 50.45-48.98 54.16V199.2c28.7 3.94 51.01 31.23 48.98 60.16zM22.6 256.14h467.15"/></svg>