<svg xmlns="http://www.w3.org/2000/svg" width="512" height="512"><path d="M481.74 166H270c-.2-46.28.39-92.6-.3-138.85-8.24-23.18-33.98-4.43-27.7 13.62V166c-71.5.2-143.03-.39-214.5.3-23.2 8.24-4.44 33.98 13.6 27.7 147.8-.2 295.64.39 443.4-.3 16.09-3.18 13.46-27.79-2.76-27.7zM406.5 317c-101.25.2-202.55-.39-303.77.3-23.2 8.23-4.44 33.98 13.6 27.7 97.64-.2 195.32.39 292.93-.3 16.09-3.17 13.46-27.79-2.76-27.7zm-75.24 151c-51.09.2-102.21-.39-153.27.3-23.21 8.23-4.45 33.98 13.6 27.7 47.48-.2 94.99.39 142.43-.3 16.09-3.17 13.46-27.79-2.76-27.7zM22.6 256.14h467.15"/></svg>