<svg xmlns="http://www.w3.org/2000/svg" width="512" height="512"><path d="M263.24 261.67c-.8-39.87-30.7-76.73-69.53-85.79-38.9-10.42-83.14 8.5-102.37 43.9-19.98 34.02-14.26 80.43 13.32 108.62 16.6 17.3 40.47 28.9 64.65 28.12 5.12-.74 11.23 1 16.91-.68 39.03-5.73 71.55-39.3 76.26-78.44.68-5.21.95-10.48.76-15.73zm-21.22 7.18c-1.13 34.65-31.55 66.12-66.48 66.48-11.78.34-23.89-.7-34.56-6.32-31.88-14.32-48.62-54.17-36.49-86.95 10.53-32.97 47.63-53.96 81.32-46.22 33.54 6.4 58.56 39.15 56.21 73.01zM51.85 206.94c6.63-9.91 14.97-18.89 20.4-29.46 1.86-18.11-20.23-13.9-24.27-1.1-2.9 2.47-9.81 17.34-8.98 8.28 2.96-10.85-6.17-27.21-17.94-17.08-5.68 8.85-2.01 20.2-3.06 30.25.14 18.39-.28 36.8.21 55.17 6.18 17.98 25.58 3.25 20.79-10.43.56-4.07-1.64-19.98 2.3-9.64 5.2 8.88 7.9 19.64 15.18 26.97 15.19 7.25 19.43-13.09 10.76-22.1l-15.39-30.86zm307.75-41.29c-.61-13.01-15-10.57-24-10.65-9.18.94-19.5-2.39-27.62 2.84-5.44 9.17-2.02 20.7-2.98 31.02.14 24.35-.27 48.72.2 73.06 3.94 12.18 18.17 6.95 27.74 8.08 9.27-.9 22.94 3.7 26.48-8.37 2-13.51-13.54-13.27-22.79-12.63-7.22.92-13.26.66-10.63-8.27V217c8.83-.7 21.83 3.3 25-8.37 2-13.51-13.54-13.27-22.79-12.63-5.07-1.18-.8-11.7-2.21-16.55-.78-7.1 10.8-1.84 15.51-3.45 7.57.52 18.06.29 18.09-10.35zM399.56 155c-10.43.73-21.42-1.67-31.4 1.64-8.63 6.27-3.97 17.97-5.16 27.04.14 26.08-.28 52.2.21 78.26 6.16 17.96 25.58 3.28 20.79-10.41V228c13.04.22 28.75 1.5 36.73-11.36 8.4-12.35 7.3-28.89 4.11-42.74-3.74-10.54-13.78-19.05-25.28-18.9zm6.44 41.64c.79 12.84-12.57 10.32-20.92 10.36-2.63-3.59-.28-12.16-1.08-17.58.79-5.76-3.2-16.29 6.2-13.42 9.47-2.48 18.1 3.95 15.8 14.26v6.38zM466.93 155c-13.96-1.75-29.3 4.46-33.75 18.9-4.07 16.77-1.4 34.36-2.17 51.52-.88 15.62.5 34.74 16.82 42.15 15 5.55 36.28 3.04 42.95-13.84 5.68-15.67 2.32-32.74 3.23-49.1.07-16.2 2.12-36.28-14.09-45.93a24.6 24.6 0 0 0-12.99-3.7zm6.07 83.75c2.24 14.12-22.95 14.05-20.99.01.36-18.9-.75-37.9.61-56.71 3.69-11.25 24.17-6.78 20.39 6.14 0 16.85.01 33.73-.01 50.56zm-276.9 25.17c-.1-18.54-23.74-30.5-38.61-19.31-15.42 9.31-13.98 34.62 2.24 42.32 16.3 9.23 37.67-4.44 36.37-23.01zm-21.26 1.84c-2.07 7.46-11.72-1.74-4.33-4.14 2.41-.65 4.86 1.7 4.33 4.14zM22.6 256.14h467.15"/></svg>