<svg xmlns="http://www.w3.org/2000/svg" width="512" height="512"><path d="M226.5 262.88c-1.08-44.6-34.11-85.99-77.48-96.63-42.8-11.97-91.83 7.49-114.69 45.63-23.74 36.78-20.04 88.28 8.46 121.46 27.13 33.42 76.01 46.62 116.14 30.86 41.3-14.78 69.9-57.6 67.57-101.32zm-19.82 8.4c-1.38 38.76-32.89 73.6-71.35 78.75-37.95 6.51-78.2-16.8-91.37-52.98-14.59-35.93-.02-80.57 32.96-100.97 31.62-21.19 77.21-16.77 104.13 10.16a84.48 84.48 0 0 1 25.63 65.04zM328.1 161c21.03-5.9 2.81-25.24-11.62-20-10.34.41-20.87-.9-31.07.81-8.96 6.88-4.2 19.5-5.41 29.32v89.57c.55 13.74 15.79 9.71 24.96 10.3 10.01-.96 21.24 2.46 30.11-2.95 10.35-14.96-9.8-18.93-20.7-17.05-4.96-1.58-16.93 3.87-15.37-4.22V210c9.58-1.22 22.14 3.65 28.47-5.71 4.15-15.32-14.2-13.5-23.88-13.29-8.48 2.03-3.08-9.82-4.59-14.76 1.58-4.9-3.88-16.85 4.22-15.24h24.88zm58.43-20c-10.98.43-22.15-.93-32.98.81-9.15 6.78-4.33 19.48-5.55 29.32v89.57c5.65 21.14 24.12 2.45 19-11.6V221c14.78-.16 32.86 2.63 42.25-11.95 9.24-13.55 7.72-31.73 4.42-46.93-3.99-11.42-14.54-21.22-27.14-21.12zm9.47 46.65c1.42 13-11.12 15.97-21.07 14.35-9.43 2.93-8.35-4.67-7.93-11.6V161c8.17 1.02 17.74-2.42 24.77 2.55 6.02 6.61 3.79 16 4.23 24.1zM464.44 141c-13.2-1.28-27.9 2.39-34.31 15.27-8.46 16.35-4 35.27-5.13 52.95.74 19.13-4.21 42.27 13.18 55.79 10.48 7.96 25.74 7.43 37.56 3.23 17.68-9.11 17.9-30.42 17.26-47.73-.53-18.4 1.23-36.99-1.25-55.23-2.9-12.61-13.6-24.47-27.31-24.28zm9.56 95.33c1.58 13.4-12.69 17.55-22.73 13.58-9.99-8.63-5.08-23.09-6.27-34.67.45-15.2-.99-30.57.88-45.63 2.38-10.6 19.23-11.65 25.25-4.27 5.28 12.03 1.92 25.77 2.87 38.6v32.39zm-325.16 29.39c.01-19.16-23.83-32.12-39.8-21.4-7.92 4.42-12.57 13.37-12.44 22.16-1.73 18.25 20.33 32.49 36.65 24.29 9.73-4.23 16-14.62 15.59-25.05zm-19.9 2.37c-1.32 8.24-14.73 5.51-12.74-2.59 1.77-8.3 14.37-5.75 12.74 2.59zM22.6 256.14h467.15"/></svg>