<svg xmlns="http://www.w3.org/2000/svg" width="512" height="512"><path d="M169.5 352.88c16.9.03 17.49-18.41 16.5-30.86V262c15.8-.66 31.94 1.43 47.49-1.26 19.67-8.39 5.86-36.58-12.99-30.74H186v-38c15.8-.66 31.94 1.43 47.49-1.26 19.67-8.39 5.86-36.58-12.99-30.74-19 .62-38.3-1.33-57.1 1.12-15.7 6.36-8.93 25.25-10.4 38.3.23 46.89-.46 93.82.35 140.67 1.53 7.36 8.68 12.88 16.15 12.79zm129.62-.88c19.78 1.68 41.9-3.21 52-22.33 12.54-22.41 6.4-48.76 7.88-73.27-1.27-23.32 3.7-47.78-5.58-69.86-8.69-20.47-31.26-28.8-52.06-26.54-30.96-1.78-51.03 30.98-47.36 59.17.5 30.72-1.06 61.54.93 92.17 3.43 21.37 21.61 40.9 44.19 40.66zM286 211.08c-2-18.64 18.57-22.17 32-17.75 12.84 11.08 6.44 29.82 8 44.73-.6 23.58 1.29 47.38-1.1 70.8-3.44 14.6-25.69 14.14-34.6 6-7.66-14.5-3.02-31.8-4.3-47.67v-56.11zM477.98 17H33.02c-16.8.06-16.84 18.6-16.02 30.86v430.12c.06 16.8 18.6 16.84 30.86 16.02h430.12c16.8-.06 16.84-18.6 16.02-30.86V33.02c.2-8.6-7.42-16.22-16.02-16.02zM463 463H49V49h414v414zM22.6 256.14h467.15"/></svg>