<svg xmlns="http://www.w3.org/2000/svg" width="512" height="512"><path d="M481.8 242H383c-.2-52.7.4-105.44-.3-158.11C378.3 68.54 360.3 74 348.43 73c-106.98.18-214-.37-320.96.28-14.73 4-9.52 21.33-10.47 32.62.17 107.4-.34 214.83.26 322.21 3.44 15.13 20.94 10 32.2 10.89 107.4-.18 214.84.37 322.22-.28 15.37-3.53 10.57-21.12 11.32-32.62V270h85c.18 33.88-.36 67.79.27 101.64 3.65 18.85 31.95 9.97 26.73-7.58-.17-36.94.34-73.92-.26-110.85-1.03-6.14-6.57-11.35-12.94-11.21zM356 412H44V100h312v312z"/></svg>