<svg xmlns="http://www.w3.org/2000/svg" width="512" height="512"><path d="M495.82 348.1c.42-61.2.06-122.63.18-183.92-.46-6.2-5.59-10.6-11.48-11.68-11.69-1.17-25.3-.17-37.73-.5H27.54c-4.4 2.02-11.08 4.74-11.13 11.12-.93 35.75-.13 71.88-.4 107.78.28 26.1-.55 52.43.41 78.41.8 7.26 8.87 10.52 14.34 10.71H484.4c4.26-1.64 10.88-4.54 11.17-10.68-.1-.15.7-1.26.25-1.24zM426.5 175L256 243.53 85.5 175h341zM39 180.76L226.18 256 39 331.24V180.76zM85.5 337L256 268.47 426.5 337h-341zm387.5-5.76L285.82 256 473 180.76v150.48z"/></svg>