<svg xmlns="http://www.w3.org/2000/svg" width="512" height="512"><path d="M307.52 135.34c-17.56-2.22-19.9 18.5-26.98 29.9l-32.97 68.62-43.53-90.64c-15.07-21.5-32.1 4.08-27.03 21.21.2 66.73-.4 133.5.3 200.2 4.1 20.2 34.38 10.45 28.7-8.35V213.3c10.48 21.18 19.65 43.1 30.97 63.81 14.61 14.17 26.08-5.54 30.4-18.13L289 213.3c.21 50.44-.42 100.92.32 151.33 4.44 20.04 35.15 10.7 29.68-8.35V149.5c.1-6.66-5.01-12.79-11.48-14.16zm187.96 112.84c-2.61-62.2-29.12-123.5-74.8-166.2-59.5-57.66-150.05-79.96-229.6-57.03-79.1 21.48-144.32 86.45-165.96 165.52C.78 273.1 26.13 367.7 88.4 427.2c42.97 42.23 102.4 67.1 162.65 67.97 13.8 1.47 28.57-1.36 42.69-3.03 82.63-12.57 155.9-71.93 185.32-150.16 11.55-29.65 16.77-61.9 16.44-93.4l-.03-.43zm-29.37 12.5c-1.1 78.42-50.24 153.57-121.74 185.87-71.15 34.08-160.89 22.86-221.56-27.53-60.99-48.55-90.36-132.65-72.8-208.6 16.07-77.25 79.4-141.86 156.3-159.48 76.02-19.19 161.23 8.97 210.84 69.69 32.63 38.74 50.2 89.46 48.96 140.05z"/></svg>