<svg xmlns="http://www.w3.org/2000/svg" width="512" height="512"><path d="M483.57 198c-31.15.17-62.34-.35-93.47.26-12.78 3.86-8.27 19-9.1 29.03-1.17 5.06 2.43 14.88-1.98 16.71H268c-.26-9.17 2.5-22.86-9.55-25.55-13.12-2.52-15.76 12.1-14.45 21.83 1.1 7.28-10.13 2.23-14.81 3.72H40c-.26-9.17 2.5-22.86-9.55-25.55-13.12-2.52-15.76 12.1-14.45 21.83.52 15.33-1.1 30.92.93 46.07 6.2 14.94 27.48 4.51 23.07-9.69-2.18-8.36 2.39-9.97 9.88-8.66H244c.26 9.17-2.5 22.87 9.55 25.55 13.13 2.52 15.76-12.1 14.45-21.83-1.1-7.28 10.13-2.23 14.81-3.72H381c.45 12.75-.97 25.7.86 38.3 4.8 11.56 18.75 6.64 28.45 7.7 25.24-.17 50.51.35 75.73-.26 13.08-3.18 9.48-18.08 9.96-28.04-.17-25.89.34-51.81-.26-77.68-1.13-5.6-6.41-10.08-12.17-10.02zM472 290h-67v-68h67v68z"/></svg>