<svg xmlns="http://www.w3.org/2000/svg" width="512" height="512"><path d="M389.5 354.27c14.71.03 15.36-16.09 14.5-26.97-.2-52.64.4-105.31-.3-157.93-3.75-19.6-33.77-11.09-28.7 7.47.2 55.27-.4 110.59.3 165.84a14.6 14.6 0 0 0 14.2 11.59zm-89 0c14.7.02 15.36-16.09 14.5-26.97-.2-52.64.4-105.31-.3-157.93-3.75-19.6-33.77-11.09-28.7 7.47.2 55.27-.4 110.59.3 165.84a14.6 14.6 0 0 0 14.2 11.59zm-89.5 0c14.8.11 16.02-15.9 15-26.97-.21-52.64.42-105.32-.32-157.93-4.1-19.48-34.52-11.32-29.68 7.47.2 55.27-.42 110.6.32 165.84 1.4 6.69 7.92 11.64 14.68 11.59zm-88.5 0c14.71.03 15.36-16.09 14.5-26.97-.2-52.64.4-105.31-.3-157.93-3.75-19.6-33.77-11.09-28.7 7.47.2 55.27-.4 110.59.3 165.84a14.58 14.58 0 0 0 14.2 11.59zM479.5 102h-447c-14.7.08-15.35 16.23-14.5 27.15.2 89.7-.4 179.43.3 269.1 3.43 15.3 20.8 11.23 32.34 11.75H479.5c14.7-.08 15.35-16.23 14.5-27.15-.2-89.7.4-179.43-.3-269.1-1.25-6.6-7.44-11.86-14.2-11.75zM465 381H47V131h418v250z"/></svg>