<svg xmlns="http://www.w3.org/2000/svg" width="512" height="512"><path d="M447.94 295.08c-1.62-66.62-40.56-130.75-99.27-162.43a192.05 192.05 0 0 0-79.65-23.44c-.18-26.5.35-53.02-.26-79.5-3.73-18.03-30.81-9.33-25.74 7.5v72.06c-69.6 4.05-134.63 49.48-162.36 113.45-23.88 52.79-21.77 116.37 5.53 167.47-14.78 28.21-22.78 60.22-21.94 92.09 3.8 18.02 30.71 9.34 25.85-7.5.61-19.93 4.87-40.64 12.68-58.48 36.4 48.9 97.8 78.84 158.57 75.96 57.46-.57 113.66-30.06 147.92-76.1 8.87 20.8 12.54 43.44 12.93 65.95 4.18 17.87 30.78 8.67 25.62-7.78a191.89 191.89 0 0 0-22.09-84.09c15.47-29.12 22.97-62.25 22.21-95.16zm-53.8 97.63c-34.95 53.88-103.12 83.21-166.27 71.58-45.4-7.57-87-35.16-111.59-74.08 33.58-53.82 99.94-84.39 162.66-74.9 47.42 6.3 91.28 34.47 116.86 74.87-.56.84-1.09 1.7-1.66 2.53zm27.72-86.44a165.66 165.66 0 0 1-12.54 57.94c-41.42-56.2-115.17-85.85-183.95-73.99-48.4 7.63-93.26 34.79-122.59 74.02-25.32-58.67-11.93-131.18 32.36-177.17 43.75-47.7 116.64-65.09 177.24-42.37 61.95 21.42 107.16 82.77 109.38 148.28.26 4.42.2 8.88.1 13.29z"/></svg>