<svg xmlns="http://www.w3.org/2000/svg" width="512" height="512"><path d="M479.35 17H32.65C15.99 17.01 16.27 35.47 17 47.52v431.83c.01 16.66 18.47 16.38 30.52 15.65h431.83c16.66-.01 16.38-18.47 15.65-30.52V32.65c.24-8.45-7.2-15.89-15.65-15.65zM54.83 356.3c-4.63 9.22-8.5 15.32-6.83 1.03V48h192v192.72C163.87 245.54 92.6 290 54.83 356.3zm.8 107.7c2.23-75.2 51.09-146.26 120.34-175.54 68.02-30.41 152.38-18.23 208.94 30.3 42.71 35.59 69.39 89.6 71.41 145.19-133.55.03-267.23-.07-400.69.05zM464 368.2c-29.93-58.44-84.64-103.9-148.48-120.26a232.22 232.22 0 0 0-32.99-6.26l51.65-89.47c12.63 6.25 23.9 16.2 37.7 19.32 22.57-1.14 17.98-30.34-.26-34.3-14.02-7.2-26.84-17.4-41.76-22.42-16.33-.54-19.4 18.38-27.26 28.93L272 196.88V48h192v320.2z"/></svg>