<svg xmlns="http://www.w3.org/2000/svg" width="512" height="512"><path d="M493.82 466.26c-1.7-82.94-50.58-162.74-123.76-201.84a238.53 238.53 0 0 0-93.08-28.25c-.29-67.18.57-134.41-.43-201.55-5.14-27.21-47.87-16.75-41.57 9.56V236.2c-82.81 6.66-159.72 60.28-194.3 135.87C25.5 404.8 17 441.17 18.59 477.33c5.04 27.1 47.12 16.48 41.09-9.53 1.14-74.22 48.67-145.02 116.86-174.28 66.84-30.48 150.13-18.63 205.88 29.17 44.08 36.66 70.49 93.42 70.09 150.76-.69 28.67 46.23 25.02 41.4-3.2 0-1.24-.03-2.95-.09-3.99z"/></svg>