<svg xmlns="http://www.w3.org/2000/svg" width="512" height="512"><path d="M322.63 432.03c-1.73-52.96-40.87-101.85-92.2-115.03-50.52-14.7-108.6 7-137.33 51.02a126 126 0 0 0-21.36 69.75c5.3 24.44 29.43 6.33 24.88-10.92 4.31-46.76 45.08-86.48 91.9-89.7 46.26-4.81 92.89 26.62 105.63 71.37 3.99 11.1 3.6 23.04 5.47 34.46 8.52 15.27 26.72 4.08 23.01-10.95zM489.7 102.6c-22.64-13.06-45.25-26.15-67.9-39.18-14.72-6.7-19.57 11.27-25.72 20.5-37.58 65.04-75.13 130.14-112.7 195.21A179.72 179.72 0 0 0 209 257.68V100.73c-6.68-25.5-30.28-3.85-24 13.58V257.7c-66.55 3.82-128.6 47.93-154.06 109.54-9.83 22.28-13.83 46.82-14.94 70.82 6.46 24.73 29.97 5.18 25.22-12.28C45.37 363.21 91 306.2 151.15 288.46c60.05-19.41 130.35 2.5 168.87 52.46a156.94 156.94 0 0 1 33.78 97.19c5 23.76 30.39 6.28 23.9-10.78-2.93-53.06-30.7-104.14-73.85-135.2l94.63-163.92c20.16 11.32 39.83 23.64 60.3 34.32 22.54 2 14.8-25.16-1.54-28.38l-46.64-26.93c4.51-4.1 6.17-18.85 12.86-14.85 19.09 10.7 37.7 22.38 57.09 32.46 13.24 3.75 21.36-15.33 9.15-22.23z"/></svg>