<svg xmlns="http://www.w3.org/2000/svg" width="512" height="512"><path d="M170.35 265.82c1.32 29.5 27.3 55.03 56.8 55.97 9.87.59 19.92-1.64 28.86-5.86 27.25 13.95 63.67 2.25 78.07-24.68 15.44-26.18 6.63-63.1-19.13-79.33-17.12-11.63-40.41-13.3-59-4.19-26.85-13.6-62.67-2.77-77.43 23.49-6.16 10.3-9.2 22.67-8.17 34.6zm104.45-46.78c24.71-4.81 50.13 15.93 50.39 41.1 1.74 24.92-21.55 47.6-46.43 45.07-9.04.84-4.3-3.26-.59-7.44 17.76-22.82 15.18-58.2-5.69-78.22.74-.23 1.62-.22 2.32-.51zm-34.22 29.35A43.48 43.48 0 0 1 256 227c21 14.57 23.48 48.02 4.86 65.53-4.02 7.18-9.13 1.46-12.56-3.04a43.46 43.46 0 0 1-7.72-41.1zm-53.74 10.9c.74-25.15 26.55-45.43 51.16-40.13 2.3 1.6-5.67 6.84-6.73 10.49-15.02 22.82-11.5 55.6 8.21 74.58-24.78 6.3-51.64-13.8-52.64-39.35-.11-1.86-.1-3.72 0-5.59zM485.27 248h-50.33c-3.2-33.32-31.66-61.74-64.94-65.05 2.58-11.58-9.57-14.36-18.56-12.95H150.45c-11.87.23-3.9 16.38-16 14.26-30.13 6.2-54.31 33.12-57.34 63.72-17.85.42-35.87-.87-53.6.69-13.99 10.97 4.73 19.28 15.35 16.31h38.2c3.45 33.16 31.75 61.48 64.96 64.74-2.33 11.3 9.96 13.51 18.56 12.26h200.99c11.4-.25 4.14-15.77 16.02-13.56 30.03-6.23 54.11-32.98 57.34-63.45 17.84-.42 35.86.87 53.57-.69 8.17-3.42 5.69-16.4-3.23-16.28zM142 313.06c-30.17-3.76-53.29-34.59-48.27-64.6 3.02-24.6 23.73-45.5 48.28-48.85 0 37.82.01 75.64-.01 113.45zM353 326H159V186h194v140zm65.8-66.66c-.93 26.53-22.51 50.24-48.81 53.76V199.63c28.58 3.75 50.8 31.11 48.81 59.71z"/></svg>