<svg xmlns="http://www.w3.org/2000/svg" width="512" height="512"><path d="M294.95 334.9c13.93-30.79-19.54-73.15-52.93-58.66-22.47 4.22-42.1 56.38-6.86 48.49 3.56-16.13 25.8-37.7 34.98-12.36 5.12 12.9-6.58 23.97-10.3 35.76-15.13 33.16-31.28 65.92-45.75 99.33-2.17 17.22 17.46 16.1 29.06 15.54 15.65-.57 31.53 1.21 47.02-1.01 21.31-15.1-5.14-29.6-21.25-24.99-5.63-1.8-23.15 3.99-19.62-3.66 15.2-32.82 30.54-65.59 45.65-98.44zm198.6 138.5c-1.8-80.8-48.23-158.64-118.49-198.58A237.18 237.18 0 0 0 269 243.23V31.5c-7.3-27.67-32.82-4.1-26 14.8v196.93c-81.14 3.8-158.14 52.68-196.13 124.48C27.95 402.16 18.92 441.52 18 480.54c6.85 26.77 32.58 5.64 27.06-13.28 4.13-76.66 53.71-148.52 124.01-179.42 70.47-32.67 158.4-21.69 218.65 27.32 49.95 39.3 80.12 102.12 79.66 165.66 3.82 23.22 30.98 12.66 26.17-7.42z"/></svg>