<svg xmlns="http://www.w3.org/2000/svg" width="512" height="512"><path d="M318.85 433.82c-1.68-50.83-38.57-97.84-87.53-111.59-49.73-15.47-107.9 5.28-136.2 49.1-13.8 20.8-22.15 46.23-20.3 71.27 11.33 14.04 17.53-5.57 16.17-15.73 4.96-47.75 45.96-88.45 93.76-92.95 48.05-6.28 97.5 24.96 112.46 71.05 4.71 12.1 5.19 25.2 6.53 37.88 6.95 11.12 18.05 1.1 15.11-9.03zM489.45 105c-23.88-13.33-47.09-28.15-71.4-40.53-10.19.07-11.67 13.36-17.12 19.77L343.1 184H197c-.27 25.87.53 52.8-.4 78-67.34-1.72-132.88 40.48-160.95 101.49-11 23.67-17.66 50.06-16.64 76.12 6.04 18.09 19.61.25 15.97-11.38 3.59-62.65 47.35-120.51 106.63-141.1 59.18-22.23 130.38-5.2 173.11 41.39 28.15 29.7 44.25 70.4 44.02 111.32 5.51 18.06 20.55.95 15.69-10.74-2.78-53.63-31.6-105.06-75.79-135.53l77.53-134.28 61.46 35.5c21.53 2.07 7.49-18.7-4.7-21.17l-48.77-28.17 13.93-24.15 61.48 35.5c21.53 2.08 7.51-18.74-4.69-21.2l-48.79-28.15 13.96-24.18 61.47 35.5c9.27 5.32 17.01-8.9 7.93-13.77z"/></svg>