<svg xmlns="http://www.w3.org/2000/svg" width="512" height="512"><path d="M420.5 473.46c-2.35-65-47.18-125.75-108.64-147.05-61.16-22.94-134.8-4.45-177.93 44.57-27.2 29.77-42.45 69.9-42.46 110.17 6.37 26.78 31.9 6.02 26.86-12.75 4.57-59.54 52.18-112.19 110.92-122.82 57.94-12.44 121.42 17.6 148.73 70.15 10.93 20.15 16.52 43.04 16.55 65.94 3.83 23.43 31.84 10.87 25.97-8.21zm73.9.74c-1.8-83.02-50.7-162.96-123.96-202.12a236.88 236.88 0 0 0-101.43-28.87V30.62c-7.34-27.64-32.82-4.04-26 14.84v197.76c-82.91 3.84-161.5 54.74-198.84 128.88-17.13 33.57-27.04 71.55-26.09 109.22 6.59 26.82 31.98 5.35 26.25-13.32 4.1-78.35 55.78-151.59 128.19-181.78 72.13-31.8 161.3-18.4 220.9 33.18 47.07 39.53 75.3 100.33 74.94 161.82 3.47 22.34 31.2 12.42 26.04-7.02z"/></svg>