<svg xmlns="http://www.w3.org/2000/svg" width="512" height="512"><path d="M488.05 103.65c-22.46-12.92-44.82-26.16-67.35-38.88-14.72-6.81-19.87 11.05-25.96 20.4L282.96 278.74c-58.85-32.63-135.86-27.78-190.11 12.05C46.39 323.65 17.65 379.7 18 436.6c6.25 24.84 29.71 5.23 24.87-12.17 4.1-63.2 51.1-120.6 112.26-137.04 59.58-17.77 128.36 5.06 165.48 54.93a155.41 155.41 0 0 1 31.97 94.07c4.9 23.13 30.48 6.5 24.04-10.49-2.86-52.6-30.4-103.25-73.1-134.13L418.87 92c19.97 11.2 39.45 23.4 59.73 33.99 13.24 3.77 21.8-15.3 9.45-22.34z"/></svg>