<svg xmlns="http://www.w3.org/2000/svg" width="512" height="512"><path d="M218.88 404h-27.3c12.2-26.9 25.72-53.46 37.08-80.58 5.37-23.96-21.14-51.24-44.79-38.18-19.62 4.46-25.61 49.95.66 33.49.68-25.25 32.76-12.5 21.36 5.8-13.53 29.58-27.84 58.85-40.88 88.63-1.39 14.43 15.5 11.8 24.92 11.85 10.98-.44 22.14.95 32.98-.83 10.35-4.22 7.07-20.33-4.03-20.18zM488.7 104.06L420.87 64.9c-13.57-5.8-17.48 11.39-23.4 19.72L283.85 281.44a179.38 179.38 0 0 0-81.01-22.37c-9.12-2.4-19.37 1.1-29.02 1.43-66.87 8-126.48 57.26-146.8 121.5-5.95 19.3-10.43 39.9-8.23 60.1 12.82 17.16 23.06-4.73 20.58-17.63 4.62-63.23 51.26-120.52 112.2-137.95 60.83-19.21 131.8 3.46 170.32 54.3a158.24 158.24 0 0 1 33.44 97.11c5.2 20.86 26.33 4.19 20.5-10.55-2.9-53.1-31-104.1-74.41-134.83L419.48 88.14c20.5 11.56 40.58 24 61.36 35 11.32 3.24 18.44-13.2 7.86-19.08z"/></svg>