<svg xmlns="http://www.w3.org/2000/svg" width="512" height="512"><path d="M298.33 318.68c.65-27.98-28.29-56.13-56.41-43.95-19.14 5.82-41.87 44.74-13.39 51.72 16.1-1.2 20.66-44.26 38.98-17.76 7.82 12.92-4.83 24.62-8.62 36.56-14.87 32.63-30.8 64.85-45 97.74-2.24 17.76 18.06 16.57 30.05 16.03 15.25-.6 30.83 1.3 45.86-1.1 20.73-12.05-.86-32.46-17.67-26.9-6.08-1.5-21.79 3.11-21.48-2.47 15.4-34.17 32.66-67.63 46.85-102.28.56-2.49.83-5.04.83-7.59zM483.04 16c-151.96.19-303.96-.38-455.9.28C10.67 21.38 17.4 40.3 16 53.08c.19 144.26-.38 288.54.28 432.77 5.1 16.49 24.01 9.75 36.8 11.15 144.26-.19 288.54.38 432.77-.28 16.49-5.1 9.75-24.01 11.15-36.8-.19-144.25.38-288.54-.28-432.76-1.2-6.37-7.27-11.25-13.68-11.16zM50.34 365.03c-3.87 5.74-7.84 20.95-6.34 5.9V44h198v198c-56.84 4.34-112.5 28.6-152.37 69.82-15.59 15.7-28.73 33.83-39.29 53.21zM51 468c1.09-81.8 57.74-158.62 134.69-185.62 72.56-27.36 159.61-8.46 214.29 46.54 37.17 36.3 59.58 87.14 61.33 139.07-136.77 0-273.56-.01-410.31.01zm417-88.9c-28.92-67.83-93.99-118.34-166.17-132.46-7.4-1.5-14.87-2.63-22.38-3.38l55.05-95.35c13.1 6.51 24.85 16.67 39 20.38 22.47-2.39 12.81-28.54-3.6-32.16-13.02-6.82-25.06-15.97-38.78-21.14-15.6-.15-18.33 17.92-26.04 28.1-11.7 20.26-23.39 40.54-35.08 60.81V44h198v335.1z"/></svg>