<?xml version="1.0" encoding="UTF-8" standalone="no"?>
<svg
   xmlns:dc="http://purl.org/dc/elements/1.1/"
   xmlns:cc="http://creativecommons.org/ns#"
   xmlns:rdf="http://www.w3.org/1999/02/22-rdf-syntax-ns#"
   xmlns:svg="http://www.w3.org/2000/svg"
   xmlns="http://www.w3.org/2000/svg"
   xmlns:sodipodi="http://sodipodi.sourceforge.net/DTD/sodipodi-0.dtd"
   xmlns:inkscape="http://www.inkscape.org/namespaces/inkscape"
   width="512"
   height="512"
   viewBox="0 0 512 512"
   version="1.1"
   id="svg10"
   sodipodi:docname="fire hose reel existing - Copy.svg"
   inkscape:version="0.92.1 r15371">
  <metadata
     id="metadata16">
    <rdf:RDF>
      <cc:Work
         rdf:about="">
        <dc:format>image/svg+xml</dc:format>
        <dc:type
           rdf:resource="http://purl.org/dc/dcmitype/StillImage" />
      </cc:Work>
    </rdf:RDF>
  </metadata>
  <defs
     id="defs14" />
  <sodipodi:namedview
     pagecolor="#ffffff"
     bordercolor="#666666"
     borderopacity="1"
     objecttolerance="10"
     gridtolerance="10"
     guidetolerance="10"
     inkscape:pageopacity="0"
     inkscape:pageshadow="2"
     inkscape:window-width="640"
     inkscape:window-height="493"
     id="namedview12"
     showgrid="false"
     inkscape:zoom="0.4609375"
     inkscape:cx="256"
     inkscape:cy="256"
     inkscape:window-x="0"
     inkscape:window-y="0"
     inkscape:window-maximized="0"
     inkscape:current-layer="svg10" />
  <path
     id="path8"
     d="m 202.16,224.95 c 6.23111,-4.62952 11.6738,-10.74088 19.2575,-12.86625 -4.67584,-3.1517 -11.15044,4.37168 -15.48187,7.41993 -5.28755,8.21717 -9.59029,-1.18942 -14.20757,-4.96723 -5.60516,-4.56415 -9.5778,-11.94538 -16.55931,-14.20145 -12.76159,4.04236 0.75781,14.54774 5.80464,19.51839 2.47618,4.7701 14.00323,8.97164 9.67118,14.16941 -1.53357,2.82932 -12.23013,13.33233 -6.49966,11.45275 4.29439,-2.97015 7.92348,-16.50823 12.83767,-9.63297 7.23303,6.84556 13.75819,14.55782 21.46367,20.82492 7.84102,-0.31443 12.05541,-10.01845 20.20926,-13.03059 7.47729,-2.22753 15.90343,-4.08652 23.7476,-4.13621 9.15311,1.95936 19.17157,1.77632 26.33577,8.65971 6.54116,5.54871 13.34303,13.36888 19.79906,2.54178 5.61069,-5.85073 11.22137,-11.70146 16.83206,-17.55219 5.85061,6.83556 13.30089,12.7442 14.67746,22.17223 2.64676,5.67371 2.91459,13.8491 7.64254,17.69777 -0.71145,-5.54351 -4.33336,-12.03084 -5.7949,-18.07888 -1.38962,-9.8608 -9.07913,-16.09017 -15.2251,-23.19112 7.26309,-8.00037 15.45236,-15.27512 22.12813,-23.73563 -0.0694,-14.74813 -14.09745,-3.11648 -18.2714,3.31376 -8.03225,8.38063 -16.06449,16.76125 -24.09673,25.14187 -7.34564,-5.78234 -14.29495,-12.36609 -23.96127,-13.65562 -6.89661,-3.70933 -14.1455,-1.45251 -3.06764,1.06926 8.26713,1.76265 15.79951,4.94967 21.85934,10.99133 8.81695,4.25112 -5.42316,9.20108 -6.66043,14.90503 -7.07989,-4.76298 -13.78537,-10.50712 -22.79281,-10.50968 -8.44664,-2.72775 -16.91029,-1.67846 -25.35684,0.4173 -8.17033,0.0184 -13.88127,6.13582 -20.45035,10.09238 -0.90993,-5.64273 -16.24785,-10.7825 -7.87931,-14.833 8.16062,-7.55191 18.82135,-9.94258 29.19931,-12.917 -0.70707,-4.06053 -11.40295,2.51581 -15.88894,2.80171 -6.99788,1.79881 -12.01981,7.6554 -18.15106,11.22829 -3.70427,-3.70432 -7.42754,-7.40078 -11.12,-11.11 z M 146.8,24 c 11.06667,0 22.13333,0 33.2,0 0.94167,8.318095 -2.14056,17.885716 2.07625,25.2275 C 194.4982,55.731856 193.47778,38.976266 193,31.307627 189.90908,21.506251 199.3182,24.204922 205.82373,24 214.8855,21.55913 216.32887,26.736669 215,34.686441 c -3.57989,8.642654 6.39759,24.852815 10,9.444915 C 224.66096,35.0015 225.69588,25.691643 224.45094,16.680469 217.13801,11.552754 206.96616,15.033523 198.35576,14.01 180.4438,14.23771 162.46185,13.554601 144.59359,14.351094 138.73713,16.172363 140.96311,24.607466 146.8,24 Z m 0,70 c -14.28667,6.82969 2.91757,15.22752 11.76509,12 20.75401,-0.33111 41.65464,0.66208 62.3171,-0.49594 C 231.5246,95.009642 213.68552,92.387297 205.84627,94 200.10532,93.321577 189.85124,97.156275 193,87.588135 194.30423,82.248585 189.18455,70.485116 198.34322,73 206.37781,72.204623 215.24774,74.746896 222.6725,71.4275 228.75884,59.6596 211.73695,62.045645 204.76763,62 184.72273,62.27904 164.5731,61.442077 144.59359,62.417812 134.01176,72.538026 152.26217,74.343151 159.63373,73 c 6.78876,0 13.57751,0 20.36627,0 0,7 0,14 0,21 -11.06667,0 -22.13333,0 -33.2,0 z m 52,66.6 c 16.06192,0.75041 28.54372,-14.80625 26.2,-30.19051 1.97912,-8.8793 -2.45431,-18.12206 -12.75186,-15.41949 -22.54086,0.22704 -45.15137,-0.45379 -67.64876,0.33969 -10.49256,9.68455 8.10615,10.74331 15.03435,9.66031 5.27588,1.29395 16.94807,-3.80841 14.36627,5.34322 2.87594,8.36531 -4.78623,9.64147 -10.88824,11.96717 -6.94246,3.66551 -15.90814,4.58656 -21.27551,10.43211 -0.88332,13.67147 14.18345,4.33787 21.01508,1.72432 9.161,-4.8853 16.53538,-7.79274 23.04117,2.84943 3.92843,2.17814 8.47558,3.2659 12.9075,3.29375 z M 184,125 c 10.33333,0 20.66667,0 31,0 0.91097,9.76804 0.15844,22.88018 -12.58879,23.99039 C 188.25304,152.03691 181.62278,137.95978 184,126.25356 v -1.06865 z m 182.22,285 c -20.89605,0.32028 -41.93123,-0.6434 -62.73953,0.48672 -6.34541,5.39506 -2.36186,15.11987 -3.48047,22.56159 -3.87523,13.03163 14.68352,13.91146 11,0.24847 0.73174,-5.83781 -3.21467,-16.35377 6.41186,-13.29678 4.98068,1.61735 16.75438,-3.55834 16.58814,3.20593 -4.19816,9.48142 8.43444,23.52867 12,8.69543 -0.0965,-6.55714 -2.08906,-15.0103 7.48051,-11.90136 9.59693,-3.14919 5.89905,6.99642 6.51949,12.82373 -4.17082,13.40468 16.75449,14.51385 13,0.47305 -1.28145,-7.56248 3.42672,-18.13861 -4.39594,-22.80881 z m 2.78,74.77 c -7.16,-4.02667 -14.32,-8.05333 -21.48,-12.08 7.64501,-4.63932 15.96919,-8.31123 23.18578,-13.56078 4.20802,-14.13335 -12.59688,-7.06192 -18.45122,-2.11973 -5.742,2.49433 -11.48378,7.91508 -17.22593,8.64653 -9.61616,-5.07634 -18.76261,-11.23197 -28.68035,-15.61539 -14.2951,3.68985 0.47077,14.41538 7.73718,16.84882 5.80274,3.15989 14.84647,6.32151 3.80163,9.47248 -5.8336,4.64977 -16.44608,5.78662 -17.82756,13.9951 4.78898,10.89003 15.39983,-0.86463 22.39194,-3.56503 5.74154,-1.65787 11.48254,-10.30824 17.22458,-5.49711 8.92269,4.52238 17.17918,10.68746 26.55395,14.09511 5.76947,0.16606 7.7747,-8.06586 2.77,-10.62 z M 309.97,365.66 c -1.5476,-3.52869 -9.7518,5.41587 -14.35222,5.66908 -7.72535,4.10329 -15.70682,7.22336 -24.60255,6.83368 -3.21072,-0.15502 -17.40132,1.73745 -7.44556,1.63691 10.13077,-0.98718 20.66769,0.42855 29.53109,-5.43262 5.7784,-2.64986 11.78482,-4.84044 16.86924,-8.70705 z m 38.3,-67.22 c -3.08566,12.99221 -6.76471,26.18516 -12.02483,38.31646 -2.93587,2.07079 -13.29672,13.77372 -4.93063,7.60421 5.46687,-4.32688 9.19437,-9.77081 10.46289,-16.69291 3.40885,-9.40342 6.09649,-19.01755 8.35257,-28.75776 0.28397,-1.4504 -1.70793,-1.51647 -1.86,-0.47 z M 247.18,205.03 c 12.02899,-2.8132 24.51851,-1.35049 36.48659,0.47638 4.28048,0.95446 13.55733,9.2594 14.87341,5.30362 -8.31564,-4.24025 -16.40938,-9.33885 -26.13985,-8.53361 -8.72018,-1.24898 -17.64179,-1.04872 -26.1089,1.25861 -0.56326,0.6512 0.19304,1.561 0.88875,1.495 z m -73.8,66.21 c -2.76032,5.49343 -1.65285,13.50148 -2.93,19.95 1.60884,11.05049 -0.30973,23.6528 6.63,33 1.46629,-4.74405 -4.75105,-11.01112 -3.39192,-16.98892 -1.80522,-11.66234 -1.04396,-23.30489 0.54192,-34.94108 0.23677,-0.14912 -0.51065,-1.3786 -0.85,-1.02 z m 72.06,88.96 c -9.81986,-2.96324 -19.60252,-6.00038 -27.39888,-12.98353 -7.83742,-4.13271 6.78591,-9.06555 7.94888,-14.78647 7.07635,4.76052 13.78077,10.49499 22.7815,10.50688 7.76259,2.3241 15.52265,2.15781 23.24296,-0.24397 8.70327,-0.39815 15.17039,-6.58617 22.51554,-10.48291 1.18058,5.95426 16.02256,11.07351 6.36162,15.42953 -7.31263,7.86117 -17.83341,9.50574 -27.63162,12.55047 0.85086,4.07769 11.36784,-2.52546 15.89587,-2.77863 6.89489,-1.69308 11.42279,-7.96015 17.27413,-11.66137 11.72184,11.79616 22.66293,24.5057 34.88,35.7225 14.68636,0.45393 3.65039,-13.97664 -2.57192,-18.42193 -12.25306,-12.37258 -23.75061,-25.62769 -36.48589,-37.43698 -7.75195,0.23629 -12.40771,9.48936 -20.66116,12.14379 -6.74356,3.40202 -14.96227,4.04162 -22.34258,5.14227 -9.46392,-2.12131 -19.94113,-1.73271 -27.38914,-8.84735 -6.51863,-5.45013 -13.22485,-13.28272 -19.79419,-2.69943 -6.00504,6.00237 -12.01008,12.00475 -18.01512,18.00713 -8.49996,-9.51747 1.93939,2.43839 -5.12911,5.11735 -6.22466,6.6265 -13.35083,12.51829 -18.98839,19.62327 -0.26809,14.76021 14.02921,3.43698 18.33315,-2.91046 4.78847,-2.95157 9.18424,-12.97857 14.23329,-11.23501 7.07181,6.35234 14.6751,11.80782 23.96106,14.35879 8.31361,4.93163 10.11895,0.56802 0.79452,-1.72213 C 217.47834,369.9314 209.73939,363.77684 202.2,357.28 c 4.88559,-2.66513 8.97852,-14.42231 14.60003,-8.64607 7.3059,6.3418 15.97716,9.98751 25.24823,12.42216 0.98593,0.63838 5.87853,1.98808 3.39174,-0.85609 z M 233.8,267.45 c 8.56976,-4.87598 17.52897,-10.45075 27.51771,-11.00706 8.64923,1.53475 16.16184,5.52802 23.05229,10.86706 2.65821,-2.70548 -8.29091,-7.27876 -11.59723,-9.5546 -6.62596,-1.8668 -13.30562,-5.1455 -19.93978,-1.43058 -7.37396,1.51145 -13.75121,6.01082 -19.93049,9.95643 -0.37484,0.27916 0.50898,1.57583 0.8975,1.16875 z m 10.82,56.59 c 7.97535,1.53225 15.1703,6.71965 23.15073,3.62673 7.77491,-0.10489 12.59366,-7.28266 18.05677,-11.79423 -2.41172,-1.26087 -2.51629,-11.89095 -10.17163,-15.53128 -4.67574,-4.65772 -12.44613,-9.35323 -3.26031,-13.84162 4.46935,-5.46911 18.19811,-12.34003 9.06366,-19.53788 -8.14465,-2.89995 -10.80646,12.20531 -18.45786,6.03828 -6.65557,-1.9911 -13.1455,5.0979 -17.10501,-2.45407 -9.4211,-11.27445 -16.602,6.1304 -5.14683,10.93359 2.74314,4.56023 14.61313,9.23294 6.10028,13.65444 -4.27233,5.79127 -16.30656,10.3861 -11.4998,18.78604 8.06899,8.3759 12.67428,-12.48565 19.26,-3.92 6.80606,1.99943 12.84988,-4.95172 16.91995,2.4675 6.27586,6.94215 14.01881,3.02869 3.23744,10.42485 -4.91063,2.75659 -11.96023,3.46749 -17.5776,2.4101 C 248.52507,324.17685 241.10696,320.234 234.3,314.91 c -4.48319,1.66025 8.71626,7.01716 10.32,9.13 z M 263.85,308 c -5.72775,1.06554 -16.62987,-0.60964 -7.17504,-6.27241 0.61756,-5.43995 11.67139,6.05974 7.17504,6.27241 z m -4.9,-24.1 c -6.31185,-4.37286 -8.90761,-10.71657 1.24322,-8.9 11.56782,-0.84442 2.15348,4.99076 -1.24322,8.9 z" />
</svg>
