<?xml version="1.0" encoding="UTF-8" standalone="no"?>
<svg
   xmlns:dc="http://purl.org/dc/elements/1.1/"
   xmlns:cc="http://creativecommons.org/ns#"
   xmlns:rdf="http://www.w3.org/1999/02/22-rdf-syntax-ns#"
   xmlns:svg="http://www.w3.org/2000/svg"
   xmlns="http://www.w3.org/2000/svg"
   xmlns:sodipodi="http://sodipodi.sourceforge.net/DTD/sodipodi-0.dtd"
   xmlns:inkscape="http://www.inkscape.org/namespaces/inkscape"
   width="512"
   height="512"
   viewBox="0 0 512 512"
   version="1.1"
   id="svg6"
   sodipodi:docname="megnatic flow - Copy.svg"
   inkscape:version="0.92.1 r15371">
  <metadata
     id="metadata12">
    <rdf:RDF>
      <cc:Work
         rdf:about="">
        <dc:format>image/svg+xml</dc:format>
        <dc:type
           rdf:resource="http://purl.org/dc/dcmitype/StillImage" />
      </cc:Work>
    </rdf:RDF>
  </metadata>
  <defs
     id="defs10" />
  <sodipodi:namedview
     pagecolor="#ffffff"
     bordercolor="#666666"
     borderopacity="1"
     objecttolerance="10"
     gridtolerance="10"
     guidetolerance="10"
     inkscape:pageopacity="0"
     inkscape:pageshadow="2"
     inkscape:window-width="638"
     inkscape:window-height="493"
     id="namedview8"
     showgrid="false"
     inkscape:zoom="0.4609375"
     inkscape:cx="256"
     inkscape:cy="256"
     inkscape:window-x="0"
     inkscape:window-y="0"
     inkscape:window-maximized="0"
     inkscape:current-layer="svg6" />
  <path
     id="path4"
     d="m 271.65,296.5 c 1.89235,12.7425 16.87615,7.34907 25.81701,8.5 41.52766,0 83.05533,0 124.58299,0 16.83168,-4.6975 2.36824,-19.25653 -7.86409,-21.54994 C 396.6906,274.38004 379.1953,265.31002 361.7,256.24 c 21.97905,-11.75456 44.68298,-22.38226 66.19984,-34.85531 8.459,-14.10035 -10.5113,-15.77557 -20.04745,-14.38469 -42.71079,0 -85.42159,0 -128.13239,0 -18.83467,7.28201 0.65671,21.65767 13.01447,17 32.07185,0 64.14369,0 96.21553,0 -16.71025,8.86578 -33.84379,17.03337 -50.29187,26.33156 -8.62622,10.82321 8.20755,15.69529 15.51577,19.82111 11.59204,5.94911 23.18407,11.89822 34.7761,17.84733 -36.41,0 -72.82,0 -109.23,0 -4.46591,-0.0394 -8.12252,4.16455 -8.07,8.5 z M 478.43,114 c -86.09739,0.21444 -172.23778,-0.42921 -258.30824,0.32242 -15.98561,3.92844 -11.48274,22.36078 -12.12176,34.58772 0,30.69662 0,61.39324 0,92.08986 -31.33333,0 -62.66667,0 -94,0 0,-42.33333 0,-84.66667 0,-127 17.92091,-0.69334 36.20118,1.47329 53.87031,-1.24844 C 187.19906,104.81302 174.39634,76.522105 155.68433,82 113.61902,82.211551 71.51168,81.574649 29.47293,82.322461 7.9017259,86.302005 16.987934,119.46452 37.452536,114 52.30169,114 67.150845,114 82,114 c 0,94.66667 0,189.33333 0,284 -18.482697,0.67945 -37.318554,-1.45285 -55.550313,1.24844 C 7.1209416,407.18698 19.923657,435.4779 38.63567,430 c 42.065312,-0.21155 84.17265,0.42535 126.2114,-0.32246 21.5712,-3.97954 12.485,-37.14206 -7.97961,-31.67754 -14.28915,0 -28.57831,0 -42.86746,0 0,-41.66667 0,-83.33333 0,-125 31.33333,0 62.66667,0 94,0 0.19447,37.53555 -0.3902,75.10666 0.29451,112.61984 3.0825,15.80858 21.00135,11.9574 32.7925,12.38016 80.19994,-0.20347 160.43802,0.40733 240.61408,-0.30609 15.2414,-2.44846 13.52307,-19.14234 13.29891,-30.67465 0,-79.01642 0,-158.03284 0,-237.04926 0.15982,-8.77079 -7.98236,-16.16595 -16.57,-15.97 z M 463,366 c -74.33333,0 -148.66667,0 -223,0 0,-73.33333 0,-146.66667 0,-220 74.33333,0 148.66667,0 223,0 0,73.33333 0,146.66667 0,220 z" />
</svg>
