<?xml version="1.0" encoding="UTF-8" standalone="no"?>
<svg
   xmlns:dc="http://purl.org/dc/elements/1.1/"
   xmlns:cc="http://creativecommons.org/ns#"
   xmlns:rdf="http://www.w3.org/1999/02/22-rdf-syntax-ns#"
   xmlns:svg="http://www.w3.org/2000/svg"
   xmlns="http://www.w3.org/2000/svg"
   xmlns:sodipodi="http://sodipodi.sourceforge.net/DTD/sodipodi-0.dtd"
   xmlns:inkscape="http://www.inkscape.org/namespaces/inkscape"
   width="512"
   height="512"
   viewBox="0 0 512 512"
   version="1.1"
   id="svg4"
   sodipodi:docname="multi jet controller - Copy.svg"
   inkscape:version="0.92.1 r15371">
  <metadata
     id="metadata10">
    <rdf:RDF>
      <cc:Work
         rdf:about="">
        <dc:format>image/svg+xml</dc:format>
        <dc:type
           rdf:resource="http://purl.org/dc/dcmitype/StillImage" />
      </cc:Work>
    </rdf:RDF>
  </metadata>
  <defs
     id="defs8" />
  <sodipodi:namedview
     pagecolor="#ffffff"
     bordercolor="#666666"
     borderopacity="1"
     objecttolerance="10"
     gridtolerance="10"
     guidetolerance="10"
     inkscape:pageopacity="0"
     inkscape:pageshadow="2"
     inkscape:window-width="640"
     inkscape:window-height="493"
     id="namedview6"
     showgrid="false"
     inkscape:zoom="0.4609375"
     inkscape:cx="256"
     inkscape:cy="256"
     inkscape:window-x="0"
     inkscape:window-y="0"
     inkscape:window-maximized="0"
     inkscape:current-layer="svg4" />
  <path
     id="path2"
     d="m 319.27,233.38 c 14.63307,15.29089 36.04643,-11.79699 18.4308,-23.05273 C 329.7372,202.35151 321.7736,194.37576 313.81,186.4 340.84281,152.95752 341.32616,101.78675 314.9,67.86 324.18264,57.744761 335.40565,49.128531 343.22734,37.879219 350.50234,20.261664 323.99126,10.204056 315.41686,25.840076 308.32457,32.926717 301.23229,40.013359 294.14,47.1 260.21132,20.695974 209.04214,21.154898 175.61,48.2 165.11024,38.580138 156.19472,26.91217 144.54625,18.77125 126.93325,11.47996 116.89239,38.008346 132.50015,46.583064 140.03344,54.122043 147.56672,61.661021 155.1,69.2 c -24.98772,33.486 -24.51921,82.85039 1.1,115.86 -10.09192,10.94068 -22.17489,20.3437 -30.78469,32.43375 -7.2818,17.64043 19.25418,27.64417 27.827,12.02534 7.9059,-7.90303 15.81179,-15.80606 23.71769,-23.70909 33.01731,25.60801 82.36455,26.06881 115.86,1.1 8.80521,8.81855 17.70171,17.67505 26.45,26.47 z m -83.73,-37.26 c -10.92301,-0.27576 -35.51941,-4.05159 -35.34967,-13.5416 11.37989,-11.38613 22.75978,-22.77227 34.13967,-34.1584 12.43333,12.44 24.86667,24.88 37.3,37.32 -10.78799,6.64687 -23.4378,10.39865 -36.09,10.38 z m -1.2,-89.18 c -12.66667,-12.66 -25.33333,-25.32 -38,-37.98 22.37108,-15.771474 54.12557,-16.141595 76.87,-0.92 -12.95667,12.966667 -25.91333,25.933333 -38.87,38.9 z m 7.31,223.56 c 0.21768,13.81224 14.63395,10.0602 23.67099,10.5 37.73634,0 75.47267,0 113.20901,0 14.33363,-7.39973 4.57769,-22.79408 -7.35734,-25.37871 C 354.64844,307.08753 338.12422,298.55376 321.6,290.02 c 20.07333,-10.21 40.14667,-20.42 60.22,-30.63 11.41873,-11.50053 -2.73914,-24.4383 -15.2734,-20.4 -39.1822,0 -78.3644,0 -117.5466,0 -16.40496,8.03019 -1.82917,26.09274 11.9734,21 28.82886,0 57.65773,0 86.4866,0 -15.69879,7.99808 -31.76809,15.3631 -47.23328,23.76031 -7.89464,9.77574 6.19345,15.24155 13.29326,18.67854 11.31667,5.85705 22.63335,11.7141 33.95002,17.57115 -32.82333,0 -65.64667,0 -98.47,0 -4.84367,0.6595 -7.01922,6.2668 -7.35,10.5 z m 34.23,72.5 c 34.21667,0 68.43333,0 102.65,0 16.54606,-7.83727 1.34992,-24.9589 -11.9834,-20 -32.65824,-0.23787 -65.37755,0.49242 -97.99484,-0.39656 -7.50617,-6.82525 4.14721,-23.76575 -9.70254,-27.02766 -15.73121,-4.42591 -12.64668,12.25844 -15.24922,20.39422 0.25458,15.6551 18.9349,31.0511 32.28,27.03 z m 110.94,61.38 c 0.72284,-25.10066 -23.83229,-41.05381 -46.68,-41.38 -18.3519,0.47297 -36.98345,-0.95085 -55.15875,0.72 -20.60376,-1.49326 -50.55133,20.47594 -39.98125,41.27 0.61463,8.23789 -1.29521,16.9339 1.07109,24.85391 12.43297,12.51956 23.69758,-3.42286 19.92891,-15.9167 4.59088,-12.40106 -14.29112,-7.93565 -4.28734,-20.60026 8.85562,-14.77604 26.61641,-9.23714 40.83533,-10.30695 16.98936,0.18691 34.38169,-0.35532 51.03263,0.23559 15.35012,3.56563 19.16958,16.9898 13.40938,27.18141 1.0783,8.15143 -3.83654,20.32591 7.15078,23.31706 14.93488,3.85389 14.64901,-12.20691 13.84922,-21.99565 -0.7026,-2.15678 1.47104,-6.48701 -1.17,-7.37841 z" />
</svg>
