<?xml version="1.0" encoding="UTF-8" standalone="no"?>
<svg
   xmlns:dc="http://purl.org/dc/elements/1.1/"
   xmlns:cc="http://creativecommons.org/ns#"
   xmlns:rdf="http://www.w3.org/1999/02/22-rdf-syntax-ns#"
   xmlns:svg="http://www.w3.org/2000/svg"
   xmlns="http://www.w3.org/2000/svg"
   xmlns:sodipodi="http://sodipodi.sourceforge.net/DTD/sodipodi-0.dtd"
   xmlns:inkscape="http://www.inkscape.org/namespaces/inkscape"
   width="512"
   height="512"
   viewBox="0 0 512 512"
   version="1.1"
   id="svg6"
   sodipodi:docname="pressure switch.svg"
   inkscape:version="0.92.1 r15371">
  <metadata
     id="metadata12">
    <rdf:RDF>
      <cc:Work
         rdf:about="">
        <dc:format>image/svg+xml</dc:format>
        <dc:type
           rdf:resource="http://purl.org/dc/dcmitype/StillImage" />
      </cc:Work>
    </rdf:RDF>
  </metadata>
  <defs
     id="defs10" />
  <sodipodi:namedview
     pagecolor="#ffffff"
     bordercolor="#666666"
     borderopacity="1"
     objecttolerance="10"
     gridtolerance="10"
     guidetolerance="10"
     inkscape:pageopacity="0"
     inkscape:pageshadow="2"
     inkscape:window-width="640"
     inkscape:window-height="493"
     id="namedview8"
     showgrid="false"
     inkscape:zoom="0.4609375"
     inkscape:cx="256"
     inkscape:cy="256"
     inkscape:window-x="0"
     inkscape:window-y="0"
     inkscape:window-maximized="0"
     inkscape:current-layer="svg6" />
  <path
     id="path4"
     d="m 266.2,166 c 18.93333,0 37.86667,0 56.8,0 0.78273,10.76984 -1.69463,22.24021 1.49375,32.505 8.54634,22.55144 30.33947,42.1318 56.45325,39.64093 27.00926,-0.11097 52.20403,-24.09283 49.053,-51.83181 -0.3909,-11.16791 0.82056,-22.48926 -0.67594,-33.55131 -5.64222,-9.56469 -18.21385,-4.47221 -27.41834,-5.76281 -45.23524,0 -90.47048,0 -135.70572,0 -11.48809,0.35208 -11.48004,18.62594 0,19 z m 75.8,0 c 23.33333,0 46.66667,0 70,0 -1.18401,15.83513 4.58466,35.00336 -9.79875,46.475 -18.26702,16.51494 -56.1531,7.33963 -57.29125,-19.595 -3.81058,-7.35236 -2.90401,-16.06953 -2.9,-24.78344 -0.82558,0.12339 0.70279,-2.10716 -0.01,-2.09656 z m 55.25,99.56 c -21.11373,-5.34883 -42.13307,7.6302 -51.43236,26.31735 -8.77879,13.18901 -16.86894,27.16978 -26.07729,39.82831 -19.81942,17.72145 -51.19807,-5.88075 -41.70691,-29.35941 3.2329,-11.40485 27.11161,-37.64998 1.3564,-35.83406 -13.92008,14.26047 -23.56445,35.8569 -20.84984,55.87281 7.32632,14.70888 18.60434,30.6049 37.03813,32.27438 20.17708,3.84624 40.98951,-8.44818 48.28065,-27.32727 9.85883,-13.78067 16.85199,-30.1028 29.60351,-41.37697 23.7891,-15.45975 49.12188,14.1929 38.87646,36.84861 -10.45826,10.09595 -2.46827,35.39797 11.10125,20.04625 5.26888,-14.5407 15.17318,-34.41777 5.38,-48.3 -3.74097,-14.77071 -16.88883,-26.01631 -31.57,-28.99 z M 476.88,100 c -92.66,0 -185.32,0 -277.98,0 -16.3874,0.21406 -17.94443,18.26327 -16.9,30.74924 0,38.75025 0,77.50051 0,116.25076 -51.91667,0 -103.833333,0 -155.75,0 -19.7956413,6.73796 -0.567573,22.91095 12.549239,18 47.733587,0 95.467171,0 143.200761,0 0.21645,43.95794 -0.43451,87.95548 0.32832,131.88848 1.95945,15.37802 18.26058,15.94978 30.26176,15.11152 88.09664,0 176.19328,0 264.28992,0 16.58093,-0.30454 19.49707,-18.22305 18.12,-31.24924 0,-87.51692 0,-175.03384 0,-262.55076 0.0704,-9.59874 -8.50061,-18.266513 -18.12,-18.2 z M 459,377 c -80.33333,0 -160.66667,0 -241,0 0,-80.66667 0,-161.33333 0,-242 80.33333,0 160.66667,0 241,0 0,80.66667 0,161.33333 0,242 z" />
</svg>
