<?xml version="1.0" encoding="UTF-8" standalone="no"?>
<svg
   xmlns:dc="http://purl.org/dc/elements/1.1/"
   xmlns:cc="http://creativecommons.org/ns#"
   xmlns:rdf="http://www.w3.org/1999/02/22-rdf-syntax-ns#"
   xmlns:svg="http://www.w3.org/2000/svg"
   xmlns="http://www.w3.org/2000/svg"
   xmlns:sodipodi="http://sodipodi.sourceforge.net/DTD/sodipodi-0.dtd"
   xmlns:inkscape="http://www.inkscape.org/namespaces/inkscape"
   width="512"
   height="512"
   viewBox="0 0 512 512"
   version="1.1"
   id="svg4"
   sodipodi:docname="pressure relief velve.svg"
   inkscape:version="0.92.1 r15371">
  <metadata
     id="metadata10">
    <rdf:RDF>
      <cc:Work
         rdf:about="">
        <dc:format>image/svg+xml</dc:format>
        <dc:type
           rdf:resource="http://purl.org/dc/dcmitype/StillImage" />
      </cc:Work>
    </rdf:RDF>
  </metadata>
  <defs
     id="defs8" />
  <sodipodi:namedview
     pagecolor="#ffffff"
     bordercolor="#666666"
     borderopacity="1"
     objecttolerance="10"
     gridtolerance="10"
     guidetolerance="10"
     inkscape:pageopacity="0"
     inkscape:pageshadow="2"
     inkscape:window-width="640"
     inkscape:window-height="493"
     id="namedview6"
     showgrid="false"
     inkscape:zoom="0.4609375"
     inkscape:cx="256"
     inkscape:cy="256"
     inkscape:window-x="0"
     inkscape:window-y="0"
     inkscape:window-maximized="0"
     inkscape:current-layer="svg4" />
  <path
     id="path2"
     d="M 426.02,459.43 C 392.89667,393.18 359.77333,326.93 326.65,260.68 360.7302,192.11942 395.46527,123.85008 429.1359,55.107344 435.30926,37.231361 420.41022,13.422211 400.44701,17 332.388,17 264.329,17 196.27,17 175.91625,21.38547 168.74595,48.650272 180.04814,64.942737 211.0121,128.62849 241.97605,192.31425 272.94,256 c -11.03333,0 -22.06667,0 -33.1,0 -9.50358,-26.10236 -17.59366,-52.82372 -27.99453,-78.53313 -12.72862,-14.73484 -21.93487,5.14964 -21.32521,17.05408 -4.56009,27.94302 -9.12017,55.88603 -13.68026,83.82905 -7.42129,-34.49671 -13.5131,-69.35214 -21.78719,-103.61875 -7.68397,-19.65479 -22.54551,0.14037 -21.16525,12.594 -4.63585,28.47825 -9.27171,56.9565 -13.90756,85.43475 -5.83333,-30.25667 -11.66667,-60.51333 -17.5,-90.77 -11.253157,-21.00867 -27.219524,3.43943 -18.774227,17.62219 8.788076,46.18927 17.576147,92.37854 26.364227,138.56781 8.47849,19.89501 25.35948,1.13312 23.40308,-13.01442 4.57897,-27.4652 9.15795,-54.93039 13.73692,-82.39558 6.83333,31.89333 13.66667,63.78667 20.5,95.68 8.01129,18.99799 25.20916,1.72043 23.14336,-12.22324 5.54555,-34.06892 11.09109,-68.13784 16.63664,-102.20676 6.79503,19.73395 10.57444,40.71065 20.00273,59.37406 5.66627,6.7741 15.94949,2.29233 23.76268,3.58594 7.23153,0 14.46306,0 21.69459,0 -32.31593,62.23641 -64.99244,124.29782 -97.08301,186.64361 -6.24095,17.74395 13.93039,23.9436 27.51129,21.36639 68.65057,0 137.30115,0 205.95172,0 17.82534,0.64092 28.40819,-22.32265 16.69,-35.56 z M 231.22,77 c 47.51667,0 95.03333,0 142.55,0 -23.75667,47.51333 -47.51333,95.02667 -71.27,142.54 C 278.73816,172.02965 254.99106,124.49544 231.22,77 Z m 0,390 c 23.76,-47.51333 47.52,-95.02667 71.28,-142.54 23.75667,47.51333 47.51333,95.02667 71.27,142.54 -47.51667,0 -95.03333,0 -142.55,0 z" />
</svg>
