<?xml version="1.0" encoding="UTF-8" standalone="no"?>
<svg
   xmlns:dc="http://purl.org/dc/elements/1.1/"
   xmlns:cc="http://creativecommons.org/ns#"
   xmlns:rdf="http://www.w3.org/1999/02/22-rdf-syntax-ns#"
   xmlns:svg="http://www.w3.org/2000/svg"
   xmlns="http://www.w3.org/2000/svg"
   xmlns:sodipodi="http://sodipodi.sourceforge.net/DTD/sodipodi-0.dtd"
   xmlns:inkscape="http://www.inkscape.org/namespaces/inkscape"
   width="512"
   height="512"
   viewBox="0 0 512 512"
   version="1.1"
   id="svg6"
   sodipodi:docname="pressure guage.svg"
   inkscape:version="0.92.1 r15371">
  <metadata
     id="metadata12">
    <rdf:RDF>
      <cc:Work
         rdf:about="">
        <dc:format>image/svg+xml</dc:format>
        <dc:type
           rdf:resource="http://purl.org/dc/dcmitype/StillImage" />
      </cc:Work>
    </rdf:RDF>
  </metadata>
  <defs
     id="defs10" />
  <sodipodi:namedview
     pagecolor="#ffffff"
     bordercolor="#666666"
     borderopacity="1"
     objecttolerance="10"
     gridtolerance="10"
     guidetolerance="10"
     inkscape:pageopacity="0"
     inkscape:pageshadow="2"
     inkscape:window-width="640"
     inkscape:window-height="493"
     id="namedview8"
     showgrid="false"
     inkscape:zoom="0.4609375"
     inkscape:cx="256"
     inkscape:cy="256"
     inkscape:window-x="0"
     inkscape:window-y="0"
     inkscape:window-maximized="0"
     inkscape:current-layer="svg6" />
  <path
     id="path4"
     d="M 325.3,214.3 C 315.54333,202.78 305.78667,191.26 296.03,179.74 295.59315,169.37161 283.84922,165.27665 277.5775,158.35952 260.975,144.25634 244.3725,130.15317 227.77,116.05 c -20.08043,-8.96619 -17.57293,17.45142 -3.37751,22.66557 18.86193,15.94309 37.57028,32.08427 56.52751,47.90443 -0.29873,5.07952 10.8948,7.14404 15.20037,11.01561 9.72674,5.55443 19.45192,11.11178 29.17963,16.66439 z m 65.3,-63.27 C 391.82626,87.643937 342.04522,28.588579 279.56197,18.506742 219.45984,6.5504782 154.70096,41.925228 131.84109,98.678281 107.81657,152.91976 125.88253,221.31953 173.17475,256.98031 191.05786,271.01793 212.53175,280.4672 235,284 c 0,8.66667 0,17.33333 0,26 -8.48729,0.86862 -17.95861,-2.37723 -24.98,3.02 -8.02537,4.65458 -4.31757,14.96248 1.60028,19.65036 9.34657,11.37654 18.69315,22.75309 28.03972,34.12964 -11.09239,14.14645 -23.55134,27.40994 -33.82,42.09 -3.21435,8.12437 5.77404,15.24047 13.50061,13.13 5.02056,1.6661 17.44799,-4.07466 15.65939,4.40061 0.41726,21.36611 -0.85673,42.88541 0.67781,64.15033 6.23815,8.77782 19.20939,4.9174 28.63125,4.78578 10.79016,-5.22287 5.37112,-18.70083 6.69094,-28.28946 0,-15.02242 0,-30.04484 0,-45.06726 8.59227,-1.28613 19.75038,3.27468 26.35,-3.96 6.45171,-9.3512 -5.35674,-16.93577 -9.99912,-23.89934 -7.48696,-9.11022 -14.97392,-18.22044 -22.46088,-27.33066 11.095,-14.19088 23.63979,-27.4387 33.86,-42.2 2.49839,-6.39608 -3.05089,-12.17226 -8.71,-13.73 -4.9237,-2.77278 -15.06244,1.16095 -19.04,-1.98015 0,-8.01328 0,-16.02657 0,-24.03985 66.68264,-6.34566 120.6688,-66.83977 119.6,-133.83 z M 268.98,402 c -11.13333,0 -22.26667,0 -33.4,0 5.56667,-6.77667 11.13333,-13.55333 16.7,-20.33 5.56667,6.77667 11.13333,13.55333 16.7,20.33 z m -16.7,-50.67 c -5.56667,-6.77667 -11.13333,-13.55333 -16.7,-20.33 11.13333,0 22.26667,0 33.4,0 -5.56667,6.77667 -11.13333,13.55333 -16.7,20.33 z m 3.25,-104.58 c -48.44503,1.11124 -92.77795,-40.00322 -95.42036,-88.36608 -4.85489,-48.27409 32.8171,-95.615711 80.86783,-101.949481 46.98761,-8.315787 96.27027,24.333863 107.23509,70.703221 12.96311,45.98952 -14.68831,98.29551 -59.80719,113.79458 -10.50144,3.86045 -21.68846,5.82533 -32.87537,5.81776 z" />
</svg>
