<?xml version="1.0" encoding="UTF-8" standalone="no"?>
<svg
   xmlns:dc="http://purl.org/dc/elements/1.1/"
   xmlns:cc="http://creativecommons.org/ns#"
   xmlns:rdf="http://www.w3.org/1999/02/22-rdf-syntax-ns#"
   xmlns:svg="http://www.w3.org/2000/svg"
   xmlns="http://www.w3.org/2000/svg"
   xmlns:sodipodi="http://sodipodi.sourceforge.net/DTD/sodipodi-0.dtd"
   xmlns:inkscape="http://www.inkscape.org/namespaces/inkscape"
   width="512"
   height="512"
   viewBox="0 0 512 512"
   version="1.1"
   id="svg6"
   sodipodi:docname="solinoid velve.svg"
   inkscape:version="0.92.1 r15371">
  <metadata
     id="metadata12">
    <rdf:RDF>
      <cc:Work
         rdf:about="">
        <dc:format>image/svg+xml</dc:format>
        <dc:type
           rdf:resource="http://purl.org/dc/dcmitype/StillImage" />
      </cc:Work>
    </rdf:RDF>
  </metadata>
  <defs
     id="defs10" />
  <sodipodi:namedview
     pagecolor="#ffffff"
     bordercolor="#666666"
     borderopacity="1"
     objecttolerance="10"
     gridtolerance="10"
     guidetolerance="10"
     inkscape:pageopacity="0"
     inkscape:pageshadow="2"
     inkscape:window-width="640"
     inkscape:window-height="493"
     id="namedview8"
     showgrid="false"
     inkscape:zoom="0.4609375"
     inkscape:cx="256"
     inkscape:cy="256"
     inkscape:window-x="0"
     inkscape:window-y="0"
     inkscape:window-maximized="0"
     inkscape:current-layer="svg6" />
  <path
     id="path4"
     d="m 259.3,263.68 c 1.82526,24.31292 30.02938,39.9751 51.99031,30.04129 16.63538,-5.94285 21.20628,-24.08609 31.10628,-36.9051 7.21179,-8.29739 8.61873,-21.01759 19.62341,-25.30494 23.43651,-10.16234 39.43139,19.25878 30.08615,38.3224 -12.84681,12.13017 6.88585,30.42701 12.32805,11.51254 10.25095,-20.06875 7.19277,-44.76345 -10.18055,-59.42564 -18.68541,-15.108 -51.5171,-6.8907 -58.45472,16.64679 -8.97224,12.62605 -15.70888,27.28938 -26.28049,38.43375 -22.5436,16.04479 -46.51238,-14.99577 -28.83858,-35.13935 10.63693,-6.56939 12.06028,-31.64348 -4.54986,-21.28174 -10.04956,12.15004 -15.66697,27.60974 -16.83,43.1 z M 472.6,127 c -81.61097,0.0573 -163.22505,-0.11481 -244.83406,0.0863 -15.04396,-1.65131 -14.42123,13.88359 -13.76594,24.15757 0,35.25206 0,70.50412 0,105.75618 -28.02667,0 -56.05333,0 -84.08,0 23.03993,-47.52729 46.58767,-94.83597 69.30936,-142.50025 C 203.43618,100.9452 193.45506,81.018528 177.59809,84 129.38539,84 81.172697,84 32.96,84 14.227739,88.617138 15.676795,110.41896 24.914442,123.04724 47.129628,167.74149 69.344814,212.43575 91.56,257.13 c -24.13,48.4 -48.26,96.8 -72.39,145.2 -7.992781,17.88776 11.438931,28.97365 26.728497,25.67 47.427365,-0.24911 94.914843,0.49902 142.304513,-0.37545 16.79894,-5.19641 11.9513,-20.7189 3.94231,-30.75223 C 171.39688,356.91488 150.64844,316.95744 129.9,277 c 28.03333,0 56.06667,0 84.1,0 0.24705,35.12843 -0.49756,70.30936 0.37844,105.40449 1.71807,15.31307 14.49829,25.86226 29.49006,22.59551 76.24383,0 152.48767,0 228.7315,0 15.71668,-4.60969 23.40156,-22.45532 21.4,-37.91318 0,-76.64894 0,-153.29788 0,-229.94682 -0.90939,-9.80532 -14.14725,-9.76927 -21.4,-10.14 z M 159.7,405 c -33.92333,0 -67.846667,0 -101.77,0 16.96,-33.92333 33.92,-67.84667 50.88,-101.77 16.96333,33.92333 33.92667,67.84667 50.89,101.77 z M 108.8,228.77 C 91.843333,194.84667 74.886667,160.92333 57.93,127 c 33.923333,0 67.84667,0 101.77,0 -16.96667,33.92333 -33.93333,67.84667 -50.9,101.77 z M 451,361 c -71.33333,0 -142.66667,0 -214,0 0,-71 0,-142 0,-213 71.33333,0 142.66667,0 214,0 0,71 0,142 0,213 z" />
</svg>
