<?xml version="1.0" encoding="UTF-8" standalone="no"?>
<svg
   xmlns:dc="http://purl.org/dc/elements/1.1/"
   xmlns:cc="http://creativecommons.org/ns#"
   xmlns:rdf="http://www.w3.org/1999/02/22-rdf-syntax-ns#"
   xmlns:svg="http://www.w3.org/2000/svg"
   xmlns="http://www.w3.org/2000/svg"
   xmlns:sodipodi="http://sodipodi.sourceforge.net/DTD/sodipodi-0.dtd"
   xmlns:inkscape="http://www.inkscape.org/namespaces/inkscape"
   width="512"
   height="512"
   viewBox="0 0 512 512"
   version="1.1"
   id="svg6"
   sodipodi:docname="sprinkler control assembly.svg"
   inkscape:version="0.92.1 r15371">
  <metadata
     id="metadata12">
    <rdf:RDF>
      <cc:Work
         rdf:about="">
        <dc:format>image/svg+xml</dc:format>
        <dc:type
           rdf:resource="http://purl.org/dc/dcmitype/StillImage" />
      </cc:Work>
    </rdf:RDF>
  </metadata>
  <defs
     id="defs10" />
  <sodipodi:namedview
     pagecolor="#ffffff"
     bordercolor="#666666"
     borderopacity="1"
     objecttolerance="10"
     gridtolerance="10"
     guidetolerance="10"
     inkscape:pageopacity="0"
     inkscape:pageshadow="2"
     inkscape:window-width="640"
     inkscape:window-height="493"
     id="namedview8"
     showgrid="false"
     inkscape:zoom="0.4609375"
     inkscape:cx="256"
     inkscape:cy="256"
     inkscape:window-x="0"
     inkscape:window-y="0"
     inkscape:window-maximized="0"
     inkscape:current-layer="svg6" />
  <path
     id="path4"
     d="m 193.4,170.8 c 4.34598,27.51996 43.95182,36.06073 61.04076,15.12888 7.27248,-12.21176 14.07073,-25.07988 21.34924,-37.49888 9.13297,-19.37755 42.92561,-15.72222 42.1125,7.8125 5.39477,9.98857 -16.39548,40.9437 7.19,33.12234 10.2299,-17.38629 12.46135,-39.97696 -0.94297,-55.99322 -14.72841,-18.12034 -47.09664,-15.5491 -58.03953,5.36838 -8.91623,10.64512 -14.37129,24.19487 -21.87445,36.02292 -9.59048,16.22864 -39.07517,7.70579 -37.4693,-11.85542 -7.62701,-13.1486 27.52911,-39.22375 1.71063,-40.11984 -11.0628,12.02461 -22.0528,32.18185 -15.06688,48.01234 z m 4.26,113.22 c 11.26428,-2.1085 6.20634,-15.63651 7.34,-23.7612 -2.71626,-14.57281 10.55742,-27.26541 25,-26.2588 23.01053,0.0563 46.1714,-0.0928 69.07451,0.0357 19.77505,1.75995 18.34699,17.78127 16.92549,32.05845 -4.79213,11.62065 11.14275,27.06344 15,9.47246 -1.05301,-9.26674 1.16781,-16.96422 2.53759,-25.13046 -2.57262,-22.84955 -27.20195,-33.36301 -47.77148,-31.41613 -20.57473,0.35474 -41.25126,-0.72659 -61.75825,0.57102 -20.42386,1.72406 -35.97581,20.97444 -33.99786,41.04605 1.14556,8.135 -3.95799,21.77836 7.65,23.38293 z m -0.06,107.5 c 43.05583,-11.48934 85.86084,-24.18552 128.82,-36.14 13.38759,-7.72717 -2.57292,-16.71072 -11.54266,-17.09649 C 276.46823,327.40901 238.05911,316.5345 199.65,305.66 c -17.93862,1.49071 -4.42533,18.13634 7.11784,17.14839 4.8563,3.0654 16.43317,1.07248 16.22216,7.95185 0,12.88992 0,25.77984 0,38.66976 -10.0304,3.2466 -20.58375,5.18952 -30.26656,9.30266 -5.17476,4.24207 -1.72258,13.01598 4.87656,12.78734 z M 238,331.55 c 19.92,5.64 39.84,11.28 59.76,16.92 -19.92,5.63333 -39.84,11.26667 -59.76,16.9 0,-11.27333 0,-22.54667 0,-33.82 z M 370.26,15 C 293.12269,15.199367 215.94427,14.600693 138.83273,15.300352 124.18467,18.430248 127.20575,34.816427 127,45.951196 127,191.4508 127,336.9504 127,482.45 c 0.13852,14.43206 15.91467,15.4802 26.76754,14.55 73.12814,-0.19927 146.29737,0.39918 219.39973,-0.30035 C 387.81533,493.56975 384.79425,477.18357 385,466.0488 385,320.5492 385,175.0496 385,29.55 385.10377,21.72858 378.02923,14.890304 370.26,15 Z M 355,467 c -66,0 -132,0 -198,0 0,-140.66667 0,-281.33333 0,-422 66,0 132,0 198,0 0,140.66667 0,281.33333 0,422 z" />
</svg>
