<?xml version="1.0" encoding="UTF-8" standalone="no"?>
<svg
   xmlns:dc="http://purl.org/dc/elements/1.1/"
   xmlns:cc="http://creativecommons.org/ns#"
   xmlns:rdf="http://www.w3.org/1999/02/22-rdf-syntax-ns#"
   xmlns:svg="http://www.w3.org/2000/svg"
   xmlns="http://www.w3.org/2000/svg"
   xmlns:sodipodi="http://sodipodi.sourceforge.net/DTD/sodipodi-0.dtd"
   xmlns:inkscape="http://www.inkscape.org/namespaces/inkscape"
   width="512"
   height="512"
   viewBox="0 0 512 512"
   version="1.1"
   id="svg4"
   sodipodi:docname="suction point.svg"
   inkscape:version="0.92.1 r15371">
  <metadata
     id="metadata10">
    <rdf:RDF>
      <cc:Work
         rdf:about="">
        <dc:format>image/svg+xml</dc:format>
        <dc:type
           rdf:resource="http://purl.org/dc/dcmitype/StillImage" />
      </cc:Work>
    </rdf:RDF>
  </metadata>
  <defs
     id="defs8" />
  <sodipodi:namedview
     pagecolor="#ffffff"
     bordercolor="#666666"
     borderopacity="1"
     objecttolerance="10"
     gridtolerance="10"
     guidetolerance="10"
     inkscape:pageopacity="0"
     inkscape:pageshadow="2"
     inkscape:window-width="640"
     inkscape:window-height="493"
     id="namedview6"
     showgrid="false"
     inkscape:zoom="0.4609375"
     inkscape:cx="256"
     inkscape:cy="256"
     inkscape:window-x="0"
     inkscape:window-y="0"
     inkscape:window-maximized="0"
     inkscape:current-layer="svg4" />
  <path
     id="path2"
     d="m 485.6,388 c -21.32236,5.20194 -9.48339,-26.74268 -22.50257,-37.25012 C 449.11676,326.20583 422.38582,309.08147 394,308 c 1.98385,-6.95742 -1.25738,-26.76971 -9,-13.9 6.57679,22.43511 -22.15161,12.93957 -34.26,23.74 -23.16667,-17.17667 -46.33333,-34.35333 -69.5,-51.53 4.13342,-7.66931 -4.57405,-18.43901 5.21931,-22.23716 22.0569,-16.30761 44.11379,-32.61523 66.17069,-48.92284 12.20909,9.66161 38.59359,1.2941 32.37,22.78 7.69458,12.90952 10.9232,-6.94285 9,-13.93 42.32903,-0.57771 78.70735,-37.99307 79.84,-80 10.94111,4.21421 24.533,-8.45214 6.39808,-8 -14.30881,-5.20774 -8.302,-38.958154 -25.96585,-49.93519 C 440.06252,47.110195 414.56622,37.917581 394,34.38202 397.31461,26.633032 389.76421,8.3873039 385,23.13798 391.03734,44.863876 361.26202,34.147193 349.95805,45.24166 323.54969,58.285742 306.43251,86.754692 305.7,116 c -6.54592,-1.03185 -29.30183,-0.36799 -16.25,8 20.9818,-6.20612 17.11364,13.54718 22.7501,28.30799 0.0797,15.45798 30.04626,27.94799 22.96922,37.3743 C 314.57288,205.1382 293.97644,220.5941 273.38,236.05 c -6.22444,-4.2182 -15.23914,-8.3809 -22.56154,-4.53935 -8.46109,5.12884 -14.24516,4.33983 -21.17677,-3.0754 C 211.04779,214.68684 192.4539,200.93842 173.86,187.19 c 24.33123,-12.27738 29.48085,-46.41581 38.63394,-63.2 12.76718,4.29189 20.32136,-10.26273 3.36616,-8 -16.36193,-0.92548 -6.90364,-34.084976 -22.51,-43.820684 C 178.2567,50.851043 153.1988,36.706924 127,35.72 128.97937,28.759187 125.74906,8.9225397 118,21.8 124.24066,42.332478 100.52356,35.364201 88.39,43.55 60.577241,56.331451 41.213815,85.372775 40.33,116 c -7.985596,-3.07967 -28.597639,4.30349 -11.254039,8 21.052766,-5.13401 9.645809,26.54919 22.167144,37.00012 C 64.400085,185.31947 90.307508,202.27241 118,203.86 c -1.93522,6.97022 1.18034,26.96387 9,14.06 -6.54679,-22.1783 21.28666,-12.25419 33.5,-22.16 23.48333,17.02333 46.96667,34.04667 70.45,51.07 -4.35059,7.4403 3.46812,18.16462 -3.07377,23.01047 C 206.02749,285.62365 184.17874,301.40682 162.33,317.19 150.03878,306.31342 120.67528,316.65654 127,294.1 c -7.77379,-12.92877 -10.8894,7.06879 -9,14.06 -41.226762,1.93925 -76.953764,38.5266 -77.67,79.84 -7.985596,-3.07967 -28.597639,4.30349 -11.254039,8 21.068997,-5.12927 9.64725,26.60085 22.167144,37.0694 C 64.377599,457.43548 90.246934,474.56088 118,476.15 c -1.93986,6.97122 1.18834,26.95524 9,14.05 -6.32421,-20.94082 18.16808,-12.76439 30.46266,-20.73328 C 186.80512,457.45666 207.07048,427.52487 208.48,396 c 7.99275,3.04122 28.82482,-4.2492 11.39404,-8 -22.52913,4.49977 -9.31484,-32.68389 -25.71476,-43.04492 -10.74511,-13.03205 -25.6713,-21.69242 -4.6237,-30.35992 16.96148,-12.28839 33.92295,-24.57677 50.88442,-36.86516 6.91421,4.59139 16.3523,9.06606 24.35866,4.53961 8.1557,-6.23333 13.41471,-1.77186 20.43863,4.32634 17.57424,12.98469 35.14847,25.96937 52.72271,38.95405 -22.81096,12.90816 -26.92206,46.56779 -36.23394,62.45 -9.36743,-3.95945 -26.01642,6.83434 -8.22212,8 21.10207,-6.01195 10.86819,22.80948 21.55068,33.71035 12.99492,26.38802 40.57042,44.83418 69.98538,46.42965 -1.93683,6.97204 1.18352,26.96736 9,14.06 -6.2719,-20.66732 17.5727,-12.8905 29.78453,-20.73328 C 452.86554,457.25214 472.44104,427.23962 473.86,396 c 5.46212,0.92113 26.29513,-0.48525 11.74,-8 z M 394,63.5 c 25.61788,-1.334571 58.83253,33.489691 48.18606,52.5 -16.06202,0 -32.12404,0 -48.18606,0 0,-17.5 0,-35 0,-52.5 z m 0,60.5 c 17.36667,0 34.73333,0 52.1,0 -1.362,27.22657 -24.41323,51.53789 -52.1,52.23 0,-17.41 0,-34.82 0,-52.23 z m -9,-60.4 c 0,17.466667 0,34.933333 0,52.4 -17.17333,0 -34.34667,0 -51.52,0 C 334.55214,88.616799 357.96727,65.723045 385,63.6 Z M 333.6,124 c 17.13333,0 34.26667,0 51.4,0 0,17.36667 0,34.73333 0,52.1 -27.13688,-1.94091 -49.47052,-25.12227 -51.4,-52.1 z M 118,176.1 C 92.873201,176.91423 62.095395,142.03388 72.243941,124 c 15.25202,0 30.504039,0 45.756059,0 0,17.36667 0,34.73333 0,52.1 z m 0,-60.1 c -16.63333,0 -33.266667,0 -49.9,0 C 66.103746,91.012369 99.51335,57.527781 118,67.613941 118,83.742628 118,99.871314 118,116 Z m 9,-52.5 c 25.88399,-1.53769 60.4926,32.878956 49.80606,52.5 -16.60202,0 -33.20404,0 -49.80606,0 0,-17.5 0,-35 0,-52.5 z m 0,112.72 c 0,-17.40667 0,-34.81333 0,-52.22 17.9,0 35.8,0 53.7,0 -1.54735,28.05477 -25.48029,51.49666 -53.7,52.22 z m -9,272.17 C 92.791517,449.14775 62.137979,414.04919 72.243941,396 c 15.25202,0 30.504039,0 45.756059,0 0,17.45667 0,34.96667 0,52.39 z m 0,-60.4 c -16.63333,0 -33.266667,0 -49.9,0 -2.029417,-24.97774 31.502895,-58.20808 49.9,-48.08606 0,16.02207 0,32.09731 0,48.08606 z m 9,60.5 c 0,-17.49667 0,-34.99333 0,-52.49 17.9,0 35.8,0 53.7,0 -2.34224,27.36052 -26.07174,51.21487 -53.7,52.49 z m 53.82,-60.5 c -17.94,0 -35.88,0 -53.82,0 0,-17.40667 0,-34.81333 0,-52.22 27.41791,1.41649 52.37051,24.38247 53.82,52.22 z M 385,448.4 c -25.47593,0.96552 -57.56687,-33.73224 -47.38606,-52.4 15.79535,0 31.59071,0 47.38606,0 0,17.46667 0,34.93333 0,52.4 z m 0,-60.4 c -17.17333,0 -34.34667,0 -51.52,0 -1.93934,-25.63742 32.85776,-58.2068 51.52,-48.08606 0,16.02869 0,32.05737 0,48.08606 z m 9,60.5 c 0,-17.5 0,-35 0,-52.5 17.36667,0 34.73333,0 52.1,0 -2.34165,26.7868 -24.70502,51.01706 -52.1,52.5 z m 0,-60.5 c 0,-17.41 0,-34.82 0,-52.23 25.53747,-1.37559 58.87018,33.23017 48.18606,52.23 -16.06202,0 -32.12404,0 -48.18606,0 z" />
</svg>
