<?xml version="1.0" encoding="UTF-8" standalone="no"?>
<svg
   xmlns:dc="http://purl.org/dc/elements/1.1/"
   xmlns:cc="http://creativecommons.org/ns#"
   xmlns:rdf="http://www.w3.org/1999/02/22-rdf-syntax-ns#"
   xmlns:svg="http://www.w3.org/2000/svg"
   xmlns="http://www.w3.org/2000/svg"
   xmlns:sodipodi="http://sodipodi.sourceforge.net/DTD/sodipodi-0.dtd"
   xmlns:inkscape="http://www.inkscape.org/namespaces/inkscape"
   width="512"
   height="512"
   viewBox="0 0 512 512"
   version="1.1"
   id="svg4"
   sodipodi:docname="upright sprinkler exposed with baffle plate.svg"
   inkscape:version="0.92.1 r15371">
  <metadata
     id="metadata10">
    <rdf:RDF>
      <cc:Work
         rdf:about="">
        <dc:format>image/svg+xml</dc:format>
        <dc:type
           rdf:resource="http://purl.org/dc/dcmitype/StillImage" />
      </cc:Work>
    </rdf:RDF>
  </metadata>
  <defs
     id="defs8" />
  <sodipodi:namedview
     pagecolor="#ffffff"
     bordercolor="#666666"
     borderopacity="1"
     objecttolerance="10"
     gridtolerance="10"
     guidetolerance="10"
     inkscape:pageopacity="0"
     inkscape:pageshadow="2"
     inkscape:window-width="638"
     inkscape:window-height="493"
     id="namedview6"
     showgrid="false"
     inkscape:zoom="0.4609375"
     inkscape:cx="256"
     inkscape:cy="256"
     inkscape:window-x="0"
     inkscape:window-y="0"
     inkscape:window-maximized="0"
     inkscape:current-layer="svg4" />
  <path
     id="path2"
     d="M 393.84,436.8 C 446.12845,382.20051 458.55132,294.53193 423.009,227.72449 387.57707,155.99443 302.19989,113.73693 223.72703,130.20344 190.953,136.54916 160.22198,152.33021 135.43,174.61 123.9223,163.81436 113.98132,151.02225 101.37375,141.62328 84.175624,134.67055 75.608936,160.33135 90.653638,168.25762 99.269092,177.00174 107.88455,185.74587 116.5,194.49 68.24734,250.28204 59.405057,335.66976 95.659253,399.99547 c 37.258987,71.116 124.191127,111.36645 202.416337,92.40851 27.61008,-6.2889 53.55232,-19.28918 75.56441,-37.04398 10.96465,10.26343 20.3826,22.50311 32.4525,31.36 17.19167,6.8645 25.67672,-18.75425 10.66337,-26.66713 C 409.11725,452.30191 401.47862,444.55096 393.84,436.8 Z m -135.55,5.24 C 194.7516,443.39983 135.96393,391.5768 129.15753,328.42879 124.6071,294.98411 134.42989,260.18635 154.99,233.53 c 60.06,60.93333 120.12,121.86667 180.18,182.8 -22.04307,16.41615 -49.41761,25.80566 -76.88,25.71 z m 97.05,-44.3 C 294.84333,336.36 234.34667,274.98 173.85,213.6 c 43.17299,-39.05078 112.94947,-42.53258 159.7344,-7.8506 51.20106,34.8574 70.26985,108.51235 41.17152,163.43564 C 369.56005,379.49303 362.99428,389.10218 355.34,397.74 Z M 96.13,55 c 106.89396,-0.158656 213.80545,0.317678 320.68844,-0.238809 30.57864,2.05863 26.6255,-44.728759 -2.71903,-39.702805 -107.83017,0.02253 -215.6805,-0.33722 -323.500719,0.180423 -30.578076,-2.059094 -26.620477,44.729869 2.721895,39.702805 L 96.12,55 Z" />
</svg>
