<svg xmlns="http://www.w3.org/2000/svg" width="512" height="512"><path d="M197.6 158.24c14.68-12.43 34.22 16.88 8.42 13.25-25.58-5.3-30.87 35.89-2.7 30.98 10.05-.4 16.49-11.06 20.3-.46 5.34-.99 13.07 5.11 13.78-4.19l19.04-67.81c-8.93-3.03-8.36 6.47-10.47 12.45l-16.24 57.65c-6.4-14.47.96-31.58-5.27-45.79-10.97-10.88-39.83-5.69-38.64 10.5 7.75 2.4 7.44-.21 11.78-6.58zm21.4 20.58c6.57 22.82-39.61 20-21.83 1.83 4.74.44 23.6-8.57 21.83-1.83zM59 382c9.64 3.02 8.37-4.86 8-11.85V349h34c2.56-9.15-2.96-10.22-10.78-9H67v-21h40c3.02-9.64-4.86-8.37-11.85-8H59m52 0c8.58-2.24 10.47 2.2 9 10-10.2 1.34-9.5-.63-9-10zm0 18c9.15-2.56 10.22 2.96 9 10.78V382c-9.15 2.56-10.22-2.96-9-10.78V329zm55.46 6.98c-8.23-11.18-28.7-6.42-29.47-3.61V311c-9.15-2.56-10.22 2.96-9 10.78V382c11.67 4.01 3.03-14.63 13.94-1.5 17.44 8.44 33.52-11.9 30.16-28.47-.37-5.7-2.16-11.52-5.63-16.05zm-7.23 34.3c-20.23 19.03-33.88-24.01-14.8-33.17 19.39-7.48 23.34 22.28 14.8 33.17zm45.62-38.78c-12.26-11.03-21.33 14.4-20.92-2.5-9.63-3.04-8.25 4.93-7.92 11.85V382c8.41 1.85 12.05-1.08 10-9.7 1-10.92-2.92-23.74 4.43-32.9 8.08-4.2 12.81 4.18 14.41-7.9zm20.43-2.8c-19.65-1.11-28.51 22.4-22.35 38.41 5.88 20.77 41.15 20.44 45.43-1.32-12.84-5.96-16.63 18.8-31.01 6.58-11.13-8.7-7.35-19.16 5.84-15.38h25.4c1.79-14.01-8.02-29.34-23.31-28.29zm-14.5 21.3c-2.44-23.05 37.63-12.33 25.45 0h-25.45zM65.82 257.8c12.82-12.5 3.23-37.45-15.4-35.62-10.8-.36-21.61-.1-32.42-.18v70c9.64 3.02 8.37-4.86 8-11.85 1.6-5.22-3.92-17.56 4.31-16.15 11.87-.65 25.97 2.58 35.51-6.2zm-7.74-5.3c-9.58 5.82-21.4 2.7-32.08 3.5v-26c11.21 1.19 24.82-3.43 33.65 5.13 3.4 5.1 3.12 13.12-1.57 17.37zM118 292c-.58-14.35 1.43-29.03-1.6-43.1-6.34-14.38-30.63-5.84-30.4-4.64V222c-8.41-1.85-12.05 1.08-10 9.7V292c8.41 1.85 12.05-1.08 10-9.7 1.2-10.82-3.63-24.46 5.77-32.37 15.48-8.75 20.35 9.65 18.23 21.25V292h8zm28.67 2.13c22.05 1.16 29.82-26.74 20.27-42.96-10.26-18.13-42.5-12.04-43.84 9.43-3.49 15.76 5.48 34.6 23.57 33.53zm-10.83-41.6c19.5-18.5 36.4 19.23 19.34 31.66-20.58 12.68-30.08-18.49-19.34-31.66zM184 265c-6.38-19.52 29.8-23.38 23.99-1.13V292c9.15 2.56 10.22-2.96 9-10.78-1.2-12.4 3.61-27.25-5.76-37.18-7.98-11.78-27.41 4.65-27.24 1.63 3.29-7.35-13.09-6.84-9 .72V292c9.15 2.56 10.22-2.96 9-10.78 0-5.4-.01-10.83.01-16.22zm75.5 11.42c-2.95 22.94-40.3 1.98-24.77-6.42h34.01c2.89-16.24-11.34-33.48-28.4-29.07-25.41 4.28-25.66 49.02.23 52.75 11.53 7.93 40.31-17.75 18.94-17.28zm-24.06-24.5c9.24-16.08 36.33 12.77 16.62 11.08H230.9c.17-4.06 1.52-8.24 4.54-11.08zM267.06 294c8.95 3.03 8.39-6.45 10.46-12.46L294.58 220h-6.96m201.65 27.88L327.4 150.75c-13.8-6.5-17.07 10.42-15.4 20.35v182.4c1.76 15.08 17.86 8.81 25.5 2.4 51.2-30.97 102.89-61.2 153.76-92.63 4.46-4.34 3.4-12.35-1.99-15.39zM332 336V176.75l132.72 79.63L332 336zM87.66 200.5c22.84-6.12 26.02-36.82 17.3-55.31-8.45-18.12-29.8-13.66-46.03-14.2-9.15-2.59-10.12 3.01-8.93 10.78v60.22c12.53-.43 25.34 1.15 37.66-1.49zM60 193v-53c12.28 1.14 28.5-4.4 35.98 8.61 7.79 15.39 4.81 44.85-17.45 44.32-6.17.15-12.38.06-18.53.07zm72.53-21.2c-27.06-3.35-24.43 38.85 2.3 30.35 8.15-.47 14.91-11.6 16.78-.15 15.2 3.62 1.12-16.4 5.38-25.34 2.09-13.52-2.82-30.6-20.01-27.79-10.17-5.05-33.6 16.43-15.72 16.84 1.4-16 36.23-9.6 23.96 3.93a106.46 106.46 0 0 1-12.69 2.16zm15.6 7.2c6.36 22.74-39.68 19.76-21.9 1.65 5.63.48 22.53-8.83 21.9-1.65zm18.87 7.37c-8.18 14.53 23.2 23.5 16.56 7.24-13.38 2.79-7.13-14.08-8.56-21.87 1.32-5.4-3.85-17.27 5.39-14.74 7.53.77 3.78-12.65-3.93-8-4.03-1.94.73-14.73-2.36-16.31-8 2.39-7.67 9.28-7.1 16.31-7.67-4.52-12.06 7.88-4.77 8 8.74-2.12 3.25 10 4.77 15.09v14.28z"/></svg>