<svg xmlns="http://www.w3.org/2000/svg" width="512" height="512"><path d="M42.63 256.48c17-11.6-3.8-25.67-17.38-21.48-9.55-2.89-8.8 4.52-8.25 11.73V280c10.42-1.15 22.77 3.1 31.42-4.05 5.44-6.37 3.04-17.65-5.79-19.47zM23 241c9.4-2.22 28.94 2.52 15.37 13.12-7.55 1.35-19 3.64-15.37-7.65V241zm21.08 30.54c-3.5 2.98-23.55 8.29-21.08-1.87-1.91-8.33 1.2-11.63 9.6-9.67 6.98-1.58 15.56 3.65 11.48 11.54zM83 267.02c3.9-14.64-10.15-26.84-24.15-17.57-10.26 9.02 2.44 11.04 6.17 2.43 15.95-3.18 12.8 14.23-1.55 10.3-25.28 7.68 5.7 28.09 13.9 16.61 10.14 6.27 4.05-5.64 5.63-11.77zM77 266c3.88 16.45-29.4 11.25-12.59.92 2.35 1.4 13.97-5.44 12.59-.92zm30.63-2.6c-10.52.76-24.84-12.96-6.08-11.52 8.13 12.68 14.54-3.1.35-4.74-17.4-5.38-21.41 20.93-2.46 19.73 19.45 4.38-7.8 17.87-9.95 3.48-15.14 7.62 24.99 20.83 23.2.87a8.05 8.05 0 0 0-5.06-7.82zM117 247c8.88-2.24 3.58 9.7 5 14.92-1.25 5.49 2.61 16.09-2.13 18.08-6.16-.48-1.34-11.94-2.87-17.06V247zm0-12c9.88-3.59 3.28 13.83 0 4.87V235zm28.14 40.08c-22.04 12.47-17.25-37.47 1.28-19.75 12.5 10.26.47-16.38-10.9-7.96-22.68 6.11-7.31 47.13 13.35 31.16 10.39-7.55-1.09-15.98-3.73-3.45zM167 241c5.16 1.28 16.68-3.8 14 5.33V280c9.7 3.1 6.64-6.55 7-12.8V241c4.8-1.63 16.81 3.97 15-4.26-2.64-3.98-12.6-.64-18.12-1.74H167m70.9 33.46c-3.22 15.7-6.65-8.76-10.32-15.05l-6.6-18.42c-10.76-2.91-3.48 6.41-1.88 11.89l13.16 33.11c8.54 2.72 8.37-7.45 11.42-12.86l12.9-32.14c-8.6-2.74-8.15 7.54-11.07 12.99-2.53 6.82-5.1 13.66-7.61 20.48zm252.34-20.2L308.08 138.98c-13.14-6-15.52 10.25-14.08 19.46V365.3c1.9 14.23 16.93 7.53 24.09 1.7 57.93-34.99 116.3-69.33 173.96-104.71 4.08-3.96 3.08-11.23-1.81-14.04zM313 349.36v-186.7L468.6 256c-51.86 31.12-103.75 62.23-155.6 93.36z"/></svg>