<svg xmlns="http://www.w3.org/2000/svg" width="512" height="512"><path d="M72.66 262.07c-3.02 15.28-6.35-8.8-9.92-14.95-2.64-5.32-3.28-13.48-7.11-17.12H18c-2.86 9.41 8.05 5.06 13.67 6 .78 12 .1 25.45.33 38 9.41 2.86 5.06-8.05 6-13.67V236c5.74 1.2 15.49-3.5 16.32 4.9L67.33 274c8.34 2.65 7.88-7.56 10.87-12.74L90.35 230c-8.38-2.66-7.72 7.63-10.62 12.83-2.35 6.4-4.74 12.84-7.07 19.24zm58.78-5.37c-6.94-2.7 15.14-7 8.37-17.5-4.87-13.32-20.98-8.14-31.92-9.2-6.17.4-1.38 11.76-2.89 16.82V274c9.41 2.86 5.06-8.05 6-13.67-1.69-12.25 19.83-2.74 20.35 5.66.65 5.8 11.28 11.78 11.31 6.26-3.63-5.26-6.57-11.18-11.22-15.55zm-7.9-6.7c-6.54-.1-15.56 2.3-12.54-7.36-3-9.4 4.88-7.92 11.56-7.64 14.13-2.69 16.22 16.7.98 15zm34.46-7.96c-24.45-.05-15.47 43.59 7.48 31.53 12.26-6.83 1.5-14.46-4.4-3.29-14.56 1.49-15-15.3-.72-10.29 14.69 5.16 15.5-11.02 3.42-16.87-1.63.04-4.02-1.97-5.78-1.08zM149.1 256c2.37-21.75 30 4.3 7.15 0h-7.15zm35.6 13.8c-5.4-4.05-1.5-14.4-2.69-21.2 4.9-1.73 6.92-5.48 0-6.65 2.4-7.77-2.66-13.67-6-4.93 1.9 7.16-9.13 7.98 0 11.03.6 8.22-1.47 17.1 1.75 24.75 4.6 5.76 15.87-1.11 6.94-3zM222 260c-.02 18.48-21.1 8.07-15-6 2.03-5.87-1.65-16.25-6-8.9 1.13 9.63-3.63 23.01 6.38 28.93 9.47 4.57 14.38-7.15 17.72-.03 4.28-2.3.74-12.44 1.9-17.87-.1-4.9 1.84-17.4-5-12.08V260zm50.8-14.24c-8.26-10.13-18.13 4.74-20.9-2.76-5.38-1.8-15.41 1.33-14.9 2.46-3.62-8.2-6.75 3.9-5 9.1V274c9.41 2.86 5.06-8.05 6-13.67-5.01-10.1 13.67-18.24 11-11.25V274c8.82 2.25 3.62-9.53 5-14.72-3.18-16.89 21.31-14.84 16 1.13.15 4.97-1.89 17.8 5 12.54-.7-8.97 1.8-18.96-2.2-27.19zm216.6 2.92c-58.2-34.68-116.03-70.07-174.45-104.3-12.68-2.31-11.21 12.61-10.96 20.82.2 65.48-.41 131 .3 196.44 4.62 11.99 16.62 3.02 23.54-1.4 54.38-32.85 109.2-65.07 163.3-98.31 3.83-3.74 2.91-10.69-1.73-13.25zM321 344.33V167.67L468.24 256 321 344.33z"/></svg>