<svg xmlns="http://www.w3.org/2000/svg" width="512" height="512"><path d="M91.4 161.96c20.51 14.76 21.85-17.22 6.8-25.4C80.88 113.92 65.05 89.84 46 68.73c-31.05-1.05-1.76 30.35 7.51 42a4321.5 4321.5 0 0 1 37.9 51.23zm19.12-44.63c16.28 16.27 25.65-13.56 10.08-22.66-13.56-12.57-21.26-55.83-44.14-41.95-.84 22.7 25.24 43.38 34.06 64.61zm19.95-48.35c21 14.93 21.62-17.96 6.25-25.97-10.71-23.26-34.8 2.96-14.26 15.12 2.7 3.6 5.37 7.2 8.01 10.85zM485.87 253H66v-97.5c-2.2-15.06-19.64-9.4-30.25-10.5-12.84-3.12-22.83 6.74-19.75 19.67v304.17c2.03 14.84 19.4 8.97 29.78 10.16h440.09c14.82-2.07 8.93-19.43 10.13-29.81V263.86c.07-5.47-4.44-10.91-10.13-10.86zM45 253c-12.03 3.79-8.77-7.71-9-15.72V165c12.03-3.79 8.77 7.71 9 15.72V253zm165.46 171.03c-1.95 8.7-8.62 7.4-14.9 6.9-5.5-4.05-4.95-11.35-10.3-17.81l-16.44-28.42c-9.18 15.7-18.73 32.63-27.39 47.35-7.58-3.46-15.47 2.98-15.07-10.12L94.68 303.9c7.17-1.03 18.45-9.23 17.94 3.2l26.01 97 26.02-45.18c5.87 4.88 13.68 4.27 14.99 11.58l18.19 31.6 27.5-102.6c6.69 2.8 20.47 1.56 13.82 12l-29.72 110.77c.94-.46.34 1.77 1.03 1.76zm107.57 8.16L304.6 382h-29.17l-13.45 50.2c-6.66-2.86-20.37-1.74-13.73-12.12l32.2-120.58c6.24 6.4 18.31-3.81 20.15 3.86l33.55 124.41c-5.37 1.47-10.75 2.96-16.12 4.42zM422 316.56V376h-52v56c-6.58-1.6-21.05 4.68-18-6.55V300h70v16.56zM279.8 365c5.63-1.9 21.7 4.2 19.39-3.8L290 326.8m0-24.63c-10.36-6.65-11.57 2.73-13.27 11.25l-30.51 114.25c7.13 1.1 18.32 9.37 17.8-3.07l11.41-42.61h29.16l13.43 50.2c6.73-2.84 20.69-1.54 14.05-12.02l-32.52-120.61c-3.18.87-6.39 1.72-9.55 2.61zM279.8 365l10.2-38.2 10.2 38.2h-20.4zm-54.45-65.5l-27.52 102.6c-7.42-12.6-15.08-26.62-21.96-38.14-7.19-1.9-13.67-8.12-16.46 4.04l-20.77 36.12-28.04-104.6c-6.7 2.8-20.5 1.53-13.86 11.97l32.34 120.57c7.82-3.57 15.06 2.38 16.87-7.83l22.86-39.53 23.02 39.76c-.93 8.45 7.92 5.3 14.2 7.37 4.06-5.36 3.64-12.15 6.14-19.67L241.2 303.9m123.13-3.9c-10.22-2.18-14.88 1.2-12.33 11.8V432c6.58-1.6 21.05 4.68 18-6.55V376h52v-76h-53M36 165c12.03-3.79 8.77 7.71 9 15.72V253c-12.03 3.79-8.77-7.71-9-15.72V165zm334 151h36v44h-36v-44z"/></svg>