<svg xmlns="http://www.w3.org/2000/svg" width="512" height="512"><path d="M195 374c10.21 3.03 9.69-4.67 9-12.53V340h36c3.32-10.16-5.54-8.15-12.53-8H204v-24h42c2.52-9.65-2.75-11.52-11.4-10H195m122 13.06V374c9.65 2.52 11.52-2.75 10-11.4V298c-7.01-.03-15.55-2.19-15.58 7.55-6.5 19.26-13.28 38.43-19.55 57.77-6.85-21.88-14.38-43.54-21.54-65.32-6.25.8-17.56-3.45-14.33 6.84V374c9.65 2.52 11.52-2.75 10-11.4v-52.63L286.8 374c9.25 2.86 11.22-4.4 13.03-11.88L317 311.06zM169.64 430.03c-9.39-7.66-14.53 3.82-16.08 11.74-6.14 17.38-12.79 34.6-18.59 52.09 9.26 7.28 11.08-7.08 13.38-13.44 1.72-7.2 12.56-1.73 18.24-3.43 8.26-1.8 13.24 1 14.04 9.7-1.56 10.41 17.07 12.32 9.88 1.1-6.96-19.24-13.89-38.54-20.87-57.76zM151.74 471c3.86-11.32 7.63-22.76 11.55-34l11.66 34h-23.21zm84.58-19.37c-15.57-17.02-42.98 1.36-37.87 22.35-1.15 20.86 25.53 28.1 40.26 17.86 1.69-14.5-29.59 9-30.74-12.65-4.82-12.16 11.7-5.47 18.6-7.17 14.36 4.36 19.81-9.06 9.75-20.37zM207.22 466c-3.36-22.79 36.05-12.07 21.91.01-7.29 0-14.7.01-21.91-.01zm73.14-18.42c-9.24-11.1-21.41 15.91-20.13-1.3-11.08-3.73-6.24 9.97-7.24 16 .24 10.76-.47 21.74.35 32.36 11.32 5.54 8.54-7.8 8.66-14.37.78-8.65-3.04-19.25 6.06-24.84 5.05-6.55 15.62 5.42 12.3-7.85zm16.74-1.28c-11.36-4.08-5.86 9.88-7.1 16 .31 10.86-.61 22.4.44 32.85 11.45 4 6.57-9.79 7.55-16-.15-10.77.3-21.63-.22-32.33l-.7-.5zm-3.36-19.57c-18.26 7.36 14.75 16.09 2.52.26l-2.51-.26zm50.11 22.89c-6.14-11.27-40.83-.29-28.17 6.49 8.45-12.33 33.75 3.98 20.91 9.89-16.38-4.4-38.02 15.15-20.03 28.08 11.04 9.64 22.65-10.96 25.45 1.31 10.56 1.84 4.34-12.35 6-18.5-.67-9.02 2.23-19.91-4.16-27.27zm-3.85 33c-8.36 16.46-33.6-1.37-13.86-9.62 9.55-3.33 16.92-1.25 13.86 9.65zm31-58.37c-10.96-5.52-7.64 8.14-8 14.39.08 18.66-.16 37.35.12 56 11.1 5.48 7.35-8.15 7.87-14.37 0-18.67-.01-37.37.01-56.02zm27.5-294.18c-14.32 1.45-9.74 17.7-10.5 27.59-3.69 3.21-13.42.39-19.37 1.34-5.28-1.73-17.83 3.8-17.63-3.42V83.42c-6.33-22.48-26.57-2.73-21 12.53V159h-35c-.5-17.05 1.03-34.3-.82-51.22-12.64-17.27-23.9 4.7-20.18 17.76V159h-36V54.97c-6.33-22.48-26.57-2.73-21 12.53V159h-37V83.42c-6.33-22.48-26.57-2.73-21 12.53V159h-35V26.3c-6.33-22.48-26.57-2.73-21 12.53v272.9c6.33 22.48 26.57 2.73 21-12.53V180h35v74.6c6.33 22.47 26.57 2.72 21-12.53V180h37v103.3c6.36 22.45 26.56 2.7 21-12.55V180h36c.5 16.72-1.02 33.65.82 50.24 12.64 17.27 23.9-4.7 20.18-17.76V180h35v74.6c6.33 22.47 26.57 2.72 21-12.53V180h37c.82 10-3.99 26.36 10.5 27.95 14.32-1.45 9.74-17.7 10.5-27.59-.46-14.6.97-29.4-.82-43.88a10.53 10.53 0 0 0-9.68-6.41z"/></svg>