<svg xmlns="http://www.w3.org/2000/svg" width="512" height="512" viewBox="0 0 512 512"><path d="M492.28 276.13c0-.12-.02-.23-.03-.35-.04-.55-.1-1.1-.2-1.64l-.15-.67c-.1-.43-.2-.85-.34-1.27l-.26-.7c-.15-.4-.3-.8-.5-1.17-.1-.23-.22-.46-.34-.7-.2-.38-.45-.76-.7-1.13l-.37-.56c-.4-.55-.84-1.07-1.3-1.56L266.16 38.58c-2.7-2.78-6.36-4.34-10.2-4.34-3.8 0-7.47 1.55-10.17 4.33L23.92 266.37c-.48.5-.9 1.03-1.3 1.57-.14.18-.25.36-.37.54-.25.38-.5.77-.7 1.16-.13.22-.24.45-.35.68-.18.38-.35.77-.5 1.17-.1.22-.18.45-.25.7-.14.42-.25.85-.35 1.28l-.15.65c-.1.57-.17 1.16-.2 1.74l-.03.24c-.04.67-.02 1.34.04 2 .02.23.06.44.1.66.03.34.06.68.13 1.03 11.13 56.14 41.1 107.05 84.44 143 42.74 35.48 96.4 55.2 151.04 55.2 16.12 0 32.37-1.87 48.28-5.2C398.4 453.13 472.3 377.37 492 279.93c.08-.37.1-.8.16-1.16l.08-.62c.06-.67.07-1.36.04-2.02zM298.02 443.3c-14.04 2.93-28.34 4.7-42.52 4.7-94.13 0-176.82-65-203-157h406.9c-22.23 77-83.88 136.18-161.38 152.3z"/></svg>