<svg xmlns="http://www.w3.org/2000/svg" width="512" height="512"><path d="M414.32 476.9c-1.13-60.12-39.89-117.38-95.36-140.65a157.68 157.68 0 0 0-50.95-12.63c-.16-45.75.32-91.52-.24-137.25-3.44-16.8-28.52-8.59-23.76 7.01v130.23c-60.86 3.86-116.92 46.4-137.02 103.97-6.24 18.72-11.46 39.1-8.11 58.72 7.53 16 27.48 2.8 22.93-11.33 1.88-55.54 42.24-106.9 95.65-122.1 52.05-16.31 112.74 3.4 145.22 47.24 18.44 23.77 27.64 53.84 27.8 83.76 5.06 16.36 27.37 8.84 23.84-6.97zM188.4 151c-10.58.94-22.05-2.17-31.92 2.2-12.94 9.48.13 27.08 13.6 22.8 15.56.16 33.76 1.73 44.3-12.43 13.43-15.57 11.51-37.85 9-56.76-4.23-19.39-23.85-31.42-42.98-28.81-9.56 2.43-3.89-10.38-5.4-16 1.4-5.7-2.88-17.07 2.29-19 13.61-.52 27.5 1.1 40.93-.94C233.4 35.42 222.09 14.3 207.8 19c-16.4.52-33.05-1.07-49.3.84-11.93 5.92-6.12 20.54-7.5 31.13.54 14.42-1.15 29.13.97 43.35 6.06 12.01 21.1 6.37 31.83 7.68 13.6-2.54 18.96 12.85 17.19 23.99.41 9.7-.07 23.98-12.59 25.01zm59.53 24.12c12.93 3.26 16.1-11.4 18.3-20.73 3.18-5.3.85-17.87 9.17-16.4h31.63c4.23 11.59 4.66 25.17 12.39 34.95 15.1 9.75 23.68-10.2 16.34-21.56L300.55 27.1c-8.78-19.21-26.59-2.33-26.64 12.1-11.5 41.15-23.61 82.16-34.71 123.4a12.14 12.14 0 0 0 8.73 12.51zm41-100.9L300.2 114h-22.54c3.76-13.26 7.5-26.54 11.27-39.78z"/></svg>