<svg xmlns="http://www.w3.org/2000/svg" width="512" height="512"><path d="M494.93 255.84c.53-81.59-44.25-161.48-114.18-203.52-71.4-44.6-166.64-46.93-239.98-5.51-75.8 40.73-125.3 125.18-123.62 211.25 0 81.52 45.32 161.02 115.47 202.54 69.08 42.43 159.89 45.63 231.8 8.25 74.62-37.13 125.89-115.9 130-199.1.22-4.59.47-9.5.51-13.91zM117.83 97.3c55.79-49.43 138.6-65.16 208.63-39.58a209.15 209.15 0 0 1 67.91 39.8l-138.4 138.4-138.4-138.4.25-.25zM97.45 394.43C45.23 335.9 30.83 247.25 61.7 175.15a211.53 211.53 0 0 1 35.79-57.48l138.38 138.4c-46.14 46.1-92.28 92.32-138.42 138.36zm292.5 23.97c-40.57 33.67-93.96 50.99-146.57 47.47-46.14-2.2-91.14-20.98-125.83-51.36l138.4-138.4L394.38 414.6c-1.45 1.24-3.06 2.66-4.43 3.8zm76.2-151.1c-2.4 46.6-20.94 92.08-51.62 127.2L276.08 256.04 414.5 117.6c33.72 38.6 53.25 89.98 51.5 141.38.93 1.8-.01 5.78.15 8.32z"/></svg>