<svg xmlns="http://www.w3.org/2000/svg" width="512" height="512"><path d="M202.3 45c36.74-.19 73.52.38 110.23-.28 18.7-3.45 11.02-32.35-6.8-27.72-35.42.19-70.87-.38-106.26.28-16.36 3.23-13.9 27.82 2.83 27.72zm107.42 15c-36.75.17-73.53-.35-110.25.26-18.85 3.09-10.81 31.62 6.8 26.74H236v376.9c-11.88 7.98-32.34-20.67-38.7 4.34-.54 16.29 18.5 24.37 32.26 26.19 21.79 5.95 35.34-20.33 55.36-16.65 10.27 16.08 38.61 2.67 23.2-13.98-9.87-14.96-33.3-13.58-45.12-16.03V87c16.51-.17 33.06.34 49.55-.26 16.38-2.57 13.7-27.46-2.83-26.74z"/></svg>