<svg xmlns="http://www.w3.org/2000/svg" width="512" height="512"><path d="M494 259.15c3.12-88.9-50.39-176.03-129.81-215.48-74.9-39.09-170.47-33.59-240.31 14C52.62 104 10.68 190.85 18.44 275.47c6.03 84.3 60.96 162.76 138.16 197.18 50.12 23.35 108.16 27.66 161.42 13.58 78.52-20.5 143.82-83.93 166.47-161.88 6.02-21.04 10.33-43.58 9.51-65.21zm-28-2.92c1.88 83.03-52.3 163.19-129.11 194.08-49.75 20.96-107.77 21.25-157.96 1.59-69.56-26.68-121.66-92.85-131.33-166.7-11.04-74.24 21.6-152.72 81.98-197.27 61.37-47.06 149.24-55.6 218.44-21 71.21 33.84 119.76 110.36 117.98 189.3z"/></svg>