<svg xmlns="http://www.w3.org/2000/svg" width="512" height="512"><path d="M256 261.44c-39.65-.4-78.38 21.57-98.76 55.52-10.75 15.78-15.87 37.05-16.84 56.65-2.78 55.78 40.45 109.03 95.6 117.77 16.8 4.78 32.62 1.79 49.6-2.15 53.66-13.29 92.2-68.95 85.45-123.88-4.9-57.54-57.22-104.96-115.05-103.91zm-97.5 115.63c.1-10.02 2.48-42.75 10.9-20.72l68.12 116.47c-44.87-7.93-79.75-50.25-79.02-95.75zM180.17 316c32.66-44.02 103.97-48.54 142.61-10.06 11.37 8.45 8.37 11.76-3.68 10.06H180.17zm92.45 157.15l74.8-129.97c17.53 44.38-3.58 99.33-46.5 120.42a96.83 96.83 0 0 1-28.3 9.55zM214 57.34c8.7-2.35 3.65-13.75 5-20.46-2.52-9.02 2.9-10.1 10.62-8.88H253c.8 6.73-1.75 14.45 1.56 20.46 11.08 5.03 8.18-10.6 8.44-17.02-.7-7.16 11.14-1.77 15.93-3.44 8.28-1.73 12.16.93 10.07 9.56 1.3 6.52-3.63 17.61 5 19.79 8.7-2.36 3.66-13.75 5-20.47-1.14-6.55 3.48-18.21-5.51-19.86h-79.06c-9.02 2.97-4.22 14.34-5.43 21.51 1.25 5.97-3.52 17.37 5 18.81zm32.2 38.73c2.1 24.27 39.48 29.47 50.16 8.52 4.35-9.59 2.4-20.64 2.3-30.85-5.15-5.36-14.21-1.63-21.1-2.74-21.62.24-43.33-.47-64.9.35-8.75 9.5 8.28 9.33 14.5 8.65 5.92.72 14.7-1.44 18.84 1.06.15 5-.29 10.06.2 15.01zM256 80h33c-.21 9.92 2.46 23.74-9.87 27.62-15.33 6.34-26.27-9.03-23.13-22.79V80zm-18 55.97c.65 11.08-1.34 22.71 1.06 33.42 10.08 4.44 6.23-11.2 6.94-17-1-6.74 2.3-15.2-2.32-20.61-2.9-1.4-5.92 1.17-5.68 4.19zM214.43 209h80.12c11.27-6-4.49-13.57-9.31-18.6-3.79-8.75-20.13-4.76-9.1 2.56 11.07 5.5-.77 3.88-6.88 4.04-18.84.39-37.92-.78-56.6.59-4.16 2.74-3.47 10.47 1.77 11.41z"/></svg>