<svg xmlns="http://www.w3.org/2000/svg" width="512" height="512"><path d="M114.42 334c16.97-.66 34.3 1.4 51.01-1.2 17.66-7.61 5.95-33.83-11.42-28.8H130v-41c11.61-.61 29.11 3.77 32.81-11.55 3.01-15.52-14.2-19.08-25.83-17.45-10.25 3.36-6.33-7.46-6.98-13.7-.83-7.98-.98-15.27 9.13-12.3 11.7-1.1 27.94 4.32 34.12-9.24 6.15-15.4-11.14-23.4-23.8-20.76-13.54.56-27.37-1.22-40.7 1.1-13.1 6.19-7.55 22.27-8.75 33.75.19 36.6-.38 73.22.29 109.79 1.16 6.6 7.48 11.53 14.13 11.36zm72.38-1.34c13.1 7 21.38-7 25.78-17.13l15.11-28.32c7.94 14.15 14.7 29.05 23.42 42.71 15.5 15.06 33.98-9.8 20.28-23.15L244.3 256c10.39-19.9 21.49-39.45 31.43-59.55 5.96-19.26-24.85-25.98-29.18-7.03l-18.88 35.37c-8.46-14.48-14.73-30.51-24.73-43.9-14.94-12.18-32.11 10.6-19.5 23.35L211.06 256c-10.4 19.89-21.49 39.45-31.43 59.55-2.03 6.49 1.12 14.03 7.17 17.1zm108.7 1.72c14.82 0 15.32-16.3 14.5-27.24-.2-39.26.39-78.56-.3-117.8-3.67-19.85-33.89-11.15-28.7 7.53.2 41.92-.39 83.88.3 125.79 1.2 6.63 7.43 11.86 14.2 11.72zM329.63 208c5.38 1.5 16.8-3.03 18.37 2.28.2 37.46-.41 74.95.31 112.38 4.02 19.72 34.65 11.39 29.69-7.53V208c11.39-.98 27.21 4.07 33.1-9.24 6.16-15.4-11.13-23.4-23.8-20.76-20.2.2-40.45-.4-60.63.31-17.01 3.37-14.47 29.79 2.96 29.69zM480.6 100H31.4c-14.8.25-15.16 16.66-14.4 27.64.19 90.75-.38 181.53.29 272.25 2.91 15.2 19.9 11.83 31.23 12.11H480.6c14.8-.25 15.16-16.66 14.4-27.64-.19-90.75.38-181.53-.29-272.25-1.18-6.65-7.22-12.23-14.11-12.11zM466 382H46V130h420v252z"/></svg>