<svg xmlns="http://www.w3.org/2000/svg" width="512" height="512"><path d="M202.16 224.95c6.23-4.63 11.67-10.74 19.26-12.87-4.68-3.15-11.15 4.38-15.48 7.42-5.3 8.22-9.6-1.19-14.21-4.96-5.6-4.57-9.58-11.95-16.56-14.2-12.76 4.04.76 14.54 5.8 19.51 2.48 4.77 14 8.98 9.67 14.17-1.53 2.83-12.23 13.34-6.5 11.46 4.3-2.97 7.93-16.51 12.84-9.64 7.24 6.85 13.76 14.56 21.47 20.83 7.84-.32 12.05-10.02 20.2-13.03 7.48-2.23 15.9-4.09 23.75-4.14 9.16 1.96 19.17 1.78 26.34 8.66 6.54 5.55 13.34 13.37 19.8 2.54l16.83-17.55c5.85 6.84 13.3 12.74 14.68 22.17 2.64 5.68 2.91 13.85 7.64 17.7-.71-5.54-4.33-12.03-5.8-18.08-1.38-9.86-9.07-16.09-15.22-23.19 7.26-8 15.45-15.28 22.13-23.74-.07-14.74-14.1-3.11-18.27 3.32l-24.1 25.14c-7.35-5.78-14.3-12.37-23.96-13.66-6.9-3.7-14.15-1.45-3.07 1.07 8.27 1.77 15.8 4.95 21.86 11 8.82 4.25-5.42 9.2-6.66 14.9-7.08-4.76-13.79-10.5-22.8-10.51-8.44-2.73-16.9-1.68-25.35.42-8.17.02-13.88 6.13-20.45 10.09-.91-5.64-16.25-10.78-7.88-14.83 8.16-7.55 18.82-9.95 29.2-12.92-.7-4.06-11.4 2.52-15.89 2.8-7 1.8-12.02 7.66-18.15 11.23-3.7-3.7-7.43-7.4-11.12-11.11zM146.8 24H180c.94 8.32-2.14 17.89 2.08 25.23 12.42 6.5 11.4-10.25 10.92-17.92-3.1-9.8 6.32-7.1 12.82-7.31 9.07-2.44 10.5 2.74 9.18 10.69-3.58 8.64 6.4 24.85 10 9.44-.34-9.13.7-18.44-.55-27.45-7.31-5.13-17.48-1.65-26.1-2.67-17.9.23-35.89-.46-53.76.34-5.85 1.82-3.63 10.26 2.21 9.65zm0 70c-14.29 6.83 2.92 15.23 11.77 12 20.75-.33 41.65.66 62.31-.5 10.64-10.49-7.2-13.11-15.03-11.5-5.74-.68-16 3.16-12.85-6.41 1.3-5.34-3.82-17.1 5.34-14.59 8.04-.8 16.9 1.75 24.33-1.57 6.09-11.77-10.93-9.38-17.9-9.43-20.05.28-40.2-.56-60.18.42-10.58 10.12 7.67 11.92 15.04 10.58H180v21h-33.2zm52 66.6c16.06.75 28.54-14.8 26.2-30.2 1.98-8.87-2.45-18.11-12.75-15.41-22.54.23-45.15-.45-67.65.34-10.5 9.68 8.1 10.74 15.03 9.66 5.28 1.3 16.95-3.8 14.37 5.34 2.88 8.37-4.79 9.64-10.89 11.97-6.94 3.67-15.9 4.59-21.27 10.43-.89 13.67 14.18 4.34 21.01 1.73 9.16-4.89 16.54-7.8 23.04 2.85a27.2 27.2 0 0 0 12.91 3.29zM184 125h31c.91 9.77.16 22.88-12.59 23.99-14.16 3.05-20.79-11.03-18.41-22.74v-1.07zm182.22 285c-20.9.32-41.93-.64-62.74.49-6.34 5.4-2.36 15.12-3.48 22.56-3.88 13.03 14.68 13.91 11 .25.73-5.84-3.21-16.36 6.41-13.3 4.98 1.62 16.76-3.56 16.59 3.2-4.2 9.49 8.43 23.53 12 8.7-.1-6.56-2.09-15 7.48-11.9 9.6-3.15 5.9 7 6.52 12.82-4.17 13.4 16.75 14.52 13 .48-1.28-7.57 3.43-18.14-4.4-22.81zm2.78 74.77l-21.48-12.08c7.65-4.64 15.97-8.31 23.19-13.56 4.2-14.13-12.6-7.06-18.46-2.12-5.74 2.5-11.48 7.91-17.22 8.65-9.62-5.08-18.76-11.24-28.68-15.62-14.3 3.69.47 14.42 7.74 16.85 5.8 3.16 14.84 6.32 3.8 9.47-5.84 4.65-16.45 5.79-17.83 14 4.79 10.89 15.4-.87 22.4-3.57 5.73-1.66 11.47-10.3 17.22-5.5 8.92 4.53 17.18 10.7 26.55 14.1 5.77.17 7.77-8.07 2.77-10.62zm-59.03-119.11c-1.55-3.53-9.75 5.42-14.35 5.67-7.73 4.1-15.7 7.22-24.6 6.83-3.22-.15-17.4 1.74-7.45 1.64 10.13-.99 20.67.43 29.53-5.43 5.78-2.65 11.79-4.84 16.87-8.71zm38.3-67.22c-3.09 13-6.76 26.19-12.02 38.32-2.94 2.07-13.3 13.77-4.94 7.6 5.47-4.33 9.2-9.77 10.47-16.7 3.4-9.4 6.1-19.01 8.35-28.75.28-1.45-1.7-1.52-1.86-.47zm-101.09-93.41c12.03-2.81 24.52-1.35 36.49.48 4.28.95 13.55 9.26 14.87 5.3-8.32-4.24-16.4-9.34-26.14-8.53-8.72-1.25-17.64-1.05-26.1 1.25-.57.66.18 1.57.88 1.5zm-73.8 66.21c-2.76 5.5-1.65 13.5-2.93 19.95 1.6 11.05-.31 23.65 6.63 33 1.47-4.74-4.75-11.01-3.4-16.99-1.8-11.66-1.04-23.3.55-34.94.24-.15-.51-1.38-.85-1.02zm72.06 88.96c-9.82-2.96-19.6-6-27.4-12.98-7.84-4.14 6.79-9.07 7.95-14.79 7.08 4.76 13.78 10.5 22.78 10.5a39 39 0 0 0 23.24-.24c8.7-.4 15.17-6.58 22.52-10.48 1.18 5.95 16.02 11.07 6.36 15.43-7.31 7.86-17.83 9.5-27.63 12.55.85 4.08 11.37-2.53 15.9-2.78 6.9-1.7 11.42-7.96 17.27-11.66 11.72 11.8 22.66 24.5 34.88 35.72 14.69.46 3.65-13.97-2.57-18.42-12.25-12.37-23.75-25.63-36.49-37.44-7.75.24-12.4 9.5-20.66 12.15-6.74 3.4-14.96 4.04-22.34 5.14-9.47-2.12-19.94-1.73-27.4-8.85-6.5-5.45-13.22-13.28-19.78-2.7l-18.02 18.01c-8.5-9.52 1.94 2.44-5.13 5.12-6.22 6.62-13.35 12.52-18.99 19.62-.27 14.76 14.03 3.44 18.34-2.91 4.78-2.95 9.18-12.98 14.23-11.23 7.07 6.35 14.67 11.8 23.96 14.35 8.31 4.94 10.12.57.8-1.72-9.78-2.66-17.52-8.81-25.06-15.31 4.89-2.67 8.98-14.42 14.6-8.65 7.3 6.35 15.98 10 25.25 12.43.98.63 5.88 1.98 3.39-.86zm-11.64-92.75c8.57-4.88 17.53-10.45 27.52-11 8.65 1.53 16.16 5.52 23.05 10.86 2.66-2.7-8.3-7.28-11.6-9.55-6.62-1.87-13.3-5.15-19.94-1.44-7.37 1.52-13.75 6.02-19.93 9.96-.37.28.51 1.58.9 1.17zm10.82 56.59c7.98 1.53 15.17 6.72 23.15 3.63 7.78-.1 12.6-7.29 18.06-11.8-2.41-1.26-2.52-11.89-10.17-15.53-4.68-4.66-12.45-9.35-3.26-13.84 4.46-5.47 18.2-12.34 9.06-19.54-8.15-2.9-10.8 12.2-18.46 6.04-6.65-2-13.14 5.1-17.1-2.45-9.42-11.28-16.6 6.13-5.15 10.93 2.74 4.56 14.61 9.23 6.1 13.65-4.27 5.8-16.3 10.39-11.5 18.79 8.07 8.38 12.67-12.49 19.26-3.92 6.8 2 12.85-4.95 16.92 2.47 6.28 6.94 14.02 3.03 3.24 10.42-4.91 2.76-11.96 3.47-17.58 2.41-8.66-1.12-16.08-5.07-22.89-10.39-4.48 1.66 8.72 7.02 10.32 9.13zM263.85 308c-5.73 1.07-16.63-.61-7.18-6.27.62-5.44 11.68 6.06 7.18 6.27zm-4.9-24.1c-6.31-4.37-8.9-10.72 1.24-8.9 11.57-.84 2.16 5-1.24 8.9z"/></svg>