<svg xmlns="http://www.w3.org/2000/svg" width="512" height="512"><path d="M340.93 435h-94.9l-32.58-22.02 111-55.67c13.88-8.97-.03-21.5-10.73-24.15l-97.09-45.89 107.82-53.9c13.8-8.82.1-21.32-10.4-24.22L216.6 160.4c36.61-17.55 73.68-34.27 110-52.34 10.37-10.12-3.18-19.24-11.56-23.94-4.06-3.16-16.39-8.83-4.34-7.12 15.7-1.13 32.77 3.3 47.04-4.95 19.68-11.52 16.42-44.32-5.12-51.77-16.13-4.3-33.2-1.46-49.78-2.28-44.94.1-89.89-.2-134.82.15-22.94.86-35.79 31.37-20.15 48.25 12.68 15.17 33.52 9.48 50.72 10.6h67.49l32.1 21.4c-37.56 18.05-75.65 35.14-112.87 53.8-10.56 11 4.29 19.62 13.63 23.13l97.02 48.52c-36.88 18.75-74.32 36.53-110.84 55.88-10.32 11.24 4.71 19.53 14.13 22.82l96.16 45.38c-36.66 18.6-73.8 36.36-110.16 55.49-10.06 10.2 3.28 19.4 11.65 24.21 4.05 3.24 16.5 9.07 4.47 7.36-15.72 1.13-32.8-3.3-47.1 4.95-19.69 11.51-16.44 44.33 5.11 51.78 16.13 4.28 33.2 1.45 49.78 2.27 44.95-.1 89.9.2 134.84-.15 22.93-.88 35.74-31.38 20.12-48.25A30.25 30.25 0 0 0 340.93 435z"/></svg>