<svg xmlns="http://www.w3.org/2000/svg" width="512" height="512"><path d="M274.95 253.1c-.66-37.1-31.51-70.43-68.44-73.95-36.64-4.96-74.1 20.39-83.27 56.18-10.5 35.17 8.33 75.82 41.87 90.66 32.32 15.7 74.6 4.87 95.16-24.72 10.13-13.77 15.31-31.33 14.68-48.17zM165.9 209.27c18.65-13 45.2-13 63.78.12l-31.93 31.93c-10.54-10.67-21.68-21.41-31.85-32.05zm-14.8 78.66c-13.16-18.63-13.1-45.26.01-63.89L183.04 256c-10.64 10.64-21.33 21.3-31.94 31.93zm77.16 15.62c-18.65 12.35-44.18 11.99-62.46-.93l31.95-31.95 31.94 31.94c-.62-.75-.88 1.16-1.43.94zm25.9-44.56c-.55 10.3-4 20.41-9.84 28.91L212.4 256l31.94-31.95a56.5 56.5 0 0 1 9.82 34.94zm-105.3 73.81c-36.55-19.23-54.82-66.15-40.75-105a87.92 87.92 0 0 1 40.84-48.71c15.55-13-7.42-25.57-17.5-13.7-37.6 24.05-56.77 72.7-45.74 115.93 7.18 29.99 27.69 57.1 55.56 70.6 11.42 3.15 18.23-13.55 7.59-19.12zm198.32 46.38c-4.06-6.16-13.63-5.36-17.6.5-11.19-10.52-21.15-22.53-33.18-32.02-21.35-3.09-13.01 20.37-1.25 26.96l19.75 19.75c-7.3 4.87-5.82 16.48 2.34 19.7l112.08 80.04c-27.38-38.3-54.75-76.7-82.14-114.93zm-54.72-214.1c11.3-3.23 17.65-14.87 26.5-22.2 4.52-2.43 8.84-14.03 13.47-7.84 7.22 5.65 15.75-.94 18.82-7.96L429.3 17.87c-38.86 28.01-78.27 55.38-116.78 83.79-4.3 4.7-2.64 12.4 2.34 15.94-10.52 11.2-22.54 21.16-32.02 33.2-2.92 6.5 2.5 14.53 9.62 14.28z"/></svg>