<svg xmlns="http://www.w3.org/2000/svg" width="512" height="512"><path d="M245.55 201.2c-11.42-9.2-19.74 6-27.47 12.54l-27.33 27.32c-14.6-13.89-27.9-29.37-43.36-42.2-21.59-3.18-13.35 20.6-1.41 27.28L175.82 256c-13.89 14.6-29.37 27.89-42.2 43.35-3.17 21.59 20.62 13.36 27.3 1.4l29.84-29.83c14.6 13.89 27.9 29.36 43.36 42.2 21.57 3.18 13.36-20.62 1.4-27.3L205.68 256c13.89-14.6 29.36-27.9 42.19-43.37 1.6-3.82.65-8.56-2.32-11.43zM393 443.44c-16.26-22.1-31.4-45.2-48.35-66.69-4.81-3.75-11.98-1.94-15.43 2.79-11.17-10.5-21.07-22.53-33.11-31.97-21.59-3.18-13.35 20.6-1.41 27.29l19.61 19.63c-7.7 5.39-5.11 17.28 3.46 20.49 37.35 26.64 74.66 53.4 112 80.02L393 443.44zM148.52 332.7c-36.87-19.42-54.97-67-40.29-106a88.02 88.02 0 0 1 40.4-47.48c15.8-13.11-7.48-26.04-17.7-13.95-39.4 25.08-58.44 77.22-44.31 121.76 8.28 27.74 28.04 52.43 54.2 65.1 11.63 3.2 18.55-13.76 7.7-19.43zM292.1 165.2c11.4-3.22 17.8-14.94 26.7-22.33 4.44-2.3 8.65-13.8 13.21-7.78 6.72 5.88 15.06-.06 18.44-7.05L429.76 17c-39.18 28.2-78.87 55.81-117.71 84.42-4.31 4.72-2.75 12.47 2.24 16.07-10.5 11.18-22.53 21.1-31.97 33.13-2.97 6.7 2.57 14.72 9.78 14.58zm137.55 329.78l.1.03-.05-.02"/></svg>