<svg xmlns="http://www.w3.org/2000/svg" width="512" height="512"><path d="M460.24 16H52.76C37.51 17.87 43.04 35.45 42 46.05v438.19c1.87 15.25 19.45 9.72 30.05 10.76h388.19c15.25-1.87 9.72-19.45 10.76-30.05V26.76c.14-5.76-5-10.9-10.76-10.76zm-328 458c-.8-49.26 30.34-97.37 76.41-115.44 50.31-21.67 113.66-4 145.42 40.66 16.07 21.42 24.13 48.15 24.31 74.79-82.04 0-164.14.01-246.14-.01zM448 474h-48.62c2.18-60.28-38.96-118.58-95.95-137.89-11.71-4.2-24.2-6.7-36.43-7.87V205c-7.47-23.64-27.9-1.78-22 14.16v109.1c-58.51 3.28-111.95 46.25-127.95 102.6-4.53 13.34-5.03 27.89-6.99 41.31-.2 4.2-14.73.68-20.64 1.84H63V38h385v436zM193.65 171c-11.05 1.49-25.87-4.41-32.87 6.78-4.56 17.88 16.7 15.4 27.91 15.22 24.3 3.1 42.58-21.82 39.3-44.53 3.3-22.36-14.08-47.16-38.2-44.47-11.54 3.8-7.01-8.47-7.79-15.43 1.57-6.43-4.6-20.6 6.43-17.57 11.87-1.17 25.19 2.88 35.76-3.27 11.48-17.44-12.14-20.61-24.33-18.73-11.04.5-22.33-1.08-33.2.95-9.66 8.71-4.23 23.28-5.66 34.93 1 12.31-2.4 25.64 2.62 37.06 12 8.67 31.87-4.36 40.9 10.42 3.38 11.14 5.33 26.8-3.75 35.88-.57.23-7.13 5.35-7.12 2.76zm54.4 21.23c15.17 1.94 14.6-16.43 18.46-26.45-.66-11.19 10.23-7.18 17.6-7.78 6.97 1.54 19.66-4.45 19.71 6.2 4.22 9.86 2.58 26.21 15.97 28.22 17.1-2.06 8.1-20.44 5.43-30.85-10.5-35.69-19.6-71.89-30.99-107.24-13.3-13.84-21.98 6.46-23.43 18.02l-30.19 106.58c-1.73 5.52 1.85 11.87 7.44 13.3zm37.34-92.7L296 137c-5.9-1.54-20.04 3.16-20.52-2.47l9.91-35z"/></svg>