<svg xmlns="http://www.w3.org/2000/svg" width="512" height="512"><path d="M266.7 172H342c.49 18.24-1 36.71.8 54.8 12.43 15.13 21.5-5.37 18.2-17.17V172h52c.49 18.24-1 36.71.8 54.8 12.43 15.13 21.5-5.37 18.2-17.17-.47-16.16.96-32.53-.75-48.56-6.87-8.66-19.36-3.8-29.05-5.07H266.7c-11.51-.85-11.51 16.85 0 16zm131.86 84.77c-21.76-5.46-43.27 8.3-52.26 27.79-8.7 13.79-16.32 28.63-25.7 41.73-20.77 18.3-51.53-6.94-42.52-30.71 1.88-12.57 28.8-38.78 1.91-37.82-13.65 14.74-27.17 39.6-18.56 59.05 5.14 32.74 51.23 44.1 73.16 20.69 8.29-10.24 13.4-22.77 20.83-33.79 8.18-13.41 16.1-32.16 35.14-30.23 27.74 2.08 30.42 37.28 18.41 56.47.54 26.27 25.26 3.04 23.05-12.54 6.02-18.25-.58-37.72-13.9-50.93a43.86 43.86 0 0 0-19.56-9.71zM478.72 100H198.97c-16.55-.41-19.38 17.2-17.97 29.94V249H25.24c-20.02 6.46-.14 21.76 12.6 17H181c.25 43.9-.5 87.86.37 131.74 3.07 15.59 20.2 14.68 32.48 14.26h264.87c16.48.07 18.45-17.85 17.28-30.42V117.35c.3-9.37-7.89-17.65-17.28-17.35zM462 378H215V137h247v241z"/></svg>