<svg xmlns="http://www.w3.org/2000/svg" width="512" height="512"><path d="M197.02 136H258c.48 14.25-.98 28.77.77 42.85 11.75 12.66 19.13-5.32 16.23-15.83V136h42c.33 14.27-.68 28.67.54 42.85 10.96 12.78 15.65-6.74 13.46-15.83-.41-12.38.84-24.97-.67-37.22-6.92-6.77-17.89-2.66-26.76-3.79H197.02c-9.32-.3-9.3 14.32 0 13.99zm106.6 69.47c-16.63-4.54-31.95 6.35-41.94 17.96-7.17 11.82-13.24 24.63-21.1 35.81-16.1 14.42-41.62-4.76-33.93-23.85 2.66-9.27 22.05-30.65 1.08-29.15-11.29 11.61-19.13 29.16-16.93 45.43 6.28 14.1 18.83 27.74 36 26.72 15.12.44 28.87-9.92 33.61-23.98L273 232.4c9.9-18.25 43.63-17.98 43.53 6.94 3.97 9.58-15.3 38.68 7.2 30.72 10.14-17.16 12.67-39.56-2-54.5a34.82 34.82 0 0 0-18.11-10.09zM194.48 373.86c-13.9 10.45 5.9 17.6 14.88 10.79 39.22-11.36 78.8-21.78 117.8-33.73 9.84-10.35-6.72-14.82-14.65-16.32-37.84-10.7-75.67-21.42-113.51-32.13-17.82 1.48-4.5 18.08 7 17.09 4.77 3.05 16.3 1.03 16.02 7.88v38.47c-9.18 2.64-18.36 5.33-27.54 7.95zM239 328.2l59.47 16.82L239 361.85V328.2zM369.63 16c-76.7.2-153.46-.4-230.14.3C124.7 19.87 128.44 36.68 128 48v433.4c-.04 14.37 15.55 15.58 26.34 14.6 72.72-.2 145.48.4 218.17-.3 14.8-3.57 11.05-20.38 11.49-31.7V30.6c.14-7.68-6.65-14.78-14.37-14.6zM355 467H155V46h200v421z"/></svg>