<svg xmlns="http://www.w3.org/2000/svg" width="512" height="512"><path d="M126.87 280c86.86-.08 173.74.16 260.6-.12 22.37-1.05 27.78-35.52 6.44-43.1-14.86-3.56-30.56-1-45.79-1.78-74.51.08-149.04-.16-223.55.12-22.39 1.04-27.81 35.53-6.44 43.1a22.34 22.34 0 0 0 8.74 1.78zm86.1-112c30.2-.3 60.47.6 90.63-.46 22.24-3.27 24.05-38.07 2.15-43.53-20.2-2.2-40.8-.45-61.16-1.01-13.42.76-27.3-1.76-40.36 1.77-22.45 9.1-15.45 43.46 8.74 43.23zm258.3 176c-144.27.08-288.56-.16-432.83.12-22.39 1.04-27.81 35.53-6.44 43.1 14.86 3.56 30.56 1 45.79 1.78 131.92-.08 263.86.16 395.78-.12 22.38-1.04 27.8-35.52 6.44-43.1a22.33 22.33 0 0 0-8.74-1.78z"/></svg>