<svg xmlns="http://www.w3.org/2000/svg" width="512" height="512"><path d="M308.84 460.8c-9.19-13.6-32.57-9.78-40.84-15.14V95.13c6.5-.38 11.8-5.96 16.99-9.41 5.08-7.1 10.2-14.18 11.03-23.15 2.26-6.78-1.08-14-2.57-20.61-4.2-6.68-7.51-14.18-15-17.77-5.59-4.93-13.7-5.22-20.65-6.44-8.1 1.8-16.91 1.96-23.04 8.3-6.59 3.79-9.51 11.46-13.2 17.7-1.7 7.6-4.47 15.19-1.24 22.79 1.1 8.12 6.45 15.02 11.32 21.28 4.66 3.92 10.41 7.5 8.33 14.49v360.83c-12.82 8.63-34.25-21.35-41.3 4.4-.89 16.55 18.6 24.82 32.49 26.65 21.01 5.46 33.86-17.21 52.33-17.55 9.95 12.96 36.18 8.74 28.55-11.06 2.32.03-5.16-5.3-3.2-4.78z"/></svg>