<svg xmlns="http://www.w3.org/2000/svg" width="512" height="512"><path d="M256 207.96c-66.01-1.25-127.93 49.4-140.13 114.23-12.45 56.64 14.05 118.82 63.29 149.39 10.28 8.35 24.11 11.94 36.45 16.62 59.2 18.42 128.26-7.4 160.86-60.18 36.27-54.35 27.7-132.84-19.37-178.13-26.43-26.64-63.55-42.13-101.1-41.93zM175 436.3c-36.92-34.32-48.57-93.17-24.23-137.93 5-9.15 19.16-32.8 24.23-29.36V436.3zm81-202.15c54.68-1.06 105.77 41.56 114.84 95.43l-154.44-88.5a116.13 116.13 0 0 1 39.6-6.93zm-52 29.16l154.86 88.78L204 440.8V263.31zm52 204.52c-9.63-.36-35.62-1.73-34.33-7.78l148.71-85.2c-10.4 53.07-60.2 93.76-114.38 92.98zm-45.72-404c30.86.4 61.78.06 92.66.17 16.01-7.02-1.96-17.83-12.2-14-27.37-.2-54.78.4-82.13-.3-19.58-.75-9.92-22.75-18.99-31.2-14.14-1.87-9.74 17.94-7.27 26.08 4.49 11.2 16.05 18.6 27.93 19.25zm23.56 57.84c7.03 31.15 53.75 36.57 70.74 10.97 9.07-12.56 5.85-28.11 6.43-42.61C307.5 79 293.92 84.22 285.19 83h-97.96c-15.98 7.05 2 17.82 12.22 14H231c1.03 8.07-2.54 18.02 2.84 24.67zM243 97h55c-.16 12.73 2.69 28.93-11.71 35.4-15.5 8.9-41.14.2-40.65-19.95-4.97-3.05-1.71-10.32-2.64-15.45z"/></svg>