<svg xmlns="http://www.w3.org/2000/svg" width="512" height="512"><path d="M482 89H30c-13.87.7-13.6 16.21-13 26.48.18 19.17-.36 38.37.27 57.5 4 14.08 20.51 9.12 31.38 10.02H243v57c-6.74-2.9-15.04 3.05-15.27 10.6 3.23 28.67 9.14 57.21 13.4 85.83 4.73 28.73 9.74 57.4 14.58 86.11 9.44-57.32 19.52-114.58 28.56-171.93-.2-7.5-8.73-13.75-15.27-10.61v-57c71.85-.17 143.73.34 215.56-.25 14.47-3.43 9.61-20.12 10.44-30.96-.18-17.24.36-34.51-.27-51.72-1.24-5.88-6.54-11.05-12.73-11.07zm-13 69H43c-3.37-10.7 6.87-7.8 13.99-8H469v8zm0-33H43c-2.67-9.89 3-11.45 11.66-10H469v10z"/></svg>