<svg xmlns="http://www.w3.org/2000/svg" width="512" height="512"><path d="M285 247.3c-.9-7.87-9.33-11.85-16-12.3-.17-19.95.33-39.94-.26-59.87-3.42-18.52-30.93-9.67-25.74 7.4V235c-9.27-.14-19.05 8.82-15.54 18.87 9.5 57.14 19 114.29 28.54 171.43 9.57-59 20.17-117.9 29.1-176.94l-.12-1.06zM482.5 86.7c-14.33.08-14.16 15.92-13.5 26.32 3.4 10.76-7 7.72-14.1 7.98H43c-1.28-11.25 4.41-26.98-8.27-33.25C19.9 82 13.67 99 16 110.67c.18 20.02-.36 40.08.28 60.08 3.75 18.39 31.7 9.92 26.72-7.4 1.45-5.96-4.21-19.03 5.87-16.35H469c1.3 11.3-4.44 27.1 8.27 33.4 14.83 5.76 21.06-11.24 18.73-22.92-.18-20.02.36-40.08-.28-60.08a13.57 13.57 0 0 0-13.22-10.7z"/></svg>