<svg xmlns="http://www.w3.org/2000/svg" width="512" height="512"><path d="M271.65 296.5c1.9 12.74 16.88 7.35 25.82 8.5h124.58c16.83-4.7 2.37-19.26-7.86-21.55l-52.49-27.21c21.98-11.75 44.68-22.38 66.2-34.86 8.46-14.1-10.51-15.77-20.05-14.38H279.72c-18.83 7.28.66 21.66 13.01 17h96.22c-16.71 8.87-33.84 17.03-50.3 26.33-8.62 10.82 8.22 15.7 15.52 19.82L388.95 288H279.72c-4.47-.04-8.12 4.16-8.07 8.5zM478.43 114c-86.1.21-172.24-.43-258.3.32-16 3.93-11.5 22.36-12.13 34.59V241h-94V114c17.92-.7 36.2 1.47 53.87-1.25 19.33-7.94 6.53-36.23-12.19-30.75-42.06.21-84.17-.43-126.2.32C7.9 86.3 16.97 119.46 37.44 114H82v284c-18.48.68-37.32-1.45-55.55 1.25-19.33 7.94-6.53 36.23 12.19 30.75 42.06-.21 84.17.43 126.2-.32 21.58-3.98 12.5-37.14-7.97-31.68H114V273h94c.2 37.54-.39 75.1.3 112.62 3.08 15.8 21 11.96 32.79 12.38 80.2-.2 160.44.4 240.61-.3 15.24-2.45 13.52-19.15 13.3-30.68V129.97c.16-8.77-7.98-16.17-16.57-15.97zM463 366H240V146h223v220z"/></svg>