<svg xmlns="http://www.w3.org/2000/svg" width="512" height="512"><path d="M462.34 314.2l-88.64-47.83 88.64-44.32c16.11-13.99-3.08-31.03-18.94-26.05-60.79.27-121.67-.53-182.4.4-17.23 9.11-5.45 35.47 12.43 29.6h138.33c-23.11 11.34-46.68 21.85-69.5 33.71-10.78 12.34 5.42 23 16 27.24l53.5 29.06c-50.24.25-100.57-.5-150.76.38-17.44 8.9-5.06 34.49 12.43 28.62H457.5c10.61-4.16 15.2-23.81 4.84-30.81zm-266.76-55.02c34.05-68.5 68.76-136.73 102.4-205.42 6.31-18.2-9.28-41.66-29.35-37.76-68.7.25-137.48-.5-206.14.38-17.48 6.65-24.31 29.7-13.1 44.72l97.91 196.93c-34.08 68.65-68.67 137.06-102.42 205.85-6.45 17.34 10.39 35.76 28.09 32.12h205.21c24.41-1.38 25.45-30.48 12.7-45.52l-95.3-191.3zM100.22 75h142.44l-71.22 142.43L100.22 75zm0 391l71.22-142.43L242.64 466H100.22z"/></svg>