<svg xmlns="http://www.w3.org/2000/svg" width="512" height="512"><path d="M493.93 265.05c-1.7-79.87-46.72-157.14-115.67-197.6-70.34-42.94-163.15-44.96-235.33-5.22-71.94 38.05-120.85 115.31-124.5 196.6-.85 68.55-.11 137.17-.36 205.75.64 15.93 18.94 13.5 30.16 13.44 144.74-.17 289.5.33 434.22-.25 15.87-3 10.81-21.18 11.62-32.73-.1-59.97.19-120.15-.14-179.99zM48.48 245.47c8.72-74.54 60.96-141.78 131.1-168.54 70.6-28.52 156.1-14.04 213.2 36.4 40.25 34.52 66.4 84.89 71.37 137.69H47.9c.2-1.85.4-3.7.58-5.55zM465 450H47V279h418v171z"/></svg>