<svg xmlns="http://www.w3.org/2000/svg" width="512" height="512"><path d="M380.8 474.5a269.99 269.99 0 0 0-45.82-119.2c38.91-31.2 55.99-86.39 41.29-134.07a127.07 127.07 0 0 0-42.32-63.17c26.44-37.68 43.47-82.3 47.41-128.23-1.36-19.74-32.04-15.16-29.4 3.8-9.12 76.45-57.86 146.6-126.2 182.04-26.53 14.3-55.93 22.43-85.63 26.62-12.07 3.65-12.75 22.53-.89 26.92 18.77 3.58 37.95 6.52 55.93 13.52 74.9 26.25 134.07 92.24 152.04 169.54 3.42 11.55 3.6 23.85 6.87 35.32 8.16 16.34 33.18 3.61 26.75-12.75l-.05-.43zm-46.82-160.14a102.04 102.04 0 0 1-16.78 18.02 269.61 269.61 0 0 0-110.83-76.41 269.4 269.4 0 0 0 109.7-75.06c34.49 26.9 46.42 78.02 27.33 117.38a95.29 95.29 0 0 1-9.42 16.07z"/></svg>