<svg xmlns="http://www.w3.org/2000/svg" width="512" height="512"><path d="M196.85 195.54c-8.98-8.8-18.53 1.4-24.59 8.16l-35.88 35.89c-15.34-15.13-30.27-30.72-45.87-45.55-13.64-9.05-25.38 13.4-11.64 20.88L119.95 256c-15.12 15.35-30.71 30.28-45.54 45.9-9.04 13.64 13.4 25.36 20.89 11.63l41.08-41.09c15.34 15.12 30.25 30.71 45.86 45.53 13.64 9.05 25.38-13.42 11.63-20.89L152.8 256c15.12-15.34 30.7-30.26 45.54-45.86a11.66 11.66 0 0 0-1.49-14.6zm142.7 85.86c-7.85-.7-13.53 7.26-12.56 14.55-27.01.16-54.06-.31-81.06.23-16.04 3.18-8.4 27.24 6.54 22.77H327c-1.26 9.08 7.84 17.3 16.85 13.67l151.64-25.3c-51.96-8.61-104.07-17.46-155.94-25.92zM248.3 215H327c-1 9 8.12 16.39 16.85 13.48 50.62-8.14 101.21-16.44 151.72-25.28-52.52-8.7-105-17.88-157.54-26.28-7.06.25-11.7 7.5-11.07 14.08-27.01.17-54.06-.34-81.06.25-13.45 3-11.5 23.6 2.4 23.75zM89.74 340.73c-38.07-20.16-58.57-67.6-46.92-109.12 6.56-26.42 25.23-48.83 48.95-61.8 11.97-10.02-5.23-27.85-16.18-17.23-41.69 23.85-65.73 74.36-57.76 121.75 5.53 37.03 29.54 71.4 63.34 87.84 13.27 3.44 20.02-15.24 8.57-21.44z"/></svg>