<svg xmlns="http://www.w3.org/2000/svg" width="512" height="512"><path d="M222.7 252.43c-1.21-37.1-28.94-71.24-65.17-79.58-37.4-9.99-79.77 9.36-96.76 44.11-18.65 34.83-8.72 81.7 22.59 105.83 25.76 21.13 63.81 24.95 93.16 9.14 27.61-13.93 45.64-43.76 46.26-74.55.47-1.52-.1-3.47-.08-4.95zm-121.53-49c21.16-14.85 51.39-14.63 72.35.48l-36.5 36.5-36.5-36.5.67-.47zM84.89 292.5c-15.26-21.2-15.3-51.84.02-73.02l36.5 36.5c-12.17 12.16-24.34 24.4-36.52 36.52zm88.58 15.63c-19.9 14.27-47.86 15.5-68.79 2.69-8.93-2.9 2.94-8.19 5.43-12.34L137 271.56c12.12 12.19 24.5 24.4 36.47 36.57zm27.06-48.76a64.04 64.04 0 0 1-11.44 33.15L152.57 256l36.5-36.52a63.56 63.56 0 0 1 11.46 39.89zM343.3 282.5c-7.54-1.57-14.71 6.34-12.32 13.5-27.73.15-55.5-.3-83.22.22-15.33 3.16-7.85 26.12 6.41 21.78h76.81c-1.47 6.16 1.11 13.75 8.1 15.07 16.64-.88 33.14-5.22 49.72-7.46l106.61-17.79L343.3 282.5zM250 213h81c-2.34 7.8 4.36 17.16 13.34 14.4 50.36-8.46 100.71-16.9 151.09-25.2-51.5-8.36-102.92-17.45-154.46-25.4-7.11.1-12.1 7.74-10.01 14.21-27.73.15-55.5-.3-83.22.22-12.81 2.55-10.86 21.9 2.26 21.77zM89.54 342.2c-37.56-19.98-58.45-66.02-48.6-107.43 5.94-28.26 25.34-52.63 50.54-66.33 11.43-9.62-5.11-26.45-15.49-16.26-42.47 24.16-66.52 76-57.64 124.04 6.06 36.42 29.9 69.98 63.2 86.23 12.48 3.35 19.18-14.61 7.99-20.25z"/></svg>