<svg xmlns="http://www.w3.org/2000/svg" width="512" height="512"><path d="M493.86 250.56c-1.57-55.76-38.07-108.57-89.89-129.37-53.22-22.98-119.32-9.67-159.63 31.97a146.47 146.47 0 0 0-41.77 88.88H45c-.18-45.24.35-90.51-.27-135.73-3.46-18.96-31.9-10.23-26.73 7.39.18 97.32-.35 194.68.27 291.99 3.46 18.96 31.9 10.23 26.73-7.39V270h157.46c4.85 56.84 46.26 108.32 100.84 125.02 53.52 17.83 116.35.73 153.45-41.78 25-27.77 38.57-65.42 37.11-102.68zm-27.84 11.75c-2.02 49.73-38.82 95.5-87.08 107.85-41.73 11.51-89.3-1.7-118.26-34.13-33.95-35.92-40.98-93.68-16.69-136.72 23.04-43.66 75.38-68.96 123.9-59.84 49.6 7.74 90.93 50.42 97.04 100.25 1.16 7.44 1.24 15.24 1.09 22.59z"/></svg>