<?xml version="1.0" encoding="UTF-8" standalone="no"?>
<svg
   xmlns:dc="http://purl.org/dc/elements/1.1/"
   xmlns:cc="http://creativecommons.org/ns#"
   xmlns:rdf="http://www.w3.org/1999/02/22-rdf-syntax-ns#"
   xmlns:svg="http://www.w3.org/2000/svg"
   xmlns="http://www.w3.org/2000/svg"
   xmlns:sodipodi="http://sodipodi.sourceforge.net/DTD/sodipodi-0.dtd"
   xmlns:inkscape="http://www.inkscape.org/namespaces/inkscape"
   width="512"
   height="512"
   viewBox="0 0 512 512"
   version="1.1"
   id="svg4"
   sodipodi:docname="socket outlet television _ fm radio.svg"
   inkscape:version="0.92.1 r15371">
  <metadata
     id="metadata10">
    <rdf:RDF>
      <cc:Work
         rdf:about="">
        <dc:format>image/svg+xml</dc:format>
        <dc:type
           rdf:resource="http://purl.org/dc/dcmitype/StillImage" />
      </cc:Work>
    </rdf:RDF>
  </metadata>
  <defs
     id="defs8" />
  <sodipodi:namedview
     pagecolor="#ffffff"
     bordercolor="#666666"
     borderopacity="1"
     objecttolerance="10"
     gridtolerance="10"
     guidetolerance="10"
     inkscape:pageopacity="0"
     inkscape:pageshadow="2"
     inkscape:window-width="638"
     inkscape:window-height="493"
     id="namedview6"
     showgrid="false"
     inkscape:zoom="0.4609375"
     inkscape:cx="256"
     inkscape:cy="256"
     inkscape:window-x="0"
     inkscape:window-y="0"
     inkscape:window-maximized="0"
     inkscape:current-layer="svg4" />
  <path
     id="path2"
     d="m 223.66,239 c -28.55333,0 -57.10667,0 -85.66,0 -0.17001,-34.05912 0.34001,-68.15268 -0.25492,-102.19027 -3.45877,-17.09873 -29.39743,-9.19112 -24.74508,6.88143 0,31.76962 0,63.53923 0,95.30884 -29.322901,0.16477 -58.678165,-0.32959 -87.98084,0.24715 C 11.237524,242.52492 15.753124,258.4324 15,268.78466 15.167784,303.47137 14.663007,338.19219 15.254922,372.8574 18.714231,389.95788 44.648031,382.05039 40,365.97884 40,331.65256 40,297.32628 40,263 c 57,0 114,0 171,0 0.16966,37.39247 -0.33953,74.81932 0.25492,112.19027 3.45877,17.09873 29.39743,9.19112 24.74508,-6.88143 -0.16575,-39.83153 0.33127,-79.69588 -0.24805,-119.50693 C 234.72273,243.17507 229.36442,238.87627 223.66,239 Z m 96.28,-104 c -20.13484,0.16362 -40.30296,-0.33136 -60.41645,0.25492 -17.10433,3.4501 -9.19668,29.3993 6.87761,24.74508 7.63326,-0.85287 14.42093,-0.86015 11.59884,8.74233 0.17043,30.03165 -0.34076,60.09788 0.25533,90.10794 3.467,17.10401 29.39371,9.17874 24.74467,-6.89143 0,-30.65295 0,-61.30589 0,-91.95884 10.23741,-0.66779 25.84755,3.58217 29.13725,-9.99045 C 333.88338,142.57405 327.58417,134.79204 319.94,135 Z m 90.06,0.73 c -12.86998,-3.32521 -16.40281,10.9785 -18.32637,20.43506 -4.60788,17.28498 -9.21575,34.56996 -13.82363,51.85494 -6.02266,-21.91657 -11.39477,-44.04255 -17.82355,-65.8284 -7.72291,-15.65443 -30.69521,-1.29972 -22.03961,13.00182 9.28106,34.78553 18.56211,69.57105 27.84316,104.35658 8.41938,19.62827 27.40648,3.31897 27.15482,-11.62548 8.66462,-33.16928 17.98516,-66.19869 26.23672,-99.45604 C 419.64443,142.72193 415.58784,137.09061 410,135.73 Z m 85.6,115.99 c -4.93333,-12.13333 -9.86667,-24.26667 -14.8,-36.4 17.57168,-12.12967 16.58629,-35.66897 13.81566,-54.32965 -3.45514,-17.18984 -20.45886,-28.532 -37.5252,-25.99035 -9.883,1.14812 -21.55315,-3.0095 -29.78171,3.8 -6.04136,9.73988 -2.23773,22.04491 -3.30875,33.0014 0.16966,29.012 -0.33973,58.05845 0.25533,87.04887 3.467,17.10401 29.39371,9.17874 24.74467,-6.89143 0,-10.31962 0,-20.63923 0,-30.95884 8.79395,-2.94664 9.46941,6.13127 12.20151,12.16301 5.44801,11.14354 7.59497,24.45611 15.94099,33.72324 9.76761,6.92776 23.30252,-4.37852 18.4575,-15.16625 z M 471,183.94 c 1.41389,13.55136 -11.68247,12.68019 -20.75628,12.07 -2.99318,-3.61388 -0.34949,-12.86462 -1.24372,-18.57745 1.60012,-5.30019 -3.55174,-17.35235 3.27837,-17.42255 9.79087,-1.83924 21.27325,1.35172 18.72163,14.06558 0,3.28206 0,6.61547 0,9.86442 z" />
</svg>
