<?xml version="1.0" encoding="UTF-8" standalone="no"?>
<svg
   xmlns:dc="http://purl.org/dc/elements/1.1/"
   xmlns:cc="http://creativecommons.org/ns#"
   xmlns:rdf="http://www.w3.org/1999/02/22-rdf-syntax-ns#"
   xmlns:svg="http://www.w3.org/2000/svg"
   xmlns="http://www.w3.org/2000/svg"
   xmlns:sodipodi="http://sodipodi.sourceforge.net/DTD/sodipodi-0.dtd"
   xmlns:inkscape="http://www.inkscape.org/namespaces/inkscape"
   width="512"
   height="512"
   viewBox="0 0 512 512"
   version="1.1"
   id="svg6"
   sodipodi:docname="socket outlet telephone.svg"
   inkscape:version="0.92.1 r15371">
  <metadata
     id="metadata12">
    <rdf:RDF>
      <cc:Work
         rdf:about="">
        <dc:format>image/svg+xml</dc:format>
        <dc:type
           rdf:resource="http://purl.org/dc/dcmitype/StillImage" />
      </cc:Work>
    </rdf:RDF>
  </metadata>
  <defs
     id="defs10" />
  <sodipodi:namedview
     pagecolor="#ffffff"
     bordercolor="#666666"
     borderopacity="1"
     objecttolerance="10"
     gridtolerance="10"
     guidetolerance="10"
     inkscape:pageopacity="0"
     inkscape:pageshadow="2"
     inkscape:window-width="640"
     inkscape:window-height="493"
     id="namedview8"
     showgrid="false"
     inkscape:zoom="0.4609375"
     inkscape:cx="256"
     inkscape:cy="256"
     inkscape:window-x="0"
     inkscape:window-y="0"
     inkscape:window-maximized="0"
     inkscape:current-layer="svg6" />
  <path
     id="path4"
     d="m 205.26,398 c -9.58667,0 -19.17333,0 -28.76,0 13.10387,-28.66534 26.99574,-57.00292 39.60109,-85.87562 7.87878,-26.12162 -19.55517,-58.24161 -46.79015,-46.5061 -20.44646,3.87111 -35.78722,50.35178 -4.43969,42.40172 4.40809,-10.95649 18.77637,-32.03027 26.95201,-10.44645 3.55409,10.32107 -5.98649,19.23109 -8.87525,28.73143 -12.39583,27.25863 -25.79212,54.12888 -37.5552,81.63314 -2.22066,15.98222 15.75333,15.84523 26.71772,15.06188 12.60229,-0.49655 25.42436,1.09884 37.85759,-1.00672 C 221.97216,417.175 218.31956,397.76988 205.26,398 Z M 333.32,237 c -46.77333,0 -93.54667,0 -140.32,0 0,-53.94333 0,-107.88667 0,-161.83 -4.8101,-24.058751 -30.20079,-6.289427 -24,11.045398 0,50.261532 0,100.523072 0,150.784602 -46.54333,0 -93.086667,0 -139.63,0 -16.288489,0.97842 -11.735528,19.11565 -12.37,30.16566 0,55.34478 0,110.68956 0,166.03434 6.828348,25.47261 31.390465,4.33174 25,-13.51215 C 42,367.12523 42,314.56262 42,262 c 93,0 186,0 279,0 0,58.27667 0,116.55333 0,174.83 4.8101,24.05875 30.20079,6.28943 24,-11.0454 0,-59.01487 0,-118.02973 0,-177.0446 0.30074,-6.35502 -5.33141,-12.02288 -11.68,-11.74 z M 482.54,76 c -29.91333,0 -59.82667,0 -89.74,0 -25.47332,6.830695 -4.33317,31.39039 13.51215,25 5.54567,1.91199 19.08843,-4.173106 18.68785,3.68513 0,50.61496 0,101.22991 0,151.84487 4.8101,24.05875 30.20079,6.28943 24,-11.0454 0,-48.16153 0,-96.32307 0,-144.4846 12.73979,-0.53558 25.7134,1.15634 38.28234,-1.006719 C 499.30273,94.947049 495.6929,75.950936 482.54,76 Z" />
</svg>
