<?xml version="1.0" encoding="UTF-8" standalone="no"?>
<svg
   xmlns:dc="http://purl.org/dc/elements/1.1/"
   xmlns:cc="http://creativecommons.org/ns#"
   xmlns:rdf="http://www.w3.org/1999/02/22-rdf-syntax-ns#"
   xmlns:svg="http://www.w3.org/2000/svg"
   xmlns="http://www.w3.org/2000/svg"
   xmlns:sodipodi="http://sodipodi.sourceforge.net/DTD/sodipodi-0.dtd"
   xmlns:inkscape="http://www.inkscape.org/namespaces/inkscape"
   width="512"
   height="512"
   viewBox="0 0 512 512"
   version="1.1"
   id="svg4"
   sodipodi:docname="socket outlet television.svg"
   inkscape:version="0.92.1 r15371">
  <metadata
     id="metadata10">
    <rdf:RDF>
      <cc:Work
         rdf:about="">
        <dc:format>image/svg+xml</dc:format>
        <dc:type
           rdf:resource="http://purl.org/dc/dcmitype/StillImage" />
      </cc:Work>
    </rdf:RDF>
  </metadata>
  <defs
     id="defs8" />
  <sodipodi:namedview
     pagecolor="#ffffff"
     bordercolor="#666666"
     borderopacity="1"
     objecttolerance="10"
     gridtolerance="10"
     guidetolerance="10"
     inkscape:pageopacity="0"
     inkscape:pageshadow="2"
     inkscape:window-width="640"
     inkscape:window-height="493"
     id="namedview6"
     showgrid="false"
     inkscape:zoom="0.4609375"
     inkscape:cx="256"
     inkscape:cy="256"
     inkscape:window-x="0"
     inkscape:window-y="0"
     inkscape:window-maximized="0"
     inkscape:current-layer="svg4" />
  <path
     id="path2"
     d="m 263.64,239 c -35.21333,0 -70.42667,0 -105.64,0 -0.15331,-41.71168 0.30683,-83.4534 -0.23041,-125.14627 C 151.03634,94.131216 129.74623,110.24108 135,125.25 c 0,37.91666 0,75.83333 0,113.75 -36.22853,0.1524 -72.486501,-0.30429 -108.696699,0.22738 -13.778972,4.05654 -8.122405,19.83831 -9.303301,30.42386 0.1686,41.89381 -0.336775,83.8237 0.251895,125.69503 C 20.880039,411.51823 45.511149,403.77599 41,388.475 41,346.31667 41,304.15833 41,262 c 70.33333,0 140.66667,0 211,0 0.16815,45.37662 -0.33617,90.78928 0.25189,136.1434 3.62789,16.17473 28.24904,8.42639 23.74811,-6.8684 -0.17834,-47.72455 0.35681,-95.4899 -0.26777,-143.18895 C 274.48523,242.6984 269.04707,238.967 263.64,239 Z M 379,115 c -23.91056,0.15352 -47.85125,-0.30715 -71.74297,0.23041 C 287.54332,121.97183 303.654,143.25203 318.66,138 c 6.23225,0.81025 17.52966,-3.44466 14.34,6.7875 0.15297,37.98363 -0.30637,75.99721 0.23041,113.96207 6.72508,19.73131 28.02509,3.62229 22.76959,-11.38957 0,-36.45333 0,-72.90667 0,-109.36 10.37589,-1.1058 22.15113,2.81115 31.23125,-3.33875 C 394.68263,127.87842 389.00811,114.54527 379,115 Z m 107.06,0.07 c -13.93269,-2.97641 -15.39033,12.96022 -18.02804,22.46001 -6.55065,24.57333 -13.10131,49.14666 -19.65196,73.71999 -8.17326,-30.02316 -15.74256,-60.24066 -24.29377,-90.14221 -11.62971,-17.24072 -28.30166,3.72393 -19.32271,16.95619 10.79549,40.452 21.59099,80.90401 32.38648,121.35602 8.52863,18.97225 25.91555,2.10986 25.67514,-12.01389 10.54034,-40.14979 21.69391,-80.16842 31.85211,-120.39996 C 495.10164,121.60487 491.2109,116.4033 486.06,115.07 Z" />
</svg>
