<?xml version="1.0" encoding="UTF-8" standalone="no"?>
<svg
   xmlns:dc="http://purl.org/dc/elements/1.1/"
   xmlns:cc="http://creativecommons.org/ns#"
   xmlns:rdf="http://www.w3.org/1999/02/22-rdf-syntax-ns#"
   xmlns:svg="http://www.w3.org/2000/svg"
   xmlns="http://www.w3.org/2000/svg"
   xmlns:sodipodi="http://sodipodi.sourceforge.net/DTD/sodipodi-0.dtd"
   xmlns:inkscape="http://www.inkscape.org/namespaces/inkscape"
   width="512"
   height="512"
   viewBox="0 0 512 512"
   version="1.1"
   id="svg4"
   sodipodi:docname="socket outlet fiber optic.svg"
   inkscape:version="0.92.1 r15371">
  <metadata
     id="metadata10">
    <rdf:RDF>
      <cc:Work
         rdf:about="">
        <dc:format>image/svg+xml</dc:format>
        <dc:type
           rdf:resource="http://purl.org/dc/dcmitype/StillImage" />
      </cc:Work>
    </rdf:RDF>
  </metadata>
  <defs
     id="defs8" />
  <sodipodi:namedview
     pagecolor="#ffffff"
     bordercolor="#666666"
     borderopacity="1"
     objecttolerance="10"
     gridtolerance="10"
     guidetolerance="10"
     inkscape:pageopacity="0"
     inkscape:pageshadow="2"
     inkscape:window-width="638"
     inkscape:window-height="493"
     id="namedview6"
     showgrid="false"
     inkscape:zoom="0.4609375"
     inkscape:cx="256"
     inkscape:cy="256"
     inkscape:window-x="0"
     inkscape:window-y="0"
     inkscape:window-maximized="0"
     inkscape:current-layer="svg4" />
  <path
     id="path2"
     d="m 224,239 c -28.33333,0 -56.66667,0 -85,0 -0.1725,-33.63609 0.34479,-67.30796 -0.2582,-100.92172 -3.51179,-16.88283 -29.2875,-9.16655 -24.7418,6.80362 0,31.3727 0,62.7454 0,94.1181 -28.831243,0.16592 -57.696406,-0.3333 -86.50625,0.25221 -13.290753,3.60771 -8.661874,19.20837 -9.49375,29.4054 0.169773,34.3137 -0.341099,68.6627 0.258203,102.95411 C 21.769994,388.49455 47.545699,380.77827 43,364.8081 43,330.87206 43,296.93603 43,263 c 56,0 112,0 168,0 0.17185,36.96946 -0.34391,73.97459 0.2582,110.92172 3.51155,16.884 29.28055,9.16104 24.7418,-6.80362 -0.15807,-39.40689 0.31599,-78.84384 -0.23672,-118.23197 C 234.80972,243.34297 229.68317,238.86842 224,239 Z m 95.27,-102 c -19.92345,0.15844 -39.87705,-0.31661 -59.78172,0.23672 -17.01352,3.17878 -8.92201,28.51957 6.80362,23.76328 7.54946,-0.76549 14.5297,-0.96176 11.7081,8.64381 0.17206,29.72151 -0.34422,59.47873 0.2582,89.17791 3.51155,16.884 29.28055,9.16104 24.7418,-6.80362 0,-30.33937 0,-60.67873 0,-91.0181 9.90311,-0.67064 24.99277,3.48957 28.33953,-9.53203 C 333.10528,144.04966 326.74299,136.74573 319.27,137 Z m 89.1,0 c -12.73031,-3.27841 -16.23037,10.85637 -18.13124,20.21423 -4.55959,17.10526 -9.11917,34.21051 -13.67876,51.31577 -5.95937,-21.68562 -11.28525,-43.57474 -17.64051,-65.13318 -7.65069,-15.49122 -30.36412,-1.25815 -21.80536,12.88901 9.18195,34.41472 18.36391,68.82945 27.54587,103.24417 8.31843,19.41152 27.11195,3.30245 26.86132,-11.48421 8.57893,-32.82296 17.80485,-65.50786 25.97589,-98.41786 C 417.92245,143.91894 413.88408,138.4017 408.37,137 Z m 84.7,114.77 c -4.79333,-12.00667 -9.58667,-24.01333 -14.38,-36.02 17.38847,-11.876 16.86062,-35.22166 13.88,-53.67923 -3.7145,-16.97579 -20.88329,-27.43154 -37.61333,-25.06077 -9.81961,1.05081 -21.12279,-2.72915 -29.58667,3.4 -6.16526,9.00283 -2.28928,20.84412 -3.38,31.18999 0.17128,29.07282 -0.34316,58.18122 0.2582,87.23173 3.51155,16.884 29.28055,9.16104 24.7418,-6.80362 0,-10.00937 0,-20.01873 0,-30.0281 8.68394,-2.91246 9.35373,6.07135 12.07093,12.01598 5.39254,10.88776 7.43454,24.00652 15.73032,32.98902 9.7644,6.70162 22.99038,-4.58301 18.27875,-15.235 z M 469,184.7 c 1.29717,13.45847 -11.62827,13.03348 -20.80619,12.3 -2.88397,-3.63666 -0.32753,-12.71373 -1.19381,-18.36809 1.37859,-5.21903 -2.80708,-16.00232 2.16095,-17.63191 9.26411,-1.10703 21.93955,-0.38829 19.83905,12.85048 0,3.61023 0,7.27246 0,10.84952 z" />
</svg>
