<?xml version="1.0" encoding="UTF-8" standalone="no"?>
<svg
   xmlns:dc="http://purl.org/dc/elements/1.1/"
   xmlns:cc="http://creativecommons.org/ns#"
   xmlns:rdf="http://www.w3.org/1999/02/22-rdf-syntax-ns#"
   xmlns:svg="http://www.w3.org/2000/svg"
   xmlns="http://www.w3.org/2000/svg"
   xmlns:sodipodi="http://sodipodi.sourceforge.net/DTD/sodipodi-0.dtd"
   xmlns:inkscape="http://www.inkscape.org/namespaces/inkscape"
   width="512"
   height="512"
   viewBox="0 0 512 512"
   version="1.1"
   id="svg6"
   sodipodi:docname="telephone distribution panel.svg"
   inkscape:version="0.92.1 r15371">
  <metadata
     id="metadata12">
    <rdf:RDF>
      <cc:Work
         rdf:about="">
        <dc:format>image/svg+xml</dc:format>
        <dc:type
           rdf:resource="http://purl.org/dc/dcmitype/StillImage" />
      </cc:Work>
    </rdf:RDF>
  </metadata>
  <defs
     id="defs10" />
  <sodipodi:namedview
     pagecolor="#ffffff"
     bordercolor="#666666"
     borderopacity="1"
     objecttolerance="10"
     gridtolerance="10"
     guidetolerance="10"
     inkscape:pageopacity="0"
     inkscape:pageshadow="2"
     inkscape:window-width="640"
     inkscape:window-height="493"
     id="namedview8"
     showgrid="false"
     inkscape:zoom="0.4609375"
     inkscape:cx="256"
     inkscape:cy="256"
     inkscape:window-x="0"
     inkscape:window-y="0"
     inkscape:window-maximized="0"
     inkscape:current-layer="svg6" />
  <path
     id="path4"
     d="m 107.03,319 c 16.42264,-1.20877 36.38253,4.66786 48.42,-10.04125 12.90613,-15.69449 7.31433,-36.81831 8.55,-55.43761 -0.73058,-18.72694 4.12144,-41.43992 -12.89062,-54.67501 C 138.33693,189.39568 121.77383,194.17299 107.03,193 93.457417,193.70258 96.139392,208.85934 96,218.26569 c 0.145104,30.56641 -0.289855,61.16014 0.216777,91.70951 0.84402,5.10412 5.643613,9.15557 10.813223,9.0248 z M 119,216 c 8.10383,0.76254 21.31972,-3.65802 21.86035,8.86402 -0.0131,21.45335 0.73376,43.02564 -0.39629,64.41973 -1.47837,9.54884 -16.40654,7.20213 -21.46406,5.64043 0,-26.30806 0,-52.61612 0,-78.92418 z m 61.5,103.06 c 12.60204,-0.14948 11.95687,-14.16564 11.5,-23.20405 0,-7.61865 0,-15.2373 0,-22.85595 13.97091,0.33822 30.69711,1.30784 39.15196,-12.44604 9.18632,-13.46838 7.941,-31.52073 4.48867,-46.63318 C 230.92444,198.4784 214.68954,190.998 199.53342,193 c -9.94947,1.2154 -23.71737,-3.95188 -29.60733,6.86812 -2.06262,17.73703 -0.38017,35.96486 -0.92609,53.89972 0.15855,18.73255 -0.31668,37.49765 0.23656,56.20993 1.01379,5.19217 5.98547,9.16555 11.26344,9.08223 z M 192,216 c 7.76483,1.15184 19.60777,-3.85565 22.39219,6.69094 0.26417,9.34131 4.01319,24.76136 -7.32801,28.30906 -4.80832,-1.6475 -16.92955,4.0179 -15.06418,-4.30329 0,-10.23224 0,-20.46447 0,-30.69671 z m 290.4,-50 c -19.14537,0.15759 -38.32325,-0.31536 -57.4483,0.23656 -15.77436,3.3525 -8.19914,27.16981 6.59159,22.76344 7.51509,-0.82733 14.23982,-0.86429 11.45671,8.60658 0.15635,28.62435 -0.31361,57.28094 0.23656,85.88502 3.34445,15.78126 27.17087,8.20928 22.76344,-6.58489 0,-29.30224 0,-58.60447 0,-87.90671 9.60939,-0.72712 24.36139,3.56565 27.52904,-9.20281 C 495.103,172.96927 489.39639,165.84256 482.4,166 Z M 315,141.36 C 314.81485,128.80335 300.78927,129.5899 291.80595,130 203.56604,130.15399 115.29502,129.69185 27.07457,130.23137 14.174206,133.64278 18.878212,148.76639 18,158.57316 c 0.154378,71.11352 -0.30867,142.25822 0.231367,213.35227 3.41141,12.90036 18.535026,8.19636 28.341796,9.07457 86.447837,-0.15398 172.926737,0.30813 259.355137,-0.23137 12.89967,-3.41049 8.19201,-18.5361 9.0717,-28.34179 0,-70.35562 0,-140.71123 0,-211.06684 z M 292,359 c -83.66667,0 -167.33333,0 -251,0 0,-68.66667 0,-137.33333 0,-206 83.66667,0 167.33333,0 251,0 0,68.66667 0,137.33333 0,206 z" />
</svg>
