<?xml version="1.0" encoding="UTF-8" standalone="no"?>
<svg
   xmlns:dc="http://purl.org/dc/elements/1.1/"
   xmlns:cc="http://creativecommons.org/ns#"
   xmlns:rdf="http://www.w3.org/1999/02/22-rdf-syntax-ns#"
   xmlns:svg="http://www.w3.org/2000/svg"
   xmlns="http://www.w3.org/2000/svg"
   xmlns:sodipodi="http://sodipodi.sourceforge.net/DTD/sodipodi-0.dtd"
   xmlns:inkscape="http://www.inkscape.org/namespaces/inkscape"
   width="512"
   height="512"
   viewBox="0 0 512 512"
   version="1.1"
   id="svg6"
   sodipodi:docname="telephone distribution point.svg"
   inkscape:version="0.92.1 r15371">
  <metadata
     id="metadata12">
    <rdf:RDF>
      <cc:Work
         rdf:about="">
        <dc:format>image/svg+xml</dc:format>
        <dc:type
           rdf:resource="http://purl.org/dc/dcmitype/StillImage" />
      </cc:Work>
    </rdf:RDF>
  </metadata>
  <defs
     id="defs10" />
  <sodipodi:namedview
     pagecolor="#ffffff"
     bordercolor="#666666"
     borderopacity="1"
     objecttolerance="10"
     gridtolerance="10"
     guidetolerance="10"
     inkscape:pageopacity="0"
     inkscape:pageshadow="2"
     inkscape:window-width="640"
     inkscape:window-height="493"
     id="namedview8"
     showgrid="false"
     inkscape:zoom="0.4609375"
     inkscape:cx="256"
     inkscape:cy="256"
     inkscape:window-x="0"
     inkscape:window-y="0"
     inkscape:window-maximized="0"
     inkscape:current-layer="svg6" />
  <path
     id="path4"
     d="m 99.82,314 c 16.02388,-0.95019 36.02726,4.38904 46.7838,-11.25121 10.21089,-14.9564 5.17982,-33.75049 6.3962,-50.70852 -0.38999,-16.77363 3.17777,-37.08575 -12.3291,-48.58332 C 128.82863,194.6782 113.48492,199.07065 99.82,198 c -13.485378,1.58979 -9.048032,17.18563 -9.82,26.63434 0,26.41855 0,52.83711 0,79.25566 -0.351684,5.42768 4.312982,10.44887 9.82,10.11 z M 111,220 c 8.34608,5e-5 21.92896,-2.53387 20,10.93896 -0.29872,18.62163 0.62182,37.31858 -0.50578,55.88901 -0.68356,8.03628 -17.28777,8.11033 -19.49422,4.05412 0,-23.62736 0,-47.25473 0,-70.88209 z m 56,94.6 c 13.34051,-0.58878 10.9595,-15.23914 11,-24.46643 1.37668,-5.04048 -2.78792,-15.62224 2.11791,-17.13357 12.49643,0.67632 27.04016,0.0829 34.3476,-12.00999 8.63048,-12.53646 7.67143,-29.41092 4.27621,-43.49939 -4.63126,-14.57359 -20.06487,-21.3696 -34.37337,-19.49062 -9.6758,0.85765 -24.19998,-3.66754 -28.11788,8.5884 -0.42993,33.11896 -0.39021,66.33264 -0.0206,99.45531 1.00753,4.92832 5.82256,8.59495 10.77016,8.55629 z M 178,220 c 8.16166,0.44235 21.71959,-3.27695 21,9.88 0.47501,8.54343 0.80666,23.61843 -11.46478,21.12 -8.28274,1.92746 -11.46581,-1.24474 -9.53522,-9.53061 0,-7.15646 0,-14.31293 0,-21.46939 z m 229.1,-47 c -17.6274,0.1487 -35.28661,-0.30037 -52.89371,0.22984 -18.06312,6.47141 -3.51405,26.67755 10.62536,21.77016 9.54583,-2.9009 5.27678,8.01307 6.16835,13.76643 0.13708,24.30137 -0.27538,48.62919 0.20836,72.91388 7.91214,19.21025 25.68663,1.19813 20.79164,-12.74987 0,-24.64348 0,-49.28696 0,-73.93044 9.10452,-0.68696 22.53127,3.37045 25.60219,-8.82766 C 419.07383,179.79522 413.73078,172.86185 407.1,173 Z m 78.9,1.04 c -12.94078,-2.73723 -14.18655,12.10731 -16.67077,20.90062 -3.82641,14.33313 -7.65282,28.66625 -11.47923,42.99938 -5.32713,-19.42202 -10.09312,-39.02425 -15.76842,-58.33445 -10.79456,-15.94141 -26.0815,3.51528 -17.76704,15.7196 7.72516,28.94495 15.45031,57.8899 23.17546,86.83485 7.99467,17.35558 23.93612,1.76182 23.7064,-11.24387 7.50479,-28.67202 15.59658,-57.21974 22.73149,-85.97009 C 494.29861,180.01365 490.72892,175.18648 486,174.04 Z M 292,150.7 C 291.29154,137.51153 276.65149,140.13112 267.52357,140 187.20147,140.14515 106.85009,139.70967 26.546289,140.21777 13.841615,144.18946 19.108886,158.81639 18,168.70225 18.144878,233.61576 17.710033,298.55851 18.217793,363.45371 22.193828,376.15818 36.8235,370.89109 46.712255,372 125.62463,371.85484 204.56619,372.29035 283.46031,371.78221 296.1803,367.8191 290.91163,353.17864 292.02,343.28775 292.00667,279.0985 292.04666,214.85591 292,150.7 Z M 270,351 c -77,0 -154,0 -231,0 0,-63 0,-126 0,-189 77,0 154,0 231,0 0,63 0,126 0,189 z" />
</svg>
