<?xml version="1.0" encoding="UTF-8" standalone="no"?>
<svg
   xmlns:dc="http://purl.org/dc/elements/1.1/"
   xmlns:cc="http://creativecommons.org/ns#"
   xmlns:rdf="http://www.w3.org/1999/02/22-rdf-syntax-ns#"
   xmlns:svg="http://www.w3.org/2000/svg"
   xmlns="http://www.w3.org/2000/svg"
   xmlns:sodipodi="http://sodipodi.sourceforge.net/DTD/sodipodi-0.dtd"
   xmlns:inkscape="http://www.inkscape.org/namespaces/inkscape"
   width="512"
   height="512"
   viewBox="0 0 512 512"
   version="1.1"
   id="svg6"
   sodipodi:docname="television splitter unit.svg"
   inkscape:version="0.92.1 r15371">
  <metadata
     id="metadata12">
    <rdf:RDF>
      <cc:Work
         rdf:about="">
        <dc:format>image/svg+xml</dc:format>
        <dc:type
           rdf:resource="http://purl.org/dc/dcmitype/StillImage" />
      </cc:Work>
    </rdf:RDF>
  </metadata>
  <defs
     id="defs10" />
  <sodipodi:namedview
     pagecolor="#ffffff"
     bordercolor="#666666"
     borderopacity="1"
     objecttolerance="10"
     gridtolerance="10"
     guidetolerance="10"
     inkscape:pageopacity="0"
     inkscape:pageshadow="2"
     inkscape:window-width="638"
     inkscape:window-height="493"
     id="namedview8"
     showgrid="false"
     inkscape:zoom="0.4609375"
     inkscape:cx="256"
     inkscape:cy="256"
     inkscape:window-x="0"
     inkscape:window-y="0"
     inkscape:window-maximized="0"
     inkscape:current-layer="svg6" />
  <path
     id="path4"
     d="m 219,354.64 c 15.57601,-0.0231 15.82537,-17.12566 15,-28.53562 0,-28.56146 0,-57.12292 0,-85.68438 15.48,35.14333 30.96,70.28667 46.44,105.43 11.03817,20.37931 33.01715,1.03977 27.56,-15.99954 -0.20576,-54.04634 0.41189,-108.13526 -0.30943,-162.15495 -4.12428,-20.16226 -35.02158,-11.13964 -29.69057,7.97926 0,31.47508 0,62.95015 0,94.42523 -15.96305,-35.8657 -31.41767,-71.98101 -47.69807,-107.69092 -13.09262,-17.18019 -30.9598,2.55865 -26.30193,18.26046 0.20576,54.04634 -0.41189,108.13526 0.30943,162.15495 1.33542,6.7586 7.82066,11.91839 14.69057,11.81551 z M 479.44,54 C 330.48,54 181.52,54 32.56,54 17.092733,54.132694 17.323857,71.309744 18,82.555617 18.193714,203.7532 17.612409,324.98849 18.290937,446.16248 22.004547,462.23528 40.482499,457.20213 52.539079,458 194.83939,458 337.13969,458 479.44,458 494.90466,457.87543 494.67803,440.70607 494,429.46438 493.8063,308.25347 494.38757,187.00484 493.70906,65.81752 492.50987,59.131549 486.24858,53.809091 479.44,54 Z M 465,427 c -139.33333,0 -278.66667,0 -418,0 0,-114.33333 0,-228.66667 0,-343 139.33333,0 278.66667,0 418,0 0,114.33333 0,228.66667 0,343 z" />
</svg>
