<?xml version="1.0" encoding="UTF-8" standalone="no"?>
<svg
   xmlns:dc="http://purl.org/dc/elements/1.1/"
   xmlns:cc="http://creativecommons.org/ns#"
   xmlns:rdf="http://www.w3.org/1999/02/22-rdf-syntax-ns#"
   xmlns:svg="http://www.w3.org/2000/svg"
   xmlns="http://www.w3.org/2000/svg"
   xmlns:sodipodi="http://sodipodi.sourceforge.net/DTD/sodipodi-0.dtd"
   xmlns:inkscape="http://www.inkscape.org/namespaces/inkscape"
   width="512"
   height="512"
   viewBox="0 0 512 512"
   version="1.1"
   id="svg6"
   sodipodi:docname="television tap off unit.svg"
   inkscape:version="0.92.1 r15371">
  <metadata
     id="metadata12">
    <rdf:RDF>
      <cc:Work
         rdf:about="">
        <dc:format>image/svg+xml</dc:format>
        <dc:type
           rdf:resource="http://purl.org/dc/dcmitype/StillImage" />
      </cc:Work>
    </rdf:RDF>
  </metadata>
  <defs
     id="defs10" />
  <sodipodi:namedview
     pagecolor="#ffffff"
     bordercolor="#666666"
     borderopacity="1"
     objecttolerance="10"
     gridtolerance="10"
     guidetolerance="10"
     inkscape:pageopacity="0"
     inkscape:pageshadow="2"
     inkscape:window-width="638"
     inkscape:window-height="493"
     id="namedview8"
     showgrid="false"
     inkscape:zoom="0.4609375"
     inkscape:cx="256"
     inkscape:cy="256"
     inkscape:window-x="0"
     inkscape:window-y="0"
     inkscape:window-maximized="0"
     inkscape:current-layer="svg6" />
  <path
     id="path4"
     d="m 100.5,339.07 c 14.41676,-0.12772 14.10326,-16.16593 13.5,-26.62368 0,-20.74877 0,-41.49755 0,-62.24632 12.88498,27.93716 24.41426,56.60376 38.16922,84.07281 14.06826,14.09879 27.72875,-5.33791 23.83078,-19.52128 -0.17735,-44.06417 0.35573,-88.16263 -0.26836,-132.20524 -3.54226,-18.89235 -31.9038,-10.13271 -26.73164,7.44414 0,23.46652 0,46.93305 0,70.39957 C 136.59537,232.8321 124.66974,205.03655 111.96461,177.62773 99.716323,161.69935 82.603705,179.83433 87,194.66086 c 0.17729,44.46671 -0.355648,88.9677 0.268359,133.41285 C 88.36143,334.28123 94.156618,339.21156 100.5,339.07 Z M 211.33,327.7 c 4.75636,19.91796 29.68604,9.9162 28.98572,-6.75734 3.15809,-11.84422 6.31619,-23.68844 9.47428,-35.53266 4.66632,15.80472 7.66088,32.20699 13.48125,47.59922 11.9396,15.41293 28.03124,-1.24489 26.82724,-15.64561 7.65556,-44.14443 16.04992,-88.19561 23.24147,-132.39861 -0.36569,-19.18902 -30.0258,-15.7703 -28.14706,2.5534 -4.40097,24.7672 -8.80193,49.5344 -13.2029,74.3016 -3.73435,-12.44952 -5.90248,-25.45864 -10.77703,-37.50078 -13.75847,-16.27779 -27.52497,3.36061 -28.35316,17.67898 -1.78907,5.36557 -3.84745,17.07613 -5.47398,18.61218 -4.94349,-26.76615 -9.15573,-53.70105 -14.56038,-80.36077 -6.98277,-17.87395 -33.59483,-4.42152 -25.5284,12.1188 8.00172,45.0825 16.0776,90.38914 24.03295,135.33159 z M 336.86,199 c 8.04667,0 16.09333,0 24.14,0 0.17899,43.02025 -0.35795,86.07505 0.26836,129.07371 3.54216,18.89291 31.90035,10.13003 26.73164,-7.44414 0,-40.54319 0,-81.08638 0,-121.62957 11.04554,-1.2135 23.8842,3.22518 33.23,-4.15 11.81995,-12.53874 -4.04232,-27.8864 -17.91325,-23.85 -23.07545,0.18688 -46.19007,-0.37791 -69.24046,0.28984 C 318.10386,174.65979 320.42788,198.92835 336.86,199 Z M 480.48,87 C 330.82667,87 181.17333,87 31.52,87 17.101064,87.292966 17.401974,103.38915 18,113.91368 c 0.178872,99.9332 -0.357785,199.90079 0.268398,299.81249 3.30839,15.17901 20.631881,10.57769 31.933321,11.27383 143.426091,0 286.852191,0 430.278281,0 14.41599,-0.29105 14.11957,-16.38116 13.52,-26.90368 -0.17887,-99.93668 0.35778,-199.90774 -0.2684,-299.822922 C 492.62113,92.030659 486.91684,86.857197 480.48,87 Z M 467,396 c -140.66667,0 -281.33333,0 -422,0 0,-93.66667 0,-187.33333 0,-281 140.66667,0 281.33333,0 422,0 0,93.66667 0,187.33333 0,281 z" />
</svg>
