<svg xmlns="http://www.w3.org/2000/svg" width="512" height="512"><path d="M313 348.76c13.68 4.44 5.76-11.62-1.25-15.08-16.54-10.29 12.52-22.86 11.35-37.33 10.33-29.12 3.41-63.43-17.43-86.25 4.96-6.04 12.77-10.41 15.68-17.68-4.06-11.44-13.27 1.89-17.98 6.2-9.47 11.43-21.59-14.67-34.71-13-29.38-10.23-63.92-2.93-86.62 18.37-6.32-5.21-10.95-13.3-18.49-16.45-11.44 4.05 1.89 13.26 6.18 17.98 13.47 9.56-13.07 21.87-11.52 35.21-9.89 28.91-2.85 62.72 17.76 85.28-5.49 6.59-13.86 11.48-17.3 19.3 4.06 11.46 13.26-1.9 17.98-6.2 9.92-15.15 22.4 12.73 36.33 11.37 28.65 9.97 62.24 3.33 84.9-16.85L313 348.76zm-72.18-148.2c13.85-.01 40.45 6.6 41.87 18.7L240 261.95l-44.17-44.16a67.22 67.22 0 0 1 44.99-17.23zm-67.5 67.5c.02-13.45 6.24-39.74 17.96-41.02l41.82 41.83-43.3 43.3a67.29 67.29 0 0 1-16.48-44.11zm67.5 67.5c-13.86.01-40.46-6.63-41.9-18.73L240 275.76l44.06 44.06a67.44 67.44 0 0 1-43.24 15.74zm6.1-66.7l44.92-44.92c22.12 24.42 21.77 65.04-.73 89.1-14.72-14.72-29.5-29.47-44.19-44.18zM155.43 49H184c1.13 6.9-2.76 16.1 3.08 21.06 10.61 1.17 5.88-12.66 6.92-19.2 2.34-4.22 12.42-.71 17.84-1.86 2.99 3.73-.08 12.81 1.48 18.46 9.32 9.23 9.44-8.21 8.68-14.5 1.2-7.5-.1-16.74-10-13.96-19.48.26-39.06-.53-58.46.4-4.87 2.02-3.35 9.63 1.89 9.6zm61.81 69c12.8-6.62-4.03-12.58-11.54-10-6.44.1-14.75 2.05-11.7-7.35 1.26-5.04-3.74-16.33 5.25-13.65 7.07-.76 15 1.67 21.44-1.49 5.28-11.07-10.64-8.28-17.1-8.51-16.67.26-33.45-.53-50.05.4-9.38 9.78 7.76 10.63 14.5 9.6 4.73 1.63 16.3-3.56 15.96 3.15-.78 5.51 1.52 14.12-1.05 17.85-9.8.27-19.7-.54-29.42.4-9.34 9.8 7.76 10.63 14.5 9.6h49.21zm48.78-51c16.85-.31 33.8.65 50.6-.52 1.68-5.62 3.93-17.45-2.62-20.45-6.3 4.2-1.58 14.94-13.44 10.97H271c.43-9.8-2.85-22.96 8.75-27.77 7.54-2.14 16.25.84 24.78-.23 8.38-.4 17 .8 25.22-.6C342.16 24.75 350 40.18 348 51.18c.29 5.96-2.56 21.22 7.76 16.2 2.57-8.82.74-18.73 1.17-27.99-1.87-17.01-20.37-26.55-36.09-23.39-13.23.46-26.65-.96-39.69.76-15.02 3.5-21.94 19.18-20.13 33.38 1.35 5.2-3.7 17.39 4.99 16.86zm87.92 49.3c-29.4-10.82-58.54-22.63-88.1-32.84-12.14 5.76 3.72 12.45 10.25 13.89 25.4 9.37 50.58 19.51 76.12 28.4 5.44.15 6.69-7.8 1.73-9.45zM261.15 162c2.46 8.64 13.85 3.68 20.62 5 23.97-.19 48 .38 71.93-.28 8.98-7.62-5.6-13.58-10.4-18.9-3.94-8-21.11-9.52-12.91 2.05 6.45 4.74 11.2 8.86-.01 7.12-22.07.27-44.25-.54-66.24.4a5.1 5.1 0 0 0-2.99 4.61zM359 399.4c-.98-6.27 3.48-19.65-6.68-18.4-28.37.26-56.85-.53-85.16.4-7.48 4.09-2.9 14.3-4.16 21.35 1.33 14.06 13.84 25.81 28.07 27.05 7.3 4.38 16.89 1.26 25.22 2.2 9.99.95 18.86-1.31 28.07-4.75 9.23-3.12 22.46-19.46 14.64-27.85zm-28.73 20.85c-5.47 2.6-13.35 1.6-20.39 1.75-11.24-.22-22.03-1.35-31.26-9.38-2.64-4.27-8.2-22.4.58-21.62H349c-1.77 9.5 5.3 19.78-5.38 25.43a24 24 0 0 1-13.35 3.82zm25.2 34.75c12.85-6.61-4.02-12.58-11.54-10-25.5.27-51.12-.54-76.55.4-9.32 9.8 7.77 10.62 14.5 9.6H313v31c-15.2.26-30.5-.53-45.62.4-9.34 9.79 7.76 10.63 14.5 9.6 25.15-.27 50.41.54 75.5-.4 9.32-9.8-7.77-10.62-14.5-9.6H323v-31h32.47z"/></svg>