<svg xmlns="http://www.w3.org/2000/svg" width="512" height="512"><path d="M124.76 255.3c11.57 7.84 24.13 14.4 35.03 23.12 14.7 19.36-9.45 39.43-27.6 24.44-20.51-19.77-37.13 17.64-10.27 22.03 18.5 8.7 45.45 11.88 58.19-7.95 15.42-20.94 7.88-54.17-15.87-65.3-9.55-6.5-19.95-11.87-28.96-19.08-15.18-19.06 9.06-40.17 27.52-24.67 13.6 17.1 37.75-8.38 17.35-18.31-18.72-10.73-47.25-17.9-63.24 1.24-16.04 18.43-13.13 50.93 7.85 64.48zM210 331.8c13.33-.22 12.4-15.17 12-24.7-.16-39.5.32-79.03-.24-118.5-3.39-16.92-28.56-8.65-23.76 7 .16 42.17-.32 84.36.24 126.5 1 5.5 6.16 9.79 11.76 9.7zm57.47.2c12.97-.57 26.25 1.2 39.01-.99 11.8-6.22 6.21-21.15 7.52-31.88-.58-18.53 1.2-37.36-.97-55.68-5.25-11.04-18.76-6.5-28.43-7.45-18.01.03-13.86 29.17 3.4 25 4.5 2.62.76 13.48 1.99 19.37V308c-8.71-.66-18 1.45-26.3-1.29-10.72-10.23-5.4-26.36-6.7-39.57.48-18.05-1.05-36.28.92-54.2 2.34-12.98 16.11-9.58 25.5-9.94 10.55-.85 26.74 4.02 30.22-10.04 2.53-14-13.07-16.32-23.3-14.96-16.45.38-36.28-3.29-47.35 12.39-14.9 18.8-8.65 43.6-10 65.7 1.3 21.48-4.8 45.7 10 63.86 5.94 7.26 15 12.15 24.49 12.05zm68.53-.2c13.33-.22 12.4-15.17 12-24.7v-58.76c12.11 26.33 23.01 53.32 35.9 79.24 14.57 13.24 25.6-7 22.11-20.5-.16-39.48.32-79-.24-118.47-3.38-16.92-28.56-8.65-23.76 7v66.75l-34.36-76.24c-12.42-18.4-28.15 2.61-23.64 17.5.16 39.49-.32 79.01.24 118.49 1 5.5 6.18 9.83 11.75 9.69zM482.84 101H29.16c-13.36.42-12.6 15.42-12.16 25.08.17 91.6-.33 183.25.25 274.83 3.4 14.04 19.6 9.26 30.14 10.09h435.45c13.36-.42 12.6-15.42 12.16-25.08-.17-91.6.33-183.25-.25-274.83-1.05-5.55-6.16-10.16-11.91-10.09zM471 385H41V126h430v259z"/></svg>