<svg xmlns="http://www.w3.org/2000/svg" width="512" height="512"><path d="M256 261.4a116 116 0 0 0-98.8 55.6 113.2 113.2 0 0 0-16.8 56.6A116.8 116.8 0 0 0 236 491.4c16.8 4.8 32.6 1.8 49.6-2.2 53.7-13.3 92.2-69 85.5-123.8-5-57.6-57.3-105-115.1-104zm-97.5 115.7c0-10 2.5-42.8 10.9-20.7l68.1 116.4a98 98 0 0 1-79-95.7zm21.7-61.1c32.6-44 104-48.5 142.6-10 11.3 8.4 8.3 11.7-3.7 10h-139zm92.4 157.2l74.8-130a97.9 97.9 0 0 1-74.8 130zM214 57.3c8.7-2.3 3.7-13.7 5-20.4-2.5-9 3-10.1 10.6-8.9H253c.8 6.7-1.8 14.5 1.6 20.5 11 5 8.1-10.6 8.4-17-.7-7.2 11.1-1.8 16-3.5 8.2-1.7 12 1 10 9.6 1.3 6.5-3.6 17.6 5 19.8 8.7-2.4 3.7-13.8 5-20.5-1.1-6.6 3.5-18.2-5.5-19.9h-79c-9 3-4.3 14.4-5.5 21.5 1.3 6-3.5 17.4 5 18.8zm32.2 38.8c2.1 24.2 39.5 29.4 50.2 8.5 4.3-9.6 2.4-20.7 2.3-30.9-5.2-5.3-14.3-1.6-21.1-2.7-21.7.2-43.4-.5-65 .4-8.7 9.4 8.3 9.3 14.6 8.6 5.9.7 14.7-1.4 18.8 1 .2 5-.3 10.1.2 15zM256 80h33c-.2 10 2.5 23.7-9.9 27.6-15.3 6.4-26.2-9-23.1-22.8V80zm-18 56c.6 11-1.3 22.7 1 33.4 10.1 4.4 6.3-11.2 7-17-1-6.8 2.3-15.2-2.3-20.6-3-1.4-6 1.1-5.7 4.2zm-23.6 73h80.2c11.2-6-4.5-13.6-9.4-18.6-3.7-8.7-20-4.8-9 2.6 11 5.5-.8 3.8-7 4-18.8.4-37.9-.8-56.5.6-4.2 2.7-3.5 10.5 1.7 11.4z"/></svg>