<svg xmlns="http://www.w3.org/2000/svg" width="512" height="512"><path d="M313 348.8c13.7 4.4 5.8-11.7-1.2-15.1-16.6-10.3 12.5-22.9 11.3-37.4a87.1 87.1 0 0 0-17.4-86.2c5-6 12.7-10.4 15.6-17.7-4-11.4-13.2 2-18 6.2-9.4 11.5-21.5-14.6-34.6-13-29.4-10.2-64-3-86.7 18.4-6.3-5.2-11-13.3-18.4-16.5-11.5 4 1.8 13.3 6.1 18 13.5 9.6-13 21.9-11.5 35.2A87 87 0 0 0 176 326c-5.5 6.6-13.9 11.5-17.3 19.3 4 11.5 13.2-1.9 18-6.2 9.9-15.1 22.3 12.7 36.3 11.4a87 87 0 0 0 84.9-16.9l15.1 15.2zm-72.2-148.2c13.9 0 40.5 6.6 41.9 18.7L240 261.9l-44.2-44.1a67.2 67.2 0 0 1 45-17.2zM173.3 268c0-13.5 6.3-39.8 18-41l41.8 41.8-43.3 43.3a67.3 67.3 0 0 1-16.5-44.1zm67.5 67.5c-13.8 0-40.4-6.7-41.9-18.8l41.1-41 44 44a67.4 67.4 0 0 1-43.2 15.8zm6.1-66.7l45-45a67.7 67.7 0 0 1-.8 89.1L247 269zM155.4 49H184c1.1 6.9-2.8 16.1 3 21 10.7 1.2 6-12.6 7-19.1 2.3-4.3 12.4-.8 17.8-1.9 3 3.7 0 12.8 1.5 18.5 9.3 9.2 9.5-8.2 8.7-14.5 1.2-7.5-.1-16.8-10-14-19.5.3-39-.5-58.5.4-4.8 2-3.3 9.6 2 9.6zm61.8 69c12.8-6.6-4-12.6-11.5-10-6.4 0-14.8 2-11.7-7.3 1.3-5-3.7-16.4 5.2-13.7 7.1-.8 15 1.7 21.5-1.5 5.3-11-10.6-8.3-17.1-8.5-16.7.3-33.5-.5-50 .4-9.4 9.8 7.7 10.6 14.4 9.6 4.8 1.6 16.3-3.6 16 3.1-.8 5.6 1.5 14.2-1 17.9-9.8.3-19.7-.5-29.5.4-9.3 9.8 7.8 10.6 14.5 9.6h49.2zM266 67c16.9-.3 33.8.7 50.6-.5 1.7-5.6 4-17.5-2.6-20.5-6.3 4.2-1.6 15-13.4 11H271c.4-9.8-2.9-23 8.7-27.8 7.6-2.1 16.3.9 24.8-.2 8.4-.4 17 .8 25.2-.6 12.5-3.6 20.3 11.8 18.3 22.8.3 6-2.6 21.2 7.8 16.2 2.5-8.8.7-18.8 1.1-28-1.8-17-20.3-26.6-36-23.4-13.3.5-26.7-1-39.7.8-15 3.5-22 19.1-20.2 33.3 1.4 5.2-3.7 17.4 5 16.9zm88 49.3c-29.5-10.8-58.6-22.6-88.2-32.8-12.1 5.7 3.8 12.4 10.3 13.8 25.4 9.4 50.6 19.6 76.1 28.4 5.4.2 6.7-7.8 1.7-9.4zM261 162c2.5 8.6 13.9 3.7 20.7 5 24-.2 48 .4 71.9-.3 9-7.6-5.6-13.6-10.4-18.9-4-8-21.1-9.5-13 2 6.5 4.8 11.3 9 0 7.2-22 .3-44.2-.5-66.2.4-1.8.8-3 2.7-3 4.6zM359 399.4c-1-6.3 3.5-19.7-6.7-18.4-28.4.3-56.8-.5-85.1.4-7.5 4-3 14.3-4.2 21.3a31.3 31.3 0 0 0 28 27.1c7.4 4.4 17 1.3 25.3 2.2 10 1 18.9-1.3 28-4.7 9.3-3.2 22.5-19.5 14.7-27.9zm-28.7 20.9c-5.5 2.5-13.4 1.6-20.4 1.7-11.3-.2-22-1.3-31.3-9.4-2.6-4.3-8.2-22.4.6-21.6H349c-1.8 9.5 5.3 19.8-5.4 25.4a24 24 0 0 1-13.3 3.9zm25.2 34.7c12.8-6.6-4-12.6-11.6-10-25.5.3-51-.5-76.5.4-9.3 9.8 7.8 10.6 14.5 9.6H313v31c-15.2.3-30.5-.5-45.6.4-9.4 9.8 7.7 10.6 14.5 9.6 25.1-.3 50.4.5 75.5-.4 9.3-9.8-7.8-10.6-14.5-9.6H323v-31h32.5z"/></svg>