<svg xmlns="http://www.w3.org/2000/svg" width="512" height="512"><path d="M202.2 225c6.2-4.7 11.6-10.8 19.2-13-4.7-3-11.1 4.5-15.5 7.5-5.3 8.2-9.6-1.2-14.2-5-5.6-4.5-9.5-12-16.5-14.2-12.8 4 .7 14.6 5.8 19.6 2.4 4.7 14 9 9.6 14.1-1.5 2.9-12.2 13.4-6.5 11.5 4.3-3 8-16.5 12.9-9.7 7.2 6.9 13.7 14.6 21.4 20.9 7.9-.3 12.1-10 20.3-13 7.4-2.3 15.9-4.1 23.7-4.2 9.2 2 19.2 1.8 26.3 8.7 6.6 5.5 13.4 13.3 19.8 2.5l16.9-17.5c5.8 6.8 13.3 12.7 14.6 22.1 2.7 5.7 3 13.9 7.7 17.7-.7-5.5-4.3-12-5.8-18-1.4-10-9-16.1-15.2-23.3 7.2-8 15.4-15.2 22.1-23.7 0-14.7-14.1-3.1-18.3 3.3l-24 25.2c-7.4-5.8-14.4-12.4-24-13.7-7-3.7-14.2-1.4-3.1 1 8.3 1.8 15.8 5 21.9 11 8.8 4.3-5.5 9.3-6.7 15-7-4.8-13.8-10.5-22.8-10.5-8.4-2.8-16.9-1.7-25.3.4-8.2 0-14 6.1-20.5 10-1-5.6-16.2-10.7-7.9-14.8 8.2-7.5 18.8-9.9 29.2-12.9-.7-4-11.4 2.5-15.9 2.8-7 1.8-12 7.7-18.1 11.3L202.2 225zM146.8 24H180c1 8.3-2.1 17.9 2 25.2 12.5 6.5 11.5-10.2 11-17.9-3-9.8 6.3-7.1 12.8-7.3 9-2.4 10.5 2.7 9.2 10.7-3.6 8.6 6.4 24.8 10 9.4-.3-9.1.7-18.4-.5-27.4C217 11.6 207 15 198.4 14c-18 .2-36-.4-53.8.4-5.9 1.8-3.6 10.2 2.2 9.6zm0 70c-14.3 6.8 3 15.2 11.8 12 20.7-.3 41.6.7 62.3-.5 10.6-10.5-7.2-13.1-15-11.5-5.8-.7-16 3.2-12.9-6.4 1.3-5.4-3.8-17.1 5.3-14.6 8-.8 17 1.7 24.4-1.6 6-11.7-11-9.4-18-9.4-20 .3-40.1-.6-60.1.4-10.6 10.1 7.7 12 15 10.6H180v21h-33.2zm52 66.6c16 .8 28.5-14.8 26.2-30.2 2-8.9-2.5-18.1-12.8-15.4-22.5.2-45.1-.5-67.6.3-10.5 9.7 8.1 10.8 15 9.7 5.3 1.3 17-3.8 14.4 5.3 2.9 8.4-4.8 9.7-10.9 12-7 3.7-15.9 4.6-21.3 10.4-.8 13.7 14.2 4.4 21 1.8 9.2-5 16.6-7.8 23 2.8 4 2.2 8.6 3.3 13 3.3zM184 125h31c1 9.8.2 22.9-12.6 24-14.1 3-20.8-11-18.4-22.7v-1.1zm182.2 285c-20.9.3-42-.6-62.7.5-6.4 5.4-2.4 15.1-3.5 22.5-3.9 13 14.7 14 11 .3.7-5.8-3.2-16.4 6.4-13.3 5 1.6 16.8-3.6 16.6 3.2-4.2 9.5 8.4 23.5 12 8.7-.1-6.6-2-15 7.5-11.9 9.6-3.1 5.9 7 6.5 12.8-4.2 13.4 16.8 14.5 13 .5-1.3-7.6 3.4-18.1-4.4-22.8zm2.8 74.8l-21.5-12.1c7.7-4.6 16-8.3 23.2-13.6 4.2-14.1-12.6-7-18.4-2-5.8 2.4-11.5 7.8-17.3 8.6-9.6-5.1-18.7-11.3-28.7-15.7-14.2 3.7.5 14.5 7.8 16.9 5.8 3.1 14.8 6.3 3.8 9.5-5.8 4.6-16.5 5.7-17.8 14 4.7 10.8 15.4-1 22.4-3.6 5.7-1.7 11.4-10.3 17.2-5.5 8.9 4.5 17.2 10.7 26.5 14 5.8.3 7.8-8 2.8-10.5zm-59-119.1c-1.6-3.6-9.8 5.4-14.4 5.6a47.7 47.7 0 0 1-24.6 6.9c-3.2-.2-17.4 1.7-7.4 1.6 10.1-1 20.6.4 29.5-5.4 5.8-2.7 11.8-4.9 16.9-8.7zm38.3-67.3a231 231 0 0 1-12 38.4c-3 2-13.4 13.7-5 7.6 5.5-4.4 9.2-9.8 10.5-16.7 3.4-9.4 6-19 8.3-28.8.3-1.4-1.7-1.5-1.8-.5zM247.2 205c12-2.8 24.5-1.3 36.5.5 4.2 1 13.5 9.3 14.8 5.3-8.3-4.2-16.4-9.3-26.1-8.5-8.7-1.3-17.6-1-26.1 1.2-.6.7.2 1.6.9 1.5zm-73.8 66.2c-2.8 5.5-1.7 13.5-3 20 1.7 11-.3 23.6 6.7 33 1.4-4.8-4.8-11-3.4-17-1.8-11.7-1-23.3.5-35 .3 0-.5-1.3-.8-1zm72 89a69 69 0 0 1-27.4-13c-7.8-4.1 6.8-9 8-14.8 7 4.8 13.8 10.5 22.8 10.5a39 39 0 0 0 23.2-.2c8.7-.4 15.2-6.6 22.5-10.5 1.2 6 16 11 6.4 15.4-7.3 7.9-17.8 9.5-27.6 12.6.8 4 11.3-2.5 15.9-2.8 6.9-1.7 11.4-8 17.2-11.6 11.8 11.7 22.7 24.5 35 35.7 14.6.4 3.6-14-2.7-18.4-12.2-12.4-23.7-25.7-36.4-37.5-7.8.2-12.5 9.5-20.7 12.2-6.8 3.4-15 4-22.4 5.1-9.4-2.1-19.9-1.7-27.3-8.8-6.6-5.5-13.3-13.3-19.8-2.7l-18 18c-8.5-9.6 1.9 2.4-5.2 5-6.2 6.7-13.3 12.6-19 19.7-.2 14.8 14 3.4 18.4-3 4.8-2.9 9.1-12.9 14.2-11.1a60 60 0 0 0 24 14.3c8.3 5 10 .6.8-1.7a65.6 65.6 0 0 1-25.1-15.3c4.9-2.7 9-14.4 14.6-8.7 7.3 6.4 16 10 25.2 12.5 1 .6 6 2 3.4-.9zm-11.6-92.8c8.6-4.8 17.5-10.4 27.5-11a52.4 52.4 0 0 1 23 11c2.7-2.8-8.2-7.4-11.5-9.6-6.7-2-13.3-5.2-20-1.5-7.3 1.5-13.7 6-19.9 10-.4.3.5 1.6.9 1.1zm10.8 56.6c8 1.6 15.2 6.8 23.2 3.7 7.7-.1 12.6-7.3 18-11.8-2.4-1.3-2.5-12-10.1-15.6-4.7-4.6-12.5-9.3-3.3-13.8 4.5-5.5 18.2-12.3 9-19.5-8-3-10.7 12.2-18.4 6-6.7-2-13.1 5.1-17.1-2.5-9.4-11.2-16.6 6.2-5.2 11 2.8 4.5 14.7 9.2 6.1 13.6-4.2 5.8-16.3 10.4-11.4 18.8 8 8.4 12.6-12.5 19.2-3.9 6.8 2 12.9-5 17 2.5 6.2 7 14 3 3.2 10.4-5 2.7-12 3.5-17.6 2.4-8.7-1.1-16-5-22.9-10.4-4.5 1.7 8.7 7 10.3 9.1zm19.3-16c-5.8 1-16.7-.6-7.2-6.3.6-5.4 11.6 6 7.2 6.3zm-5-24.1c-6.3-4.4-8.9-10.7 1.3-8.9 11.6-.8 2.1 5-1.2 8.9z"/></svg>