<svg xmlns="http://www.w3.org/2000/svg" width="512" height="512"><path d="M266.7 172H342c.5 18.2-1 36.7.8 54.8 12.4 15.1 21.5-5.4 18.2-17.2V172h52c.5 18.2-1 36.7.8 54.8 12.4 15.1 21.5-5.4 18.2-17.2-.5-16.1 1-32.5-.8-48.5-6.8-8.7-19.3-3.8-29-5.1H266.7c-11.5-.9-11.5 16.9 0 16zm131.9 84.8c-21.8-5.5-43.3 8.3-52.3 27.8-8.7 13.7-16.3 28.6-25.7 41.7-20.8 18.3-51.5-7-42.5-30.7 1.9-12.6 28.8-38.8 1.9-37.8-13.7 14.7-27.2 39.6-18.6 59 5.2 32.7 51.3 44.1 73.2 20.7 8.3-10.2 13.4-22.8 20.8-33.8 8.2-13.4 16.1-32.2 35.2-30.2 27.7 2 30.4 37.3 18.4 56.4.5 26.3 25.2 3 23-12.5 6-18.2-.6-37.7-13.9-51a43.9 43.9 0 0 0-19.5-9.6zM478.7 100H199c-16.6-.4-19.4 17.2-18 30v119H25.2c-20 6.5-.1 21.8 12.6 17H181c.2 44-.5 87.9.4 131.7 3 15.6 20.2 14.7 32.4 14.3h265c16.4 0 18.4-17.9 17.2-30.4V117.3c.3-9.3-7.9-17.6-17.3-17.3zM462 378H215V137h247v241z"/></svg>