<svg xmlns="http://www.w3.org/2000/svg" width="512" height="512"><path d="M197 136h61c.5 14.3-1 28.8.8 42.9 11.7 12.6 19.1-5.4 16.2-15.9v-27h42c.3 14.3-.7 28.7.5 42.9 11 12.7 15.7-6.8 13.5-15.9-.4-12.4.8-25-.7-37.2-6.9-6.8-17.9-2.7-26.7-3.8H197c-9.3-.3-9.3 14.3 0 14zm106.6 69.5c-16.6-4.6-32 6.3-42 18-7 11.8-13.2 24.6-21 35.7-16.1 14.5-41.6-4.7-34-23.8 2.7-9.3 22.1-30.7 1.1-29.2a57.6 57.6 0 0 0-16.9 45.5c6.3 14 18.8 27.7 36 26.7 15.1.4 28.9-10 33.6-24l12.6-22c9.9-18.3 43.6-18 43.5 7 4 9.5-15.3 38.6 7.2 30.7 10.2-17.2 12.7-39.6-2-54.5a34.8 34.8 0 0 0-18-10.1zM194.5 373.9c-14 10.4 5.9 17.6 14.9 10.7 39.2-11.3 78.8-21.7 117.8-33.7 9.8-10.3-6.8-14.8-14.7-16.3L199 302.5c-17.8 1.4-4.5 18 7 17 4.8 3.1 16.3 1 16 8v38.4l-27.5 8zm44.5-45.7l59.5 16.8-59.5 16.8v-33.6zM369.6 16c-76.7.2-153.4-.4-230.1.3-14.8 3.6-11 20.4-11.5 31.7v433.4c0 14.4 15.5 15.6 26.3 14.6 72.8-.2 145.5.4 218.2-.3 14.8-3.6 11-20.4 11.5-31.7V30.6c.1-7.7-6.6-14.8-14.4-14.6zM355 467H155V46h200v421z"/></svg>