<svg xmlns="http://www.w3.org/2000/svg" width="512" height="512"><path d="M126.9 280c86.8 0 173.7.2 260.6-.1 22.3-1 27.8-35.5 6.4-43.1-14.8-3.6-30.5-1-45.8-1.8-74.5 0-149-.2-223.5.1-22.4 1-27.8 35.5-6.5 43.1 2.8 1.2 5.8 1.8 8.8 1.8zm86-112c30.3-.3 60.5.6 90.7-.5 22.2-3.2 24-38 2.1-43.5-20.2-2.2-40.7-.4-61.1-1-13.4.8-27.3-1.8-40.4 1.8-22.4 9-15.4 43.4 8.8 43.2zm258.4 176c-144.3 0-288.6-.2-432.9.1-22.3 1-27.8 35.5-6.4 43.1 14.9 3.6 30.6 1 45.8 1.8 132 0 263.8.2 395.8-.1 22.4-1 27.8-35.5 6.4-43.1a22.3 22.3 0 0 0-8.7-1.8z"/></svg>