<svg xmlns="http://www.w3.org/2000/svg" width="512" height="512"><path d="M256 208c-66-1.3-128 49.4-140.1 114.2a143.6 143.6 0 0 0 63.3 149.4c10.2 8.3 24 12 36.4 16.6A143.6 143.6 0 0 0 376.5 428 143.4 143.4 0 0 0 357 250a142.9 142.9 0 0 0-101.1-42zm-81 228.3c-37-34.3-48.6-93.2-24.2-138 5-9 19.1-32.7 24.2-29.3v167.3zm81-202.2c54.7-1 105.8 41.6 114.8 95.5L216.4 241c12.7-4.6 26.1-7 39.6-7zm-52 29.2l154.9 88.8L204 440.8V263.3zm52 204.5c-9.6-.3-35.6-1.7-34.3-7.7l148.7-85.3a117.4 117.4 0 0 1-114.4 93zm-45.7-404c30.8.4 61.8 0 92.6.2 16-7-2-17.8-12.2-14-27.3-.2-54.7.4-82-.3-19.7-.8-10-22.7-19-31.2-14.2-1.9-9.8 18-7.4 26a32.2 32.2 0 0 0 28 19.3zm23.5 57.9c7 31.1 53.8 36.5 70.8 11 9-12.6 5.8-28.2 6.4-42.7-3.5-11-17-5.8-25.8-7h-98c-16 7 2 17.8 12.2 14H231c1 8-2.5 18 2.8 24.7zM243 97h55c-.2 12.7 2.7 29-11.7 35.4-15.5 8.9-41.2.2-40.7-20-5-3-1.7-10.3-2.6-15.4z"/></svg>