<svg xmlns="http://www.w3.org/2000/svg" width="512" height="512"><path d="M255.5 17.1c-16.3-.5-24.8 16.4-22.5 30.8 0 142.4-.2 284.8.1 427.2 1.5 24.6 40.5 26.5 44.4 2.2 1.1-43.3.2-86.7.5-130 0-103.5.2-207-.1-310.4-1-11-11.4-20-22.4-19.8zM366 127.4c-17.1-.5-24 17.4-22 31.8 0 69.8-.2 139.6.1 209.3 1.3 27.2 45.3 24.8 43.9-2.2 0-73 .2-146.1-.1-219.1-.9-11-11-20-21.9-19.8zm-221.5 0c-17-.5-22.2 18-20.5 31.8 0 69.8-.1 139.6.1 209.3 0 27.3 43.5 24.6 40.9-2.2 0-73 .1-146.1-.1-219.1-.5-10.6-9.5-20.2-20.4-19.8z"/></svg>