<svg xmlns="http://www.w3.org/2000/svg" width="512" height="512"><path d="M484.7 20c-16.9-10-32.8 5.6-48 11.6C299.8 99.5 162.8 166.9 26.2 235c-16.7 10.5-10.9 37 7.4 42l428 215.9c18 9.7 38.3-8.6 34.3-27.3-.1-143 .3-286-.2-429.1-1-6.8-5.3-13-11.1-16.6zM448 160c-6.4-17.8-27.9-20.6-42.6-23h-56c-19.2 2-33.8 17.1-39.6 35-.6 10.7-3 23 2.3 32.7 22.5 12.9 16.4-18.2 22.4-29.7 2.8-18.2 24-13.4 37.2-14 16.9 1 34.6-2.7 50.6 3.2 17.2 9 .8 32.6 14.8 43 16.2-7 9.6 7.4 10.9 18.3-.4 9.7 2.5 26-6.7 8.3a40 40 0 0 0-41.1-11.8c-19 .3-38.5-.5-56.7.3-27.2 4.3-43.6 41-23.2 61.7 12 14 28.3 13.8 43.9 12H407c12.4 10.1 36.4-9.9 41-18.4V435l-152-77.3c-2.9-14.2 8.4.5 13.9 3.4 19.3 18.3 59.7 3 54.6-25.4 1.5-24.3-47.9-31-31.2-2.8 24.2 10.8-10.2 18.2-17 4.1-10.1-7-18.8-16.7-30.1-21.6-15.5.3-10.3 18.8-11.2 29-3.7 2.3-14.3-6.6-20.6-8.6L91.1 254.3 448 76.6V160zm-18 100c-2.8 16.3-21.3 20.4-35.2 20-15.9-.7-32.1 1.5-47.8-1.5-25.4-8.8-6.9-41.3 15-34.5 17-.3 34.6.6 51.1-.7 8.3 1.2 17 7.6 16.9 16.7z"/></svg>