<svg xmlns="http://www.w3.org/2000/svg" width="512" height="512"><path d="M426 459.4l-99.4-198.7C360.8 192 395.5 123.9 429.1 55c6.2-17.9-8.7-41.7-28.7-38.1H196.3c-20.4 4.4-27.6 31.7-16.3 48l93 191h-33.2c-9.5-26.1-17.6-52.8-28-78.5-12.7-14.8-21.9 5.1-21.3 17l-13.7 83.8c-7.4-34.4-13.5-69.3-21.7-103.6-7.7-19.6-22.6.2-21.2 12.6l-14 85.5-17.4-90.8c-11.3-21-27.2 3.4-18.8 17.6l26.4 138.6c8.4 19.9 25.3 1.1 23.4-13l13.7-82.4 20.5 95.7c8 19 25.2 1.7 23.2-12.3L207.5 224c6.8 19.8 10.6 40.7 20 59.4 5.7 6.8 16 2.3 23.8 3.6h21.6c-32.3 62.2-65 124.3-97 186.6-6.3 17.8 13.9 24 27.5 21.4h206c17.8.6 28.3-22.3 16.6-35.6zM231.2 77h142.6l-71.3 142.5L231.2 77zm0 390l71.3-142.5L373.8 467H231.2z"/></svg>