<svg xmlns="http://www.w3.org/2000/svg" width="512" height="512"><path d="M325.3 214.3L296 179.7c-.4-10.3-12.2-14.4-18.4-21.3L227.8 116c-20.1-9-17.6 17.5-3.4 22.7 18.9 16 37.6 32.1 56.5 48-.3 5 11 7 15.2 11l29.2 16.6zm65.3-63.3c1.2-63.4-48.6-122.4-111-132.5a135.1 135.1 0 0 0-147.8 80.2A134.9 134.9 0 0 0 235 284v26c-8.5.9-18-2.4-25 3-8 4.7-4.3 15 1.6 19.7l28 34.1c-11 14.1-23.5 27.4-33.8 42-3.2 8.2 5.8 15.3 13.5 13.2 5 1.7 17.5-4 15.7 4.4.4 21.4-.9 43 .7 64.2 6.2 8.7 19.2 4.9 28.6 4.8 10.8-5.3 5.4-18.7 6.7-28.3V422c8.6-1.3 19.8 3.3 26.4-4 6.4-9.3-5.4-16.9-10-23.9l-22.5-27.3c11-14.2 23.6-27.4 33.9-42.2 2.4-6.4-3.1-12.2-8.8-13.7-4.9-2.8-15 1.1-19-2v-24A135.1 135.1 0 0 0 390.6 151zM269 402h-33.4l16.7-20.3L269 402zm-16.7-50.7L235.6 331H269l-16.7 20.3zm3.2-104.6a96.3 96.3 0 0 1-95.4-88.3 96.3 96.3 0 0 1 80.9-102 96.3 96.3 0 0 1 107.2 70.7 96.3 96.3 0 0 1-92.7 119.6z"/></svg>