<svg xmlns="http://www.w3.org/2000/svg" width="512" height="512"><path d="M485.9 457.4L336.4 415l149.5-42.3c20.5-13.7-6.4-26-19.6-16.3L295 405c-9.8 9.1-6.8 15-13.2.4l-95-191.5c26.2-53.4 53.3-106.4 78.9-160 4.7-14.6-9.6-28.9-24.1-27-54.3.2-108.7-.2-163 .3C61.4 29 55.4 50.8 65.5 63.4L140 213.8c-40 81.1-80.6 162-120.4 243.3C14 470.8 28 488.2 42.1 484c82.7-.1 165.4.2 248-.2 20.4-1.8 21.6-25.7 11.4-38.9L290 421.8c13 7.6 29 9.1 43.2 14 50 14 99.8 28.9 150 42.1 11.8.4 14.3-17.8 2.7-20.5zM115.1 69h96.6c-16 32.5-32.2 65-48.3 97.4L115.1 69zM73.2 442l90.2-182 90.2 182H73.2zM297.9 93H371c.4 22.8-3.8 49 15.4 66.1 29.9 31.5 92.2 21.3 105-22.1 3.3-17.7.9-35.9 1.6-53.8-1.8-15-19.4-9-29.7-10.2H297.9c-13.7-.6-13.6 20.6 0 20zm95.1 0h80c-1.3 18.3 5.2 40.7-11.7 53.9-22.1 20-68.4 8.1-68.3-24.8V93zm-22 175.4l-77.3 32.2c-18.4 15.4 8.5 25.6 20.4 14.3l62.6-26c20.8 41.8 89.2 42.4 110.7.8 9.5-19 4.3-40.6 5.6-61 3.3-14.6-11.5-18.8-23.1-16.7h-172c-23.5 7.6-.9 26.7 14.5 21H371v35.4zm22-35.4h80c-1.6 18.4 5.2 40-9.1 54.7-21.2 23-71 12-70.9-22.4V233z"/></svg>