<svg xmlns="http://www.w3.org/2000/svg" width="512" height="512"><path d="M266.2 166H323c.8 10.8-1.7 22.2 1.5 32.5 8.5 22.6 30.3 42.1 56.4 39.6 27 0 52.3-24 49.1-51.8-.4-11.2.8-22.5-.7-33.5-5.6-9.6-18.2-4.5-27.4-5.8H266.2c-11.5.4-11.5 18.6 0 19zm75.8 0h70c-1.2 15.8 4.6 35-9.8 46.5-18.3 16.5-56.2 7.3-57.3-19.6-3.8-7.4-2.9-16-2.9-24.8-.8.1.7-2.1 0-2.1zm55.3 99.6c-21.2-5.4-42.2 7.6-51.5 26.3-8.8 13.2-16.9 27.1-26 39.8-19.9 17.7-51.3-5.9-41.8-29.4 3.3-11.4 27.1-37.6 1.4-35.8-14 14.3-23.6 35.9-20.9 55.9 7.4 14.7 18.6 30.6 37 32.3 20.3 3.8 41-8.5 48.4-27.4 9.8-13.7 16.8-30 29.6-41.3 23.8-15.5 49 14.1 38.8 36.8-10.4 10.1-2.4 35.4 11.1 20 5.3-14.5 15.2-34.4 5.4-48.3a41 41 0 0 0-31.6-29zM476.9 100h-278c-16.4.2-18 18.3-16.9 30.7V247H26.2c-19.7 6.7-.5 23 12.6 18H182c.2 44-.4 88 .3 131.9 2 15.4 18.3 16 30.3 15.1h264.3c16.6-.3 19.5-18.2 18.1-31.2V118.2c0-9.6-8.5-18.3-18.1-18.2zM459 377H218V135h241v242z"/></svg>