<svg xmlns="http://www.w3.org/2000/svg" width="512" height="512"><path d="M229.8 240.3c9.1 2.5 18.2 7.1 27.4 8.4 10.7-4.8 24.4-4.9 31.7-15.1 6.4-6 12.8-11.9 14.1-21 2.1-8 8-15.9 2.7-23.9-3.4-8.8-4.3-19.3-12.8-25-6-6.4-11.8-12.8-20.9-14-8-2.2-16-8-24-2.8-9.8 3.3-20.2 5.5-27.5 13.6-5.4 5.2-14.5 8.2-13.7 17-2 10.7-4.4 21.4-1 32L208 223M404.4 422c-101.3.2-202.6-.3-303.8.2-23 7.8-30.3 40.5-15.9 59.2 6 12.3 19.7 13.5 31.7 12.6 96.9-.2 193.8.3 290.7-.2 23-7.8 30.3-40.5 15.8-59.2-4.1-6.3-10.5-12.5-18.5-12.6zm-146.2-50.8c80 1.5 155.4-58.7 172.2-136.9a177.5 177.5 0 0 0-84.3-193.1 177.1 177.1 0 0 0-212.8 28.3c-56 54-68.3 146.1-28.4 212.9 30.6 54.1 91 89.4 153.3 88.8zm0-301.1c60.7-1.3 116.8 48.2 123.3 108.6 8.9 59.1-31.6 120.1-89.3 135.4A125 125 0 0 1 146 248.4 124.8 124.8 0 0 1 186.2 93c20.9-15 46.4-23 72-23z"/></svg>