<svg xmlns="http://www.w3.org/2000/svg" width="512" height="512"><path d="M385.7 315c-6-41.2-56.9-62.4-92.3-44.1-15.3 6-23.6 20.5-33.7 32-12.6 21.8-24.9 44.2-37.7 65.6-19.8 20.2-61.6 10.3-64.8-19.5-7.5-19 3.4-39.5 14.2-55.8 19.6-12.3-5-40.4-17.8-20.3a122 122 0 0 0-27 75.2c8.2 19 16.4 41.6 37.7 50.5 30.5 15.8 73.5 4.2 88.2-27.8 5.8-14.5 15.4-27.7 22.7-41.7a94 94 0 0 1 15.2-22.1c16.6-25.2 62.8-19.5 69 11.3a65.3 65.3 0 0 1-3.5 49.6c-17 17.1 14.5 40.5 22.3 15.3 6.9-20.7 20-48 7.5-68.2zm80.2-209c-140.7 0-281.3-.2-421.9.1-16.2 1-27.5 17.1-25 32.7.1 67.8-.2 135.6.1 203.4 2 22.8 34.5 32.1 48.4 14 10.5-12.5 5.2-29.8 6.5-44.8V160h365c.1 60.7-.2 121.4.1 182.2 1.5 22.7 34 32.2 47.6 14 10.2-12.7 5-29.8 6.3-44.8-.1-60.7.2-121.3-.1-182a27 27 0 0 0-27-23.4z"/></svg>