<svg xmlns="http://www.w3.org/2000/svg" width="512" height="512"><path d="M286.7 143.3c-17.7 23-32 56.9-17 84.6 17.2 30 64.4 33 85.7 6 10.7-5.9 13.7-19.6 20.6-29.2 10.3-16.7 17.7-38 38.3-44 23.8-7.5 45.2 17 37.4 39.8-3.2 14.4-19.7 51.6 9.1 39.6 11.8-23 19.7-53 7-77.2-19-33.4-74.2-32.6-91.7 1.8-10.2 10.5-15.4 25.2-23.4 37.5-8.4 15.5-22.6 31.8-42.3 28.7-27.8-2.4-30.4-34.9-19-54.4 7.5-11.2 25.9-39.8-1.4-36l-3.3 2.8zM460 287c-64 0-128.1-.2-192.2.1-15.5-1.5-17.4 12.4-15.8 24 .3 20.5-.6 41.2.4 61.8 7.7 15.3 35.6 7.8 30.6-10V317c59.7-.3 119.5.5 179.1-.4 11.8-5.5 11.2-26.7-2.1-29.6zm-271.3-27.2c34-68.1 68.4-136 101.9-204.3 6.3-18.2-9.4-41.4-29.3-37.5-68.3.3-136.6-.5-204.9.4a29.7 29.7 0 0 0-13 44.5l97.3 195.7C107 327 72.5 395 39 463.3c-6.2 16.5 9.9 34 26.7 30.7H271c24.3-1 25.2-29.7 12.5-44.4l-94.6-189.8zM94 79h141.7l-70.8 141.6L93.8 79zm0 386l70.8-141.6L235.6 465H93.9z"/></svg>