<svg xmlns="http://www.w3.org/2000/svg" width="512" height="512"><path d="M259.3 263.7c1.8 24.3 30 40 52 30 16.6-6 21.2-24 31.1-36.9 7.2-8.3 8.6-21 19.6-25.3 23.5-10.2 39.5 19.3 30.1 38.3-12.8 12.2 6.9 30.5 12.3 11.5a48.3 48.3 0 0 0-10.1-59.4c-18.7-15-51.6-6.9-58.5 16.7-9 12.6-15.7 27.3-26.3 38.4-22.5 16-46.5-15-28.8-35.1 10.6-6.6 12-31.7-4.6-21.3a77 77 0 0 0-16.8 43zM472.6 127H227.8c-15-1.6-14.5 14-13.8 24.2V257h-84c23-47.5 46.5-94.8 69.2-142.5 4.2-13.6-5.7-33.5-21.6-30.5H33c-18.8 4.6-17.3 26.4-8 39l66.6 134.1-72.4 145.2c-8 18 11.4 29 26.7 25.7 47.4-.2 95 .5 142.3-.4 16.8-5.2 12-20.7 4-30.7L129.8 277H214c.2 35.1-.5 70.3.4 105.4 1.7 15.3 14.5 25.9 29.5 22.6h228.7c15.7-4.6 23.4-22.5 21.4-38V137.2c-1-9.8-14.1-9.7-21.4-10.1zM159.7 405H57.9l51-101.8L159.6 405zm-50.9-176.2L57.9 127h101.8l-50.9 101.8zM451 361H237V148h214v213z"/></svg>