<svg xmlns="http://www.w3.org/2000/svg" width="512" height="512"><path d="M193.4 170.8c4.3 27.5 44 36 61 15.1 7.3-12.2 14.1-25 21.4-37.5 9.1-19.3 43-15.7 42.1 7.8 5.4 10-16.4 41 7.2 33.2 10.2-17.4 12.5-40-1-56-14.7-18.1-47-15.6-58 5.3-9 10.7-14.4 24.2-21.9 36-9.6 16.3-39 7.8-37.4-11.8-7.7-13.1 27.5-39.2 1.7-40.1-11 12-22 32.2-15 48zm4.3 113.2c11.2-2 6.2-15.6 7.3-23.7-2.7-14.6 10.6-27.3 25-26.3h69c19.8 1.8 18.4 17.8 17 32-4.8 11.7 11.1 27.2 15 9.6-1-9.3 1.2-17 2.5-25.2-2.5-22.8-27.2-33.3-47.7-31.4-20.6.4-41.3-.7-61.8.6-20.4 1.7-36 21-34 41 1.2 8.2-4 21.8 7.7 23.4zm-.1 107.5c43-11.5 85.9-24.2 128.8-36.1 13.4-7.7-2.6-16.7-11.5-17.1l-115.2-32.6c-18 1.5-4.5 18.1 7 17.1 5 3 16.5 1 16.3 8v38.6c-10 3.3-20.6 5.2-30.3 9.3-5.2 4.3-1.7 13 4.9 12.8zm40.4-60l59.8 17-59.8 16.9v-33.8zM370.3 15c-77.2.2-154.4-.4-231.5.3-14.6 3.1-11.6 19.5-11.8 30.7v436.4c.1 14.5 16 15.5 26.8 14.6 73.1-.2 146.3.4 219.4-.3 14.6-3.1 11.6-19.5 11.8-30.7V29.6c.1-7.9-7-14.7-14.7-14.6zM355 467H157V45h198v422z"/></svg>