<svg xmlns="http://www.w3.org/2000/svg" width="512" height="512"><path d="M329 359.2c-8.2 1.8-17 .3-25.4.8-14.5-3.9-21.2 11.3-18.6 23 6.1 10.8 6.4-6.4 6.2-11.7 4.8-8.9 15.6-4.1 23.8-5.3 8.1 1.2 17.8-3.1 23.6 4-1.2 5.8 2.2 25.8 6.4 11 2.6-11.2-2.5-21.7-16-21.8zm16 39.5c-5.6-4.7-13.8 2-20.5 2.6-13.1 4-27 6.7-39.6 11.8-.7 7.8 11.8 6.3 17.3 9.3 13.3 3.6 26.5 7.6 39.8 11 8.2-6.8-8.7-8-14-10.1l-29.2-8.4 44-12.4c1.4 2.6 2.8-5.3 2.1-3.8zM196.2 91h121.8c9.5-2.4 4.7-14.4 5.9-21.6-.3-16 .6-32-.4-47.8-5-6.5-14.6-2.5-21.8-3.6H196.3c-10 1.8-5.2 14-6.3 21.2.3 16-.7 32 .5 47.9 1 2.3 3.3 4 5.8 3.9zM311 79h-77.1L311 59.4V79zm0-49v20l-78.4-20H311zm-109 0c13.3.4 26 6 39 8.6L304.6 55c-32.5 7.9-65 16.5-97.5 24-8.7 2.2-3.7-9.1-5-14.3V30zm102.9 423.9L287.3 464 269 390c17.7-28.9.8-70.5-31.6-79.5-31.7-11-68.9 13.5-71.2 47a55.4 55.4 0 0 0 48.3 60.2l58.5 54.9c-6.7 4.7-15.8 7-20.4 14 .6 14 15 3.7 21.4-.3 12.9-7.9 26.5-14.7 39-23.3 4-5.2-2.5-12.5-8.1-9zm-126.6-91c-1-27.6 29.2-50 55.4-40.7 26.5 7.2 39 42.4 22.7 64.6-14.5 23.4-51.7 25.2-68.3 3.3a42.6 42.6 0 0 1-9.8-27.1zm53.6 54c13.1 2.2 29.5-25.7 30.1-3.6l10.3 41.6-40.4-38zm85.8-92.5c-5.8 4.8-7.8 13.7-12.5 19.2-18.3 6.5-13.4-16.3-9.8-24.4-13 1.6-15 27-.7 31 14.6 5.6 19.5-9.6 25.2-19.3 10-15.7 26.3 1.7 17 14.6 17.7 3 6.5-37.1-12.4-26.3-2.7 1-5.2 2.9-6.8 5.2zm-55.5-147.2c-11.7.5-24.4-2.4-35.2 3-17 10.3-1.5 33.1 15 28.8 12.7-1 29.4 4 36.8-9.7 5.5-11-5.5-22.7-16.6-22.1zm0 25.7c-10.4-.5-21.4 1.7-31.4-1.6-14.4-12 5.5-21.4 16.8-18.3 9.5.4 24.3-2.8 26.4 10.1 0 6.1-6.3 9.9-11.8 9.8zm-42.5 45.5c5.7 4.2 12.8-3.6 19-4.9 11-8 19.1 16.6 33.1 4.3 10.3-5.1 8-17 8.2-26.4-3-6.7-13-2-19.2-3.4-13.1.2-26.4-.4-39.5.3-5.6 9.9 9.9 6 15.5 6.7 7.8-3.3 7.3 6.4 5.3 10.3-7.3 3.8-16 5.7-22.4 10.8v2.3zM249 225h25c2.8 11.1-6.3 24.4-18.5 17.4-5.8-3.5-6.8-11.2-6.5-17.4zm-14.1 119c-8.4-6-20-5.2-28.3.3-9.7 6-12.1 19-7.4 29a23.9 23.9 0 0 0 26.3 14.2 22.7 22.7 0 0 0 18.5-24c.5-4.3-2-8.2-3-12.3"/></svg>