<svg xmlns="http://www.w3.org/2000/svg" width="512" height="512"><path d="M485.6 388c-21.3 5.2-9.5-26.7-22.5-37.3A85 85 0 0 0 394 308c2-7-1.3-26.8-9-13.9 6.6 22.4-22.2 13-34.3 23.7l-69.5-51.5c4.2-7.7-4.5-18.4 5.3-22.2l66.1-49c12.2 9.7 38.6 1.3 32.4 22.8 7.7 13 11-7 9-13.9 42.3-.6 78.7-38 79.8-80 11 4.2 24.6-8.5 6.4-8-14.3-5.2-8.3-39-26-50-14.1-18.9-39.6-28-60.2-31.6 3.3-7.8-4.2-26-9-11.3 6 21.8-23.7 11-35 22.1a82.2 82.2 0 0 0-44.3 70.8c-6.5-1-29.3-.4-16.3 8 21-6.2 17.2 13.5 22.8 28.3 0 15.5 30 28 23 37.4L273.4 236c-6.2-4.3-15.3-8.4-22.6-4.6-8.4 5.1-14.2 4.4-21.2-3L174 187.1c24.3-12.3 29.4-46.4 38.6-63.2 12.8 4.3 20.3-10.3 3.4-8-16.4-1-7-34-22.5-43.8A86.8 86.8 0 0 0 127 35.7c2-7-1.3-26.8-9-13.9 6.2 20.5-17.5 13.6-29.6 21.7a84 84 0 0 0-48 72.5c-8-3-28.7 4.3-11.3 8 21-5.1 9.6 26.5 22.1 37a82.8 82.8 0 0 0 66.8 42.9c-2 7 1.2 27 9 14-6.5-22.2 21.3-12.2 33.5-22.1l70.5 51c-4.4 7.5 3.4 18.2-3.1 23l-65.6 47.4c-12.3-10.9-41.6-.5-35.3-23.1-7.8-13-10.9 7-9 14-41.2 2-77 38.6-77.7 79.9-8-3-28.6 4.3-11.2 8 21-5.1 9.6 26.6 22.1 37a82.8 82.8 0 0 0 66.8 43.1c-2 7 1.2 27 9 14.1-6.3-21 18.2-12.8 30.5-20.7 29.3-12 49.6-42 51-73.5 8 3 28.8-4.2 11.4-8-22.6 4.5-9.3-32.7-25.7-43-10.8-13-25.7-21.7-4.7-30.4l51-36.9c6.8 4.6 16.3 9.1 24.3 4.6 8.1-6.3 13.4-1.8 20.4 4.3l52.7 39C315.1 338.4 311 372 301.7 388c-9.4-4-26 6.8-8.2 8 21-6 10.9 22.8 21.5 33.7a84.6 84.6 0 0 0 70 46.4c-2 7 1.2 27 9 14.1-6.3-20.7 17.6-12.9 29.8-20.7a84.8 84.8 0 0 0 50-73.5c5.5 1 26.4-.5 11.8-8zM394 63.5c25.6-1.3 58.8 33.5 48.2 52.5H394V63.5zm0 60.5h52.1a55.5 55.5 0 0 1-52.1 52.2V124zm-9-60.4V116h-51.5A56.5 56.5 0 0 1 385 63.6zM333.6 124H385v52.1a57 57 0 0 1-51.4-52.1zM118 176.1c-25.1.8-55.9-34-45.8-52.1H118v52.1zm0-60.1H68.1c-2-25 31.4-58.5 49.9-48.4V116zm9-52.5c25.9-1.5 60.5 32.9 49.8 52.5H127V63.5zm0 112.7V124h53.7a56.1 56.1 0 0 1-53.7 52.2zm-9 272.2C92.8 449 62.1 414 72.2 396H118v52.4zm0-60.4H68.1c-2-25 31.5-58.2 49.9-48.1v48zm9 60.5V396h53.7a58.6 58.6 0 0 1-53.7 52.5zm53.8-60.5H127v-52.2a57.5 57.5 0 0 1 53.8 52.2zM385 448.4c-25.5 1-57.6-33.7-47.4-52.4H385v52.4zm0-60.4h-51.5c-2-25.6 32.8-58.2 51.5-48v48zm9 60.5V396h52.1c-2.3 26.8-24.7 51-52.1 52.5zm0-60.5v-52.2c25.5-1.4 58.9 33.2 48.2 52.2H394z"/></svg>