<svg xmlns="http://www.w3.org/2000/svg" width="512" height="512"><path d="M393.8 436.8a184.1 184.1 0 0 0 29.2-209c-35.4-71.8-120.8-114-199.3-97.6a186 186 0 0 0-88.3 44.4c-11.5-10.8-21.4-23.6-34-33-17.2-7-25.8 18.7-10.7 26.7l25.8 26.2A183.4 183.4 0 0 0 95.7 400c37.2 71.1 124.2 111.4 202.4 92.4a187.4 187.4 0 0 0 75.5-37c11 10.2 20.4 22.5 32.5 31.3 17.2 6.9 25.7-18.7 10.7-26.6l-23-23.3zM258.3 442c-63.5 1.4-122.3-50.4-129.1-113.6a128.8 128.8 0 0 1 25.8-94.9l180.2 182.8a129.3 129.3 0 0 1-77 25.7zm97-44.3L173.8 213.6c43.2-39 113-42.5 159.8-7.9 51.2 35 70.3 108.6 41.2 163.5-5.2 10.3-11.8 19.9-19.5 28.5zM96.1 55c107-.2 213.8.3 320.7-.2 30.6 2 26.6-44.8-2.7-39.7-107.8 0-215.7-.4-323.5.1C60 13.2 64 60 93.3 55l2.8.1z"/></svg>