<svg xmlns="http://www.w3.org/2000/svg" width="512" height="512"><path d="M433.8 414.6a237.3 237.3 0 0 0 45.9-243.5C446.9 82 357.1 18 262.2 16.8A237.5 237.5 0 0 0 97.4 78.2c-15-13.9-28-30.3-44.5-42.4C31.5 27 19.6 59.2 38.5 69.5L73 103.8a237 237 0 0 0-37.3 245.3C71.3 436 161.9 496.6 256 495.3c55.3.3 110-20.7 152.2-56.1 15.1 14 28.4 30.6 45 43 21.4 8.8 33.3-23.4 14.3-33.7l-33.7-33.9zM256 424.4c-79.2 1.5-153.1-60.5-165.7-138.6-8.7-46 3.9-95 32.7-131.8l235 235a167 167 0 0 1-102 35.4zm127.7-59.9L147.5 128.4A167 167 0 0 1 343.2 112c66.7 39 99 127 71.5 199.4-7 19.4-17.7 37.5-31 53.1z"/></svg>