<svg xmlns="http://www.w3.org/2000/svg" width="512" height="512"><path d="M360 211.9c-3.1-14.9-20.6-8.5-31.5-9.9H162c-14.9 3-8.5 20.6-9.9 31.5 1.4 9.8-3.7 22.2 4.3 29.7 8.2 45.3 71.5 60.3 103 29.3 11.3-23.7 27.3 13.4 47.9 7.5 27.4 3.1 62.5-22.5 52.8-52v-36.1zm-101 42.6c-.8 37.7-56.9 49.4-77.6 20.5-10.5-15.6-9.6-34.9-9.4-53h87v32.5zm51.1 27.9c-18.8 1-37.5-15-34.1-34.6V222h64c.5 12.3-1 24.8.7 37 4 13.4-18.6 24.3-30.6 23.4zm94 96.7c55.4-62.8 61.2-162.4 13.6-231.3-13.6-11.2-12.3-20.5 1-29.7 24.1-24.3 48.9-48.1 72.5-72.9 13.6-20-19.4-38.6-31-18.3l-79.7 79.7C317.2 52 217.7 47 149.3 95.3c-11.2 13.7-20.6 13-29.8-.7-24.8-24.5-49-49.7-74.3-73.8-20-13.6-38.6 19.4-18.3 31l81.3 81.3c-54 64-57.7 163.7-8.6 231.5 15.3 10.4 5.5 18.6-4.4 27.2-24.7 25.1-50.1 49.5-74.4 75-13.6 20 19.4 38.5 31 18.3l82.7-82.6c63.4 54.7 163.2 59.5 231.6 11 10.4-15.2 18.6-5.1 27.1 4.6 24.6 24.3 48.6 49.3 73.6 73.1 20 13.6 38.6-19.4 18.3-31l-81-81zM369 365.3c-49.8 52-136.3 61.7-196.2 21.7-61.7-38-89.4-121-62.4-188.2a157 157 0 0 1 252.2-61c15.3 16.1 32 33.7 40 56.1A157.5 157.5 0 0 1 369 365.3z"/></svg>