<svg xmlns="http://www.w3.org/2000/svg" width="512" height="512"><path d="M490 205.8c-1.3-11.8 3-25.1-3.2-35.6-20.6-12.5-24.4-46-44-63.6a239.8 239.8 0 0 0-252-80.5C97.7 51.4 25.5 138.2 18.1 234.6a240 240 0 0 0 121.7 230.1c83.6 48.2 196 37.9 269.3-25a240.3 240.3 0 0 0 69-95c15 .5 11.6-16.9 11.9-26.8-.3-20.7 7-41 5.3-61.9 0-16.8-1.3-33.9-5.3-50.2zM41 290.4c-4-18.4-2.4-60 0-64.7v64.7zM256.2 38.7c87.8-1.3 172 56.8 202.7 138.9L358 237.8c-.5-21.3 1-42.7-.7-63.8-7.2-10.2-21.6-4.5-32.3-6H57.4A217.2 217.2 0 0 1 256.2 38.7zM337 189v137H62V189h275zm-80.8 284.9c-83 1-163.1-50.6-197.5-125.9H348c14.8-2.8 8.7-20.6 10-31.4v-42.4l100.9 60.5C428 416.8 344.2 475.2 256.2 473.9zm211.8-170c1.1 18.6-13.8 1-21.9-2l-76.4-46 96-57.7c4.6 20 1.3 40.9 2.3 61.3v44.4zM22.6 256.1h467.1"/></svg>