<svg xmlns="http://www.w3.org/2000/svg" width="512" height="512"><path d="M277 145.8c-1.4-13.4-16.5-9-25.7-9.8H28.8c-13.4 1.4-9 16.5-9.8 25.7v202.5c1.4 13.4 16.5 9 25.7 9.8h222.5c13.4-1.4 9-16.5 9.8-25.7V145.8zM257 356H38V156h219v200zm65.3-166.3c-7.4 16.2 16 30.6 13.7 49.2 3.8 25.3 0 52.9-16.4 73.1 0 25 26.9 5.6 28.3-9.3 14-35.1 12.8-78.9-10-110.1-3.2-5.4-10.7-7.5-15.6-3zm54.2-33.3c-9.2 17 15.6 33 16 52 10.7 43.4 7 93-19.5 130.2.6 23.3 25.5 7 27.2-7.3a187 187 0 0 0 4-148.5c-6-10-12-34.3-27.7-26.4zm114.8 70.9c-3.9-31.7-13.4-64.1-34.2-89-20-12.1-19.2 16-6.5 24.2 26.1 45.3 28.3 101.7 15 151.5a142.6 142.6 0 0 1-25.3 50.4c3 28.1 29.1-.6 32.5-14.7 18.3-37.7 23.2-81.1 18.5-122.4zM22.6 256.1h467.1"/></svg>