<svg xmlns="http://www.w3.org/2000/svg" width="512" height="512"><path d="M246.8 254c-16.2.4-32.6-.8-48.7.7-15.5 13.5 8.5 19 19.6 16.3 6.4 2 21.3-4.4 21.3 4v53.8c-25.8 3.3-55.5 9.6-78-6.6-25.3-28.5-28.9-71-21.6-107 3.6-19.8 18-35.6 33.9-46.5 16.6-4.4 35.3-10.3 50.8.5 9.4 9.9 35.9 7 20.7-9.1-18.1-9.6-38.1-19.7-59.1-12.3-10.8 3.2-23.5 3.2-30.8 13.2-31.2 22.5-38.9 64-35.1 100 2.3 29.4 11.8 62.2 37.2 79.7 28.7 14.9 62.5 8.7 93 3.6 10.2-5.3 4.6-19.1 6-28.3-.4-19 1-38.5-.7-57.4-1.6-3.1-5.1-4.6-8.4-4.6zm35.6 90c2.9 11.3 16.7 5.7 24.8 7 18.4-.7 37 1 55.2-1.3 34-16.3 40.7-67.7 11.9-92.3-9-7.6-21.6-9.9-7.2-20 22.9-30.2 2.9-79-34.7-84.4-14.7-1.6-30-1.5-44.8-.2-9.6 7.2-4 20.9-5.6 31.3.3 53.3-.5 106.9.4 160zM299 169c17.2.3 37-3.1 50 11.5 21.8 20 6.7 61.4-22.7 62.5-8.4 2.3-18.3.4-27.3 1v-75zm0 92c14.1.5 28-.6 41.9-1 31 2.6 46 45.3 23.4 66.7-8.6 11.3-23.5 5.3-35.6 7H299V261zm193.1-11.1l-230-230c-11.4-7.8-18.6 8.4-26.5 14.3L19.9 249.9c-7.8 11.4 8.4 18.6 14.3 26.5l215.7 215.7c11.4 7.8 18.5-8.4 26.5-14.3l215.7-215.7c3.4-3.2 3.4-9 0-12.2zM256 473.8L38.2 256 256 38.2 473.8 256 256 473.8zM22.6 256h467.1"/></svg>