<svg xmlns="http://www.w3.org/2000/svg" width="512" height="512"><path d="M367.4 323.4c-10.5 4.3-20.6 10.7-32.4 8.6-12.6 2.1-23.4-4.3-34.5-9-7.7-6.1-14.5-22-26.1-14.3-8.4 11.4 7.8 19.3 13.6 27.5 10 6.1 21.6 11.3 33.2 13.8 14.9-.4 30.5 2.3 43.9-6 9.6-2.9 18-8.1 22.1-17.7 9.3-10.3 4.7-24.7 5.8-37.3-4.6-11.7-6.2-26.3-16.3-34.4-20.3-8.8-43-10.2-63.9-16.6-10.6-6.4-21-14.9-22.6-28-2.6-9 2.5-15.5 9.2-21 9.7-5 20.4-11.2 31.8-10a51 51 0 0 1 29.8 5.6c12.2 1.3 10.6 20.5 23.7 19.5 15.6-5.7 1.5-20.5-3.4-29.2-7.9-7-19.3-8.8-28.7-13.6-16.4.3-34-3.3-48.8 5.2-13.7 3.6-23.2 14.4-31.3 25.3-2.3 17.6.6 37.6 14.8 49.7a61.2 61.2 0 0 0 35.6 17.7c14.7 3.7 30 5.3 44 11.1a72 72 0 0 1 7 39.1c.8 5.4-4.5 9.5-6.5 14zm-122.9-159c-14.4 2.2-8.1 19.2-9.5 29.3v110.7c-27.9-45.8-55-92.2-83.3-137.6-6.3-6.6-18.2 1.1-14.7 9.3v160.8c8 21.3 23-1.5 18-15V206c27.7 45.8 55 92.1 82.9 137.7 5.6 5.6 14.7.4 15.5-6.5 1.3-26.4.2-54.5.6-81.6-.5-28.5 1-57.3-.8-85.7a9.7 9.7 0 0 0-8.7-5.5zm248.6 85.2L262.4 18.9c-11.7-8-19 8.3-27.2 14.4L19 249.6c-8 11.7 8.3 19 14.4 27.2L249.6 493c11.7 8.1 19-8.3 27.2-14.4L493 262.4a9.1 9.1 0 0 0 0-12.8zM256 474L38 256 256 38l218 218-218 218z"/></svg>