<svg xmlns="http://www.w3.org/2000/svg" width="512" height="512"><path d="M95.7 209.4c-7.6-15.1-19 .9-19.3 11.2l-22 76.9c.7 19.8 20.3 6.3 19.2-6.8-.4-9.2 8.2-6.4 14.6-6.7 6.4 0 14.2-2 13.7 7-.1 11 13.5 26.2 19.5 9.6-5.1-23.2-13-45.9-19.3-69l-6.4-22.2zM80.4 268l7.3-25.4L95 268H80.5zm410.2-19.2c-56.8-33.9-113.2-68.5-170.2-102-12.5-2-10.5 12.8-10.4 20.7.2 64-.4 127.9.3 191.8 4.3 11.9 16.2 2.7 23-1.5 52.9-32 106.3-63.5 159-96a8.4 8.4 0 0 0-1.7-13zM327 342.3V169.7L470.5 256 327 342.3zM70.8 231.6c-1-18.8-20.2-31-37.8-28.6-10.6-2.6-18.4 6.1-16 16.5V300c6.1 18.7 21.6.8 17-11.6V265c18 2.4 37-11.1 36.8-30.2v-3.2zM41.9 248c-9.4 3-8.3-4.7-7.9-11.6 1.6-5-3.5-16.5 3.2-16.4C52 216.7 61 239 47 246.3c-1.6.6-3.3 1.7-5.1 1.7zm138.3-45c-12.1 2-7.5 16-8.4 24.6l.1 38.8c-11.2-20.1-21.3-41-33.3-60.5-13.3-8.3-16.2 9.4-14.6 18.9v75c6.1 18.8 21.6 1 17-11.5v-43c11.2 20 21.6 40.6 33.2 60.4 12.1 9 16.5-8.1 14.5-17.4l-.2-76.6c0-4.4-3.8-8.8-8.3-8.7zm23.3.8c-12.2 1.5-7.6 15.6-8.5 24.1v72c6.1 18.7 21.6.8 17-11.6v-76.1c.1-4.6-4-8.5-8.5-8.4zm72 79c-11.4-4.2-23.4 19.6-32.8.8a52.3 52.3 0 0 1 5.6-60.8c11.3-10 26 22.2 31-1.3-7-24-43-22.3-51.3.1-14.3 25.8-13.2 64.1 12.2 82.6 12.3 11.6 49.4-4.6 35.3-21.4z"/></svg>