<svg xmlns="http://www.w3.org/2000/svg" width="512" height="512"><path d="M369.4 135.4c-18.6-6.4-13.8 17.5-.8 21.3a96 96 0 0 1 10.3 129c-5.7 10.5-36.8 24.9-14.5 34 13.9-5 23.6-18.1 32.3-29.6 33.2-46.3 22.6-116.8-22.8-151.3l-2.2-1.7zM491.9 202c-7.5-35.7-30-69.2-62.1-86.9-23.6 5.7 3.6 22.8 12.3 30.2a118.3 118.3 0 0 1 16.3 149.3c-8 18.6-31.3 26.3-38.5 43.2 13.1 18.7 34-12.7 44.5-22.5C490 284 500.7 241.3 492 202zM262 125.5c-1.6-12.2-15.8-7.6-24.4-8.5H26.5c-12.2 1.6-7.6 15.8-8.5 24.4v193.1c1.6 12.2 15.8 7.6 24.4 8.5h211.1c12.2-1.6 7.6-15.8 8.5-24.4V125.5zM245 326H35V134h210v192zm72.5-159.8c-18.8-5.2-12.7 18.4.3 21.6 26.4 23.3 23.5 70-6.3 89.2-20.3 17.3 13 22.5 20 5.3 30.5-28.9 28-83-4.7-109.3a74 74 0 0 0-9.3-6.7z"/></svg>