<svg xmlns="http://www.w3.org/2000/svg" width="512" height="512"><path d="M427 343.5c13.7-1.4 9.3-16.8 10-26.2V176.6c-6.2-21-25.3-2.4-20 12v145a10 10 0 0 0 10 9.9zM260 341c17.5-.7 35.5 1.7 52.7-1.8 29-11.8 38.6-46.4 41-74.8 2.4-34.4-6-75-37.4-94.2-17-8.6-36.7-4-55-5.2-13.7-.4-11.2 15-11.3 24v142.7c-.2 5.3 4.9 9.5 10 9.3zm9-156c16 1 35.3-4.4 46.9 10 22.8 28.6 23 70.2 10.4 103.2-5 13.2-16.4 26.6-31.8 23.8H269V185zM82.1 282.8c4.8 26.3 20.5 56.4 49.8 60.3 21.5 3.5 43.5.7 64.6-4 9-5.3 4.4-17.6 5.5-26.1-.5-16.8 1-33.8-.8-50.5-6.2-10.5-19.8-5.2-30-6.5-9.3 1.2-21.8-3.7-27.4 6.2-4.3 15.7 14.3 14.1 24.3 13.8 5.4 1.3 17.5-3.9 14.9 5.5V322c-21 2.8-45.1 7.6-63.5-5.6-21-22.5-22.8-56.5-18.8-85.7 2-18 14.4-33 28.6-43 14-3.3 29.8-8.2 42.8.8 8.4 6.7 27.2 10 24.2-6.7-5.5-8.3-16.6-10.6-25-15.3-17.3-6.6-35.9-.6-52.8 4-16.8 13.7-32.9 30.4-36.3 52.8a138 138 0 0 0-.1 59.4zM485.2 123H27.8c-13.5 1.4-9 16.8-9.8 26.2v230c1.4 13.5 16.8 9 26.2 9.8h441c13.5-1.4 9-16.8 9.8-26.2v-230c.1-5.3-4.5-10-9.8-9.8zM473 369H37V143h436v226z"/></svg>