<svg xmlns="http://www.w3.org/2000/svg" width="512" height="512"><path d="M236.3 134.9c-15.6 7.2-34 10.3-45.1 24.4-7.5 6.5-15.5 14-13.2 24.8-1.2 13.3 4 26.2 10 37.7a113.5 113.5 0 0 0 38.5 28.5c25.6 5.9 52 8.6 77 17.1 7.2 13.2 11 28 9.5 43 2.3 9.6-4.3 16.5-9.3 23.8-13.4 4.6-26 13-40.8 10.8-11.5.1-23.2 1.2-33.6-5a49.2 49.2 0 0 1-25.6-15.5c-7.2-16.3-36.1-9.5-20.3 8 9.7 9.2 18.2 20.7 32 23.5 11.4 4.5 22.7 9.8 35.3 8 15.2-.5 31.1 2.4 45-5.5 10.6-4.3 23.4-6.6 28-18.5 6.1-7.5 9.8-16 8.3-25.9.2-14.4 1-28.9-5-42.4-3.7-10.5-8.7-23-21.3-24.4-24.5-8.3-51-10.2-75.8-17-12.4-8.2-27.7-16.3-30.4-32.3-1.7-6.7-4.3-16.9 2.3-21.5 6.8-8 15-13.8 25-16.5a53.7 53.7 0 0 1 31.2-6c10.7-.4 21.3-.6 30.8 5 7.8 3.3 17 5 20.3 14 4.2 18.3 34 13 20-5.8-6.3-9.4-11.6-20.5-23.8-22.8-13.5-5.5-26.8-12.6-41.8-10.4-9 .5-18.5-1-27.2.9zm254.6 114L263 21.3c-12-8.9-20 7.8-28.3 14.2L21.1 249c-8.8 12.1 7.8 20 14.3 28.4L249 490.9c12 8.8 20-7.9 28.3-14.3L490.9 263a10 10 0 0 0 0-14zM256 469.9L42.2 256 256 42.2 469.8 256 256 469.8z"/></svg>