<?xml version="1.0" encoding="UTF-8" standalone="no"?>
<svg
   xmlns:dc="http://purl.org/dc/elements/1.1/"
   xmlns:cc="http://creativecommons.org/ns#"
   xmlns:rdf="http://www.w3.org/1999/02/22-rdf-syntax-ns#"
   xmlns:svg="http://www.w3.org/2000/svg"
   xmlns="http://www.w3.org/2000/svg"
   xmlns:sodipodi="http://sodipodi.sourceforge.net/DTD/sodipodi-0.dtd"
   xmlns:inkscape="http://www.inkscape.org/namespaces/inkscape"
   width="512"
   height="512"
   viewBox="0 0 512 512"
   version="1.1"
   id="svg4"
   sodipodi:docname="4 core speaker (1).svg"
   inkscape:version="0.92.1 r15371">
  <metadata
     id="metadata10">
    <rdf:RDF>
      <cc:Work
         rdf:about="">
        <dc:format>image/svg+xml</dc:format>
        <dc:type
           rdf:resource="http://purl.org/dc/dcmitype/StillImage" />
      </cc:Work>
    </rdf:RDF>
  </metadata>
  <defs
     id="defs8" />
  <sodipodi:namedview
     pagecolor="#ffffff"
     bordercolor="#666666"
     borderopacity="1"
     objecttolerance="10"
     gridtolerance="10"
     guidetolerance="10"
     inkscape:pageopacity="0"
     inkscape:pageshadow="2"
     inkscape:window-width="640"
     inkscape:window-height="493"
     id="namedview6"
     showgrid="false"
     inkscape:zoom="0.4609375"
     inkscape:cx="256"
     inkscape:cy="256"
     inkscape:window-x="0"
     inkscape:window-y="0"
     inkscape:window-maximized="0"
     inkscape:current-layer="svg4" />
  <path
     id="path2"
     d="m 0,496 c 8.8701157,-0.15775 20.222279,-2.79756 16,10.13708 4.424728,9.15609 -16.29834153,7.7227 -16,2.96661 C 0,504.73579 0,500.3679 0,496 Z M 0,0 C 8.8701157,-0.15775456 20.222279,-2.797557 16,10.137083 20.424728,19.293167 -0.29834153,17.859784 0,13.10369 0,8.7357937 0,4.3678968 0,0 Z m 496,0 c 8.87012,-0.15775456 20.22228,-2.797557 16,10.137083 4.42473,9.156084 -16.29834,7.722701 -16,2.966607 C 496,8.7357937 496,4.3678968 496,0 Z m 0,496 c 8.87012,-0.15775 20.22228,-2.79756 16,10.13708 4.42473,9.15609 -16.29834,7.7227 -16,2.96661 0,-4.3679 0,-8.73579 0,-13.10369 z M 76.15,255.06 C 54.15436,258.13741 59.886647,232.54771 75.85625,245.75625 92.802089,252.172 56.436121,223.31015 55.53,247.54 c 0.682734,11.04591 37.577118,13.60956 13.41,22.44 -7.566329,-2.79144 -20.342657,-15.33973 -10.64375,1.05625 C 69.631886,281.46461 93.706374,265.99804 76.15,255.06 Z m 28.83,-15.09 C 92.754766,238.78741 85.765743,235.74795 88,252.03339 c 2.198489,6.45705 -4.706806,22.01788 4,21.96661 -6.801443,-20.59942 19.13878,-0.71105 18.01,-22.6 -0.0119,-4.21821 -1.30757,-8.97263 -5.03,-11.43 z m -1.42,18.92 c -22.898069,11.15273 -3.889304,-36.60445 2.04,-7.55 2.18361,3.26946 -2.05067,4.90182 -2.04,7.55 z m 22.08,-16.19 c -30.35217,4.59439 5.0542,43.44704 9.98273,18.19276 -14.13736,11.60295 -23.97491,-8.79803 -2.91118,-3.90276 12.08832,3.11305 -0.29873,-17.5086 -7.07155,-14.29 z M 118,254 c 5.23914,-18.43786 24.1339,5.40068 3.08476,0 -1.02825,0 -2.05651,0 -3.08476,0 z m 45.3,11.3 c 8.61003,-18.33171 -20.33439,-31.222 -18.67,-14.3505 8.80727,-13.15481 23.32548,6.47782 2.57,3.7905 -18.05024,10.53896 8.66573,17.73614 12.74,13.29 2.72162,-0.14165 6.12192,1.09401 3.36,-2.73 z M 158,258 c -1.15585,18.46712 -24.11139,-1.41405 -2.5475,-1.17375 C 158.77387,253.7399 157.90428,256.5489 158,258 Z m 31.87,-9 c -8.1487,-4.09332 -17.83147,18.30584 -15.88,2.22923 3.90745,-10.90152 -7.16198,-18.15293 -5,-3.5403 1.02124,7.8985 -2.00986,19.84934 1.44815,25.31107 6.19593,1.13797 2.73064,-21.95203 10.63846,-6.68875 6.83815,12.47823 12.14107,4.32545 2.28735,-3.98731 -1.07465,-1.53465 -2.14931,-3.06929 -3.22396,-4.60394 M 204.7,242.7 c -30.33906,4.61156 5.06405,43.44605 9.99278,18.19237 -14.15514,11.6087 -23.98841,-8.79838 -2.92123,-3.90237 11.95787,3.03923 -0.208,-17.54039 -7.07155,-14.29 z M 198,254 c 6.97433,-18.31687 21.55414,6.41878 0,0 z m 30.43,-9.94 c -3.00625,1.0043 -8.63557,-0.66082 -6.43,11.52524 -3.13422,10.21302 5.13771,20.23949 4,4.72583 -6.02513,-13.7911 21.13918,-14.29824 2.43,-16.25107 z m 45.52,-3.9 c -36.0663,-17.03672 -28.91946,54.40687 3.2325,29.14375 7.25595,-7.97003 6.39737,-23.4037 -3.2325,-29.14375 z m -0.18,26.34 c -30.82321,19.48472 -20.5905,-45.75613 1.94,-17.95 2.27973,5.71558 2.20635,13.03376 -1.94,17.95 z M 304,256.37 c -9.50653,22.47555 -12.52957,-6.30521 -13.43815,-13.37 -7.90884,2.02374 -4.96881,32.95817 9.94315,24.6625 6.07103,1.3385 9.07297,-2.00794 7.505,-14.14405 2.65609,-14.11508 -6.92053,-11.53015 -4,1.06679 -2.48563,-1.88738 0.60885,1.80535 -0.01,1.78476 z m 18.18,12.93 c -4.56214,-5.55698 -2.74429,-18.86721 1.82,-21.19631 -5.1658,-1.39567 -6.32878,-17.04865 -9,-1.05107 -3.75581,2.78116 2.30293,10.75931 0,18.48738 -4.61074,10.27619 17.39569,8.68707 7.18,3.76 z M 38,239 C 29.666755,240.03215 26.848728,252.07688 20.741775,257.5544 11.521986,267.41064 27.638151,264.93661 34,265 c 1.012492,16.98898 2.046233,-0.63976 9,0 -4.486033,-4.30659 -6.346751,-11.23849 -5,-21.37786 0,-1.54071 0,-3.08143 0,-4.62214 z m -4,22 C 18.736553,264.20503 25.712926,255.97527 32.108376,248.04421 35.955686,238.82643 33.127685,260.35802 34,261 Z m 455.27,-12.28 c -41.44667,-24.88 -82.89333,-49.76 -124.34,-74.64 -17.88894,-4.49033 -11.95036,18.38967 -12.93,29.08232 0,42.46589 0,84.93179 0,127.39768 5.26866,17.71744 21.89225,0.86479 31.55401,-3.79392 35.23866,-21.11203 70.47733,-42.22405 105.71599,-63.33608 5.51337,-3.00331 5.47729,-11.69289 0,-14.71 z M 369,315.42 c 0,-39.60667 0,-79.21333 0,-118.82 33.02333,19.82333 66.04667,39.64667 99.07,59.47 -33.02333,19.78333 -66.04667,39.56667 -99.07,59.35 z" />
</svg>
