<?xml version="1.0" encoding="UTF-8" standalone="no"?>
<svg
   xmlns:dc="http://purl.org/dc/elements/1.1/"
   xmlns:cc="http://creativecommons.org/ns#"
   xmlns:rdf="http://www.w3.org/1999/02/22-rdf-syntax-ns#"
   xmlns:svg="http://www.w3.org/2000/svg"
   xmlns="http://www.w3.org/2000/svg"
   xmlns:sodipodi="http://sodipodi.sourceforge.net/DTD/sodipodi-0.dtd"
   xmlns:inkscape="http://www.inkscape.org/namespaces/inkscape"
   width="512"
   height="512"
   viewBox="0 0 512 512"
   version="1.1"
   id="svg4"
   sodipodi:docname="Cabinet.svg"
   inkscape:version="0.92.1 r15371">
  <metadata
     id="metadata10">
    <rdf:RDF>
      <cc:Work
         rdf:about="">
        <dc:format>image/svg+xml</dc:format>
        <dc:type
           rdf:resource="http://purl.org/dc/dcmitype/StillImage" />
      </cc:Work>
    </rdf:RDF>
  </metadata>
  <defs
     id="defs8" />
  <sodipodi:namedview
     pagecolor="#ffffff"
     bordercolor="#666666"
     borderopacity="1"
     objecttolerance="10"
     gridtolerance="10"
     guidetolerance="10"
     inkscape:pageopacity="0"
     inkscape:pageshadow="2"
     inkscape:window-width="640"
     inkscape:window-height="493"
     id="namedview6"
     showgrid="false"
     inkscape:zoom="0.4609375"
     inkscape:cx="256"
     inkscape:cy="256"
     inkscape:window-x="0"
     inkscape:window-y="0"
     inkscape:window-maximized="0"
     inkscape:current-layer="svg4" />
  <path
     id="path2"
     d="m 484.4,123 c -152.6,0 -305.2,0 -457.8,0 -13.343644,1.48991 -8.795207,16.74317 -9.6,25.98464 0,76.80512 0,153.61024 0,230.41536 1.489911,13.34364 16.743166,8.79521 25.984643,9.6 147.138457,0 294.276907,0 441.415357,0 13.34364,-1.48991 8.79521,-16.74317 9.6,-25.98464 0,-76.80512 0,-153.61024 0,-230.41536 0.12842,-5.14125 -4.45875,-9.72842 -9.6,-9.6 z M 475,370 c -146,0 -292,0 -438,0 0,-65.45 0,-130.9 0,-196.35 8.48527,2.98077 18.513236,0.57258 27.623119,1.35 13.45896,0 26.917921,0 40.376881,0 29.43333,47.66667 58.86667,95.33333 88.3,143 -9.22704,0.53106 -24.93499,-3.36135 -25.3,10.49231 0.97556,9.85214 -2.48379,20.94465 2.9625,29.63019 9.55785,5.36918 21.40575,1.88014 32.06062,2.8775 44.63896,0 89.27792,0 133.91688,0 12.1107,-2.38597 6.92405,-17.20778 8.06,-26.11464 2.58585,-11.26069 -5.52833,-19.61931 -16.79848,-16.88536 -11.48455,2.50347 -0.91425,-6.91644 1.41525,-11.88118 C 358.22452,262.41255 386.83226,218.70627 415.44,175 c 19.85333,0 39.70667,0 59.56,0 0,65 0,130 0,195 z M 215.83,318 c -29.43333,-47.66667 -58.86667,-95.33333 -88.3,-143 88.33333,0 176.66667,0 265,0 -31.2,47.66667 -62.4,95.33333 -93.6,143 -27.7,0 -55.4,0 -83.1,0 z M 326,337 c 2.23575,8.99987 -10.02383,3.50439 -15.29233,5 -41.23589,0 -82.47178,0 -123.70767,0 -2.23575,-8.99987 10.02383,-3.50439 15.29233,-5 41.23589,0 82.47178,0 123.70767,0 z M 475,156 c -145.16667,0 -290.33333,0 -435.5,0 -3.639777,-1.64905 -5.620103,-17.60866 2.961548,-14 144.179482,0 288.358972,0 432.538452,0 0,4.66667 0,9.33333 0,14 z" />
</svg>
