<?xml version="1.0" encoding="UTF-8" standalone="no"?>
<svg
   xmlns:dc="http://purl.org/dc/elements/1.1/"
   xmlns:cc="http://creativecommons.org/ns#"
   xmlns:rdf="http://www.w3.org/1999/02/22-rdf-syntax-ns#"
   xmlns:svg="http://www.w3.org/2000/svg"
   xmlns="http://www.w3.org/2000/svg"
   xmlns:sodipodi="http://sodipodi.sourceforge.net/DTD/sodipodi-0.dtd"
   xmlns:inkscape="http://www.inkscape.org/namespaces/inkscape"
   width="512"
   height="512"
   viewBox="0 0 512 512"
   version="1.1"
   id="svg4"
   sodipodi:docname="core speaker.svg"
   inkscape:version="0.92.1 r15371">
  <metadata
     id="metadata10">
    <rdf:RDF>
      <cc:Work
         rdf:about="">
        <dc:format>image/svg+xml</dc:format>
        <dc:type
           rdf:resource="http://purl.org/dc/dcmitype/StillImage" />
      </cc:Work>
    </rdf:RDF>
  </metadata>
  <defs
     id="defs8" />
  <sodipodi:namedview
     pagecolor="#ffffff"
     bordercolor="#666666"
     borderopacity="1"
     objecttolerance="10"
     gridtolerance="10"
     guidetolerance="10"
     inkscape:pageopacity="0"
     inkscape:pageshadow="2"
     inkscape:window-width="640"
     inkscape:window-height="493"
     id="namedview6"
     showgrid="false"
     inkscape:zoom="0.4609375"
     inkscape:cx="256"
     inkscape:cy="256"
     inkscape:window-x="0"
     inkscape:window-y="0"
     inkscape:window-maximized="0"
     inkscape:current-layer="svg4" />
  <path
     id="path2"
     d="m 74.02,246.4 c -9.13839,0.6528 -25.438743,-10.84283 -8.13,-13.24 5.831613,-0.75184 15.290965,14.69209 11.38,0.88 -15.666936,-18.84046 -37.04806,14.56654 -9.946719,15.20734 22.145524,6.00054 -9.851589,21.02142 -12.023473,4.12951 C 41.969859,266.2232 89.993943,272.60698 78.61,250 c -1.293989,-0.9209 -2.626345,-3.60456 -4.59,-3.6 z m 29.1,-5.9 c -8.776715,-1.55551 -13.641052,-0.52819 -17.12,1.52784 0,10.99072 0,21.98144 0,32.97216 9.727264,3.24995 -1.960509,-19.71521 8.8425,-9.595 13.72667,2.64082 17.64126,-18.0722 8.2775,-24.905 z m -1.44,19.1 c -19.114243,12.4747 -10.845979,-32.55968 1.55625,-11.89 0.84898,3.91545 0.88481,8.50573 -1.55625,11.89 z m 22.3,-20.8 c -21.15243,0.28579 -10.95862,37.53627 7.58,24.66 11.03688,-17.60343 -15.33622,10.85695 -15.08,-9.46 6.38333,0 12.76667,0 19.15,0 0.94259,-7.29707 -3.61139,-15.40952 -11.65,-15.2 z M 117,250 c 1.4006,-17.71881 24.1657,3.33745 5.92865,0 -1.97621,0 -3.95243,0 -5.92865,0 z m 45.16,11.94 c 4.24782,-14.06405 -8.1255,-33.27375 -21.15875,-17.685 -0.33373,9.06497 16.25679,-11.49082 16.33875,4.535 -11.88994,-2.70102 -27.19685,13.97205 -9.09,16.85 8.10195,-2.87182 7.9681,-1.85368 14.85,-0.64 0.0253,-0.17443 -2.06324,-3.08671 -0.94,-3.06 z M 157,254 c 2.55832,14.78496 -24.0673,4.71614 -6.93,-0.18 1.88729,1.28048 8.32908,-4.47081 6.93,0.18 z m 31.8,-14 c -7.35422,-1.88683 -10.73328,6.05877 -15.8,9.83 0,-6.61 0,-13.22 0,-19.83 -8.65269,-2.2544 -3.71954,9.07703 -5,14.19486 0,6.93504 0,13.87009 0,20.80514 9.70716,2.69752 1.11288,-10.14925 7.88217,-12.97335 3.85154,3.31984 5.21807,12.06063 10.56567,12.98335 7.31433,0.59724 -4.2265,-8.76507 -5.23117,-12.56204 C 180.47778,251.36531 179.73889,250.28265 179,249.2 m 24.78,-10.4 c -21.14753,0.29112 -10.94062,37.5376 7.59,24.66 11.0459,-17.60202 -15.34627,10.85727 -15.07,-9.46 6.37667,0 12.75333,0 19.13,0 0.9402,-7.29405 -3.60808,-15.41692 -11.65,-15.2 z M 197,250 c 1.28198,-17.72329 23.95846,3.36906 5.74865,0 -1.91621,0 -3.83243,0 -5.74865,0 z m 30.6,-10.32 c -1.35193,4.59708 -8.4823,-4.11617 -6.6,7.41743 0.69708,5.60842 -1.38233,13.99332 1.01392,17.90257 6.81054,-0.62495 0.51414,-13.19369 3.74608,-18.46 2.51647,-2.948 14.95554,-4.56322 4.53,-7.72 l -2.7,0.88 z m 46.06,-7.1 c -17.79914,-11.1712 -34.50596,15.32651 -21.265,29.05 11.04021,12.73802 33.23402,0.72087 29.20438,-15.58406 -0.50786,-5.34937 -3.13919,-10.7411 -7.93938,-13.46594 z m -0.18,26.6 c -16.78237,15.98781 -31.32896,-20.49598 -11.04062,-24.6975 13.8909,-2.80971 18.38955,16.04354 11.04062,24.6975 z m 30.52,-4.8 c -2.20895,16.62993 -16.99058,4.96711 -12,-6.60743 2.96155,-9.20381 -8.12889,-8.56441 -5,0.32486 -3.1732,10.84342 6.57275,26.67174 17,14.42257 1.7403,9.65009 6.0056,-2.59113 4,-7.6731 -0.58692,-4.37992 2.29128,-17.51817 -4,-12.83298 0,4.12203 0,8.24405 0,12.36608 z m 18.34,8.19 c -3.9904,-3.12183 -2.67918,-14.7499 -1.32608,-18.57 7.51783,-1.41912 -5.38284,-4.32852 -1.01392,-12.12526 -6.87318,0.82874 -4.44253,8.93875 -7,12.12526 4.95135,2.64795 -0.16552,14.18874 2.8,19.92 2.66695,6.42592 14.51749,0.60949 6.54,-1.35 z M 24.7,258.6 C 37.896885,253.39732 48.457311,228.38162 26.751719,229.66328 13.815236,229.30306 19.188593,249.25101 24,235.01 c 18.115747,-7.3913 9.927409,16.74703 -1.41,19.8425 -12.576347,10.12052 -0.629458,11.38272 8.434855,10.1575 6.605172,2.7247 15.670113,-4.20198 4.905554,-4 C 33.085866,259.98286 19.57286,263.41003 24.7,258.6 Z M 491,248.65 C 448.43189,223.32238 406.21625,197.31259 363.42781,172.41141 351.07112,170.25344 352.8984,184.96389 353,192.90702 c 0.16979,46.87215 -0.33973,93.7822 0.255,140.63064 4.04313,12.00796 16.05152,3.19157 22.74121,-1.1124 38.86462,-23.51519 78.1636,-46.40105 116.75692,-70.30932 C 496.70195,258.29616 495.61362,251.26747 491,248.65 Z m -121,67.32 c 0,-39.97667 0,-79.95333 0,-119.93 33.33333,20.01 66.66667,40.02 100,60.03 -33.33333,19.96667 -66.66667,39.93333 -100,59.9 z" />
</svg>
