<?xml version="1.0" encoding="UTF-8" standalone="no"?>
<svg
   xmlns:dc="http://purl.org/dc/elements/1.1/"
   xmlns:cc="http://creativecommons.org/ns#"
   xmlns:rdf="http://www.w3.org/1999/02/22-rdf-syntax-ns#"
   xmlns:svg="http://www.w3.org/2000/svg"
   xmlns="http://www.w3.org/2000/svg"
   xmlns:sodipodi="http://sodipodi.sourceforge.net/DTD/sodipodi-0.dtd"
   xmlns:inkscape="http://www.inkscape.org/namespaces/inkscape"
   width="512"
   height="512"
   viewBox="0 0 512 512"
   version="1.1"
   id="svg4"
   sodipodi:docname="HDMI cable.svg"
   inkscape:version="0.92.1 r15371">
  <metadata
     id="metadata10">
    <rdf:RDF>
      <cc:Work
         rdf:about="">
        <dc:format>image/svg+xml</dc:format>
        <dc:type
           rdf:resource="http://purl.org/dc/dcmitype/StillImage" />
      </cc:Work>
    </rdf:RDF>
  </metadata>
  <defs
     id="defs8" />
  <sodipodi:namedview
     pagecolor="#ffffff"
     bordercolor="#666666"
     borderopacity="1"
     objecttolerance="10"
     gridtolerance="10"
     guidetolerance="10"
     inkscape:pageopacity="0"
     inkscape:pageshadow="2"
     inkscape:window-width="640"
     inkscape:window-height="493"
     id="namedview6"
     showgrid="false"
     inkscape:zoom="0.4609375"
     inkscape:cx="256"
     inkscape:cy="256"
     inkscape:window-x="0"
     inkscape:window-y="0"
     inkscape:window-maximized="0"
     inkscape:current-layer="svg4" />
  <path
     id="path2"
     d="m 55,249 c -10,0 -20,0 -30,0 0,-8.33333 0,-16.66667 0,-25 -9.807309,-3.15578 -6.590165,6.71289 -7,12.95458 0,15.68181 0,31.36361 0,47.04542 9.807309,3.15578 6.590165,-6.71289 7,-12.95458 1.33589,-5.4785 -3.870765,-17.49954 5.397743,-15.04542 8.200752,0 16.401505,0 24.602257,0 0,9.33333 0,18.66667 0,28 9.807309,3.15578 6.590165,-6.71289 7,-12.95458 0,-15.68181 0,-31.36361 0,-47.04542 -2.333333,0 -4.666667,0 -7,0 m 60.57,5.35 c -11.3529,-8.52029 -26.381247,-4.36056 -39.57,-5.36 0,20 0,40 0,60 15.888551,-0.6424 37.25905,4.03338 45.495,-13.85 5.43875,-12.88473 5.13479,-30.92882 -5.925,-40.79 z m -0.3,35.3 C 111.36073,279.30284 94.730229,276.91247 83,277 c 0,-15 0,-30 0,-45 11.231912,0.76972 27.30267,-3.74538 32.10984,10.02328 2.32946,7.23433 2.27618,15.35892 0.16016,22.62672 z m 51.7,0.49 c -3.48726,18.92654 -6.80748,-4.96399 -10.38703,-12.62426 C 153.41532,243.01049 150.24766,233.50525 147.08,224 c -6.63087,-0.0853 -15.21686,-2.12563 -12.08,7.55684 0,17.48105 0,34.96211 0,52.44316 9.65508,3.03007 8.36616,-4.88386 8,-11.87503 0,-13.02499 0,-26.04998 0,-39.07497 5.63333,16.98333 11.26667,33.96667 16.9,50.95 8.79798,2.98498 8.79267,-6.32971 11.20801,-12.26236 C 175.40534,259.12509 179.70267,246.51255 184,233.9 c 0,16.7 0,33.4 0,50.1 9.65508,3.03007 8.36616,-4.88386 8,-11.87503 0,-16.04166 0,-32.08331 0,-48.12497 -7.20482,-0.96032 -13.44831,-0.57494 -13.72008,8.16987 C 174.50769,243.15674 170.7535,254.1689 166.97,265.14 Z M 205,224 c 9.17028,-2.57179 10.21951,2.97748 9,10.79549 0,16.4015 0,32.80301 0,49.20451 -9.17028,2.57179 -10.21951,-2.97748 -9,-10.79549 0,-16.4015 0,-32.80301 0,-49.20451 z m 283.07,20.9 C 424.82667,206.93333 361.58333,168.96667 298.34,131 c -15.80435,-8.16403 -22.82039,10.60164 -20.34,23.10503 0,71.89166 0,143.78331 0,215.67497 1.45817,17.70283 21.01331,13.52049 30.45787,5.12887 C 368.31525,339.06258 428.17262,303.21629 488.03,267.37 c 8.37835,-4.6145 8.44486,-17.85096 0.04,-22.47 z M 304,346.66 c 0,-60.43333 0,-120.86667 0,-181.3 50.39333,30.24667 100.78667,60.49333 151.18,90.74 -50.38761,30.17657 -100.82099,60.43389 -151.18,90.56 z" />
</svg>
