<?xml version="1.0" encoding="UTF-8" standalone="no"?>
<svg
   xmlns:dc="http://purl.org/dc/elements/1.1/"
   xmlns:cc="http://creativecommons.org/ns#"
   xmlns:rdf="http://www.w3.org/1999/02/22-rdf-syntax-ns#"
   xmlns:svg="http://www.w3.org/2000/svg"
   xmlns="http://www.w3.org/2000/svg"
   xmlns:sodipodi="http://sodipodi.sourceforge.net/DTD/sodipodi-0.dtd"
   xmlns:inkscape="http://www.inkscape.org/namespaces/inkscape"
   width="512"
   height="512"
   viewBox="0 0 512 512"
   version="1.1"
   id="svg4"
   sodipodi:docname="HDMIsvg (1).svg"
   inkscape:version="0.92.1 r15371">
  <metadata
     id="metadata10">
    <rdf:RDF>
      <cc:Work
         rdf:about="">
        <dc:format>image/svg+xml</dc:format>
        <dc:type
           rdf:resource="http://purl.org/dc/dcmitype/StillImage" />
      </cc:Work>
    </rdf:RDF>
  </metadata>
  <defs
     id="defs8" />
  <sodipodi:namedview
     pagecolor="#ffffff"
     bordercolor="#666666"
     borderopacity="1"
     objecttolerance="10"
     gridtolerance="10"
     guidetolerance="10"
     inkscape:pageopacity="0"
     inkscape:pageshadow="2"
     inkscape:window-width="640"
     inkscape:window-height="493"
     id="namedview6"
     showgrid="false"
     inkscape:zoom="0.4609375"
     inkscape:cx="256"
     inkscape:cy="256"
     inkscape:window-x="0"
     inkscape:window-y="0"
     inkscape:window-maximized="0"
     inkscape:current-layer="svg4" />
  <path
     id="path2"
     d="m 23,233 c -8.690366,-2.25296 -3.6963,9.17852 -5,14.31223 0,9.89592 0,19.79185 0,29.68777 8.666667,0 17.333333,0 26,0 2.808523,-9.2385 -7.70049,-5.15946 -13.289926,-6 C 28.14005,271 25.570025,271 23,271 M 62.7,244 C 35.529943,244.23778 51.203161,292.4202 73.27875,272.37625 81.456953,263.10446 77.348219,243.17458 62.7,244 Z m 6.55,25.25 C 41.139122,284.11067 58.573443,226.7621 71.696562,257.38547 72.064801,261.39104 71.953428,265.9929 69.25,269.25 Z m 31.95,1.09 c -20.540413,11.61605 -16.095131,-34.9659 1.18875,-18.45375 11.7393,9.66556 0.37038,-15.03319 -10.16125,-7.43875 -21.162634,5.70124 -6.792974,43.99872 12.4725,29.0825 9.72479,-7.03176 -1.12857,-14.98207 -3.5,-3.19 z m 37.8,-7.52 c 4.7716,-15.01578 -12.09949,-25.9896 -24.01,-14.6 -6.4099,16.90542 18.9658,-12.86332 18.48,7.87 -12.53321,-2.63087 -33.11794,12.78834 -13.48266,20.3425 10.11671,-1.15941 12.28893,-3.23234 19.06187,0.5575 2.91767,0.42968 -2.02162,-11.52114 -0.0492,-14.17 z M 134,262 c 3.45079,15.32381 -27.50879,10.27432 -11.80125,0.74125 C 124.40906,263.88721 135.15179,257.84043 134,262 Z m 14,-29 c 7.70486,-1.26002 2.47148,10.41821 4,15.33453 0,9.55516 0,19.11031 0,28.66547 -7.70486,1.26002 -2.47148,-10.41821 -4,-15.33453 0,-9.55516 0,-19.11031 0,-28.66547 z m 38.27,0 c -5.51333,14.66667 -11.02667,29.33333 -16.54,44 8.36213,2.66902 7.68413,-7.25837 10.30387,-12.59074 3.93297,-3.28271 12.23679,-0.47512 17.85526,-1.40926 4.05518,3.03623 2.11378,14.60453 8.72778,14 7.33205,0.72799 -2.13199,-9.90593 -2.27316,-14.23329 C 200.36583,252.84448 196.38792,242.92224 192.41,233 c -2.04667,0 -4.09333,0 -6.14,0 z m -4.12,26 c 2.57884,-6.06535 6.55724,-20.31117 7.61953,-19.53531 -0.6328,5.43266 10.69252,18.66268 3.92356,19.53531 -3.84769,0 -7.69539,0 -11.54309,0 z m 45.53,5.2 c -3.02782,14.58182 -6.31311,-8.50645 -9.75806,-14.41383 -2.60208,-5.23442 -3.30198,-13.17211 -7.04424,-16.78617 -9.70044,-2.4562 -0.95842,7.8194 -0.42676,12.42695 3.98969,10.52435 7.97937,21.0487 11.96906,31.57305 8.16605,2.5971 7.73979,-7.29973 10.6053,-12.41004 4.0349,-10.52999 8.0698,-21.05997 12.1047,-31.58996 -8.17683,-2.60103 -7.63586,7.34754 -10.4584,12.45421 -2.33273,6.24541 -4.648,12.51603 -6.9916,18.74579 z M 268,233 c 8.69037,-2.25296 3.6963,9.17852 5,14.31223 0,9.89592 0,19.79185 0,29.68777 -8.69037,2.25296 -3.6963,-9.17852 -5,-14.31223 0,-9.89592 0,-19.79185 0,-29.68777 z m 38.4,14.66 c -8.06152,-9.98503 -17.7463,4.67077 -20.4446,-2.66 -6.21438,0.22304 -1.47294,11.40188 -2.9554,16.35683 1.57801,4.65869 -3.45248,15.92587 3.06691,15.64317 4.33046,-2.10694 0.77605,-12.09876 1.93309,-17.37913 -0.0836,-18.38431 20.70007,-9.75488 15,4.44524 0.77726,5.53404 -3.15183,15.77443 6,12.93389 -0.8148,-9.68518 2.0931,-20.51867 -2.6,-29.34 z m 183.3,0.22 c -46.21333,-27.74333 -92.42667,-55.48667 -138.64,-83.23 -13.20179,-6.26714 -16.76111,9.81313 -15.06,19.45532 0,51.68489 0,103.36979 0,155.05468 1.79127,14.40343 17.21964,8.64041 24.60769,2.42252 43.60406,-26.36219 87.69691,-52.01697 130.99559,-78.82111 C 495.90416,258.61129 494.91707,250.8094 489.7,247.88 Z M 355,322.26 c 0,-44.16667 0,-88.33333 0,-132.5 36.82333,22.10667 73.64667,44.21333 110.47,66.32 -36.82333,22.06 -73.64667,44.12 -110.47,66.18 z" />
</svg>
