<?xml version="1.0" encoding="UTF-8" standalone="no"?>
<svg
   xmlns:dc="http://purl.org/dc/elements/1.1/"
   xmlns:cc="http://creativecommons.org/ns#"
   xmlns:rdf="http://www.w3.org/1999/02/22-rdf-syntax-ns#"
   xmlns:svg="http://www.w3.org/2000/svg"
   xmlns="http://www.w3.org/2000/svg"
   xmlns:sodipodi="http://sodipodi.sourceforge.net/DTD/sodipodi-0.dtd"
   xmlns:inkscape="http://www.inkscape.org/namespaces/inkscape"
   width="512"
   height="512"
   viewBox="0 0 512 512"
   version="1.1"
   id="svg6"
   sodipodi:docname="in ceiling speaker.svg"
   inkscape:version="0.92.1 r15371">
  <metadata
     id="metadata12">
    <rdf:RDF>
      <cc:Work
         rdf:about="">
        <dc:format>image/svg+xml</dc:format>
        <dc:type
           rdf:resource="http://purl.org/dc/dcmitype/StillImage" />
      </cc:Work>
    </rdf:RDF>
  </metadata>
  <defs
     id="defs10" />
  <sodipodi:namedview
     pagecolor="#ffffff"
     bordercolor="#666666"
     borderopacity="1"
     objecttolerance="10"
     gridtolerance="10"
     guidetolerance="10"
     inkscape:pageopacity="0"
     inkscape:pageshadow="2"
     inkscape:window-width="638"
     inkscape:window-height="493"
     id="namedview8"
     showgrid="false"
     inkscape:zoom="0.4609375"
     inkscape:cx="256"
     inkscape:cy="256"
     inkscape:window-x="0"
     inkscape:window-y="0"
     inkscape:window-maximized="0"
     inkscape:current-layer="svg6" />
  <path
     id="path4"
     d="m 258.62,91.73 c -71.91487,-1.195821 -135.87604,57.32952 -148.00488,126.99709 -15.698474,72.99494 25.28345,154.92435 96.11426,181.33989 61.29463,25.01437 136.15828,0.086 172.93412,-54.26201 47.181,-64.17546 37.6548,-162.30356 -22.21273,-215.25414 C 330.77927,106.00556 294.95811,91.539104 258.62,91.73 Z m 0,296.8 c -64.61642,1.08633 -120.73723,-54.02099 -128.36086,-116.84326 -10.97042,-65.56903 30.4832,-137.28393 95.94343,-154.41072 57.1344,-16.87594 121.12272,14.97376 146.61669,67.82564 33.41941,62.43254 11.97168,148.67266 -49.59031,185.14433 C 303.9056,382.10916 281.30942,388.58881 258.62,388.53 Z M 256,17.52 C 161.21098,16.217682 70.042939,77.975623 35.173285,165.96011 -0.54325144,250.60181 19.173626,354.78655 83.447612,420.45427 145.94899,487.72604 248.92113,512.46904 335.16788,480.96392 425.55052,450.19643 491.92525,360.78755 494.30476,265.20394 499.12513,172.33826 443.33292,80.495042 359.28376,41.072342 327.22983,25.549426 291.54117,17.466968 256,17.52 Z m 0,455.75 C 163.31488,474.61408 74.84631,409.45156 48.514731,320.53708 21.326257,236.80375 51.791846,138.53911 121.94277,85.143159 193.31241,27.137413 302.02198,23.22575 377.39207,75.905059 451.03418,124.09531 488.55395,219.63574 467.69641,305.02691 447.74425,397.33275 361.50031,469.58899 267.15445,473.00674 263.44378,473.18777 259.66447,473.31007 256,473.27 Z" />
</svg>
