<?xml version="1.0" encoding="UTF-8" standalone="no"?>
<svg
   xmlns:dc="http://purl.org/dc/elements/1.1/"
   xmlns:cc="http://creativecommons.org/ns#"
   xmlns:rdf="http://www.w3.org/1999/02/22-rdf-syntax-ns#"
   xmlns:svg="http://www.w3.org/2000/svg"
   xmlns="http://www.w3.org/2000/svg"
   xmlns:sodipodi="http://sodipodi.sourceforge.net/DTD/sodipodi-0.dtd"
   xmlns:inkscape="http://www.inkscape.org/namespaces/inkscape"
   width="512"
   height="512"
   viewBox="0 0 512 512"
   version="1.1"
   id="svg4"
   sodipodi:docname="in wall speaker r.svg"
   inkscape:version="0.92.1 r15371">
  <metadata
     id="metadata10">
    <rdf:RDF>
      <cc:Work
         rdf:about="">
        <dc:format>image/svg+xml</dc:format>
        <dc:type
           rdf:resource="http://purl.org/dc/dcmitype/StillImage" />
      </cc:Work>
    </rdf:RDF>
  </metadata>
  <defs
     id="defs8" />
  <sodipodi:namedview
     pagecolor="#ffffff"
     bordercolor="#666666"
     borderopacity="1"
     objecttolerance="10"
     gridtolerance="10"
     guidetolerance="10"
     inkscape:pageopacity="0"
     inkscape:pageshadow="2"
     inkscape:window-width="640"
     inkscape:window-height="493"
     id="namedview6"
     showgrid="false"
     inkscape:zoom="0.4609375"
     inkscape:cx="256"
     inkscape:cy="256"
     inkscape:window-x="0"
     inkscape:window-y="0"
     inkscape:window-maximized="0"
     inkscape:current-layer="svg4" />
  <path
     id="path2"
     d="m 485.4,168 c -152.93333,0 -305.86667,0 -458.8,0 -18.8713273,5.93141 -1.760826,22.77247 11.166972,18 6.582675,0.72981 14.6054,-2.45179 19.099962,3.94969 C 96.41129,223.63313 135.95564,257.31656 175.5,291 c -11.02978,-2.59568 -16.59132,7.38464 -14.5,17.13661 0.38568,10.11938 -0.82609,20.40355 0.70922,30.40433 5.6893,8.94221 17.52524,4.30148 26.41401,5.45906 50.98559,0 101.97118,0 152.95677,0 12.34933,-1.46003 8.19872,-15.5052 8.92,-24.08769 -0.95215,-8.85729 2.3558,-18.98719 -2.6675,-26.70106 -11.01491,-2.07445 -11.86605,-2.38555 -3.05822,-8.78695 C 382.86285,251.6162 421.45143,218.8081 460.04,186 c 9.56195,-0.37551 19.29318,0.82059 28.72812,-0.73406 C 497.2745,181.74753 494.71163,167.92583 485.4,168 Z M 333,326 c -51.66667,0 -103.33333,0 -155,0 0.69041,-5.64799 -1.37355,-14.05034 1.01518,-18 51.32827,0 102.65655,0 153.98482,0 0,6 0,12 0,18 z m -22.82,-35 c -36.11333,0 -72.22667,0 -108.34,0 -40.96667,-35 -81.93333,-70 -122.9,-105 118.12,0 236.24,0 354.36,0 -41.03413,34.99784 -82.11522,70.01298 -123.12,105 z" />
</svg>
