<?xml version="1.0" encoding="UTF-8" standalone="no"?>
<svg
   xmlns:dc="http://purl.org/dc/elements/1.1/"
   xmlns:cc="http://creativecommons.org/ns#"
   xmlns:rdf="http://www.w3.org/1999/02/22-rdf-syntax-ns#"
   xmlns:svg="http://www.w3.org/2000/svg"
   xmlns="http://www.w3.org/2000/svg"
   xmlns:sodipodi="http://sodipodi.sourceforge.net/DTD/sodipodi-0.dtd"
   xmlns:inkscape="http://www.inkscape.org/namespaces/inkscape"
   width="512"
   height="512"
   viewBox="0 0 512 512"
   version="1.1"
   id="svg4"
   sodipodi:docname="mra keypad.svg"
   inkscape:version="0.92.1 r15371">
  <metadata
     id="metadata10">
    <rdf:RDF>
      <cc:Work
         rdf:about="">
        <dc:format>image/svg+xml</dc:format>
        <dc:type
           rdf:resource="http://purl.org/dc/dcmitype/StillImage" />
      </cc:Work>
    </rdf:RDF>
  </metadata>
  <defs
     id="defs8" />
  <sodipodi:namedview
     pagecolor="#ffffff"
     bordercolor="#666666"
     borderopacity="1"
     objecttolerance="10"
     gridtolerance="10"
     guidetolerance="10"
     inkscape:pageopacity="0"
     inkscape:pageshadow="2"
     inkscape:window-width="640"
     inkscape:window-height="493"
     id="namedview6"
     showgrid="false"
     inkscape:zoom="0.4609375"
     inkscape:cx="256"
     inkscape:cy="256"
     inkscape:window-x="0"
     inkscape:window-y="0"
     inkscape:window-maximized="0"
     inkscape:current-layer="svg4" />
  <path
     id="path2"
     d="M 496,104.2 C 494.44089,90.043716 478.2663,94.845668 468.46815,94 321.37877,94 174.28938,94 27.2,94 13.041547,95.554986 17.846775,111.73407 17,121.53185 c 0,95.08938 0,190.17877 0,285.26815 1.559112,14.15628 17.733696,9.35433 27.53185,10.2 147.08938,0 294.17877,0 441.26815,0 14.15628,-1.55911 9.35433,-17.7337 10.2,-27.53185 0,-95.08938 0,-190.17877 0,-285.26815 z M 166,397 c -43,0 -86,0 -129,0 0,-43.66667 0,-87.33333 0,-131 43,0 86,0 129,0 0,43.66667 0,87.33333 0,131 z m 0,-151 c -43,0 -86,0 -129,0 0,-43.66667 0,-87.33333 0,-131 43,0 86,0 129,0 0,43.66667 0,87.33333 0,131 z m 152,151 c -43.66667,0 -87.33333,0 -131,0 0,-43.66667 0,-87.33333 0,-131 43.66667,0 87.33333,0 131,0 0,43.66667 0,87.33333 0,131 z m 0,-151 c -43.66667,0 -87.33333,0 -131,0 0,-43.66667 0,-87.33333 0,-131 43.66667,0 87.33333,0 131,0 0,43.66667 0,87.33333 0,131 z m 156,151 c -45.33333,0 -90.66667,0 -136,0 0,-43.66667 0,-87.33333 0,-131 45.33333,0 90.66667,0 136,0 0,43.66667 0,87.33333 0,131 z m 0,-151 c -45.33333,0 -90.66667,0 -136,0 0,-43.66667 0,-87.33333 0,-131 45.33333,0 90.66667,0 136,0 0,43.66667 0,87.33333 0,131 z" />
</svg>
