<?xml version="1.0" encoding="UTF-8" standalone="no"?>
<svg
   xmlns:dc="http://purl.org/dc/elements/1.1/"
   xmlns:cc="http://creativecommons.org/ns#"
   xmlns:rdf="http://www.w3.org/1999/02/22-rdf-syntax-ns#"
   xmlns:svg="http://www.w3.org/2000/svg"
   xmlns="http://www.w3.org/2000/svg"
   xmlns:sodipodi="http://sodipodi.sourceforge.net/DTD/sodipodi-0.dtd"
   xmlns:inkscape="http://www.inkscape.org/namespaces/inkscape"
   width="512"
   height="512"
   viewBox="0 0 512 512"
   version="1.1"
   id="svg6"
   sodipodi:docname="outdoor prewire.svg"
   inkscape:version="0.92.1 r15371">
  <metadata
     id="metadata12">
    <rdf:RDF>
      <cc:Work
         rdf:about="">
        <dc:format>image/svg+xml</dc:format>
        <dc:type
           rdf:resource="http://purl.org/dc/dcmitype/StillImage" />
      </cc:Work>
    </rdf:RDF>
  </metadata>
  <defs
     id="defs10" />
  <sodipodi:namedview
     pagecolor="#ffffff"
     bordercolor="#666666"
     borderopacity="1"
     objecttolerance="10"
     gridtolerance="10"
     guidetolerance="10"
     inkscape:pageopacity="0"
     inkscape:pageshadow="2"
     inkscape:window-width="638"
     inkscape:window-height="493"
     id="namedview8"
     showgrid="false"
     inkscape:zoom="0.4609375"
     inkscape:cx="256"
     inkscape:cy="256"
     inkscape:window-x="0"
     inkscape:window-y="0"
     inkscape:window-maximized="0"
     inkscape:current-layer="svg6" />
  <path
     id="path4"
     d="m 339.3,351 c -51.1,0 -102.2,0 -153.3,0 0,-9.33333 0,-18.66667 0,-28 44.83343,-0.15841 89.69554,0.31652 134.51109,-0.23687 20.91747,-4.35945 10.70618,-40.01408 -9.18954,-23.52014 C 276.83164,298.95379 242.34079,298.98819 207.85,299 173.92333,257.94667 139.99667,216.89333 106.07,175.84 85.267408,161.13768 80.576437,191.71642 96.184744,200.97483 123.16983,233.64989 150.15491,266.32494 177.14,299 c -14.51103,-2.18292 -16.41389,13.98583 -15.14,24.64468 0.67749,15.07363 -1.47631,30.57994 1.32,45.33532 -26.02428,-7.47503 -18.19646,26.39332 1.06424,29.46616 27.16604,17.11895 56.74726,31.24183 88.01576,38.77384 22.75193,-6.43188 49.8198,-10.74954 67.01875,-27.30125 -2.07746,-32.59954 -38.72281,-0.89102 -57.04166,0.48547 -17.79945,6.11854 -35.16875,-7.8313 -51.79709,-13.39172 -9.82196,-5.36207 -39.05008,-18.48772 -34.78306,-22.0125 54.50102,0 109.00204,0 163.50306,0 15.44975,0.2009 15.39731,-24.22539 0,-24 z m 66.86,-127.8 c 20.61333,-25.06667 41.22667,-50.13333 61.84,-75.2 17.86278,6.53167 35.31443,-20.48233 10.30153,-24 -12.57384,0 -25.14769,0 -37.72153,0 C 459.20433,102.19456 419.79915,97.992056 405.16915,93.274229 360.87592,81.882215 315.13452,74.995932 269.37967,75.049316 243.01576,92.050999 279.71228,102.92091 296.15681,99.291121 340.65235,102.20611 384.78519,110.54481 427.29,124.02 c -37.89,0 -75.78,0 -113.67,0 -24.81117,6.60925 -4.05057,30.18529 13.18315,24 36.83228,0 73.66457,0 110.49685,0 -16.47667,20.04333 -32.95333,40.08667 -49.43,60.13 -10.10319,12.26796 8.80156,26.92727 18.29,15.05 z M 41.65,148 c 79.74,0 159.48,0 239.22,0 24.79367,-6.6152 4.04518,-30.18423 -13.18315,-24 -58.25228,0 -116.50457,0 -174.75685,0 22.90898,-10.78782 55.53244,-6.63797 72.45578,-24.966094 -5.5461,-28.642094 -43.46411,-3.579184 -62.5732,-2.320781 C 75.048412,105.22167 46.83146,114.08074 21.2,127.74 c -7.998681,9.01899 -1.655908,22.50157 -2.333431,33.20819 5.086062,49.9518 21.450676,99.26986 49.447493,141.05618 18.696387,12.60735 25.761863,-17.09701 10.993741,-27.03255 C 57.386099,236.21165 44.451044,192.43486 41.65,148 Z m 443.85,34.04 c -21.20057,1.12764 -16.09429,30.23154 -25.27877,44.52011 -14.3251,38.10974 -36.44948,73.25949 -64.60123,102.66989 -11.77564,28.62182 25.71714,19.34202 31.51775,0.28836 C 459.36096,291.06994 482.5611,245.10363 494.24,196.31 c 1.65777,-6.13208 -2.58104,-12.97233 -8.74,-14.27 z" />
</svg>
