<?xml version="1.0" encoding="UTF-8" standalone="no"?>
<svg
   xmlns:dc="http://purl.org/dc/elements/1.1/"
   xmlns:cc="http://creativecommons.org/ns#"
   xmlns:rdf="http://www.w3.org/1999/02/22-rdf-syntax-ns#"
   xmlns:svg="http://www.w3.org/2000/svg"
   xmlns="http://www.w3.org/2000/svg"
   xmlns:sodipodi="http://sodipodi.sourceforge.net/DTD/sodipodi-0.dtd"
   xmlns:inkscape="http://www.inkscape.org/namespaces/inkscape"
   width="512"
   height="512"
   viewBox="0 0 512 512"
   version="1.1"
   id="svg8"
   sodipodi:docname="projection location.svg"
   inkscape:version="0.92.1 r15371">
  <metadata
     id="metadata14">
    <rdf:RDF>
      <cc:Work
         rdf:about="">
        <dc:format>image/svg+xml</dc:format>
        <dc:type
           rdf:resource="http://purl.org/dc/dcmitype/StillImage" />
      </cc:Work>
    </rdf:RDF>
  </metadata>
  <defs
     id="defs12" />
  <sodipodi:namedview
     pagecolor="#ffffff"
     bordercolor="#666666"
     borderopacity="1"
     objecttolerance="10"
     gridtolerance="10"
     guidetolerance="10"
     inkscape:pageopacity="0"
     inkscape:pageshadow="2"
     inkscape:window-width="638"
     inkscape:window-height="493"
     id="namedview10"
     showgrid="false"
     inkscape:zoom="0.4609375"
     inkscape:cx="256"
     inkscape:cy="256"
     inkscape:window-x="0"
     inkscape:window-y="0"
     inkscape:window-maximized="0"
     inkscape:current-layer="svg8" />
  <path
     id="path6"
     d="m 382,290.54 c 13.11629,-1.87946 7.95754,-17.24116 9,-26.46281 0,-28.25906 0,-56.51813 0,-84.77719 -6.59933,-20.50075 -22.96787,-0.59904 -18,12.71339 0,29.79887 0,59.59774 0,89.39661 -0.14895,4.84738 4.12158,9.29957 9,9.13 z m 52,0 c 13.11629,-1.87946 7.95754,-17.24116 9,-26.46281 0,-28.25906 0,-56.51813 0,-84.77719 -6.59933,-20.50075 -22.96787,-0.59904 -18,12.71339 0,29.79887 0,59.59774 0,89.39661 -0.14895,4.84738 4.12158,9.29957 9,9.13 z m -25.5,0 c 13.52063,-1.6057 8.56588,-17.11068 9.5,-26.46281 0,-28.25906 0,-56.51813 0,-84.77719 -6.86072,-20.38435 -24.12193,-1.01359 -19,12.71339 0,29.79887 0,59.59774 0,89.39661 -0.0699,5.01456 4.61074,9.23241 9.5,9.13 z M 329.7,392 c 10.51966,-0.93911 22.08502,2.26563 31.6975,-2.46 4.99954,-9.43813 1.60852,-21.09946 2.6025,-31.57 -1.77912,-13.11163 -17.15124,-7.91241 -26.32281,-8.97 -11.96304,-2.96782 -19.21519,7.00258 -16.67719,18.20883 1.14406,8.4567 -4.18215,23.84144 8.7,24.79117 z m 9.3,-25 c 8.71322,-4.53709 12.13851,9.89217 2.22573,7 -4.19057,1.23597 -1.4391,-4.76178 -2.22573,-7 z m 17.5,-76.46 c 13.52063,-1.6057 8.56588,-17.11068 9.5,-26.46281 0,-28.25906 0,-56.51813 0,-84.77719 -6.86072,-20.38435 -24.12193,-1.01359 -19,12.71339 0,29.79887 0,59.59774 0,89.39661 -0.0699,5.01456 4.61074,9.23241 9.5,9.13 z m -26.5,0 c 13.11629,-1.87946 7.95754,-17.24116 9,-26.46281 0,-28.25906 0,-56.51813 0,-84.77719 -6.59933,-20.50075 -22.96787,-0.59904 -18,12.71339 0,29.79887 0,59.59774 0,89.39661 -0.14895,4.84738 4.12158,9.29957 9,9.13 z M 381.73,392 c 10.5161,-0.94097 22.08437,2.26837 31.68875,-2.46 4.96069,-9.45346 1.59409,-21.099 2.58125,-31.57 -1.74431,-13.11602 -17.11564,-7.9108 -26.27281,-8.97 -11.96336,-2.96354 -19.27722,6.97932 -16.72719,18.20883 1.13821,8.46826 -4.17744,23.84799 8.73,24.79117 z M 391,367 c 8.71322,-4.53709 12.13851,9.89217 2.22573,7 -4.19057,1.23597 -1.4391,-4.76178 -2.22573,-7 z M 485.52,94 C 347.52667,94 209.53333,94 71.54,94 57.957219,95.390281 62.937355,110.92876 62,120.22281 62,136.8152 62,153.4076 62,170 49.88301,169.95825 34.744285,167.89139 28.332969,181.25879 13.679974,208.6103 14.007285,242.73818 23.965,271.625 27.886636,287.74905 43.756074,292.94423 58.323391,291 66.031867,290.29133 60.181,303.142 62,308.32281 62,341.9152 62,375.5076 62,409.1 c 2.235069,12.98593 17.545877,7.85618 26.862806,8.9 132.219064,0 264.438134,0 396.657194,0 13.53734,-1.41909 8.52816,-16.94575 9.48,-26.22281 0,-96.29239 0,-192.58479 0,-288.87719 0.1002,-5.008202 -4.65659,-9.010424 -9.48,-8.9 z M 45.67,272.06 c -13.162178,-19.56742 -11.813728,-45.8481 -7.21314,-68.08947 1.395646,-13.1319 11.175843,-20.1366 13.57564,-2.89303 5.675807,22.598 6.508408,48.61767 -4.97748,69.5443 z M 66.89,273 c 9.727777,-27.10536 10.004133,-57.94525 -0.02,-85 50.37667,0 100.75333,0 151.13,0 0,28.33333 0,56.66667 0,85 -50.37,0 -100.74,0 -151.11,0 z M 477,399 c -132.33333,0 -264.66667,0 -397,0 0,-27.66667 0,-55.33333 0,-83 132.33333,0 264.66667,0 397,0 0,27.66667 0,55.33333 0,83 z m 0,-101 c -132.33333,0 -264.66667,0 -397,0 -3.405304,-10.35805 7.59951,-6.30599 13.858245,-7 61.607255,0 123.214505,0 184.821755,0 13.31981,-2.05699 8.36911,-17.48382 9.32,-26.92281 0,-28.25906 0,-56.51813 0,-84.77719 -1.85796,-13.33711 -17.29099,-8.33167 -26.64281,-9.3 C 200.9048,170 140.4524,170 80,170 c -3.405304,-10.35805 7.59951,-6.30599 13.858245,-7 127.713915,0 255.427835,0 383.141755,0 0,45 0,90 0,135 z M 236,273 c 0,-28.33333 0,-56.66667 0,-85 11.33333,0 22.66667,0 34,0 0,28.33333 0,56.66667 0,85 -11.33333,0 -22.66667,0 -34,0 z M 477,145 c -132.33333,0 -264.66667,0 -397,0 0,-10.66667 0,-21.33333 0,-32 132.33333,0 264.66667,0 397,0 0,10.66667 0,21.33333 0,32 z m -43.23,247 c 10.5057,-0.94361 22.07074,2.27246 31.66,-2.46 4.92179,-9.46872 1.57969,-21.09853 2.56,-31.57 -1.7094,-13.12039 -17.08002,-7.90919 -26.22281,-8.97 -11.96216,-2.9575 -19.33961,6.9566 -16.77719,18.20883 1.1323,8.4839 -4.17697,23.86399 8.78,24.79117 z M 443,367 c 8.6759,-4.53142 10.32559,10.45354 1.22573,7 -2.90289,0.62364 -0.38373,-5.40207 -1.22573,-7 z m 16,-76.46 c 13.11629,-1.87946 7.95754,-17.24116 9,-26.46281 0,-28.25906 0,-56.51813 0,-84.77719 -6.59933,-20.50075 -22.96787,-0.59904 -18,12.71339 0,29.79887 0,59.59774 0,89.39661 -0.14895,4.84738 4.12158,9.29957 9,9.13 z" />
</svg>
