<?xml version="1.0" encoding="UTF-8" standalone="no"?>
<svg
   xmlns:dc="http://purl.org/dc/elements/1.1/"
   xmlns:cc="http://creativecommons.org/ns#"
   xmlns:rdf="http://www.w3.org/1999/02/22-rdf-syntax-ns#"
   xmlns:svg="http://www.w3.org/2000/svg"
   xmlns="http://www.w3.org/2000/svg"
   xmlns:sodipodi="http://sodipodi.sourceforge.net/DTD/sodipodi-0.dtd"
   xmlns:inkscape="http://www.inkscape.org/namespaces/inkscape"
   width="512"
   height="512"
   viewBox="0 0 512 512"
   version="1.1"
   id="svg8"
   sodipodi:docname="rock speaker prewire.svg"
   inkscape:version="0.92.1 r15371">
  <metadata
     id="metadata14">
    <rdf:RDF>
      <cc:Work
         rdf:about="">
        <dc:format>image/svg+xml</dc:format>
        <dc:type
           rdf:resource="http://purl.org/dc/dcmitype/StillImage" />
      </cc:Work>
    </rdf:RDF>
  </metadata>
  <defs
     id="defs12" />
  <sodipodi:namedview
     pagecolor="#ffffff"
     bordercolor="#666666"
     borderopacity="1"
     objecttolerance="10"
     gridtolerance="10"
     guidetolerance="10"
     inkscape:pageopacity="0"
     inkscape:pageshadow="2"
     inkscape:window-width="640"
     inkscape:window-height="493"
     id="namedview10"
     showgrid="false"
     inkscape:zoom="0.4609375"
     inkscape:cx="256"
     inkscape:cy="256"
     inkscape:window-x="0"
     inkscape:window-y="0"
     inkscape:window-maximized="0"
     inkscape:current-layer="svg8" />
  <path
     id="path6"
     d="m 218.82,261.36 c -3.30847,20.03305 20.96711,14.37133 24.85078,0.29688 25.16558,-16.66879 60.80458,-16.47634 86.79238,-1.6859 24.29317,19.44151 -16.93598,31.17991 -30.42941,37.03027 -5.98631,27.02987 31.26257,12.01236 42.66068,3.07731 21.36351,-11.71042 21.52836,-43.75069 0.86759,-56.05122 -29.6957,-19.64587 -70.31329,-19.95762 -102.16617,-5.25952 -9.58823,4.91785 -18.56492,12.31973 -22.57585,22.59218 z m 122.74,61.98 c -17.34498,22.68689 19.14188,22.19815 27.4607,5.83004 28.22594,-22.02019 38.40756,-65.28396 17.3491,-95.66374 -23.0071,-34.73399 -67.45018,-51.421 -107.89074,-48.5788 -18.47699,19.19459 15.5334,21.37062 28.53523,21.85108 32.41681,5.40756 69.31011,28.08906 70.08571,64.46142 0.15637,22.77118 -16.5687,41.61402 -35.54,52.1 z M 404.55,404 c -47.98333,0 -95.96667,0 -143.95,0 -22.36275,6.44445 -1.90986,25.43358 12.85461,20 43.7018,0 87.40359,0 131.10539,0 13.40468,0.48552 13.39426,-20.49843 -0.01,-20 z M 88.03,326.77 c 12.48566,7.06483 17.76866,-9.15251 23.67,-16.86 2.78163,-15.967 0.61347,-32.75325 1.3,-49.06461 0,-18.61513 0,-37.23026 0,-55.84539 18.79186,6.01027 24.71399,-25.114 3.03923,-22 -10.91711,-1.74304 -25.769602,1.87853 -23.03923,16.07077 0,33.92308 0,67.84615 0,101.76923 -4.514401,7.72651 -15.822317,17.83313 -4.97,25.93 z M 157.78,404 c -37.41667,0 -74.833333,0 -112.25,0 -1.445586,-19.22335 -21.923886,-8.66288 -26.020616,3.55037 -8.730652,13.7476 9.260213,18.58347 19.667537,16.45963 39.53436,0 79.068719,0 118.603079,0 13.41297,0.4765 13.37938,-20.47833 0,-20.01 z M 407.03,191 c -7.13507,0.0645 -15.20034,1.90448 -17.78306,-6.72018 -21.98283,-31.27 -43.1299,-63.24069 -65.62694,-94.07982 -11.5988,-4.354497 -25.01424,-1.293591 -37.42999,-2.21 -15.2664,0.194121 -30.57816,-0.388203 -45.81626,0.290312 -9.70716,5.148926 -13.65047,16.932908 -20.6312,25.166978 -8.72005,13.3837 -19.14484,25.8195 -26.7013,39.85021 0.11588,20.18198 21.22038,10.75148 25.14254,-1.87013 C 228.1992,136.95158 238.2146,122.47579 248.23,108 c 21.16667,0 42.33333,0 63.5,0 23.40794,33.43382 46.17473,67.37336 69.985,100.48984 7.49635,4.60947 16.92083,1.6818 25.325,2.51016 13.40482,0.48674 13.39416,-20.5019 -0.01,-20 z m 87.2,220.95 C 486.56866,375.22879 478.25529,338.57631 471,301.81231 c -0.53051,-18.85032 1.08217,-37.92427 -0.84328,-56.62903 -12.9082,-17.07165 -23.8543,5.00768 -20.15672,18.03903 0,13.56256 0,27.12513 0,40.68769 8.46083,33.92096 14.69303,68.57765 22.29205,102.78311 -1.14608,15.52368 20.45312,28.05341 21.93795,5.25689 z M 256.8,345.87 c -3.39114,-21.00064 -36.62382,-17.00564 -48.12044,-35.20124 -19.5723,-16.96888 -25.0118,-48.5185 -8.31956,-69.42876 8.37298,-22.11261 -22.95093,-17.68349 -23.9869,0.4827 -16.72335,33.42739 -0.1175,75.10002 30.49223,94.16099 12.38013,5.79285 40.30863,28.49068 49.93467,9.98631 z" />
</svg>
