<?xml version="1.0" encoding="UTF-8" standalone="no"?>
<svg
   xmlns:dc="http://purl.org/dc/elements/1.1/"
   xmlns:cc="http://creativecommons.org/ns#"
   xmlns:rdf="http://www.w3.org/1999/02/22-rdf-syntax-ns#"
   xmlns:svg="http://www.w3.org/2000/svg"
   xmlns="http://www.w3.org/2000/svg"
   xmlns:sodipodi="http://sodipodi.sourceforge.net/DTD/sodipodi-0.dtd"
   xmlns:inkscape="http://www.inkscape.org/namespaces/inkscape"
   width="512"
   height="512"
   viewBox="0 0 512 512"
   version="1.1"
   id="svg8"
   sodipodi:docname="rock speaker.svg"
   inkscape:version="0.92.1 r15371">
  <metadata
     id="metadata14">
    <rdf:RDF>
      <cc:Work
         rdf:about="">
        <dc:format>image/svg+xml</dc:format>
        <dc:type
           rdf:resource="http://purl.org/dc/dcmitype/StillImage" />
      </cc:Work>
    </rdf:RDF>
  </metadata>
  <defs
     id="defs12" />
  <sodipodi:namedview
     pagecolor="#ffffff"
     bordercolor="#666666"
     borderopacity="1"
     objecttolerance="10"
     gridtolerance="10"
     guidetolerance="10"
     inkscape:pageopacity="0"
     inkscape:pageshadow="2"
     inkscape:window-width="640"
     inkscape:window-height="493"
     id="namedview10"
     showgrid="false"
     inkscape:zoom="0.4609375"
     inkscape:cx="256"
     inkscape:cy="256"
     inkscape:window-x="0"
     inkscape:window-y="0"
     inkscape:window-maximized="0"
     inkscape:current-layer="svg8" />
  <path
     id="path6"
     d="m 288.3,229.45 c -25.71731,0.3435 -58.02611,7.50291 -69.09205,33.70473 -7.40442,24.27988 17.82095,41.59817 38.2685,46.59777 31.512,7.95315 70.92767,5.77478 94.18378,-19.5848 16.04124,-18.05993 0.96458,-43.67523 -18.4775,-51.18354 C 319.31398,232.18257 303.58037,229.43576 288.3,229.45 Z m 0,66.36 c -18.24968,-0.57626 -40.37176,-3.48753 -51.42758,-19.7158 -1.97593,-22.22123 28.57909,-26.86703 45.88316,-28.43742 19.89872,-0.43153 44.45942,2.10808 56.65794,19.81306 2.00628,22.11652 -28.44901,26.62543 -45.62872,28.1951 1.74624,0.0977 -7.36689,0.14523 -5.4848,0.14506 z m 74.42,-86.51 c -48.88893,-34.90537 -122.89742,-32.82485 -167.74098,8.04258 -26.74443,23.23362 -33.1154,66.5269 -10.86036,94.96625 34.09887,45.11489 100.27542,55.29117 151.09832,35.71975 36.18012,-12.99856 69.01008,-49.18386 60.47529,-89.87807 C 391.8804,238.20969 378.84226,221.09153 362.72,209.3 Z m -10.74,109.24 c -43.03817,30.40417 -108.99491,28.29383 -147.2209,-9.19766 -21.35058,-19.9717 -21.33261,-56.26381 0,-76.24125 38.84823,-38.09411 106.38212,-39.72975 149.3914,-7.73567 23.14093,16.08909 33.21308,50.35499 16.0005,74.27562 -4.78942,7.3806 -11.13708,13.66672 -18.171,18.89896 z m 142.76,94.44 C 487.31701,375.62516 478.63288,338.39968 472,300.96379 c 0,-33.3646 0,-66.72919 0,-100.09379 -2.01852,-13.03867 -17.38807,-7.77053 -26.62159,-8.86 -17.18614,0 -34.37227,0 -51.55841,0 C 370.11429,158.14089 347.07829,123.68712 322.97,90.17 314.64507,85.393539 304.15281,89.233268 295.00598,88 277.54399,88 260.08199,88 242.62,88 231.88141,91.363318 228.29127,104.06503 221.23935,112.13623 204.3929,136.42415 187.54645,160.71208 170.7,185 c -23.78483,0.45622 -47.75245,-0.91943 -71.42125,0.69969 -8.964243,6.27992 -4.010558,18.72955 -5.29875,28.11812 0,29.20073 0,58.40146 0,87.60219 C 68.638694,338.30213 42.530615,374.72542 17.670469,411.89547 14.421607,425.87223 31.172733,424.3099 40.097274,424 188.9918,423.91331 337.91071,424.17336 486.79,423.87 c 5.19187,-0.5627 9.06708,-5.80586 7.95,-10.89 z M 43.3,406 C 65.930026,372.92766 89.489584,340.40448 111.53625,306.9875 112.61122,272.40213 111.69613,237.64999 112,203 c 21.14,0 42.28,0 63.42,0 10.73934,-3.36602 14.32993,-16.06397 21.38211,-24.13522 C 213.65141,154.57652 230.5007,130.28826 247.35,106 c 21.74333,0 43.48667,0 65.23,0 23.03333,33.32 46.06667,66.64 69.1,99.96 8.32886,7.21449 20.52869,2.83926 30.78212,4.04 13.84596,0 27.69192,0 41.53788,0 0.22709,32.43458 -0.45275,64.94815 0.33723,97.33376 6.82093,32.88541 13.64185,65.77083 20.46277,98.65624 -143.83,0.007 -287.68667,-0.0133 -431.5,0.01 z" />
</svg>
