<?xml version="1.0" encoding="UTF-8" standalone="no"?>
<svg
   xmlns:dc="http://purl.org/dc/elements/1.1/"
   xmlns:cc="http://creativecommons.org/ns#"
   xmlns:rdf="http://www.w3.org/1999/02/22-rdf-syntax-ns#"
   xmlns:svg="http://www.w3.org/2000/svg"
   xmlns="http://www.w3.org/2000/svg"
   xmlns:sodipodi="http://sodipodi.sourceforge.net/DTD/sodipodi-0.dtd"
   xmlns:inkscape="http://www.inkscape.org/namespaces/inkscape"
   width="512"
   height="512"
   viewBox="0 0 512 512"
   version="1.1"
   id="svg6"
   sodipodi:docname="speaker prewire.svg"
   inkscape:version="0.92.1 r15371">
  <metadata
     id="metadata12">
    <rdf:RDF>
      <cc:Work
         rdf:about="">
        <dc:format>image/svg+xml</dc:format>
        <dc:type
           rdf:resource="http://purl.org/dc/dcmitype/StillImage" />
      </cc:Work>
    </rdf:RDF>
  </metadata>
  <defs
     id="defs10" />
  <sodipodi:namedview
     pagecolor="#ffffff"
     bordercolor="#666666"
     borderopacity="1"
     objecttolerance="10"
     gridtolerance="10"
     guidetolerance="10"
     inkscape:pageopacity="0"
     inkscape:pageshadow="2"
     inkscape:window-width="640"
     inkscape:window-height="493"
     id="namedview8"
     showgrid="false"
     inkscape:zoom="0.4609375"
     inkscape:cx="256"
     inkscape:cy="256"
     inkscape:window-x="0"
     inkscape:window-y="0"
     inkscape:window-maximized="0"
     inkscape:current-layer="svg6" />
  <path
     id="path4"
     d="m 298.26,96.28 c -24.36907,-4.020459 -19.04255,31.35756 2.71295,29.09079 50.46686,18.89421 83.30692,72.04014 82.72705,125.18921 9.18902,30.48275 36.76675,0.0724 25.56502,-19.99484 C 402.48722,169.23547 358.45488,112.9156 298.26,96.28 Z M 133.5,250.56 c -0.19191,-38.39479 16.2118,-76.82457 45.15,-102.27 16.94657,-20.3673 -18.82206,-32.38124 -27.05425,-11.10217 -45.40547,46.78505 -58.296062,122.47806 -29.96169,181.23342 21.37953,16.53472 28.50204,-15.81988 16.92556,-30.08574 C 135.16141,276.06781 133.42188,263.22186 133.5,250.56 Z m 255.32,51.74 c -27.26915,-0.52369 -28.84238,42.10321 -53.29082,53.40448 -28.04441,23.67367 -67.27006,33.36959 -103.05918,25.07552 -31.58178,1.83208 -8.47407,36.54058 13.90127,29.15271 62.31908,5.95764 123.96077,-33.26301 149.03873,-89.88271 3.16578,-6.45268 -0.0416,-14.91956 -6.59,-17.75 z M 121.13,93.18 C 166.32134,55.614581 227.64489,38.375292 285.8,46.7 314.38241,44.389466 295.31602,11.551841 274.11437,18.551278 213.3221,14.036766 150.96679,33.562775 104.03,72.56 c -13.66615,11.272341 3.83929,31.8382 17.1,20.62 z M 44.65,255.75 c -4.357572,-24.64631 14.120034,-51.15749 3.929844,-73.10719 -31.355729,-9.52756 -26.228653,40.28542 -30.377088,60.45688 -2.443367,48.88287 9.786809,99.15796 37.048806,139.99375 26.470506,14.20505 24.371278,-23.2945 10.133848,-35.9237 C 51.740757,318.7642 44.598241,287.24496 44.65,255.75 Z m 295.18,194.22 c -53.87352,23.48247 -117.61869,22.97881 -171.07,-1.48 -28.3666,-5.75453 -18.8206,31.20086 3.55614,30.44303 56.97288,21.62248 122.32,20.01977 178.14386,-4.43303 16.19803,-6.57218 5.17701,-31.81112 -10.63,-24.53 z M 415.98,79.58 c -24.00197,-13.844137 -27.74145,21.6856 -7.98824,29.49634 60.4844,61.03009 76.98034,160.21953 38.99065,237.40793 -10.65234,12.99444 -25.19204,48.69315 4.85259,41.99823 17.51771,-19.12841 26.27142,-45.40344 33.92413,-69.96958 C 509.64106,233.67233 481.69859,138.2236 415.98,79.58 Z" />
</svg>
