<?xml version="1.0" encoding="UTF-8" standalone="no"?>
<svg
   xmlns:dc="http://purl.org/dc/elements/1.1/"
   xmlns:cc="http://creativecommons.org/ns#"
   xmlns:rdf="http://www.w3.org/1999/02/22-rdf-syntax-ns#"
   xmlns:svg="http://www.w3.org/2000/svg"
   xmlns="http://www.w3.org/2000/svg"
   xmlns:sodipodi="http://sodipodi.sourceforge.net/DTD/sodipodi-0.dtd"
   xmlns:inkscape="http://www.inkscape.org/namespaces/inkscape"
   width="512"
   height="512"
   viewBox="0 0 512 512"
   version="1.1"
   id="svg4"
   sodipodi:docname="subwoofer outlet.svg"
   inkscape:version="0.92.1 r15371">
  <metadata
     id="metadata10">
    <rdf:RDF>
      <cc:Work
         rdf:about="">
        <dc:format>image/svg+xml</dc:format>
        <dc:type
           rdf:resource="http://purl.org/dc/dcmitype/StillImage" />
      </cc:Work>
    </rdf:RDF>
  </metadata>
  <defs
     id="defs8" />
  <sodipodi:namedview
     pagecolor="#ffffff"
     bordercolor="#666666"
     borderopacity="1"
     objecttolerance="10"
     gridtolerance="10"
     guidetolerance="10"
     inkscape:pageopacity="0"
     inkscape:pageshadow="2"
     inkscape:window-width="640"
     inkscape:window-height="493"
     id="namedview6"
     showgrid="false"
     inkscape:zoom="0.4609375"
     inkscape:cx="256"
     inkscape:cy="256"
     inkscape:window-x="0"
     inkscape:window-y="0"
     inkscape:window-maximized="0"
     inkscape:current-layer="svg4" />
  <path
     id="path2"
     d="m 245.2,120 c 54.0577,-0.16152 108.14544,0.32355 162.1843,-0.24344 C 425.40427,116.48768 416.68419,89.911721 400.17254,95 347.64636,95.161468 295.09019,94.676518 242.58283,95.243437 227.41835,97.642642 229.9062,120.63603 245.2,120 Z m -54,272 C 142.46667,392 93.733333,392 45,392 44.811078,354.40173 45.379175,316.76206 44.713594,279.18986 40.771007,261.47456 13.339398,269.4121 18,286.39746 c 0.194144,40.11888 -0.388656,80.28108 0.292012,120.37283 4.452394,14.47458 21.527025,9.25988 32.887195,10.22971 47.542267,-0.16131 95.114503,0.32327 142.637963,-0.24344 C 208.98165,414.35736 206.4938,391.36397 191.2,392 Z M 31.5,180.82 C 45.547324,180.80554 45.766232,165.45375 45,155.17698 45,143.45132 45,131.72566 45,120 c 29.602108,-0.15904 59.23384,0.32021 88.81717,-0.24344 C 151.8354,116.48815 143.11508,89.907492 126.60254,95 94.073135,95.170321 61.510622,94.658401 29.002031,95.257617 14.597051,98.164001 18.486625,114.39381 18,125.07048 c 0.645167,15.89965 -1.347624,32.1597 1.1025,47.81561 2.136003,4.7444 7.211574,7.989 12.3975,7.93391 z m 449,-47.59 c -14.04421,0.0186 -14.26742,15.36618 -13.5,25.64302 0.18987,49.84068 -0.38044,99.72295 0.28641,149.53755 3.93976,17.72924 31.37871,9.78527 26.71359,-7.20803 -0.18995,-52.52712 0.38055,-105.09577 -0.28641,-157.59684 C 492.42031,137.62325 486.55821,133.15374 480.5,133.23 Z M 464.77,392 c -54.05866,0.16151 -108.14733,-0.32354 -162.18717,0.24344 -18.01823,3.26841 -9.29791,29.84907 7.21463,24.75656 52.52521,-0.16147 105.08046,0.32349 157.58684,-0.24344 C 482.55024,414.35363 480.06407,391.37169 464.77,392 Z M 288.43,124.85 c -24.31186,3.88223 -9.13848,31.98081 9.45677,29.95805 41.15058,16.4698 68.63236,59.71782 67.70774,103.80625 6.68008,21.77981 34.45262,4.07493 25.26164,-13.93829 C 386.69805,188.41945 343.92484,136.79605 288.43,124.85 Z M 130.97,307.98 c 15.18602,22.2962 34.17629,-7.56038 19.57268,-22.69708 -12.44872,-42.5944 4.47127,-91.0687 39.98982,-117.44683 13.42568,-21.70242 -21.70487,-28.29637 -29.59705,-8.40175 C 121.87721,196.91083 109.68076,258.34512 130.97,307.98 Z M 374,322.58 c 9.401,-22.22009 -25.74103,-25.56387 -28.55804,-3.76082 -25.6376,37.46412 -75.70934,54.88704 -119.20196,42.82082 -26.09011,4.99176 -6.56664,34.7298 12.9925,29.16375 C 292.61566,398.46913 348.10638,369.6006 374,322.58 Z M 255.8,300.34 c 16.28844,3.01202 26.06046,-10.32508 25.30375,-22.99766 7.50104,-11.04021 28.01177,-15.01351 17.34542,-34.51348 -8.32597,-30.99225 -52.2762,-41.90121 -73.98417,-18.16386 -23.72611,21.64057 -12.82648,65.49033 18.16758,73.67828 4.25415,1.32811 8.71119,1.99883 13.16742,1.99672 z" />
</svg>
