<?xml version="1.0" encoding="UTF-8" standalone="no"?>
<svg
   xmlns:dc="http://purl.org/dc/elements/1.1/"
   xmlns:cc="http://creativecommons.org/ns#"
   xmlns:rdf="http://www.w3.org/1999/02/22-rdf-syntax-ns#"
   xmlns:svg="http://www.w3.org/2000/svg"
   xmlns="http://www.w3.org/2000/svg"
   xmlns:sodipodi="http://sodipodi.sourceforge.net/DTD/sodipodi-0.dtd"
   xmlns:inkscape="http://www.inkscape.org/namespaces/inkscape"
   width="512"
   height="512"
   viewBox="0 0 512 512"
   version="1.1"
   id="svg10"
   sodipodi:docname="Symbols Drawing5-02.svg"
   inkscape:version="0.92.1 r15371">
  <metadata
     id="metadata16">
    <rdf:RDF>
      <cc:Work
         rdf:about="">
        <dc:format>image/svg+xml</dc:format>
        <dc:type
           rdf:resource="http://purl.org/dc/dcmitype/StillImage" />
      </cc:Work>
    </rdf:RDF>
  </metadata>
  <defs
     id="defs14" />
  <sodipodi:namedview
     pagecolor="#ffffff"
     bordercolor="#666666"
     borderopacity="1"
     objecttolerance="10"
     gridtolerance="10"
     guidetolerance="10"
     inkscape:pageopacity="0"
     inkscape:pageshadow="2"
     inkscape:window-width="640"
     inkscape:window-height="493"
     id="namedview12"
     showgrid="false"
     inkscape:zoom="0.4609375"
     inkscape:cx="256"
     inkscape:cy="256"
     inkscape:window-x="0"
     inkscape:window-y="0"
     inkscape:window-maximized="0"
     inkscape:current-layer="svg10" />
  <g
     id="g8">
    <path
       id="path6"
       d="m 416.56,22.9 c 30.67347,19.19476 57.44434,46.30869 71.36234,80.1075 27.27774,13.39076 14.46367,-28.148402 2.27127,-37.963591 C 472.60063,40.4042 449.95981,17.995381 422.87,4.25 412.16754,2.7044021 407.15118,17.702758 416.56,22.9 Z m -68.91,71.26 c 30.68285,19.19103 57.44519,46.32104 71.36641,80.12172 27.28168,13.40048 14.42091,-28.14116 2.25648,-37.95895 C 403.68486,111.67973 381.04303,89.256849 353.93875,75.536875 343.27709,73.948552 338.18096,89.000835 347.65,94.16 Z M 12.62,100.43 C 36.433726,95.656488 38.366262,56.15786 61.551572,43.699573 70.364875,28.342829 114.78444,17.725327 92.945,-1.1175 69.125784,4.605283 51.008843,26.409215 34.014387,43.509128 25.549803,57.808604 -5.0761585,85.228544 12.62,100.43 Z m 68.91,71.27 c 23.82623,-4.8107 25.73759,-44.25652 48.92157,-56.72366 8.80054,-15.358665 53.25077,-25.980272 31.40343,-44.79509 -23.82131,5.693038 -41.93045,27.522629 -58.92777,44.60906 C 94.471088,129.08224 63.83687,156.49989 81.53,171.7 Z M 98.04,489.1 C 66.947306,469.83645 40.520614,442.1173 26.0625,408.30297 c -30.3072246,-10.155 -9.663046,32.40326 1.290731,42.83596 16.943553,22.6642 38.305833,42.6428 63.115519,56.34607 11.07834,3.34643 17.62306,-13.02023 7.57125,-18.385 z m 68.91,-71.27 c -31.09163,-19.26888 -57.51936,-46.98438 -71.981719,-80.79875 -30.279893,-10.1866 -9.684037,32.42709 1.295055,42.84497 16.941464,22.67092 38.323944,42.60606 63.112914,56.34753 11.09203,3.25919 17.63262,-12.93636 7.57375,-18.39375 z m 329.82,-6.25 c -23.90213,6.68481 -27.5162,46.10264 -51.80865,59.43734 -9.36053,12.64904 -53.43017,28.5244 -25.99135,42.42266 26.55123,-11.6657 47.96911,-33.97844 65.66799,-56.68245 5.46539,-11.56034 28.97947,-34.70996 12.13201,-45.17755 z m -68.92,-71.26 c -23.88844,6.72616 -27.51515,46.10748 -51.80659,59.44977 -9.35018,12.63986 -53.41581,28.51179 -25.99341,42.39023 26.56534,-11.63476 47.97613,-33.973 65.67789,-56.67132 5.4492,-11.55819 28.99115,-34.68561 12.12211,-45.16868 z M 258.3,367.5 c -61.31688,1.70071 -115.61432,-55.43925 -110.75548,-116.59736 1.47914,-61.28851 61.25024,-112.59344 122.07485,-104.62889 61.09923,4.63231 109.31659,66.84976 98.29998,127.1925 C 360.68199,326.24469 311.62513,368.46018 258.3,367.5 Z m 0,-195.05 c -49.71724,-1.57186 -92.30931,48.02884 -83.1791,96.9477 6.05019,49.22929 61.22445,83.81757 108.1557,67.55274 47.69843,-13.30891 73.77033,-72.80411 50.83277,-116.80036 C 320.57032,191.45841 290.01007,172.09877 258.3,172.45 Z m 97.5,84.15 c 1.70811,55.80327 -52.12541,104.4183 -107.47457,97.02664 -55.62573,-4.03026 -98.44828,-62.39869 -85.5842,-116.68353 9.62435,-54.87024 71.84016,-91.60316 124.54312,-73.47976 40.00491,11.92164 69.10937,51.37474 68.51565,93.13665 z" />
  </g>
</svg>
