<?xml version="1.0" encoding="UTF-8" standalone="no"?>
<svg
   xmlns:dc="http://purl.org/dc/elements/1.1/"
   xmlns:cc="http://creativecommons.org/ns#"
   xmlns:rdf="http://www.w3.org/1999/02/22-rdf-syntax-ns#"
   xmlns:svg="http://www.w3.org/2000/svg"
   xmlns="http://www.w3.org/2000/svg"
   xmlns:sodipodi="http://sodipodi.sourceforge.net/DTD/sodipodi-0.dtd"
   xmlns:inkscape="http://www.inkscape.org/namespaces/inkscape"
   width="512"
   height="512"
   viewBox="0 0 512 512"
   version="1.1"
   id="svg4"
   sodipodi:docname="TV location.svg"
   inkscape:version="0.92.1 r15371">
  <metadata
     id="metadata10">
    <rdf:RDF>
      <cc:Work
         rdf:about="">
        <dc:format>image/svg+xml</dc:format>
        <dc:type
           rdf:resource="http://purl.org/dc/dcmitype/StillImage" />
      </cc:Work>
    </rdf:RDF>
  </metadata>
  <defs
     id="defs8" />
  <sodipodi:namedview
     pagecolor="#ffffff"
     bordercolor="#666666"
     borderopacity="1"
     objecttolerance="10"
     gridtolerance="10"
     guidetolerance="10"
     inkscape:pageopacity="0"
     inkscape:pageshadow="2"
     inkscape:window-width="640"
     inkscape:window-height="493"
     id="namedview6"
     showgrid="false"
     inkscape:zoom="0.4609375"
     inkscape:cx="256"
     inkscape:cy="256"
     inkscape:window-x="0"
     inkscape:window-y="0"
     inkscape:window-maximized="0"
     inkscape:current-layer="svg4" />
  <path
     id="path2"
     d="m 485.5,225.04 c -152.99408,-1.65042 -306.00594,-1.65343 -459,0 -11.132007,1.31358 -11.881152,22.46859 -2.36,26.6 14.633504,3.69078 29.237744,7.51712 43.86,11.26 0.950531,7.87621 -3.010911,18.38088 5.100469,23.33641 37.311161,2.07835 74.950311,1.11832 112.390311,1.76252 83.08722,0.45141 166.17888,0.10359 249.25922,-1.05893 11.59684,-1.54619 7.4912,-14.94711 8.25,-23.08947 3.80147,-3.10164 11.4778,-3.17358 16.78086,-5.10114 10.75498,-3.42453 22.79304,-3.94965 32.50914,-9.74939 2.41922,-7.26419 4.5093,-23.30288 -6.79,-23.96 z M 426,269.7 c -113.66011,1.49028 -227.34004,1.50035 -341,-0.01 -2.112962,-8.15924 8.630167,-3.46239 13.448836,-4.69 109.183724,0 218.367444,0 327.551164,0 0,1.56667 0,3.13333 0,4.7 z" />
</svg>
