<?xml version="1.0" encoding="UTF-8" standalone="no"?>
<svg
   xmlns:dc="http://purl.org/dc/elements/1.1/"
   xmlns:cc="http://creativecommons.org/ns#"
   xmlns:rdf="http://www.w3.org/1999/02/22-rdf-syntax-ns#"
   xmlns:svg="http://www.w3.org/2000/svg"
   xmlns="http://www.w3.org/2000/svg"
   xmlns:sodipodi="http://sodipodi.sourceforge.net/DTD/sodipodi-0.dtd"
   xmlns:inkscape="http://www.inkscape.org/namespaces/inkscape"
   width="512"
   height="512"
   viewBox="0 0 512 512"
   version="1.1"
   id="svg4"
   sodipodi:docname="White RGB.svg"
   inkscape:version="0.92.1 r15371">
  <metadata
     id="metadata10">
    <rdf:RDF>
      <cc:Work
         rdf:about="">
        <dc:format>image/svg+xml</dc:format>
        <dc:type
           rdf:resource="http://purl.org/dc/dcmitype/StillImage" />
      </cc:Work>
    </rdf:RDF>
  </metadata>
  <defs
     id="defs8" />
  <sodipodi:namedview
     pagecolor="#ffffff"
     bordercolor="#666666"
     borderopacity="1"
     objecttolerance="10"
     gridtolerance="10"
     guidetolerance="10"
     inkscape:pageopacity="0"
     inkscape:pageshadow="2"
     inkscape:window-width="638"
     inkscape:window-height="493"
     id="namedview6"
     showgrid="false"
     inkscape:zoom="0.4609375"
     inkscape:cx="256"
     inkscape:cy="256"
     inkscape:window-x="0"
     inkscape:window-y="0"
     inkscape:window-maximized="0"
     inkscape:current-layer="svg4" />
  <path
     id="path2"
     d="m 18,237 c 5.130084,1.25439 16.44621,-3.67726 14,5.15342 0,11.94886 0,23.89772 0,35.84658 9.289095,2.8228 5.1306,-7.802 6,-13.39889 0,-9.20037 0,-18.40074 0,-27.60111 4.804261,-1.55976 16.159746,3.43171 16,-3.09205 C 53.691743,227.74991 42.486812,232.48854 37.509053,231 31.006035,231 24.503018,231 18,231 m 60.3,33.4 C 75.314219,280.03609 72.104338,256.95445 68.597912,250.7571 66.251941,244.1714 63.905971,237.5857 61.56,231 51.162852,228.17255 57.754596,237.09615 59.36327,242.57301 63.815513,254.38201 68.267757,266.191 72.72,278 c 8.148174,2.84202 7.984423,-6.3759 10.602002,-11.55833 C 87.821335,254.62778 92.320667,242.81389 96.82,231 88.428839,228.32293 88.773613,238.18656 85.996423,243.56851 83.430949,250.51234 80.865474,257.45617 78.3,264.4 Z M 129,231 c -5.85333,15.66667 -11.70667,31.33333 -17.56,47 8.33142,2.87377 7.99612,-6.29209 10.34524,-11.72881 1.46761,-6.7176 11.34938,-1.7464 16.55502,-3.27119 6.99368,-0.88934 5.63994,10.06104 8.83344,14.56177 9.38821,3.64522 5.68896,-4.38316 2.86111,-10.09457 C 145.19321,255.31147 140.3516,243.15573 135.51,231 c -2.17,0 -4.34,0 -6.51,0 z m -4.37,28 c 2.57753,-7.51692 5.9187,-14.81279 7.48,-22.64 0.98204,7.0369 7.71296,17.24438 6.98932,22.63 -4.8199,0.006 -9.66605,-0.0131 -14.46932,0.01 z m 54.37,3 c 0.25048,18.86856 -21.41672,9.00143 -15,-5.82411 0.55675,-5.58057 0.92897,-16.47509 -6,-11.14521 0.71516,9.59498 -1.82061,19.92934 2.23,28.87932 7.61574,11.97003 21.11366,-7.46249 20.80068,4.09 7.69527,1.21874 2.4201,-10.53296 3.96932,-15.46026 -0.67433,-5.84915 1.35722,-14.40417 -1.03068,-18.53974 -8.70258,-2.23628 -3.63313,9.29947 -4.96932,14.42958 0,1.19014 0,2.38028 0,3.57042 z m 36,-14.2 c -17.01861,-16.97951 -33.36335,17.77483 -16.21,27.88 9.80548,7.1611 15.80859,-6.44076 18.26137,2.32 7.65994,1.19365 2.38553,-10.54707 3.93863,-15.46026 0,-10.51325 0,-21.02649 0,-31.53974 -9.28909,-2.8228 -5.1306,7.802 -6,13.39889 0.0104,1.12602 -0.0179,2.29271 0.01,3.40111 z m -2.15,22.44 c -22.10437,15.47762 -17.71587,-38.63527 1.08766,-17.35328 2.04457,5.33699 2.40843,12.57555 -1.08766,17.35328 z M 230,231 c 10.83153,-3.05031 1.31448,13.22111 0,2.90795 0,-0.96932 0,-1.93863 0,-2.90795 z m 0,13 c 8.7279,-2.25138 3.67312,9.27993 5,14.42958 0,6.52347 0,13.04695 0,19.57042 -8.7279,2.25138 -3.67312,-9.27993 -5,-14.42958 0,-6.52347 0,-13.04695 0,-19.57042 z m 26.98,-0.75 c -23.22807,-0.95067 -18.88664,41.29931 4.16875,34.10125 17.22868,-3.85183 14.43891,-35.33583 -4.16875,-34.10125 z m 6.95,26.8 c -29.83425,15.81381 -11.34886,-45.08113 2.61406,-12.5775 0.41076,4.24457 0.24207,9.17899 -2.61406,12.5775 z m 225.41,-22.67 c -49.06,-29.45 -98.12,-58.9 -147.18,-88.35 -13.58677,-6.52852 -16.75804,10.27702 -15.16,20.04753 0,55.06082 0,110.12165 0,165.18247 1.24552,15.05632 17.3315,9.33756 24.89599,2.88379 46.43853,-28.078 93.38415,-55.42062 139.50526,-83.95895 4.57518,-4.47116 3.44552,-12.65735 -2.06125,-15.80484 z M 347,326.33 c 0,-46.87667 0,-93.75333 0,-140.63 39.09,23.46 78.18,46.92 117.27,70.38 -39.09,23.41667 -78.18,46.83333 -117.27,70.25 z" />
</svg>
