<?xml version="1.0" encoding="UTF-8" standalone="no"?>
<svg
   xmlns:dc="http://purl.org/dc/elements/1.1/"
   xmlns:cc="http://creativecommons.org/ns#"
   xmlns:rdf="http://www.w3.org/1999/02/22-rdf-syntax-ns#"
   xmlns:svg="http://www.w3.org/2000/svg"
   xmlns="http://www.w3.org/2000/svg"
   xmlns:sodipodi="http://sodipodi.sourceforge.net/DTD/sodipodi-0.dtd"
   xmlns:inkscape="http://www.inkscape.org/namespaces/inkscape"
   width="512"
   height="512"
   viewBox="0 0 512 512"
   version="1.1"
   id="svg6"
   sodipodi:docname="2x blue cat6.svg"
   inkscape:version="0.92.1 r15371">
  <metadata
     id="metadata12">
    <rdf:RDF>
      <cc:Work
         rdf:about="">
        <dc:format>image/svg+xml</dc:format>
        <dc:type
           rdf:resource="http://purl.org/dc/dcmitype/StillImage" />
      </cc:Work>
    </rdf:RDF>
  </metadata>
  <defs
     id="defs10" />
  <sodipodi:namedview
     pagecolor="#ffffff"
     bordercolor="#666666"
     borderopacity="1"
     objecttolerance="10"
     gridtolerance="10"
     guidetolerance="10"
     inkscape:pageopacity="0"
     inkscape:pageshadow="2"
     inkscape:window-width="640"
     inkscape:window-height="493"
     id="namedview8"
     showgrid="false"
     inkscape:zoom="0.4609375"
     inkscape:cx="256"
     inkscape:cy="256"
     inkscape:window-x="0"
     inkscape:window-y="0"
     inkscape:window-maximized="0"
     inkscape:current-layer="svg6" />
  <path
     id="path4"
     d="m 197.6,158.24 c 14.68009,-12.43334 34.22136,16.87667 8.41951,13.25078 -25.5816,-5.29769 -30.87179,35.8865 -2.69014,30.98391 10.04043,-0.4044 16.4769,-11.06195 20.28597,-0.46469 5.34574,-0.98754 13.07132,5.11187 13.78147,-4.18768 6.34773,-22.60411 12.69546,-45.20821 19.04319,-67.81232 -8.92818,-3.03424 -8.35994,6.47317 -10.46695,12.44745 -5.41435,19.21752 -10.8287,38.43503 -16.24305,57.65255 -6.40239,-14.47146 0.96172,-31.57666 -5.27,-45.79 -10.97105,-10.88168 -39.83093,-5.6854 -38.64235,10.50661 7.7522,2.38484 7.44024,-0.21734 11.78235,-6.58661 z m 21.4,20.58 c 6.56909,22.81985 -39.61242,20.00794 -21.83,1.83 4.73731,0.44423 23.60522,-8.5655 21.83,-1.83 z M 59,382 c 9.638964,3.02084 8.373017,-4.86323 8,-11.85437 0,-7.04855 0,-14.09709 0,-21.14563 11.333333,0 22.666667,0 34,0 2.56118,-9.15342 -2.959946,-10.22452 -10.776704,-9 -7.741099,0 -15.482197,0 -23.223296,0 0,-7 0,-14 0,-21 13.333333,0 26.666667,0 40,0 3.02084,-9.63896 -4.86323,-8.37302 -11.854375,-8 C 83.097084,311 71.048542,311 59,311 m 52,0 c 8.57719,-2.24385 10.46841,2.19826 9,10 -10.20749,1.34143 -9.49117,-0.63119 -9,-10 z m 0,18 c 9.15342,-2.56118 10.22452,2.95995 9,10.7767 0,14.07444 0,28.14887 0,42.2233 -9.15342,2.56118 -10.22452,-2.95995 -9,-10.7767 0,-14.07444 0,-28.14887 0,-42.2233 z m 55.46,6.98 c -8.23016,-11.18049 -28.69181,-6.41804 -29.47,-3.61301 0,-7.12233 0,-14.24466 0,-21.36699 -9.15342,-2.56118 -10.22452,2.95995 -9,10.7767 0,20.07444 0,40.14887 0,60.2233 11.67124,4.01079 3.03018,-14.63122 13.935,-1.5025 17.44309,8.43922 33.52068,-11.89105 30.16406,-28.46281 -0.37402,-5.70381 -2.15644,-11.52032 -5.62906,-16.05469 z m -7.23,34.3 c -20.22814,19.02995 -33.87508,-24.01443 -14.805,-33.1725 19.39057,-7.47978 23.34,22.28371 14.805,33.1725 z m 45.62,-38.78 c -12.26426,-11.03136 -21.33468,14.39886 -20.91767,-2.5 -9.63505,-3.04282 -8.25354,4.93093 -7.92233,11.85437 0,13.71521 0,27.43042 0,41.14563 8.41193,1.84559 12.05194,-1.08075 10,-9.69903 1.00631,-10.92505 -2.9223,-23.73858 4.43,-32.90097 8.082,-4.19176 12.81332,4.18358 14.41,-7.9 z m 20.43,-2.8 c -19.64508,-1.11043 -28.51458,22.39798 -22.35,38.41 5.87531,20.76816 41.15434,20.43764 45.43,-1.32 -12.83552,-5.95743 -16.63492,18.804 -31.01453,6.57812 -11.12066,-8.70521 -7.34652,-19.15635 5.84658,-15.37812 8.46598,0 16.93197,0 25.39795,0 1.79015,-14.01163 -8.0239,-29.33668 -23.31,-28.29 z m -14.5,21.3 c -2.44268,-23.04527 37.63225,-12.33411 25.44699,0 -8.46881,0 -17.04491,0 -25.44699,0 z M 65.82,257.8 C 78.635932,245.29111 69.054002,220.35028 50.42,222.18125 39.619121,221.82373 28.806297,222.07531 18,222 c 0,23.33333 0,46.66667 0,70 9.638964,3.02084 8.373017,-4.86323 8,-11.85437 1.599193,-5.21958 -3.919659,-17.5572 4.310682,-16.14563 11.868887,-0.65212 25.967024,2.58064 35.509318,-6.2 z m -7.74,-5.3 c -9.581615,5.81721 -21.396925,2.69913 -32.08,3.5 0,-8.66667 0,-17.33333 0,-26 11.210865,1.1884 24.816436,-3.43231 33.65,5.13 3.393841,5.10775 3.119339,13.12227 -1.57,17.37 z M 118,292 c -0.58499,-14.35174 1.42598,-29.03375 -1.6,-43.1 -6.33709,-14.38456 -30.631658,-5.84498 -30.4,-4.64301 0,-7.419 0,-14.83799 0,-22.25699 -8.411934,-1.84559 -12.051943,1.08075 -10,9.69903 0,20.10033 0,40.20065 0,60.30097 8.411934,1.84559 12.051943,-1.08075 10,-9.69903 1.205902,-10.8209 -3.62599,-24.46429 5.77,-32.37097 15.47672,-8.75022 20.34697,9.64701 18.23,21.2467 0,6.9411 0,13.8822 0,20.8233 2.66667,0 5.33333,0 8,0 z m 28.67,2.13 c 22.04544,1.16128 29.82211,-26.73953 20.27266,-42.95734 -10.26227,-18.13603 -42.50849,-12.04463 -43.84766,9.43046 -3.48253,15.75737 5.48152,34.60535 23.575,33.52688 z m -10.83,-41.6 c 19.49961,-18.50057 36.40185,19.23017 19.335,31.6625 C 134.5951,296.87262 125.09639,265.70488 135.84,252.53 Z M 184,265 c -6.38124,-19.51768 29.79974,-23.38027 23.99,-1.13466 0,9.37822 0,18.75644 0,28.13466 9.15342,2.56118 10.22452,-2.95995 9,-10.7767 -1.19807,-12.40817 3.61256,-27.25745 -5.7625,-37.18205 -7.98147,-11.7788 -27.41176,4.65032 -27.2375,1.62574 3.286,-7.35195 -13.09049,-6.84108 -9,0.72136 0,15.20388 0,30.40777 0,45.61165 9.15342,2.56118 10.22452,-2.95995 9,-10.7767 0.007,-5.40453 -0.0131,-10.83541 0.01,-16.2233 z m 75.5,11.42 c -2.94603,22.93609 -40.2955,1.98269 -24.76932,-6.42 11.33644,0 22.67288,0 34.00932,0 2.88794,-16.24199 -11.34189,-33.4755 -28.39578,-29.06828 -25.41892,4.27692 -25.66766,49.02164 0.2225,52.74515 C 252.10056,301.6118 280.88399,275.93063 259.51,276.4 Z m -24.06,-24.5 c 9.23881,-16.07552 36.33329,12.76595 16.61631,11.08 -7.05211,0 -14.10421,0 -21.15631,0 0.17345,-4.05659 1.51535,-8.24117 4.54,-11.08 z M 267.06,294 c 8.95183,3.03485 8.38517,-6.44742 10.45562,-12.4618 5.68813,-20.51273 11.37625,-41.02547 17.06438,-61.5382 -2.32,0 -4.64,0 -6.96,0 m 201.65,27.88 C 435.31333,215.50333 381.35667,183.12667 327.4,150.75 c -13.8035,-6.49561 -17.07248,10.42257 -15.4,20.35437 0,60.79855 0,121.59709 0,182.39563 1.75739,15.07504 17.86211,8.81266 25.50532,2.40144 51.18875,-30.96755 102.88065,-61.20717 153.75499,-92.62956 4.45778,-4.33694 3.39989,-12.35462 -1.99031,-15.39188 z M 332,336 c 0,-53.08333 0,-106.16667 0,-159.25 44.24,26.54333 88.48,53.08667 132.72,79.63 C 420.48,282.92 376.24,309.46 332,336 Z M 87.66,200.5 c 22.84193,-6.11686 26.02319,-36.81943 17.29438,-55.315 C 96.51196,127.07194 75.164635,131.52743 58.934944,130.99 49.777763,128.40337 48.805124,134.00128 50,141.7667 c 0,20.07444 0,40.14887 0,60.2233 12.532409,-0.42917 25.342805,1.14705 37.66,-1.49 z M 60,193 c 0,-17.66667 0,-35.33333 0,-53 12.279886,1.14261 28.508433,-4.39998 35.98,8.61 7.78961,15.3865 4.81039,44.84817 -17.45375,44.32391 C 72.356642,193.0767 66.15464,192.99234 60,193 Z m 72.53,-21.2 c -27.05606,-3.34614 -24.43431,38.84672 2.305,30.35375 8.14511,-0.47184 14.9065,-11.59806 16.77267,-0.15375 15.20618,3.62269 1.11958,-16.40362 5.38233,-25.34301 2.08738,-13.51432 -2.81839,-30.59736 -20.01,-27.78699 -10.17432,-5.04762 -33.59122,16.43441 -15.71511,16.83652 1.40139,-15.9899 36.22924,-9.59228 23.95652,3.9291 -4.16678,1.04684 -8.44894,1.63161 -12.69141,2.16438 z m 15.6,7.2 c 6.35986,22.7448 -39.67853,19.75777 -21.9,1.65 5.62559,0.48009 22.5305,-8.82874 21.9,-1.65 z m 18.87,7.37 c -8.17652,14.529 23.20038,23.50589 16.56,7.24 -13.3846,2.78717 -7.13409,-14.07698 -8.56,-21.86739 1.31691,-5.39341 -3.849,-17.26964 5.38835,-14.74261 7.53428,0.7729 3.78379,-12.6481 -3.93204,-8 -4.02161,-1.94449 0.73828,-14.72527 -2.35884,-16.3111 -7.99716,2.38738 -7.66664,9.28462 -7.09747,16.3111 -7.66558,-4.51789 -12.0635,7.883 -4.76699,8 8.73743,-2.1193 3.24318,9.99307 4.76699,15.08739 0,4.76087 0,9.52174 0,14.28261 z" />
</svg>
