<?xml version="1.0" encoding="UTF-8" standalone="no"?>
<svg
   xmlns:dc="http://purl.org/dc/elements/1.1/"
   xmlns:cc="http://creativecommons.org/ns#"
   xmlns:rdf="http://www.w3.org/1999/02/22-rdf-syntax-ns#"
   xmlns:svg="http://www.w3.org/2000/svg"
   xmlns="http://www.w3.org/2000/svg"
   xmlns:sodipodi="http://sodipodi.sourceforge.net/DTD/sodipodi-0.dtd"
   xmlns:inkscape="http://www.inkscape.org/namespaces/inkscape"
   width="512"
   height="512"
   viewBox="0 0 512 512"
   version="1.1"
   id="svg6"
   sodipodi:docname="4x blue cat6.svg"
   inkscape:version="0.92.1 r15371">
  <metadata
     id="metadata12">
    <rdf:RDF>
      <cc:Work
         rdf:about="">
        <dc:format>image/svg+xml</dc:format>
        <dc:type
           rdf:resource="http://purl.org/dc/dcmitype/StillImage" />
      </cc:Work>
    </rdf:RDF>
  </metadata>
  <defs
     id="defs10" />
  <sodipodi:namedview
     pagecolor="#ffffff"
     bordercolor="#666666"
     borderopacity="1"
     objecttolerance="10"
     gridtolerance="10"
     guidetolerance="10"
     inkscape:pageopacity="0"
     inkscape:pageshadow="2"
     inkscape:window-width="640"
     inkscape:window-height="493"
     id="namedview8"
     showgrid="false"
     inkscape:zoom="0.4609375"
     inkscape:cx="256"
     inkscape:cy="256"
     inkscape:window-x="0"
     inkscape:window-y="0"
     inkscape:window-maximized="0"
     inkscape:current-layer="svg6" />
  <path
     id="path4"
     d="m 249.1,230.72 c -7.09489,-10.74954 6.0064,-32.89201 -11.45,-36.1275 -8.40302,-5.25555 -29.94619,10.88707 -14.74,11.8975 2.42475,-17.98557 31.86412,3.06346 10.87516,3.79766 -20.59301,-5.00802 -23.9538,27.66552 -1.87266,22.25109 9.49822,-9.01219 13.20156,3.54616 21.9623,-0.6135 4.81507,-17.32508 9.63013,-34.65017 14.4452,-51.97525 -8.26899,-2.16079 -6.19173,9.31913 -9.01442,14.33884 C 255.90187,206.43193 252.51285,218.58001 249.1,230.72 Z M 242,216 c 3.72516,18.17219 -32.53978,11.4516 -13.9525,0.50125 C 231.22359,217.9629 243.17744,210.32453 242,216 Z M 85.17,268.56 C 75.097374,262.81469 63.068518,265.71624 52,265 c 0,17.33333 0,34.66667 0,52 9.485952,2.87708 5.017874,-8.19987 6,-13.82661 C 54.914202,293.44212 64.374516,296.25696 70.763028,296 87.103782,299.20544 98.325413,279.78398 85.17,268.56 Z m -4.06,18.96 C 75.550378,289.64109 61.004743,292.66244 58,287.87283 59.579529,282.7433 54.127947,270.58266 62.254343,272 72.636469,271.42564 91.474775,271.21676 81.11,287.52 Z m 37.69,-7.02 c -11.64353,-4.81468 -21.018841,9.50712 -17.8,-8.22944 4.2866,-8.27442 -9.65512,-10.90225 -7,-1.95263 0,15.56069 0,31.12138 0,46.68207 9.68863,3.10095 6.651,-6.52435 7,-12.76303 -5.688399,-13.66871 14.68013,-30.83757 17,-9.92338 0,7.56213 0,15.12427 0,22.68641 9.48595,2.87708 5.01787,-8.19987 6,-13.82661 -0.72003,-7.52233 2.55065,-18.00779 -5.2,-22.67339 z m 25.93,-1.6 c -23.10156,-1.35633 -23.12094,39.95015 0,38.54 23.26516,1.17417 23.04533,-39.76193 0,-38.54 z m 7.74,29.87 c -15.84337,14.91705 -27.7827,-20.15919 -9.98641,-24.46219 13.51241,-2.60272 16.23678,16.32332 9.98641,24.46219 z m 40.33,-25.54 c -9.09508,-12.23478 -21.56546,6.06946 -23.92717,-3.23 -6.16106,0.46901 -1.34888,11.91125 -2.87283,17.01737 0,6.66088 0,13.32175 0,19.98263 8.87395,2.24388 3.58267,-9.67747 5,-14.8902 -6.2242,-14.80961 19.04025,-26.56501 18,-6.85621 0,7.2488 0,14.49761 0,21.74641 9.48595,2.87708 5.01787,-8.19987 6,-13.82661 -0.48613,-6.6177 1.46635,-14.00413 -2.2,-19.94339 z m 22.84,-4.33 c -26.70369,-0.49651 -20.1168,47.60426 6.1975,37.76 14.49822,-2.30359 8.10574,-21.16311 0.0625,-6.16 -12.84668,9.12671 -24.81705,-16.25989 -6.39414,-10.5 5.99189,-1.53536 20.0102,4.39898 16.61992,-6.10438 C 231.36714,285.55682 224.17595,278.49171 215.64,278.9 Z M 205.22,295 c -2.60166,-18.87367 29.26906,-7.47263 17.40924,0 -5.80308,0 -11.60616,0 -17.40924,0 z M 489.47,248.24 C 428.53,211.68 367.59,175.12 306.65,138.56 c -13.18672,-6.08141 -16.28067,9.98728 -14.65,19.45944 0,69.22019 0,138.44037 0,207.66056 2.20395,14.20038 17.27397,7.68638 24.56369,1.73319 58.17033,-35.11385 116.79224,-69.57292 174.68022,-105.09616 4.08073,-3.9517 3.14691,-11.26276 -1.77391,-14.07703 z M 310,349.7 c 0,-62.46667 0,-124.93333 0,-187.4 52.05333,31.23333 104.10667,62.46667 156.16,93.7 C 414.10667,287.23333 362.05333,318.46667 310,349.7 Z M 53,214 c -9.485952,2.87708 -5.017874,-8.19987 -6,-13.82661 0,-6.39113 0,-12.78226 0,-19.17339 -7.704613,-2.3028 -9.436861,6.89619 -13.653996,11.3097 C 28.46329,200.01127 21.8523,207.16595 18,215.19359 c -2.144864,8.7104 9.79911,3.33196 14.8902,4.80641 9.333078,-2.96314 7.026488,5.71338 7.1098,12 9.3127,2.97937 6.857179,-5.80949 7,-12 6.146465,0.46903 6.558424,0.49283 6,-6 z m -13,0 C 35.796317,212.69977 20.547565,217.18776 26.621057,210.50173 31.080704,204.05782 35.540352,197.61391 40,191.17 c 0,7.61 0,15.22 0,22.83 z m 36.17,18 c 3.612812,-3.19856 7.2831,-15.43499 10.858469,-12.74596 4.236856,4.20392 5.509341,13.99299 12.685874,12.74596 7.542737,0.56303 -4.659882,-9.13986 -5.738451,-13.05919 -7.217046,-5.40155 -2.008001,-10.67458 2.341089,-15.9565 6.109809,-5.37913 6.362569,-11.01934 -2.231533,-7.11624 -4.924425,7.74222 -9.444919,15.59566 -13.906232,3.38135 -1.411485,-6.79934 -15.987866,-5.68672 -6.915515,0.97562 1.910267,5.34353 11.98885,10.68368 6.356715,16.03034 C 75.946944,221.50359 72.273472,226.75179 68.6,232 c 2.523333,0 5.046667,0 7.57,0 z m 78.43,-46.5 c -10.01563,-7.24295 -23.07035,-3.61142 -34.6,-4.5 0,17 0,34 0,51 13.71156,-0.89484 32.45691,4.1775 39.71125,-11.31375 4.71158,-11.1038 4.42283,-26.66517 -5.11125,-35.18625 z m -0.28,30.52 c -2.47454,11.91639 -19.97969,11.19682 -27.32,8.91641 0,-12.31213 0,-24.62427 0,-36.93641 10.35407,0.19467 25.86336,-2.64588 28.00625,11.3025 0.99574,5.49121 0.97945,11.38663 -0.68625,16.7175 z m 24.98,-5.22 c -22.28618,-1.89316 -14.57008,31.25581 4.98,20.89 7.60269,-8.2704 6.03775,2.69746 14.47,0.32 -6.11548,-11.06393 4.75689,-29.50832 -8.55,-36.57 -8.47194,-7.19938 -34.30992,8.75648 -18.25,11.07 5.91065,-19.40663 34.26398,5.50743 7.35,4.29 z m 10,11.37 c -6.67163,15.6697 -29.3046,-3.65928 -9.29,-6.26 8.66838,-1.48973 12.29427,-4.91144 9.29,6.26 z M 203,221 c -6.09197,14.84829 23.01817,11.95125 10.15,5.69 -6.17484,-3.92448 -1.8652,-15.01832 -3.16,-22.12737 -0.7876,-4.10705 12.86392,-6.36256 2.80924,-9.56263 -7.38407,1.6734 2.0394,-17.47077 -6.55936,-10.72101 -5.94164,2.91896 -1.40693,11.87938 -7.24988,12.84818 1.70515,4.81894 6.02921,7.01897 4,15.57227 0.006,2.76365 -0.013,5.55353 0.01,8.30056 z" />
</svg>
