<?xml version="1.0" encoding="UTF-8" standalone="no"?>
<svg
   xmlns:dc="http://purl.org/dc/elements/1.1/"
   xmlns:cc="http://creativecommons.org/ns#"
   xmlns:rdf="http://www.w3.org/1999/02/22-rdf-syntax-ns#"
   xmlns:svg="http://www.w3.org/2000/svg"
   xmlns="http://www.w3.org/2000/svg"
   xmlns:sodipodi="http://sodipodi.sourceforge.net/DTD/sodipodi-0.dtd"
   xmlns:inkscape="http://www.inkscape.org/namespaces/inkscape"
   width="512"
   height="512"
   viewBox="0 0 512 512"
   version="1.1"
   id="svg4"
   sodipodi:docname="black RG6.svg"
   inkscape:version="0.92.1 r15371">
  <metadata
     id="metadata10">
    <rdf:RDF>
      <cc:Work
         rdf:about="">
        <dc:format>image/svg+xml</dc:format>
        <dc:type
           rdf:resource="http://purl.org/dc/dcmitype/StillImage" />
      </cc:Work>
    </rdf:RDF>
  </metadata>
  <defs
     id="defs8" />
  <sodipodi:namedview
     pagecolor="#ffffff"
     bordercolor="#666666"
     borderopacity="1"
     objecttolerance="10"
     gridtolerance="10"
     guidetolerance="10"
     inkscape:pageopacity="0"
     inkscape:pageshadow="2"
     inkscape:window-width="638"
     inkscape:window-height="493"
     id="namedview6"
     showgrid="false"
     inkscape:zoom="0.4609375"
     inkscape:cx="256"
     inkscape:cy="256"
     inkscape:window-x="0"
     inkscape:window-y="0"
     inkscape:window-maximized="0"
     inkscape:current-layer="svg4" />
  <path
     id="path2"
     d="m 417.42,458.2 c -5.17526,-1.81173 -20.84775,-3.72026 -7.08948,-0.492 1.27451,-0.37328 8.24608,3.13819 7.08948,0.492 z M 169.58,399.73 c -9.48337,-7.01224 -11.93473,6.27754 -14.19381,12.88365 -4.20431,13.13213 -10.50389,26.12767 -13.41619,39.34635 11.12985,5.10753 6.54325,-13.55891 13.89212,-13.95 6.64195,1.73666 18.47822,-3.85033 21.10882,3.54209 -1.88491,7.74215 12.51013,17.16515 9.79898,5.76463 C 181.03994,431.45448 175.30997,415.59224 169.58,399.73 Z M 155.16,432 c 3.11444,-8.65092 6.14018,-17.42759 9.31,-26 3.13333,8.66667 6.26667,17.33333 9.4,26 -6.23667,0 -12.47333,0 -18.71,0 z m 68.09,-14.88 c -24.35505,-23.28169 -46.11183,30.16339 -16.1625,35.54625 10.18364,6.7868 29.1342,-12.43845 9.7525,-5.68625 -19.05427,4.01635 -21.59554,-19.7659 -1.97731,-13 13.38677,2.56914 15.72785,-5.40143 8.38731,-16.86 z M 199.82,429 c -3.09408,-22.82256 33.04557,-3.84787 15.40577,0 -5.13526,0 -10.27051,0 -15.40577,0 z m 58.88,-15.14 c -10.49033,-6.2097 -13.94199,9.20346 -18.65,-1.37 -6.83908,1.91236 -1.25015,14.10411 -3.06,20.05587 1.87665,5.91786 -3.99448,18.45217 3.36,19.92413 7.76029,-1.33374 1.74674,-14.05449 3.64,-20.05587 -4.38844,-13.90806 14.62945,-9.86206 14.79,-17.40519 0.0851,-0.37675 -0.27367,-0.80651 -0.08,-1.14894 z m 10.78,-16.79 c -15.83838,9.329 15.11833,8.54166 0,0 z m 3.79,16.16 c -11.12552,-4.8273 -6.33116,9.56488 -7.28,15.54269 0.49698,7.67138 -0.97501,16.18208 0.7,23.35731 11.39667,3.33093 6.17345,-10.86954 7.3,-17.23375 -0.48624,-7.05429 0.96793,-15.28124 -0.72,-21.66625 z M 313,426 c 6.44497,-20.54164 -36.87714,-14.3977 -25.84,-5.27 12.07183,-14.01783 30.90174,13.42932 9.88625,8.50875 -29.4044,1.88369 -4.14888,36.82953 9.97375,19.49231 4.82502,11.1428 7.84388,-5.4528 6,-11.2627 C 313.0066,433.65268 313.0467,429.78224 313,426 Z m -6,16.07 c -11.43318,17.154 -28.14656,-10.16696 -5.27894,-8.07 7.99518,-1.5806 4.60104,2.46171 5.27894,8.07 z m 25,-46.41 c -9.33095,-6.11245 -5.22023,8.40715 -6,13.78164 0.0273,14.16914 -0.0498,28.87077 0.03,42.71836 10.48925,2.87115 4.35344,-11.54611 5.97,-17.23375 0,-13.08875 0,-26.1775 0,-39.26625 z m 32.6,38.19 c -10.00753,-1.56568 -25.17023,-17.90285 -5.61,-16.17 19.96714,4.55203 -13.03348,-17.39959 -16.14,1.07 -8.96431,14.90254 33.89498,20.19784 10.16,28.72 -7.35991,-6.07317 -18.33112,-1.75511 -7.17,4.37 11.48351,5.26723 29.06699,-5.47425 18.76,-17.99 z m -164.63,-74.8 c 22.02185,-5.75282 1.95516,-26.7175 -13.29469,-23.18469 -11.09137,-6.45923 -46.23411,-4.00956 -38.71705,-21.76342 11.08391,-34.08397 22.16783,-68.16793 33.25174,-102.25189 28.14453,-2.98975 21.23614,-49.55405 -6.91725,-43.66777 -23.29771,3.21411 -17.7972,28.45393 -13.92029,41.92671 C 149.18164,244.52262 137.99082,278.93631 126.8,313.35 72.749208,284.89139 36.849322,225.46336 38.657651,164.18282 38.481943,129.00345 50.27508,95.218652 64.413281,63.572656 55.012577,36.716849 36.418099,69.632305 34.070234,83.741035 9.0449169,146.08397 12.675773,221.92153 54.062795,276.56554 88.199858,323.33321 143.66718,350.48781 199.97,359.05 Z M 483.56,224 c -11.85333,0 -23.70667,0 -35.56,0 -0.49291,-20.53059 1.00059,-41.25304 -0.77219,-61.66 -13.34827,-17.30399 -22.68595,6.31717 -19.22781,18.98269 0,14.22577 0,28.45154 0,42.67731 -8.33333,0 -16.66667,0 -25,0 -0.41868,-12.97161 0.89694,-26.11068 -0.77219,-38.96156 -13.33807,-17.31679 -22.68928,6.30805 -19.22781,18.97425 -1.82755,6.08595 4.05902,19.88601 -3.75317,19.98731 -6.45212,-1.46419 -18.88923,3.0566 -21.24683,-2.50212 0,-25.96596 0,-51.93192 0,-77.89788 -7.34857,-22.52442 -26.64783,-1.42489 -21,13.76164 0,22.21278 0,44.42557 0,66.63836 -8,0 -16,0 -24,0 -0.54242,-20.52584 1.10134,-41.28375 -0.85031,-61.66 C 298.57,145.10993 288.33306,168.20639 292,181.31269 c 0,14.22911 0,28.45821 0,42.68731 -8.66667,0 -17.33333,0 -26,0 0,-34.36667 0,-68.73333 0,-103.1 -7.09873,-22.647924 -25.49601,-1.00684 -20,13.77164 0,71.06612 0,142.13224 0,213.19836 7.07865,22.66409 25.50215,1.02485 20,-13.76164 0,-30.03612 0,-60.07224 0,-90.10836 8.66667,0 17.33333,0 26,0 0.52338,20.78506 -1.07481,41.79524 0.85031,62.43156 13.57496,17.24566 23.81735,-5.86709 20.14969,-18.97425 0,-14.48577 0,-28.97154 0,-43.45731 8,0 16,0 24,0 0,27.05667 0,54.11333 0,81.17 7.33945,22.54451 26.65012,1.43196 21,-13.76164 0,-22.46945 0,-44.93891 0,-67.40836 8.33333,0 16.66667,0 25,0 0.43838,13.22971 -0.92535,26.63342 0.77219,39.74156 13.33807,17.31679 22.68928,-6.30805 19.22781,-18.97425 1.5377,-6.21878 -3.16518,-18.67813 2.50212,-20.76731 7.09721,0.8191 17.48086,-1.64824 22.49788,1.25106 0.47423,20.37256 -0.97461,40.93081 0.77219,61.1805 13.33807,17.31679 22.68928,-6.30805 19.22781,-18.97425 0,-14.48577 0,-28.97154 0,-43.45731 13.15567,-0.44578 26.48778,0.93601 39.52156,-0.77219 C 497.68795,239.49841 494.33977,223.4785 483.56,224 Z" />
</svg>
