<?xml version="1.0" encoding="UTF-8" standalone="no"?>
<svg
   xmlns:dc="http://purl.org/dc/elements/1.1/"
   xmlns:cc="http://creativecommons.org/ns#"
   xmlns:rdf="http://www.w3.org/1999/02/22-rdf-syntax-ns#"
   xmlns:svg="http://www.w3.org/2000/svg"
   xmlns="http://www.w3.org/2000/svg"
   xmlns:sodipodi="http://sodipodi.sourceforge.net/DTD/sodipodi-0.dtd"
   xmlns:inkscape="http://www.inkscape.org/namespaces/inkscape"
   width="512"
   height="512"
   viewBox="0 0 512 512"
   version="1.1"
   id="svg4"
   sodipodi:docname="blue cat6 to AV hub.svg"
   inkscape:version="0.92.1 r15371">
  <metadata
     id="metadata10">
    <rdf:RDF>
      <cc:Work
         rdf:about="">
        <dc:format>image/svg+xml</dc:format>
        <dc:type
           rdf:resource="http://purl.org/dc/dcmitype/StillImage" />
      </cc:Work>
    </rdf:RDF>
  </metadata>
  <defs
     id="defs8" />
  <sodipodi:namedview
     pagecolor="#ffffff"
     bordercolor="#666666"
     borderopacity="1"
     objecttolerance="10"
     gridtolerance="10"
     guidetolerance="10"
     inkscape:pageopacity="0"
     inkscape:pageshadow="2"
     inkscape:window-width="638"
     inkscape:window-height="493"
     id="namedview6"
     showgrid="false"
     inkscape:zoom="0.4609375"
     inkscape:cx="256"
     inkscape:cy="256"
     inkscape:window-x="0"
     inkscape:window-y="0"
     inkscape:window-maximized="0"
     inkscape:current-layer="svg4" />
  <path
     id="path2"
     d="M 72.66,262.07 C 69.639631,277.34651 66.308514,253.26707 62.744313,247.1171 60.098574,241.79902 59.457764,233.64359 55.628793,230 43.085862,230 30.542931,230 18,230 c -2.856977,9.41221 8.050285,5.06018 13.665695,6 0.780632,11.99747 0.110984,25.44522 0.334305,38 9.412209,2.85698 5.060178,-8.05028 6,-13.66569 0,-8.11144 0,-16.22287 0,-24.33431 5.736522,1.19658 15.4861,-3.49524 16.322042,4.892 4.335986,11.036 8.671972,22.072 13.007958,33.108 8.340829,2.64862 7.883437,-7.56136 10.870286,-12.73758 C 82.250191,250.84161 86.300095,240.42081 90.35,230 81.970295,227.33685 82.62737,237.62783 79.731071,242.82509 77.378616,249.23684 74.990005,255.67392 72.66,262.07 Z m 58.78,-5.37 c -6.94385,-2.70216 15.13792,-6.99626 8.3675,-17.5075 -4.87059,-13.31457 -20.97427,-8.13421 -31.91682,-9.1925 -6.16726,0.40274 -1.37942,11.76058 -2.89068,16.81932 0,9.06022 0,18.12045 0,27.18068 9.41221,2.85698 5.06018,-8.05028 6,-13.66569 -1.68838,-12.25354 19.82965,-2.74309 20.35115,5.6582 0.64962,5.7979 11.27455,11.77813 11.31359,6.25439 C 139.03151,266.99467 136.094,261.07345 131.44,256.7 Z m -7.9,-6.7 c -6.53937,-0.0934 -15.56412,2.29848 -12.54,-7.35845 -2.99221,-9.39382 4.88498,-7.91824 11.56328,-7.64155 14.12419,-2.68628 16.21838,16.69385 0.97672,15 z M 158,242.04 c -24.44588,-0.0481 -15.46987,43.5901 7.47625,31.53125 12.25965,-6.83124 1.50403,-14.46403 -4.39125,-3.28625 -14.56324,1.48153 -15.00648,-15.29976 -0.72172,-10.295 14.68268,5.16264 15.50485,-11.02426 3.41797,-16.87125 C 162.14962,243.165 159.76114,241.14727 158,242.04 Z M 149.1,256 c 2.37075,-21.74834 29.99468,4.29955 7.14793,0 -2.38265,0 -4.76529,0 -7.14793,0 z m 35.6,13.8 c -5.40235,-4.05207 -1.49256,-14.40891 -2.69,-21.19932 4.89218,-1.7329 6.92376,-5.4794 0,-6.65189 2.40154,-7.76819 -2.66412,-13.66847 -6,-4.92638 1.90815,7.15616 -9.12977,7.97597 0,11.0288 0.59324,8.21671 -1.47467,17.09714 1.75,24.75004 4.60943,5.75723 15.86678,-1.11218 6.94,-3.00125 z M 222,260 c -0.0211,18.479 -21.10284,8.07219 -15,-6.00724 2.02913,-5.85889 -1.65032,-16.24158 -6,-8.89035 1.13492,9.62695 -3.63148,23.0111 6.38,28.92759 9.46812,4.5676 14.38034,-7.15168 17.72241,-0.03 4.28225,-2.30712 0.73934,-12.43941 1.89759,-17.87052 -0.10345,-4.8911 1.84112,-17.4038 -5,-12.07827 0,5.31626 0,10.63253 0,15.94879 z m 50.8,-14.24 c -8.26494,-10.13172 -18.13405,4.74252 -20.90241,-2.76 -5.37391,-1.79757 -15.40921,1.33247 -14.89759,2.45759 -3.61702,-8.1915 -6.74932,3.90635 -5,9.10569 0,6.47891 0,12.95781 0,19.43672 9.41221,2.85698 5.06018,-8.05028 6,-13.66569 -5.01312,-10.10562 13.66839,-18.24364 11,-11.24948 0,8.30506 0,16.61011 0,24.91517 8.81924,2.24694 3.6166,-9.528 5,-14.7169 -3.18142,-16.88828 21.31208,-14.8465 16,1.12294 0.15297,4.97449 -1.88551,17.8107 5,12.54275 -0.70896,-8.96774 1.79786,-18.95929 -2.2,-27.18879 z m 216.6,2.92 C 431.20446,214.00001 373.3733,178.61102 314.95016,144.37391 c -12.68137,-2.30772 -11.20987,12.61936 -10.96016,20.83058 0.20486,65.47091 -0.40995,130.99767 0.30781,196.43364 4.61221,11.9905 16.61334,3.0175 23.52913,-1.39805 54.38037,-32.8491 109.19511,-65.07034 163.30415,-98.31164 C 494.95984,258.1936 494.04101,251.24322 489.4,248.68 Z M 321,344.33 c 0,-58.88667 0,-117.77333 0,-176.66 49.08,29.44333 98.16,58.88667 147.24,88.33 -49.08,29.44333 -98.16,58.88667 -147.24,88.33 z" />
</svg>
