<?xml version="1.0" encoding="UTF-8" standalone="no"?>
<svg
   xmlns:dc="http://purl.org/dc/elements/1.1/"
   xmlns:cc="http://creativecommons.org/ns#"
   xmlns:rdf="http://www.w3.org/1999/02/22-rdf-syntax-ns#"
   xmlns:svg="http://www.w3.org/2000/svg"
   xmlns="http://www.w3.org/2000/svg"
   xmlns:sodipodi="http://sodipodi.sourceforge.net/DTD/sodipodi-0.dtd"
   xmlns:inkscape="http://www.inkscape.org/namespaces/inkscape"
   width="512"
   height="512"
   viewBox="0 0 512 512"
   version="1.1"
   id="svg4"
   sodipodi:docname="draw wire.svg"
   inkscape:version="0.92.1 r15371">
  <metadata
     id="metadata10">
    <rdf:RDF>
      <cc:Work
         rdf:about="">
        <dc:format>image/svg+xml</dc:format>
        <dc:type
           rdf:resource="http://purl.org/dc/dcmitype/StillImage" />
      </cc:Work>
    </rdf:RDF>
  </metadata>
  <defs
     id="defs8" />
  <sodipodi:namedview
     pagecolor="#ffffff"
     bordercolor="#666666"
     borderopacity="1"
     objecttolerance="10"
     gridtolerance="10"
     guidetolerance="10"
     inkscape:pageopacity="0"
     inkscape:pageshadow="2"
     inkscape:window-width="638"
     inkscape:window-height="493"
     id="namedview6"
     showgrid="false"
     inkscape:zoom="0.4609375"
     inkscape:cx="256"
     inkscape:cy="256"
     inkscape:window-x="0"
     inkscape:window-y="0"
     inkscape:window-maximized="0"
     inkscape:current-layer="svg4" />
  <path
     id="path2"
     d="m 19,276 c 10.189233,3.32969 6.393333,-7.32575 7,-13.57863 C 26.08247,255.38976 23.550093,245.74331 33.920866,249 40.223129,248.23203 49.590121,250.5288 54,247.86845 56.152285,238.81277 43.422684,244.63898 38.158268,243 30.25288,243.83516 23.058708,243.9591 26,233.94758 23.506431,224.36631 28.71598,222.48816 37.315523,224 44.543682,224 51.771841,224 59,224 62.32969,213.81077 51.674248,217.60667 45.421373,217 36.614248,217 27.807124,217 19,217 m 45,0 c 8.578772,-4.9133 10.377546,11.25164 2.473791,9 C 61.50516,227.5598 65.0765,219.45292 64,217 Z m 0,17 c 10.189233,-3.32969 6.393333,7.32575 7,13.57863 0,9.47379 0,18.94758 0,28.42137 -10.189233,3.32969 -6.393333,-7.32575 -7,-13.57863 0,-9.47379 0,-18.94758 0,-28.42137 z m 46.64,4.54 C 100.28406,221.94529 79.667383,248.66042 85,225.78292 c 4.546512,-7.91578 -8.151149,-13.69263 -7,-4.25671 0,18.15793 0,36.31586 0,54.47379 10.79998,0.95892 4.386954,-7.07435 15.029688,1.53844 C 114.47882,281.89672 121.53751,252.18175 110.64,238.54 Z m -6.14,29.12 C 86.389,284.5852 74.915143,243.73165 94.108437,238.7125 109.37867,236.20776 111.1284,258.74724 104.5,267.66 Z m 38.73,-32.92 c -11.88426,-8.73001 -17.28034,10.33493 -20.5031,-0.74 -8.94031,-2.08076 -3.06116,10.65793 -4.7369,15.84173 0,8.71942 0,17.43885 0,26.15827 10.145,2.99598 9.71369,-4.58436 9,-12.44708 -1.85987,-11.8742 2.43214,-26.83251 14.46124,-24.0732 0.59587,-1.57547 1.17183,-3.18023 1.77876,-4.73972 z m 17.33,-2.38 c -26.00202,-1.32728 -27.78565,44.57667 -1.91063,45.49768 9.59631,5.1834 31.28389,-15.8427 13.86063,-14.94768 -3.49668,24.3424 -39.06862,-6.09443 -16.74913,-4.9 8.20304,0 16.40609,0 24.60913,0 1.40111,-12.15828 -6.04254,-26.20443 -19.81,-25.65 z M 148,251 c -2.429,-20.84544 33.65168,-9.7142 21.20534,0 -7.06844,0 -14.13689,0 -21.20534,0 z m 339.4,-5.1 C 408.14333,198.36 328.88667,150.82 249.63,103.28 c -15.35839,-7.584232 -20.8968,10.84169 -18.65,22.53708 0,90.93764 0,181.87528 0,272.81292 1.93384,16.93956 20.35797,11.36454 29.22447,3.68801 C 335.91298,356.91201 411.62149,311.506 487.33,266.1 c 7.58009,-4.15239 7.52332,-16.07744 0.07,-20.2 z M 254,377.83 c 0,-81.22 0,-162.44 0,-243.66 C 321.69,174.78 389.38,215.39 457.07,256 389.38,296.61 321.69,337.22 254,377.83 Z" />
</svg>
