<?xml version="1.0" encoding="UTF-8" standalone="no"?>
<svg
   xmlns:dc="http://purl.org/dc/elements/1.1/"
   xmlns:cc="http://creativecommons.org/ns#"
   xmlns:rdf="http://www.w3.org/1999/02/22-rdf-syntax-ns#"
   xmlns:svg="http://www.w3.org/2000/svg"
   xmlns="http://www.w3.org/2000/svg"
   xmlns:sodipodi="http://sodipodi.sourceforge.net/DTD/sodipodi-0.dtd"
   xmlns:inkscape="http://www.inkscape.org/namespaces/inkscape"
   width="512"
   height="512"
   viewBox="0 0 512 512"
   version="1.1"
   id="svg4"
   sodipodi:docname="four pole one way.svg"
   inkscape:version="0.92.1 r15371">
  <metadata
     id="metadata10">
    <rdf:RDF>
      <cc:Work
         rdf:about="">
        <dc:format>image/svg+xml</dc:format>
        <dc:type
           rdf:resource="http://purl.org/dc/dcmitype/StillImage" />
      </cc:Work>
    </rdf:RDF>
  </metadata>
  <defs
     id="defs8" />
  <sodipodi:namedview
     pagecolor="#ffffff"
     bordercolor="#666666"
     borderopacity="1"
     objecttolerance="10"
     gridtolerance="10"
     guidetolerance="10"
     inkscape:pageopacity="0"
     inkscape:pageshadow="2"
     inkscape:window-width="640"
     inkscape:window-height="493"
     id="namedview6"
     showgrid="false"
     inkscape:zoom="0.4609375"
     inkscape:cx="256"
     inkscape:cy="256"
     inkscape:window-x="0"
     inkscape:window-y="0"
     inkscape:window-maximized="0"
     inkscape:current-layer="svg4" />
  <path
     id="path2"
     d="M 490.12,157.77 C 456.37644,125.91815 423.12409,93.495279 389.07299,62.000937 375.25569,54.206171 366.69004,70.713635 358.00935,78.54099 295.10793,144.65319 232.15759,210.715 169.27,276.84 133.49123,250.50633 79.841881,254.13292 47.922628,285.02584 27.522971,303.8534 15.762574,332.1894 17.681612,359.7146 c 0.345054,47.55068 41.941351,89.67388 89.241968,91.90753 44.96946,4.07148 89.59394,-28.18966 99.99332,-72.13082 7.57846,-28.53721 0.80819,-60.28198 -17.4669,-83.43131 11.43333,-12.01667 22.86667,-24.03333 34.3,-36.05 30.35447,28.63681 60.25358,57.80071 90.89234,86.10844 16.5109,10.53237 30.13502,-16.64137 13.45912,-25.24277 C 299.71431,293.87045 271.32715,266.86522 242.94,239.86 c 11.21,-11.77667 22.42,-23.55333 33.63,-35.33 30.34353,28.64383 60.23928,57.80475 90.86234,86.12578 16.51434,10.5595 30.15953,-16.63829 13.45991,-25.24094 C 352.5115,238.40323 324.13075,211.39161 295.75,184.38 c 11.21,-11.77667 22.42,-23.55333 33.63,-35.33 30.33785,28.644 60.2201,57.81491 90.84234,86.13 16.50918,10.55125 30.1485,-16.64866 13.46049,-25.24577 C 405.30855,182.91949 376.93428,155.90474 348.56,128.89 c 11.2,-11.76667 22.4,-23.53333 33.6,-35.3 30.35934,28.63827 60.25142,57.81863 90.9025,86.11844 14.06305,8.91889 29.03562,-10.49238 17.0575,-21.93844 z m -308.1,201.75 c -1.24293,35.72805 -34.36702,66.25337 -70.09927,64.43081 C 75.640903,424.04387 42.128446,390.19443 45.97,353.49 c -1.731103,-37.22898 34.53869,-69.28778 71.07709,-66.41905 35.4021,0.89621 65.92737,33.15401 65.02291,68.52905 0.0259,1.2524 -0.16532,2.75913 -0.05,3.92 z" />
</svg>
