<?xml version="1.0" encoding="UTF-8" standalone="no"?>
<svg
   xmlns:dc="http://purl.org/dc/elements/1.1/"
   xmlns:cc="http://creativecommons.org/ns#"
   xmlns:rdf="http://www.w3.org/1999/02/22-rdf-syntax-ns#"
   xmlns:svg="http://www.w3.org/2000/svg"
   xmlns="http://www.w3.org/2000/svg"
   xmlns:sodipodi="http://sodipodi.sourceforge.net/DTD/sodipodi-0.dtd"
   xmlns:inkscape="http://www.inkscape.org/namespaces/inkscape"
   width="512"
   height="512"
   viewBox="0 0 512 512"
   version="1.1"
   id="svg4"
   sodipodi:docname="indicates key switch.svg"
   inkscape:version="0.92.1 r15371">
  <metadata
     id="metadata10">
    <rdf:RDF>
      <cc:Work
         rdf:about="">
        <dc:format>image/svg+xml</dc:format>
        <dc:type
           rdf:resource="http://purl.org/dc/dcmitype/StillImage" />
      </cc:Work>
    </rdf:RDF>
  </metadata>
  <defs
     id="defs8" />
  <sodipodi:namedview
     pagecolor="#ffffff"
     bordercolor="#666666"
     borderopacity="1"
     objecttolerance="10"
     gridtolerance="10"
     guidetolerance="10"
     inkscape:pageopacity="0"
     inkscape:pageshadow="2"
     inkscape:window-width="638"
     inkscape:window-height="493"
     id="namedview6"
     showgrid="false"
     inkscape:zoom="0.4609375"
     inkscape:cx="256"
     inkscape:cy="256"
     inkscape:window-x="0"
     inkscape:window-y="0"
     inkscape:window-maximized="0"
     inkscape:current-layer="svg4" />
  <path
     id="path2"
     d="m 492.53,188.67 c -23.89299,-27.10071 -47.01463,-55.09987 -71.38,-81.65 -8.84518,-5.8375 -15.27751,6.07024 -21.08317,11.30724 C 350.57859,170.12495 301.13803,222.66788 251.62,274 223.47069,252.66289 180.24217,256.22206 156.11753,282.07521 142.33992,295.97857 134.3876,316.21303 135.69,335.44 c -0.46128,37.09653 32.54072,69.99578 69.4,70.9 13.34767,1.15032 27.64101,-2.94073 39.58,-9.44 30.98259,-16.83577 45.6729,-57.53036 32.18873,-90.09057 -2.7778,-7.12609 -6.61242,-13.86058 -11.47873,-19.76943 50.18667,-52.73333 100.37333,-105.46667 150.56,-158.2 20.84,24.02667 41.68,48.05333 62.52,72.08 7.8426,9.46438 22.33421,-3.29817 14.07,-12.25 z M 262.93,336.4 c -0.96697,30.36287 -30.94546,55.40776 -60.99172,50.91886 C 171.42156,384.56091 148.10489,352.50737 154.96,322.63 c 5.05256,-29.55638 37.33445,-50.21758 66.29,-42.42 25.23996,5.72798 43.4025,30.45618 41.68,56.19 z M 49.12,225.74 c 7.504972,-11.06938 16.566496,-21.22946 23.02125,-32.91234 -0.564734,-19.96158 -19.971149,-7.93477 -24.090584,3.4407 C 44.03711,201.91557 40.023555,207.56279 36.01,213.21 c -0.954417,-9.67236 2.403003,-20.54149 -2.815,-29.11 -15.239511,-9.98337 -17.769669,10.73348 -16.185,21.3073 0,23.0609 0,46.1218 0,69.1827 6.534893,20.63763 24.129659,1.38101 19,-12.43618 0.719729,-6.37637 -1.484536,-13.4761 1.17,-19.37382 6.506144,12.66168 12.145766,25.83142 19.2075,38.16734 16.305269,10.64761 18.514786,-12.54667 9.486852,-21.66358 C 60.28834,248.10339 54.712148,236.91595 49.12,225.74 Z m 51.18,-25.68 c 10.2473,1.94993 35.16622,14.74069 30.725,-6.91375 -11.92213,-12.50504 -38.136324,-18.14065 -49.439243,-1.55121 -11.666808,15.70919 -3.971315,39.21226 13.620084,46.63933 7.469059,5.72649 21.318059,9.05022 17.613849,21.41157 -6.267,14.35835 -44.584143,-15.25579 -34.355159,14.55094 13.692925,10.92142 39.466619,15.77249 49.384749,-2.60674 9.76637,-15.82904 1.65002,-37.22344 -14.97504,-44.39038 -7.44562,-5.70572 -21.341828,-9.19406 -17.64549,-21.53726 0.729353,-2.35124 2.218571,-5.37704 5.07125,-5.6025 z" />
</svg>
