<?xml version="1.0" encoding="UTF-8" standalone="no"?>
<svg
   xmlns:dc="http://purl.org/dc/elements/1.1/"
   xmlns:cc="http://creativecommons.org/ns#"
   xmlns:rdf="http://www.w3.org/1999/02/22-rdf-syntax-ns#"
   xmlns:svg="http://www.w3.org/2000/svg"
   xmlns="http://www.w3.org/2000/svg"
   xmlns:sodipodi="http://sodipodi.sourceforge.net/DTD/sodipodi-0.dtd"
   xmlns:inkscape="http://www.inkscape.org/namespaces/inkscape"
   width="512"
   height="512"
   viewBox="0 0 512 512"
   version="1.1"
   id="svg4"
   sodipodi:docname="intermediate one gang.svg"
   inkscape:version="0.92.1 r15371">
  <metadata
     id="metadata10">
    <rdf:RDF>
      <cc:Work
         rdf:about="">
        <dc:format>image/svg+xml</dc:format>
        <dc:type
           rdf:resource="http://purl.org/dc/dcmitype/StillImage" />
      </cc:Work>
    </rdf:RDF>
  </metadata>
  <defs
     id="defs8" />
  <sodipodi:namedview
     pagecolor="#ffffff"
     bordercolor="#666666"
     borderopacity="1"
     objecttolerance="10"
     gridtolerance="10"
     guidetolerance="10"
     inkscape:pageopacity="0"
     inkscape:pageshadow="2"
     inkscape:window-width="638"
     inkscape:window-height="493"
     id="namedview6"
     showgrid="false"
     inkscape:zoom="0.4609375"
     inkscape:cx="256"
     inkscape:cy="256"
     inkscape:window-x="0"
     inkscape:window-y="0"
     inkscape:window-maximized="0"
     inkscape:current-layer="svg4" />
  <path
     id="path2"
     d="m 488.4,357.35 c -11.13396,-9.47451 -21.41979,3.09398 -27.88617,11.45903 -12.44794,14.35699 -24.89589,28.71398 -37.34383,43.07097 -37.81667,-39.73333 -75.63333,-79.46667 -113.45,-119.2 15.13886,-21.46035 15.12334,-52.09433 0.02,-73.57 37.81,-39.73333 75.62,-79.46667 113.43,-119.2 16.17754,18.33084 31.73397,37.26377 48.30922,55.20906 16.51921,11.51916 29.94588,-14.90814 14.31114,-24.39991 C 467.41895,110.11532 450.08389,88.394935 431.12,68.43 419.79949,60.833516 411.19745,72.879321 404.54681,80.113908 366.38454,120.22594 328.22227,160.33797 290.06,200.45 269.71147,187.64872 242.25308,187.60237 221.89,200.4 179.91342,156.56279 138.42864,112.15948 96.15,68.67 87.291158,62.174761 77.23756,69.654168 72.487441,77.406266 55.288148,97.523591 37.503914,117.18338 20.669453,137.58607 11.209724,155.21064 39.423558,165.53276 46.720077,148.52953 60.760051,132.33635 74.800026,116.14318 88.84,99.95 c 37.81667,39.73333 75.63333,79.46667 113.45,119.2 -15.12705,21.44508 -15.06115,52.08984 0.02,73.54 -37.81333,39.73333 -75.62667,79.46667 -113.44,119.2 C 72.771949,393.60268 57.19879,374.81129 40.766309,356.84514 25.650282,345.18304 10.075607,370.32384 25.444928,380.18162 43.988068,401.07076 61.662252,422.87026 80.7,443.24 c 8.557819,6.48636 18.315972,-0.8318 23.45212,-8.08327 C 143.42601,393.92738 182.66317,352.48834 221.96,311.39 c 20.3434,12.74847 47.7887,12.73703 68.11,-0.05 41.99365,43.85737 83.46621,88.27965 125.78,131.79 8.16711,6.28267 18.23306,-0.10842 22.81749,-7.72736 17.494,-20.4516 35.57731,-40.4425 52.70304,-61.18202 3.15851,-5.41655 1.87013,-12.95554 -2.97053,-16.87062 z m -194.48,-99.2 c -0.53747,24.87817 -29.08545,43.10716 -51.87,33.06 -23.15729,-8.16764 -31.76491,-40.31997 -15.70577,-58.92272 14.48428,-19.72475 47.50283,-18.67331 60.81577,1.81272 4.86042,6.93531 7.38734,15.65151 6.76,24.05 z" />
</svg>
