<?xml version="1.0" encoding="UTF-8" standalone="no"?>
<svg
   xmlns:dc="http://purl.org/dc/elements/1.1/"
   xmlns:cc="http://creativecommons.org/ns#"
   xmlns:rdf="http://www.w3.org/1999/02/22-rdf-syntax-ns#"
   xmlns:svg="http://www.w3.org/2000/svg"
   xmlns="http://www.w3.org/2000/svg"
   xmlns:sodipodi="http://sodipodi.sourceforge.net/DTD/sodipodi-0.dtd"
   xmlns:inkscape="http://www.inkscape.org/namespaces/inkscape"
   width="512"
   height="512"
   viewBox="0 0 512 512"
   version="1.1"
   id="svg4"
   sodipodi:docname="one gang two way light switch.svg"
   inkscape:version="0.92.1 r15371">
  <metadata
     id="metadata10">
    <rdf:RDF>
      <cc:Work
         rdf:about="">
        <dc:format>image/svg+xml</dc:format>
        <dc:type
           rdf:resource="http://purl.org/dc/dcmitype/StillImage" />
      </cc:Work>
    </rdf:RDF>
  </metadata>
  <defs
     id="defs8" />
  <sodipodi:namedview
     pagecolor="#ffffff"
     bordercolor="#666666"
     borderopacity="1"
     objecttolerance="10"
     gridtolerance="10"
     guidetolerance="10"
     inkscape:pageopacity="0"
     inkscape:pageshadow="2"
     inkscape:window-width="640"
     inkscape:window-height="493"
     id="namedview6"
     showgrid="false"
     inkscape:zoom="0.4609375"
     inkscape:cx="256"
     inkscape:cy="256"
     inkscape:window-x="0"
     inkscape:window-y="0"
     inkscape:window-maximized="0"
     inkscape:current-layer="svg4" />
  <path
     id="path2"
     d="M 489.88,135.97 C 470.1099,113.72729 451.32751,90.418417 430.96,68.82 421.82898,63.093307 414.07691,72.39173 408.85326,78.678199 369.418,119.9779 329.98943,161.81774 290.55,202.78 262.92418,183.93654 221.58087,192.24551 203.43089,220.34108 188.53273,241.77531 188.94697,272.29161 204.46,293.3 165.5,334.25333 126.54,375.20667 87.58,416.16 71.613333,397.75 55.646667,379.34 39.68,360.93 18.540701,346.72089 15.22316,377.49377 30.852478,386.2165 47.553105,405.01276 63.446301,424.66768 80.61,442.97 c 5.379247,3.43438 12.690215,2.08659 16.710447,-3.3851 C 138.66363,396.1466 180.00682,352.7083 221.35,309.27 c 25.24567,16.91775 61.95928,12.26666 81.96,-10.83 19.81225,-21.41451 21.44933,-56.30222 4.17,-79.66 38.98333,-40.96667 77.96667,-81.93333 116.95,-122.9 16.6627,18.92889 32.78393,38.38231 49.78547,56.98297 10.71125,8.13319 24.86018,-6.71644 15.66453,-16.89297 z M 296.24,258.42 c -0.59519,25.99859 -30.06942,45.30125 -54.12567,35.41818 -24.35822,-7.87277 -34.33959,-40.71577 -19.04527,-61.02762 13.95021,-21.43758 48.37076,-22.80801 63.9608,-2.51346 6.49209,7.75639 9.84451,18.0298 9.21014,28.1229 z" />
</svg>
