<?xml version="1.0" encoding="UTF-8" standalone="no"?>
<svg
   xmlns:dc="http://purl.org/dc/elements/1.1/"
   xmlns:cc="http://creativecommons.org/ns#"
   xmlns:rdf="http://www.w3.org/1999/02/22-rdf-syntax-ns#"
   xmlns:svg="http://www.w3.org/2000/svg"
   xmlns="http://www.w3.org/2000/svg"
   xmlns:sodipodi="http://sodipodi.sourceforge.net/DTD/sodipodi-0.dtd"
   xmlns:inkscape="http://www.inkscape.org/namespaces/inkscape"
   width="512"
   height="512"
   viewBox="0 0 512 512"
   version="1.1"
   id="svg10"
   sodipodi:docname="push button restricted access.svg"
   inkscape:version="0.92.1 r15371">
  <metadata
     id="metadata16">
    <rdf:RDF>
      <cc:Work
         rdf:about="">
        <dc:format>image/svg+xml</dc:format>
        <dc:type
           rdf:resource="http://purl.org/dc/dcmitype/StillImage" />
      </cc:Work>
    </rdf:RDF>
  </metadata>
  <defs
     id="defs14" />
  <sodipodi:namedview
     pagecolor="#ffffff"
     bordercolor="#666666"
     borderopacity="1"
     objecttolerance="10"
     gridtolerance="10"
     guidetolerance="10"
     inkscape:pageopacity="0"
     inkscape:pageshadow="2"
     inkscape:window-width="640"
     inkscape:window-height="493"
     id="namedview12"
     showgrid="false"
     inkscape:zoom="0.4609375"
     inkscape:cx="256"
     inkscape:cy="256"
     inkscape:window-x="0"
     inkscape:window-y="0"
     inkscape:window-maximized="0"
     inkscape:current-layer="svg10" />
  <path
     id="path8"
     d="m 482.46,251 c -21.82,0 -43.64,0 -65.46,0 -0.1523,-39.13639 0.30422,-78.30182 -0.22754,-117.42012 C 413.54973,120.01226 397.76187,124.8969 387.63611,124 293.14159,124.16469 198.61264,123.6705 104.13965,124.2473 91.004136,128.07276 95.960181,143.65666 95,153.82389 95,186.21592 95,218.60796 95,251 72.39289,251.14985 49.757037,250.69906 27.168047,251.22754 7.2978966,257.84206 23.422562,279.24557 38.471943,274 c 23.470783,-0.13904 46.966299,0.28018 70.421377,-0.21336 13.62456,-2.43114 9.48388,-17.84032 10.09668,-27.70403 0,-33.02754 0,-66.05507 0,-99.08261 91.33333,0 182.66667,0 274,0 0.1794,39.38693 -0.35943,78.81513 0.27051,118.17617 4.70099,13.06985 20.60981,7.69491 31.20987,8.82383 20.11697,-0.14717 40.26225,0.2973 60.36114,-0.22754 C 498.70846,271.1251 496.36898,250.81866 482.46,251 Z m -172.03,16.18 c -1.01915,-29.9409 -30.21375,-54.84665 -59.95,-51 -29.60123,2.2665 -53.1281,31.91368 -48.57,61.26 3.08042,29.91318 34.20268,52.7862 63.65798,46.63754 26.70006,-4.2212 46.811,-30.14929 44.86202,-56.89754 z m -23.58,5.98 c -1.00026,21.26301 -26.90954,35.37019 -45.29871,24.64133 -19.18216,-9.10478 -22.19848,-38.3051 -5.36129,-51.20133 15.78455,-14.29254 44.05232,-5.84458 49.3753,14.77805 1.21369,3.78251 1.54529,7.92131 1.2847,11.78195 z m 86.55,-6.08 c -0.87223,-46.43105 -32.01515,-90.31325 -75.59922,-106.37429 -44.46726,-17.59794 -98.77779,-4.22454 -129.91892,32.09013 -18.56708,20.68939 -28.57712,48.13253 -29.62186,75.75416 -0.008,30.49053 11.91538,62.28296 34.08155,84.20733 32.68865,33.99012 86.54538,44.72967 129.66851,25.58105 41.39688,-17.08987 70.44879,-59.67034 71.24994,-104.44838 0.99053,-1.75227 0.79235,-5.24632 0.14,-6.81 z m -23.7,8.56 c -1.64856,42.87515 -36.36481,81.43345 -78.88101,87.39777 -42.09509,7.5163 -86.93854,-18.02352 -102.02056,-58.02564 -16.38256,-39.24529 -1.4897,-88.27411 33.94495,-111.78382 34.75937,-24.92346 86.2203,-21.18671 117.09832,8.3783 20.31085,18.59601 31.73383,46.75311 29.8583,74.03339 z M 119.04,414.92 c 24.98667,-24.99333 49.97333,-49.98667 74.96,-74.98" />
</svg>
