<?xml version="1.0" encoding="UTF-8" standalone="no"?>
<svg
   xmlns:dc="http://purl.org/dc/elements/1.1/"
   xmlns:cc="http://creativecommons.org/ns#"
   xmlns:rdf="http://www.w3.org/1999/02/22-rdf-syntax-ns#"
   xmlns:svg="http://www.w3.org/2000/svg"
   xmlns="http://www.w3.org/2000/svg"
   xmlns:sodipodi="http://sodipodi.sourceforge.net/DTD/sodipodi-0.dtd"
   xmlns:inkscape="http://www.inkscape.org/namespaces/inkscape"
   width="512"
   height="512"
   viewBox="0 0 512 512"
   version="1.1"
   id="svg8"
   sodipodi:docname="two pole temprature controlled.svg"
   inkscape:version="0.92.1 r15371">
  <metadata
     id="metadata14">
    <rdf:RDF>
      <cc:Work
         rdf:about="">
        <dc:format>image/svg+xml</dc:format>
        <dc:type
           rdf:resource="http://purl.org/dc/dcmitype/StillImage" />
      </cc:Work>
    </rdf:RDF>
  </metadata>
  <defs
     id="defs12" />
  <sodipodi:namedview
     pagecolor="#ffffff"
     bordercolor="#666666"
     borderopacity="1"
     objecttolerance="10"
     gridtolerance="10"
     guidetolerance="10"
     inkscape:pageopacity="0"
     inkscape:pageshadow="2"
     inkscape:window-width="640"
     inkscape:window-height="493"
     id="namedview10"
     showgrid="false"
     inkscape:zoom="0.4609375"
     inkscape:cx="256"
     inkscape:cy="256"
     inkscape:window-x="0"
     inkscape:window-y="0"
     inkscape:window-maximized="0"
     inkscape:current-layer="svg8" />
  <path
     id="path6"
     d="m 117.12,350.02 c 10.20276,-14.9 22.20309,-28.74888 31.22125,-44.34156 -0.49728,-22.24823 -22.61799,-9.32195 -27.35428,3.50888 C 113.65798,319.32488 106.32899,329.46244 99,339.6 98.514274,326.1575 100.01359,312.51682 98.175,299.20937 84.686124,281.49928 74.327331,305.05545 78,318.23997 c 0,32.48001 0,64.96002 0,97.44003 7.063093,23.10489 26.692,1.69508 21,-13.67497 0.504745,-9.12412 -0.992121,-18.87966 0.714402,-27.62466 4.714508,-11.64181 7.293978,5.12693 10.817448,9.33399 6.74083,12.98653 12.57699,26.50497 19.91721,39.13908 18.15121,12.02758 21.15539,-13.8189 10.96164,-24.12022 C 133.31679,382.50813 125.19903,366.18191 117.12,350.02 Z M 492.26,167.1 C 460.76523,131.02501 429.66491,94.526828 397.93,58.71 387.08921,51.243544 380.17964,64.518162 373.56012,70.631975 306.17008,141.43798 238.78004,212.24399 171.39,283.05 135.76851,254.78674 80.291812,257.528 47.63633,289.17243 14.331628,318.96559 7.2303815,372.73914 31.520259,410.21738 49.471152,439.99719 84.98264,458.02378 119.32,455.26 165.46618,453.58133 205.90891,413.68334 208.88977,367.69972 211.57134,343.31233 202.79471,316.70489 186.6,297.54 254.77667,225.90667 322.95333,154.27333 391.13,82.64 c 28.40667,32.74667 56.81333,65.49333 85.22,98.24 8.82445,10.62016 25.10085,-3.67439 15.91,-13.78 z m -305.1,179.94 c 7.18905,37.59932 -19.187,77.46489 -56.63,85.49 -37.355287,9.8621 -79.314798,-14.38375 -89.360119,-51.70043 -11.97315,-36.79512 10.151494,-80.02439 46.869849,-92.06147 36.08517,-13.81792 80.35961,5.87214 94.35896,41.86863 2.21875,5.23694 3.76318,10.91049 4.76131,16.40327 z m -68.12,67.88 c 24.98667,-24.99333 49.97333,-49.98667 74.96,-74.98" />
</svg>
