<?xml version="1.0" encoding="UTF-8" standalone="no"?>
<svg
   xmlns:dc="http://purl.org/dc/elements/1.1/"
   xmlns:cc="http://creativecommons.org/ns#"
   xmlns:rdf="http://www.w3.org/1999/02/22-rdf-syntax-ns#"
   xmlns:svg="http://www.w3.org/2000/svg"
   xmlns="http://www.w3.org/2000/svg"
   xmlns:sodipodi="http://sodipodi.sourceforge.net/DTD/sodipodi-0.dtd"
   xmlns:inkscape="http://www.inkscape.org/namespaces/inkscape"
   width="512"
   height="512"
   viewBox="0 0 512 512"
   version="1.1"
   id="svg8"
   sodipodi:docname="two pole period operated.svg"
   inkscape:version="0.92.1 r15371">
  <metadata
     id="metadata14">
    <rdf:RDF>
      <cc:Work
         rdf:about="">
        <dc:format>image/svg+xml</dc:format>
        <dc:type
           rdf:resource="http://purl.org/dc/dcmitype/StillImage" />
      </cc:Work>
    </rdf:RDF>
  </metadata>
  <defs
     id="defs12" />
  <sodipodi:namedview
     pagecolor="#ffffff"
     bordercolor="#666666"
     borderopacity="1"
     objecttolerance="10"
     gridtolerance="10"
     guidetolerance="10"
     inkscape:pageopacity="0"
     inkscape:pageshadow="2"
     inkscape:window-width="640"
     inkscape:window-height="493"
     id="namedview10"
     showgrid="false"
     inkscape:zoom="0.4609375"
     inkscape:cx="256"
     inkscape:cy="256"
     inkscape:window-x="0"
     inkscape:window-y="0"
     inkscape:window-maximized="0"
     inkscape:current-layer="svg8" />
  <path
     id="path6"
     d="m 274.65,216 c -13.21358,0.29513 -26.54363,-0.60065 -39.68172,0.46641 -13.29022,13.04285 11.81926,9.55057 14.03172,13.95523 0.31416,20.99117 -0.62646,42.10506 0.46641,63.02008 11.36619,11.44637 12.89618,-8.82807 11.53359,-16.89155 0,-16.18339 0,-32.36678 0,-48.55017 7.94382,1.61597 27.32872,-0.64095 16.01172,-11.53359 z M 491.68,136.64 C 471.77047,114.11061 452.59594,90.762336 432.24,68.73 424.19816,65.456502 420.32633,76.562729 414.90165,80.353723 374.03443,123.28248 333.16722,166.21124 292.3,209.14 c -24.8926,-20.36238 -65.50541,-14.74064 -83.98,11.58 -16.3446,21.39881 -15.19924,53.6895 2.6,73.9 -31.78667,33.4 -63.57333,66.8 -95.36,100.2 C 97.994561,375.07188 81.304623,354.39515 63.19,335.22953 47.045416,334.06961 59.068988,350.40911 65.449429,355.63709 79.342953,371.65806 93.236476,387.67903 107.13,403.7 99.053333,412.18667 90.976667,420.67333 82.9,429.16 64.352568,408.26059 46.688987,386.42427 27.59,366.10953 11.44564,364.94941 23.468896,381.28919 29.84829,386.51808 46.65093,405.39834 62.585871,425.2574 79.91,443.55 87.970624,446.3259 92.226229,435.1932 97.951085,430.94728 138.64192,388.54487 179.21659,344.83651 219.98,303.25 c 24.35912,19.36949 62.97265,14.84942 82.16432,-9.777 17.88892,-21.29905 17.50269,-55.1569 -0.93432,-76.003 31.78333,-33.4 63.56667,-66.8 95.35,-100.2 18.62617,20.91317 36.22205,42.93532 55.4925,63.155 15.92341,0.76591 3.80711,-15.29227 -2.4592,-20.51446 C 434.7222,142.7537 419.8511,125.59685 404.98,108.44 c 8.07333,-8.49 16.14667,-16.98 24.22,-25.47 18.62874,20.90812 36.23337,42.91888 55.5025,63.1375 5.76509,2.82303 11.48681,-5.09493 6.9775,-9.4675 z m -190.3,106.5 c 8.60691,26.64539 -11.72544,57.2905 -39.58,59.85 -27.46677,4.25718 -54.89815,-20.35064 -52.78,-48.24 -0.54231,-28.40704 29.25859,-51.56683 56.69455,-44.83915 16.84283,3.34957 31.25653,16.70304 35.66545,33.22915 z M 119.04,414.92 c 24.98667,-24.99333 49.97333,-49.98667 74.96,-74.98" />
</svg>
