<?xml version="1.0" encoding="UTF-8" standalone="no"?>
<svg
   xmlns:dc="http://purl.org/dc/elements/1.1/"
   xmlns:cc="http://creativecommons.org/ns#"
   xmlns:rdf="http://www.w3.org/1999/02/22-rdf-syntax-ns#"
   xmlns:svg="http://www.w3.org/2000/svg"
   xmlns="http://www.w3.org/2000/svg"
   xmlns:sodipodi="http://sodipodi.sourceforge.net/DTD/sodipodi-0.dtd"
   xmlns:inkscape="http://www.inkscape.org/namespaces/inkscape"
   width="512"
   height="512"
   viewBox="0 0 512 512"
   version="1.1"
   id="svg6"
   sodipodi:docname="two pole with indicated lamp.svg"
   inkscape:version="0.92.1 r15371">
  <metadata
     id="metadata12">
    <rdf:RDF>
      <cc:Work
         rdf:about="">
        <dc:format>image/svg+xml</dc:format>
        <dc:type
           rdf:resource="http://purl.org/dc/dcmitype/StillImage" />
      </cc:Work>
    </rdf:RDF>
  </metadata>
  <defs
     id="defs10" />
  <sodipodi:namedview
     pagecolor="#ffffff"
     bordercolor="#666666"
     borderopacity="1"
     objecttolerance="10"
     gridtolerance="10"
     guidetolerance="10"
     inkscape:pageopacity="0"
     inkscape:pageshadow="2"
     inkscape:window-width="640"
     inkscape:window-height="493"
     id="namedview8"
     showgrid="false"
     inkscape:zoom="0.4609375"
     inkscape:cx="256"
     inkscape:cy="256"
     inkscape:window-x="0"
     inkscape:window-y="0"
     inkscape:window-maximized="0"
     inkscape:current-layer="svg6" />
  <path
     id="path4"
     d="M 492.26,166.54 C 460.82116,130.5303 429.80567,94.08529 398.11,58.34 388.58684,51.112966 380.30649,61.118353 374.7536,67.729756 307.01669,138.91392 239.27149,210.0902 171.53,281.27 135.62813,253.39327 80.310821,256.37071 47.673404,288.03687 12.932596,318.94258 6.7301072,375.65006 33.599774,413.50523 c 24.836413,38.06014 78.091266,53.31755 119.276216,34.04056 42.43883,-17.77224 67.17925,-68.65695 54.5845,-112.74892 C 203.99363,321.0894 197.39546,308.18396 188.39,297.29 c 49.99,-52.53333 99.98,-105.06667 149.97,-157.6 28.71205,32.8362 56.88439,66.19514 85.93547,98.70297 22.06128,9.38821 20.64525,-19.0553 6.69871,-27.34613 C 405.47946,181.62123 379.96473,152.19561 354.45,122.77 c 12.04667,-12.65333 24.09333,-25.306667 36.14,-37.96 28.72828,32.82984 56.91941,66.18009 85.98516,98.68297 10.65042,8.40592 24.88708,-7.07876 15.68484,-16.95297 z m -420,131.48 c 24.82776,-17.36774 60.27923,-16.77697 84.59,1.27 -14.41,14.41 -28.82,28.82 -43.23,43.23 -14.4,-14.4 -28.8,-28.8 -43.2,-43.2 0.783219,0.0921 1.078392,-1.32522 1.84,-1.3 z M 54,402.16 c -18.564732,-24.89267 -18.601175,-61.54247 0.01,-86.42 14.4,14.4 28.8,28.8 43.2,43.2 C 82.808594,373.34805 68.391724,387.74497 54,402.16 Z m 102.66,16.63 c -24.92706,18.29761 -61.426014,18.40813 -86.21,-0.21 14.4,-14.4 28.8,-28.8 43.2,-43.2 14.20588,14.46318 29.45651,28.96713 43.01,43.41 z m 30.54,-55.53 c -0.83451,13.93341 -5.64886,27.61603 -13.9,38.89 -14.4,-14.4 -28.8,-28.8 -43.2,-43.2 14.4,-14.4 28.8,-28.8 43.2,-43.2 9.90946,13.62631 14.90814,30.72854 13.9,47.51 z m -68.16,51.66 c 24.98667,-24.99333 49.97333,-49.98667 74.96,-74.98" />
</svg>
