<?xml version="1.0" encoding="UTF-8" standalone="no"?>
<svg
   xmlns:dc="http://purl.org/dc/elements/1.1/"
   xmlns:cc="http://creativecommons.org/ns#"
   xmlns:rdf="http://www.w3.org/1999/02/22-rdf-syntax-ns#"
   xmlns:svg="http://www.w3.org/2000/svg"
   xmlns="http://www.w3.org/2000/svg"
   xmlns:sodipodi="http://sodipodi.sourceforge.net/DTD/sodipodi-0.dtd"
   xmlns:inkscape="http://www.inkscape.org/namespaces/inkscape"
   width="512"
   height="512"
   viewBox="0 0 512 512"
   version="1.1"
   id="svg4"
   sodipodi:docname="grey cat.svg"
   inkscape:version="0.92.1 r15371">
  <metadata
     id="metadata10">
    <rdf:RDF>
      <cc:Work
         rdf:about="">
        <dc:format>image/svg+xml</dc:format>
        <dc:type
           rdf:resource="http://purl.org/dc/dcmitype/StillImage" />
      </cc:Work>
    </rdf:RDF>
  </metadata>
  <defs
     id="defs8" />
  <sodipodi:namedview
     pagecolor="#ffffff"
     bordercolor="#666666"
     borderopacity="1"
     objecttolerance="10"
     gridtolerance="10"
     guidetolerance="10"
     inkscape:pageopacity="0"
     inkscape:pageshadow="2"
     inkscape:window-width="640"
     inkscape:window-height="493"
     id="namedview6"
     showgrid="false"
     inkscape:zoom="0.4609375"
     inkscape:cx="256"
     inkscape:cy="256"
     inkscape:window-x="0"
     inkscape:window-y="0"
     inkscape:window-maximized="0"
     inkscape:current-layer="svg4" />
  <path
     d="m 47,250 c -7.666667,0 -15.333333,0 -23,0 0,-6.33333 0,-12.66667 0,-19 -9.482206,-3.00472 -6.756295,6.19868 -7,12.43246 0,11.52251 0,23.04503 0,34.56754 9.482206,3.00472 6.756295,-6.19868 7,-12.43246 C 22.207583,257.47783 25.068106,254.04106 33.324343,256 38.363437,257.24619 49.584316,252.31059 47,261.18019 48.336912,266.14057 44.286736,276.48805 49.072076,278 56.735839,279.17426 51.434943,267.38387 53,262.45943 53,251.97295 53,241.48648 53,231 c -2,0 -4,0 -6,0 m 47.56,4.13 C 85.695852,228.66373 74.224336,231.71877 64,231 c 0,15.66667 0,31.33333 0,47 12.304983,-0.42654 28.979231,2.93532 35.2,-10.9325 4.24942,-10.06056 4.0302,-24.25555 -4.64,-31.9375 z m -0.24,27.66 c -1.653343,10.4185 -20.943121,11.82893 -25.32,7.12792 0,-10.97597 0,-21.95195 0,-32.92792 10.585558,-0.46291 26.450991,-1.24304 26.381875,13.54359 0.311004,4.09985 0.200018,8.30562 -1.061875,12.25641 z m 41.83,-10.03 c 16.85153,-11.35662 -3.53797,-25.95461 -17.1483,-21.76 -8.77893,-2.3249 -10.33787,2.57018 -9.0017,10.36038 0,12.21321 0,24.42641 0,36.63962 11.27359,-0.97528 26.56074,3.65675 33.48,-7.95 3.43334,-6.54107 0.30067,-15.62913 -7.33,-17.29 z M 116,237 c 8.37429,-1.00499 27.30693,-0.2867 17.94875,11.97875 -5.70227,-0.0964 -21.06222,5.54179 -17.94875,-5.19498 0,-2.26126 0,-4.52251 0,-6.78377 z m 21.6,30.82 c -3.4255,4.19028 -20.83845,7.64328 -21.6,1.06189 0.70952,-5.65986 -3.11671,-15.85545 6.21623,-12.89189 7.65991,-0.70466 20.08741,0.78104 15.38377,11.83 z M 179,263.3 c 4.04583,-14.43236 -8.22511,-27.00414 -22.84,-17.5475 -10.20771,9.08015 2.42653,10.96309 6.20875,2.42875 12.66986,-4.43829 15.90913,13.51667 1.39125,9.87875 -22.599,-0.80347 -9.68315,30.72849 7.49875,17.59875 0.74177,-3.60963 12.71427,9.01375 8.40125,-1.99875 -0.51511,-3.42816 -0.64765,-6.89866 -0.66,-10.36 z m -6,-0.7 c 4.97169,16.43475 -27.93747,10.84795 -11.61,0.6275 2.47885,1.29481 13.20141,-5.50402 11.61,-0.6275 z m 35.8,-2.93 c -10.54696,0.81112 -24.85751,-13.00947 -6.095,-11.54 5.27653,10.29293 15.71134,1.54952 3.565,-3.87 -17.90824,-9.47023 -27.55183,19.30801 -5.68,18.89 19.45469,4.33858 -7.78736,17.90845 -9.90348,3.46083 -15.18426,7.66293 24.91999,20.83893 23.18348,0.88917 0.21131,-3.38172 -1.99255,-6.64324 -5.07,-7.83 z m 25.54,-16.54 c -25.84793,-0.0535 -16.3859,46.02705 7.88563,33.33797 11.77019,-4.32979 3.42284,-16.81816 -2.21563,-4.69797 -15.30444,6.60789 -20.46007,-15.8282 -2.98754,-9.77 13.52213,4.38194 17.11659,-7.59429 6.00832,-16.315 -2.51186,-1.78866 -5.63947,-2.59654 -8.69078,-2.555 z M 224.9,257 c 4.0128,-22.24041 30.82753,5.04093 7.28358,0 -2.42786,0 -4.85572,0 -7.28358,0 z M 254,237 c 4.82673,1.55466 16.5717,-3.80894 15,4.14415 0,12.28528 0,24.57057 0,36.85585 9.32132,2.83182 5.1122,-7.8668 6,-13.4685 0,-9.17716 0,-18.35433 0,-27.5315 4.79054,-1.57883 16.20566,3.46691 16,-3.10811 -0.34638,-6.14312 -11.58058,-1.39842 -16.57661,-2.89189 -6.8078,0 -13.61559,0 -20.42339,0 m 236.4,16.3 c -49.54333,-29.74 -99.08667,-59.48 -148.63,-89.22 -13.71971,-6.6279 -17.53487,10.13119 -15.77,20.19642 0,55.61453 0,111.22905 0,166.84358 1.51432,15.12283 17.77388,9.55912 25.49699,2.95433 C 397.78799,320.34955 444.079,292.62478 490.37,264.9 c 6.59801,-3.62068 6.56926,-13.97864 0.03,-17.6 z M 346,327.02 c 0,-47.34 0,-94.68 0,-142.02 39.47333,23.69333 78.94667,47.38667 118.42,71.08 -39.47333,23.64667 -78.94667,47.29333 -118.42,70.94 z"
     id="path2"
     inkscape:connector-curvature="0" />
</svg>
