<?xml version="1.0" encoding="UTF-8" standalone="no"?>
<svg
   xmlns:dc="http://purl.org/dc/elements/1.1/"
   xmlns:cc="http://creativecommons.org/ns#"
   xmlns:rdf="http://www.w3.org/1999/02/22-rdf-syntax-ns#"
   xmlns:svg="http://www.w3.org/2000/svg"
   xmlns="http://www.w3.org/2000/svg"
   xmlns:sodipodi="http://sodipodi.sourceforge.net/DTD/sodipodi-0.dtd"
   xmlns:inkscape="http://www.inkscape.org/namespaces/inkscape"
   width="512"
   height="512"
   viewBox="0 0 512 512"
   version="1.1"
   id="svg4"
   sodipodi:docname="HV hub.svg"
   inkscape:version="0.92.1 r15371">
  <metadata
     id="metadata10">
    <rdf:RDF>
      <cc:Work
         rdf:about="">
        <dc:format>image/svg+xml</dc:format>
        <dc:type
           rdf:resource="http://purl.org/dc/dcmitype/StillImage" />
      </cc:Work>
    </rdf:RDF>
  </metadata>
  <defs
     id="defs8" />
  <sodipodi:namedview
     pagecolor="#ffffff"
     bordercolor="#666666"
     borderopacity="1"
     objecttolerance="10"
     gridtolerance="10"
     guidetolerance="10"
     inkscape:pageopacity="0"
     inkscape:pageshadow="2"
     inkscape:window-width="640"
     inkscape:window-height="493"
     id="namedview6"
     showgrid="false"
     inkscape:zoom="0.4609375"
     inkscape:cx="256"
     inkscape:cy="256"
     inkscape:window-x="0"
     inkscape:window-y="0"
     inkscape:window-maximized="0"
     inkscape:current-layer="svg4" />
  <path
     d="m 494.16,338.55 c -0.37375,-54.42444 -0.053,-109.35944 -0.16,-163.98 -1.4355,-12.23998 -15.75279,-7.68779 -24.26302,-8.57 -147.579,0 -295.15799,0 -442.73698,0 -5.123646,-2.10694 -10.781798,5.46998 -9.02,10.59907 0,53.64364 0,107.28729 0,160.93093 1.514097,12.15332 15.802054,7.55352 24.293025,8.46 147.585655,0 295.171315,0 442.756975,0 4.21609,1.93171 9.18818,-3.37578 9.13,-7.44 z M 41,328 c 0,-46.18333 0,-92.36667 0,-138.55 128.73367,46.18239 257.46686,92.36612 386.2,138.55 -128.73333,0 -257.46667,0 -386.2,0 z"
     id="path2"
     inkscape:connector-curvature="0" />
</svg>
