<?xml version="1.0" encoding="UTF-8" standalone="no"?>
<svg
   xmlns:dc="http://purl.org/dc/elements/1.1/"
   xmlns:cc="http://creativecommons.org/ns#"
   xmlns:rdf="http://www.w3.org/1999/02/22-rdf-syntax-ns#"
   xmlns:svg="http://www.w3.org/2000/svg"
   xmlns="http://www.w3.org/2000/svg"
   xmlns:sodipodi="http://sodipodi.sourceforge.net/DTD/sodipodi-0.dtd"
   xmlns:inkscape="http://www.inkscape.org/namespaces/inkscape"
   width="512"
   height="512"
   viewBox="0 0 512 512"
   version="1.1"
   id="svg6"
   sodipodi:docname="in ceiling speaker rectangular.svg"
   inkscape:version="0.92.1 r15371">
  <metadata
     id="metadata12">
    <rdf:RDF>
      <cc:Work
         rdf:about="">
        <dc:format>image/svg+xml</dc:format>
        <dc:type
           rdf:resource="http://purl.org/dc/dcmitype/StillImage" />
      </cc:Work>
    </rdf:RDF>
  </metadata>
  <defs
     id="defs10" />
  <sodipodi:namedview
     pagecolor="#ffffff"
     bordercolor="#666666"
     borderopacity="1"
     objecttolerance="10"
     gridtolerance="10"
     guidetolerance="10"
     inkscape:pageopacity="0"
     inkscape:pageshadow="2"
     inkscape:window-width="638"
     inkscape:window-height="493"
     id="namedview8"
     showgrid="false"
     inkscape:zoom="0.4609375"
     inkscape:cx="256"
     inkscape:cy="256"
     inkscape:window-x="0"
     inkscape:window-y="0"
     inkscape:window-maximized="0"
     inkscape:current-layer="svg6" />
  <path
     d="m 317.3,147.44 c -52.06634,-0.91901 -97.25392,44.05284 -102.19068,94.87419 -7.52231,51.94297 26.99475,107.4933 78.94873,119.44452 46.49931,12.2932 97.53891,-15.12877 116.3497,-58.66976 23.8867,-49.57626 4.70417,-115.61838 -43.89071,-142.51064 C 351.623,152.01559 334.48699,147.40023 317.3,147.44 Z m 0,200.96 c -49.47588,0.97443 -89.3355,-46.72027 -86.87156,-94.65541 -0.12308,-47.17945 40.50409,-92.43952 89.11863,-90.1443 49.63817,0.4179 88.46231,49.21118 84.83921,97.27093 C 403.08913,306.60145 364.38036,349.21691 317.3,348.4 Z M 110.86,204.85 c -34.481828,-1.18541 -63.702421,34.22193 -55.565781,67.8584 5.854302,33.97863 46.295741,55.36125 77.636091,40.84613 32.04423,-12.33548 45.25823,-55.97405 24.96709,-83.81584 C 147.58666,214.34855 129.37423,204.63447 110.86,204.85 Z m 0.6,86.52 C 85.42832,291.71399 74.658853,254.38049 94.046375,238.64143 109.09245,223.69925 136.21424,235.3847 138.60648,255.60936 142.35352,272.52527 129.5332,291.62659 111.46,291.37 Z M 495,125.06 c -1.88665,-12.03605 -16.13148,-6.98506 -24.64889,-8.06 -148.43037,0 -296.86074,0 -445.29111,0 -12.036054,1.88665 -6.985064,16.13148 -8.06,24.64889 0,81.7637 0,163.52741 0,245.29111 1.886649,12.03605 16.131478,6.98506 24.648889,8.06 148.430371,0 296.860741,0 445.291111,0 12.03605,-1.88665 6.98506,-16.13148 8.06,-24.64889 0,-81.7637 0,-163.52741 0,-245.29111 z M 33,379 c 0,-82 0,-164 0,-246 81.33333,0 162.66667,0 244,0 -54.65208,18.24972 -93.14918,75.66721 -87.22383,133.31708 C 193.42651,317.78901 231.22839,364.57083 280.76,379 198.17333,379 115.58667,379 33,379 Z M 205.46,256.02 c -1.17756,-55.09177 43.63603,-106.20179 98.42937,-112.14993 53.75265,-8.02358 109.21677,28.78409 123.11414,81.23419 15.67949,51.10497 -11.27436,110.35173 -59.7952,132.54814 -47.71715,24.11207 -110.83612,7.7871 -140.91463,-36.40189 C 212.78152,302.37343 205.38611,279.20148 205.46,256.02 Z M 477,379 c -40.40667,0 -80.81333,0 -121.22,0 56.80001,-16.18163 97.14566,-75.15826 91.22381,-133.99878 C 443.53123,194.58459 407.14548,149.16796 359.55,133 c 39.15,0 78.3,0 117.45,0 0,82 0,164 0,246 z"
     id="path4"
     inkscape:connector-curvature="0" />
</svg>
