<?xml version="1.0" encoding="UTF-8" standalone="no"?>
<svg
   xmlns:dc="http://purl.org/dc/elements/1.1/"
   xmlns:cc="http://creativecommons.org/ns#"
   xmlns:rdf="http://www.w3.org/1999/02/22-rdf-syntax-ns#"
   xmlns:svg="http://www.w3.org/2000/svg"
   xmlns="http://www.w3.org/2000/svg"
   xmlns:sodipodi="http://sodipodi.sourceforge.net/DTD/sodipodi-0.dtd"
   xmlns:inkscape="http://www.inkscape.org/namespaces/inkscape"
   width="512"
   height="512"
   viewBox="0 0 512 512"
   version="1.1"
   id="svg6"
   sodipodi:docname="in wall speaker prewire.svg"
   inkscape:version="0.92.1 r15371">
  <metadata
     id="metadata12">
    <rdf:RDF>
      <cc:Work
         rdf:about="">
        <dc:format>image/svg+xml</dc:format>
        <dc:type
           rdf:resource="http://purl.org/dc/dcmitype/StillImage" />
      </cc:Work>
    </rdf:RDF>
  </metadata>
  <defs
     id="defs10" />
  <sodipodi:namedview
     pagecolor="#ffffff"
     bordercolor="#666666"
     borderopacity="1"
     objecttolerance="10"
     gridtolerance="10"
     guidetolerance="10"
     inkscape:pageopacity="0"
     inkscape:pageshadow="2"
     inkscape:window-width="640"
     inkscape:window-height="493"
     id="namedview8"
     showgrid="false"
     inkscape:zoom="0.4609375"
     inkscape:cx="256"
     inkscape:cy="256"
     inkscape:window-x="0"
     inkscape:window-y="0"
     inkscape:window-maximized="0"
     inkscape:current-layer="svg6" />
  <g
     stroke="#000"
     stroke-width="3"
     stroke-miterlimit="10"
     id="g4">
    <path
       d="m 298.2,325.5 c -42.71667,0 -85.43333,0 -128.15,0 -19.67131,5.90166 -2.35312,23.97913 11.24811,19 38.96729,0 77.93459,0 116.90189,0 11.94648,0.006 11.94636,-19.00809 0,-19 z m 35.24,-34.14 c 2.21758,-16.37248 -16.91956,-12.0847 -23.4226,-2.97925 -37.30392,0.51222 -74.8618,-0.42814 -112.19162,0.47003 -16.12652,8.04683 -0.20453,22.87773 12.29886,18.64922 39.30845,0 78.61691,0 117.92536,0 8.63034,0.50891 12.48802,-11.62834 5.39,-16.14 z M 164.45,177 c -1.19142,-12.87749 -15.66374,-8.85821 -24.50196,-9.5 -37.60602,0 -75.212028,0 -112.81804,0 -19.6767272,5.90814 -2.343186,23.97718 11.258107,19 6.951189,0.38419 14.934796,-2.04755 19.578322,4.63084 22.077857,18.70305 44.155711,37.40611 66.233571,56.10916 18.79408,7.90459 16.56358,-16.25183 3.29548,-21.17181 C 111.90699,212.87879 96.318493,199.6894 80.73,186.5 c 24.85667,0 49.71333,0 74.57,0 5.01617,0.0649 9.22461,-4.59136 9.15,-9.5 z M 375,167.5 c -42.71667,0 -85.43333,0 -128.15,0 -19.67131,5.90166 -2.35312,23.97913 11.24811,19 38.96729,0 77.93459,0 116.90189,0 11.94648,0.006 11.94636,-19.00809 0,-19 z m 109.87,0 c -10.53991,0.30598 -21.18838,-0.65054 -31.65125,0.55125 -21.3204,16.41919 -41.24465,34.81238 -62.01884,52.00384 -16.01152,10.53715 5.85551,26.37041 14.62288,12.0016 17.97574,-15.18556 35.95147,-30.37113 53.92721,-45.55669 9.53946,-0.40578 19.26049,0.88041 28.66594,-0.77422 9.02459,-3.86859 6.32725,-18.18067 -3.54594,-18.22578 z"
       id="path2"
       inkscape:connector-curvature="0" />
  </g>
</svg>
