<?xml version="1.0" encoding="UTF-8" standalone="no"?>
<svg
   xmlns:dc="http://purl.org/dc/elements/1.1/"
   xmlns:cc="http://creativecommons.org/ns#"
   xmlns:rdf="http://www.w3.org/1999/02/22-rdf-syntax-ns#"
   xmlns:svg="http://www.w3.org/2000/svg"
   xmlns="http://www.w3.org/2000/svg"
   xmlns:sodipodi="http://sodipodi.sourceforge.net/DTD/sodipodi-0.dtd"
   xmlns:inkscape="http://www.inkscape.org/namespaces/inkscape"
   width="512"
   height="512"
   viewBox="0 0 512 512"
   version="1.1"
   id="svg6"
   sodipodi:docname="local source.svg"
   inkscape:version="0.92.1 r15371">
  <metadata
     id="metadata12">
    <rdf:RDF>
      <cc:Work
         rdf:about="">
        <dc:format>image/svg+xml</dc:format>
        <dc:type
           rdf:resource="http://purl.org/dc/dcmitype/StillImage" />
      </cc:Work>
    </rdf:RDF>
  </metadata>
  <defs
     id="defs10" />
  <sodipodi:namedview
     pagecolor="#ffffff"
     bordercolor="#666666"
     borderopacity="1"
     objecttolerance="10"
     gridtolerance="10"
     guidetolerance="10"
     inkscape:pageopacity="0"
     inkscape:pageshadow="2"
     inkscape:window-width="640"
     inkscape:window-height="493"
     id="namedview8"
     showgrid="false"
     inkscape:zoom="0.4609375"
     inkscape:cx="256"
     inkscape:cy="256"
     inkscape:window-x="0"
     inkscape:window-y="0"
     inkscape:window-maximized="0"
     inkscape:current-layer="svg6" />
  <path
     d="m 256.54,392.04 c 64.88545,1.33314 125.34297,-50.41478 134.03472,-114.72382 10.74387,-61.9347 -28.18538,-127.33659 -87.45888,-147.93569 -57.65605,-22.33751 -128.21272,1.67789 -160.5297,54.32107 -34.9515,52.40621 -25.82406,128.37632 20.65288,170.93282 24.79958,23.83723 58.88316,37.57625 93.30098,37.40562 z m 0,-247.14 c 55.59032,-1.23054 106.75795,45.01983 111.26151,100.41284 6.77713,54.2551 -32.65187,108.86009 -86.03427,120.09577 C 229.67255,378.6192 171.50472,347.86683 152.74964,297.58694 131.99731,247.89462 153.94446,185.67825 201.06545,159.73833 217.82707,150.02428 237.16837,144.861 256.54,144.9 Z M 495,106.88 C 494.27724,92.375351 478.21038,95.094246 468.15671,95 322.06447,95 175.97224,95 29.88,95 15.375351,95.722761 18.094246,111.78962 18,121.84329 c 0.161072,95.21948 -0.322057,190.47137 0.241406,285.67062 4.300588,14.00005 20.350809,8.30533 31.205972,9.48609 144.557542,0 289.115082,0 433.672622,0 14.50465,-0.72276 11.78575,-16.78962 11.88,-26.84329 0,-94.42557 0,-188.85114 0,-283.27671 z M 472,395 c -143.66667,0 -287.33333,0 -431,0 0,-92 0,-184 0,-276 143.66667,0 287.33333,0 431,0 0,92 0,184 0,276 z"
     id="path4"
     inkscape:connector-curvature="0" />
</svg>
