<?xml version="1.0" encoding="UTF-8" standalone="no"?>
<svg
   xmlns:dc="http://purl.org/dc/elements/1.1/"
   xmlns:cc="http://creativecommons.org/ns#"
   xmlns:rdf="http://www.w3.org/1999/02/22-rdf-syntax-ns#"
   xmlns:svg="http://www.w3.org/2000/svg"
   xmlns="http://www.w3.org/2000/svg"
   xmlns:sodipodi="http://sodipodi.sourceforge.net/DTD/sodipodi-0.dtd"
   xmlns:inkscape="http://www.inkscape.org/namespaces/inkscape"
   width="512"
   height="512"
   viewBox="0 0 512 512"
   version="1.1"
   id="svg4"
   sodipodi:docname="mra touchpad.svg"
   inkscape:version="0.92.1 r15371">
  <metadata
     id="metadata10">
    <rdf:RDF>
      <cc:Work
         rdf:about="">
        <dc:format>image/svg+xml</dc:format>
        <dc:type
           rdf:resource="http://purl.org/dc/dcmitype/StillImage" />
      </cc:Work>
    </rdf:RDF>
  </metadata>
  <defs
     id="defs8" />
  <sodipodi:namedview
     pagecolor="#ffffff"
     bordercolor="#666666"
     borderopacity="1"
     objecttolerance="10"
     gridtolerance="10"
     guidetolerance="10"
     inkscape:pageopacity="0"
     inkscape:pageshadow="2"
     inkscape:window-width="640"
     inkscape:window-height="493"
     id="namedview6"
     showgrid="false"
     inkscape:zoom="0.4609375"
     inkscape:cx="256"
     inkscape:cy="256"
     inkscape:window-x="0"
     inkscape:window-y="0"
     inkscape:window-maximized="0"
     inkscape:current-layer="svg4" />
  <path
     d="M 494,108.5 C 492.53692,94.155582 476.25029,98.768767 466.34312,98 320.39541,98 174.44771,98 28.5,98 14.155582,99.463081 18.768767,115.74971 18,125.65688 c 0,92.94771 0,185.89541 0,278.84312 1.463081,14.34442 17.749712,9.73123 27.65688,10.5 145.94771,0 291.89541,0 437.84312,0 14.34442,-1.46308 9.73123,-17.74971 10.5,-27.65688 0,-92.94771 0,-185.89541 0,-278.84312 z M 109,393 c -23.333333,0 -46.666667,0 -70,0 0,-91.33333 0,-182.66667 0,-274 23.333333,0 46.666667,0 70,0 0,11.66667 0,23.33333 0,35 -10.965554,0.41457 -22.092512,-0.88871 -32.941875,0.7625 -9.979663,6.45631 -4.737733,19.87786 -6.058125,29.92576 0,54.56058 0,109.12116 0,163.68174 1.586784,13.75548 17.682997,8.63749 27.23688,9.63 7.98529,-1.01413 14.6716,-0.72929 11.76312,9.15034 0,8.61655 0,17.23311 0,25.84966 z M 421,175 c 0,54 0,108 0,162 -110,0 -220,0 -330,0 0,-54 0,-108 0,-162 110,0 220,0 330,0 z m 52,218 c -23.33333,0 -46.66667,0 -70,0 0,-11.66667 0,-23.33333 0,-35 10.95693,-0.37627 22.04615,0.80548 32.90812,-0.68906 9.96451,-5.76501 4.80369,-18.84443 6.09188,-28.3854 0,-54.94185 0,-109.88369 0,-164.82554 -1.36994,-14.10356 -17.58728,-9.21812 -27.27688,-10.1 -7.98473,1.02691 -14.62712,0.71148 -11.72312,-9.15034 0,-8.61655 0,-17.23311 0,-25.84966 23.33333,0 46.66667,0 70,0 0,91.33333 0,182.66667 0,274 z"
     id="path2"
     inkscape:connector-curvature="0" />
</svg>
