<?xml version="1.0" encoding="UTF-8" standalone="no"?>
<svg
   xmlns:dc="http://purl.org/dc/elements/1.1/"
   xmlns:cc="http://creativecommons.org/ns#"
   xmlns:rdf="http://www.w3.org/1999/02/22-rdf-syntax-ns#"
   xmlns:svg="http://www.w3.org/2000/svg"
   xmlns="http://www.w3.org/2000/svg"
   xmlns:sodipodi="http://sodipodi.sourceforge.net/DTD/sodipodi-0.dtd"
   xmlns:inkscape="http://www.inkscape.org/namespaces/inkscape"
   width="512"
   height="512"
   viewBox="0 0 512 512"
   version="1.1"
   id="svg8"
   sodipodi:docname="subwoofer.svg"
   inkscape:version="0.92.1 r15371">
  <metadata
     id="metadata14">
    <rdf:RDF>
      <cc:Work
         rdf:about="">
        <dc:format>image/svg+xml</dc:format>
        <dc:type
           rdf:resource="http://purl.org/dc/dcmitype/StillImage" />
      </cc:Work>
    </rdf:RDF>
  </metadata>
  <defs
     id="defs12" />
  <sodipodi:namedview
     pagecolor="#ffffff"
     bordercolor="#666666"
     borderopacity="1"
     objecttolerance="10"
     gridtolerance="10"
     guidetolerance="10"
     inkscape:pageopacity="0"
     inkscape:pageshadow="2"
     inkscape:window-width="640"
     inkscape:window-height="493"
     id="namedview10"
     showgrid="false"
     inkscape:zoom="0.4609375"
     inkscape:cx="256"
     inkscape:cy="256"
     inkscape:window-x="0"
     inkscape:window-y="0"
     inkscape:window-maximized="0"
     inkscape:current-layer="svg8" />
  <path
     d="m 302.2,317.97 c 37.4379,1.25266 68.9381,-37.30239 60.1501,-73.74641 -6.34494,-36.83159 -50.17443,-59.92671 -84.12979,-44.2214 -34.84265,13.30298 -49.19514,60.66897 -27.14238,90.88453 11.19661,16.73251 31.0061,27.34086 51.12207,27.08328 z m 0,-102.77 c 30.09686,-1.33889 51.96081,35.25762 36.37689,61.09348 -13.14299,26.94314 -55.19765,28.85524 -70.90511,3.40261 C 248.59303,253.36666 269.87245,214.17568 302.2,215.2 Z M 99.1,209.4 c 32.70418,1.411 56.26758,-38.42586 39.42344,-66.45371 C 124.3122,113.7414 78.732826,111.64592 61.741348,139.2515 41.091015,167.78557 64.110236,210.4814 99.1,209.4 Z m 0,-69.92 c 21.49843,-1.32134 33.31425,28.28363 17.54625,42.55125 C 102.38105,198.08862 72.875867,185.65898 74.05,164.32 73.737628,150.9037 85.827359,139.19979 99.1,139.48 Z m 0,256.42 c 32.70418,1.411 56.26758,-38.42586 39.42344,-66.45371 C 124.3122,300.2414 78.732826,298.14592 61.741348,325.7515 41.091015,354.28557 64.110236,396.9814 99.1,395.9 Z m 0,-69.9 c 21.48837,-1.32478 33.31738,28.25711 17.54625,42.52125 C 102.38105,384.57862 72.875867,372.14898 74.05,350.81 73.739017,337.40506 85.819651,325.69774 99.1,326 Z m 205.04,69.9 c 65.46979,1.28212 126.48181,-50.1259 136.86452,-114.67627 12.33902,-62.11235 -24.17005,-129.04675 -82.79436,-152.73873 -58.08397,-25.78184 -131.7587,-4.70695 -167.6583,47.66517 -38.62979,52.02199 -32.84159,130.54229 12.77615,176.49705 25.86932,27.39094 63.15866,43.44949 100.81199,43.25278 z m 0,-258.33 c 58.09222,-1.23593 111.83029,46.15379 118.06202,103.8837 8.44037,56.64433 -30.2291,115.17833 -85.51877,129.88279 C 282.71751,387.86035 220.13985,359.4402 196.62262,308.2446 171.09795,257.88708 188.42383,191.23465 235.11683,159.55329 255.10492,145.2871 279.58343,137.49527 304.14,137.57 Z M 492,95 C 490.35056,80.959534 474.23303,85.902564 464.48933,85 319.32622,85 174.16311,85 29,85 14.959534,86.649436 19.902564,102.76697 19,112.51067 19,214.00712 19,315.50356 19,417 c 1.649436,14.04047 17.766971,9.09744 27.510675,10 145.163105,0 290.326215,0 435.489325,0 14.04047,-1.64944 9.09744,-17.76697 10,-27.51067 C 492,297.99288 492,196.49644 492,95 Z m -21,310 c -144,0 -288,0 -432,0 0,-100 0,-200 0,-300 144,0 288,0 432,0 0,100 0,200 0,300 z"
     id="path6"
     inkscape:connector-curvature="0" />
</svg>
