<?xml version="1.0" encoding="UTF-8" standalone="no"?>
<svg
   xmlns:dc="http://purl.org/dc/elements/1.1/"
   xmlns:cc="http://creativecommons.org/ns#"
   xmlns:rdf="http://www.w3.org/1999/02/22-rdf-syntax-ns#"
   xmlns:svg="http://www.w3.org/2000/svg"
   xmlns="http://www.w3.org/2000/svg"
   xmlns:sodipodi="http://sodipodi.sourceforge.net/DTD/sodipodi-0.dtd"
   xmlns:inkscape="http://www.inkscape.org/namespaces/inkscape"
   width="512"
   height="512"
   viewBox="0 0 512 512"
   version="1.1"
   id="svg4"
   sodipodi:docname="vga cable.svg"
   inkscape:version="0.92.1 r15371">
  <metadata
     id="metadata10">
    <rdf:RDF>
      <cc:Work
         rdf:about="">
        <dc:format>image/svg+xml</dc:format>
        <dc:type
           rdf:resource="http://purl.org/dc/dcmitype/StillImage" />
      </cc:Work>
    </rdf:RDF>
  </metadata>
  <defs
     id="defs8" />
  <sodipodi:namedview
     pagecolor="#ffffff"
     bordercolor="#666666"
     borderopacity="1"
     objecttolerance="10"
     gridtolerance="10"
     guidetolerance="10"
     inkscape:pageopacity="0"
     inkscape:pageshadow="2"
     inkscape:window-width="640"
     inkscape:window-height="493"
     id="namedview6"
     showgrid="false"
     inkscape:zoom="0.4609375"
     inkscape:cx="256"
     inkscape:cy="256"
     inkscape:window-x="0"
     inkscape:window-y="0"
     inkscape:window-maximized="0"
     inkscape:current-layer="svg4" />
  <path
     d="m 38,255 c 5.614567,0.74701 15.836109,-3.11296 13,6.08473 -12.852352,15.72194 -36.468354,-5.41214 -24.60625,-21.42098 8.562468,-14.05513 21.375277,0.19403 27.927946,1.74214 -0.831843,-19.29639 -37.442767,-14.71884 -35.994508,5.97286 -3.981287,19.02692 19.637737,30.28006 34.225312,20.23 6.547213,-1.49924 5.804048,-15.95158 2.419258,-17.90662 C 49.863109,250.9322 39.771363,247.18441 38,251.74824 c 0,1.08392 0,2.16784 0,3.25176 z m 50,3.12 c 4.302344,-14.26922 -12.368885,-24.56374 -23.41,-13.81 -6.500045,15.77672 18.033589,-12.0802 17.47,7.45 -11.8044,-2.04194 -31.310893,12.35808 -12.760937,19.28187 8.577679,0.75072 11.721092,-5.516 17.223302,-1.02187 4.817934,1.34161 -0.783853,-9.23194 1.477635,-11.9 z m -6,-0.6 c 2.457099,17.50778 -27.743919,5.34009 -8.14,0.07 2.035216,1.3172 9.495641,-4.98308 8.14,-0.07 z m 43.8,-17.22 c -8.61626,3.97185 -9.03394,4.02322 -17.46,-0.01 -7.34739,0.97203 -9.084646,6.79449 -10.364122,-0.29 -6.245114,0.15883 -1.511032,11.29685 -2.985878,16.22595 1.234185,5.04737 -3.618137,16.18124 5.07061,13.77405 2.80992,-5.60475 -1.083394,-16.19815 2.10689,-22.88875 11.36118,-8.62615 10.12836,9.23441 9.8125,16.35821 -2.93148,9.19676 8.21587,8.06927 5,-0.56831 -4.44856,-10.89811 10.73359,-27.97079 13,-9.99703 1.20568,5.16903 -2.50565,15.25506 2.02824,17.09588 7.64752,1.25299 2.45596,-10.3331 3.97176,-15.21183 0.71436,-6.91074 -1.44507,-15.12601 -10.18,-14.48817 z m 28.7,0 c -22.85774,-0.0931 -14.50355,40.70266 6.94813,29.47094 11.48717,-6.33725 1.34892,-13.55411 -4.11938,-3.09219 -13.99605,1.14879 -13.74211,-14.40691 -0.32341,-9.68875 13.71965,4.91173 13.87053,-10.50136 2.84841,-15.7075 1.40342,0.22544 -6.95462,-2.02811 -5.35375,-0.9825 z m -8.35,12.7 c 4.3704,-20.38885 27.17208,5.11704 5.34466,0 -1.78155,0 -3.56311,0 -5.34466,0 z M 191,230 c 9.31652,-2.9267 6.84024,5.9394 7,12.16946 0,9.27685 0,18.55369 0,27.83054 -9.31652,2.9267 -6.84024,-5.9394 -7,-12.16946 0,-9.27685 0,-18.55369 0,-27.83054 z m 36.88,13.76 c -8.46885,-9.17327 -16.65829,5.00666 -18.89824,-3.76 -7.64752,-1.25299 -2.45596,10.3331 -3.97176,15.21183 1.517,4.76454 -3.71827,16.28137 4.05649,14.78817 4.43624,-2.36087 0.62417,-12.69789 2.06617,-18.24781 5.22718,-15.79375 18.17017,-0.8909 13.86734,9.90491 -3.59721,7.41425 6.24281,12.86922 5,3.27229 -0.57261,-6.99009 1.54577,-14.84858 -2.12,-21.16939 z m 29.32,-1.52 c -9.20464,-6.20939 -14.63003,5.75695 -17.22824,-2.24 -4.39724,2.0067 -0.80578,12.00211 -1.97176,17.24007 0,8.25331 0,16.50662 0,24.75993 8.6536,2.25437 3.71898,-9.07949 5,-14.1977 14.99583,13.71819 28.26569,-15.84394 14.2,-25.5623 z m -1.65,22 c -27.43081,12.3386 -4.68588,-42.38207 2.38,-8.76 -0.0225,3.04608 -0.3956,6.25965 -2.38,8.76 z M 288,256.8 c -1.20207,18.42542 -19.67238,6.65621 -14.01,-6.56885 2.38181,-5.5827 -2.55948,-15.94192 -5,-7.18878 0.88527,8.64557 -2.40114,18.70994 3.2225,25.99388 12.02799,4.4326 12.89852,-3.43542 21.7775,0.96375 0,-10 0,-20 0,-30 -9.18894,-2.79441 -5.18768,7.60138 -6,13.18358 0.007,1.20092 -0.0143,2.43244 0.01,3.61642 z m 21.5,9.42 c -6.55076,-3.42606 -2.26152,-13.75329 -3.5,-20.31595 5.29759,-2.19812 8.55626,-5.68397 0,-6.91817 3.29911,-8.9739 -5.34868,-9.85488 -5,-1.29939 -3.97426,4.8233 1.24002,6.94896 0,14.42648 -1.93511,8.31719 2.42442,25.55868 11.07344,16.32364 -0.46242,-1.25577 0.35076,-4.18009 -2.57344,-2.21661 z M 489.44,248.3 c -43.78,-26.27333 -87.56,-52.54667 -131.34,-78.82 -12.79714,-5.94711 -15.60875,9.79886 -14.1,18.93534 0,48.78155 0,97.56311 0,146.34466 1.70652,13.9836 16.55011,7.89068 23.62063,2.03899 41.15581,-24.87653 82.76476,-49.09576 123.63609,-74.38493 4.08141,-3.9431 3.13212,-11.33284 -1.81672,-14.11406 z M 362,318.77 c 0,-41.83333 0,-83.66667 0,-125.5 34.88,20.93667 69.76,41.87333 104.64,62.81 -34.88,20.89667 -69.76,41.79333 -104.64,62.69 z"
     id="path2"
     inkscape:connector-curvature="0" />
</svg>
