<svg xmlns="http://www.w3.org/2000/svg" width="512" height="512"><path d="M255.98 127.26c-81.64-1.42-158.8 58.67-178 137.93C57 341.47 92.58 428.22 160.75 468.2c68.4 43.13 164.47 32.64 222-24.16 58.3-53.72 74.16-146.6 36.92-216.59-30.47-60.55-95.78-100.9-163.69-100.2zm0 313.13c-63.12 1.35-121.52-50.15-128.28-112.88-8.97-60.39 31.35-122.86 89.86-139.97 57.06-18.95 124.45 8.65 152.15 61.92 30.3 53.27 15.03 126.47-33.9 163.3a129.08 129.08 0 0 1-79.83 27.63zM99.43 55c106.2-.13 212.43.27 318.63-.2 30.41 2.82 26.35-43.49-2.7-37.75-107.13.02-214.29-.28-321.42.15-30.4-2.8-26.33 43.49 2.7 37.75z"/></svg>