<svg xmlns="http://www.w3.org/2000/svg" width="512" height="512"><path d="M146.9 135H268v74.72c7.42 28.05 33.97 4.56 27-14.87V135h76c.52 26.63-1.06 53.42.83 79.94 14.69 21.88 27.43-6.06 23.17-21.44-.48-26 .99-52.15-.8-78.04-6.68-12.13-22.5-5.92-33.91-7.46H146.9c-17.45-.27-17.39 27.29 0 27zm-8.24 210.72c11.42 50.02 77.14 70.37 119.02 44.95 15.35-7.15 22.78-30 36.52-9.37 33.5 24.19 88.19 8.1 99.22-32.81 3.33-18.65.78-38.09 1.58-57.13.36-11.2 1.83-30.62-14.43-29.36-78.8.22-157.66-.43-236.43.33-16.97 4.77-11.13 24.25-12.14 37.3.93 13.73-2.1 28.23 2 41.37-.67-1.67 4.67 6.97 4.66 4.72zM295 289h76c-.78 17.75 1.77 35.88-1.71 53.33-11.17 32.46-65.58 30.5-73.51-3.21-1.64-16.59-.39-33.44-.78-50.12zm-136 0h109c-.9 18.64 2.16 37.78-2.34 55.99-17.09 42.91-92.81 38.4-101.15-8.27-2.6-11.25-7.68-20.69-5.51-33.16V289zM468.2 17c-142.38.1-284.76-.18-427.13.14C20.5 18.62 14.99 40.32 17 57.34c.1 137.86-.19 275.72.14 413.58 1.47 20.56 23.18 26.1 40.2 24.08 137.86-.1 275.72.19 413.58-.14 20.56-1.47 26.1-23.18 24.08-40.2-.11-137.87.22-275.77-.17-413.61-1.11-13.35-13.3-24.3-26.63-24.05zM440 440H72V72h368v368z"/></svg>