<svg xmlns="http://www.w3.org/2000/svg" width="512" height="512"><path d="M164.92 251.74L262.48 56.6c10-20.54-13.03-33.2-30.47-29.6-65.07.1-130.15-.22-195.21.16-20.23 2.14-21.35 25.9-11.2 39l92.83 185.64c-32.81 65.88-66.05 131.57-98.6 197.57-6.88 19.14 13.82 30.83 30.2 27.63 66.2-.3 132.46.59 198.63-.44 22.16-4.94 17.47-29.34 7.16-43.02l-90.9-181.8zM73.1 68h137.15l-68.58 137.15L73.1 68zm0 367l68.57-137.17L210.25 435H73.1zm414.6-292.98l-82.64-42.74c28.37-15.14 57.66-28.85 85.44-44.9C501.15 37.75 479 33.9 467.12 36h-167.8c-23.2 7.93-1.28 27.9 14.51 22h126.39c-21.56 11.39-43.65 21.9-64.89 33.83-10.67 12.4 7.46 19.11 16.45 23.48L440.23 140h-140.9c-23.2 7.93-1.28 27.9 14.51 22h169.09c10.67.3 14.36-15.4 4.77-19.98zM434.44 463h-70.27c-19.87-4.06-50.13-12.2-47.35-39.25 2.12-18.44 23.31-33.54 40.58-26.75 27.01-.49 54.2.98 81.1-.75 17.87-13.85-7.1-22.66-19.89-19.25h-54.44c-17.02-9.17-39.14 1.85-52.55 13.85-23.3 20.47-19.6 60.79 6.2 77.7 15.24 7.52 30.26 17.28 47.5 16.45 24.36-.58 48.98 1.18 73.18-.91 10.17-4.35 7.19-21.06-4.06-21.09z"/></svg>