<svg xmlns="http://www.w3.org/2000/svg" width="512" height="512"><path d="M319.27 233.38c14.63 15.3 36.05-11.8 18.43-23.05l-23.89-23.93c27.03-33.44 27.52-84.61 1.09-118.54 9.28-10.12 20.5-18.73 28.33-29.98 7.27-17.62-19.24-27.68-27.81-12.04L294.14 47.1c-33.93-26.4-85.1-25.95-118.53 1.1-10.5-9.62-19.42-21.29-31.06-29.43-17.62-7.29-27.66 19.24-12.05 27.81l22.6 22.62c-24.99 33.49-24.52 82.85 1.1 115.86-10.1 10.94-22.17 20.34-30.78 32.43-7.29 17.64 19.25 27.65 27.82 12.03l23.72-23.71c33.02 25.6 82.36 26.07 115.86 1.1 8.8 8.82 17.7 17.68 26.45 26.47zm-83.73-37.26c-10.92-.28-35.52-4.05-35.35-13.54l34.14-34.16 37.3 37.32a69.22 69.22 0 0 1-36.09 10.38zm-1.2-89.18l-38-37.98c22.37-15.77 54.13-16.14 76.87-.92l-38.87 38.9zm7.31 223.56c.22 13.81 14.63 10.06 23.67 10.5h113.21c14.33-7.4 4.58-22.8-7.36-25.38l-49.57-25.6 60.22-30.63c11.42-11.5-2.74-24.44-15.27-20.4H249c-16.4 8.03-1.83 26.1 11.97 21h86.49c-15.7 8-31.77 15.36-47.23 23.76-7.9 9.78 6.19 15.24 13.29 18.68L347.47 320H249c-4.84.66-7.02 6.27-7.35 10.5zm34.23 72.5h102.65c16.55-7.84 1.35-24.96-11.98-20-32.66-.24-65.38.5-98-.4-7.5-6.82 4.15-23.76-9.7-27.02-15.73-4.43-12.65 12.25-15.25 20.39.25 15.66 18.93 31.05 32.28 27.03zm110.94 61.38c.72-25.1-23.83-41.05-46.68-41.38-18.35.47-36.98-.95-55.16.72-20.6-1.5-50.55 20.48-39.98 41.27.61 8.24-1.3 16.93 1.07 24.85 12.43 12.52 23.7-3.42 19.93-15.91 4.6-12.4-14.3-7.94-4.29-20.6 8.86-14.78 26.62-9.24 40.84-10.31 16.99.19 34.38-.36 51.03.24 15.35 3.56 19.17 16.99 13.41 27.18 1.08 8.15-3.84 20.32 7.15 23.31 14.94 3.86 14.65-12.2 13.85-22-.7-2.15 1.47-6.48-1.17-7.37z"/></svg>