<svg xmlns="http://www.w3.org/2000/svg" width="512" height="512"><path d="M255.5 17.1c-16.26-.48-24.81 16.42-22.5 30.78.08 142.42-.16 284.84.12 427.24 1.5 24.55 40.45 26.48 44.41 2.2 1.08-43.27.17-86.67.47-130-.08-103.47.16-206.96-.12-310.42-1-11.1-11.39-19.98-22.38-19.8zM366 127.36c-17.14-.5-24.08 17.46-22 31.89.08 69.75-.15 139.52.11 209.27 1.34 27.23 45.33 24.82 43.89-2.24-.08-73.04.15-146.08-.11-219.11-.88-10.96-10.91-20.03-21.89-19.81zm-221.5 0c-17.08-.43-22.21 18.02-20.5 31.89.06 69.75-.13 139.52.1 209.27.07 27.28 43.55 24.62 40.9-2.24-.06-73.04.13-146.08-.1-219.11-.51-10.6-9.51-20.19-20.4-19.81z"/></svg>