<svg xmlns="http://www.w3.org/2000/svg" width="512" height="512"><path d="M309.26 70c-1.92-.84-.02 1.17 0 0zm-102.71 0c-1.63-1-.42 1.4 0 0zm102.09 392.24c-8.26-12.99-30.3-9.62-37.64-14.87V113.44c29.94-5.76 45.28-45.73 26.46-69.83-8.92-13.9-25.17-21.85-41-23-22.77-1.1-43.3 19.8-45.35 42.41-2.27 20.8 14.02 40.78 31.89 49.9v351.62c-13.65 9.17-35.59-21.3-43.4 4.33-1.42 16.1 17.8 24.21 31.2 26.01 20.47 5.35 32.9-16.87 50.89-17.14 11.68 16.37 41.69 3.4 26.96-15.49zM256 87.4c-12.6.7-25.21-22.53-6.5-17.4 8.91-2.84 6.22 5.93 6.5 11.72v5.68zm0-19.4c-5.26-1.16-15.51 2.44-17.3-2.02-.95-12.7 22.4-25.83 17.3-6.94V68zm2-20.62c9.99-2.66 27.74 19.32 15.16 20.62-4.55-1.48-15.31 3.25-15.16-2.93V47.38zm0 39.18c1.15-5.02-2.4-14.73 1.95-16.56h17.93c-.8 9.84-10.42 16.76-19.88 16.56z"/></svg>