<svg xmlns="http://www.w3.org/2000/svg" width="512" height="512"><path d="M484.68 20.02c-16.86-9.98-32.8 5.63-48.06 11.54-136.74 67.92-273.77 135.3-410.33 203.56-16.67 10.43-10.85 37.03 7.4 41.92L461.74 493c17.86 9.68 38.22-8.62 34.25-27.3-.14-143.03.28-286.09-.21-429.11-.97-6.83-5.29-12.97-11.11-16.57zM448 160.07c-6.42-17.85-27.87-20.63-42.64-23.08h-55.88c-19.32 2.1-33.85 17.15-39.64 34.98-.68 10.71-3.08 23.05 2.27 32.78 22.53 12.84 16.36-18.3 22.38-29.78 2.79-18.21 24.03-13.33 37.26-13.98 16.84 1.06 34.51-2.7 50.51 3.23 17.26 9.04.85 32.56 14.84 43 16.22-6.93 9.56 7.33 10.88 18.29-.38 9.71 2.5 26.08-6.64 8.3-10.69-12.54-27.5-15.65-41.16-11.81-18.9.3-38.43-.55-56.7.26-27.21 4.39-43.57 40.96-23.16 61.78 11.9 14 28.28 13.73 43.86 11.96h42.78c12.43 10.13 36.47-9.89 41.02-18.42v157.54l-152-77.3c-2.86-14.2 8.38.47 13.9 3.42 19.36 18.23 59.75 2.94 54.64-25.48 1.5-24.22-47.89-30.9-31.21-2.78 24.21 10.83-10.22 18.19-16.95 4.14-10.2-6.97-18.9-16.7-30.2-21.64-15.47.34-10.24 18.79-11.15 29.04-3.71 2.25-14.3-6.62-20.61-8.58L91.08 254.27 448 76.58v83.49zM429.96 260c-2.74 16.31-21.28 20.38-35.17 19.98-15.9-.69-32.12 1.55-47.74-1.48-25.49-8.78-6.95-41.27 14.96-34.52 17-.26 34.63.64 51.1-.7 8.32 1.2 16.92 7.65 16.85 16.72z"/></svg>