<svg xmlns="http://www.w3.org/2000/svg" width="512" height="512"><path d="M426.02 459.43l-99.37-198.75c34.08-68.56 68.82-136.83 102.49-205.57 6.17-17.88-8.73-41.69-28.7-38.11H196.28c-20.35 4.39-27.52 31.65-16.22 47.94L272.94 256h-33.1c-9.5-26.1-17.6-52.82-28-78.53-12.72-14.74-21.93 5.15-21.32 17.05l-13.68 83.83c-7.42-34.5-13.51-69.35-21.79-103.62-7.68-19.65-22.54.14-21.16 12.6l-13.91 85.43-17.5-90.77c-11.25-21-27.22 3.44-18.77 17.62l26.36 138.57c8.48 19.9 25.36 1.13 23.4-13.01l13.74-82.4 20.5 95.68c8.01 19 25.2 1.72 23.14-12.22l16.64-102.21c6.8 19.73 10.57 40.71 20 59.37 5.67 6.78 15.95 2.3 23.77 3.59h21.69c-32.32 62.24-65 124.3-97.08 186.64-6.24 17.75 13.93 23.95 27.5 21.37h205.96c17.83.64 28.4-22.32 16.69-35.56zM231.22 77h142.55L302.5 219.54C278.74 172.03 255 124.5 231.22 77zm0 390l71.28-142.54L373.77 467H231.22z"/></svg>