<svg xmlns="http://www.w3.org/2000/svg" width="512" height="512"><path d="M325.3 214.3l-29.27-34.56c-.44-10.37-12.18-14.46-18.45-21.38l-49.81-42.31c-20.08-8.97-17.57 17.45-3.38 22.67 18.86 15.94 37.57 32.08 56.53 47.9-.3 5.08 10.9 7.14 15.2 11.02l29.18 16.66zm65.3-63.27c1.23-63.39-48.55-122.44-111.04-132.52-60.1-11.96-124.86 23.42-147.72 80.17-24.02 54.24-5.96 122.64 41.33 158.3A134.54 134.54 0 0 0 235 284v26c-8.49.87-17.96-2.38-24.98 3.02-8.03 4.65-4.32 14.96 1.6 19.65l28.04 34.13c-11.1 14.15-23.55 27.41-33.82 42.09-3.21 8.12 5.77 15.24 13.5 13.13 5.02 1.67 17.45-4.07 15.66 4.4.42 21.37-.86 42.89.68 64.15 6.24 8.78 19.2 4.92 28.63 4.79 10.79-5.23 5.37-18.7 6.69-28.3V422c8.6-1.29 19.75 3.27 26.35-3.96 6.45-9.35-5.36-16.94-10-23.9l-22.46-27.33c11.1-14.2 23.64-27.44 33.86-42.2 2.5-6.4-3.05-12.17-8.71-13.73-4.92-2.77-15.06 1.16-19.04-1.98v-24.04c66.68-6.35 120.67-66.84 119.6-133.83zM268.98 402h-33.4l16.7-20.33 16.7 20.33zm-16.7-50.67L235.58 331h33.4l-16.7 20.33zm3.25-104.58c-48.45 1.11-92.78-40-95.42-88.37-4.86-48.27 32.82-95.61 80.87-101.95 46.99-8.31 96.27 24.34 107.23 70.7 12.97 46-14.69 98.3-59.8 113.8a95.32 95.32 0 0 1-32.88 5.82z"/></svg>