<svg xmlns="http://www.w3.org/2000/svg" width="512" height="512"><path d="M266.2 166H323c.78 10.77-1.7 22.24 1.5 32.5 8.54 22.56 30.33 42.14 56.45 39.65 27-.12 52.2-24.1 49.05-51.84-.4-11.16.82-22.49-.68-33.55-5.64-9.56-18.21-4.47-27.41-5.76H266.2c-11.49.35-11.48 18.63 0 19zm75.8 0h70c-1.18 15.84 4.58 35-9.8 46.48-18.27 16.51-56.15 7.33-57.29-19.6-3.81-7.35-2.9-16.07-2.9-24.78-.83.12.7-2.11-.01-2.1zm55.25 99.56c-21.11-5.35-42.13 7.63-51.43 26.32-8.78 13.19-16.87 27.17-26.08 39.83-19.82 17.72-51.2-5.89-41.7-29.36 3.23-11.4 27.1-37.65 1.35-35.84-13.92 14.26-23.56 35.86-20.85 55.87 7.33 14.71 18.6 30.61 37.04 32.28 20.18 3.85 40.99-8.45 48.28-27.33 9.86-13.78 16.85-30.1 29.6-41.37 23.8-15.46 49.12 14.19 38.88 36.84-10.46 10.1-2.47 35.4 11.1 20.05 5.27-14.54 15.17-34.42 5.38-48.3-3.74-14.77-16.89-26.02-31.57-28.99zM476.88 100H198.9c-16.39.21-17.94 18.26-16.9 30.75V247H26.25c-19.8 6.74-.57 22.91 12.55 18H182c.22 43.96-.43 87.96.33 131.89 1.96 15.38 18.26 15.95 30.26 15.11h264.29c16.58-.3 19.5-18.22 18.12-31.25V118.2c.07-9.6-8.5-18.27-18.12-18.2zM459 377H218V135h241v242z"/></svg>