<svg xmlns="http://www.w3.org/2000/svg" width="512" height="512"><path d="M485.9 457.36l-149.5-42.28 149.52-42.32c20.53-13.68-6.4-25.97-19.65-16.24L295.04 405c-9.86 9.11-6.8 15.1-13.28.36l-94.94-191.48c26.17-53.37 53.28-106.34 78.88-159.95 4.68-14.6-9.6-28.91-24.12-26.94-54.31.12-108.64-.24-162.94.18-17.25 1.87-23.21 23.6-13.16 36.25l74.55 150.41c-40.08 81.1-80.59 162.02-120.4 243.25-5.7 13.73 8.3 31.12 22.44 26.89 82.69-.1 165.39.2 248.07-.15 20.39-1.83 21.51-25.74 11.4-38.87l-11.5-23.15c12.91 7.62 28.9 9.1 43.13 14.08 50 13.88 99.8 28.78 149.94 42.02 11.86.44 14.44-17.84 2.79-20.54zM115.1 69h96.63l-48.3 97.43L115.1 69zM73.2 442l90.22-181.96L253.64 442H73.2zM297.88 93H371c.36 22.78-3.82 49 15.4 66.1 29.86 31.49 92.21 21.32 104.91-22.15 3.38-17.61.96-35.85 1.69-53.75-1.78-14.99-19.37-8.96-29.73-10.2H297.9c-13.7-.62-13.6 20.64-.02 20zM393 93h80c-1.29 18.32 5.22 40.74-11.7 53.86-22.13 19.98-68.44 8.19-68.3-24.78V93zm-22 175.36l-77.28 32.27c-18.4 15.34 8.45 25.56 20.36 14.25l62.57-26.07c20.83 41.94 89.26 42.5 110.79.93 9.41-18.97 4.22-40.6 5.56-61 3.27-14.65-11.52-18.8-23.14-16.76H297.9c-23.46 7.6-.9 26.76 14.52 21H371v35.38zM393 233h80c-1.61 18.37 5.24 40-9.12 54.71-21.21 23-70.94 11.95-70.88-22.43V233z"/></svg>