<svg xmlns="http://www.w3.org/2000/svg" width="512" height="512"><path d="M229.8 240.3c9.12 2.5 18.23 7.13 27.35 8.36 10.77-4.74 24.41-4.85 31.77-15.1 6.4-5.92 12.81-11.82 14.1-20.9 2.1-7.97 7.9-15.95 2.7-23.93-3.42-8.87-4.29-19.3-12.83-25.01-5.9-6.4-11.79-12.84-20.87-14.1-7.98-2.1-15.96-7.86-23.94-2.7-9.88 3.26-20.3 5.51-27.58 13.53-5.35 5.23-14.54 8.21-13.68 17.08-2 10.69-4.44 21.37-1.04 32.06l2.22 13.27M404.4 422c-101.27.16-202.57-.33-303.82.25-22.92 7.8-30.3 40.42-15.84 59.17 6.01 12.3 19.7 13.52 31.63 12.58 96.9-.16 193.83.33 290.7-.25 22.94-7.79 30.3-40.41 15.86-59.17-4.18-6.28-10.48-12.5-18.53-12.58zm-146.22-50.76c80.05 1.45 155.42-58.72 172.24-136.9 18.33-73.8-17.91-156.3-84.32-193.18C279.35 1.29 187.24 13.6 133.25 69.54c-55.93 54-68.24 146.1-28.38 212.86 30.63 54.13 91 89.45 153.31 88.84zm0-301.14c60.7-1.3 116.87 48.23 123.37 108.56 8.84 59.14-31.64 120.19-89.36 135.47-56.28 17.22-121.57-12.36-146.1-65.77-26.61-52.58-8.53-122.14 40.15-155.28a123.9 123.9 0 0 1 71.94-22.98z"/></svg>