<svg xmlns="http://www.w3.org/2000/svg" width="512" height="512"><path d="M286.72 143.27c-17.75 22.94-32.09 56.88-17.02 84.6 17.17 30.12 64.37 33.1 85.74 6.12 10.67-5.96 13.67-19.65 20.6-29.34 10.28-16.7 17.64-38 38.24-44.04 23.86-7.45 45.25 17.16 37.46 39.89-3.28 14.36-19.77 51.56 9.1 39.59 11.8-23.02 19.7-53.01 6.9-77.19-18.88-33.44-74.18-32.56-91.61 1.77-10.2 10.5-15.4 25.25-23.45 37.56-8.36 15.47-22.62 31.82-42.27 28.64-27.85-2.32-30.41-34.84-19.1-54.36 7.62-11.25 25.97-39.82-1.3-35.92l-3.28 2.72zM459.98 287c-64.06.08-128.12-.16-192.17.12-15.55-1.54-17.43 12.38-15.81 23.91.29 20.6-.57 41.3.42 61.82 7.67 15.36 35.55 7.86 30.58-9.92V317c59.7-.27 119.5.54 179.14-.4 11.8-5.5 11.13-26.74-2.16-29.6zm-271.23-27.23c33.86-68.12 68.37-135.95 101.83-204.25 6.32-18.18-9.34-41.45-29.32-37.52-68.27.25-136.6-.5-204.82.38-17.46 6.6-24.17 29.6-13 44.54l97.29 195.71C106.85 326.88 72.5 394.91 38.93 463.3c-6.27 16.5 9.86 34.04 26.72 30.7h205.24c24.33-1 25.2-29.66 12.53-44.43l-94.67-189.8zM93.93 79h141.63l-70.81 141.63L93.93 79zm0 386l70.8-141.63L235.57 465H93.93z"/></svg>