<svg xmlns="http://www.w3.org/2000/svg" width="512" height="512"><path d="M259.3 263.68c1.83 24.31 30.03 39.98 51.99 30.04 16.64-5.94 21.2-24.08 31.1-36.9 7.22-8.3 8.63-21.02 19.63-25.3 23.44-10.17 39.43 19.25 30.09 38.31-12.85 12.13 6.88 30.43 12.32 11.52 10.26-20.07 7.2-44.77-10.18-59.43-18.68-15.1-51.51-6.89-58.45 16.65-8.97 12.62-15.71 27.29-26.28 38.43-22.55 16.05-46.51-15-28.84-35.14 10.64-6.57 12.06-31.64-4.55-21.28-10.05 12.15-15.67 27.61-16.83 43.1zM472.6 127c-81.61.06-163.23-.11-244.83.09-15.05-1.66-14.43 13.88-13.77 24.15V257h-84.08c23.04-47.53 46.59-94.84 69.3-142.5 4.22-13.55-5.76-33.48-21.62-30.5H32.96c-18.73 4.62-17.28 26.42-8.05 39.05l66.65 134.08-72.39 145.2c-8 17.89 11.44 28.97 26.73 25.67 47.43-.25 94.91.5 142.3-.38 16.8-5.2 11.95-20.71 3.95-30.75L129.9 277H214c.25 35.13-.5 70.3.38 105.4 1.72 15.32 14.5 25.87 29.49 22.6H472.6c15.72-4.61 23.4-22.46 21.4-37.91V137.14c-.9-9.8-14.15-9.77-21.4-10.14zM159.7 405H57.93l50.88-101.77L159.7 405zm-50.9-176.23L57.93 127H159.7l-50.9 101.77zM451 361H237V148h214v213z"/></svg>