<svg xmlns="http://www.w3.org/2000/svg" width="512" height="512"><path d="M305.3 17c-33.4.11-66.8-.23-100.19.17-14.04-.8-19.22 11.52-17.11 23.12.53 14.27-1.15 28.81 1.02 42.9 6.6 16.85 30.78 5.57 25.98-10.42V44h82c.5 13.04-1.11 26.34 1.02 39.19 6.6 16.85 30.78 5.57 25.98-10.42-.3-15.7.62-31.5-.49-47.12-3.1-6.68-11.57-8.4-18.21-8.65zM268 450.27c-.13-125.11.26-250.25-.2-375.35-2.07-19.1-29.34-10.11-23.8 6.8v382.64c-13.93 9.36-36.17-21.45-44.21 4.32-1.55 16.12 17.72 24.26 31.1 26.06 21.6 5.94 34.87-20.28 54.7-16.57 12.85 19.1 41.2-3.12 21.37-17.99-10.38-9.51-25.43-12.15-38.96-9.91z"/></svg>