<svg xmlns="http://www.w3.org/2000/svg" width="512" height="512"><path d="M193.4 170.8c4.35 27.52 43.95 36.06 61.04 15.13 7.27-12.21 14.07-25.08 21.35-37.5 9.13-19.38 42.93-15.72 42.11 7.81 5.4 10-16.4 40.95 7.2 33.12 10.22-17.38 12.45-39.97-.95-55.99-14.73-18.12-47.1-15.55-58.04 5.37-8.92 10.65-14.37 24.2-21.87 36.02-9.6 16.23-39.08 7.7-37.47-11.85-7.63-13.15 27.53-39.23 1.7-40.12-11.06 12.02-22.05 32.18-15.06 48.01zm4.26 113.22c11.26-2.1 6.2-15.64 7.34-23.76-2.72-14.57 10.56-27.27 25-26.26 23.01.06 46.17-.1 69.07.04 19.78 1.76 18.35 17.78 16.93 32.05-4.8 11.62 11.14 27.07 15 9.48-1.05-9.27 1.17-16.97 2.54-25.13-2.58-22.85-27.2-33.37-47.77-31.42-20.58.35-41.26-.73-61.76.57-20.43 1.73-35.98 20.98-34 41.05 1.15 8.13-3.96 21.78 7.65 23.38zm-.06 107.5c43.06-11.49 85.86-24.19 128.82-36.14 13.39-7.73-2.57-16.71-11.54-17.1l-115.23-32.62c-17.94 1.5-4.43 18.14 7.12 17.15 4.85 3.06 16.43 1.07 16.22 7.95v38.67c-10.03 3.25-20.58 5.19-30.27 9.3-5.17 4.24-1.72 13.02 4.88 12.79zm40.4-59.97l59.76 16.92-59.76 16.9v-33.82zM370.26 15c-77.14.2-154.32-.4-231.43.3-14.65 3.13-11.62 19.52-11.83 30.65v436.5c.14 14.43 15.91 15.48 26.77 14.55 73.13-.2 146.3.4 219.4-.3 14.65-3.13 11.62-19.52 11.83-30.65V29.55c.1-7.82-6.97-14.66-14.74-14.55zM355 467H157V45h198v422z"/></svg>