<svg xmlns="http://www.w3.org/2000/svg" width="512" height="512"><path d="M328.97 359.17c-8.18 1.83-16.97.35-25.4.83-14.45-3.87-21.18 11.3-18.57 22.95 6.1 10.9 6.38-6.35 6.23-11.61 4.77-8.9 15.59-4.15 23.8-5.33 8.07 1.16 17.81-3.16 23.62 3.98-1.3 5.83 2.1 25.84 6.35 11.05 2.62-11.21-2.54-21.71-16.03-21.87zm15.95 39.51c-5.53-4.66-13.75 1.94-20.46 2.57-13.09 4.13-26.89 6.76-39.53 11.84-.7 7.86 11.76 6.26 17.3 9.28 13.26 3.67 26.44 7.64 39.73 11.12 8.26-6.93-8.67-8.1-13.87-10.24l-29.34-8.3 44.04-12.47c1.41 2.57 2.85-5.26 2.13-3.8zM196.32 91h121.75c9.56-2.38 4.76-14.39 5.93-21.63-.29-15.91.58-31.93-.45-47.78-4.98-6.45-14.58-2.5-21.77-3.59H196.32c-10.02 1.79-5.17 14.04-6.32 21.23.33 15.94-.66 32 .5 47.85a6.45 6.45 0 0 0 5.82 3.92zM311 79h-77.13L311 59.38V79zm0-49v19.93L232.63 30H311zm-109 0c13.35.36 26.02 6.04 39.08 8.63l63.44 16.34C272 62.9 239.55 71.48 206.98 79c-8.66 2.24-3.68-9.14-4.98-14.26V30zm102.87 423.87l-17.58 10.26-18.32-74.18c17.73-28.9.88-70.57-31.61-79.57-31.7-11.05-68.81 13.53-71.15 46.97-3.7 28.89 19.36 57.57 48.32 60.29l58.48 54.82c-6.66 4.79-15.78 7.13-20.4 14 .6 14.1 14.91 3.75 21.4-.26 12.89-7.88 26.51-14.72 38.93-23.28 4.07-5.23-2.4-12.48-8.07-9.05zm-126.58-90.9c-1.04-27.69 29.24-50.04 55.39-40.8 26.56 7.24 38.99 42.4 22.71 64.67-14.5 23.36-51.66 25.16-68.34 3.28a42.58 42.58 0 0 1-9.76-27.15zm53.56 54c13.2 2.13 29.54-25.73 30.17-3.65l10.25 41.53c-13.47-12.62-26.98-25.32-40.42-37.88zm85.82-92.53c-5.76 4.78-7.76 13.68-12.52 19.15-18.27 6.55-13.35-16.34-9.75-24.36-13.1 1.55-15.07 26.88-.7 30.92 14.55 5.62 19.47-9.58 25.15-19.29 10-15.62 26.38 1.77 17.13 14.6 17.66 3 6.4-37.08-12.46-26.28a14.41 14.41 0 0 0-6.85 5.26zm-55.5-147.27c-11.69.5-24.36-2.42-35.22 2.96-17 10.34-1.47 33.17 15.1 28.87 12.61-.94 29.32 4.02 36.72-9.68 5.56-11.03-5.43-22.75-16.6-22.15zm.02 25.74c-10.4-.46-21.4 1.69-31.35-1.64-14.43-11.9 5.42-21.38 16.8-18.26 9.44.43 24.21-2.84 26.36 10.09-.05 6.1-6.32 9.9-11.81 9.81zM219.7 248.4c5.66 4.2 12.79-3.6 19-4.9 10.96-7.92 19.12 16.59 33.11 4.27 10.3-5.08 7.98-17.02 8.18-26.32-2.96-6.76-13.06-2.03-19.2-3.44-13.13.2-26.38-.41-39.45.3-5.68 9.85 9.83 5.98 15.46 6.7 7.85-3.33 7.27 6.42 5.34 10.26-7.35 3.81-16.02 5.72-22.49 10.79l.06 2.36zM249 225h25c2.8 11.11-6.33 24.36-18.49 17.42-5.8-3.48-6.82-11.25-6.51-17.42zm-14.13 119.02c-8.36-5.93-19.98-5.19-28.27.31-9.73 6.02-12.14 19.04-7.4 29.03 3.8 10.16 15.83 16.37 26.32 14.18 11.1-1.98 19.67-12.71 18.47-24 .49-4.36-2-8.25-3-12.38"/></svg>