<svg xmlns="http://www.w3.org/2000/svg" width="512" height="512"><path d="M485.6 388c-21.32 5.2-9.48-26.74-22.5-37.25-13.98-24.54-40.71-41.67-69.1-42.75 1.98-6.96-1.26-26.77-9-13.9 6.58 22.44-22.15 12.94-34.26 23.74l-69.5-51.53c4.13-7.67-4.57-18.44 5.22-22.24l66.17-48.92c12.2 9.66 38.6 1.3 32.37 22.78 7.7 12.91 10.92-6.94 9-13.93 42.33-.58 78.7-38 79.84-80 10.94 4.21 24.53-8.45 6.4-8-14.31-5.2-8.3-38.96-25.97-49.94-14.2-18.95-39.7-28.14-60.27-31.68 3.31-7.75-4.24-26-9-11.24 6.04 21.72-23.74 11-35.04 22.1C323.55 58.3 306.43 86.75 305.7 116c-6.55-1.03-29.3-.37-16.25 8 20.98-6.2 17.11 13.55 22.75 28.3.08 15.47 30.05 27.96 22.97 37.38l-61.79 46.37c-6.22-4.22-15.24-8.38-22.56-4.54-8.46 5.13-14.25 4.34-21.18-3.07l-55.78-41.25c24.33-12.28 29.48-46.42 38.63-63.2 12.77 4.3 20.33-10.26 3.37-8-16.36-.93-6.9-34.08-22.51-43.82C178.25 50.85 153.2 36.7 127 35.72c1.98-6.96-1.25-26.8-9-13.92 6.24 20.53-17.48 13.56-29.61 21.75C60.58 56.33 41.21 85.37 40.33 116c-7.99-3.08-28.6 4.3-11.25 8 21.05-5.13 9.64 26.55 22.16 37 13.16 24.32 39.07 41.27 66.76 42.86-1.94 6.97 1.18 26.96 9 14.06-6.55-22.18 21.29-12.25 33.5-22.16l70.45 51.07c-4.35 7.44 3.47 18.16-3.07 23.01l-65.55 47.35c-12.3-10.88-41.65-.53-35.33-23.09-7.77-12.93-10.89 7.07-9 14.06-41.23 1.94-76.95 38.53-77.67 79.84-7.99-3.08-28.6 4.3-11.25 8 21.06-5.13 9.64 26.6 22.16 37.07 13.14 24.37 39 41.5 66.76 43.08-1.94 6.97 1.19 26.96 9 14.05-6.32-20.94 18.17-12.76 30.46-20.73 29.35-12.01 49.61-41.95 51.02-73.47 8 3.04 28.82-4.25 11.4-8-22.54 4.5-9.32-32.68-25.72-43.04-10.75-13.04-25.67-21.7-4.62-30.36l50.88-36.87c6.91 4.6 16.35 9.07 24.36 4.54 8.15-6.23 13.41-1.77 20.44 4.33l52.72 38.95c-22.81 12.9-26.92 46.57-36.23 62.45-9.37-3.96-26.02 6.83-8.23 8 21.1-6.01 10.87 22.8 21.55 33.71 13 26.39 40.58 44.83 69.99 46.43-1.94 6.97 1.18 26.97 9 14.06-6.27-20.67 17.57-12.89 29.78-20.73 29.07-12.22 48.64-42.23 50.06-73.47 5.46.92 26.3-.49 11.74-8zM394 63.5c25.62-1.33 58.83 33.49 48.19 52.5H394V63.5zm0 60.5h52.1c-1.36 27.23-24.41 51.54-52.1 52.23V124zm-9-60.4V116h-51.52c1.07-27.38 24.49-50.28 51.52-52.4zM333.6 124H385v52.1c-27.14-1.94-49.47-25.12-51.4-52.1zM118 176.1c-25.13.81-55.9-34.07-45.76-52.1H118v52.1zm0-60.1H68.1c-2-24.99 31.41-58.47 49.9-48.39V116zm9-52.5c25.88-1.54 60.5 32.88 49.8 52.5H127V63.5zm0 112.72V124h53.7c-1.55 28.05-25.48 51.5-53.7 52.22zm-9 272.17c-25.2.76-55.86-34.34-45.76-52.39H118v52.39zm0-60.4H68.1c-2.03-24.98 31.5-58.2 49.9-48.09V388zm9 60.5V396h53.7c-2.34 27.36-26.07 51.21-53.7 52.49zm53.82-60.5H127v-52.22c27.42 1.42 52.37 24.38 53.82 52.22zM385 448.4c-25.48.97-57.57-33.73-47.39-52.4H385v52.4zm0-60.4h-51.52c-1.94-25.64 32.86-58.2 51.52-48.09V388zm9 60.5V396h52.1c-2.34 26.79-24.7 51.02-52.1 52.5zm0-60.5v-52.23c25.54-1.38 58.87 33.23 48.19 52.23H394z"/></svg>