<svg xmlns="http://www.w3.org/2000/svg" width="512" height="512"><path d="M433.76 414.63c59.5-64.2 77.96-162.15 45.94-243.54C446.92 82.1 357.15 17.97 262.17 16.81 201.99 14.9 141.95 37.95 97.4 78.23c-15.02-13.9-28.05-30.36-44.46-42.46-21.43-8.8-33.38 23.41-14.4 33.73l34.35 34.35C15.59 170.12.49 268.82 35.56 349.07 71.27 435.97 161.9 496.57 256 495.3c55.32.28 109.91-20.69 152.15-56.15 15.17 14.12 28.44 30.7 44.98 43.04 21.43 8.8 33.39-23.42 14.42-33.74-11.26-11.27-22.57-22.55-33.79-33.82zM256 424.37c-79.18 1.56-153.12-60.48-165.72-138.6-8.67-46 3.92-95.05 32.73-131.8L358.04 389c-28.97 22.46-65.29 35.54-102.04 35.37zm127.66-59.84L147.48 128.36c52.8-47.06 135.92-54.12 195.76-16.32 66.68 38.9 98.87 126.93 71.43 199.35-6.99 19.4-17.66 37.48-31.01 53.14z"/></svg>