<svg xmlns="http://www.w3.org/2000/svg" width="512" height="512"><path d="M393.84 436.8c52.29-54.6 64.71-142.27 29.17-209.08C387.58 156 302.2 113.74 223.73 130.2c-32.78 6.35-63.5 22.13-88.3 44.41-11.5-10.8-21.45-23.59-34.06-32.99-17.2-6.95-25.76 18.71-10.72 26.64l25.85 26.23c-48.25 55.8-57.1 141.18-20.84 205.5 37.26 71.12 124.19 111.37 202.42 92.41 27.6-6.28 53.55-19.29 75.56-37.04 10.96 10.26 20.38 22.5 32.45 31.36 17.2 6.86 25.68-18.75 10.67-26.67l-22.92-23.25zm-135.55 5.24c-63.54 1.36-122.33-50.46-129.13-113.61-4.55-33.45 5.27-68.24 25.83-94.9l180.18 182.8c-22.04 16.42-49.42 25.8-76.88 25.71zm97.05-44.3L173.85 213.6c43.17-39.05 112.95-42.53 159.73-7.85 51.2 34.86 70.27 108.51 41.18 163.44a134.29 134.29 0 0 1-19.42 28.55zM96.13 55c106.9-.16 213.8.32 320.69-.24 30.58 2.06 26.62-44.73-2.72-39.7-107.83.02-215.68-.34-323.5.18-30.58-2.06-26.62 44.73 2.72 39.7l2.8.06z"/></svg>