<svg xmlns="http://www.w3.org/2000/svg" width="512" height="512"><path d="M360 211.9c-3.14-14.88-20.6-8.54-31.48-9.9H161.94c-14.92 3.1-8.58 20.58-9.94 31.45 1.44 9.86-3.66 22.22 4.35 29.79 8.1 45.27 71.5 60.26 102.88 29.26 11.33-23.68 27.32 13.41 47.93 7.51 27.44 3.14 62.56-22.52 52.84-52.05V211.9zm-101 42.6c-.81 37.67-56.9 49.42-77.57 20.53-10.56-15.64-9.6-34.9-9.43-53.03h87v32.5zm51.1 27.9c-18.76 1.07-37.53-15.06-34.1-34.64V222h64c.48 12.27-.97 24.79.74 36.9 3.89 13.49-18.66 24.4-30.64 23.5zm94 96.73c55.36-62.83 61.22-162.47 13.55-231.32-13.6-11.25-12.27-20.55 1.13-29.66C442.84 93.76 467.6 70 491.21 45.22c13.6-19.97-19.39-38.58-31-18.35l-79.69 79.69c-63.34-54.6-162.87-59.46-231.19-11.22-11.24 13.7-20.59 12.88-29.8-.77-24.85-24.5-49.08-49.7-74.32-73.77-19.97-13.6-38.56 19.39-18.35 31l81.33 81.26c-54 63.99-57.74 163.73-8.61 231.54 15.35 10.38 5.54 18.63-4.39 27.25-24.71 25.05-50.13 49.47-74.4 74.92-13.6 19.98 19.4 38.57 31.03 18.37l82.63-82.63c63.48 54.7 163.3 59.45 231.63 10.92 10.41-15.15 18.58-5.07 27.13 4.67 24.6 24.28 48.58 49.26 73.58 73.1 19.96 13.58 38.58-19.37 18.35-31-27.01-27.02-54.04-54.04-81.04-81.07zM369 365.3c-49.76 52.04-136.31 61.74-196.24 21.7-61.64-37.93-89.34-121.01-62.34-188.24C134.84 131.5 209 87.33 279.8 98.83a156.96 156.96 0 0 1 82.83 38.86c15.29 16.21 31.97 33.86 39.96 56.25C427.3 251.19 413.43 321.6 369 365.3z"/></svg>