<svg xmlns="http://www.w3.org/2000/svg" width="512" height="512"><path d="M402.1 465H314V78h88.1c19.62-4.35 26.92-31.7 16.55-47.82C413.77 17.3 399.9 16 388.1 17H191.16c-19.62 4.35-26.94 31.7-16.56 47.83 4.9 12.87 18.77 14.16 30.57 13.17H284v173.4L151.75 378.33c-12.12-9.46-21.8-23.03-36.5-28.23-24.39-5.8-36.29 28.92-15.92 41.17l25.51 25.79c2.88 11.64 16.17 13.33 22.35 22.65 8.18 7.66 15.4 16.49 24.21 23.39-7.81 17.88 9.96 35.77 27.93 31.92 69.03-.1 138.07.21 207.1-.16 26.14-.28 20.34-34.16-4.33-29.86zM284 465h-79.23c3.59-14.75-1.53-24.27-10.7-34.17l-11.97-18.36L284 312.07V465z"/></svg>