<?xml version="1.0" encoding="UTF-8" standalone="no"?>
<svg
   xmlns:dc="http://purl.org/dc/elements/1.1/"
   xmlns:cc="http://creativecommons.org/ns#"
   xmlns:rdf="http://www.w3.org/1999/02/22-rdf-syntax-ns#"
   xmlns:svg="http://www.w3.org/2000/svg"
   xmlns="http://www.w3.org/2000/svg"
   xmlns:sodipodi="http://sodipodi.sourceforge.net/DTD/sodipodi-0.dtd"
   xmlns:inkscape="http://www.inkscape.org/namespaces/inkscape"
   width="512"
   height="512"
   viewBox="0 0 512 512"
   version="1.1"
   id="svg6"
   sodipodi:docname="cctv camera - Copy.svg"
   inkscape:version="0.92.1 r15371">
  <metadata
     id="metadata12">
    <rdf:RDF>
      <cc:Work
         rdf:about="">
        <dc:format>image/svg+xml</dc:format>
        <dc:type
           rdf:resource="http://purl.org/dc/dcmitype/StillImage" />
      </cc:Work>
    </rdf:RDF>
  </metadata>
  <defs
     id="defs10" />
  <sodipodi:namedview
     pagecolor="#ffffff"
     bordercolor="#666666"
     borderopacity="1"
     objecttolerance="10"
     gridtolerance="10"
     guidetolerance="10"
     inkscape:pageopacity="0"
     inkscape:pageshadow="2"
     inkscape:window-width="638"
     inkscape:window-height="493"
     id="namedview8"
     showgrid="false"
     inkscape:zoom="0.4609375"
     inkscape:cx="256"
     inkscape:cy="256"
     inkscape:window-x="0"
     inkscape:window-y="0"
     inkscape:window-maximized="0"
     inkscape:current-layer="svg6" />
  <path
     id="path4"
     d="m 489.83,163.14 c -9.38096,-3.49253 -16.74224,6.10031 -24.82024,9.57695 C 427.33984,195.3113 389.66992,217.90565 352,240.5 c 0,-23.23333 0,-46.46667 0,-69.7 -1.08294,-12.40056 -15.29553,-7.98836 -23.73371,-8.8 -100.68209,0 -201.36419,0 -302.04629,0 -11.910704,1.69799 -7.291647,15.74789 -8.22,24.15371 0,51.66209 0,103.32419 0,154.98629 0.911379,12.46451 15.148327,8.05566 23.553706,8.86 100.688764,0 201.377534,0 302.066294,0 12.0268,-1.67049 7.49135,-15.75714 8.38,-24.22371 0,-18.09209 0,-36.18419 0,-54.27629 42.99333,25.75 85.98667,51.5 128.98,77.25 12.73036,5.83584 14.15321,-10.22441 13.02,-18.86938 -0.17275,-53.78012 0.34554,-107.59849 -0.25922,-161.35468 -0.48818,-2.22657 -1.89387,-4.27658 -3.91078,-5.38594 z M 335,332 c -100,0 -200,0 -300,0 0,-50.66667 0,-101.33333 0,-152 100,0 200,0 300,0 0,50.66667 0,101.33333 0,152 z m 142,-6.55 C 438.41667,302.3 399.83333,279.15 361.25,256 399.83333,232.84333 438.41667,209.68667 477,186.53 c 0,46.30667 0,92.61333 0,138.92 z M 22.6,256.14 c 155.71667,0 311.43333,0 467.15,0" />
</svg>
