<?xml version="1.0" encoding="UTF-8" standalone="no"?>
<svg
   xmlns:dc="http://purl.org/dc/elements/1.1/"
   xmlns:cc="http://creativecommons.org/ns#"
   xmlns:rdf="http://www.w3.org/1999/02/22-rdf-syntax-ns#"
   xmlns:svg="http://www.w3.org/2000/svg"
   xmlns="http://www.w3.org/2000/svg"
   xmlns:sodipodi="http://sodipodi.sourceforge.net/DTD/sodipodi-0.dtd"
   xmlns:inkscape="http://www.inkscape.org/namespaces/inkscape"
   width="512"
   height="512"
   viewBox="0 0 512 512"
   version="1.1"
   id="svg8"
   sodipodi:docname="glass break sensor.svg"
   inkscape:version="0.92.1 r15371">
  <metadata
     id="metadata14">
    <rdf:RDF>
      <cc:Work
         rdf:about="">
        <dc:format>image/svg+xml</dc:format>
        <dc:type
           rdf:resource="http://purl.org/dc/dcmitype/StillImage" />
      </cc:Work>
    </rdf:RDF>
  </metadata>
  <defs
     id="defs12" />
  <sodipodi:namedview
     pagecolor="#ffffff"
     bordercolor="#666666"
     borderopacity="1"
     objecttolerance="10"
     gridtolerance="10"
     guidetolerance="10"
     inkscape:pageopacity="0"
     inkscape:pageshadow="2"
     inkscape:window-width="638"
     inkscape:window-height="493"
     id="namedview10"
     showgrid="false"
     inkscape:zoom="0.4609375"
     inkscape:cx="256"
     inkscape:cy="256"
     inkscape:window-x="0"
     inkscape:window-y="0"
     inkscape:window-maximized="0"
     inkscape:current-layer="svg8" />
  <path
     id="path6"
     d="m 246.85,254 c -16.22096,0.40952 -32.60172,-0.83738 -48.71812,0.65594 -15.56217,13.534 8.51228,18.95454 19.56958,16.34406 6.44789,2.00174 21.32802,-4.42875 21.29854,4.05036 0,17.91655 0,35.83309 0,53.74964 -25.7695,3.2989 -55.50564,9.64291 -77.96139,-6.61467 -25.36364,-28.46427 -28.92457,-70.89091 -21.65073,-107.01986 3.60552,-19.78164 18.01521,-35.53382 33.88189,-46.4531 16.61545,-4.41335 35.37073,-10.34245 50.85404,0.45322 9.40358,9.93397 35.86338,7.04824 20.72619,-9.11559 -18.16372,-9.55204 -38.15605,-19.66922 -59.16,-12.28 -10.80983,3.18971 -23.50852,3.22723 -30.79215,13.25793 -31.226,22.48953 -38.89326,63.87931 -35.1041,99.99582 2.33001,29.39262 11.81921,62.21934 37.25197,79.70118 28.67274,14.87274 62.45139,8.64372 92.98428,3.60507 10.20061,-5.32908 4.54029,-19.14048 6.02,-28.29182 -0.4974,-19.12954 1.0005,-38.48956 -0.7575,-57.47349 -1.56958,-3.0742 -5.13625,-4.59553 -8.4425,-4.56469 z m 35.59,90.08 c 2.8447,11.25973 16.6836,5.60105 24.78127,6.85303 18.35636,-0.64857 36.98872,0.98905 55.15873,-1.20303 34.09034,-16.37691 40.7477,-67.68378 11.90875,-92.28625 -9.05,-7.67663 -21.59019,-9.93421 -7.21379,-20.02805 22.89652,-30.18764 2.91141,-79.0944 -34.63595,-84.42766 -14.75696,-1.58026 -30.09174,-1.4571 -44.87245,-0.21898 -9.61378,7.19815 -4.03188,20.92595 -5.52656,31.353 0.2679,53.28351 -0.53496,106.84583 0.4,159.95794 z M 299,169 c 17.20266,0.28664 37.06578,-3.14732 49.9375,11.50125 21.84811,19.96041 6.7805,61.42248 -22.65594,62.49313 -8.36934,2.317 -18.30227,0.35704 -27.28156,1.00562 0,-25 0,-50 0,-75 z m 0,92 c 14.12411,0.52051 28.01373,-0.55744 41.90422,-1.08445 31.08768,2.67157 46.02358,45.39365 23.40775,66.75578 -8.58523,11.29071 -23.50328,5.37556 -35.57394,6.94571 -9.91268,0.0577 -19.82535,0.11531 -29.73803,0.17296 0,-24.26333 0,-48.52667 0,-72.79 z M 492.13,249.88 C 415.45333,173.20667 338.77667,96.533333 262.1,19.86 250.68982,12.14175 243.53055,28.280524 235.55042,34.180823 163.65695,106.08055 91.763474,177.98027 19.87,249.88 12.145072,261.29583 28.29018,268.45939 34.189578,276.44082 106.08305,348.34055 177.97653,420.24027 249.87,492.14 c 11.41083,7.72306 18.55579,-8.42573 26.54051,-14.31989 C 348.31367,405.92007 420.21684,334.02004 492.12,262.12 c 3.37018,-3.19582 3.34373,-9.05938 0.01,-12.24 z M 256,473.78 C 183.40667,401.18667 110.81333,328.59333 38.22,256 110.81333,183.40667 183.40667,110.81333 256,38.22 328.58667,110.81333 401.17333,183.40667 473.76,256 401.17333,328.59333 328.58667,401.18667 256,473.78 Z M 22.6,256.14 c 155.71667,0 311.43333,0 467.15,0" />
</svg>
