<?xml version="1.0" encoding="UTF-8" standalone="no"?>
<svg
   xmlns:dc="http://purl.org/dc/elements/1.1/"
   xmlns:cc="http://creativecommons.org/ns#"
   xmlns:rdf="http://www.w3.org/1999/02/22-rdf-syntax-ns#"
   xmlns:svg="http://www.w3.org/2000/svg"
   xmlns="http://www.w3.org/2000/svg"
   xmlns:sodipodi="http://sodipodi.sourceforge.net/DTD/sodipodi-0.dtd"
   xmlns:inkscape="http://www.inkscape.org/namespaces/inkscape"
   width="512"
   height="512"
   viewBox="0 0 512 512"
   version="1.1"
   id="svg6"
   sodipodi:docname="keypad.svg"
   inkscape:version="0.92.1 r15371">
  <metadata
     id="metadata12">
    <rdf:RDF>
      <cc:Work
         rdf:about="">
        <dc:format>image/svg+xml</dc:format>
        <dc:type
           rdf:resource="http://purl.org/dc/dcmitype/StillImage" />
      </cc:Work>
    </rdf:RDF>
  </metadata>
  <defs
     id="defs10" />
  <sodipodi:namedview
     pagecolor="#ffffff"
     bordercolor="#666666"
     borderopacity="1"
     objecttolerance="10"
     gridtolerance="10"
     guidetolerance="10"
     inkscape:pageopacity="0"
     inkscape:pageshadow="2"
     inkscape:window-width="638"
     inkscape:window-height="493"
     id="namedview8"
     showgrid="false"
     inkscape:zoom="0.4609375"
     inkscape:cx="256"
     inkscape:cy="256"
     inkscape:window-x="0"
     inkscape:window-y="0"
     inkscape:window-maximized="0"
     inkscape:current-layer="svg6" />
  <path
     id="path4"
     d="M 495,105.4 C 493.68,90.269195 476.67556,94.645029 466.25136,94 319.96757,94 173.68379,94 27.4,94 12.269195,95.320003 16.645029,112.32444 16,122.74864 c 0,94.61712 0,189.23424 0,283.85136 1.320003,15.13081 18.324443,10.75497 28.748641,11.4 146.283789,0 292.567569,0 438.851359,0 15.13081,-1.32 10.75497,-18.32444 11.4,-28.74864 0,-94.61712 0,-189.23424 0,-283.85136 z M 168,394 c -43,0 -86,0 -129,0 0,-42.33333 0,-84.66667 0,-127 43,0 86,0 129,0 0,42.33333 0,84.66667 0,127 z m 0,-150 c -43,0 -86,0 -129,0 0,-42.33333 0,-84.66667 0,-127 43,0 86,0 129,0 0,42.33333 0,84.66667 0,127 z m 150,150 c -42.33333,0 -84.66667,0 -127,0 0,-42.33333 0,-84.66667 0,-127 42.33333,0 84.66667,0 127,0 0,42.33333 0,84.66667 0,127 z m 0,-150 c -42.33333,0 -84.66667,0 -127,0 0,-42.33333 0,-84.66667 0,-127 42.33333,0 84.66667,0 127,0 0,42.33333 0,84.66667 0,127 z m 155,150 c -44,0 -88,0 -132,0 0,-42.33333 0,-84.66667 0,-127 44,0 88,0 132,0 0,42.33333 0,84.66667 0,127 z m 0,-150 c -44,0 -88,0 -132,0 0,-42.33333 0,-84.66667 0,-127 44,0 88,0 132,0 0,42.33333 0,84.66667 0,127 z M 22.6,256.14 c 155.71667,0 311.43333,0 467.15,0" />
</svg>
