<?xml version="1.0" encoding="UTF-8" standalone="no"?>
<svg
   xmlns:dc="http://purl.org/dc/elements/1.1/"
   xmlns:cc="http://creativecommons.org/ns#"
   xmlns:rdf="http://www.w3.org/1999/02/22-rdf-syntax-ns#"
   xmlns:svg="http://www.w3.org/2000/svg"
   xmlns="http://www.w3.org/2000/svg"
   xmlns:sodipodi="http://sodipodi.sourceforge.net/DTD/sodipodi-0.dtd"
   xmlns:inkscape="http://www.inkscape.org/namespaces/inkscape"
   width="512"
   height="512"
   viewBox="0 0 512 512"
   version="1.1"
   id="svg6"
   sodipodi:docname="Nomi smoke detector.svg"
   inkscape:version="0.92.1 r15371">
  <metadata
     id="metadata12">
    <rdf:RDF>
      <cc:Work
         rdf:about="">
        <dc:format>image/svg+xml</dc:format>
        <dc:type
           rdf:resource="http://purl.org/dc/dcmitype/StillImage" />
      </cc:Work>
    </rdf:RDF>
  </metadata>
  <defs
     id="defs10" />
  <sodipodi:namedview
     pagecolor="#ffffff"
     bordercolor="#666666"
     borderopacity="1"
     objecttolerance="10"
     gridtolerance="10"
     guidetolerance="10"
     inkscape:pageopacity="0"
     inkscape:pageshadow="2"
     inkscape:window-width="640"
     inkscape:window-height="493"
     id="namedview8"
     showgrid="false"
     inkscape:zoom="0.4609375"
     inkscape:cx="256"
     inkscape:cy="256"
     inkscape:window-x="0"
     inkscape:window-y="0"
     inkscape:window-maximized="0"
     inkscape:current-layer="svg6" />
  <path
     id="path4"
     d="m 367.4,323.45 c -10.52313,4.22667 -20.59598,10.67234 -32.40745,8.55 -12.54344,2.14679 -23.3454,-4.3194 -34.52255,-8.93 -7.67661,-6.16781 -14.50881,-22.15928 -26.09,-14.4 -8.3495,11.42816 7.78833,19.28165 13.63408,27.55764 10.07964,6.07019 21.62855,11.29965 33.1623,13.76236 14.88067,-0.36915 30.53525,2.32163 43.87686,-5.9217 9.65829,-2.92402 18.00349,-8.21699 22.1599,-17.74964 9.33224,-10.32277 4.69199,-24.76673 5.78686,-37.34866 -4.61696,-11.62142 -6.20213,-26.2844 -16.25,-34.39 -20.36686,-8.75172 -43.02373,-10.19387 -63.94382,-16.58407 -10.61207,-6.40521 -21.07029,-14.85098 -22.63647,-27.97109 -2.52078,-9.10062 2.5302,-15.55873 9.2389,-21.09498 9.64849,-4.99426 20.37422,-11.17347 31.75607,-9.90986 10.5106,-0.95197 20.55713,0.47859 29.88477,5.59991 12.12206,1.25085 10.54652,20.45175 23.61227,19.51259 15.67846,-5.71706 1.5201,-20.49547 -3.34172,-29.2125 -7.88513,-7.06671 -19.31157,-8.86903 -28.76,-13.59 -16.37478,0.28192 -33.90766,-3.34543 -48.79407,5.20818 -13.66057,3.57599 -23.13801,14.36948 -31.23843,25.25682 -2.35952,17.62749 0.52415,37.61798 14.75098,49.73413 9.95196,9.25808 21.84992,16.44713 35.6457,17.70959 14.69171,3.62156 29.95817,5.24129 44.01582,11.07128 6.20224,12.20288 8.17628,25.55151 7.05,39.09936 0.70383,5.34925 -4.62606,9.46817 -6.59,14.04064 z M 244.5,164.33 c -14.37793,2.23727 -8.1436,19.24217 -9.5,29.37574 0,36.89809 0,73.79617 0,110.69426 -27.88368,-45.78187 -54.92718,-92.17704 -83.33,-137.58 -6.24736,-6.62776 -18.16881,1.08299 -14.67,9.26277 0,53.60574 0,107.21149 0,160.81723 8.0757,21.34413 23.03337,-1.51826 18,-14.92021 0,-38.69326 0,-77.38653 0,-116.07979 27.66573,45.84882 55.00918,92.14802 82.87,137.72 5.66416,5.55536 14.76949,0.39412 15.57,-6.53 1.26047,-26.4089 0.17965,-54.50531 0.54,-81.56297 -0.50828,-28.53528 1.02491,-57.29436 -0.78125,-85.68734 -1.51812,-3.31897 -5.12668,-5.53365 -8.69875,-5.50969 z M 493.13,249.6 C 416.22,172.69 339.31,95.78 262.4,18.87 250.73917,10.822655 243.34113,27.173293 235.23276,33.25599 163.11184,105.37066 90.990921,177.48533 18.87,249.6 10.817469,261.26904 27.165749,268.67691 33.256925,276.7863 105.37795,348.9042 177.49897,421.0221 249.62,493.14 c 11.65454,8.05543 19.05537,-8.31835 27.16661,-14.39661 C 348.90108,406.62892 421.01554,334.51446 493.13,262.4 c 3.50939,-3.34464 3.50939,-9.45536 0,-12.8 z M 256,474 C 183.34667,401.33333 110.69333,328.66667 38.04,256 110.69333,183.34333 183.34667,110.68667 256,38.03 328.65667,110.68667 401.31333,183.34333 473.97,256 401.31805,328.66862 328.62838,401.32162 256,474 Z" />
</svg>
