<?xml version="1.0" encoding="UTF-8" standalone="no"?>
<svg
   xmlns:dc="http://purl.org/dc/elements/1.1/"
   xmlns:cc="http://creativecommons.org/ns#"
   xmlns:rdf="http://www.w3.org/1999/02/22-rdf-syntax-ns#"
   xmlns:svg="http://www.w3.org/2000/svg"
   xmlns="http://www.w3.org/2000/svg"
   xmlns:sodipodi="http://sodipodi.sourceforge.net/DTD/sodipodi-0.dtd"
   xmlns:inkscape="http://www.inkscape.org/namespaces/inkscape"
   width="512"
   height="512"
   viewBox="0 0 512 512"
   version="1.1"
   id="svg6"
   sodipodi:docname="panic switch.svg"
   inkscape:version="0.92.1 r15371">
  <metadata
     id="metadata12">
    <rdf:RDF>
      <cc:Work
         rdf:about="">
        <dc:format>image/svg+xml</dc:format>
        <dc:type
           rdf:resource="http://purl.org/dc/dcmitype/StillImage" />
      </cc:Work>
    </rdf:RDF>
  </metadata>
  <defs
     id="defs10" />
  <sodipodi:namedview
     pagecolor="#ffffff"
     bordercolor="#666666"
     borderopacity="1"
     objecttolerance="10"
     gridtolerance="10"
     guidetolerance="10"
     inkscape:pageopacity="0"
     inkscape:pageshadow="2"
     inkscape:window-width="640"
     inkscape:window-height="493"
     id="namedview8"
     showgrid="false"
     inkscape:zoom="0.4609375"
     inkscape:cx="256"
     inkscape:cy="256"
     inkscape:window-x="0"
     inkscape:window-y="0"
     inkscape:window-maximized="0"
     inkscape:current-layer="svg6" />
  <path
     id="path4"
     d="M 95.7,209.43 C 88.124335,194.27 76.703587,210.26722 76.416196,220.56196 69.054692,246.19936 61.74327,271.85056 54.39,297.49 c 0.699319,19.83192 20.267289,6.30945 19.244971,-6.74018 -0.435704,-9.23285 8.194944,-6.46924 14.524935,-6.74982 6.430118,-0.0815 14.235664,-1.9871 13.772964,7.07216 -0.13967,10.92051 13.47565,26.0884 19.47322,9.56206 -5.14459,-23.21703 -13.03788,-45.92773 -19.2643,-68.94548 C 99.994524,224.26916 97.847262,216.84958 95.7,209.43 Z M 80.37,268 c 2.44,-8.48 4.88,-16.96 7.32,-25.44 2.453333,8.48 4.906667,16.96 7.36,25.44 -4.880797,0 -9.865595,0 -14.68,0 z M 490.56,248.83 C 433.78725,214.92606 377.37332,180.32331 320.37609,146.85656 307.93343,144.74477 309.93886,159.5818 310,167.53991 c 0.1815,63.90903 -0.36297,127.86272 0.27219,191.74384 4.36183,11.91607 16.21434,2.67972 22.96618,-1.52905 52.95766,-32.04899 106.35491,-63.46596 159.03757,-95.91032 3.73509,-3.65324 2.8538,-10.46034 -1.71594,-13.01438 z M 327,342.27 c 0,-57.51 0,-115.02 0,-172.53 47.84,28.75333 95.68,57.50667 143.52,86.26 -47.84,28.75667 -95.68,57.51333 -143.52,86.27 z M 70.8,231.63 C 69.784621,212.83438 50.646545,200.64364 33.03257,203 22.438124,200.38818 14.60329,209.10145 16.99,219.51578 c 0,26.78141 0,53.56281 0,80.34422 6.12206,18.69092 21.627367,0.84541 17,-11.55908 0,-7.76697 0,-15.53395 0,-23.30092 17.979013,2.40726 36.99205,-11.12839 36.859868,-30.23039 L 70.78,231.63 Z M 41.9,248 C 32.49647,250.91717 33.582824,243.34446 34,236.44092 35.574098,231.48389 30.527009,219.90566 37.152477,220 51.967915,216.70257 61.05285,239.04136 46.958906,246.26562 45.393907,246.92919 43.691411,248.002 41.9,248 Z m 138.27,-45 c -12.06791,1.9199 -7.47085,15.98512 -8.34244,24.56234 0.0308,12.93255 0.0616,25.86511 0.0924,38.79766 -11.23659,-20.06618 -21.34203,-40.88405 -33.28813,-60.47875 -13.34147,-8.25895 -16.24863,9.41641 -14.63187,18.88866 0,25.03003 0,50.06006 0,75.09009 6.12206,18.69092 21.62737,0.84541 17,-11.55908 0,-14.33364 0,-28.66728 0,-43.00092 11.15605,20.07107 21.58062,40.60984 33.19531,60.38766 12.15041,9.02374 16.54307,-8.10152 14.51844,-17.41671 -0.0579,-25.50698 -0.11583,-51.01397 -0.17375,-76.52095 0.0401,-4.48802 -3.79148,-8.80587 -8.37,-8.75 z m 23.33,0.78 c -12.19405,1.55242 -7.61396,15.64875 -8.5,24.13238 0,23.97921 0,47.95841 0,71.93762 6.10926,18.70383 21.63072,0.86052 17,-11.54908 0,-25.38031 0,-50.76061 0,-76.14092 0.0954,-4.52931 -4.00853,-8.47799 -8.5,-8.38 z m 72.02,78.97 c -11.41043,-4.11753 -23.40243,19.66393 -32.8195,0.85356 -11.27075,-18.41556 -9.20353,-44.88214 5.56341,-60.7659 11.33785,-10.04702 26.03072,22.14723 30.99796,-1.3711 -6.99939,-23.9183 -42.97138,-22.29667 -51.26151,0.16189 -14.32335,25.73002 -13.18874,64.08535 12.15355,82.55092 12.35986,11.66934 49.4463,-4.61596 35.36609,-21.42937 z" />
</svg>
