<?xml version="1.0" encoding="UTF-8" standalone="no"?>
<svg
   xmlns:dc="http://purl.org/dc/elements/1.1/"
   xmlns:cc="http://creativecommons.org/ns#"
   xmlns:rdf="http://www.w3.org/1999/02/22-rdf-syntax-ns#"
   xmlns:svg="http://www.w3.org/2000/svg"
   xmlns="http://www.w3.org/2000/svg"
   xmlns:sodipodi="http://sodipodi.sourceforge.net/DTD/sodipodi-0.dtd"
   xmlns:inkscape="http://www.inkscape.org/namespaces/inkscape"
   width="512"
   height="512"
   viewBox="0 0 512 512"
   version="1.1"
   id="svg4"
   sodipodi:docname="security hub.svg"
   inkscape:version="0.92.1 r15371">
  <metadata
     id="metadata10">
    <rdf:RDF>
      <cc:Work
         rdf:about="">
        <dc:format>image/svg+xml</dc:format>
        <dc:type
           rdf:resource="http://purl.org/dc/dcmitype/StillImage" />
      </cc:Work>
    </rdf:RDF>
  </metadata>
  <defs
     id="defs8" />
  <sodipodi:namedview
     pagecolor="#ffffff"
     bordercolor="#666666"
     borderopacity="1"
     objecttolerance="10"
     gridtolerance="10"
     guidetolerance="10"
     inkscape:pageopacity="0"
     inkscape:pageshadow="2"
     inkscape:window-width="640"
     inkscape:window-height="493"
     id="namedview6"
     showgrid="false"
     inkscape:zoom="0.4609375"
     inkscape:cx="256"
     inkscape:cy="256"
     inkscape:window-x="0"
     inkscape:window-y="0"
     inkscape:window-maximized="0"
     inkscape:current-layer="svg4" />
  <path
     id="path2"
     d="m 484.6,164 c -152.40667,0 -304.81333,0 -457.22,0 -4.278941,1.27925 -9.31585,4.55201 -9.4,9.9 0,54.73333 0,109.46667 0,164.2 1.152298,13.11547 15.699089,9.36906 24.709762,9.9 147.290078,0 294.580158,0 441.870238,0 2.72291,-1.34272 6.70093,-2.03217 8.21,-5.77 2.98814,-8.40326 0.29575,-17.86611 1.21,-26.64432 0,-47.22856 0,-94.45712 0,-141.68568 0.01,-5.0189 -4.29198,-9.88998 -9.38,-9.9 z M 37,330 c 0,-47.67667 0,-95.35333 0,-143.03 131.61,47.67667 263.22,95.35333 394.83,143.03 -131.61,0 -263.22,0 -394.83,0 z" />
</svg>
