<svg xmlns="http://www.w3.org/2000/svg" width="512" height="512"><path d="M237.85 246c4 4.72 9.86-2.8 9.58-9.15L265.85 171c-8.85-2.93-8.7 6-10.62 12.18l-17.08 61.22c-5.66-14.94 1.84-32.35-5.29-46.74-11.47-11.18-41.28-6.06-40.3 10.9 12.1 4.24 17.43-18.73 31.97-6.01 11.82 21.17-28.44 6.08-32.77 22.75-11.33 27.87 30.37 21.8 36.68 17.71-.15 5.24 6.44 2.15 9.41 2.99zM227 223.06c6.21 20.5-36.53 23.87-24.67 3.15 4.46-1.08 26.4-9.72 24.67-3.15zM66.07 272c-14.04-6.94-30.42-2.93-45.57-4-7.21-.77-1.85 11.02-3.5 15.8V341c8.21 1.72 12.07-.92 10-9.48V310c13.71-1.06 29.63 3.36 41.22-5.75 8.52-8.67 8.07-25.13-2.15-32.25zm-5.87 26.4c-10.26 4.64-22.16 1.82-33.2 2.6v-24c10.7.67 21.99-1.67 32.13 1.98 6.26 4.23 6.85 14.58 1.07 19.42zm54.42-9.15c-8.61-9.04-25.93 5.73-27.62 1.83V268c-9.43-2.9-8.46 4.6-8 11.6V341c9.43 2.9 8.46-4.6 8-11.6.7-12-3.72-29.43 11.33-34.19 15.06-4.58 16.87 12.43 15.67 22.95V341c8.94 2.43 10.29-2.74 9-10.54-1.12-12.76 3.16-27.33-4.57-38.44.21 1.1-3.82-4.36-3.81-2.77zm37.42-2.33c-19.23-1.27-29.17 20.65-24.01 37.06 3.53 23.14 40.55 25.05 47.19 2.97 5.75-15.88-1.04-39.06-20.52-39.93l-2.68-.11zm11.18 43.13c-17.47 17.14-34.68-12.1-24.35-27.74 15.02-22.28 38.29 7.51 26.33 24.84l-1.96 2.89zm58.23-36.85c-7.9-14.64-30.73.56-32.44-.66 3.92-7.9-11.6-8-8-.27V341c8.94 2.43 10.29-2.74 9-10.54 1.12-11.27-3.65-25.72 6.66-33.66 16.08-9.05 20.39 9.68 18.33 21.67V341c8.94 2.43 10.29-2.74 9-10.54-.85-12.33 2.17-25.75-2.55-37.25zm32.95-6.28c-19.19-1.14-28.84 20.97-23.9 37.22 3.75 23.62 43.11 25.12 47.84 1.26-12.93-6.28-14.8 17.2-29.49 8.33-12.5-6.5-13.08-22.74 2.67-17.73h27.07c1.7-14.65-8.26-30.1-24.19-29.08zM239.38 309c-2.58-23.52 38.76-13.27 26.58 0h-26.58zm250.59-61.8L322.15 146.5c-13.87-6.66-18 10.15-16.14 20.41v189.77c1.78 15.22 18.17 9.53 26.01 2.85l157.92-94.74c6.58-3.6 6.6-14 .03-17.59zM327 338.53V173.46L464.58 256c-45.86 27.5-91.74 55.05-137.58 82.53zM90.86 245c21.24-4.45 25.47-31.24 20.82-49.2C108.22 177.1 88.41 170 71.52 172H52v74c12.94-.33 26.03.83 38.86-1zM63 237v-56c13.77.25 32.64-2.93 38.14 13.72 5.47 15.81 2.35 43.87-19.75 42.26-6.13.04-12.26.01-18.39.02zm74.38-21.2c-28.04-3.5-25.32 40.26 2.4 31.44 8.4-.15 14.9-12.73 17.3-1.24 15.53 3.67.57-15.65 4.92-25.01 1.05-12.44.32-30.05-16.8-28.87-10.1-6.15-37.64 13.9-20.98 17.16 4.38-9.66 31.14-16.64 29.25 3.4-5.2 1.73-10.73 2.4-16.09 3.12zm16.62 3.95c2.97 13.56-12.54 26.85-25.19 18.46-11.66-17.2 17.01-14.12 25.19-18.46zm17 11.13c-7.07 15.05 25.9 24.49 19.24 7.52-13.71 3.04-8.07-13.81-9.24-21.77 1.56-5.04-3.46-16.65 3.16-16.63 8.56 3.49 7.9-10.91-.48-7-5.85-.67-1.19-11.84-2.68-16.86-1.97-1.85-13.44 3.76-10 10.2 3.69 10.02-9.36 3.3-6 12.98 7.86-1.42 6 6.88 6 13.33v18.23z"/></svg>