<svg xmlns="http://www.w3.org/2000/svg" width="512" height="512"><path d="M249.1 230.72c-7.1-10.75 6-32.9-11.45-36.13-8.4-5.25-29.95 10.89-14.74 11.9 2.42-17.99 31.86 3.06 10.88 3.8-20.6-5.01-23.96 27.66-1.88 22.25 9.5-9.01 13.2 3.54 21.96-.61l14.45-51.98c-8.27-2.16-6.2 9.32-9.01 14.34l-10.21 36.43zM242 216c3.73 18.17-32.54 11.45-13.95.5 3.17 1.46 15.13-6.18 13.95-.5zM85.17 268.56C75.1 262.81 63.07 265.72 52 265v52c9.49 2.88 5.02-8.2 6-13.83-3.09-9.73 6.37-6.91 12.76-7.17 16.34 3.2 27.57-16.22 14.41-27.44zm-4.06 18.96c-5.56 2.12-20.1 5.14-23.11.35 1.58-5.13-3.87-17.29 4.25-15.87 10.39-.57 29.22-.78 18.86 15.52zm37.69-7.02c-11.64-4.81-21.02 9.5-17.8-8.23 4.29-8.27-9.66-10.9-7-1.95V317c9.69 3.1 6.65-6.52 7-12.76-5.69-13.67 14.68-30.84 17-9.93V317c9.49 2.88 5.02-8.2 6-13.83-.72-7.52 2.55-18-5.2-22.67zm25.93-1.6c-23.1-1.36-23.12 39.95 0 38.54 23.27 1.17 23.05-39.76 0-38.54zm7.74 29.87c-15.84 14.92-27.78-20.16-9.99-24.46 13.52-2.6 16.24 16.32 9.99 24.46zm40.33-25.54c-9.1-12.23-21.57 6.07-23.93-3.23-6.16.47-1.35 11.91-2.87 17.02V317c8.87 2.24 3.58-9.68 5-14.89-6.22-14.81 19.04-26.57 18-6.86V317c9.49 2.88 5.02-8.2 6-13.83-.49-6.61 1.47-14-2.2-19.94zm22.84-4.33c-26.7-.5-20.12 47.6 6.2 37.76 14.5-2.3 8.1-21.16.06-6.16-12.85 9.13-24.82-16.26-6.4-10.5 6-1.54 20.02 4.4 16.63-6.1-.76-8.34-7.95-15.4-16.49-15zM205.22 295c-2.6-18.87 29.27-7.47 17.4 0h-17.4zm284.25-46.76L306.65 138.56c-13.19-6.08-16.28 9.99-14.65 19.46v207.66c2.2 14.2 17.27 7.69 24.56 1.73 58.17-35.11 116.8-69.57 174.68-105.1 4.08-3.94 3.15-11.26-1.77-14.07zM310 349.7V162.3L466.16 256 310 349.7zM53 214c-9.49 2.88-5.02-8.2-6-13.83V181c-7.7-2.3-9.44 6.9-13.65 11.31-4.89 7.7-11.5 14.86-15.35 22.88-2.14 8.71 9.8 3.34 14.89 4.81 9.33-2.96 7.03 5.71 7.11 12 9.31 2.98 6.86-5.8 7-12 6.15.47 6.56.5 6-6zm-13 0c-4.2-1.3-19.45 3.19-13.38-3.5L40 191.17V214zm36.17 18c3.61-3.2 7.28-15.43 10.86-12.75 4.24 4.2 5.5 14 12.68 12.75 7.55.56-4.66-9.14-5.73-13.06-7.22-5.4-2.01-10.67 2.34-15.96 6.1-5.37 6.36-11.02-2.23-7.11-4.93 7.74-9.45 15.6-13.91 3.38-1.41-6.8-15.99-5.69-6.92.98 1.91 5.34 12 10.68 6.36 16.03L68.6 232h7.57zm78.43-46.5c-10.02-7.24-23.07-3.61-34.6-4.5v51c13.71-.9 32.46 4.18 39.71-11.31 4.71-11.1 4.42-26.67-5.11-35.19zm-.28 30.52c-2.47 11.92-19.98 11.2-27.32 8.92V188c10.35.2 25.86-2.65 28 11.3 1 5.5.99 11.39-.68 16.72zm24.98-5.22c-22.29-1.9-14.57 31.26 4.98 20.89 7.6-8.27 6.04 2.7 14.47.32-6.12-11.06 4.76-29.5-8.55-36.57-8.47-7.2-34.31 8.76-18.25 11.07 5.91-19.4 34.26 5.5 7.35 4.29zm10 11.37c-6.67 15.67-29.3-3.66-9.29-6.26 8.67-1.49 12.3-4.91 9.29 6.26zM203 221c-6.1 14.85 23.02 11.95 10.15 5.69-6.17-3.92-1.87-15.02-3.16-22.13-.79-4.1 12.86-6.36 2.8-9.56-7.37 1.67 2.05-17.47-6.55-10.72-5.94 2.92-1.4 11.88-7.25 12.85 1.7 4.82 6.03 7.02 4 15.57 0 2.76-.01 5.55.01 8.3z"/></svg>