<svg xmlns="http://www.w3.org/2000/svg" width="512" height="512"><path d="M417.42 458.2c-5.18-1.81-20.85-3.72-7.09-.5 1.28-.37 8.25 3.15 7.09.5zm-247.84-58.47c-9.48-7.01-11.93 6.28-14.2 12.88-4.2 13.14-10.5 26.13-13.41 39.35 11.13 5.1 6.54-13.56 13.9-13.95 6.63 1.74 18.47-3.85 21.1 3.54-1.88 7.74 12.51 17.17 9.8 5.77l-17.19-47.59zM155.16 432c3.11-8.65 6.14-17.43 9.31-26l9.4 26h-18.71zm68.09-14.88c-24.36-23.28-46.11 30.16-16.16 35.55 10.18 6.78 29.13-12.44 9.75-5.69-19.05 4.02-21.6-19.77-1.98-13 13.39 2.57 15.73-5.4 8.39-16.86zM199.82 429c-3.1-22.82 33.05-3.85 15.4 0h-15.4zm58.88-15.14c-10.49-6.21-13.94 9.2-18.65-1.37-6.84 1.91-1.25 14.1-3.06 20.06 1.88 5.91-4 18.45 3.36 19.92 7.76-1.33 1.75-14.05 3.64-20.06-4.39-13.9 14.63-9.86 14.79-17.4.09-.38-.27-.8-.08-1.15zm10.78-16.79c-15.84 9.33 15.12 8.54 0 0zm3.79 16.16c-11.13-4.83-6.33 9.56-7.28 15.54.5 7.67-.98 16.18.7 23.36 11.4 3.33 6.17-10.87 7.3-17.23-.49-7.06.97-15.28-.72-21.67zM313 426c6.44-20.54-36.88-14.4-25.84-5.27 12.07-14.02 30.9 13.43 9.89 8.5-29.4 1.9-4.15 36.84 9.97 19.5 4.83 11.14 7.84-5.45 6-11.26-.01-3.82.03-7.69-.02-11.47zm-6 16.07c-11.43 17.15-28.15-10.17-5.28-8.07 8-1.58 4.6 2.46 5.28 8.07zm25-46.41c-9.33-6.11-5.22 8.4-6 13.78.03 14.17-.05 28.87.03 42.72 10.49 2.87 4.35-11.55 5.97-17.23v-39.27zm32.6 38.19c-10-1.57-25.17-17.9-5.61-16.17 19.97 4.55-13.03-17.4-16.14 1.07-8.96 14.9 33.9 20.2 10.16 28.72-7.36-6.07-18.33-1.76-7.17 4.37 11.48 5.27 29.07-5.47 18.76-17.99zm-164.63-74.8c22.02-5.75 1.96-26.72-13.3-23.18-11.09-6.46-46.23-4.01-38.71-21.77l33.25-102.25c28.14-2.99 21.24-49.55-6.92-43.67-23.3 3.22-17.8 28.46-13.92 41.93L126.8 313.35c-54.05-28.46-89.95-87.89-88.14-149.17C38.48 129 50.28 95.22 64.4 63.58c-9.4-26.86-28 6.05-30.34 20.16-25.03 62.34-21.4 138.18 20 192.83 34.13 46.76 89.6 73.92 145.9 82.48zM483.56 224H448c-.5-20.53 1-41.25-.77-61.66-13.35-17.3-22.69 6.32-19.23 18.98V224h-25c-.42-12.97.9-26.11-.77-38.96-13.34-17.32-22.7 6.3-19.23 18.97-1.83 6.09 4.06 19.89-3.75 19.99-6.46-1.46-18.9 3.06-21.25-2.5v-77.9c-7.35-22.52-26.65-1.42-21 13.76V224h-24c-.54-20.53 1.1-41.28-.85-61.66-13.58-17.23-23.82 5.87-20.15 18.97V224h-26V120.9c-7.1-22.65-25.5-1-20 13.77v213.2c7.08 22.66 25.5 1.02 20-13.76V244h26c.52 20.79-1.07 41.8.85 62.43 13.58 17.25 23.82-5.87 20.15-18.97V244h24v81.17c7.34 22.54 26.65 1.43 21-13.76V244h25c.44 13.23-.93 26.63.77 39.74 13.34 17.32 22.7-6.3 19.23-18.97 1.54-6.22-3.17-18.68 2.5-20.77 7.1.82 17.48-1.65 22.5 1.25.47 20.37-.97 40.93.77 61.18 13.34 17.32 22.7-6.3 19.23-18.97V244c13.16-.45 26.49.94 39.52-.77 10.17-3.73 6.82-19.75-3.96-19.23z"/></svg>