<svg xmlns="http://www.w3.org/2000/svg" width="512" height="512"><path d="M289 258.76c5.04-15.03-15.01-25.1-23.74-11.38-.63 10.2 18.54-13 18.49 5.13-11.61-2.01-30.77 12.13-12.55 18.94 8.6.26 11.6-4.82 17.06-.45 4.55 1.61-1.46-9.8.74-12.24zm-6.42 4.32c-9.57 14.04-21.79-7.8-2.44-5.72 4.8-4.15 2.46 3.92 2.44 5.72zm208.3-13.8c-53.48-31.85-106.6-64.42-160.32-95.83-12.23-2.22-10.82 12.11-10.56 20.02V351c2.14 13 15.7 5.93 22.24.85 50.01-30.2 100.42-59.83 150.19-90.38 3.55-3.43 2.7-9.78-1.55-12.19zM336 337.14v-162.3L471.27 256c-45.09 27.04-90.2 54.12-135.27 81.14zM43.28 264.5c-23.38 14.95-29.16-36.12-3.45-29.3 2.85 4.4 15.55 12.94 10.03 1.7-11.14-15.78-37.32-1.7-32.39 16.51-1.38 20.55 31.85 25.4 35.32 4.81-7.9-3.77-4.34 2.13-9.51 6.28zm23.88-23.27c-25.3.23-10.74 45.08 9.85 26.46 7.63-8.63 3.75-27.2-9.85-26.46zm6.1 23.52c-18.92 14.48-18.97-31.1 0-16.66 3.42 4.7 3.3 11.97 0 16.66zm31.77-20.1c-8.24-9.47-17.96 5.32-20.1-3.64-4.33 2.21-.77 12.3-1.93 17.67-1.1 5.1.24 17.82 5 10.25.99-8.09-3.72-21.9 7.82-23.43 10.24 1.85 4.8 14.95 6.18 22.31 2.06 9.37 5.9-3.41 4-8.24-.5-4.94 1.23-10.34-.97-14.92zm14.64 22.07c-7-2.88-2.3-13.36-3.67-19.6 5.43.53 9.85-7.8 0-6.12 2.76-9.42-4.75-10.93-4-1.11-7.15 3.35 1.62 5.77 0 12.34-2.66 8.33 4.06 27.14 10.04 15.56-.33-.94.26-3.08-2.37-1.07zm19.39-23.92c-8.12-5.7-11.03 7.58-12.1-1.8-7.71-1.2-2.4 10.64-3.96 15.6 1.32 5.14-3.72 16.65 5 14.4.78-7.85-2.09-17 2.82-23.72 5.41-2.58 6.71 3.04 8.24-4.48zm11.41-1.57c-25.3.24-10.73 45.07 9.86 26.46 7.64-8.63 3.77-27.2-9.86-26.46zm6.1 23.52c-18.92 14.48-18.95-31.1 0-16.66 3.42 4.7 3.33 11.99 0 16.66zM167 231c7.76-1.23 2.44 10.62 4 15.6V271c-7.76 1.23-2.44-10.62-4-15.6V231zm48.4 3.28c-7.31-4.43-20.57-4.12-27.4-2.24V271c11.77-.33 29.04 3.02 32.65-12.22 2.08-8.22 1.59-18.54-5.25-24.5zm-.2 24.03c-.62 8.33-21.95 12.23-21.2 3.54v-25.84c14.13-3.42 27.6 7.07 21.2 22.31zm33.8.45c5-15.04-15.16-25.1-23.86-11.38-.64 10.2 18.53-12.99 18.5 5.13-11.6-2.01-30.77 12.12-12.57 18.94 8.6.26 11.62-4.82 17.06-.45 4.57 1.62-1.34-9.81.87-12.24zm-6.43 4.24c-9.59 14.16-22-7.7-2.48-5.64 4.81-4.14 2.46 3.96 2.48 5.64zm18.96 3.72c-5.12-4.04-1.38-14.04-2.53-20.64 10.27-1.47-2.11-4.8 0-10.28-1.23-10.3-5.24 4.9-7.08 5.19-6.42 4.24 6.08 5.21 2.08 13.32-4.06 8.74 7.85 25.52 9.7 12.21z"/></svg>