<svg xmlns="http://www.w3.org/2000/svg" width="512" height="512"><path d="M30 282h47c1.88-8.47-1.13-12.05-9.76-10H30v-26h50c1.01-7.57.62-13.74-8.68-11H19v87h64c1.88-8.47-1.13-12.05-9.76-10H30m54-66h29v76c6.64.11 15.16 2.1 12-7.6V246h28c1.01-7.57.62-13.74-8.68-11H84m130 5.04c-15.88-8.39-34.64-3.9-51.92-5.04-9.03-2.28-3.63 9.88-5.08 15.18V322c6.64.11 15.16 2.1 12-7.6V286c16.48-1.2 36.8 4.4 49.16-9.41 8.25-10.65 7.15-28.44-4.16-36.55zm-6.88 31.92c-11.43 6.83-25.43 3.06-38.12 4.04v-30c12.25.8 25.27-1.97 36.87 2.25 7.49 5.13 7.91 17.77 1.25 23.71zm281.36-24.56L286.26 126.1c-13.95-6.64-18.18 10.16-16.26 20.5v230.72c2.2 15.14 18.47 9.07 26.35 2.46C360.37 341.38 424.4 303 488.42 264.6c6.42-3.55 6.47-13.63.06-17.21zM291 359.64V152.37L463.74 256C406.16 290.55 348.56 325.08 291 359.64z"/></svg>