<svg xmlns="http://www.w3.org/2000/svg" width="512" height="512"><path d="M98.73 274.3c-3.8 20.7-7.28-3.69-11.4-12L74.6 227H16c-3.24 10.66 8.75 6.09 15.26 7 10.53-3.2 5.71 8.95 6.74 15.26V291c9.96 2.71 11.42-3.07 10-11.74V234c6.57.8 15.28-1.56 20.6 1.1L90.67 291c9.3 2.99 11.37-4.73 13.77-11.97L125.42 227c-9.37-3.03-11.22 4.8-13.45 12.08-4.4 11.74-8.85 23.5-13.24 35.22zm390.65-29.35L229.13 88.8c-16.33-8.12-21.25 11.85-19.13 23.97v299.37c1.17 18.25 20.93 12.58 30.24 4.4l249.16-149.5c8.26-4.54 8.23-17.6-.02-22.09zM235 389.37V122.63L457.3 256 235 389.37z"/></svg>