<svg xmlns="http://www.w3.org/2000/svg" width="512" height="512"><path d="M19 276c10.19 3.33 6.4-7.33 7-13.58.08-7.03-2.45-16.68 7.92-13.42 6.3-.77 15.67 1.53 20.08-1.13 2.15-9.06-10.58-3.23-15.84-4.87-7.9.84-15.1.96-12.16-9.05-2.5-9.58 2.72-11.46 11.32-9.95H59c3.33-10.19-7.33-6.4-13.58-7H19m45 0c8.58-4.91 10.38 11.25 2.47 9-4.96 1.56-1.4-6.55-2.47-9zm0 17c10.19-3.33 6.4 7.33 7 13.58V276c-10.19 3.33-6.4-7.33-7-13.58V234zm46.64 4.54c-10.36-16.6-30.97 10.12-25.64-12.76 4.55-7.91-8.15-13.69-7-4.25V276c10.8.96 4.39-7.07 15.03 1.54 21.45 4.36 28.5-25.36 17.61-39zm-6.14 29.12c-18.11 16.93-29.58-23.93-10.4-28.95 15.28-2.5 17.03 20.04 10.4 28.95zm38.73-32.92c-11.88-8.73-17.28 10.33-20.5-.74-8.94-2.08-3.06 10.66-4.74 15.84V276c10.14 3 9.71-4.58 9-12.45-1.86-11.87 2.43-26.83 14.46-24.07.6-1.58 1.17-3.18 1.78-4.74zm17.33-2.38c-26-1.33-27.79 44.58-1.91 45.5 9.6 5.18 31.28-15.85 13.86-14.95-3.5 24.34-39.07-6.1-16.75-4.9h24.61c1.4-12.16-6.04-26.2-19.81-25.65zM148 251c-2.43-20.85 33.65-9.71 21.2 0H148zm339.4-5.1L249.63 103.28c-15.36-7.58-20.9 10.84-18.65 22.54v272.81c1.93 16.94 20.36 11.36 29.22 3.69L487.33 266.1c7.58-4.15 7.52-16.08.07-20.2zM254 377.83V134.17L457.07 256 254 377.83z"/></svg>