<svg xmlns="http://www.w3.org/2000/svg" width="512" height="512"><path d="M73.77 333c15.91-1.02 32.66 2.68 47.76-3.39 19.78-10.02 22.67-33.55 21.48-53.4-.68-22.78 1.57-45.82-1.58-68.4-3.93-18.95-22.34-32.63-41.55-29.81-11.01 1.03-23.06-2.42-33.21 2.5-9.46 8.64-4.37 22.56-5.67 33.87.17 35.85-.35 71.73.26 107.56C62.43 327.76 67.6 333 73.77 333zM86 204c8.94 1.14 19.4-2.65 27.12 2.64 8.29 11.37 3.67 26.36 4.88 39.53-.49 17.05 1.05 34.3-.92 51.21-3.17 13.67-18.45 8.72-28.55 9.62-5.74-1.15-.97-12.8-2.53-18.13V204zm75.3 127.54c15.04 3.13 16.61-14.24 19.5-24.55.92-7.65 3.03-13.75 11.97-10.99h20.67c3.8 10.77 3.94 23.37 10.85 32.64 12.66 10.74 26.54-7.05 18.75-19.18l-32.3-121.03c-8.7-20.04-27.87-3.13-27.61 12.07-10.31 39.39-21.32 78.63-31.2 118.12-.44 5.83 3.67 11.56 9.37 12.92zm37.26-91.06L206.7 271c-4.79-1.65-19.13 4.04-15.11-4.38l6.97-26.14zM266.6 204H288c.17 39.3-.33 78.61.25 117.88 3.44 17.46 29.6 9.16 24.75-7.07V204c10.73-1.35 24.4 3.93 32.13-5.82 8.26-13.29-7.56-23.26-19.55-20.18-20.5.18-41.04-.36-61.52.27-14.6 2.97-12.46 25.75 2.54 25.73zm98.85 127.54c15.05 3.14 16.62-14.24 19.5-24.55.93-7.65 3.04-13.75 11.98-10.99h20.68c3.8 10.78 3.94 23.38 10.86 32.65 12.66 10.72 26.55-7.06 18.76-19.19l-32.3-121.03c-8.68-20.04-27.87-3.12-27.6 12.07-10.33 39.39-21.3 78.64-31.2 118.12-.47 5.83 3.74 11.57 9.32 12.92zm37.27-91.06l8.14 30.52c-4.79-1.65-19.13 4.04-15.11-4.38l6.97-26.14zM480.07 101H30.45c-13.57.43-12.92 15.68-12.45 25.54.17 91-.33 182.02.25 273 3.22 14.33 19.66 9.7 30.33 10.46h431.49c13.7-.3 13.57-15.47 12.93-25.5-.18-91 .36-182.02-.27-273-1.2-5.82-6.65-10.54-12.66-10.5zM467 384H43V127h424v257z"/></svg>