<svg xmlns="http://www.w3.org/2000/svg" width="512" height="512"><path d="M224 239h-85c-.17-33.64.34-67.3-.26-100.92-3.51-16.88-29.29-9.17-24.74 6.8V239c-28.83.17-57.7-.33-86.5.25-13.3 3.61-8.67 19.21-9.5 29.4.17 34.32-.34 68.67.26 102.96 3.51 16.88 29.29 9.17 24.74-6.8V263h168c.17 36.97-.34 73.97.26 110.92 3.51 16.89 29.28 9.16 24.74-6.8-.16-39.4.32-78.85-.24-118.23-.95-5.55-6.08-10.02-11.76-9.89zm95.27-102c-19.92.16-39.88-.32-59.78.24-17.02 3.18-8.92 28.52 6.8 23.76 7.55-.77 14.53-.96 11.71 8.64.17 29.73-.34 59.48.26 89.18 3.51 16.89 29.28 9.16 24.74-6.8V161c9.9-.67 25 3.49 28.34-9.53 1.77-7.42-4.6-14.72-12.07-14.47zm89.1 0c-12.73-3.28-16.23 10.86-18.13 20.21l-13.68 51.32c-5.96-21.69-11.29-43.57-17.64-65.13-7.65-15.5-30.36-1.26-21.8 12.89l27.54 103.24c8.32 19.41 27.11 3.3 26.86-11.48 8.58-32.83 17.8-65.51 25.98-98.42a12.4 12.4 0 0 0-9.13-12.63zm84.7 114.77l-14.38-36.02c17.39-11.88 16.86-35.22 13.88-53.68-3.71-16.98-20.88-27.43-37.61-25.06-9.82 1.05-21.13-2.73-29.59 3.4-6.17 9-2.29 20.84-3.38 31.19.17 29.07-.34 58.18.26 87.23 3.51 16.89 29.28 9.16 24.74-6.8V222c8.68-2.91 9.35 6.07 12.07 12.02 5.4 10.88 7.44 24 15.73 32.99 9.77 6.7 23-4.59 18.28-15.24zM469 184.7c1.3 13.46-11.63 13.03-20.8 12.3-2.89-3.64-.33-12.71-1.2-18.37 1.38-5.22-2.8-16 2.16-17.63 9.27-1.1 21.94-.39 19.84 12.85v10.85z"/></svg>