<svg xmlns="http://www.w3.org/2000/svg" width="512" height="512"><path d="M228.42 318.62c11.39-28.25-18.95-65.5-49.1-52.47-15.92 5.98-35.79 34.04-16.98 46.57 20.62 9.26 23.39-44.25 40.88-12.36 3.72 10.75-6.16 20.04-9.2 29.93-13.3 29.2-27.6 58.03-40.28 87.48-2.16 16.62 16.75 15.81 28.03 15.22 13.64-.6 27.6 1.28 41-1.09 16.43-7.47 4.45-30.97-11.4-25.91H187.3c13.75-29.09 27.15-58.44 41.12-87.37zM354.13 236H205c-.19-58.43.38-116.9-.28-175.3-4.03-18.24-31.78-9.57-26.72 7.67V236c-50.1.15-100.24-.3-150.33.23-14.46 4.25-8.37 21.1-9.67 32.24.17 59.65-.35 119.35.26 178.98 7.52 22.2 31.64 4.22 25.74-12.72V262h296c.19 63.1-.38 126.24.28 189.3 4.03 18.24 31.78 9.57 26.72-7.67-.17-65.97.34-131.97-.25-197.93-1-5.88-6.86-9.87-12.62-9.7zm127.11-92H431V91c18.42-.59 37.14 1.23 55.36-1.01 19.5-11.15-.8-30.16-16.45-24.99-19.12.54-38.48-1.11-57.43.9-12.01 6.55-6.03 21.7-7.48 32.78.17 53.5-.35 107.05.26 160.54 7.52 22.2 31.64 4.21 25.74-12.72V170c18.42-.59 37.14 1.23 55.36-1.01 13.21-5.1 8.88-25.37-5.12-24.99z"/></svg>