<svg xmlns="http://www.w3.org/2000/svg" width="512" height="512"><path d="M211.43 402H181c13.67-29.49 27.77-58.83 41.18-88.4 7.86-26.56-20.01-59.13-47.68-47.18-20.39 3.87-36.53 50.57-5 42.88 3.64-12.57 20.65-32.26 28.51-10.55 3.77 10.7-6 19.95-9.05 29.77-12.83 28.11-26.5 55.9-38.81 84.22-1.67 15.59 16.44 13.4 26.75 13.27 13.05-.48 26.3 1.05 39.22-.94 12.04-4.76 8.19-23.36-4.69-23.07zm132.12-166H198V69.47c-6.75-25.46-30.28-3.79-24 13.63V236H29.97c-16.4 2.13-11.06 20.83-11.97 32.37v170.48c6.99 25.33 31.4 4.16 25-13.64V260h288v182.53c6.75 25.46 30.28 3.79 24-13.63V248.54c.19-6.28-4.85-12.7-11.45-12.54zM451.17 71c-16.96.54-34.14-1.13-50.95.92-11.57 7.03-5.83 22.07-7.22 33.32v151.33c1.61 15.7 19.63 10.54 30.5 11.43 20.06-.5 43.97 3.93 57.97-14.53 18.15-21.14 11.1-49.78 12.53-75.15-.8-23.92 1.88-48.16-1.92-71.83-4.56-18.64-20.76-35.7-40.91-35.49zM469 218c1.77 16.95-12.88 29.5-28.99 26H417V95c13.7.94 28.16-2.16 41.25 2.12 15.92 13.06 9.34 35.04 10.75 52.93V218z"/></svg>