<svg xmlns="http://www.w3.org/2000/svg" width="512" height="512"><path d="M205.26 398H176.5c13.1-28.67 27-57 39.6-85.88 7.88-26.12-19.55-58.24-46.79-46.5-20.45 3.87-35.79 50.35-4.44 42.4 4.4-10.96 18.78-32.03 26.95-10.45 3.56 10.32-5.98 19.23-8.87 28.73-12.4 27.26-25.8 54.13-37.56 81.64-2.22 15.98 15.76 15.84 26.72 15.06 12.6-.5 25.42 1.1 37.86-1 12-4.82 8.35-24.23-4.71-24zm128.06-161H193V75.17c-4.81-24.06-30.2-6.29-24 11.05V237H29.37c-16.29.98-11.74 19.12-12.37 30.17V433.2c6.83 25.47 31.39 4.33 25-13.51V262h279v174.83c4.81 24.06 30.2 6.29 24-11.05V248.74c.3-6.36-5.33-12.02-11.68-11.74zM482.54 76H392.8c-25.47 6.83-4.33 31.39 13.51 25 5.55 1.91 19.1-4.17 18.69 3.69v151.84c4.81 24.06 30.2 6.29 24-11.05V101c12.74-.54 25.71 1.16 38.28-1 12.02-5.05 8.41-24.05-4.74-24z"/></svg>