<svg xmlns="http://www.w3.org/2000/svg" width="512" height="512"><path d="M406.35 233H233c-.2-67.78.4-135.6-.3-203.35-4.24-19.78-34.2-10.34-28.7 8.26V233c-58.48.18-116.99-.35-175.45.26C12.22 237.12 18.07 256 17 268.2c.2 69.6-.4 139.25.3 208.83 4.24 19.78 34.2 10.34 28.7-8.26V261h347c.19 73.49-.37 147.01.28 220.48 3.9 19.93 33.42 10.1 27.72-8.25-.2-76.46.4-152.97-.3-229.4-1.35-6.55-7.92-10.92-14.35-10.83zM479.5 34.4c-15.81.16-15.1 17.7-14.5 29.06.2 65.21-.4 130.46.3 195.65 4.24 19.78 34.2 10.34 28.7-8.26-.2-68.35.4-136.74-.3-205.07-1.3-6.52-7.58-11.5-14.2-11.38z"/></svg>