<svg xmlns="http://www.w3.org/2000/svg" width="512" height="512"><path d="M263.64 239H158c-.15-41.71.3-83.45-.23-125.15-6.73-19.72-28.02-3.6-22.77 11.4V239c-36.23.15-72.49-.3-108.7.23-13.78 4.05-8.12 19.84-9.3 30.42.17 41.9-.34 83.82.25 125.7 3.63 16.17 28.26 8.43 23.75-6.88V262h211c.17 45.38-.34 90.79.25 136.14 3.63 16.18 28.25 8.43 23.75-6.86-.18-47.73.36-95.5-.27-143.2-1.24-5.38-6.68-9.11-12.09-9.08zM379 115c-23.91.15-47.85-.3-71.74.23-19.72 6.74-3.6 28.02 11.4 22.77 6.23.81 17.53-3.44 14.34 6.79.15 37.98-.3 76 .23 113.96 6.73 19.73 28.03 3.62 22.77-11.39V138c10.38-1.1 22.15 2.81 31.23-3.34 7.45-6.78 1.78-20.11-8.23-19.66zm107.06.07c-13.93-2.98-15.39 12.96-18.03 22.46l-19.65 73.72c-8.17-30.02-15.74-60.24-24.3-90.14-11.62-17.24-28.3 3.72-19.32 16.95l32.39 121.36c8.53 18.97 25.92 2.11 25.68-12.01 10.54-40.15 21.69-80.17 31.85-120.4.42-5.4-3.47-10.6-8.62-11.94z"/></svg>