<svg xmlns="http://www.w3.org/2000/svg" width="512" height="512"><path d="M223.66 239H138c-.17-34.06.34-68.15-.25-102.19-3.46-17.1-29.4-9.2-24.75 6.88V239c-29.32.16-58.68-.33-87.98.25-13.78 3.27-9.27 19.18-10.02 29.53.17 34.7-.34 69.41.25 104.08 3.46 17.1 29.4 9.19 24.75-6.88V263h171c.17 37.4-.34 74.82.25 112.19 3.46 17.1 29.4 9.2 24.75-6.88-.17-39.83.33-79.7-.25-119.5a12.29 12.29 0 0 0-12.09-9.81zm96.28-104c-20.13.16-40.3-.33-60.42.25-17.1 3.46-9.2 29.4 6.88 24.75 7.63-.85 14.42-.86 11.6 8.74.17 30.03-.34 60.1.26 90.11 3.46 17.1 29.39 9.18 24.74-6.9V160c10.24-.67 25.85 3.58 29.14-9.99 1.74-7.44-4.56-15.22-12.2-15.01zm90.06.73c-12.87-3.33-16.4 10.98-18.33 20.44l-13.82 51.85c-6.02-21.92-11.4-44.04-17.82-65.83-7.73-15.65-30.7-1.3-22.04 13l27.84 104.36c8.42 19.63 27.4 3.32 27.15-11.63 8.67-33.16 17.99-66.2 26.24-99.45a12.47 12.47 0 0 0-9.22-12.74zm85.6 115.99l-14.8-36.4c17.57-12.13 16.59-35.67 13.82-54.33-3.46-17.19-20.46-28.53-37.53-25.99-9.88 1.15-21.55-3.01-29.78 3.8-6.04 9.74-2.24 22.04-3.31 33 .17 29.01-.34 58.06.26 87.05 3.46 17.1 29.39 9.18 24.74-6.9V221c8.8-2.95 9.47 6.13 12.2 12.16 5.45 11.15 7.6 24.46 15.94 33.73 9.77 6.92 23.3-4.38 18.46-15.17zM471 183.94c1.41 13.55-11.68 12.68-20.76 12.07-2.99-3.61-.35-12.86-1.24-18.58 1.6-5.3-3.55-17.35 3.28-17.42 9.79-1.84 21.27 1.35 18.72 14.07v9.86z"/></svg>