<svg xmlns="http://www.w3.org/2000/svg" width="512" height="512"><path d="M100.5 339.07c14.42-.13 14.1-16.17 13.5-26.62V250.2c12.88 27.94 24.41 56.6 38.17 84.07 14.07 14.1 27.73-5.34 23.83-19.52-.18-44.06.36-88.16-.27-132.2-3.54-18.9-31.9-10.14-26.73 7.44v70.4c-12.4-27.56-24.33-55.35-37.04-82.76-12.24-15.93-29.36 2.2-24.96 17.03.18 44.47-.36 88.97.27 133.41 1.1 6.21 6.89 11.14 13.23 11zm110.83-11.37c4.76 19.92 29.69 9.92 28.99-6.76l9.47-35.53c4.67 15.8 7.66 32.2 13.48 47.6 11.94 15.41 28.03-1.25 26.83-15.65 7.65-44.14 16.05-88.2 23.24-132.4-.37-19.18-30.03-15.77-28.15 2.56l-13.2 74.3c-3.73-12.45-5.9-25.46-10.78-37.5-13.76-16.28-27.52 3.36-28.35 17.68-1.79 5.36-3.85 17.07-5.47 18.61-4.95-26.77-9.16-53.7-14.56-80.36-6.99-17.87-33.6-4.42-25.53 12.12 8 45.08 16.07 90.39 24.03 135.33zM336.86 199H361c.18 43.02-.36 86.08.27 129.07 3.54 18.9 31.9 10.13 26.73-7.44V199c11.05-1.21 23.88 3.23 33.23-4.15 11.82-12.54-4.04-27.89-17.91-23.85-23.08.19-46.2-.38-69.24.29-15.98 3.37-13.65 27.64 2.78 27.71zM480.48 87H31.52C17.1 87.3 17.4 103.39 18 113.91c.18 99.94-.36 199.9.27 299.82C21.57 428.9 38.9 424.3 50.2 425h430.28c14.42-.3 14.12-16.38 13.52-26.9-.18-99.94.36-199.91-.27-299.83-1.1-6.24-6.81-11.41-13.25-11.27zM467 396H45V115h422v281z"/></svg>