<svg xmlns="http://www.w3.org/2000/svg" width="512" height="512"><path d="M99.82 314c16.02-.95 36.03 4.39 46.78-11.25 10.21-14.96 5.18-33.75 6.4-50.71-.39-16.77 3.18-37.09-12.33-48.58-11.84-8.78-27.19-4.39-40.85-5.46-13.49 1.59-9.05 17.19-9.82 26.63v79.26c-.35 5.43 4.31 10.45 9.82 10.11zM111 220c8.35 0 21.93-2.53 20 10.94-.3 18.62.62 37.32-.5 55.89-.69 8.03-17.3 8.1-19.5 4.05V220zm56 94.6c13.34-.59 10.96-15.24 11-24.47 1.38-5.04-2.79-15.62 2.12-17.13 12.5.68 27.04.08 34.35-12.01 8.63-12.54 7.67-29.41 4.27-43.5-4.63-14.57-20.06-21.37-34.37-19.49-9.68.86-24.2-3.67-28.12 8.59-.43 33.12-.39 66.33-.02 99.45 1 4.93 5.82 8.6 10.77 8.56zm11-94.6c8.16.44 21.72-3.28 21 9.88.48 8.54.8 23.62-11.46 21.12-8.29 1.93-11.47-1.24-9.54-9.53V220zm229.1-47c-17.63.15-35.29-.3-52.9.23-18.06 6.47-3.5 26.68 10.63 21.77 9.55-2.9 5.28 8.01 6.17 13.77.14 24.3-.28 48.63.2 72.91 7.92 19.21 25.7 1.2 20.8-12.75V195c9.1-.69 22.53 3.37 25.6-8.83 1.47-6.37-3.87-13.3-10.5-13.17zm78.9 1.04c-12.94-2.74-14.19 12.1-16.67 20.9l-11.48 43c-5.33-19.42-10.1-39.02-15.77-58.33-10.8-15.95-26.08 3.51-17.77 15.72l23.18 86.83c8 17.36 23.94 1.76 23.7-11.24 7.51-28.68 15.6-57.22 22.74-85.97.37-4.94-3.2-9.76-7.93-10.91zM292 150.7c-.7-13.19-15.35-10.57-24.48-10.7-80.32.15-160.67-.29-240.97.22-12.7 3.97-7.44 18.6-8.55 28.48.14 64.92-.29 129.86.22 194.75 3.97 12.7 18.6 7.44 28.5 8.55 78.9-.15 157.85.29 236.74-.22 12.72-3.96 7.45-18.6 8.56-28.5-.01-64.18.03-128.42-.02-192.58zM270 351H39V162h231v189z"/></svg>