<svg xmlns="http://www.w3.org/2000/svg" width="512" height="512"><path d="M107.03 319c16.42-1.2 36.38 4.67 48.42-10.04 12.9-15.7 7.31-36.82 8.55-55.44-.73-18.73 4.12-41.44-12.9-54.67-12.76-9.45-29.33-4.68-44.07-5.85-13.57.7-10.9 15.86-11.03 25.27.15 30.56-.29 61.16.22 91.7.84 5.1 5.64 9.16 10.81 9.03zM119 216c8.1.76 21.32-3.66 21.86 8.86-.01 21.46.73 43.03-.4 64.42-1.47 9.55-16.4 7.2-21.46 5.64V216zm61.5 103.06c12.6-.15 11.96-14.17 11.5-23.2V273c13.97.34 30.7 1.3 39.15-12.45 9.19-13.46 7.94-31.52 4.5-46.63-4.73-15.44-20.96-22.92-36.12-20.92-9.95 1.22-23.71-3.95-29.6 6.87-2.07 17.74-.38 35.96-.93 53.9.16 18.73-.32 37.5.24 56.2a11.56 11.56 0 0 0 11.26 9.09zM192 216c7.76 1.15 19.6-3.86 22.4 6.7.26 9.33 4 24.75-7.34 28.3-4.8-1.65-16.93 4.02-15.06-4.3V216zm290.4-50c-19.15.16-38.32-.32-57.45.24-15.77 3.35-8.2 27.17 6.6 22.76 7.5-.83 14.23-.86 11.45 8.6.16 28.63-.31 57.29.24 85.9 3.34 15.77 27.17 8.2 22.76-6.6V189c9.6-.73 24.36 3.57 27.53-9.2 1.57-6.83-4.13-13.96-11.13-13.8zM315 141.36c-.19-12.56-14.21-11.77-23.2-11.36-88.23.15-176.5-.3-264.73.23-12.9 3.41-8.2 18.54-9.07 28.34.15 71.12-.3 142.26.23 213.36 3.41 12.9 18.54 8.2 28.34 9.07 86.45-.15 172.93.3 259.36-.23 12.9-3.41 8.19-18.54 9.07-28.34V141.36zM292 359H41V153h251v206z"/></svg>