<svg xmlns="http://www.w3.org/2000/svg" width="512" height="512"><path d="M174.35 117c6.32 2.04 21.71-5 19.65 5.43.2 35.93-.39 71.9.29 107.8 8.23 23.32 34 4.43 27.71-13.65V117c11.23-.83 27.77 4.06 31.78-10.73 2.55-17.63-17.82-17.02-29.81-16.27-18.3.61-36.9-1.28-54.98 1.04-13.94 5.27-9.26 26.46 5.36 25.96zm118.53 114c10.23 22.56 30.79 2.33 30.5-14.44 9.76-37.32 20.25-74.49 29.54-111.9-1.83-24.7-31.36-12.81-29.91 6.14l-16.81 63.1c-6.97-25.37-13.22-50.98-20.63-76.21-13.9-20.5-33.55 4.52-22.87 20.22L292.88 231zM229 272.3c-17.07.8-13.9 19.64-14 31.45-.4 27.96.83 56.04-.65 83.92-4.23 16.02-35.98.57-31.54 25.12 5.76 16.64 29.39 12.32 41.53 6.1 22.56-14.14 18.4-42.42 18.66-65.2-.19-23.45.38-46.95-.29-70.37-1.23-6.3-7.34-11.12-13.71-11.02zm96.48 41.1c1.15-22.86-19-45.01-42.55-41.4-11.88 1.03-29.78-4.6-33.67 11.3-.43 43.04-.43 86.16 0 129.2 4.37 16.66 23.47 10.2 36.09 11.5 27.19 3.38 47.04-24.86 44.66-50.03 1.2-21.3-19.45-34.04-5.13-53.44-1.25 1.64 2.3-8.85.6-7.13zM277 300c16.03-5.47 28.87 13.84 15.62 25.99-9.18 2.83-19.7 2.47-15.62-9.85V300zm26 76.73c1.99 16.14-13.05 21.77-26 19.27v-41c13.35-2.7 28.7 3.95 26 20.33v1.36zM496 29.8c-.88-16.97-19.7-13.65-31.45-13.8-145.84.19-291.72-.37-437.53.28-16.35 5.08-9.6 23.89-11.02 36.6.19 144.03-.37 288.1.28 432.1 5.08 16.35 23.89 9.6 36.6 11.02 144.03-.19 288.1.37 432.1-.28 16.35-5.08 9.6-23.89 11.02-36.6V29.8zM468 470H44V44h424v426z"/></svg>