<svg xmlns="http://www.w3.org/2000/svg" width="512" height="512"><path d="M352.38 295.44c6.93-7.4 14.91-13.94 21.16-21.9.9-16.46-15.61-5.6-20.4 2.04-6.6 8.75-12.97 13.22-20.78 1.96-44.33-32.85-110.98-28.68-150.89 9.43-7.76-7.3-14.66-15.63-22.98-22.23-16.45-.9-5.58 15.6 2.05 20.4 6.1 6.4 16.78 12.31 4.97 19.75-33.3 43.88-29.91 110.42 7.59 150.76-7.67 8.16-16.42 15.43-23.4 24.15-.9 16.48 15.58 5.6 20.38-2.04 5.56-2.93 10.65-17.25 16.64-9.08 42.61 36.3 110.65 35.97 152.9-.73 5.61-2.35 10.67 8.93 16.04 12.34 4.7 11.75 26.12 9.09 14.84-4.28l-19.18-19.18c38.8-40.57 42.3-108.77 7.84-153.08a125.84 125.84 0 0 0-6.78-8.31zM192.2 436.52c-29.76-32.96-30.24-87.3-1.02-120.75l60.9 60.9c-19.96 19.95-39.91 39.91-59.88 59.85zm140.03 1.2l-61.07-61.06 62.1-62.1c30.68 34.04 30.17 89.7-1.03 123.16zM126.7 61H171c.77 9.33-1.73 19.38 1.6 28.16 12.61 7.09 10.48-11.54 10.4-19.12-2.7-9.38 3.17-10.21 11.03-9.04 6.85.05 16.15-2.35 12.97 7.72.93 7.93-3.76 21.17 8 22.41 11.93-1.4 6.96-15.14 8-23.3-.4-8.23 3.1-22.15-9.7-21.83h-86.6c-8.8.43-8.8 14.56 0 15zm0 81c-16.29 6.86 1.84 17.85 12.15 14 26.04-.38 52.24.75 78.18-.57 12.25-11.17-6.85-15.57-15.87-13.43-5.4-1.38-16.4 2.83-18.16-2.2V115c11.33-.3 22.77.63 34.02-.5 12.24-10.84-7.31-14.39-15.87-12.5-25.68.32-51.47-.65-77.07.5-12.25 10.83 7.3 14.39 15.86 12.5H171v27h-44.3zm64.1 79.53c19.13.8 34.45-17.56 32.2-35.8 1.85-9.24-1.43-19.56-13.01-16.73-28.63.27-57.33-.55-85.9.41-12.22 10.47 7.75 13.23 15.86 11.59 5.92.8 15-1.56 19.05 1.1.06 6.76 2.03 14.8-7.15 15.34-9.8 4.33-20.19 7.5-29.57 12.6-7.58 14.13 11.15 11.76 18.28 6.37l23.54-9.7c5.34 9.32 16.08 14.97 26.7 14.82zM173 181h34c.72 10.52.51 25.1-13.16 26.73C177 211.18 172.16 193.96 173 181zm90.87-93h67.44c10.31-3.08 5.64-15.79 6.7-23.85-7.81-17.9-13.18 4.7-15.2 8.85H271c-.35-8.56-.14-16.74 2.56-24.7 5.3-17.9 25.65-16.62 40.59-16.3h37.39c12.74-4.15 28.81 9.16 27.47 23.1.88 9.78-1.96 20.48 1.85 29.56 12.93 7.3 11.48-11.2 11.15-19.11.8-14.81-.23-31.83-14.28-40.64-19.63-13.07-43.56-7.82-65.9-8.92-19.94-1.56-43.81 4.38-51.27 25.34-4.8 8.66-5.07 18.16-4.57 28.1.21 6.93-2 17.28 7.87 18.57zm123.75 64.25l-121.4-44.98c-17.68.64-4.07 16.88 6.68 16.88 37.5 13.6 74.7 28.25 112.38 41.19 7.28.27 9.39-10.77 2.34-13.09zm-24.79 35.09c-16.6-6.14-10.2 14.44-.26 18.63 10.55 6.9-1.57 4.81-7.89 5.03-31.14.22-62.34-.44-93.44.33-12.17 10.05 8.16 12.06 15.86 10.67h108.18c14.84-2.82-.17-15.37-6.1-19.99-5.46-4.89-10.9-9.8-16.35-14.67z"/></svg>