<?xml version="1.0" encoding="UTF-8" standalone="no"?>
<svg
   xmlns:dc="http://purl.org/dc/elements/1.1/"
   xmlns:cc="http://creativecommons.org/ns#"
   xmlns:rdf="http://www.w3.org/1999/02/22-rdf-syntax-ns#"
   xmlns:svg="http://www.w3.org/2000/svg"
   xmlns="http://www.w3.org/2000/svg"
   xmlns:sodipodi="http://sodipodi.sourceforge.net/DTD/sodipodi-0.dtd"
   xmlns:inkscape="http://www.inkscape.org/namespaces/inkscape"
   width="512"
   height="512"
   viewBox="0 0 512 512"
   version="1.1"
   id="svg6"
   sodipodi:docname="connection unit with one pole switch.svg"
   inkscape:version="0.92.1 r15371">
  <metadata
     id="metadata12">
    <rdf:RDF>
      <cc:Work
         rdf:about="">
        <dc:format>image/svg+xml</dc:format>
        <dc:type
           rdf:resource="http://purl.org/dc/dcmitype/StillImage" />
      </cc:Work>
    </rdf:RDF>
  </metadata>
  <defs
     id="defs10" />
  <sodipodi:namedview
     pagecolor="#ffffff"
     bordercolor="#666666"
     borderopacity="1"
     objecttolerance="10"
     gridtolerance="10"
     guidetolerance="10"
     inkscape:pageopacity="0"
     inkscape:pageshadow="2"
     inkscape:window-width="640"
     inkscape:window-height="493"
     id="namedview8"
     showgrid="false"
     inkscape:zoom="0.4609375"
     inkscape:cx="256"
     inkscape:cy="256"
     inkscape:window-x="0"
     inkscape:window-y="0"
     inkscape:window-maximized="0"
     inkscape:current-layer="svg6" />
  <path
     d="M 487.97,102.72 C 464.31016,89.472738 441.26913,74.897812 417.21412,62.49791 401.61932,60.25611 398.47606,78.300031 391.23435,88.10363 354.9429,150.96242 318.65145,213.82121 282.36,276.68 260.36671,264.93102 235.87907,257.83227 211,256.1 210.81793,203.89254 211.36387,151.64892 210.72754,99.464023 206.9568,80.689844 178.7752,89.662894 184,107.15252 c 0,49.65916 0,99.31832 0,148.97748 -66.45583,4.34272 -128.06995,48.98785 -152.921577,110.77079 -9.395495,22.6906 -14.248749,47.41391 -13.727407,71.92944 3.955893,18.7122 32.05319,9.9118 27.128409,-7.66174 1.302373,-61.02338 42.754249,-118.63871 100.350615,-138.96792 57.73547,-22.10501 127.74362,-4.514 168.00994,42.4436 25.49458,28.39994 38.73814,66.52888 38.67746,104.49171 3.4321,18.23907 31.45424,10.59263 26.7762,-6.74734 C 377.53267,377.39142 349.74828,323.6833 305.39,291.19 343.27,225.53667 381.15,159.88333 419.03,94.23 c 19.62233,11.00033 38.72676,23.04738 58.6875,33.36375 15.16957,4.1524 23.7486,-17.31579 10.2525,-24.87375 z M 22.6,256.14 c 155.71667,0 311.43333,0 467.15,0"
     id="path4"
     inkscape:connector-curvature="0" />
</svg>
