<?xml version="1.0" encoding="UTF-8" standalone="no"?>
<svg
   xmlns:dc="http://purl.org/dc/elements/1.1/"
   xmlns:cc="http://creativecommons.org/ns#"
   xmlns:rdf="http://www.w3.org/1999/02/22-rdf-syntax-ns#"
   xmlns:svg="http://www.w3.org/2000/svg"
   xmlns="http://www.w3.org/2000/svg"
   xmlns:sodipodi="http://sodipodi.sourceforge.net/DTD/sodipodi-0.dtd"
   xmlns:inkscape="http://www.inkscape.org/namespaces/inkscape"
   width="512"
   height="512"
   viewBox="0 0 512 512"
   version="1.1"
   id="svg6"
   sodipodi:docname="connection unit with cable outlet.svg"
   inkscape:version="0.92.1 r15371">
  <metadata
     id="metadata12">
    <rdf:RDF>
      <cc:Work
         rdf:about="">
        <dc:format>image/svg+xml</dc:format>
        <dc:type
           rdf:resource="http://purl.org/dc/dcmitype/StillImage" />
      </cc:Work>
    </rdf:RDF>
  </metadata>
  <defs
     id="defs10" />
  <sodipodi:namedview
     pagecolor="#ffffff"
     bordercolor="#666666"
     borderopacity="1"
     objecttolerance="10"
     gridtolerance="10"
     guidetolerance="10"
     inkscape:pageopacity="0"
     inkscape:pageshadow="2"
     inkscape:window-width="640"
     inkscape:window-height="493"
     id="namedview8"
     showgrid="false"
     inkscape:zoom="0.4609375"
     inkscape:cx="256"
     inkscape:cy="256"
     inkscape:window-x="0"
     inkscape:window-y="0"
     inkscape:window-maximized="0"
     inkscape:current-layer="svg6" />
  <path
     d="M 492.73,360.6 C 490.9655,285.06134 450.3433,211.8363 387.11,170.45 349.38349,145.56702 304.30941,130.82839 258.98331,131.23511 c -8.10945,1.2369 -17.22357,-0.81419 -25.889,0.72674 -76.37573,6.83109 -147.573325,53.68614 -184.218552,121.01787 -19.828596,35.66364 -30.230196,76.67712 -29.579235,117.42364 3.656484,18.09593 31.215687,10.18888 26.728985,-6.98848 C 46.951157,292.66383 86.519903,223.96845 147.43885,187.90933 176.25294,170.43075 209.36272,160.05947 243.01,158.07 c 0.16969,70.76252 -0.33962,141.55705 0.25508,212.29953 3.24771,18.22689 30.66051,9.97265 25.74492,-6.98571 0,-68.43794 0,-136.87588 0,-205.31382 72.39705,3.81942 140.86657,48.3699 173.54526,113.10613 15.98249,30.33741 23.46649,64.63784 23.80814,98.79408 3.4187,16.72345 30.58719,10.39516 26.40622,-6.18445 -0.0114,-1.06144 -0.0442,-2.12798 -0.0396,-3.18576 z M 22.6,256.14 c 155.71667,0 311.43333,0 467.15,0"
     id="path4"
     inkscape:connector-curvature="0" />
</svg>
