<?xml version="1.0" encoding="UTF-8" standalone="no"?>
<svg
   xmlns:dc="http://purl.org/dc/elements/1.1/"
   xmlns:cc="http://creativecommons.org/ns#"
   xmlns:rdf="http://www.w3.org/1999/02/22-rdf-syntax-ns#"
   xmlns:svg="http://www.w3.org/2000/svg"
   xmlns="http://www.w3.org/2000/svg"
   xmlns:sodipodi="http://sodipodi.sourceforge.net/DTD/sodipodi-0.dtd"
   xmlns:inkscape="http://www.inkscape.org/namespaces/inkscape"
   width="512"
   height="512"
   viewBox="0 0 512 512"
   version="1.1"
   id="svg6"
   sodipodi:docname="contactor.svg"
   inkscape:version="0.92.1 r15371">
  <metadata
     id="metadata12">
    <rdf:RDF>
      <cc:Work
         rdf:about="">
        <dc:format>image/svg+xml</dc:format>
        <dc:type
           rdf:resource="http://purl.org/dc/dcmitype/StillImage" />
      </cc:Work>
    </rdf:RDF>
  </metadata>
  <defs
     id="defs10" />
  <sodipodi:namedview
     pagecolor="#ffffff"
     bordercolor="#666666"
     borderopacity="1"
     objecttolerance="10"
     gridtolerance="10"
     guidetolerance="10"
     inkscape:pageopacity="0"
     inkscape:pageshadow="2"
     inkscape:window-width="640"
     inkscape:window-height="493"
     id="namedview8"
     showgrid="false"
     inkscape:zoom="0.4609375"
     inkscape:cx="256"
     inkscape:cy="256"
     inkscape:window-x="0"
     inkscape:window-y="0"
     inkscape:window-maximized="0"
     inkscape:current-layer="svg6" />
  <path
     d="M 495,32.82 C 494.91644,16.12217 476.46364,16.215221 464.30813,17 320.47875,17 176.64938,17 32.82,17 16.12217,17.083561 16.215221,35.536363 17,47.691871 17,191.52125 17,335.35062 17,479.18 c 0.08356,16.69783 18.536363,16.60478 30.691871,15.82 143.829379,0 287.658749,0 431.488129,0 16.69783,-0.0836 16.60478,-18.53636 15.82,-30.69187 0,-143.82938 0,-287.65875 0,-431.48813 z M 240,463 c -63.66667,0 -127.33333,0 -191,0 0,-63.66667 0,-127.33333 0,-191 63.66667,0 127.33333,0 191,0 0,63.66667 0,127.33333 0,191 z m 0,-223 c -63.66667,0 -127.33333,0 -191,0 0,-63.66667 0,-127.33333 0,-191 63.66667,0 127.33333,0 191,0 0,63.66667 0,127.33333 0,191 z m 223,223 c -63.66667,0 -127.33333,0 -191,0 0,-63.66667 0,-127.33333 0,-191 63.66667,0 127.33333,0 191,0 0,63.66667 0,127.33333 0,191 z m 0,-223 c -63.66667,0 -127.33333,0 -191,0 0,-63.66667 0,-127.33333 0,-191 63.66667,0 127.33333,0 191,0 0,63.66667 0,127.33333 0,191 z M 22.6,256.14 c 155.71667,0 311.43333,0 467.15,0"
     id="path4"
     inkscape:connector-curvature="0" />
</svg>
