<?xml version="1.0" encoding="UTF-8" standalone="no"?>
<svg
   xmlns:dc="http://purl.org/dc/elements/1.1/"
   xmlns:cc="http://creativecommons.org/ns#"
   xmlns:rdf="http://www.w3.org/1999/02/22-rdf-syntax-ns#"
   xmlns:svg="http://www.w3.org/2000/svg"
   xmlns="http://www.w3.org/2000/svg"
   xmlns:sodipodi="http://sodipodi.sourceforge.net/DTD/sodipodi-0.dtd"
   xmlns:inkscape="http://www.inkscape.org/namespaces/inkscape"
   width="512"
   height="512"
   viewBox="0 0 512 512"
   version="1.1"
   id="svg8"
   sodipodi:docname="cooker control unit.svg"
   inkscape:version="0.92.1 r15371">
  <metadata
     id="metadata14">
    <rdf:RDF>
      <cc:Work
         rdf:about="">
        <dc:format>image/svg+xml</dc:format>
        <dc:type
           rdf:resource="http://purl.org/dc/dcmitype/StillImage" />
      </cc:Work>
    </rdf:RDF>
  </metadata>
  <defs
     id="defs12" />
  <sodipodi:namedview
     pagecolor="#ffffff"
     bordercolor="#666666"
     borderopacity="1"
     objecttolerance="10"
     gridtolerance="10"
     guidetolerance="10"
     inkscape:pageopacity="0"
     inkscape:pageshadow="2"
     inkscape:window-width="640"
     inkscape:window-height="493"
     id="namedview10"
     showgrid="false"
     inkscape:zoom="0.4609375"
     inkscape:cx="256"
     inkscape:cy="256"
     inkscape:window-x="0"
     inkscape:window-y="0"
     inkscape:window-maximized="0"
     inkscape:current-layer="svg8" />
  <path
     d="m 303.1,355 c 10.71035,-0.97276 28.39699,4.42075 30.3,-11 -1.81867,-15.36677 -19.6021,-10.03473 -30.3,-11 -12.76346,-5.21675 -6.6503,-21.5496 -8.1,-32.42108 0.43158,-12.74892 -0.91846,-25.65713 0.77766,-38.29298 7.32184,-14.5424 29.34913,2.13231 36.72031,-13.3186 C 337.32619,230.23904 314.99368,232.82279 303.23905,233 281.97325,232.77704 269.12077,255.28412 272,274.61041 c 1.01189,20.07172 -2.39429,40.73851 2.51094,60.31256 C 279.04391,346.42648 290.54106,355.11036 303.1,355 Z M 182.46,460 c 10.84338,-0.84947 28.64495,4.28881 30.29,-11.5 -1.56709,-15.71689 -19.45715,-10.65975 -30.29,-11.5 -10.7273,-5.68056 -4.98837,-20.69201 -6.46,-30.84601 0.87737,-14.15366 -1.9921,-28.98861 1.925,-42.60649 9.74283,-7.39386 27.05904,4.03137 33.92437,-9.58016 C 216.67765,335.23657 194.34443,337.82391 182.58905,338 161.48309,337.47769 150.25901,360.2062 153,378.82041 c 0.90523,20.13139 -2.14406,40.73834 2.25328,60.47131 C 159.1519,450.74853 169.96993,460.23909 182.46,460 Z M 409.72,50.9 C 390.99677,40.141555 372.35168,29.239193 353.58,18.57 338.5908,13.621851 335.04776,32.332687 328.26256,41.439472 298.26171,93.292981 268.26085,145.14649 238.26,197 c -43.41756,0.24051 -87.493,-0.48069 -130.5,0.36 -7.768201,0.61153 -13.135756,8.39357 -10.76,15.8152 0,89.9916 0,179.9832 0,269.9748 1.783855,15.64869 20.10187,9.62039 30.92601,10.82 85.91934,-0.0502 172.09276,0.0981 257.85399,-0.07 12.37412,-5.46586 7.06728,-21.50728 8.2,-32.11108 0,-84.21297 0,-168.42595 0,-252.63892 -2.34073,-16.95694 -21.56971,-11.13776 -33.48108,-12.17 -31.91297,0 -63.82595,0 -95.73892,0 23.55667,-40.68667 47.11333,-81.37333 70.67,-122.06 16.04359,9.03776 31.63957,18.967916 47.96375,27.44625 22.47697,1.5291 12.807,-24.641198 -2.90992,-27.584408 C 369.28922,68.327895 358.09461,61.873947 346.9,55.42 350.13474,45.254938 355.52979,43.155981 363.50656,50.696531 377.1176,57.556944 389.47293,67.788908 403.97,72.29 415.23258,72.775249 419.95914,56.254594 409.72,50.9 Z M 120,471 c 0,-78.04333 0,-156.08667 0,-234.13 78.06667,78.04333 156.13333,156.08667 234.2,234.13 -78.06667,0 -156.13333,0 -234.2,0 z M 371,220 c 0,78.5 0,157 0,235.5 C 292.52333,377 214.04667,298.5 135.57,220 c 78.47667,0 156.95333,0 235.43,0 z M 22.6,256.14 c 155.71667,0 311.43333,0 467.15,0"
     id="path6"
     inkscape:connector-curvature="0" />
</svg>
