<?xml version="1.0" encoding="UTF-8" standalone="no"?>
<svg
   xmlns:dc="http://purl.org/dc/elements/1.1/"
   xmlns:cc="http://creativecommons.org/ns#"
   xmlns:rdf="http://www.w3.org/1999/02/22-rdf-syntax-ns#"
   xmlns:svg="http://www.w3.org/2000/svg"
   xmlns="http://www.w3.org/2000/svg"
   xmlns:sodipodi="http://sodipodi.sourceforge.net/DTD/sodipodi-0.dtd"
   xmlns:inkscape="http://www.inkscape.org/namespaces/inkscape"
   width="512"
   height="512"
   viewBox="0 0 512 512"
   version="1.1"
   id="svg6"
   sodipodi:docname="distribution board.svg"
   inkscape:version="0.92.1 r15371">
  <metadata
     id="metadata12">
    <rdf:RDF>
      <cc:Work
         rdf:about="">
        <dc:format>image/svg+xml</dc:format>
        <dc:type
           rdf:resource="http://purl.org/dc/dcmitype/StillImage" />
      </cc:Work>
    </rdf:RDF>
  </metadata>
  <defs
     id="defs10" />
  <sodipodi:namedview
     pagecolor="#ffffff"
     bordercolor="#666666"
     borderopacity="1"
     objecttolerance="10"
     gridtolerance="10"
     guidetolerance="10"
     inkscape:pageopacity="0"
     inkscape:pageshadow="2"
     inkscape:window-width="638"
     inkscape:window-height="493"
     id="namedview8"
     showgrid="false"
     inkscape:zoom="0.4609375"
     inkscape:cx="256"
     inkscape:cy="256"
     inkscape:window-x="0"
     inkscape:window-y="0"
     inkscape:window-maximized="0"
     inkscape:current-layer="svg6" />
  <path
     d="m 495,162.4 c -0.50905,-5.93484 -6.66113,-6.15791 -11.14595,-5.39 -153.63135,0 -307.2627,0 -460.89405,0 -9.737794,1.72716 -4.722733,13.85263 -5.96,20.84784 0.193443,57.61967 -0.386813,115.35437 0.29,172.90216 2.125704,7.47079 11.480903,3.09355 17.047084,4.23 151.564306,0 303.128606,0 454.692916,0 9.73779,-1.72716 4.72273,-13.85263 5.96,-20.84784 0.007,-57.2466 -0.0133,-114.4995 0.01,-171.74216 z M 29,341.24 c 0,-57.74667 0,-115.49333 0,-173.24 143.50667,0 287.01333,0 430.52,0 C 316.01643,225.74876 172.48811,283.4808 29,341.24 Z m -6.4,-85.1 c 155.71667,0 311.43333,0 467.15,0"
     id="path4"
     inkscape:connector-curvature="0" />
</svg>
