<?xml version="1.0" encoding="UTF-8" standalone="no"?>
<svg
   xmlns:dc="http://purl.org/dc/elements/1.1/"
   xmlns:cc="http://creativecommons.org/ns#"
   xmlns:rdf="http://www.w3.org/1999/02/22-rdf-syntax-ns#"
   xmlns:svg="http://www.w3.org/2000/svg"
   xmlns="http://www.w3.org/2000/svg"
   xmlns:sodipodi="http://sodipodi.sourceforge.net/DTD/sodipodi-0.dtd"
   xmlns:inkscape="http://www.inkscape.org/namespaces/inkscape"
   width="512"
   height="512"
   viewBox="0 0 512 512"
   version="1.1"
   id="svg8"
   sodipodi:docname="double pole switched fuesd flex outlet _ neon indicator.svg"
   inkscape:version="0.92.1 r15371">
  <metadata
     id="metadata14">
    <rdf:RDF>
      <cc:Work
         rdf:about="">
        <dc:format>image/svg+xml</dc:format>
        <dc:type
           rdf:resource="http://purl.org/dc/dcmitype/StillImage" />
      </cc:Work>
    </rdf:RDF>
  </metadata>
  <defs
     id="defs12" />
  <sodipodi:namedview
     pagecolor="#ffffff"
     bordercolor="#666666"
     borderopacity="1"
     objecttolerance="10"
     gridtolerance="10"
     guidetolerance="10"
     inkscape:pageopacity="0"
     inkscape:pageshadow="2"
     inkscape:window-width="638"
     inkscape:window-height="493"
     id="namedview10"
     showgrid="false"
     inkscape:zoom="0.4609375"
     inkscape:cx="256"
     inkscape:cy="256"
     inkscape:window-x="0"
     inkscape:window-y="0"
     inkscape:window-maximized="0"
     inkscape:current-layer="svg8" />
  <path
     d="m 132.45,394.83 c 12.96941,10.5041 22.46142,-6.7246 31.23389,-14.17232 25.3187,-25.31589 50.63741,-50.63179 75.95611,-75.94768 30.04333,30.04333 60.08667,60.08667 90.13,90.13 23.66183,13.10711 23.64969,-19.59069 6.67639,-27.46361 C 309.87093,340.80093 283.29546,314.22546 256.72,287.65 c 30.04,-30.03333 60.08,-60.06667 90.12,-90.1 13.11222,-23.66348 -19.5881,-23.6629 -27.46418,-6.68697 -26.57861,26.57566 -53.15721,53.15131 -79.73582,79.72697 -30.04333,-30.04 -60.08667,-60.08 -90.13,-90.12 -23.66276,-13.08747 -23.63623,19.59375 -6.67466,27.46188 26.57822,26.56937 53.15644,53.13875 79.73466,79.70812 -30.04333,30.04333 -60.08667,60.08667 -90.13,90.13 -4.68273,4.45421 -4.668,12.63938 0.01,17.06 z M 413.1,58.77 C 398.89086,45.449397 386.22669,30.11119 371.04,18.06 358.52158,14.293578 352.35412,28.882445 343.83388,35.400031 307.43925,71.933354 271.04463,108.46668 234.65,145 c -42.18333,0 -84.36667,0 -126.55,0 -17.393822,0.51027 -12.400893,19.61536 -13.1,31.14379 0,81.01207 0,162.02414 0,243.03621 2.468343,17.45762 22.13776,11.91024 34.48005,12.82 32.83998,0 65.67997,0 98.51995,0 0.53251,18.46488 -1.12279,37.14573 0.93703,55.45984 14.71492,19.97316 27.29891,-5.7557 23.06297,-20.73487 0,-11.57499 0,-23.14998 0,-34.72497 39.73333,0 79.46667,0 119.2,0 17.47885,-2.26766 11.87279,-21.9424 12.8,-34.20005 0,-80.56665 0,-161.1333 0,-241.69995 -2.76461,-15.80164 -21.41005,-9.97078 -32.84379,-11.1 -27.45207,0 -54.90414,0 -82.35621,0 15.65333,-15.81667 31.30667,-31.63333 46.96,-47.45 11.32357,10.42837 21.1887,22.66291 33.5075,31.85875 24.55014,3.49317 15.41832,-23.5653 1.74826,-31.211473 C 344.94384,92.131518 338.87192,86.065759 332.8,80 344.02667,68.773333 355.25333,57.546667 366.48,46.32 377.80496,56.86176 387.68033,69.178866 400.005,78.49625 411.92484,83.600065 422.38112,67.70825 413.1,58.77 Z M 360,169 c 0,79.66667 0,159.33333 0,239 -80,0 -160,0 -240,0 0,-79.66667 0,-159.33333 0,-239 80,0 160,0 240,0 z M 22.6,256.14 c 155.71667,0 311.43333,0 467.15,0"
     id="path6"
     inkscape:connector-curvature="0" />
</svg>
