<?xml version="1.0" encoding="UTF-8" standalone="no"?>
<svg
   xmlns:dc="http://purl.org/dc/elements/1.1/"
   xmlns:cc="http://creativecommons.org/ns#"
   xmlns:rdf="http://www.w3.org/1999/02/22-rdf-syntax-ns#"
   xmlns:svg="http://www.w3.org/2000/svg"
   xmlns="http://www.w3.org/2000/svg"
   xmlns:sodipodi="http://sodipodi.sourceforge.net/DTD/sodipodi-0.dtd"
   xmlns:inkscape="http://www.inkscape.org/namespaces/inkscape"
   width="512"
   height="512"
   viewBox="0 0 512 512"
   version="1.1"
   id="svg8"
   sodipodi:docname="double pole switched fuesd neon indicator.svg"
   inkscape:version="0.92.1 r15371">
  <metadata
     id="metadata14">
    <rdf:RDF>
      <cc:Work
         rdf:about="">
        <dc:format>image/svg+xml</dc:format>
        <dc:type
           rdf:resource="http://purl.org/dc/dcmitype/StillImage" />
      </cc:Work>
    </rdf:RDF>
  </metadata>
  <defs
     id="defs12" />
  <sodipodi:namedview
     pagecolor="#ffffff"
     bordercolor="#666666"
     borderopacity="1"
     objecttolerance="10"
     gridtolerance="10"
     guidetolerance="10"
     inkscape:pageopacity="0"
     inkscape:pageshadow="2"
     inkscape:window-width="640"
     inkscape:window-height="493"
     id="namedview10"
     showgrid="false"
     inkscape:zoom="0.4609375"
     inkscape:cx="256"
     inkscape:cy="256"
     inkscape:window-x="0"
     inkscape:window-y="0"
     inkscape:window-maximized="0"
     inkscape:current-layer="svg8" />
  <path
     d="M 436.76,65.42 C 420.46501,50.003073 405.7948,32.601749 388.40109,18.526719 373.50695,14.922372 366.07966,31.485392 355.95601,39.394789 314.40362,80.919623 272.865,122.45663 231.32,163.99 181.64244,164.17098 131.9288,163.6277 82.273828,164.26223 65.67941,169.27328 72.392155,188.48003 71,201.39146 c 0,93.26952 0,186.53903 0,279.80854 2.273097,17.40703 21.821139,11.90213 34.01789,12.8 94.58403,0 189.16807,0 283.75211,0 17.59617,-1.12262 12.4691,-20.8698 13.23,-32.81789 0,-94.6007 0,-189.20141 0,-283.80211 -1.36686,-17.65089 -21.14182,-12.66947 -33.24789,-13.38 -33.17737,0 -66.35474,0 -99.53211,0 18.51667,-18.51333 37.03333,-37.02667 55.55,-55.54 13.11754,12.28065 24.67275,26.47078 38.88375,37.415 25.96245,4.54163 18.21666,-24.8831 3.19407,-33.20047 C 359.13188,104.95635 351.41594,97.238177 343.7,89.52 356.91667,76.306667 370.13333,63.093333 383.35,49.88 396.47595,62.161808 408.02677,76.371028 422.25625,87.3025 435.44816,92.955132 447.12773,75.364181 436.76,65.42 Z M 375,190 c 0,92.66667 0,185.33333 0,278 -92.33333,0 -184.66667,0 -277,0 0,-92.66667 0,-185.33333 0,-278 92.33333,0 184.66667,0 277,0 z M 217.94,329.3 c -34.82,34.81333 -69.64,69.62667 -104.46,104.44 -14.659281,24.87668 20.5589,27.11233 29.31968,8.55933 31.3601,-31.36311 62.72021,-62.72622 94.08032,-94.08933 34.82,34.83 69.64,69.66 104.46,104.49 24.92132,14.61613 27.12605,-20.55167 8.56883,-29.32918 C 318.54589,392.01388 287.18294,360.65694 255.82,329.3 290.64,294.48 325.46,259.66 360.28,224.84 374.93062,199.94455 339.73116,197.71935 330.95933,216.27968 299.59955,247.63645 268.23978,278.99323 236.88,310.35 202.06,275.53333 167.24,240.71667 132.42,205.9 107.52467,191.24926 105.29898,226.4492 123.86017,235.22017 155.22012,266.58012 186.58006,297.94006 217.94,329.3 Z M 22.6,256.14 c 155.71667,0 311.43333,0 467.15,0"
     id="path6"
     inkscape:connector-curvature="0" />
</svg>
