<?xml version="1.0" encoding="UTF-8" standalone="no"?>
<svg
   xmlns:dc="http://purl.org/dc/elements/1.1/"
   xmlns:cc="http://creativecommons.org/ns#"
   xmlns:rdf="http://www.w3.org/1999/02/22-rdf-syntax-ns#"
   xmlns:svg="http://www.w3.org/2000/svg"
   xmlns="http://www.w3.org/2000/svg"
   xmlns:sodipodi="http://sodipodi.sourceforge.net/DTD/sodipodi-0.dtd"
   xmlns:inkscape="http://www.inkscape.org/namespaces/inkscape"
   width="512"
   height="512"
   viewBox="0 0 512 512"
   version="1.1"
   id="svg8"
   sodipodi:docname="dual voltage socket outlet.svg"
   inkscape:version="0.92.1 r15371">
  <metadata
     id="metadata14">
    <rdf:RDF>
      <cc:Work
         rdf:about="">
        <dc:format>image/svg+xml</dc:format>
        <dc:type
           rdf:resource="http://purl.org/dc/dcmitype/StillImage" />
      </cc:Work>
    </rdf:RDF>
  </metadata>
  <defs
     id="defs12" />
  <sodipodi:namedview
     pagecolor="#ffffff"
     bordercolor="#666666"
     borderopacity="1"
     objecttolerance="10"
     gridtolerance="10"
     guidetolerance="10"
     inkscape:pageopacity="0"
     inkscape:pageshadow="2"
     inkscape:window-width="640"
     inkscape:window-height="493"
     id="namedview10"
     showgrid="false"
     inkscape:zoom="0.4609375"
     inkscape:cx="256"
     inkscape:cy="256"
     inkscape:window-x="0"
     inkscape:window-y="0"
     inkscape:window-maximized="0"
     inkscape:current-layer="svg8" />
  <path
     d="m 169.74,265.9 c 1.31564,30.96825 30.02214,57.84807 61.09505,56.16334 8.67652,0.2906 17.34888,-2.00039 25.17495,-5.66334 26.36289,13.13931 61.35614,3.41225 76.82,-21.81 17.03618,-25.31694 10.51103,-62.80708 -14.26136,-80.70173 C 301.05802,200.28652 275.86689,197.71121 255.98,207.52 228.63443,193.63601 192.13761,205.11665 177.55044,232.06445 171.67075,242.21963 168.92949,254.33656 169.74,265.9 Z m 105.2,-47.13 c 24.8988,-4.82895 50.50983,16.02061 50.78634,41.38754 1.79646,25.39491 -22.22457,48.339 -47.51634,45.35246 -9.0857,0.7755 -2.51458,-3.82028 0.34,-7.69 17.65719,-23.01504 15.05481,-58.48377 -5.89,-78.59 0.74468,-0.165 1.55296,-0.28067 2.28,-0.46 z m -34.47,29.56 c 2.81518,-8.53807 8.25709,-16.20818 15.52,-21.53 21.14575,14.649 23.69292,48.35929 4.93003,65.97997 -4.05326,7.24615 -9.18936,1.46539 -12.66698,-3.06433 C 238.78758,278.37373 235.82093,262.34075 240.47,248.33 Z m -54.13,11 c 0.70047,-25.70681 27.47172,-46.26985 52.49069,-40.23042 -1.65695,3.04753 -6.75069,7.75767 -8.7985,12.14249 -14.07297,22.82323 -10.02467,54.74194 9.28781,73.33793 -24.96239,6.36678 -52.06736,-13.88029 -53.01,-39.64 -0.10222,-1.84801 -0.18519,-3.86181 0.03,-5.61 z M 486.92,248 c -16.9,0 -33.8,0 -50.7,0 -3.19113,-33.52237 -31.79182,-62.10512 -65.24,-65.56 2.56085,-11.72456 -9.66673,-14.94564 -18.88188,-13.42 -67.46604,0 -134.93208,0 -202.39812,0 -12.15905,0.22656 -3.99871,16.77905 -16.15144,14.74184 C 103.18325,190.03415 78.920031,217.19286 75.8,248 57.839422,248.42099 39.701617,247.13664 21.857813,248.68125 7.7538245,259.70087 26.669624,267.9684 37.308251,265 c 12.820583,0 25.641166,0 38.461749,0 3.405259,33.37364 31.8339,61.83952 65.21,65.26 -2.31032,11.44654 10.05141,14.08399 18.88188,12.72 67.4727,0 134.94541,0 202.41812,0 11.69511,-0.23514 4.21318,-16.1534 16.15211,-14.04895 30.25515,-6.24998 54.50948,-33.25686 57.74789,-63.94105 17.96111,-0.42095 36.09936,0.86332 53.94375,-0.68125 C 498.392,260.89149 495.82653,247.90152 486.92,248 Z M 141,313.47 C 111.05715,309.54692 87.968462,279.30858 92.432287,249.38044 94.998559,224.19844 116.03171,202.69522 141.03,199.16 c -0.02,38.10096 0.04,76.22085 -0.03,114.31 z M 354,326 c -65.33333,0 -130.66667,0 -196,0 0,-46.66667 0,-93.33333 0,-140 65.33333,0 130.66667,0 196,0 0,46.66667 0,93.33333 0,140 z m 65.97,-66.64 c -0.94033,26.67693 -22.58849,50.45378 -48.98,54.16 0,-38.10667 0,-76.21333 0,-114.32 28.69059,3.93742 51.01387,31.22721 48.98,60.16 z M 22.6,256.14 c 155.71667,0 311.43333,0 467.15,0"
     id="path6"
     inkscape:connector-curvature="0" />
</svg>
