<?xml version="1.0" encoding="UTF-8" standalone="no"?>
<svg
   xmlns:dc="http://purl.org/dc/elements/1.1/"
   xmlns:cc="http://creativecommons.org/ns#"
   xmlns:rdf="http://www.w3.org/1999/02/22-rdf-syntax-ns#"
   xmlns:svg="http://www.w3.org/2000/svg"
   xmlns="http://www.w3.org/2000/svg"
   xmlns:sodipodi="http://sodipodi.sourceforge.net/DTD/sodipodi-0.dtd"
   xmlns:inkscape="http://www.inkscape.org/namespaces/inkscape"
   width="512"
   height="512"
   viewBox="0 0 512 512"
   version="1.1"
   id="svg8"
   sodipodi:docname="emergency stop button with key switch.svg"
   inkscape:version="0.92.1 r15371">
  <metadata
     id="metadata14">
    <rdf:RDF>
      <cc:Work
         rdf:about="">
        <dc:format>image/svg+xml</dc:format>
        <dc:type
           rdf:resource="http://purl.org/dc/dcmitype/StillImage" />
      </cc:Work>
    </rdf:RDF>
  </metadata>
  <defs
     id="defs12" />
  <sodipodi:namedview
     pagecolor="#ffffff"
     bordercolor="#666666"
     borderopacity="1"
     objecttolerance="10"
     gridtolerance="10"
     guidetolerance="10"
     inkscape:pageopacity="0"
     inkscape:pageshadow="2"
     inkscape:window-width="638"
     inkscape:window-height="493"
     id="namedview10"
     showgrid="false"
     inkscape:zoom="0.4609375"
     inkscape:cx="256"
     inkscape:cy="256"
     inkscape:window-x="0"
     inkscape:window-y="0"
     inkscape:window-maximized="0"
     inkscape:current-layer="svg8" />
  <path
     d="M 263.24,261.67 C 262.43756,221.80022 232.53732,184.94222 193.7105,175.8811 154.81091,165.4553 110.56748,184.37286 91.343854,219.78576 71.356721,253.79575 77.079538,300.20722 104.66,328.4 c 16.60219,17.29805 40.46706,28.90047 64.65,28.12 5.12089,-0.74387 11.23144,1.00426 16.91301,-0.68224 39.03182,-5.73134 71.55096,-39.30366 76.25699,-78.43776 0.67684,-5.21023 0.94974,-10.48494 0.76,-15.73 z m -21.22,7.18 c -1.12967,34.6499 -31.54957,66.11576 -66.48,66.48 -11.78057,0.33781 -23.88539,-0.7077 -34.56308,-6.31708 -31.87866,-14.3229 -48.617659,-54.17658 -36.48731,-86.95652 10.52767,-32.96694 47.63313,-53.9541 81.32061,-46.2153 33.53975,6.4066 58.56003,39.14499 56.20978,73.0089 z M 51.85,206.94 c 6.630228,-9.91246 14.968465,-18.88929 20.395,-29.46422 1.869136,-18.10891 -20.225791,-13.88633 -24.267857,-1.09323 -2.898832,2.47124 -9.810402,17.34213 -8.977143,8.28092 2.962573,-10.8493 -6.167243,-27.21592 -17.94375,-17.08222 -5.678314,8.85097 -2.01027,20.20547 -3.05625,30.24965 0.140927,18.38554 -0.281879,36.79885 0.21123,55.16703 6.173902,17.97714 25.579086,3.25691 20.78877,-10.43099 0.564177,-4.07032 -1.642704,-19.97227 2.296072,-9.63404 5.197205,8.88061 7.895099,19.63404 15.187678,26.9646 15.186006,7.25105 19.425995,-13.08772 10.760752,-22.1055 C 62.113002,227.508 56.981501,217.224 51.85,206.94 Z M 359.6,165.65 c -0.61491,-13.01132 -15.003,-10.56564 -24.00372,-10.65 -9.17465,0.93941 -19.50516,-2.38651 -27.61378,2.84125 -5.44739,9.17016 -2.02134,20.69359 -2.9825,31.01379 0.13565,24.35102 -0.27191,48.72826 0.2048,73.06283 3.93146,12.17812 18.16433,6.9472 27.73544,8.08213 9.26548,-0.89858 22.93554,3.69517 26.48423,-8.36924 1.98729,-13.5154 -13.54909,-13.27234 -22.79405,-12.63076 -7.21964,0.91848 -13.25949,0.65718 -10.63042,-8.27306 0,-7.90898 0,-15.81796 0,-23.72694 8.83303,-0.70185 21.82813,3.29249 25.00447,-8.36924 C 352.99176,195.11536 337.45538,195.35842 328.21042,196 323.13843,194.81981 327.40319,184.30287 326,179.45389 325.22309,172.35502 336.80402,177.614 341.51198,176 c 7.57093,0.51954 18.05748,0.28841 18.08802,-10.35 z M 399.56,155 c -10.42863,0.72804 -21.4229,-1.66839 -31.40619,1.64373 -8.62711,6.26483 -3.96237,17.9666 -5.15381,27.04065 0.13999,26.08012 -0.28056,52.18791 0.21123,78.25068 6.16221,17.96873 25.58096,3.28118 20.78877,-10.40812 0,-7.84231 0,-15.68463 0,-23.52694 13.03703,0.2163 28.75436,1.49725 36.72606,-11.36215 8.40566,-12.34457 7.30358,-28.8873 4.1155,-42.74207 C 421.10436,163.35706 411.06458,154.85149 399.56,155 Z m 6.44,41.64 c 0.78511,12.83796 -12.57154,10.31745 -20.91785,10.36 -2.63234,-3.58846 -0.28371,-12.15788 -1.08215,-17.58024 0.78593,-5.75559 -3.20433,-16.28736 6.20479,-13.41976 9.46887,-2.48221 18.0946,3.94849 15.79521,14.25653 0,2.12782 0,4.25565 0,6.38347 z M 466.93,155 c -13.95987,-1.75322 -29.30514,4.45938 -33.74938,18.89578 -4.07316,16.76945 -1.40159,34.36157 -2.17062,51.52123 -0.88077,15.62578 0.50483,34.7433 16.82437,42.15424 14.99584,5.55088 36.27111,3.03861 42.94461,-13.84096 5.68224,-15.6684 2.31735,-32.74163 3.23102,-49.10664 0.0694,-16.20133 2.11839,-36.2738 -14.08722,-45.92059 C 476.04556,156.29489 471.4972,154.98349 466.93,155 Z m 6.07,83.75 c 2.23793,14.12336 -22.94694,14.05225 -20.99,0.01 0.36182,-18.89163 -0.75235,-37.89336 0.61063,-56.71031 3.68672,-11.25093 24.16782,-6.78193 20.38937,6.13857 -0.007,16.85059 0.0133,33.72782 -0.01,50.56174 z m -276.9,25.17 c -0.0937,-18.53577 -23.74136,-30.50931 -38.61471,-19.31373 -15.42014,9.31753 -13.97638,34.62699 2.24471,42.32373 16.30365,9.22856 37.66761,-4.43866 36.37,-23.01 z m -21.26,1.84 c -2.06935,7.45854 -11.72099,-1.74118 -4.33,-4.14 2.41252,-0.65336 4.86382,1.70482 4.33,4.14 z M 22.6,256.14 c 155.71667,0 311.43333,0 467.15,0"
     id="path6"
     inkscape:connector-curvature="0" />
</svg>
