<?xml version="1.0" encoding="UTF-8" standalone="no"?>
<svg
   xmlns:dc="http://purl.org/dc/elements/1.1/"
   xmlns:cc="http://creativecommons.org/ns#"
   xmlns:rdf="http://www.w3.org/1999/02/22-rdf-syntax-ns#"
   xmlns:svg="http://www.w3.org/2000/svg"
   xmlns="http://www.w3.org/2000/svg"
   xmlns:sodipodi="http://sodipodi.sourceforge.net/DTD/sodipodi-0.dtd"
   xmlns:inkscape="http://www.inkscape.org/namespaces/inkscape"
   width="512"
   height="512"
   viewBox="0 0 512 512"
   version="1.1"
   id="svg8"
   sodipodi:docname="flex outlet plate.svg"
   inkscape:version="0.92.1 r15371">
  <metadata
     id="metadata14">
    <rdf:RDF>
      <cc:Work
         rdf:about="">
        <dc:format>image/svg+xml</dc:format>
        <dc:type
           rdf:resource="http://purl.org/dc/dcmitype/StillImage" />
      </cc:Work>
    </rdf:RDF>
  </metadata>
  <defs
     id="defs12" />
  <sodipodi:namedview
     pagecolor="#ffffff"
     bordercolor="#666666"
     borderopacity="1"
     objecttolerance="10"
     gridtolerance="10"
     guidetolerance="10"
     inkscape:pageopacity="0"
     inkscape:pageshadow="2"
     inkscape:window-width="640"
     inkscape:window-height="493"
     id="namedview10"
     showgrid="false"
     inkscape:zoom="0.4609375"
     inkscape:cx="256"
     inkscape:cy="256"
     inkscape:window-x="0"
     inkscape:window-y="0"
     inkscape:window-maximized="0"
     inkscape:current-layer="svg8" />
  <path
     d="m 169.5,352.88 c 16.90489,0.0294 17.48621,-18.41356 16.5,-30.86076 0,-20.00641 0,-40.01283 0,-60.01924 15.79603,-0.6634 31.94488,1.4328 47.48672,-1.25547 19.67466,-8.39491 5.86541,-36.58743 -12.98252,-30.74453 -11.5014,0 -23.0028,0 -34.5042,0 0,-12.66667 0,-25.33333 0,-38 15.79603,-0.6634 31.94488,1.4328 47.48672,-1.25547 19.67466,-8.39491 5.86541,-36.58743 -12.98252,-30.74453 -19.00618,0.62475 -38.29977,-1.32604 -57.10498,1.1225 -15.70197,6.35748 -8.92612,25.2436 -10.39922,38.30238 0.2282,46.8821 -0.45802,93.81305 0.346,140.6644 1.53417,7.36056 8.6863,12.87574 16.154,12.79072 z M 299.12,352 c 19.78431,1.68384 41.90612,-3.21112 51.99094,-22.32764 12.54412,-22.41491 6.41479,-48.76399 7.88906,-73.27463 -1.26591,-23.32073 3.7007,-47.77707 -5.58203,-69.86015 C 344.73348,166.06945 322.1601,157.74558 301.35756,160 270.40224,158.22074 250.32841,190.98049 254,219.17496 c 0.49239,30.7113 -1.06137,61.53767 0.92648,92.16557 3.43315,21.36489 21.6163,40.90848 44.19352,40.65947 z M 286,211.08 c -1.99688,-18.63665 18.56973,-22.16993 31.99281,-17.74969 12.84398,11.07866 6.44221,29.82092 8.00719,44.73289 -0.6022,23.57545 1.28775,47.37446 -1.10656,70.79086 -3.43671,14.60269 -25.67982,14.14545 -34.59094,6.00844 -7.66088,-14.50997 -3.02677,-31.80599 -4.3025,-47.6715 0,-18.70366 0,-37.40733 0,-56.111 z M 477.98,17 C 329.66,17 181.34,17 33.02,17 16.222398,17.064736 16.177545,35.599827 17,47.860758 17,191.23384 17,334.60692 17,477.98 17.064736,494.7776 35.599827,494.82245 47.860758,494 191.23384,494 334.60692,494 477.98,494 494.7776,493.93526 494.82245,475.40017 494,463.13924 494,319.76616 494,176.39308 494,33.02 494.19667,24.419376 486.58324,16.804019 477.98,17 Z M 463,463 c -138,0 -276,0 -414,0 0,-138 0,-276 0,-414 138,0 276,0 414,0 0,138 0,276 0,414 z M 22.6,256.14 c 155.71667,0 311.43333,0 467.15,0"
     id="path6"
     inkscape:connector-curvature="0" />
</svg>
