<?xml version="1.0" encoding="UTF-8" standalone="no"?>
<svg
   xmlns:dc="http://purl.org/dc/elements/1.1/"
   xmlns:cc="http://creativecommons.org/ns#"
   xmlns:rdf="http://www.w3.org/1999/02/22-rdf-syntax-ns#"
   xmlns:svg="http://www.w3.org/2000/svg"
   xmlns="http://www.w3.org/2000/svg"
   xmlns:sodipodi="http://sodipodi.sourceforge.net/DTD/sodipodi-0.dtd"
   xmlns:inkscape="http://www.inkscape.org/namespaces/inkscape"
   width="512"
   height="512"
   viewBox="0 0 512 512"
   version="1.1"
   id="svg4"
   sodipodi:docname="floor outlet box.svg"
   inkscape:version="0.92.1 r15371">
  <metadata
     id="metadata10">
    <rdf:RDF>
      <cc:Work
         rdf:about="">
        <dc:format>image/svg+xml</dc:format>
        <dc:type
           rdf:resource="http://purl.org/dc/dcmitype/StillImage" />
      </cc:Work>
    </rdf:RDF>
  </metadata>
  <defs
     id="defs8" />
  <sodipodi:namedview
     pagecolor="#ffffff"
     bordercolor="#666666"
     borderopacity="1"
     objecttolerance="10"
     gridtolerance="10"
     guidetolerance="10"
     inkscape:pageopacity="0"
     inkscape:pageshadow="2"
     inkscape:window-width="638"
     inkscape:window-height="493"
     id="namedview6"
     showgrid="false"
     inkscape:zoom="0.4609375"
     inkscape:cx="256"
     inkscape:cy="256"
     inkscape:window-x="0"
     inkscape:window-y="0"
     inkscape:window-maximized="0"
     inkscape:current-layer="svg4" />
  <path
     d="M 488.3,17 C 333.43333,17 178.56667,17 23.7,17 12.329912,20.375275 18.636592,35.061772 17,43.979823 17,192.08655 17,340.19327 17,488.3 c 3.375275,11.37009 18.061772,5.06341 26.979823,6.7 148.106727,0 296.213447,0 444.320177,0 11.37009,-3.37527 5.06341,-18.06177 6.7,-26.97982 0,-148.10673 0,-296.21345 0,-444.32018 -0.0466,-3.507034 -3.19297,-6.653355 -6.7,-6.7 z M 482,482 C 331.39495,331.36162 180.64195,180.66195 29.98,30 c 150.67333,0 301.34667,0 452.02,0 0,150.66667 0,301.33333 0,452 z"
     id="path2"
     inkscape:connector-curvature="0" />
</svg>
