<?xml version="1.0" encoding="UTF-8" standalone="no"?>
<svg
   xmlns:dc="http://purl.org/dc/elements/1.1/"
   xmlns:cc="http://creativecommons.org/ns#"
   xmlns:rdf="http://www.w3.org/1999/02/22-rdf-syntax-ns#"
   xmlns:svg="http://www.w3.org/2000/svg"
   xmlns="http://www.w3.org/2000/svg"
   xmlns:sodipodi="http://sodipodi.sourceforge.net/DTD/sodipodi-0.dtd"
   xmlns:inkscape="http://www.inkscape.org/namespaces/inkscape"
   width="512"
   height="512"
   viewBox="0 0 512 512"
   version="1.1"
   id="svg4"
   sodipodi:docname="main lv switch switch gear.svg"
   inkscape:version="0.92.1 r15371">
  <metadata
     id="metadata10">
    <rdf:RDF>
      <cc:Work
         rdf:about="">
        <dc:format>image/svg+xml</dc:format>
        <dc:type
           rdf:resource="http://purl.org/dc/dcmitype/StillImage" />
      </cc:Work>
    </rdf:RDF>
  </metadata>
  <defs
     id="defs8" />
  <sodipodi:namedview
     pagecolor="#ffffff"
     bordercolor="#666666"
     borderopacity="1"
     objecttolerance="10"
     gridtolerance="10"
     guidetolerance="10"
     inkscape:pageopacity="0"
     inkscape:pageshadow="2"
     inkscape:window-width="640"
     inkscape:window-height="493"
     id="namedview6"
     showgrid="false"
     inkscape:zoom="0.4609375"
     inkscape:cx="256"
     inkscape:cy="256"
     inkscape:window-x="0"
     inkscape:window-y="0"
     inkscape:window-maximized="0"
     inkscape:current-layer="svg4" />
  <path
     d="m 490.43,156 c -156.28667,0 -312.57333,0 -468.86,0 -9.186037,2.62002 -4.361571,14.24022 -5.57,21.36 0,57.62667 0,115.25333 0,172.88 2.320591,9.43171 14.081865,4.55212 21.170001,5.76 151.086669,0 302.173329,0 453.259999,0 9.18604,-2.62002 4.36157,-14.24022 5.57,-21.36 0,-57.62667 0,-115.25333 0,-172.88 -0.0427,-2.93514 -2.58173,-5.70885 -5.57,-5.76 z m -13.1,189 C 329.77667,345 182.22333,345 34.67,345 108.44667,315.33333 182.22333,285.66667 256,256 182.22,226.33333 108.44,196.66667 34.66,167 c 147.56,0 295.12,0 442.68,0 -73.78,29.66667 -147.56,59.33333 -221.34,89 73.77024,29.66542 147.59189,59.3408 221.33,89 z"
     id="path2"
     inkscape:connector-curvature="0" />
</svg>
