<?xml version="1.0" encoding="UTF-8" standalone="no"?>
<svg
   xmlns:dc="http://purl.org/dc/elements/1.1/"
   xmlns:cc="http://creativecommons.org/ns#"
   xmlns:rdf="http://www.w3.org/1999/02/22-rdf-syntax-ns#"
   xmlns:svg="http://www.w3.org/2000/svg"
   xmlns="http://www.w3.org/2000/svg"
   xmlns:sodipodi="http://sodipodi.sourceforge.net/DTD/sodipodi-0.dtd"
   xmlns:inkscape="http://www.inkscape.org/namespaces/inkscape"
   width="512"
   height="512"
   viewBox="0 0 512 512"
   version="1.1"
   id="svg4"
   sodipodi:docname="mechanical control panel.svg"
   inkscape:version="0.92.1 r15371">
  <metadata
     id="metadata10">
    <rdf:RDF>
      <cc:Work
         rdf:about="">
        <dc:format>image/svg+xml</dc:format>
        <dc:type
           rdf:resource="http://purl.org/dc/dcmitype/StillImage" />
      </cc:Work>
    </rdf:RDF>
  </metadata>
  <defs
     id="defs8" />
  <sodipodi:namedview
     pagecolor="#ffffff"
     bordercolor="#666666"
     borderopacity="1"
     objecttolerance="10"
     gridtolerance="10"
     guidetolerance="10"
     inkscape:pageopacity="0"
     inkscape:pageshadow="2"
     inkscape:window-width="640"
     inkscape:window-height="493"
     id="namedview6"
     showgrid="false"
     inkscape:zoom="0.4609375"
     inkscape:cx="256"
     inkscape:cy="256"
     inkscape:window-x="0"
     inkscape:window-y="0"
     inkscape:window-maximized="0"
     inkscape:current-layer="svg4" />
  <path
     d="m 495.82,348.1 c 0.42016,-61.19762 0.0599,-122.63154 0.18,-183.92 -0.46333,-6.194 -5.58946,-10.60781 -11.48,-11.68 -11.68678,-1.16792 -25.29884,-0.16572 -37.72521,-0.5 -139.75159,0 -279.50319,0 -419.25479,0 -4.405538,2.02233 -11.079683,4.73501 -11.13,11.12 -0.934093,35.75411 -0.132767,71.88074 -0.4,107.77808 0.276984,26.11032 -0.551609,52.43469 0.41,78.41192 0.804829,7.25516 8.868157,10.52439 14.338767,10.71 151.213743,0 302.427493,0 453.641233,0 4.2552,-1.63932 10.87954,-4.54196 11.17,-10.68 -0.10734,-0.14675 0.70029,-1.25728 0.25,-1.24 z M 426.5,175 C 369.66667,197.84333 312.83333,220.68667 256,243.53 199.16667,220.68667 142.33333,197.84333 85.5,175 c 113.66667,0 227.33333,0 341,0 z M 39,180.76 C 101.39333,205.84 163.78667,230.92 226.18,256 163.78667,281.08 101.39333,306.16 39,331.24 39,281.08 39,230.92 39,180.76 Z M 85.5,337 c 56.83333,-22.84333 113.66667,-45.68667 170.5,-68.53 56.83333,22.84333 113.66667,45.68667 170.5,68.53 -113.66667,0 -227.33333,0 -341,0 z M 473,331.24 C 410.60667,306.16 348.21333,281.08 285.82,256 348.21333,230.92 410.60667,205.84 473,180.76 c 0,50.16 0,100.32 0,150.48 z"
     id="path2"
     inkscape:connector-curvature="0" />
</svg>
