<?xml version="1.0" encoding="UTF-8" standalone="no"?>
<svg
   xmlns:dc="http://purl.org/dc/elements/1.1/"
   xmlns:cc="http://creativecommons.org/ns#"
   xmlns:rdf="http://www.w3.org/1999/02/22-rdf-syntax-ns#"
   xmlns:svg="http://www.w3.org/2000/svg"
   xmlns="http://www.w3.org/2000/svg"
   xmlns:sodipodi="http://sodipodi.sourceforge.net/DTD/sodipodi-0.dtd"
   xmlns:inkscape="http://www.inkscape.org/namespaces/inkscape"
   width="512"
   height="512"
   viewBox="0 0 512 512"
   version="1.1"
   id="svg8"
   sodipodi:docname="meter2.svg"
   inkscape:version="0.92.1 r15371">
  <metadata
     id="metadata14">
    <rdf:RDF>
      <cc:Work
         rdf:about="">
        <dc:format>image/svg+xml</dc:format>
        <dc:type
           rdf:resource="http://purl.org/dc/dcmitype/StillImage" />
      </cc:Work>
    </rdf:RDF>
  </metadata>
  <defs
     id="defs12" />
  <sodipodi:namedview
     pagecolor="#ffffff"
     bordercolor="#666666"
     borderopacity="1"
     objecttolerance="10"
     gridtolerance="10"
     guidetolerance="10"
     inkscape:pageopacity="0"
     inkscape:pageshadow="2"
     inkscape:window-width="640"
     inkscape:window-height="493"
     id="namedview10"
     showgrid="false"
     inkscape:zoom="0.4609375"
     inkscape:cx="256"
     inkscape:cy="256"
     inkscape:window-x="0"
     inkscape:window-y="0"
     inkscape:window-maximized="0"
     inkscape:current-layer="svg8" />
  <path
     d="m 376.77,258.63 c -13.48662,6.68962 2.61594,14.87507 10.99875,10.76541 13.46153,2.6161 45.14541,-12.61338 21.31869,-23.00061 -31.34135,-10.94086 -65.30165,-5.47954 -97.19744,-13.6848 8.83388,-3.83581 21.405,1.1417 27.89281,-6.50984 0.50528,-13.05647 -17.11221,-5.46201 -24.61156,-5.89391 -16.25978,-2.58872 -32.55882,18.92841 -9.72223,22.85631 30.67559,9.24026 63.30365,4.61581 94.19098,12.58744 -7.49372,1.78555 -15.21709,2.2375 -22.87,2.88 z m -3.79,27.47 c -20.42948,-1.59979 -41.14024,-1.5004 -61.12,-6.78 8.83006,-3.90416 21.44475,1.06003 27.91141,-6.64219 0.50921,-13.06124 -17.09209,-5.49601 -24.59266,-5.91156 -16.17964,-2.56704 -32.61072,18.91065 -9.72709,22.71563 30.69518,9.03027 63.2828,4.2198 94.15834,12.37812 -7.74681,4.76775 -32.50839,-3.73819 -26.4975,12.3475 9.92798,4.24479 21.82827,0.53046 32.13684,-1.41434 19.08601,-1.23036 13.747,-22.65061 -2.81375,-21.93636 -9.64627,-2.45974 -19.5879,-3.73307 -29.45559,-4.7568 z M 443.12,237 c 10.21011,4.42928 21.25863,-10.88188 6.26525,-12 -11.74927,-2.26701 -23.73434,7.02649 -21.38525,19.6295 1.06053,11.01106 -3.09946,23.74676 4.65,32.923 5.49218,6.66821 29.57794,7.69716 22.82625,-5.76 -5.78202,-3.46047 -18.4709,1.16712 -15.47625,-10.27437 0.7029,-7.80737 -1.46955,-16.39248 1.2,-23.68063 z m 45.3,-12 c -8.97608,0.31002 -18.08381,-0.62975 -26.97516,0.48469 -12.85911,11.35964 9.79229,8.52769 8.56516,15.44481 0.31276,12.67066 -0.63266,25.47418 0.48469,38.05987 9.83173,10.66852 13.29432,-6.281 11.51531,-14.05787 0,-9.3105 0,-18.621 0,-27.9315 8.98908,2.5953 19.35152,-7.63697 6.41,-12 z m -154.15,79 c -73.65,0 -147.3,0 -220.95,0 22.61822,-14.7982 30.91794,-47.05892 19.94,-71.59 -4.00608,-9.62756 -10.7431,-17.98289 -18.94,-24.38 91.25244,0.0492 182.50826,-0.0985 273.75859,0.0739 10.73427,0.6542 13.79517,3.70915 1.88567,4.05324 -11.05929,-4.11996 -27.83452,10.47063 -10.16582,12.53562 13.04449,-1.64632 29.35906,-0.63219 38.20406,-11.65898 C 418.65553,197.57636 396.05797,198.15178 384.85525,196.04 280.94189,196.15347 177.01478,195.81315 73.11,196.21 44.020003,197.9418 19.026764,223.62343 18.057156,252.74036 15.912724,281.6716 37.793111,309.69599 66.32,314.81 c 18.022072,2.51779 36.36624,0.50381 54.52736,1.15 71.14088,0 142.28176,0 213.42264,0 7.64787,0.061 7.54833,-12.1382 0,-11.96 z M 114.1,208.1 c -0.13835,0.50544 -1.33211,-0.38956 0,0 z m -4.82,84.76 c -20.058925,17.97778 -54.499847,14.08651 -69.984256,-7.97013 -16.649048,-20.97083 -10.835853,-54.85781 11.833703,-69.10236 21.801686,-15.48835 55.293073,-7.95427 68.341823,15.39483 12.2344,19.64806 7.4841,47.14185 -10.19127,61.67766 z M 87.62,225.45 c -8.394476,-0.243 -9.120552,10.66525 -13.191027,16.14892 -2.792022,4.86488 -5.584045,-8.61588 -8.376068,-11.57311 -6.483453,-11.70731 -15.105823,1.60639 -12.072905,9.93556 0.319502,13.23599 -0.641898,26.60724 0.484687,39.75801 9.831734,10.66851 13.294325,-6.28101 11.515313,-14.05788 0.03628,-7.28055 -1.137833,-13.49915 4.12875,-3.8265 8.938256,2.72395 10.814483,-12.99914 9.86125,1.404 1.049108,6.80617 -3.451104,18.24187 6,20.041 9.542922,-1.90792 4.895531,-13.61558 6,-20.56562 -0.211672,-11.16831 0.423136,-22.40522 -0.315938,-33.53079 C 91.076698,227.35121 89.403315,225.85068 87.62,225.45 Z"
     id="path6"
     inkscape:connector-curvature="0" />
</svg>
