<?xml version="1.0" encoding="UTF-8" standalone="no"?>
<svg
   xmlns:dc="http://purl.org/dc/elements/1.1/"
   xmlns:cc="http://creativecommons.org/ns#"
   xmlns:rdf="http://www.w3.org/1999/02/22-rdf-syntax-ns#"
   xmlns:svg="http://www.w3.org/2000/svg"
   xmlns="http://www.w3.org/2000/svg"
   xmlns:sodipodi="http://sodipodi.sourceforge.net/DTD/sodipodi-0.dtd"
   xmlns:inkscape="http://www.inkscape.org/namespaces/inkscape"
   width="512"
   height="512"
   viewBox="0 0 512 512"
   version="1.1"
   id="svg4"
   sodipodi:docname="plug inunder floor.svg"
   inkscape:version="0.92.1 r15371">
  <metadata
     id="metadata10">
    <rdf:RDF>
      <cc:Work
         rdf:about="">
        <dc:format>image/svg+xml</dc:format>
        <dc:type
           rdf:resource="http://purl.org/dc/dcmitype/StillImage" />
      </cc:Work>
    </rdf:RDF>
  </metadata>
  <defs
     id="defs8" />
  <sodipodi:namedview
     pagecolor="#ffffff"
     bordercolor="#666666"
     borderopacity="1"
     objecttolerance="10"
     gridtolerance="10"
     guidetolerance="10"
     inkscape:pageopacity="0"
     inkscape:pageshadow="2"
     inkscape:window-width="640"
     inkscape:window-height="493"
     id="namedview6"
     showgrid="false"
     inkscape:zoom="0.4609375"
     inkscape:cx="256"
     inkscape:cy="256"
     inkscape:window-x="0"
     inkscape:window-y="0"
     inkscape:window-maximized="0"
     inkscape:current-layer="svg4" />
  <path
     d="m 483.57,198 c -31.15223,0.17335 -62.34148,-0.34683 -93.47055,0.26025 -12.78412,3.85905 -8.26901,18.99985 -9.09945,29.02956 -1.16512,5.06337 2.42673,14.8837 -1.97527,16.71019 -37.00824,0 -74.01649,0 -111.02473,0 -0.25756,-9.17107 2.49919,-22.86186 -9.54926,-25.55182 C 245.32695,215.93233 242.68996,230.55846 244,240.27636 245.1023,247.55805 233.87036,242.5055 229.18547,244 166.12364,244 103.06182,244 40,244 39.742442,234.82893 42.499194,221.13814 30.450742,218.44818 17.326953,215.93233 14.689961,230.55846 16,240.27636 c 0.516722,15.33296 -1.095983,30.92797 0.927187,46.07755 C 23.124568,301.28765 44.407183,290.86136 40,276.66182 37.81548,268.29791 42.3867,266.68974 49.876356,268 114.58424,268 179.29212,268 244,268 c 0.26014,9.1703 -2.50465,22.87036 9.54926,25.55264 13.12996,2.51996 15.75917,-12.10963 14.45074,-21.829 -1.1023,-7.28169 10.12964,-2.22914 14.81453,-3.72364 32.72849,0 65.45698,0 98.18547,0 0.44503,12.74795 -0.96552,25.70618 0.85516,38.30078 4.80604,11.56122 18.75101,6.63818 28.45228,7.69922 25.23939,-0.17301 50.51518,0.3464 75.73178,-0.26025 13.08147,-3.17582 9.48039,-18.07693 9.96078,-28.04192 -0.17174,-25.88652 0.34374,-51.80877 -0.25807,-77.67293 C 494.61316,202.42204 489.32976,197.94261 483.57,198 Z M 472,290 c -22.33333,0 -44.66667,0 -67,0 0,-22.66667 0,-45.33333 0,-68 22.33333,0 44.66667,0 67,0 0,22.66667 0,45.33333 0,68 z"
     id="path2"
     inkscape:connector-curvature="0" />
</svg>
