<?xml version="1.0" encoding="UTF-8" standalone="no"?>
<svg
   xmlns:dc="http://purl.org/dc/elements/1.1/"
   xmlns:cc="http://creativecommons.org/ns#"
   xmlns:rdf="http://www.w3.org/1999/02/22-rdf-syntax-ns#"
   xmlns:svg="http://www.w3.org/2000/svg"
   xmlns="http://www.w3.org/2000/svg"
   xmlns:sodipodi="http://sodipodi.sourceforge.net/DTD/sodipodi-0.dtd"
   xmlns:inkscape="http://www.inkscape.org/namespaces/inkscape"
   width="512"
   height="512"
   viewBox="0 0 512 512"
   version="1.1"
   id="svg4"
   sodipodi:docname="single gang switched socket.svg"
   inkscape:version="0.92.1 r15371">
  <metadata
     id="metadata10">
    <rdf:RDF>
      <cc:Work
         rdf:about="">
        <dc:format>image/svg+xml</dc:format>
        <dc:type
           rdf:resource="http://purl.org/dc/dcmitype/StillImage" />
      </cc:Work>
    </rdf:RDF>
  </metadata>
  <defs
     id="defs8" />
  <sodipodi:namedview
     pagecolor="#ffffff"
     bordercolor="#666666"
     borderopacity="1"
     objecttolerance="10"
     gridtolerance="10"
     guidetolerance="10"
     inkscape:pageopacity="0"
     inkscape:pageshadow="2"
     inkscape:window-width="640"
     inkscape:window-height="493"
     id="namedview6"
     showgrid="false"
     inkscape:zoom="0.4609375"
     inkscape:cx="256"
     inkscape:cy="256"
     inkscape:window-x="0"
     inkscape:window-y="0"
     inkscape:window-maximized="0"
     inkscape:current-layer="svg4" />
  <path
     d="M 479.35,17 C 330.45,17 181.55,17 32.65,17 15.985223,17.010757 16.268927,35.465297 17,47.521871 17,191.46458 17,335.40729 17,479.35 17.010757,496.01478 35.465297,495.73107 47.521871,495 191.46458,495 335.40729,495 479.35,495 496.01478,494.98924 495.73107,476.5347 495,464.47813 495,320.53542 495,176.59271 495,32.65 495.23887,24.204022 487.79983,16.761874 479.35,17 Z M 54.83,356.3 C 50.201406,365.51946 46.326782,371.62066 48,357.33409 48,254.22273 48,151.11136 48,48 c 64,0 128,0 192,0 0,64.24 0,128.48 0,192.72 -76.13196,4.81563 -147.399497,49.27707 -185.17,115.58 z m 0.8,107.7 c 2.227418,-75.19581 51.08608,-146.25902 120.33801,-175.54362 68.0227,-30.40734 152.38077,-18.2268 208.94165,30.30564 42.71453,35.5852 69.3896,89.60225 71.41034,145.18798 -133.54666,0.0333 -267.22668,-0.0667 -400.69,0.05 z M 464,368.2 C 434.07241,309.76218 379.36014,264.30038 315.52373,247.94468 304.69675,245.06621 293.6592,242.96585 282.53,241.68 c 17.21667,-29.82333 34.43333,-59.64667 51.65,-89.47 12.63024,6.24905 23.89191,16.2091 37.7,19.32 22.56713,-1.13835 17.97698,-30.34244 -0.25651,-34.29107 C 357.59823,130.03043 344.78026,119.82985 329.86,114.81 313.5263,114.27409 310.46817,133.1895 302.59698,143.73975 292.39799,161.45317 282.19899,179.16658 272,196.88 c 0,-49.62667 0,-99.253333 0,-148.88 64,0 128,0 192,0 0,106.73333 0,213.46667 0,320.2 z"
     id="path2"
     inkscape:connector-curvature="0" />
</svg>
