<?xml version="1.0" encoding="UTF-8" standalone="no"?>
<svg
   xmlns:dc="http://purl.org/dc/elements/1.1/"
   xmlns:cc="http://creativecommons.org/ns#"
   xmlns:rdf="http://www.w3.org/1999/02/22-rdf-syntax-ns#"
   xmlns:svg="http://www.w3.org/2000/svg"
   xmlns="http://www.w3.org/2000/svg"
   xmlns:sodipodi="http://sodipodi.sourceforge.net/DTD/sodipodi-0.dtd"
   xmlns:inkscape="http://www.inkscape.org/namespaces/inkscape"
   width="512"
   height="512"
   viewBox="0 0 512 512"
   version="1.1"
   id="svg6"
   sodipodi:docname="socket outlet three pole switch.svg"
   inkscape:version="0.92.1 r15371">
  <metadata
     id="metadata12">
    <rdf:RDF>
      <cc:Work
         rdf:about="">
        <dc:format>image/svg+xml</dc:format>
        <dc:type
           rdf:resource="http://purl.org/dc/dcmitype/StillImage" />
      </cc:Work>
    </rdf:RDF>
  </metadata>
  <defs
     id="defs10" />
  <sodipodi:namedview
     pagecolor="#ffffff"
     bordercolor="#666666"
     borderopacity="1"
     objecttolerance="10"
     gridtolerance="10"
     guidetolerance="10"
     inkscape:pageopacity="0"
     inkscape:pageshadow="2"
     inkscape:window-width="638"
     inkscape:window-height="493"
     id="namedview8"
     showgrid="false"
     inkscape:zoom="0.4609375"
     inkscape:cx="256"
     inkscape:cy="256"
     inkscape:window-x="0"
     inkscape:window-y="0"
     inkscape:window-maximized="0"
     inkscape:current-layer="svg6" />
  <path
     d="M 318.85,433.82 C 317.17298,382.98646 280.28308,335.97569 231.32,322.23 181.58763,306.75626 123.42092,327.51493 95.113151,371.32347 81.329111,392.13896 72.96697,417.56199 74.825781,442.60203 86.147741,456.6446 92.353732,437.0301 90.99,426.87 c 4.961638,-47.75022 45.95502,-88.44813 93.76439,-92.95494 48.04725,-6.27568 97.48754,24.96947 112.45551,71.05466 4.71181,12.1063 5.18596,25.19221 6.53166,37.87997 6.94559,11.1161 18.0491,1.09094 15.10844,-9.02969 z M 489.45,105 C 465.56788,91.671254 442.36204,76.846355 418.05,64.46875 407.86122,64.541274 406.38318,77.829897 400.93378,84.2412 381.65074,117.49117 362.37797,150.74709 343.1,184 c -48.7,0 -97.4,0 -146.1,0 -0.26727,25.86606 0.53414,52.80081 -0.4,78 C 129.26132,260.27516 63.724167,302.47641 35.647184,363.4879 24.652944,387.15784 17.99202,413.55287 19.01,439.61 c 6.035931,18.08797 19.612156,0.24884 15.967353,-11.37691 3.592969,-62.65766 47.355484,-120.51437 106.629617,-141.10819 59.18149,-22.22122 130.38493,-5.18981 173.11763,41.39193 28.14403,29.69842 44.24404,70.40643 44.0154,111.32317 5.51408,18.06472 20.55403,0.95466 15.68938,-10.73727 C 371.6483,375.47067 342.83693,324.045 298.64,293.57 c 25.84333,-44.76 51.68667,-89.52 77.53,-134.28 20.48667,11.83333 40.97333,23.66667 61.46,35.5 21.53392,2.07021 7.48675,-18.70021 -4.69551,-21.16729 C 416.67633,164.2318 400.41816,154.8409 384.16,145.45 c 4.64333,-8.05 9.28667,-16.1 13.93,-24.15 20.49333,11.83333 40.98667,23.66667 61.48,35.5 21.52654,2.0765 7.51229,-18.73714 -4.68833,-21.19241 C 438.61778,126.22173 422.35389,116.83586 406.09,107.45 c 4.65333,-8.06 9.30667,-16.12 13.96,-24.18 20.49,11.833333 40.98,23.66667 61.47,35.5 9.27121,5.3195 17.01354,-8.89066 7.93,-13.77 z"
     id="path4"
     inkscape:connector-curvature="0" />
</svg>
