<?xml version="1.0" encoding="UTF-8" standalone="no"?>
<svg
   xmlns:dc="http://purl.org/dc/elements/1.1/"
   xmlns:cc="http://creativecommons.org/ns#"
   xmlns:rdf="http://www.w3.org/1999/02/22-rdf-syntax-ns#"
   xmlns:svg="http://www.w3.org/2000/svg"
   xmlns="http://www.w3.org/2000/svg"
   xmlns:sodipodi="http://sodipodi.sourceforge.net/DTD/sodipodi-0.dtd"
   xmlns:inkscape="http://www.inkscape.org/namespaces/inkscape"
   width="512"
   height="512"
   viewBox="0 0 512 512"
   version="1.1"
   id="svg4"
   sodipodi:docname="socket outlet with one pole switch.svg"
   inkscape:version="0.92.1 r15371">
  <metadata
     id="metadata10">
    <rdf:RDF>
      <cc:Work
         rdf:about="">
        <dc:format>image/svg+xml</dc:format>
        <dc:type
           rdf:resource="http://purl.org/dc/dcmitype/StillImage" />
      </cc:Work>
    </rdf:RDF>
  </metadata>
  <defs
     id="defs8" />
  <sodipodi:namedview
     pagecolor="#ffffff"
     bordercolor="#666666"
     borderopacity="1"
     objecttolerance="10"
     gridtolerance="10"
     guidetolerance="10"
     inkscape:pageopacity="0"
     inkscape:pageshadow="2"
     inkscape:window-width="640"
     inkscape:window-height="493"
     id="namedview6"
     showgrid="false"
     inkscape:zoom="0.4609375"
     inkscape:cx="256"
     inkscape:cy="256"
     inkscape:window-x="0"
     inkscape:window-y="0"
     inkscape:window-maximized="0"
     inkscape:current-layer="svg4" />
  <path
     d="M 488.05,103.65 C 465.58679,90.730886 443.22848,77.487025 420.7,64.77 405.98134,57.957319 400.83136,75.816907 394.73918,85.166218 357.47945,149.69081 320.21973,214.21541 282.96,278.74 224.10895,246.11113 147.09597,250.96186 92.84763,290.78869 46.390307,323.64684 17.64455,379.70164 18.01,436.6 24.255242,461.43831 47.723271,441.82734 42.88478,424.428 46.971854,361.23562 93.978575,303.82678 155.14,287.39 c 59.57789,-17.77163 128.35589,5.05879 165.48048,54.92864 20.5724,26.73972 31.98332,60.33386 31.96952,94.07136 4.89824,23.13471 30.47967,6.49213 24.03909,-10.48521 C 373.76588,373.30075 346.22226,322.65279 303.53,291.77 341.97667,225.18 380.42333,158.59 418.87,92 c 19.9696,11.20899 39.45116,23.40897 59.73125,33.9875 13.23745,3.77375 21.80768,-15.3041 9.44875,-22.3375 z"
     id="path2"
     inkscape:connector-curvature="0" />
</svg>
