<?xml version="1.0" encoding="UTF-8" standalone="no"?>
<svg
   xmlns:dc="http://purl.org/dc/elements/1.1/"
   xmlns:cc="http://creativecommons.org/ns#"
   xmlns:rdf="http://www.w3.org/1999/02/22-rdf-syntax-ns#"
   xmlns:svg="http://www.w3.org/2000/svg"
   xmlns="http://www.w3.org/2000/svg"
   xmlns:sodipodi="http://sodipodi.sourceforge.net/DTD/sodipodi-0.dtd"
   xmlns:inkscape="http://www.inkscape.org/namespaces/inkscape"
   width="512"
   height="512"
   viewBox="0 0 512 512"
   version="1.1"
   id="svg6"
   sodipodi:docname="two gang switched socket outlet.svg"
   inkscape:version="0.92.1 r15371">
  <metadata
     id="metadata12">
    <rdf:RDF>
      <cc:Work
         rdf:about="">
        <dc:format>image/svg+xml</dc:format>
        <dc:type
           rdf:resource="http://purl.org/dc/dcmitype/StillImage" />
      </cc:Work>
    </rdf:RDF>
  </metadata>
  <defs
     id="defs10" />
  <sodipodi:namedview
     pagecolor="#ffffff"
     bordercolor="#666666"
     borderopacity="1"
     objecttolerance="10"
     gridtolerance="10"
     guidetolerance="10"
     inkscape:pageopacity="0"
     inkscape:pageshadow="2"
     inkscape:window-width="640"
     inkscape:window-height="493"
     id="namedview8"
     showgrid="false"
     inkscape:zoom="0.4609375"
     inkscape:cx="256"
     inkscape:cy="256"
     inkscape:window-x="0"
     inkscape:window-y="0"
     inkscape:window-maximized="0"
     inkscape:current-layer="svg6" />
  <path
     d="m 218.88,404 c -9.1,0 -18.2,0 -27.3,0 12.19768,-26.90848 25.72,-53.4557 37.08,-80.585 5.37123,-23.95337 -21.14357,-51.23182 -44.78667,-38.17487 -19.62541,4.45964 -25.61608,49.95212 0.65855,33.48815 0.68174,-25.2477 32.75845,-12.50368 21.36244,5.80184 -13.5298,29.58163 -27.84693,58.85426 -40.88244,88.62988 -1.3895,14.43483 15.49752,11.80753 24.91945,11.85 10.97704,-0.43587 22.1388,0.94568 32.97945,-0.83203 C 233.25546,419.96337 229.98331,403.8459 218.88,404 Z M 488.7,104.06 C 466.09,91.006667 443.48,77.953333 420.87,64.9 407.30023,59.102984 403.3883,76.286028 397.4687,84.624278 359.5958,150.22952 321.7229,215.83476 283.85,281.44 c -24.72796,-13.72161 -52.73922,-21.47808 -81.01,-22.37 -9.12397,-2.39748 -19.37451,1.09743 -29.02304,1.42552 -66.86517,8.00728 -126.481595,57.26865 -146.798411,121.49883 -5.944613,19.29934 -10.425818,39.90896 -8.230736,60.10377 12.82005,17.16684 23.066806,-4.72789 20.582844,-17.62862 4.615869,-63.23083 51.258189,-120.52322 112.194353,-137.95401 60.83994,-19.20642 131.8011,3.46421 170.32616,54.29891 21.55213,27.44967 33.48144,62.22434 33.43883,97.1156 5.1915,20.85965 26.33348,4.19016 20.5026,-10.55086 C 372.93593,374.2895 344.82396,323.27724 301.42,292.55 340.77333,224.41333 380.12667,156.27667 419.48,88.14 c 20.50641,11.557266 40.57947,23.9974 61.35875,34.99875 11.31738,3.23781 18.44546,-13.20482 7.86125,-19.07875 z"
     id="path4"
     inkscape:connector-curvature="0" />
</svg>
