<svg xmlns="http://www.w3.org/2000/svg" width="512" height="512"><path d="M80 332.32c13.87-.11 13.6-15.5 13-25.56V275c16.36-.24 35.65 2.79 47.22-11.9 13.58-15.03 11.75-37.06 9.12-55.6-4.34-19.12-23.35-32.2-42.64-29.5-11.15.9-23.15-2.16-33.58 2.36-10.15 8.21-4.75 22.53-6.12 33.83.17 35.9-.35 71.83.26 107.7A13.05 13.05 0 0 0 80 332.33zM93 204c8.9 1.07 19.19-2.57 26.93 2.7 7.51 9.22 5.16 22.45 4.1 33.4-4.15 13.27-19.52 7.75-29.83 8.9-2.92-3.92-.32-13.36-1.2-19.31V204zm75.1 127.88c13.44 3.54 17.2-11.35 19.21-21.24 2.38-6 1.08-16.77 10.47-13.63h22.34c3.9 10.88 3.9 23.8 11.6 32.73 15.68 10.24 25.74-10.3 18.18-22.61-10.6-39.67-21.17-79.35-31.76-119.02-8.76-20.54-28.7-3.58-28.44 12.08-10.34 39.46-21.38 78.77-31.28 118.33a13.1 13.1 0 0 0 9.68 13.36zm37.43-89.43l7.62 28.55c-5.24-1.33-19.03 3.91-13.77-5.49 2.05-7.68 4.09-15.4 6.15-23.06zM273.68 332c20.03-.82 43.94 4.54 58.28-13.67 17-19.9 16.2-53.04-2.28-71.77 18.5-23.67 5.03-67.86-27.58-68.56-11.8.96-24.55-2.26-35.58 2.36-9.28 8.66-4.18 22.56-5.5 33.83.17 35.9-.33 71.82.25 107.7.99 5.86 6.56 10.28 12.41 10.11zM287 204c8.03.76 19.5-3.24 22.9 7.08 6.43 12.17-2.46 29.09-16.88 24.92-9.92 3-4.8-9.06-6.02-14.77V204zm0 58c10.03.47 23.44-2.99 28.32 8.98 7.2 13.42.67 38.12-17.77 35.02-8.87 1.94-12.72-1.13-10.55-10.22V262zm71.45 68.78c12.3 6.47 19.35-7.2 23.55-16.4l16.67-31.25c8.36 15 15.63 30.68 24.7 45.23 14.38 13.53 30.2-9.4 17.68-21.24l-27.59-51.74c10.53-20.1 21.68-39.9 31.8-60.2 5.3-17.5-22.58-22.98-26.19-5.83l-20.42 38.29c-8.84-15.28-15.62-32.01-25.85-46.3-13.72-10.97-28.6 9.98-17.08 21.3l28.13 52.74c-10.53 20.1-21.68 39.9-31.8 60.2-1.82 5.77.99 12.5 6.4 15.2zM481.27 101H30.73c-13.8.32-13.23 15.79-12.73 25.8.17 91.17-.33 182.38.25 273.54 3.19 14.54 19.85 9.92 30.66 10.66h432.36c13.8-.32 13.23-15.79 12.73-25.8-.17-91.17.33-182.38-.25-273.54-1.02-5.89-6.4-10.78-12.48-10.66zM470 383H44V127h426v256z"/></svg>