<svg xmlns="http://www.w3.org/2000/svg" width="512" height="512" viewBox="0 0 512 512"><path d="M263.64 239H158V116.2c0-6.43-5.07-11.64-11.5-11.64s-11.5 5.2-11.5 11.64V239H28.65C22.22 239 17 244 17 250.42V393c0 6.43 5.57 11.64 12 11.64s12-5.2 12-11.64V262h211v133.8c0 6.42 5.57 11.64 12 11.64 6.42 0 12-5.22 12-11.64V250.42c0-6.42-5.94-11.42-12.36-11.42zM379 115h-69.4c-6.42 0-11.63 5.07-11.63 11.5s5.2 11.5 11.64 11.5H333v118.4c0 6.44 5.07 11.65 11.5 11.65s11.5-5.2 11.5-11.64V138h23c6.43 0 11.64-5.07 11.64-11.5S385.44 115 379 115zM486.06 115.07c-6.2-1.66-12.58 2.03-14.24 8.25l-23.44 87.93-23.46-87.94c-1.66-6.2-8.03-9.9-14.24-8.23-6.2 1.66-9.9 8.03-8.25 14.24l34.72 130.1c1.35 5.1 5.97 8.65 11.24 8.65 5.26 0 9.88-3.54 11.23-8.64l34.68-130.1c1.66-6.2-2.03-12.58-8.24-14.23z"/></svg>