<svg xmlns="http://www.w3.org/2000/svg" width="512" height="512" viewBox="0 0 512 512"><path d="M223.66 239H138v-99.68c0-6.88-5.62-12.45-12.5-12.45s-12.5 5.57-12.5 12.45V239H27.53C20.66 239 15 244.44 15 251.3v119.05c0 6.87 5.62 12.45 12.5 12.45S40 377.22 40 370.35V263h171v109.68c0 6.88 5.62 12.45 12.5 12.45s12.5-5.57 12.5-12.45V251.3c0-6.86-5.46-12.3-12.34-12.3zM319.94 135h-57.9c-6.9 0-12.46 5.62-12.46 12.5s5.57 12.5 12.45 12.5H278v96.34c0 6.88 5.63 12.45 12.5 12.45s12.5-5.58 12.5-12.46V160h16.95c6.87 0 12.44-5.63 12.44-12.5S326.8 135 319.94 135zM410 135.73c-6.63-1.77-13.46 2.18-15.23 8.82l-16.92 63.47-16.93-63.47c-1.78-6.64-8.6-10.6-15.24-8.82-6.65 1.77-10.6 8.6-8.82 15.24l28.97 108.58c1.46 5.45 6.4 9.24 12.03 9.24 5.64 0 10.58-3.8 12.03-9.25l28.93-108.58c1.77-6.65-2.18-13.47-8.82-15.24zM495.6 251.72l-14.8-36.4c9.25-6.4 15.2-18.07 15.2-31.37v-12.07c0-20.16-13.75-36.88-31.26-36.88h-28.97c-6.87 0-11.77 5.88-11.77 12.76v108.58c0 6.88 5.63 12.45 12.5 12.45s12.5-5.58 12.5-12.46V221h7.3l16.2 40.2c1.93 4.87 6.6 7.72 11.55 7.72 1.54 0 3.1-.35 4.62-.96 6.4-2.55 9.5-9.85 6.94-16.24zM471 183.94c0 6.5-3.3 11.73-6.43 11.87-.14 0 .02.2-.12.2H449v-36h15.74c3.17 0 6.26 5.3 6.26 11.88v12.06z"/></svg>