<svg xmlns="http://www.w3.org/2000/svg" width="512" height="512" viewBox="0 0 512 512"><path d="M315 141.36c0-6.27-5.1-11.36-11.36-11.36H29.36C23.1 130 18 135.1 18 141.36v228.28C18 375.9 23.1 381 29.36 381h274.28c6.27 0 11.36-5.1 11.36-11.36V141.36zM292 359H41V153h251v206z"/><path d="M107.03 319h27.57c16.4 0 29.4-15.35 29.4-34.28v-57.46c0-18.94-13-34.26-29.4-34.26h-27.57c-6.27 0-11.03 5-11.03 11.28v103.4c0 6.3 4.76 11.32 11.03 11.32zM119 216h15.6c3.3 0 6.4 4.6 6.4 11.26v57.46c0 6.64-3.1 11.28-6.4 11.28H119v-80zM180.5 319.06c6.28 0 11.5-5.1 11.5-11.37V273h16.14c16.4 0 29.86-15.3 29.86-34.23v-11.5c0-18.95-13.46-34.27-29.86-34.27h-27.57c-6.27 0-11.57 5-11.57 11.28v103.4c0 6.3 5.22 11.38 11.5 11.38zM192 216h16.14c3.3 0 6.86 4.6 6.86 11.26v11.5c0 6.66-3.55 12.24-6.86 12.24H192v-35zM482.4 166h-55.16c-6.27 0-11.36 5.22-11.36 11.5s5.1 11.5 11.36 11.5H443v92.2c0 6.28 5.22 11.37 11.5 11.37s11.5-5.1 11.5-11.36V189h16.4c6.27 0 11.36-5.22 11.36-11.5s-5.1-11.5-11.37-11.5z"/></svg>