<svg xmlns="http://www.w3.org/2000/svg" width="512" height="512"><path d="M74.02 246.4c-9.14.65-25.44-10.84-8.13-13.24 5.83-.75 15.3 14.7 11.38.88-15.67-18.84-37.05 14.57-9.95 15.2 22.15 6-9.85 21.03-12.02 4.14C41.97 266.22 90 272.6 78.61 250c-1.3-.92-2.63-3.6-4.59-3.6zm29.1-5.9c-8.78-1.56-13.64-.53-17.12 1.53V275c9.73 3.25-1.96-19.72 8.84-9.6 13.73 2.65 17.64-18.07 8.28-24.9zm-1.44 19.1c-19.11 12.47-10.85-32.56 1.56-11.89.85 3.92.88 8.5-1.56 11.89zm22.3-20.8c-21.15.29-10.96 37.54 7.58 24.66 11.04-17.6-15.34 10.86-15.08-9.46h19.15c.94-7.3-3.61-15.41-11.65-15.2zM117 250c1.4-17.72 24.17 3.34 5.93 0H117zm45.16 11.94c4.25-14.06-8.13-33.27-21.16-17.68-.33 9.06 16.26-11.5 16.34 4.53-11.89-2.7-27.2 13.97-9.09 16.85 8.1-2.87 7.97-1.85 14.85-.64.03-.17-2.06-3.09-.94-3.06zM157 254c2.56 14.78-24.07 4.72-6.93-.18 1.89 1.28 8.33-4.47 6.93.18zm31.8-14c-7.35-1.89-10.73 6.06-15.8 9.83V230c-8.65-2.25-3.72 9.08-5 14.2V265c9.7 2.7 1.11-10.15 7.88-12.97 3.85 3.32 5.22 12.06 10.57 12.98 7.31.6-4.23-8.77-5.23-12.56L179 249.2m24.78-10.4c-21.15.3-10.94 37.54 7.59 24.66 11.05-17.6-15.35 10.86-15.07-9.46h19.13c.94-7.3-3.6-15.42-11.65-15.2zM197 250c1.28-17.72 23.96 3.37 5.75 0H197zm30.6-10.32c-1.35 4.6-8.48-4.12-6.6 7.42.7 5.6-1.38 14 1.01 17.9 6.81-.62.52-13.2 3.75-18.46 2.52-2.95 14.96-4.56 4.53-7.72l-2.7.88zm46.06-7.1c-17.8-11.17-34.5 15.33-21.27 29.05 11.05 12.74 33.24.72 29.2-15.58-.5-5.35-3.13-10.75-7.93-13.47zm-.18 26.6c-16.78 15.99-31.33-20.5-11.04-24.7 13.89-2.8 18.39 16.05 11.04 24.7zm30.52-4.8c-2.2 16.63-17 4.97-12-6.6 2.96-9.21-8.13-8.57-5 .32-3.17 10.84 6.57 26.67 17 14.42 1.74 9.65 6-2.6 4-7.67-.59-4.38 2.3-17.52-4-12.84v12.37zm18.34 8.19c-3.99-3.12-2.68-14.75-1.33-18.57 7.52-1.42-5.38-4.33-1.01-12.13-6.87.83-4.44 8.94-7 12.13 4.95 2.65-.17 14.19 2.8 19.92 2.67 6.43 14.52.6 6.54-1.35zM24.7 258.6c13.2-5.2 23.76-30.22 2.05-28.94-12.93-.36-7.56 19.6-2.75 5.35 18.12-7.4 9.93 16.75-1.41 19.84-12.58 10.12-.63 11.39 8.43 10.16 6.61 2.72 15.67-4.2 4.91-4-2.84-1.03-16.36 2.4-11.23-2.41zm466.3-9.95c-42.57-25.33-84.78-51.34-127.57-76.24-12.36-2.16-10.53 12.55-10.43 20.5.17 46.87-.34 93.78.26 140.63 4.04 12 16.05 3.19 22.74-1.11 38.86-23.52 78.16-46.4 116.75-70.31 3.95-3.82 2.86-10.85-1.75-13.47zm-121 67.32V196.04l100 60.03-100 59.9z"/></svg>