<svg xmlns="http://www.w3.org/2000/svg" width="512" height="512"><path d="M23 233c-8.69-2.25-3.7 9.18-5 14.31V277h26c2.8-9.24-7.7-5.16-13.29-6H23m39.7-27c-27.17.24-11.5 48.42 10.58 28.38 8.18-9.28 4.07-29.2-10.58-28.38zm6.55 25.25c-28.11 14.86-10.68-42.49 2.45-11.86.36 4 .25 8.6-2.45 11.86zm31.95 1.09c-20.54 11.62-16.1-34.97 1.19-18.45 11.74 9.66.37-15.04-10.16-7.44-21.17 5.7-6.8 44 12.47 29.08 9.72-7.03-1.13-14.98-3.5-3.19zm37.8-7.52c4.77-15.02-12.1-25.99-24.01-14.6-6.41 16.9 18.97-12.86 18.48 7.87-12.53-2.63-33.12 12.79-13.48 20.34 10.11-1.16 12.29-3.23 19.06.56 2.92.43-2.02-11.52-.05-14.17zm-5-.82c3.45 15.32-27.5 10.27-11.8.74 2.2 1.15 12.95-4.9 11.8-.74zm14-29c7.7-1.26 2.47 10.42 4 15.33V277c-7.7 1.26-2.47-10.42-4-15.33V233zm38.27 0l-16.54 44c8.36 2.67 7.68-7.26 10.3-12.6 3.94-3.27 12.24-.47 17.86-1.4 4.05 3.04 2.11 14.6 8.73 14 7.33.73-2.14-9.9-2.28-14.23L192.41 233h-6.14zm-4.12 26c2.58-6.07 6.56-20.31 7.62-19.54-.63 5.44 10.7 18.67 3.92 19.54h-11.54zm45.53 5.2c-3.03 14.58-6.31-8.5-9.76-14.41-2.6-5.24-3.3-13.18-7.04-16.79-9.7-2.46-.96 7.82-.43 12.43 4 10.52 7.98 21.05 11.97 31.57 8.17 2.6 7.74-7.3 10.6-12.41L245.14 233c-8.18-2.6-7.64 7.35-10.46 12.45-2.33 6.25-4.65 12.52-6.99 18.75zM268 233c8.69-2.25 3.7 9.18 5 14.31V277c-8.69 2.25-3.7-9.18-5-14.31V233zm38.4 14.66c-8.06-9.99-17.75 4.67-20.44-2.66-6.22.22-1.48 11.4-2.96 16.36 1.58 4.66-3.45 15.92 3.07 15.64 4.33-2.1.77-12.1 1.93-17.38-.08-18.38 20.7-9.75 15 4.45.78 5.53-3.15 15.77 6 12.93-.81-9.69 2.1-20.52-2.6-29.34zm183.3.22l-138.64-83.23c-13.2-6.27-16.76 9.81-15.06 19.46v155.05c1.8 14.4 17.22 8.64 24.6 2.42 43.61-26.36 87.7-52.01 131-78.82 4.3-4.15 3.32-11.95-1.9-14.88zM355 322.26v-132.5l110.47 66.32L355 322.26z"/></svg>