<svg xmlns="http://www.w3.org/2000/svg" width="512" height="512"><path d="M218.82 261.36c-3.3 20.03 20.97 14.37 24.85.3 25.17-16.67 60.8-16.48 86.8-1.69 24.29 19.44-16.94 31.18-30.44 37.03-5.98 27.03 31.27 12.01 42.66 3.08 21.37-11.71 21.53-43.75.87-56.05-29.7-19.65-70.31-19.96-102.16-5.26-9.6 4.92-18.57 12.32-22.58 22.59zm122.74 61.98c-17.34 22.69 19.14 22.2 27.46 5.83 28.23-22.02 38.4-65.28 17.35-95.66-23-34.74-67.45-51.42-107.9-48.58-18.47 19.2 15.54 21.37 28.54 21.85 32.42 5.4 69.31 28.09 70.09 64.46.16 22.77-16.57 41.61-35.54 52.1zM404.55 404H260.6c-22.36 6.44-1.91 25.43 12.85 20h131.11c13.4.49 13.4-20.5-.01-20zM88.03 326.77c12.49 7.06 17.77-9.15 23.67-16.86 2.78-15.97.61-32.75 1.3-49.06V205c18.8 6.01 24.71-25.11 3.04-22-10.92-1.74-25.77 1.88-23.04 16.07v101.77c-4.51 7.73-15.82 17.83-4.97 25.93zM157.78 404H45.53c-1.45-19.22-21.92-8.66-26.02 3.55-8.73 13.75 9.26 18.58 19.67 16.46h118.6c13.41.48 13.38-20.48 0-20.01zm249.25-213c-7.14.06-15.2 1.9-17.78-6.72-21.99-31.27-43.13-63.24-65.63-94.08-11.6-4.35-25.01-1.3-37.43-2.21-15.27.2-30.58-.39-45.82.29-9.7 5.15-13.65 16.93-20.63 25.17-8.72 13.38-19.14 25.82-26.7 39.85.12 20.18 21.22 10.75 25.14-1.87L248.23 108h63.5c23.4 33.43 46.17 67.37 69.98 100.49 7.5 4.6 16.93 1.68 25.33 2.51 13.4.49 13.4-20.5-.01-20zm87.2 220.95c-7.66-36.72-15.97-73.37-23.23-110.14-.53-18.85 1.08-37.92-.84-56.63-12.91-17.07-23.86 5.01-20.16 18.04v40.69c8.46 33.92 14.7 68.58 22.3 102.78-1.15 15.53 20.45 28.06 21.93 5.26zM256.8 345.87c-3.4-21-36.62-17-48.12-35.2-19.57-16.97-25.01-48.52-8.32-69.43 8.37-22.11-22.95-17.68-23.99.48-16.72 33.43-.11 75.1 30.5 94.16 12.38 5.8 40.3 28.5 49.93 9.99z"/></svg>