<svg xmlns="http://www.w3.org/2000/svg" width="512" height="512"><path d="M245.2 120c54.06-.16 108.15.32 162.18-.24 18.02-3.27 9.3-29.85-7.2-24.76-52.53.16-105.09-.32-157.6.24-15.16 2.4-12.67 25.4 2.62 24.76zm-54 272H45c-.19-37.6.38-75.24-.29-112.81-3.94-17.72-31.37-9.78-26.71 7.2.2 40.13-.39 80.29.3 120.38 4.44 14.47 21.52 9.26 32.88 10.23 47.54-.16 95.11.32 142.64-.24 15.16-2.4 12.67-25.4-2.62-24.76zM31.5 180.82c14.05-.01 14.27-15.37 13.5-25.64V120c29.6-.16 59.23.32 88.82-.24 18.02-3.27 9.3-29.85-7.22-24.76-32.53.17-65.09-.34-97.6.26-14.4 2.9-10.51 19.13-11 29.81.65 15.9-1.35 32.16 1.1 47.82a13.77 13.77 0 0 0 12.4 7.93zm449-47.59c-14.04.02-14.27 15.37-13.5 25.64.19 49.84-.38 99.73.29 149.54 3.94 17.73 31.38 9.79 26.71-7.2-.19-52.53.38-105.1-.29-157.6-1.29-5.99-7.15-10.46-13.21-10.38zM464.77 392c-54.06.16-108.15-.32-162.19.24-18.02 3.27-9.3 29.85 7.22 24.76 52.52-.16 105.08.32 157.58-.24 15.17-2.4 12.68-25.39-2.61-24.76zM288.43 124.85c-24.31 3.88-9.14 31.98 9.46 29.96 41.15 16.47 68.63 59.72 67.7 103.8 6.68 21.78 34.46 4.08 25.27-13.93-4.16-56.26-46.94-107.88-102.43-119.83zM130.97 307.98c15.19 22.3 34.18-7.56 19.57-22.7-12.45-42.6 4.47-91.07 40-117.44 13.42-21.7-21.71-28.3-29.6-8.4-39.06 37.47-51.26 98.9-29.97 148.54zM374 322.58c9.4-22.22-25.74-25.56-28.56-3.76-25.64 37.46-75.7 54.89-119.2 42.82-26.09 5-6.57 34.73 13 29.16 53.38 7.67 108.87-21.2 134.76-68.22zm-118.2-22.24c16.29 3.01 26.06-10.33 25.3-23 7.5-11.04 28.02-15.01 17.35-34.51-8.33-31-52.28-41.9-73.99-18.17-23.72 21.65-12.82 65.5 18.17 73.68a44.2 44.2 0 0 0 13.17 2z"/></svg>