<svg xmlns="http://www.w3.org/2000/svg" width="512" height="512"><path d="M18 237c5.13 1.25 16.45-3.68 14 5.15V278c9.29 2.82 5.13-7.8 6-13.4V237c4.8-1.56 16.16 3.43 16-3.1-.3-6.15-11.51-1.41-16.5-2.9H18m60.3 33.4c-2.99 15.64-6.2-7.45-9.7-13.64L61.56 231c-10.4-2.83-3.8 6.1-2.2 11.57L72.72 278c8.15 2.84 7.98-6.38 10.6-11.56L96.82 231c-8.4-2.68-8.05 7.19-10.82 12.57l-7.7 20.83zM129 231l-17.56 47c8.33 2.87 8-6.3 10.35-11.73 1.46-6.72 11.34-1.75 16.55-3.27 7-.89 5.64 10.06 8.83 14.56 9.4 3.65 5.7-4.38 2.86-10.1L135.51 231H129zm-4.37 28c2.58-7.52 5.92-14.81 7.48-22.64.98 7.04 7.71 17.24 6.99 22.63-4.82 0-9.67-.01-14.47.01zm54.37 3c.25 18.87-21.42 9-15-5.82.56-5.58.93-16.48-6-11.15.72 9.6-1.82 19.93 2.23 28.88 7.62 11.97 21.11-7.46 20.8 4.09 7.7 1.22 2.42-10.53 3.97-15.46-.67-5.85 1.36-14.4-1.03-18.54-8.7-2.24-3.63 9.3-4.97 14.43V262zm36-14.2c-17.02-16.98-33.36 17.77-16.21 27.88 9.8 7.16 15.8-6.44 18.26 2.32 7.66 1.2 2.39-10.55 3.94-15.46V231c-9.29-2.82-5.13 7.8-6 13.4.01 1.12-.02 2.3.01 3.4zm-2.15 22.44c-22.1 15.48-17.72-38.64 1.09-17.35 2.04 5.33 2.4 12.57-1.09 17.35zM230 231c10.83-3.05 1.31 13.22 0 2.9V231zm0 13c8.73-2.25 3.67 9.28 5 14.43V278c-8.73 2.25-3.67-9.28-5-14.43V244zm26.98-.75c-23.23-.95-18.89 41.3 4.17 34.1 17.23-3.85 14.44-35.33-4.17-34.1zm6.95 26.8c-29.83 15.81-11.35-45.08 2.61-12.58.41 4.25.25 9.18-2.61 12.58zm225.41-22.67l-147.18-88.35c-13.59-6.53-16.76 10.28-15.16 20.05v165.18c1.25 15.06 17.33 9.34 24.9 2.88 46.43-28.07 93.38-55.42 139.5-83.96 4.58-4.47 3.45-12.65-2.06-15.8zM347 326.33V185.7l117.27 70.38L347 326.33z"/></svg>