<?xml version="1.0" encoding="UTF-8" standalone="no"?>
<svg
   xmlns:dc="http://purl.org/dc/elements/1.1/"
   xmlns:cc="http://creativecommons.org/ns#"
   xmlns:rdf="http://www.w3.org/1999/02/22-rdf-syntax-ns#"
   xmlns:svg="http://www.w3.org/2000/svg"
   xmlns="http://www.w3.org/2000/svg"
   xmlns:sodipodi="http://sodipodi.sourceforge.net/DTD/sodipodi-0.dtd"
   xmlns:inkscape="http://www.inkscape.org/namespaces/inkscape"
   width="512"
   height="512"
   viewBox="0 0 512 512"
   version="1.1"
   id="svg6"
   sodipodi:docname="connection unit anytype.svg"
   inkscape:version="0.92.1 r15371">
  <metadata
     id="metadata12">
    <rdf:RDF>
      <cc:Work
         rdf:about="">
        <dc:format>image/svg+xml</dc:format>
        <dc:type
           rdf:resource="http://purl.org/dc/dcmitype/StillImage" />
      </cc:Work>
    </rdf:RDF>
  </metadata>
  <defs
     id="defs10" />
  <sodipodi:namedview
     pagecolor="#ffffff"
     bordercolor="#666666"
     borderopacity="1"
     objecttolerance="10"
     gridtolerance="10"
     guidetolerance="10"
     inkscape:pageopacity="0"
     inkscape:pageshadow="2"
     inkscape:window-width="640"
     inkscape:window-height="493"
     id="namedview8"
     showgrid="false"
     inkscape:zoom="0.4609375"
     inkscape:cx="256"
     inkscape:cy="256"
     inkscape:window-x="0"
     inkscape:window-y="0"
     inkscape:window-maximized="0"
     inkscape:current-layer="svg6" />
  <path
     id="path4"
     d="M 495.24,361.48 C 493.41715,283.99207 451.02224,208.96189 385.48875,167.54453 319.88041,124.59914 232.76203,117.60513 161.0882,149.36036 89.861253,179.61856 35.996997,246.68709 21.668806,322.72009 c -3.078572,16.01635 -4.690379,32.49008 -4.441423,48.71524 3.767567,18.65437 32.269985,10.64893 27.714748,-7.12312 0.992915,-72.2875 42.096966,-142.36114 104.895279,-178.25406 62.99168,-37.49754 145.64826,-38.34164 209.34794,-2.03632 64.68818,35.28996 107.54917,106.57741 108.37815,180.26241 -4.10485,15.97029 20.46768,25.31307 26.73541,9.34935 1.61415,-3.85195 0.84546,-8.10902 0.94109,-12.15359 z M 22.6,256.14 c 155.71667,0 311.43333,0 467.15,0" />
</svg>
