<?xml version="1.0" encoding="UTF-8" standalone="no"?>
<svg
   xmlns:dc="http://purl.org/dc/elements/1.1/"
   xmlns:cc="http://creativecommons.org/ns#"
   xmlns:rdf="http://www.w3.org/1999/02/22-rdf-syntax-ns#"
   xmlns:svg="http://www.w3.org/2000/svg"
   xmlns="http://www.w3.org/2000/svg"
   xmlns:sodipodi="http://sodipodi.sourceforge.net/DTD/sodipodi-0.dtd"
   xmlns:inkscape="http://www.inkscape.org/namespaces/inkscape"
   width="512"
   height="512"
   viewBox="0 0 512 512"
   version="1.1"
   id="svg8"
   sodipodi:docname="cooker connection unit.svg"
   inkscape:version="0.92.1 r15371">
  <metadata
     id="metadata14">
    <rdf:RDF>
      <cc:Work
         rdf:about="">
        <dc:format>image/svg+xml</dc:format>
        <dc:type
           rdf:resource="http://purl.org/dc/dcmitype/StillImage" />
      </cc:Work>
    </rdf:RDF>
  </metadata>
  <defs
     id="defs12" />
  <sodipodi:namedview
     pagecolor="#ffffff"
     bordercolor="#666666"
     borderopacity="1"
     objecttolerance="10"
     gridtolerance="10"
     guidetolerance="10"
     inkscape:pageopacity="0"
     inkscape:pageshadow="2"
     inkscape:window-width="638"
     inkscape:window-height="493"
     id="namedview10"
     showgrid="false"
     inkscape:zoom="0.4609375"
     inkscape:cx="256"
     inkscape:cy="256"
     inkscape:window-x="0"
     inkscape:window-y="0"
     inkscape:window-maximized="0"
     inkscape:current-layer="svg8" />
  <path
     id="path6"
     d="m 256.17,205 c 12.17394,-0.89259 25.13817,2.12794 36.64359,-2.26758 14.41934,-9.79345 0.44923,-29.22605 -14.15245,-24.73242 -18.32802,0.0146 -39.85725,-2.53534 -52.40739,14.2225 -17.01632,19.22588 -11.20346,45.93241 -12.25375,69.32476 0.60706,22.81522 -1.37008,45.8184 1.31155,68.48771 3.78447,21.98869 24.58601,39.90214 47.31731,36.96503 10.72118,-1.08573 23.0185,2.93083 32.22114,-3.9 11.73316,-12.08589 -3.83105,-26.96132 -17.26534,-23.1 -10.83827,-1.24936 -24.74714,3.986 -32.03716,-6.715 -7.73185,-14.3618 -3.42291,-31.24621 -4.5475,-46.90283 0.20512,-21.21539 -0.41574,-42.46874 0.32002,-63.65987 1.15576,-7.72235 5.97299,-17.31846 14.84998,-17.7223 z m 237.6,155.93 C 491.95711,283.8699 449.83994,209.19969 384.61739,168.05316 320.09084,125.83912 234.65187,118.56017 163.84,149.01 93.93399,177.98615 40.115515,242.27625 24.140289,316.27472 c -4.026699,17.84834 -5.744034,36.47456 -5.880445,54.53813 3.82732,18.52925 32.202664,10.58188 27.728247,-7.1174 1.052799,-69.69588 39.309581,-137.43767 98.748369,-173.9477 58.47282,-37.13766 135.51836,-42.28535 198.37237,-13.14253 66.63194,29.58045 114.84377,96.17671 121.9808,168.7463 2.3553,10.56511 -1.70217,22.91374 5.33287,31.84598 11.292,10.76294 27.40152,-2.72723 23.31845,-16.2256 L 493.74,360.91 Z M 22.6,256.14 c 155.71667,0 311.43333,0 467.15,0" />
</svg>
