<?xml version="1.0" encoding="UTF-8" standalone="no"?>
<svg
   xmlns:dc="http://purl.org/dc/elements/1.1/"
   xmlns:cc="http://creativecommons.org/ns#"
   xmlns:rdf="http://www.w3.org/1999/02/22-rdf-syntax-ns#"
   xmlns:svg="http://www.w3.org/2000/svg"
   xmlns="http://www.w3.org/2000/svg"
   xmlns:sodipodi="http://sodipodi.sourceforge.net/DTD/sodipodi-0.dtd"
   xmlns:inkscape="http://www.inkscape.org/namespaces/inkscape"
   width="512"
   height="512"
   viewBox="0 0 512 512"
   version="1.1"
   id="svg8"
   sodipodi:docname="double pole switch outlet plateg.svg"
   inkscape:version="0.92.1 r15371">
  <metadata
     id="metadata14">
    <rdf:RDF>
      <cc:Work
         rdf:about="">
        <dc:format>image/svg+xml</dc:format>
        <dc:type
           rdf:resource="http://purl.org/dc/dcmitype/StillImage" />
      </cc:Work>
    </rdf:RDF>
  </metadata>
  <defs
     id="defs12" />
  <sodipodi:namedview
     pagecolor="#ffffff"
     bordercolor="#666666"
     borderopacity="1"
     objecttolerance="10"
     gridtolerance="10"
     guidetolerance="10"
     inkscape:pageopacity="0"
     inkscape:pageshadow="2"
     inkscape:window-width="638"
     inkscape:window-height="493"
     id="namedview10"
     showgrid="false"
     inkscape:zoom="0.4609375"
     inkscape:cx="256"
     inkscape:cy="256"
     inkscape:window-x="0"
     inkscape:window-y="0"
     inkscape:window-maximized="0"
     inkscape:current-layer="svg8" />
  <path
     id="path6"
     d="m 423.6,315 c -41.86667,0 -83.73333,0 -125.6,0 -0.3212,-33.34913 0.56835,-66.98566 -0.29001,-100.0701 -4.33403,-48.19621 -43.94706,-90.20157 -91.82999,-97.2899 6.44333,-11.16 12.88667,-22.32 19.33,-33.48 9.31809,10.452582 33.7823,9.140634 24.67328,-9.788906 C 241.39318,68.146642 232.05729,62.076347 222.10141,58.565937 209.19414,59.528424 207.47639,75.116926 200.67261,83.7084 197.01431,89.244355 199.9366,69.967413 199,65.240841 198.52592,51.315093 199.98601,37.208116 198.20312,23.405 184.03399,4.9412497 174.37628,30.281951 178,43.649369 c 0,24.383544 0,48.767087 0,73.150631 -49.66361,3.50555 -93.072228,44.93109 -99.20304,94.29486 -2.095341,23.72242 -0.09757,47.70998 -0.78696,71.59793 0,47.65574 0,95.31147 0,142.96721 1.448689,16.03282 19.657497,10.37523 30.56171,11.4 23.14276,0 46.28553,0 69.42829,0 0.4815,17.18477 -0.99538,34.55304 0.79688,51.615 14.17993,18.46916 23.821,-6.90798 20.20312,-20.27437 0,-10.46688 0,-20.93375 0,-31.40063 29.5,0 59,0 88.5,0 15.21401,-2.6211 9.31792,-20.53235 10.5,-31.46171 0,-22.8461 0,-45.69219 0,-68.53829 16,0 32,0 48,0 0.52687,14.33804 -1.09143,28.89631 0.875,43.08656 14.41107,18.41436 24.95605,-6.44928 21.125,-20.25593 0.99294,-7.06308 -1.92446,-18.03651 1.33745,-22.83063 14.55418,0 29.10837,0 43.66255,0 0.48039,14.34207 -0.99476,28.86731 0.79688,43.08656 14.16692,18.48064 23.82605,-6.8881 20.20312,-20.25593 -0.44826,-12.64554 0.94494,-25.45924 -0.78406,-37.98782 C 431.78829,317.91253 427.8652,314.90451 423.6,315 Z M 100.03,215.72 c 4.37269,-42.72768 43.67886,-78.03349 86.63723,-77.78414 42.94428,-1.62802 83.30261,32.50182 88.99277,75.07414 0.25411,6.97575 -14.25644,0.99825 -19.68171,2.98 C 204.10356,215.81062 151.3684,216.34911 100.03,215.72 Z M 277,415 c -59.33333,0 -118.66667,0 -178,0 0,-59 0,-118 0,-177 59.33333,0 118.66667,0 178,0 0,59 0,118 0,177 z m -171.3,-6.58 c 12.44296,9.54944 21.04841,-7.32146 29.52577,-14.19577 C 152.81718,376.63282 170.40859,359.04141 188,341.45 c 22.32333,22.32333 44.64667,44.64667 66.97,66.97 22.49348,11.60346 20.35681,-18.67961 4.92865,-25.74445 C 241.04577,363.81703 222.19288,344.95852 203.34,326.1 225.66,303.77667 247.98,281.45333 270.3,259.13 281.92896,236.65327 251.62327,238.77977 244.56865,254.21445 225.71244,273.0763 206.85622,291.93815 188,310.8 c -22.32,-22.32333 -44.64,-44.64667 -66.96,-66.97 -22.466442,-11.63687 -20.35932,18.6702 -4.92632,25.72212 18.85877,18.85596 37.71755,37.71192 56.57632,56.56788 -22.32333,22.32333 -44.64667,44.64667 -66.97,66.97 -4.2239,4.00698 -4.15387,11.33776 -0.02,15.33 z M 22.6,256.14 c 155.71667,0 311.43333,0 467.15,0" />
</svg>
