<?xml version="1.0" encoding="UTF-8" standalone="no"?>
<svg
   xmlns:dc="http://purl.org/dc/elements/1.1/"
   xmlns:cc="http://creativecommons.org/ns#"
   xmlns:rdf="http://www.w3.org/1999/02/22-rdf-syntax-ns#"
   xmlns:svg="http://www.w3.org/2000/svg"
   xmlns="http://www.w3.org/2000/svg"
   xmlns:sodipodi="http://sodipodi.sourceforge.net/DTD/sodipodi-0.dtd"
   xmlns:inkscape="http://www.inkscape.org/namespaces/inkscape"
   width="512"
   height="512"
   viewBox="0 0 512 512"
   version="1.1"
   id="svg6"
   sodipodi:docname="double pole switchedg.svg"
   inkscape:version="0.92.1 r15371">
  <metadata
     id="metadata12">
    <rdf:RDF>
      <cc:Work
         rdf:about="">
        <dc:format>image/svg+xml</dc:format>
        <dc:type
           rdf:resource="http://purl.org/dc/dcmitype/StillImage" />
      </cc:Work>
    </rdf:RDF>
  </metadata>
  <defs
     id="defs10" />
  <sodipodi:namedview
     pagecolor="#ffffff"
     bordercolor="#666666"
     borderopacity="1"
     objecttolerance="10"
     gridtolerance="10"
     guidetolerance="10"
     inkscape:pageopacity="0"
     inkscape:pageshadow="2"
     inkscape:window-width="640"
     inkscape:window-height="493"
     id="namedview8"
     showgrid="false"
     inkscape:zoom="0.4609375"
     inkscape:cx="256"
     inkscape:cy="256"
     inkscape:window-x="0"
     inkscape:window-y="0"
     inkscape:window-maximized="0"
     inkscape:current-layer="svg6" />
  <path
     id="path4"
     d="M 438.32,63.9 C 423.17369,48.820571 408.15738,33.603753 392.93,18.61 379.51654,9.147079 370.74126,25.295103 362.11408,32.78592 318.54219,76.441795 274.98091,119.15949 231.2,163 c -49.36667,0 -98.73333,0 -148.1,0 -17.833219,2.38041 -12.15649,22.65439 -13.1,35.24097 0,95.18634 0,190.37269 0,285.55903 1.963566,16.84908 21.430441,11.20407 33.2009,12.2 95.64304,0 191.28607,0 286.9291,0 17.38559,-0.98733 12.0175,-20.58765 12.87,-32.3009 0,-95.63304 0,-191.26607 0,-286.8991 -1.06121,-17.90808 -20.79864,-13.21224 -32.9709,-13.8 -33.9097,0 -67.8194,0 -101.7291,0 19.04333,-18.93333 38.08667,-37.86667 57.13,-56.8 13.32112,12.5453 25.09153,26.96496 39.46875,38.23375 25.71023,4.48293 17.58115,-24.54256 2.84046,-32.69454 C 359.82614,103.82614 351.91307,95.91307 344,88 c 13.55667,-13.55 27.11333,-27.1 40.67,-40.65 13.32756,12.457244 25.06452,26.858946 39.46875,38 C 437.05438,90.888177 448.5108,73.606825 438.32,63.9 Z M 377,189 c 0,93.66667 0,187.33333 0,281 -93.66667,0 -187.33333,0 -281,0 0,-93.66667 0,-187.33333 0,-281 93.66667,0 187.33333,0 281,0 z M 22.6,256.14 c 155.71667,0 311.43333,0 467.15,0" />
</svg>
