<?xml version="1.0" encoding="UTF-8" standalone="no"?>
<svg
   xmlns:dc="http://purl.org/dc/elements/1.1/"
   xmlns:cc="http://creativecommons.org/ns#"
   xmlns:rdf="http://www.w3.org/1999/02/22-rdf-syntax-ns#"
   xmlns:svg="http://www.w3.org/2000/svg"
   xmlns="http://www.w3.org/2000/svg"
   xmlns:sodipodi="http://sodipodi.sourceforge.net/DTD/sodipodi-0.dtd"
   xmlns:inkscape="http://www.inkscape.org/namespaces/inkscape"
   width="512"
   height="512"
   viewBox="0 0 512 512"
   version="1.1"
   id="svg8"
   sodipodi:docname="double pole switch cooker control neon indicator.svg"
   inkscape:version="0.92.1 r15371">
  <metadata
     id="metadata14">
    <rdf:RDF>
      <cc:Work
         rdf:about="">
        <dc:format>image/svg+xml</dc:format>
        <dc:type
           rdf:resource="http://purl.org/dc/dcmitype/StillImage" />
      </cc:Work>
    </rdf:RDF>
  </metadata>
  <defs
     id="defs12" />
  <sodipodi:namedview
     pagecolor="#ffffff"
     bordercolor="#666666"
     borderopacity="1"
     objecttolerance="10"
     gridtolerance="10"
     guidetolerance="10"
     inkscape:pageopacity="0"
     inkscape:pageshadow="2"
     inkscape:window-width="638"
     inkscape:window-height="493"
     id="namedview10"
     showgrid="false"
     inkscape:zoom="0.4609375"
     inkscape:cx="256"
     inkscape:cy="256"
     inkscape:window-x="0"
     inkscape:window-y="0"
     inkscape:window-maximized="0"
     inkscape:current-layer="svg8" />
  <path
     id="path6"
     d="m 482.4,208 c -50.13333,0 -100.26667,0 -150.4,0 -0.15951,-44.82681 0.31903,-89.68394 -0.23928,-134.491797 C 327.77573,58.366361 310.52667,64.135161 299.06338,63 208.41625,63.187117 117.72716,62.62582 27.10625,63.280547 12.371575,67.890114 18.158148,85.370313 17,96.906621 17,186.72775 17,276.54887 17,366.37 c 1.881828,15.76178 19.96338,10.8124 31.029371,11.63 37.99021,0 75.980419,0 113.970629,0 0.59191,21.09348 -1.23016,42.43546 0.99687,63.36063 11.77364,18.86188 28.70852,-1.95892 24.00313,-17.07688 0,-15.42791 0,-30.85583 0,-46.28375 44.31667,0 88.63333,0 132.95,0 16.12554,-0.99081 11.31397,-19.13806 12.05,-30.05937 0,-38.31354 0,-76.62709 0,-114.94063 19.66667,0 39.33333,0 59,0 0.56279,17.43981 -1.18958,35.11795 0.99688,52.39063 11.77363,18.86188 28.70851,-1.95892 24.00312,-17.07688 0,-11.77125 0,-23.5425 0,-35.31375 18,0 36,0 54,0 0.56279,17.43981 -1.18958,35.11795 0.99688,52.39063 11.77363,18.86188 28.70851,-1.95892 24.00312,-17.07688 -0.6085,-17.31306 1.25974,-34.94197 -1.0125,-52.045 C 492.08224,211.66397 487.51572,207.98696 482.4,208 Z M 308,354 c -88.66667,0 -177.33333,0 -266,0 0,-88.66667 0,-177.33333 0,-266 88.66667,0 177.33333,0 266,0 0,88.66667 0,177.33333 0,266 z M 157.37,221.2 c -33.4,33.4 -66.8,66.8 -100.2,100.2 -13.454242,22.89611 18.900723,24.89704 26.956458,7.84354 C 114.34097,299.02903 144.55549,268.81451 174.77,238.6 c 33.4,33.4 66.8,66.8 100.2,100.2 22.89597,13.45314 24.8975,-18.90035 7.84354,-26.95646 C 252.59903,281.62903 222.38451,251.41451 192.17,221.2 225.57,187.80667 258.97,154.41333 292.37,121.02 305.82419,98.123252 273.4696,96.122707 265.41354,113.17646 235.19903,143.39097 204.98451,173.60549 174.77,203.82 141.37,170.42 107.97,137.02 74.57,103.62 51.675636,90.167995 49.671796,122.52014 66.726458,130.57646 96.936248,160.77292 127.18378,191.06044 157.37,221.2 Z M 22.6,256.14 c 155.71667,0 311.43333,0 467.15,0" />
</svg>
