<?xml version="1.0" encoding="UTF-8" standalone="no"?>
<svg
   xmlns:dc="http://purl.org/dc/elements/1.1/"
   xmlns:cc="http://creativecommons.org/ns#"
   xmlns:rdf="http://www.w3.org/1999/02/22-rdf-syntax-ns#"
   xmlns:svg="http://www.w3.org/2000/svg"
   xmlns="http://www.w3.org/2000/svg"
   xmlns:sodipodi="http://sodipodi.sourceforge.net/DTD/sodipodi-0.dtd"
   xmlns:inkscape="http://www.inkscape.org/namespaces/inkscape"
   width="512"
   height="512"
   viewBox="0 0 512 512"
   version="1.1"
   id="svg6"
   sodipodi:docname="earth.svg"
   inkscape:version="0.92.1 r15371">
  <metadata
     id="metadata12">
    <rdf:RDF>
      <cc:Work
         rdf:about="">
        <dc:format>image/svg+xml</dc:format>
        <dc:type
           rdf:resource="http://purl.org/dc/dcmitype/StillImage" />
      </cc:Work>
    </rdf:RDF>
  </metadata>
  <defs
     id="defs10" />
  <sodipodi:namedview
     pagecolor="#ffffff"
     bordercolor="#666666"
     borderopacity="1"
     objecttolerance="10"
     gridtolerance="10"
     guidetolerance="10"
     inkscape:pageopacity="0"
     inkscape:pageshadow="2"
     inkscape:window-width="640"
     inkscape:window-height="493"
     id="namedview8"
     showgrid="false"
     inkscape:zoom="0.4609375"
     inkscape:cx="256"
     inkscape:cy="256"
     inkscape:window-x="0"
     inkscape:window-y="0"
     inkscape:window-maximized="0"
     inkscape:current-layer="svg6" />
  <path
     id="path4"
     d="M 481.74,166 C 411.16,166 340.58,166 270,166 269.80611,119.72314 270.38773,73.405648 269.70934,27.15418 261.46345,3.9690758 235.72142,22.718889 242,40.766684 242,82.511122 242,124.25556 242,166 170.50315,166.19409 98.965635,165.61202 27.49418,166.29066 4.3090758,174.53655 23.058889,200.27858 41.106684,194 188.90133,193.8064 336.73656,194.38731 484.50582,193.70934 500.58833,190.52118 497.95883,165.91334 481.74,166 Z M 406.5,317 c -101.25225,0.19403 -202.54507,-0.3879 -303.77199,0.29066 -23.191118,8.23781 -4.441128,33.98994 13.60867,27.70934 97.63669,-0.19405 195.31396,0.38792 292.92531,-0.29066 C 425.35035,341.5296 422.71926,316.9118 406.5,317 Z m -75.24,151 c -51.0857,0.19463 -102.21207,-0.38871 -153.27242,0.29066 -23.20852,8.23455 -4.44316,33.98983 13.6091,27.70934 47.46999,-0.19473 94.98067,0.38886 142.42531,-0.29066 C 350.11035,492.5296 347.47926,467.9118 331.26,468 Z M 22.6,256.14 c 155.71667,0 311.43333,0 467.15,0" />
</svg>
