<?xml version="1.0" encoding="UTF-8" standalone="no"?>
<svg
   xmlns:dc="http://purl.org/dc/elements/1.1/"
   xmlns:cc="http://creativecommons.org/ns#"
   xmlns:rdf="http://www.w3.org/1999/02/22-rdf-syntax-ns#"
   xmlns:svg="http://www.w3.org/2000/svg"
   xmlns="http://www.w3.org/2000/svg"
   xmlns:sodipodi="http://sodipodi.sourceforge.net/DTD/sodipodi-0.dtd"
   xmlns:inkscape="http://www.inkscape.org/namespaces/inkscape"
   width="512"
   height="512"
   viewBox="0 0 512 512"
   version="1.1"
   id="svg8"
   sodipodi:docname="emergency stop button.svg"
   inkscape:version="0.92.1 r15371">
  <metadata
     id="metadata14">
    <rdf:RDF>
      <cc:Work
         rdf:about="">
        <dc:format>image/svg+xml</dc:format>
        <dc:type
           rdf:resource="http://purl.org/dc/dcmitype/StillImage" />
      </cc:Work>
    </rdf:RDF>
  </metadata>
  <defs
     id="defs12" />
  <sodipodi:namedview
     pagecolor="#ffffff"
     bordercolor="#666666"
     borderopacity="1"
     objecttolerance="10"
     gridtolerance="10"
     guidetolerance="10"
     inkscape:pageopacity="0"
     inkscape:pageshadow="2"
     inkscape:window-width="638"
     inkscape:window-height="493"
     id="namedview10"
     showgrid="false"
     inkscape:zoom="0.4609375"
     inkscape:cx="256"
     inkscape:cy="256"
     inkscape:window-x="0"
     inkscape:window-y="0"
     inkscape:window-maximized="0"
     inkscape:current-layer="svg8" />
  <path
     id="path6"
     d="M 226.5,262.88 C 225.42005,218.28928 192.38531,176.89382 149.01711,166.25428 106.21177,154.27865 57.1939,173.73587 34.333397,211.87884 10.594963,248.66074 14.28894,300.16395 42.789156,333.3365 69.916013,366.76164 118.80151,379.95999 158.92959,364.20339 200.22888,349.42024 228.83728,306.59055 226.5,262.88 Z m -19.82,8.4 c -1.3848,38.7628 -32.88964,73.60445 -71.35436,78.74969 C 97.379689,356.5434 57.137235,333.23833 43.96,297.05 29.373061,261.1229 43.937637,216.4766 76.918055,196.08076 108.53638,174.8901 154.13239,179.31445 181.05288,206.23863 198.48177,222.88485 208.05701,247.29105 206.68,271.28 Z M 328.1,161 c 21.02761,-5.90699 2.81073,-25.2376 -11.61804,-20 -10.3427,0.41144 -20.87084,-0.90205 -31.07352,0.81172 -8.95974,6.87594 -4.19969,19.49184 -5.40844,29.32126 0,29.85567 0,59.71135 0,89.56702 0.55401,13.73703 15.78834,9.71188 24.95551,10.3 10.01899,-0.9606 21.24374,2.45583 30.11824,-2.9525 10.34547,-14.96086 -9.80828,-18.92769 -20.71053,-17.0475 -4.94919,-1.57771 -16.9207,3.86691 -15.36322,-4.21747 0,-12.26084 0,-24.52169 0,-36.78253 9.57877,-1.21544 22.14274,3.65314 28.47094,-5.71219 4.14666,-15.32278 -14.20546,-13.4978 -23.88208,-13.28781 -8.48363,2.03363 -3.07655,-9.82346 -4.58886,-14.76114 1.58347,-4.90197 -3.87901,-16.8499 4.21747,-15.23886 8.29418,0 16.58835,0 24.88253,0 z m 58.43,-20 c -10.97705,0.43014 -22.14544,-0.92918 -32.98234,0.81172 -9.15047,6.77638 -4.33129,19.48096 -5.54766,29.32126 0,29.85567 0,59.71135 0,89.56702 5.64956,21.13805 24.11761,2.44705 19,-11.59804 0,-9.36732 0,-18.73464 0,-28.10196 14.78429,-0.16487 32.86101,2.63183 42.24599,-11.94888 9.24777,-13.54706 7.72197,-31.72702 4.42604,-46.93206 C 409.68308,150.70243 399.12713,140.8958 386.53,141 Z m 9.47,46.65 c 1.41907,13.00595 -11.12023,15.96562 -21.06804,14.35 -9.43547,2.92547 -8.35341,-4.66659 -7.93196,-11.59804 0,-9.80065 0,-19.60131 0,-29.40196 8.17398,1.01636 17.74492,-2.41562 24.76758,2.54602 6.02149,6.61481 3.79191,15.9996 4.23242,24.10398 z M 464.44,141 c -13.20072,-1.2762 -27.893,2.38511 -34.31422,15.27344 -8.45547,16.34308 -4.00031,35.26796 -5.12578,52.94631 0.74347,19.12746 -4.2124,42.27377 13.18359,55.78857 10.4717,7.96076 25.73426,7.42857 37.55328,3.22809 17.67934,-9.10805 17.89822,-30.41207 17.26313,-47.72192 -0.52852,-18.40074 1.23015,-36.98992 -1.24829,-55.23477 C 488.84098,152.66644 478.14113,140.81215 464.44,141 Z m 9.56,95.33 c 1.58257,13.40117 -12.69021,17.54683 -22.73094,13.57734 -9.98836,-8.62849 -5.08342,-23.08752 -6.26906,-34.66469 0.45326,-15.19322 -0.98607,-30.5678 0.87719,-45.62796 2.38216,-10.61068 19.22799,-11.6565 25.25531,-4.26969 5.27548,12.02044 1.91506,25.76308 2.8675,38.60292 0,10.79403 0,21.58805 0,32.38208 z m -325.16,29.39 c 0.0103,-19.16389 -23.82796,-32.11611 -39.79598,-21.3984 -7.92589,4.41901 -12.575665,13.36736 -12.44402,22.1584 -1.72855,18.25079 20.33403,32.48956 36.65,24.29 9.72938,-4.2345 16.00269,-14.61741 15.59,-25.05 z m -19.9,2.37 c -1.32193,8.23906 -14.72991,5.51108 -12.74,-2.59 1.76876,-8.29607 14.36742,-5.75294 12.74,2.59 z M 22.6,256.14 c 155.71667,0 311.43333,0 467.15,0" />
</svg>
