<?xml version="1.0" encoding="UTF-8" standalone="no"?>
<svg
   xmlns:dc="http://purl.org/dc/elements/1.1/"
   xmlns:cc="http://creativecommons.org/ns#"
   xmlns:rdf="http://www.w3.org/1999/02/22-rdf-syntax-ns#"
   xmlns:svg="http://www.w3.org/2000/svg"
   xmlns="http://www.w3.org/2000/svg"
   xmlns:sodipodi="http://sodipodi.sourceforge.net/DTD/sodipodi-0.dtd"
   xmlns:inkscape="http://www.inkscape.org/namespaces/inkscape"
   width="512"
   height="512"
   viewBox="0 0 512 512"
   version="1.1"
   id="svg4"
   sodipodi:docname="isolation or switch.svg"
   inkscape:version="0.92.1 r15371">
  <metadata
     id="metadata10">
    <rdf:RDF>
      <cc:Work
         rdf:about="">
        <dc:format>image/svg+xml</dc:format>
        <dc:type
           rdf:resource="http://purl.org/dc/dcmitype/StillImage" />
      </cc:Work>
    </rdf:RDF>
  </metadata>
  <defs
     id="defs8" />
  <sodipodi:namedview
     pagecolor="#ffffff"
     bordercolor="#666666"
     borderopacity="1"
     objecttolerance="10"
     gridtolerance="10"
     guidetolerance="10"
     inkscape:pageopacity="0"
     inkscape:pageshadow="2"
     inkscape:window-width="640"
     inkscape:window-height="493"
     id="namedview6"
     showgrid="false"
     inkscape:zoom="0.4609375"
     inkscape:cx="256"
     inkscape:cy="256"
     inkscape:window-x="0"
     inkscape:window-y="0"
     inkscape:window-maximized="0"
     inkscape:current-layer="svg4" />
  <path
     id="path2"
     d="m 481.8,242 c -32.93333,0 -65.86667,0 -98.8,0 -0.19762,-52.69832 0.39497,-105.43901 -0.29578,-158.110898 C 378.30147,68.538078 360.30765,74.001464 348.43098,73 241.44895,73.184575 134.42957,72.63086 27.470879,73.276836 12.738252,77.279627 17.952265,94.608722 17,105.90496 17.171959,213.30292 16.656085,320.73305 17.25793,428.1109 20.696561,443.23509 38.203146,438.1146 49.464958,439 156.86418,438.81544 264.30013,439.36913 371.67641,438.72316 387.04558,435.18668 382.24894,417.6032 383,406.09504 383,360.73003 383,315.36501 383,270 c 28.33333,0 56.66667,0 85,0 0.18064,33.87503 -0.36109,67.78538 0.27041,101.63836 3.6535,18.85654 31.94519,9.97191 26.72959,-7.5746 -0.17024,-36.9468 0.34161,-73.9253 -0.25793,-110.85214 C 493.71219,247.06621 488.17301,241.86118 481.8,242 Z M 356,412 c -104,0 -208,0 -312,0 0,-104 0,-208 0,-312 104,0 208,0 312,0 0,104 0,208 0,312 z" />
</svg>
