<?xml version="1.0" encoding="UTF-8" standalone="no"?>
<svg
   xmlns:dc="http://purl.org/dc/elements/1.1/"
   xmlns:cc="http://creativecommons.org/ns#"
   xmlns:rdf="http://www.w3.org/1999/02/22-rdf-syntax-ns#"
   xmlns:svg="http://www.w3.org/2000/svg"
   xmlns="http://www.w3.org/2000/svg"
   xmlns:sodipodi="http://sodipodi.sourceforge.net/DTD/sodipodi-0.dtd"
   xmlns:inkscape="http://www.inkscape.org/namespaces/inkscape"
   width="512"
   height="512"
   viewBox="0 0 512 512"
   version="1.1"
   id="svg6"
   sodipodi:docname="rising busbar.svg"
   inkscape:version="0.92.1 r15371">
  <metadata
     id="metadata12">
    <rdf:RDF>
      <cc:Work
         rdf:about="">
        <dc:format>image/svg+xml</dc:format>
        <dc:type
           rdf:resource="http://purl.org/dc/dcmitype/StillImage" />
      </cc:Work>
    </rdf:RDF>
  </metadata>
  <defs
     id="defs10" />
  <sodipodi:namedview
     pagecolor="#ffffff"
     bordercolor="#666666"
     borderopacity="1"
     objecttolerance="10"
     gridtolerance="10"
     guidetolerance="10"
     inkscape:pageopacity="0"
     inkscape:pageshadow="2"
     inkscape:window-width="640"
     inkscape:window-height="493"
     id="namedview8"
     showgrid="false"
     inkscape:zoom="0.4609375"
     inkscape:cx="256"
     inkscape:cy="256"
     inkscape:window-x="0"
     inkscape:window-y="0"
     inkscape:window-maximized="0"
     inkscape:current-layer="svg6" />
  <path
     id="path4"
     d="m 389.5,354.27 c 14.71095,0.025 15.35852,-16.08742 14.5,-26.97305 -0.1955,-52.63627 0.39174,-105.31189 -0.29492,-157.92347 -3.75648,-19.60527 -33.77296,-11.09112 -28.70508,7.46217 0.19563,55.27652 -0.39191,110.5925 0.29492,165.84427 1.25416,6.60586 7.49985,11.68257 14.20508,11.59008 z m -89,0 c 14.70426,0.0164 15.36085,-16.08697 14.5,-26.97305 -0.1955,-52.63627 0.39174,-105.31189 -0.29492,-157.92347 -3.75648,-19.60527 -33.77296,-11.09112 -28.70508,7.46217 0.19563,55.27652 -0.39191,110.5925 0.29492,165.84427 1.25416,6.60586 7.49985,11.68257 14.20508,11.59008 z m -89.5,0 c 14.80694,0.11138 16.02402,-15.89294 15,-26.97305 -0.20974,-52.63554 0.42028,-105.31634 -0.31641,-157.92347 -4.09774,-19.47872 -34.52309,-11.32556 -29.68359,7.46217 0.20933,55.27582 -0.41937,110.59678 0.31559,165.84427 1.41305,6.68944 7.92583,11.63879 14.68441,11.59008 z m -88.5,0 c 14.71095,0.025 15.35852,-16.08742 14.5,-26.97305 -0.1955,-52.63627 0.39174,-105.31189 -0.29492,-157.92347 -3.75648,-19.60527 -33.77296,-11.09112 -28.70508,7.46217 0.19508,55.27655 -0.39082,110.59233 0.2941,165.84427 1.24899,6.61109 7.49771,11.6864 14.2059,11.59008 z M 479.5,102 c -149,0 -298,0 -447,0 -14.708988,0.0812 -15.350409,16.23274 -14.5,27.15305 0.196195,89.69328 -0.392669,179.42601 0.294922,269.09461 3.436569,15.31132 20.797692,11.23723 32.347696,11.75234 142.952462,0 285.904922,0 428.857382,0 14.70899,-0.0812 15.35041,-16.23274 14.5,-27.15305 -0.19619,-89.69328 0.39267,-179.42601 -0.29492,-269.09461 C 492.45403,107.15542 486.26379,101.89347 479.5,102 Z M 465,381 c -139.33333,0 -278.66667,0 -418,0 0,-83.33333 0,-166.66667 0,-250 139.33333,0 278.66667,0 418,0 0,83.33333 0,166.66667 0,250 z" />
</svg>
