<?xml version="1.0" encoding="UTF-8" standalone="no"?>
<svg
   xmlns:dc="http://purl.org/dc/elements/1.1/"
   xmlns:cc="http://creativecommons.org/ns#"
   xmlns:rdf="http://www.w3.org/1999/02/22-rdf-syntax-ns#"
   xmlns:svg="http://www.w3.org/2000/svg"
   xmlns="http://www.w3.org/2000/svg"
   xmlns:sodipodi="http://sodipodi.sourceforge.net/DTD/sodipodi-0.dtd"
   xmlns:inkscape="http://www.inkscape.org/namespaces/inkscape"
   width="512"
   height="512"
   viewBox="0 0 512 512"
   version="1.1"
   id="svg4"
   sodipodi:docname="shaver socket.svg"
   inkscape:version="0.92.1 r15371">
  <metadata
     id="metadata10">
    <rdf:RDF>
      <cc:Work
         rdf:about="">
        <dc:format>image/svg+xml</dc:format>
        <dc:type
           rdf:resource="http://purl.org/dc/dcmitype/StillImage" />
      </cc:Work>
    </rdf:RDF>
  </metadata>
  <defs
     id="defs8" />
  <sodipodi:namedview
     pagecolor="#ffffff"
     bordercolor="#666666"
     borderopacity="1"
     objecttolerance="10"
     gridtolerance="10"
     guidetolerance="10"
     inkscape:pageopacity="0"
     inkscape:pageshadow="2"
     inkscape:window-width="638"
     inkscape:window-height="493"
     id="namedview6"
     showgrid="false"
     inkscape:zoom="0.4609375"
     inkscape:cx="256"
     inkscape:cy="256"
     inkscape:window-x="0"
     inkscape:window-y="0"
     inkscape:window-maximized="0"
     inkscape:current-layer="svg4" />
  <path
     id="path2"
     d="M 447.94,295.08 C 446.31628,228.46499 407.3757,164.32691 348.6737,132.6528 324.25636,119.15138 296.85767,111.09556 269.02,109.21 c -0.17744,-26.494268 0.35424,-53.024292 -0.26451,-79.496309 -3.72345,-18.033633 -30.80742,-9.331353 -25.73549,7.49251 0,24.021266 0,48.042533 0,72.063799 C 173.42536,113.32129 108.38733,158.753 80.65815,222.71723 56.782292,275.509 58.886514,339.08695 86.19,390.19 c -14.78034,28.21128 -22.783837,60.22334 -21.944199,92.08631 3.802421,18.02518 30.714762,9.344 25.855669,-7.49165 0.612963,-19.93331 4.86778,-40.6469 12.67853,-58.48466 36.39351,48.90274 97.79815,78.84381 158.57,75.96 57.45993,-0.57004 113.66238,-30.06153 147.92,-76.1 8.86795,20.80766 12.5438,43.44069 12.92947,65.94559 4.17743,17.87017 30.78445,8.67716 25.61585,-7.77148 -0.80741,-29.23003 -8.40959,-58.24524 -22.08532,-84.09411 15.47268,-29.12434 22.97188,-62.25022 22.21,-95.16 z m -53.8,97.63 C 359.18861,446.59238 291.0232,475.92172 227.86809,464.29145 182.46091,456.72015 140.87307,429.12909 116.28,390.21 c 33.58306,-53.81539 99.93696,-84.38773 162.66379,-74.90654 47.41628,6.30499 91.27468,34.47678 116.85621,74.87654 -0.55942,0.83833 -1.0887,1.70132 -1.66,2.53 z m 27.72,-86.44 c -0.66011,19.8461 -4.92677,39.66769 -12.54,57.94 C 367.90251,308.01788 294.15395,278.36319 225.36808,290.22364 176.97066,297.85266 132.10683,325.01021 102.78,364.24 77.457359,305.57306 90.854608,233.05571 135.14099,187.07458 c 43.74568,-47.70455 116.64094,-65.09191 177.23655,-42.3732 61.9538,21.42339 107.16588,82.76802 109.38183,148.2738 0.25588,4.42326 0.19742,8.88361 0.10063,13.29482 z" />
</svg>
