<?xml version="1.0" encoding="UTF-8" standalone="no"?>
<svg
   xmlns:dc="http://purl.org/dc/elements/1.1/"
   xmlns:cc="http://creativecommons.org/ns#"
   xmlns:rdf="http://www.w3.org/1999/02/22-rdf-syntax-ns#"
   xmlns:svg="http://www.w3.org/2000/svg"
   xmlns="http://www.w3.org/2000/svg"
   xmlns:sodipodi="http://sodipodi.sourceforge.net/DTD/sodipodi-0.dtd"
   xmlns:inkscape="http://www.inkscape.org/namespaces/inkscape"
   width="512"
   height="512"
   viewBox="0 0 512 512"
   version="1.1"
   id="svg6"
   sodipodi:docname="socket outlet  with lamp.svg"
   inkscape:version="0.92.1 r15371">
  <metadata
     id="metadata12">
    <rdf:RDF>
      <cc:Work
         rdf:about="">
        <dc:format>image/svg+xml</dc:format>
        <dc:type
           rdf:resource="http://purl.org/dc/dcmitype/StillImage" />
      </cc:Work>
    </rdf:RDF>
  </metadata>
  <defs
     id="defs10" />
  <sodipodi:namedview
     pagecolor="#ffffff"
     bordercolor="#666666"
     borderopacity="1"
     objecttolerance="10"
     gridtolerance="10"
     guidetolerance="10"
     inkscape:pageopacity="0"
     inkscape:pageshadow="2"
     inkscape:window-width="640"
     inkscape:window-height="493"
     id="namedview8"
     showgrid="false"
     inkscape:zoom="0.4609375"
     inkscape:cx="256"
     inkscape:cy="256"
     inkscape:window-x="0"
     inkscape:window-y="0"
     inkscape:window-maximized="0"
     inkscape:current-layer="svg6" />
  <path
     id="path4"
     d="m 170.35,265.82 c 1.31979,29.50445 27.29492,55.03256 56.79439,55.97382 9.87081,0.58165 19.93046,-1.64554 28.86561,-5.86382 27.25104,13.95247 63.67331,2.24754 78.06899,-24.67595 15.44061,-26.18702 6.62997,-63.10818 -19.12541,-79.33606 -17.12104,-11.62365 -40.41514,-13.2899 -59.00358,-4.18799 -26.85086,-13.6071 -62.67301,-2.76516 -77.42872,23.48766 -6.16271,10.3074 -9.20259,22.67383 -8.17128,34.60234 z M 274.8,219.04 c 24.71012,-4.81251 50.12597,15.93276 50.38607,41.09988 1.74095,24.92064 -21.54154,47.59959 -46.42453,45.0681 -9.03712,0.84235 -4.30785,-3.26017 -0.58891,-7.43412 17.75307,-22.8269 15.1731,-58.20931 -5.69263,-78.22386 0.74075,-0.22586 1.61531,-0.21746 2.32,-0.51 z m -34.22,29.35 c 2.77756,-8.49276 8.21661,-16.0928 15.42,-21.39 21.00177,14.57025 23.48127,48.02374 4.86182,65.53089 -4.02081,7.17725 -9.1329,1.45428 -12.55973,-3.04461 C 238.90807,278.25746 235.92492,262.253 240.58,248.39 Z m -53.74,10.9 c 0.73645,-25.14574 26.55474,-45.4312 51.16312,-40.13329 2.2977,1.59942 -5.67572,6.84707 -6.73312,10.49329 -15.02284,22.81994 -11.49398,55.60918 8.21,74.58 -24.77665,6.29175 -51.64294,-13.80584 -52.64,-39.35 -0.11199,-1.86496 -0.10313,-3.72479 0,-5.59 z M 485.27,248 c -16.77667,0 -33.55333,0 -50.33,0 -3.19248,-33.32039 -31.66038,-61.74063 -64.94,-65.05 2.57629,-11.58426 -9.57414,-14.36411 -18.5552,-12.95 -66.99827,0 -133.99653,0 -200.9948,0 -11.86759,0.233 -3.9088,16.38194 -16.00515,14.255 -30.12236,6.20621 -54.307003,33.12589 -57.33485,63.725 -17.846263,0.42292 -35.873312,-0.86833 -53.600156,0.68688 -13.9900568,10.96911 4.732752,19.28284 15.346396,16.31312 12.734586,0 25.469173,0 38.20376,0 3.449065,33.15847 31.7495,61.47597 64.96,64.74 -2.33137,11.30645 9.95534,13.50956 18.5552,12.26 66.99827,0 133.99653,0 200.9948,0 11.40616,-0.25364 4.1357,-15.7681 16.01515,-13.565 30.03208,-6.22036 54.11829,-32.97618 57.34485,-63.445 17.83765,-0.42265 35.85589,0.86739 53.57438,-0.68547 C 496.67145,260.86081 494.18795,247.88215 485.27,248 Z M 142,313.06 C 111.83368,309.29793 88.712233,278.47417 93.732581,248.45609 96.752774,223.85315 117.46126,202.95225 142.01,199.61 c -0.007,37.81528 0.0133,75.64162 -0.01,113.45 z M 353,326 c -64.66667,0 -129.33333,0 -194,0 0,-46.66667 0,-93.33333 0,-140 64.66667,0 129.33333,0 194,0 0,46.66667 0,93.33333 0,140 z m 65.8,-66.66 c -0.92501,26.53169 -22.51242,50.24484 -48.81,53.76 0,-37.82333 0,-75.64667 0,-113.47 28.57781,3.75254 50.80594,31.11441 48.81,59.71 z" />
</svg>
