<?xml version="1.0" encoding="UTF-8" standalone="no"?>
<svg
   xmlns:dc="http://purl.org/dc/elements/1.1/"
   xmlns:cc="http://creativecommons.org/ns#"
   xmlns:rdf="http://www.w3.org/1999/02/22-rdf-syntax-ns#"
   xmlns:svg="http://www.w3.org/2000/svg"
   xmlns="http://www.w3.org/2000/svg"
   xmlns:sodipodi="http://sodipodi.sourceforge.net/DTD/sodipodi-0.dtd"
   xmlns:inkscape="http://www.inkscape.org/namespaces/inkscape"
   width="512"
   height="512"
   viewBox="0 0 512 512"
   version="1.1"
   id="svg6"
   sodipodi:docname="socket outlet  bs4343 any types.svg"
   inkscape:version="0.92.1 r15371">
  <metadata
     id="metadata12">
    <rdf:RDF>
      <cc:Work
         rdf:about="">
        <dc:format>image/svg+xml</dc:format>
        <dc:type
           rdf:resource="http://purl.org/dc/dcmitype/StillImage" />
      </cc:Work>
    </rdf:RDF>
  </metadata>
  <defs
     id="defs10" />
  <sodipodi:namedview
     pagecolor="#ffffff"
     bordercolor="#666666"
     borderopacity="1"
     objecttolerance="10"
     gridtolerance="10"
     guidetolerance="10"
     inkscape:pageopacity="0"
     inkscape:pageshadow="2"
     inkscape:window-width="640"
     inkscape:window-height="493"
     id="namedview8"
     showgrid="false"
     inkscape:zoom="0.4609375"
     inkscape:cx="256"
     inkscape:cy="256"
     inkscape:window-x="0"
     inkscape:window-y="0"
     inkscape:window-maximized="0"
     inkscape:current-layer="svg6" />
  <path
     id="path4"
     d="M 420.5,473.46 C 418.15097,408.46756 373.32419,347.7071 311.85664,326.41082 250.70075,303.46992 177.06308,321.95589 133.92909,370.98474 106.7319,400.74812 91.482737,440.87798 91.47,481.15 c 6.370936,26.78489 31.90914,6.02285 26.86419,-12.75451 4.56816,-59.54034 52.17717,-112.18181 110.91444,-122.81648 57.9386,-12.43621 121.42272,17.59305 148.73159,70.14866 10.92567,20.14819 16.51647,43.04612 16.54978,65.94233 3.83363,23.43201 31.83628,10.86856 25.97,-8.21 z m 73.9,0.74 C 492.5932,391.17626 443.70891,311.24259 370.43994,272.07725 339.37382,255.01079 304.41199,245.03283 269.01,243.21 c 0,-70.86333 0,-141.72667 0,-212.59 -7.33988,-27.6414565 -32.81866,-4.044806 -26,14.836107 0,65.921293 0,131.842593 0,197.763893 C 160.09787,247.06041 81.514992,297.9627 44.173937,372.09539 27.037022,405.66525 17.131195,443.64883 18.08,481.32 c 6.589844,26.82401 31.978394,5.34969 26.25,-13.32 4.10049,-78.35349 55.77742,-151.58763 128.18575,-181.77803 72.13301,-31.80736 161.29504,-18.40855 220.90333,33.1783 47.06734,39.53392 75.29911,100.33374 74.94092,161.81973 3.47152,22.34444 31.19397,12.42233 26.04,-7.02 z" />
</svg>
