<?xml version="1.0" encoding="UTF-8" standalone="no"?>
<svg
   xmlns:dc="http://purl.org/dc/elements/1.1/"
   xmlns:cc="http://creativecommons.org/ns#"
   xmlns:rdf="http://www.w3.org/1999/02/22-rdf-syntax-ns#"
   xmlns:svg="http://www.w3.org/2000/svg"
   xmlns="http://www.w3.org/2000/svg"
   xmlns:sodipodi="http://sodipodi.sourceforge.net/DTD/sodipodi-0.dtd"
   xmlns:inkscape="http://www.inkscape.org/namespaces/inkscape"
   width="512"
   height="512"
   viewBox="0 0 512 512"
   version="1.1"
   id="svg6"
   sodipodi:docname="socket outlet  two gang.svg"
   inkscape:version="0.92.1 r15371">
  <metadata
     id="metadata12">
    <rdf:RDF>
      <cc:Work
         rdf:about="">
        <dc:format>image/svg+xml</dc:format>
        <dc:type
           rdf:resource="http://purl.org/dc/dcmitype/StillImage" />
      </cc:Work>
    </rdf:RDF>
  </metadata>
  <defs
     id="defs10" />
  <sodipodi:namedview
     pagecolor="#ffffff"
     bordercolor="#666666"
     borderopacity="1"
     objecttolerance="10"
     gridtolerance="10"
     guidetolerance="10"
     inkscape:pageopacity="0"
     inkscape:pageshadow="2"
     inkscape:window-width="640"
     inkscape:window-height="493"
     id="namedview8"
     showgrid="false"
     inkscape:zoom="0.4609375"
     inkscape:cx="256"
     inkscape:cy="256"
     inkscape:window-x="0"
     inkscape:window-y="0"
     inkscape:window-maximized="0"
     inkscape:current-layer="svg6" />
  <path
     id="path4"
     d="m 294.95,334.9 c 13.92596,-30.78874 -19.54084,-73.15005 -52.93062,-58.66484 -22.46544,4.22185 -42.10732,56.38322 -6.85438,48.49234 3.55759,-16.1238 25.78756,-37.70486 34.97287,-12.35512 5.11788,12.89647 -6.57721,23.96737 -10.305,35.75354 -15.12184,33.16088 -31.26935,65.92137 -45.74209,99.33564 -2.16666,17.21396 17.45535,16.09204 29.06266,15.53844 15.64902,-0.57406 31.52949,1.21261 47.01672,-1.01172 21.31004,-15.10708 -5.13707,-29.5947 -21.2536,-24.98828 -5.63124,-1.79943 -23.14853,3.98675 -19.61678,-3.66045 C 264.49889,400.5197 279.83802,367.75299 294.95,334.9 Z m 198.6,138.5 C 491.75591,392.60035 445.32164,314.76223 375.06,274.82 342.85802,256.11896 306.18401,245.20499 269,243.23 269,172.65333 269,102.07667 269,31.5 261.69998,3.8293277 236.18433,27.406576 243,46.298149 243,111.9421 243,177.58605 243,243.23 161.85824,247.02421 84.857034,295.91432 46.87,367.71 27.951097,402.16372 18.924011,441.52421 18,480.54 c 6.84541,26.76578 32.58383,5.64046 27.06,-13.28 4.129631,-76.65928 53.712909,-148.52163 124.01087,-179.42291 70.46887,-32.6653 158.39192,-21.68598 218.6496,27.32578 49.94551,39.29019 80.11849,102.12011 79.65953,165.65713 3.81776,23.21991 30.97725,12.65878 26.17,-7.42 z" />
</svg>
