<?xml version="1.0" encoding="UTF-8" standalone="no"?>
<svg
   xmlns:dc="http://purl.org/dc/elements/1.1/"
   xmlns:cc="http://creativecommons.org/ns#"
   xmlns:rdf="http://www.w3.org/1999/02/22-rdf-syntax-ns#"
   xmlns:svg="http://www.w3.org/2000/svg"
   xmlns="http://www.w3.org/2000/svg"
   xmlns:sodipodi="http://sodipodi.sourceforge.net/DTD/sodipodi-0.dtd"
   xmlns:inkscape="http://www.inkscape.org/namespaces/inkscape"
   width="512"
   height="512"
   viewBox="0 0 512 512"
   version="1.1"
   id="svg6"
   sodipodi:docname="two gang switched socket.svg"
   inkscape:version="0.92.1 r15371">
  <metadata
     id="metadata12">
    <rdf:RDF>
      <cc:Work
         rdf:about="">
        <dc:format>image/svg+xml</dc:format>
        <dc:type
           rdf:resource="http://purl.org/dc/dcmitype/StillImage" />
      </cc:Work>
    </rdf:RDF>
  </metadata>
  <defs
     id="defs10" />
  <sodipodi:namedview
     pagecolor="#ffffff"
     bordercolor="#666666"
     borderopacity="1"
     objecttolerance="10"
     gridtolerance="10"
     guidetolerance="10"
     inkscape:pageopacity="0"
     inkscape:pageshadow="2"
     inkscape:window-width="638"
     inkscape:window-height="493"
     id="namedview8"
     showgrid="false"
     inkscape:zoom="0.4609375"
     inkscape:cx="256"
     inkscape:cy="256"
     inkscape:window-x="0"
     inkscape:window-y="0"
     inkscape:window-maximized="0"
     inkscape:current-layer="svg6" />
  <path
     id="path4"
     d="m 298.33,318.68 c 0.64981,-27.98095 -28.28681,-56.13172 -56.40953,-43.955 -19.13887,5.8294 -41.86624,44.74362 -13.38824,51.72346 16.08846,-1.20515 20.65536,-44.25988 38.98215,-17.7608 7.8146,12.92308 -4.83849,24.61956 -8.6268,36.55966 -14.8678,32.632 -30.79256,64.84978 -44.99383,97.74299 -2.24562,17.7634 18.05902,16.56871 30.04193,16.02969 15.25513,-0.60923 30.83454,1.29688 45.86245,-1.10469 20.7294,-12.04638 -0.85871,-32.45319 -17.67239,-26.89531 -6.07937,-1.50925 -21.78091,3.11026 -21.47537,-2.46581 15.40459,-34.17621 32.65784,-67.63771 46.85338,-102.28169 0.55892,-2.48869 0.82695,-5.04284 0.82625,-7.5925 z M 483.04,16 C 331.08123,16.189187 179.08439,15.6217 27.149414,16.283613 10.662319,21.370798 17.403589,40.293248 16,53.08805 16.189198,197.33746 15.621684,341.62496 16.283613,485.85059 21.370798,502.33768 40.293248,495.59641 53.08805,497 197.33746,496.8108 341.62496,497.37832 485.85059,496.71639 502.33768,491.6292 495.59641,472.70675 497,459.91195 496.8108,315.66587 497.37832,171.3817 496.71639,27.159414 495.52632,20.794885 489.45377,15.911987 483.04,16 Z M 50.34,365.03 C 46.472291,370.77274 42.503428,385.98033 44,370.93716 44,261.95811 44,152.97905 44,44 c 66,0 132,0 198,0 0,66 0,132 0,198 -56.84155,4.34209 -112.499,28.60516 -152.369925,69.81606 C 74.039665,327.52208 60.89718,345.64963 50.34,365.03 Z M 51,468 c 1.088732,-81.79376 57.73535,-158.6249 134.68735,-185.61754 72.5618,-27.36484 159.61515,-8.46404 214.29143,46.53275 C 437.1515,365.2219 459.56095,416.05836 461.31,467.99 324.54333,467.99667 187.75,467.97667 51,468 Z M 468,379.1 C 439.07653,311.27142 374.0098,260.75532 301.82947,246.64145 294.43404,245.14114 286.95922,244.01174 279.45,243.26 c 18.35,-31.78333 36.7,-63.56667 55.05,-95.35 13.0994,6.51376 24.84598,16.6725 39,20.38 22.47367,-2.38506 12.81275,-28.54143 -3.60308,-32.16345 -13.02091,-6.81461 -25.06135,-15.96945 -38.77879,-21.13171 -15.5933,-0.15766 -18.3256,17.91848 -26.03462,28.08733 C 293.389,163.35478 281.6945,183.62739 270,203.9 c 0,-53.3 0,-106.6 0,-159.9 66,0 132,0 198,0 0,111.7 0,223.4 0,335.1 z" />
</svg>
