<svg xmlns="http://www.w3.org/2000/svg" width="512" height="512"><path d="M490 205.8c-1.26-11.76 3-25.1-3.19-35.56-20.6-12.54-24.4-45.98-44.1-63.6C384.84 32.43 280.98-.69 190.84 26.06 97.67 51.45 25.46 138.22 18.1 234.61 8.64 326.55 58.77 420.58 139.8 464.74c83.63 48.12 195.98 37.84 269.24-25.1a240.29 240.29 0 0 0 69.1-94.91c14.96.47 11.6-16.93 11.85-26.83-.27-20.73 7-40.9 5.33-61.87 0-16.85-1.28-33.9-5.33-50.23zM41 290.42c-4.05-18.4-2.37-60.04 0-64.76v64.76zM256.2 38.66c87.76-1.3 171.96 56.87 202.68 138.92L358 237.78c-.47-21.25.96-42.68-.74-63.81-7.16-10.21-21.54-4.45-32.3-5.97H57.4C90.8 90.29 171.55 37.64 256.2 38.66zM337 189v137H62V189h275zm-80.8 284.9c-82.95 1-163.11-50.58-197.5-125.9h289.25c14.89-2.82 8.76-20.62 10.05-31.43v-42.4l100.9 60.5c-30.85 82.15-114.74 140.5-202.7 139.23zM468 303.94c1.1 18.55-13.75.87-21.9-2L369.67 256l96.06-57.8c4.53 19.96 1.3 40.89 2.27 61.29v44.46zm-445.4-47.8h467.15"/></svg>