<svg xmlns="http://www.w3.org/2000/svg" width="512" height="512"><path d="M277 145.76c-1.36-13.34-16.52-9.04-25.73-9.76H28.76c-13.34 1.36-9.04 16.52-9.76 25.73v202.51c1.36 13.34 16.52 9.04 25.73 9.76h222.51c13.34-1.36 9.04-16.52 9.76-25.73V145.76zM257 356H38V156h219v200zm65.32-166.35c-7.43 16.26 15.95 30.63 13.72 49.3 3.73 25.2-.12 52.81-16.48 73.08.07 24.9 26.92 5.55 28.3-9.3 14.03-35.13 12.82-78.88-9.9-110.14-3.26-5.36-10.8-7.53-15.64-2.94zm54.16-33.21c-9.18 17.05 15.62 32.91 16 51.93 10.71 43.46 7 92.96-19.46 130.22.6 23.32 25.46 7.02 27.2-7.27 22.27-45.81 22.85-101.46 4.06-148.56-6-9.93-12.12-34.24-27.8-26.32zm114.85 70.86c-3.9-31.75-13.44-64.13-34.28-89.04-19.88-12.08-19.19 16-6.42 24.26 26.1 45.33 28.31 101.72 15 151.48-4.84 18.36-13.75 35.4-25.28 50.35 3 28.18 29.06-.6 32.47-14.69 18.3-37.67 23.17-81.08 18.51-122.36zM22.6 256.14h467.15"/></svg>