<svg xmlns="http://www.w3.org/2000/svg" width="512" height="512"><path d="M246.85 254c-16.22.41-32.6-.84-48.72.66-15.56 13.53 8.51 18.95 19.57 16.34 6.45 2 21.33-4.43 21.3 4.05v53.75c-25.77 3.3-55.5 9.64-77.96-6.61-25.37-28.47-28.93-70.9-21.65-107.02 3.6-19.79 18.01-35.54 33.88-46.46 16.62-4.41 35.37-10.34 50.85.46 9.4 9.93 35.87 7.04 20.73-9.12-18.16-9.55-38.16-19.67-59.16-12.28-10.81 3.19-23.5 3.23-30.8 13.26-31.22 22.49-38.89 63.88-35.1 100 2.33 29.39 11.82 62.21 37.26 79.7 28.67 14.87 62.45 8.64 92.98 3.6 10.2-5.33 4.54-19.14 6.02-28.3-.5-19.12 1-38.48-.76-57.47-1.57-3.07-5.13-4.6-8.44-4.56zm35.59 90.08c2.84 11.26 16.68 5.6 24.78 6.85 18.36-.65 36.99 1 55.16-1.2 34.09-16.38 40.75-67.68 11.9-92.29-9.04-7.67-21.58-9.93-7.2-20.02 22.9-30.2 2.9-79.1-34.64-84.43-14.76-1.58-30.1-1.46-44.87-.22-9.62 7.2-4.04 20.93-5.53 31.35.27 53.29-.53 106.85.4 159.96zM299 169c17.2.29 37.07-3.15 49.94 11.5 21.85 19.96 6.78 61.42-22.66 62.5-8.37 2.31-18.3.35-27.28 1v-75zm0 92c14.12.52 28.01-.56 41.9-1.08 31.1 2.67 46.03 45.39 23.41 66.75-8.58 11.3-23.5 5.38-35.57 6.95l-29.74.17V261zm193.13-11.12L262.1 19.86c-11.41-7.72-18.57 8.42-26.55 14.32L19.87 249.88c-7.72 11.42 8.42 18.58 14.32 26.56l215.68 215.7c11.41 7.72 18.56-8.43 26.54-14.32l215.71-215.7c3.37-3.2 3.34-9.06.01-12.24zM256 473.78L38.22 256 256 38.22 473.76 256 256 473.78zM22.6 256.14h467.15"/></svg>