<svg xmlns="http://www.w3.org/2000/svg" width="512" height="512"><path d="M210 172.65c-7.93-21.49-23.05 1.36-18 14.8V341.4c7.9 21.5 23.05-1.33 18-14.79V264h92c.45 26.97-.91 54.1.7 80.96 13.7 16.24 20.19-8.07 17.3-19.7v-152.6c-7.93-21.49-23.05 1.36-18 14.8V246h-92v-73.35zm281.2 76.65L262.45 21c-11.63-8.13-19.1 8.16-27.18 14.25L20.8 249.3c-8.15 11.66 8.15 19.12 14.27 27.2L249.55 491c11.66 8.13 19.1-8.17 27.2-14.28L491.2 262.23c3.58-3.37 3.52-9.6 0-12.93zM256 471.6L40.2 255.8 256 40.38l215.8 215.4L256 471.6zM22.6 256.14h467.15"/></svg>