<svg xmlns="http://www.w3.org/2000/svg" width="512" height="512"><path d="M367.4 323.45c-10.52 4.23-20.6 10.67-32.4 8.55-12.55 2.15-23.35-4.32-34.53-8.93-7.68-6.17-14.5-22.16-26.09-14.4-8.35 11.43 7.79 19.28 13.63 27.56 10.08 6.07 21.63 11.3 33.17 13.76 14.88-.37 30.53 2.32 43.87-5.92 9.66-2.93 18-8.22 22.16-17.75 9.34-10.32 4.7-24.77 5.79-37.35-4.62-11.62-6.2-26.28-16.25-34.39-20.37-8.75-43.02-10.2-63.94-16.58-10.62-6.4-21.07-14.86-22.64-27.98-2.52-9.1 2.53-15.55 9.24-21.09 9.65-5 20.37-11.17 31.75-9.91 10.52-.95 20.56.48 29.89 5.6 12.12 1.25 10.55 20.45 23.61 19.51 15.68-5.71 1.52-20.5-3.34-29.21-7.89-7.07-19.31-8.87-28.76-13.59-16.37.28-33.9-3.35-48.8 5.2-13.65 3.58-23.13 14.38-31.23 25.27-2.36 17.62.52 37.61 14.75 49.73 9.95 9.26 21.85 16.45 35.64 17.7 14.7 3.63 29.96 5.25 44.02 11.08 6.2 12.2 8.18 25.55 7.05 39.1.7 5.35-4.63 9.47-6.59 14.04zM244.5 164.33c-14.38 2.24-8.14 19.24-9.5 29.38V304.4c-27.88-45.78-54.93-92.18-83.33-137.58-6.25-6.63-18.17 1.08-14.67 9.26V336.9c8.08 21.34 23.03-1.52 18-14.92V205.9c27.67 45.85 55 92.15 82.87 137.72 5.66 5.56 14.77.4 15.57-6.53 1.26-26.4.18-54.5.54-81.56-.5-28.54 1.02-57.3-.78-85.69a9.74 9.74 0 0 0-8.7-5.51zm248.63 85.27L262.4 18.87c-11.66-8.05-19.06 8.3-27.17 14.39L18.87 249.6c-8.05 11.67 8.3 19.08 14.39 27.19l216.36 216.35c11.65 8.06 19.06-8.32 27.17-14.4L493.13 262.4a9.1 9.1 0 0 0 0-12.8zM256 474L38.04 256 256 38.03 473.97 256C401.32 328.67 328.63 401.32 256 474z"/></svg>