<svg xmlns="http://www.w3.org/2000/svg" width="512" height="512"><path d="M95.7 209.43c-7.58-15.16-19 .84-19.28 11.13-7.37 25.64-14.68 51.3-22.03 76.93.7 19.83 20.27 6.3 19.24-6.74-.43-9.23 8.2-6.47 14.53-6.75 6.43-.08 14.24-1.99 13.77 7.07-.14 10.92 13.48 26.1 19.48 9.56-5.15-23.21-13.04-45.92-19.27-68.94l-6.44-22.26zM80.37 268l7.32-25.44L95.05 268H80.37zm410.19-19.17c-56.77-33.9-113.19-68.5-170.18-101.97-12.45-2.12-10.44 12.72-10.38 20.68.18 63.9-.36 127.86.27 191.74 4.36 11.92 16.22 2.68 22.97-1.53 52.96-32.04 106.35-63.46 159.04-95.9 3.73-3.66 2.85-10.47-1.72-13.02zM327 342.27V169.74L470.52 256 327 342.27zM70.8 231.63c-1.02-18.8-20.15-30.99-37.77-28.63-10.6-2.61-18.43 6.1-16.04 16.52v80.34c6.12 18.7 21.63.85 17-11.56V265c17.98 2.4 37-11.13 36.86-30.23l-.07-3.14zM41.9 248c-9.4 2.92-8.32-4.66-7.9-11.56 1.57-4.96-3.47-16.53 3.15-16.44 14.82-3.3 23.9 19.04 9.8 26.27-1.56.66-3.26 1.73-5.05 1.73zm138.27-45c-12.07 1.92-7.47 15.99-8.34 24.56l.09 38.8c-11.24-20.07-21.34-40.88-33.29-60.48-13.34-8.26-16.25 9.42-14.63 18.89v75.09c6.12 18.7 21.63.85 17-11.56v-43c11.16 20.07 21.58 40.61 33.2 60.39 12.15 9.02 16.54-8.1 14.51-17.42l-.17-76.52c.04-4.49-3.8-8.8-8.37-8.75zm23.33.78c-12.2 1.55-7.61 15.65-8.5 24.13v71.94c6.1 18.7 21.63.86 17-11.55v-76.14c.1-4.53-4-8.48-8.5-8.38zm72.02 78.97c-11.41-4.12-23.4 19.66-32.82.85-11.27-18.41-9.2-44.88 5.56-60.76 11.34-10.05 26.03 22.14 31-1.37-7-23.92-42.97-22.3-51.26.16-14.32 25.73-13.19 64.08 12.15 82.55 12.36 11.67 49.45-4.62 35.37-21.43z"/></svg>