<svg xmlns="http://www.w3.org/2000/svg" width="512" height="512"><path d="M369.4 135.43c-18.63-6.43-13.82 17.47-.77 21.28 36 31.9 40.8 91.73 10.28 128.93-5.75 10.56-36.8 24.92-14.47 34.11 13.82-5.01 23.52-18.17 32.27-29.62 33.16-46.36 22.58-116.85-22.84-151.33l-2.21-1.7zm122.52 66.42c-7.55-35.67-29.97-69.16-62.12-86.83-23.58 5.7 3.64 22.77 12.3 30.14 40.12 37.54 47.48 103.99 16.31 149.29-7.94 18.62-31.28 26.38-38.47 43.27 13.08 18.73 33.9-12.73 44.5-22.47 25.46-31.3 36.25-73.92 27.48-113.4zM262 125.5c-1.62-12.24-15.84-7.59-24.38-8.5H26.5c-12.24 1.62-7.59 15.84-8.5 24.38V334.5c1.62 12.24 15.84 7.59 24.38 8.5H253.5c12.24-1.62 7.59-15.84 8.5-24.38V125.5zM245 326H35V134h210v192zm72.53-159.75c-18.8-5.25-12.76 18.32.31 21.59 26.4 23.26 23.42 70.04-6.37 89.2-20.26 17.21 13.03 22.5 20.06 5.28 30.46-28.91 27.91-83.08-4.77-109.35a74 74 0 0 0-9.23-6.72z"/></svg>