<svg xmlns="http://www.w3.org/2000/svg" width="512" height="512"><path d="M427 343.46c13.65-1.35 9.28-16.78 10-26.18V176.63c-6.22-21.1-25.28-2.4-20 12.02v145.03c-.1 5.3 4.78 9.93 10 9.78zM259.95 341c17.57-.74 35.5 1.72 52.78-1.75 28.9-11.86 38.52-46.46 40.96-74.87 2.4-34.36-6.06-74.97-37.4-94.14-17.06-8.66-36.68-4.08-55.06-5.24-13.68-.4-11.13 14.94-11.23 24.08v142.6c-.17 5.3 4.86 9.5 9.95 9.32zM269 185c16 1.05 35.26-4.38 46.89 10.06 22.83 28.53 22.98 70.13 10.4 103.1-4.9 13.28-16.38 26.61-31.82 23.84H269V185zM82.1 282.8c4.8 26.26 20.46 56.37 49.82 60.3 21.48 3.47 43.52.67 64.54-3.95 9.05-5.4 4.42-17.62 5.56-26.17-.48-16.8 1-33.79-.8-50.45-6.25-10.55-19.86-5.21-30-6.52-9.29 1.16-21.82-3.66-27.47 6.16-4.22 15.72 14.33 14.18 24.32 13.84 5.46 1.33 17.5-3.9 14.93 5.46v40.58c-20.99 2.83-45.11 7.65-63.52-5.5-21.06-22.55-22.8-56.6-18.74-85.74 1.94-18.1 14.34-32.95 28.54-42.96 14.06-3.4 29.86-8.29 42.85.8 8.37 6.65 27.12 9.96 24.16-6.71-5.5-8.39-16.55-10.64-25.06-15.38-17.24-6.52-35.8-.54-52.72 4.13-16.85 13.6-32.9 30.3-36.29 52.69-4.6 19.26-4.15 40.12-.12 59.42zM485.2 123H27.8c-13.51 1.44-9.03 16.84-9.8 26.18V379.2c1.44 13.51 16.84 9.03 26.18 9.8H485.2c13.51-1.44 9.03-16.84 9.8-26.18V132.8c.14-5.25-4.55-9.94-9.8-9.8zM473 369H37V143h436v226z"/></svg>