<svg xmlns="http://www.w3.org/2000/svg" width="512" height="512"><path d="M236.26 134.9c-15.6 7.15-33.95 10.26-45.08 24.43-7.49 6.45-15.51 13.96-13.18 24.81-1.19 13.23 4.04 26.15 9.94 37.66 10.82 11.9 23.84 22.24 38.59 28.53 25.59 5.85 52 8.58 76.88 17.12 7.32 13.13 11.08 27.97 9.58 43 2.32 9.58-4.28 16.43-9.25 23.78-13.43 4.58-26.12 13.03-40.85 10.76-11.53.12-23.24 1.18-33.6-4.9-9.83-3.21-19.18-7.16-25.62-15.64-7.17-16.22-36.07-9.4-20.26 8.06 9.72 9.19 18.19 20.65 32.02 23.5 11.4 4.47 22.69 9.8 35.25 7.98 15.24-.49 31.15 2.4 45.03-5.45 10.58-4.32 23.4-6.63 28.02-18.53 6.07-7.48 9.78-16.1 8.26-25.87.21-14.45.94-28.94-5.03-42.46-3.69-10.5-8.68-22.9-21.23-24.35-24.57-8.33-51.02-10.23-75.85-17.09-12.4-8.14-27.64-16.28-30.4-32.26-1.67-6.72-4.28-16.87 2.37-21.49 6.74-7.96 14.87-13.78 25.02-16.5a53.73 53.73 0 0 1 31.1-5.99c10.7-.43 21.34-.6 30.85 5.03 7.83 3.32 17.07 4.88 20.28 13.88 4.2 18.4 34.01 13 20.03-5.75-6.29-9.34-11.68-20.48-23.8-22.8-13.5-5.47-26.84-12.6-41.88-10.37-9 .47-18.41-1.03-27.19.91zm254.6 114.06L263.03 21.16c-12.02-8.86-20.02 7.81-28.3 14.26L21.11 248.95c-8.8 12.05 7.8 20.02 14.27 28.3L249 490.86c12.04 8.81 20.01-7.8 28.3-14.27L490.87 263c3.85-3.67 3.85-10.39-.01-14.04zM256 469.78L42.2 255.98 256 42.2 469.8 256 256 469.78z"/></svg>