<svg xmlns="http://www.w3.org/2000/svg" width="512" height="512"><path d="M492.28 276.13c-1.95-12.48-15.11-18.86-22.29-28.32-68.73-70.3-136.97-141.13-206.02-211.08-14.26-8.74-23.5 8.67-32.65 16.7-69.62 71.74-139.8 143-209.07 215.05-6.76 12.63 2.9 27 5.12 39.74 27.04 87.33 106.26 156.43 197.53 167.72 94.11 13.38 192.31-36.85 238.36-119.7 13.92-24.77 24.9-51.93 29.02-80.11zM298.02 443.3c-82.88 19.31-173.47-21.07-218.38-92.55C71.5 334.54 47.77 301.8 57.69 291H459.4c-21.04 75.22-84.26 136.89-161.38 152.3z"/></svg>