<svg xmlns="http://www.w3.org/2000/svg" width="512" height="512"><path d="M432.6 140.05c-20.46-11.35-29.18 22.95-7.84 27.73 43.66 32.04 56.72 97.57 28.6 143.89-9.11 17.17-24.43 29.55-39.4 41.16-11.19 20.74 20.56 27.95 30.18 10.83 48.37-37.8 65.21-109.23 39.02-164.7a137.82 137.82 0 0 0-50.56-58.91zm-15.7 94.08c-4.95-30.86-22.95-59.75-49.24-76.82-20.78-7.53-25.16 23.61-6.42 29.12 34.58 29.37 39.8 85.96 11.03 121.09-12 10.08-39.4 34.65-10.16 42.03 14.94-3.5 24.99-17.66 34.38-29 17.93-24.6 25.47-56.44 20.41-86.42zM253.24 139c-75.27.18-150.58-.37-225.83.28-13.98 3.53-9.76 19.7-10.41 30.4.17 63.7-.34 127.43.26 191.11 2.36 13.73 17.6 11.09 27.81 11.21 70.3-.2 140.64.39 210.91-.3 14.33-3.48 10.54-19.78 11.02-30.74-.19-63.7.38-127.43-.28-191.1-1.23-6.2-7.17-10.96-13.48-10.86zM240 344H44V166h196v178zm114.2-106.3c-5.65-21.54-20.6-45.08-43.18-50.63-23.38 4.61-8.82 28.38 5.19 34.86 21.23 22.4 15.17 62.49-11.63 77.78-20.18 15.31 11.3 36.51 23.3 16.66 22.69-18.66 33.54-50.11 26.32-78.67z"/></svg>