<svg xmlns="http://www.w3.org/2000/svg" width="512" height="512"><path d="M425.5 344.93c13.24-.07 13.12-14.67 12.5-24.29-.17-48.25.34-96.54-.26-144.77-3.5-16.94-29.31-9.15-24.74 6.84.17 50.79-.34 101.6.26 152.37a12.55 12.55 0 0 0 12.24 9.85zM261.75 342c17.64-.73 35.63 1.74 52.96-1.83 29.2-11.33 39.03-45.94 41.74-74.3 2.77-35.24-6.07-77.12-38.43-96.55-17.46-8.76-37.48-4.17-56.26-5.32-13.5-.14-14.81 14.2-13.76 24.34.2 48.24-.42 96.53.31 144.74 1.56 5.75 7.82 8.92 13.44 8.92zM273 189c14.72.85 32.63-4.06 42.63 10.36 21.32 28.29 20.78 68.78 7.23 100.32-4.48 13.3-17.1 20.64-30.53 18.32-6.08-.73-15.07 1.46-19.33-1.09V189zM84.38 282.66c4.84 27.14 21.24 58 51.5 61.89 21.56 2.94 43.76.88 64.78-4.18 9.36-4.55 5.76-15.81 6.34-24-.54-18.14 1.12-36.55-.92-54.5-5.81-10.79-19.62-5.68-29.53-6.88-10.1 1.2-22.73-3.5-30.3 5.2-8.12 12.9 7.68 21.6 18.93 18.8 5.3 1.37 16.12-2.8 17.82 2.17v37.61c-18.18 2.43-38.41 5.76-55.17-3.35-19.22-17.34-22.4-45.96-21.65-70.55.74-19.72 8.92-39.3 25.32-50.95 7.05-4.72 16.77-4.87 25-6.57 14.52-1.76 25.81 15.79 40.15 9.52 13.2-9.14 1.47-23.3-10.06-25.83a58.87 58.87 0 0 0-48.89-5.38c-8.33 1.92-17.46 3-23.12 10.23C94.1 191 83.52 215.76 81.5 240.53c-1.12 14.03-.49 28.47 2.88 42.13zM492 135.35c-.1-13.2-14.73-12.92-24.29-12.35H31.35c-13.2.1-12.92 14.73-12.35 24.29.17 77.28-.33 154.6.25 231.85 3.4 13.6 19.17 9.1 29.47 9.86h430.93c13.2-.1 12.92-14.73 12.35-24.29V135.35zM469 364H44V148h425v216z"/></svg>