<svg xmlns="http://www.w3.org/2000/svg" width="512" height="512"><path d="M374.3 139.27c13.71-3.78 21.39-17.84 32.06-26.7 7.5-9.58 23.25-16.63 19.63-30.82-10.2-18.1-25.85-.38-34.53 9.08-9.57 10.33-20.87 19.23-29.17 30.6-3.61 8.2 3.11 18.08 12.01 17.84zM113.86 359.6c-13.89 14.76-29.71 27.93-42.3 43.76-4.2 25.61 24.53 17.13 32.63 2.56 10.1-10.9 22.01-20.3 30.83-32.26 5.47-12.78-11.57-24-21.16-14.06zM403 250.24c-.6-48.67-26.78-97.76-69.15-123.5-55.8-36.71-135.48-26.51-181.59 21.3-48.46 46.92-56.3 128.56-17.1 183.6 37.81 57.92 118.89 81.07 181.46 51.4 51.49-22.69 87.04-76.35 86.38-132.8zM136.68 263h238.67c-5.35 61.14-63.86 111.1-125.11 106.7-57.51-1.85-108.17-49.37-113.56-106.7zM255 99.6c17.41-1.6 12.2-21.21 13-33.21-.53-13.7 1.15-27.6-1.03-41.13C251.82 4.18 237.4 30.42 242 46.5c.54 15.04-1.18 30.3 1.03 45.18A13.1 13.1 0 0 0 255 99.6zM481.57 237c-20.43.6-41.1-1.25-61.36 1.03-21.09 15.15 5.15 29.58 21.23 24.97 15.03-.55 30.3 1.18 45.17-1.03 12.86-4.93 8.76-25.42-5.04-24.97zM255 412.15c-17.4 1.6-12.2 21.2-13 33.2.52 13.78-1.13 27.77 1.03 41.39 15.16 21.08 29.57-5.17 24.97-21.25-.54-15.12 1.16-30.48-1.03-45.44-1.94-4.7-6.88-8-11.97-7.9zM99.73 250c-1.6-17.41-21.2-12.2-33.2-13-13.7.52-27.62-1.15-41.15 1.03C4.3 253.18 30.54 267.6 46.62 263c15.04-.54 30.32 1.17 45.2-1.03A13.06 13.06 0 0 0 99.73 250zM377.8 376.5c-24.66-14.04-25.8 20.42-7.7 28.82 11.27 10.43 21.09 22.65 33.4 31.79 25.66 4.16 17.12-24.56 2.5-32.6l-28.2-28.01zM128.27 135.44c24.58 14.22 25.94-20.25 7.9-28.77-11.21-10.5-20.95-22.81-33.22-32.03-25.6-4.28-17.24 24.46-2.69 32.61 9.34 9.4 18.66 18.82 28.01 28.19z"/></svg>