<svg xmlns="http://www.w3.org/2000/svg" width="512" height="512"><path d="M329.57 18H34.7c-18.99.15-15.76 19.8-15.7 32.65.2 94.06-.4 188.16.3 282.2 3.26 17.25 22.86 12.53 35.56 13.15 92.72-.22 185.47.44 278.15-.33 17.5-4.24 12.16-24.42 12.99-37.68-.18-92.25.37-184.54-.28-276.77-1.34-7.54-8.46-13.42-16.15-13.22zM52 312V74.37L289.52 312H52zM403.3 52c25.68-.23 51.4.46 77.06-.35C502.8 47 493.1 12.25 471.64 18c-23.9.23-47.84-.46-71.7.35-19.23 4.15-16.46 33.48 3.36 33.65zm73.7 64c-25.68.23-51.4-.46-77.05.35-22.43 4.65-12.74 39.4 8.73 33.65 23.88-.23 47.82.46 71.68-.35 19.25-4.14 16.47-33.48-3.36-33.65zm0 98c-25.68.23-51.4-.46-77.05.35-22.43 4.65-12.74 39.4 8.73 33.65 23.88-.23 47.82.46 71.68-.35 19.25-4.14 16.47-33.48-3.36-33.65zm0 98c-25.68.23-51.4-.46-77.05.35-22.43 4.65-12.74 39.4 8.73 33.65 23.88-.23 47.82.46 71.68-.35 19.25-4.14 16.47-33.48-3.36-33.65zm-147.5 74.62c-17.08.04-17.4 18.85-16.5 31.39.73 21.76-1.53 43.9 1.29 65.4 8.51 20.27 37.66 6.24 31.71-13.18-.21-23.44.43-46.93-.33-70.35-1.4-7.55-8.5-13.38-16.17-13.26zm-294 0c-17.08.04-17.4 18.85-16.5 31.39.73 21.76-1.53 43.9 1.29 65.4 8.51 20.27 37.66 6.24 31.71-13.18-.21-23.44.43-46.93-.33-70.35-1.4-7.55-8.5-13.38-16.17-13.26zm98 0c-17.08.04-17.4 18.85-16.5 31.39.73 21.76-1.53 43.9 1.29 65.4 8.51 20.27 37.66 6.24 31.71-13.18-.21-23.44.43-46.93-.33-70.35-1.4-7.55-8.5-13.38-16.17-13.26zm98 0c-17.08.04-17.4 18.85-16.5 31.39.73 21.76-1.53 43.9 1.29 65.4 8.51 20.27 37.66 6.24 31.71-13.18-.21-23.44.43-46.93-.33-70.35-1.4-7.55-8.5-13.38-16.17-13.26z"/></svg>