<svg xmlns="http://www.w3.org/2000/svg" width="512" height="512"><path d="M415.1 265.8c8.14-7.93 2.27-19.93-5.78-25.4-48.8-48.61-97.11-97.77-146.22-146.05-14.34-8.39-23.45 9.18-32.87 17-45.39 45.57-91.19 90.76-136.31 136.58-5.87 8.68-1.19 16.94 6.26 22.7 49.24 48.88 97.97 98.3 147.52 146.83 15.16 8.06 23.75-9.99 33.74-18 44.54-44.55 89.16-89.14 133.66-133.66zM255.33 386.15L138.96 270H371.5c-38.72 38.7-77.44 77.48-116.17 116.15zM292.86 82.6c13.13-2.52 19.97-16.08 29.88-24.1 7.87-10.16 24.72-17.46 20.57-32.59-8.05-16.82-25.66-4.55-33.28 5.88-9.83 10.7-21.69 19.82-30.1 31.63-3.9 8.88 3.36 19.49 12.93 19.18zm40.19 45.72c12.66 11.38 23.7-4.19 32.09-12.5 9.12-10.05 20.25-18.55 27.95-29.7 6.1-23.1-23.5-22.2-31.39-6.42-10.37 11.34-22.81 21.09-31.75 33.53a14 14 0 0 0 3.1 15.09zm49.75 49.98c12.6 11.47 23.68-4.15 32.1-12.4 9.2-10.05 20.4-18.56 28.19-29.71 6.17-23.08-23.42-22.28-31.36-6.53-10.46 11.34-22.96 21.1-32.01 33.55a13.92 13.92 0 0 0 3.08 15.09zm50 50.03c12.62 11.46 23.7-4.14 32.12-12.4 9.2-10.05 20.41-18.56 28.19-29.72 6.18-23.08-23.43-22.27-31.36-6.52-10.46 11.35-22.97 21.1-32 33.55a14 14 0 0 0 3.05 15.09zm19.72 55.34c-20.34-15.78-32.02 17.29-13.04 26.38 11.99 11.08 22.37 24.25 35.47 33.91 23.07 6.15 22.25-23.44 6.5-31.36-9.64-9.64-19.33-19.29-28.93-28.93zM302.7 433.47c-20.35-15.77-31.99 17.32-13.02 26.4 11.99 11.08 22.38 24.22 35.46 33.9 23.08 6.16 22.27-23.44 6.52-31.36-9.66-9.64-19.3-19.33-28.96-28.94zm50.07-49.99c-20.3-15.85-32.08 17.2-13.13 26.35 11.92 11.08 22.2 24.27 35.23 33.92 23.04 6.2 22.32-23.36 6.6-31.34-9.56-9.65-19.18-19.28-28.7-28.93zm49.7-49.83c-20.4-15.7-31.96 17.4-12.95 26.42 11.98 11 22.35 24.07 35.42 33.65 23.14 6.14 22.24-23.49 6.43-31.37-9.63-9.57-19.3-19.15-28.9-28.7zm-192.93 99.82c-13.3 14.23-28.71 26.8-40.59 42.13-6.15 23.1 23.42 22.27 31.37 6.52 10.45-11.34 22.98-21.08 32-33.54 6-13.8-12.48-25.83-22.78-15.11zm-30.34-50.03c-12.62-11.43-23.69 4.14-32.1 12.4-9.2 10.06-20.38 18.59-28.17 29.74-6.15 23.1 23.43 22.26 31.36 6.5 10.46-11.34 22.95-21.1 31.99-33.54 2.14-5.07.83-11.3-3.08-15.1zm-49.98-49.72c-12.58-11.49-23.7 4.06-32.14 12.29-9.2 9.98-20.38 18.42-28.16 29.5-6.25 23.07 23.35 22.35 31.33 6.62 10.44-11.27 22.95-20.93 31.97-33.31a14 14 0 0 0-3-15.1zm-50.05-50.05c-12.62-11.44-23.7 4.14-32.12 12.4-9.2 10.05-20.4 18.56-28.16 29.72-6.17 23.11 23.44 22.26 31.37 6.5 10.45-11.33 22.96-21.08 31.98-33.52 2.14-5.07.84-11.3-3.07-15.1zm-19.72-55.34c20.34 15.8 32.04-17.28 13.05-26.38-11.98-11.08-22.34-24.25-35.43-33.9-23.1-6.18-22.28 23.43-6.53 31.36l28.91 28.92zm150.09-149.8c20.35 15.77 32.01-17.29 13.04-26.38-11.99-11.09-22.37-24.25-35.46-33.92-23.1-6.17-22.25 23.42-6.5 31.36 9.63 9.64 19.31 19.3 28.92 28.94zM159.5 128.3c20.37 15.74 32-17.32 13.03-26.4-11.97-11.1-22.34-24.25-35.42-33.91-23.09-6.17-22.26 23.41-6.52 31.35 9.63 9.65 19.33 19.3 28.91 28.96zm-50.03 50c20.34 15.8 32.02-17.29 13.04-26.38-11.98-11.08-22.34-24.25-35.44-33.9-23.09-6.17-22.27 23.43-6.52 31.36l28.92 28.92z"/></svg>