<svg xmlns="http://www.w3.org/2000/svg" width="512" height="512"><path d="M265.84 127.73c19.46 13.25 40.05-8.6 52.57-22.1 13.8-17.7 24.64-37.56 37.13-56.22 9.3-23.8-20.87-23.08-30.88-8.76-24.95 20.36-57.93 37.87-64.31 72.25-.47 5.42 1.36 11.17 5.49 14.83zm178.28-23.45c15.58-18.2 26.64-39.75 40.08-59.54 9.3-23.82-20.89-23.1-30.89-8.76-24.34 19.7-55.03 36.72-63.94 68.94-5.32 26.61 29.89 27.45 42.3 11.08a115.8 115.8 0 0 0 12.45-11.72zm45.36 52.2c-13.4-10-24.37 6.49-34.99 12.95-23.1 17.64-50.08 35.27-57.92 65.08-4.68 25.65 29.33 26.4 41.5 10.89 24-18.94 36.63-47.33 53.63-71.96 3.5-5.24 2.43-12.78-2.22-16.96zM384.38 303.7c-2.3-11.6-14.81-17.46-21.68-26.34L210.74 125.4c-13.45-11.33-23.85 6.04-32.89 14.08C125.52 192 72.77 244.14 20.7 296.9c-7.52 10.27 3.65 20.05 10.81 26.48l160.41 160.41c13.44 11.36 23.85-6.05 32.89-14.09 52.44-52.76 105.57-104.93 157.59-158.06a13.13 13.13 0 0 0 1.98-7.94zM201.32 455.75L63.58 318h275.48c-45.91 45.92-91.84 91.83-137.74 137.75z"/></svg>