<svg xmlns="http://www.w3.org/2000/svg" width="512" height="512"><path d="M381.17 328.84c-37.96 22.81-92.17 7.55-112.73-31.65-12.67-20.3-38.46 6.84-20.3 20.91 29.98 47.66 98.48 64.31 146.89 35.37 48.88-26 70.57-91.13 47.52-141.37-20.95-51.34-83.72-79.19-136-61.29-26.56 8.76-51.48 27.55-63.12 53.28-.73 24.32 29.36 16.73 33.95-1.25 28.86-35.56 87.53-38.88 120.17-6.64 35.5 31.47 33.95 93-2.63 123a81.35 81.35 0 0 1-13.75 9.64zM210.8 311c11.15 2.12 24.73-4.16 22.2-17.5-.18-27.57.36-55.19-.27-82.75-2.49-14.13-22.76-14.9-31.76-7.36-7.08 10.35-2.8 23.79-3.98 35.64.18 20.26-.36 40.55.27 60.78 1.12 6.38 7.05 11.34 13.54 11.19zm-46.62 0c11.17 2.02 25.23-4 22.82-17.5-.2-27.57.4-55.2-.3-82.75-3-14.08-23.25-14.9-32.53-7.36-7.4 10.22-2.96 23.79-4.17 35.64.2 20.25-.38 40.55.29 60.78 1.23 6.42 7.38 11.3 13.89 11.19zm-46.62 0c11.15 2.08 24.93-4.1 22.44-17.5-.19-27.57.37-55.2-.28-82.75-2.76-14.26-23.1-14.78-32.37-7.36-7.69 10.1-3.1 23.78-4.35 35.64.2 20.25-.4 40.55.3 60.78 1.36 6.49 7.7 11.27 14.26 11.19zm-46.62 0c11.18 1.99 25.43-3.95 23.06-17.5-.2-27.57.4-55.2-.3-82.75-3.16-13.98-23.36-14.98-32.66-7.37-7.19 10.31-2.85 23.8-4.04 35.65.18 20.26-.37 40.55.28 60.78A13.91 13.91 0 0 0 70.94 311zM480.6 94H31.4c-14.68-.3-15.29 15.62-14.4 26.37.2 95.6-.4 191.22.3 286.79 4.3 15.1 22.02 9.91 33.73 10.84H480.6c14.68.3 15.29-15.62 14.4-26.37-.2-95.6.4-191.22-.3-286.79-1.29-6.44-7.67-10.96-14.1-10.84zM466 390H46V122h420v268z"/></svg>