<svg xmlns="http://www.w3.org/2000/svg" width="512" height="512"><path d="M480.4 97H31.6c-14.12-.17-14.38 15.21-13.6 25.5.2 94.07-.38 188.19.29 282.24 4.32 14.53 21.45 9.28 32.77 10.26H480.4c14.11.16 14.39-15.21 13.6-25.5-.2-94.07.38-188.19-.29-282.24-1.27-6.04-7.25-10.34-13.31-10.26zM108 389H45V123h63v29c-10.72.83-22.2-2-32.28 2.17-9.58 7.94-4.39 21.67-5.72 32.5.17 54.25-.35 108.53.26 162.76 3.46 14.5 20.19 9.8 31.09 10.57 10.31-3.13 5.68 8.68 6.65 14.88V389zm309-211v156H96V178h321zm52 211h-65v-29c11.22-.86 23.22 2.08 33.77-2.27 10.22-7.7 4.9-21.77 6.23-32.71-.2-54.24.4-108.53-.3-162.74-4.46-14.5-21.57-9.32-32.96-10.28-10.36 3.15-5.8-8.61-6.74-14.88.77-6.23-3.43-17.42 6.87-14.12H469v266z"/></svg>