<svg xmlns="http://www.w3.org/2000/svg" width="512" height="512"><path d="M297.84 253.73c-4.44-10.19-14.92-16.4-22.02-24.8-37.34-37.03-74.2-74.6-111.83-111.3-12.47-6.5-20.03 7.92-28.1 14.72-39 38.99-78.13 77.85-117.04 116.92-6.46 8.77 2.84 17.34 9.1 22.82 41.08 40.7 81.69 81.93 123.06 122.29 12.47 6.5 20-7.94 28.07-14.74 39.05-39.32 78.68-78.16 117.36-117.78a12.2 12.2 0 0 0 1.4-8.13zM157.48 368.9L56.58 268h201.6c-33.57 33.63-67.12 67.3-100.7 100.9zm162.66-207.13c22.34-14.97 54.13-8.4 70.64 12.22 26.78 25.54 72.86 29.7 102.28 6.72 9.78-18.88-16.46-22.6-26.98-11.58-23.46 8.57-50.73-.18-66.44-19.18-25.22-23.56-68.59-27.21-95.4-4.69-7.37 10.1 5.5 23.48 15.9 16.51zm157.49 68.33c-24.87 15.79-59.67 8.94-77.97-13.77-25.23-23.5-68.46-27.08-95.37-4.8-9.33 18.4 16.08 22.54 26.38 11.5 21.21-7.92 45.92.1 60.1 17.31 26.8 25.53 72.89 29.7 102.3 6.7 7.63-9.9-4.87-23.6-15.44-16.94zm-.06 65.72c-24.83 15.95-59.65 8.87-77.91-13.82-25.23-23.5-68.47-27.06-95.37-4.79-9.33 18.4 16.08 22.53 26.37 11.5 21.23-7.94 45.92.11 60.13 17.32 26.76 25.58 72.99 29.9 102.3 6.63 7.58-9.95-5-23.57-15.52-16.84zm0 65.68c-24.83 15.95-59.65 8.86-77.92-13.82-25.23-23.48-68.46-27.07-95.36-4.8-9.33 18.4 16.06 22.56 26.36 11.52 21.23-7.94 45.93.11 60.14 17.32 26.77 25.58 72.99 29.88 102.31 6.63 7.58-9.93-5-23.6-15.53-16.85z"/></svg>