<?xml version="1.0" encoding="UTF-8" standalone="no"?>
<svg
   xmlns:dc="http://purl.org/dc/elements/1.1/"
   xmlns:cc="http://creativecommons.org/ns#"
   xmlns:rdf="http://www.w3.org/1999/02/22-rdf-syntax-ns#"
   xmlns:svg="http://www.w3.org/2000/svg"
   xmlns="http://www.w3.org/2000/svg"
   xmlns:sodipodi="http://sodipodi.sourceforge.net/DTD/sodipodi-0.dtd"
   xmlns:inkscape="http://www.inkscape.org/namespaces/inkscape"
   width="512"
   height="512"
   viewBox="0 0 512 512"
   version="1.1"
   id="svg6"
   sodipodi:docname="racks or data cabinets.svg"
   inkscape:version="0.92.1 r15371">
  <metadata
     id="metadata12">
    <rdf:RDF>
      <cc:Work
         rdf:about="">
        <dc:format>image/svg+xml</dc:format>
        <dc:type
           rdf:resource="http://purl.org/dc/dcmitype/StillImage" />
      </cc:Work>
    </rdf:RDF>
  </metadata>
  <defs
     id="defs10" />
  <sodipodi:namedview
     pagecolor="#ffffff"
     bordercolor="#666666"
     borderopacity="1"
     objecttolerance="10"
     gridtolerance="10"
     guidetolerance="10"
     inkscape:pageopacity="0"
     inkscape:pageshadow="2"
     inkscape:window-width="640"
     inkscape:window-height="493"
     id="namedview8"
     showgrid="false"
     inkscape:zoom="0.4609375"
     inkscape:cx="256"
     inkscape:cy="256"
     inkscape:window-x="0"
     inkscape:window-y="0"
     inkscape:window-maximized="0"
     inkscape:current-layer="svg6" />
  <path
     d="m 80,332.32 c 13.874051,-0.11132 13.601306,-15.49624 13,-25.55701 0,-10.58766 0,-21.17533 0,-31.76299 16.36204,-0.2357 35.64959,2.78872 47.22375,-11.90625 13.57735,-15.02635 11.74774,-37.0529 9.11241,-55.58724 C 144.99787,188.38232 125.98712,175.30232 106.69736,178 95.54685,178.89412 83.545893,175.84016 73.124023,180.36092 62.971238,188.57382 68.366157,202.88706 67,214.19183 c 0.174732,35.89769 -0.350004,71.83033 0.263281,107.7061 C 68.368676,327.81582 73.967269,332.43192 80,332.32 Z M 93,204 c 8.90733,1.07317 19.1882,-2.56716 26.92871,2.70844 7.51228,9.20792 5.16516,22.43768 4.09395,33.38578 C 119.87643,253.37154 104.5141,247.84887 94.200351,249 91.284052,245.07833 93.883054,235.64136 93,229.68644 93,221.1243 93,212.56215 93,204 Z m 75.1,127.88 c 13.44471,3.54137 17.20881,-11.3479 19.2117,-21.24192 2.37776,-5.98962 1.07664,-16.77251 10.46485,-13.62808 7.44782,0 14.89563,0 22.34345,0 3.89253,10.88018 3.90228,23.79369 11.605,32.735 15.67371,10.23468 25.73925,-10.30521 18.1707,-22.61619 -10.59287,-39.6709 -21.17038,-79.3459 -31.7557,-119.01881 -8.76459,-20.54016 -28.6985,-3.58301 -28.44001,12.07505 -10.33908,39.46404 -21.37743,78.77919 -31.27872,118.33645 -0.43657,6.02705 3.82098,11.92559 9.67873,13.3585 z m 37.43,-89.43 c 2.54,9.51667 5.08,19.03333 7.62,28.55 -5.24279,-1.3277 -19.02947,3.91166 -13.76875,-5.48929 2.05197,-7.68377 4.08442,-15.39302 6.14875,-23.06071 z M 273.68,332 c 20.03452,-0.8168 43.94179,4.54051 58.27625,-13.66625 17.00086,-19.8985 16.20931,-53.04715 -2.27625,-71.77375 18.49891,-23.67319 5.03182,-67.85934 -27.58,-68.56 -11.80434,0.96189 -24.54538,-2.26466 -35.57609,2.36092 -9.28743,8.65616 -4.17914,22.56321 -5.50391,33.83091 0.16536,35.89354 -0.33122,71.81854 0.24912,107.69235 C 262.25718,327.75116 267.835,332.16555 273.68,332 Z M 287,204 c 8.0297,0.76038 19.50082,-3.24352 22.9085,7.0791 6.42529,12.16924 -2.46917,29.08987 -16.88723,24.9209 -9.92252,2.99237 -4.80322,-9.05709 -6.02127,-14.76919 0,-5.7436 0,-11.48721 0,-17.23081 z m 0,58 c 10.02876,0.47467 23.43828,-2.9869 28.32268,8.98486 7.18952,13.41138 0.66704,38.11845 -17.77314,35.01514 -8.8675,1.94272 -12.71494,-1.13464 -10.54954,-10.22482 0,-11.2584 0,-22.51679 0,-33.77518 z m 71.45,68.78 c 12.2996,6.4694 19.35394,-7.20853 23.55108,-16.3967 5.55631,-10.41777 11.11261,-20.83553 16.66892,-31.2533 8.3595,14.99831 15.62816,30.67994 24.69625,45.23437 14.37892,13.52152 30.19763,-9.40111 17.68596,-21.24897 -9.1974,-17.24514 -18.39481,-34.49027 -27.59221,-51.7354 10.52521,-20.10262 21.67956,-39.90908 31.80668,-60.1991 5.28759,-17.49999 -22.58956,-22.98063 -26.19521,-5.83116 -6.80715,12.76342 -13.61431,25.52684 -20.42147,38.29026 -8.83968,-15.27663 -15.62131,-32.00965 -25.84953,-46.30609 -13.71979,-10.96547 -28.6027,9.98821 -17.07731,21.30826 9.37561,17.57928 18.75123,35.15855 28.12684,52.73783 -10.52566,20.10133 -21.67672,39.90808 -31.80668,60.1958 -1.80874,5.7694 0.99536,12.50731 6.40668,15.2042 z M 481.27,101 c -150.18,0 -300.36,0 -450.54,0 -13.799187,0.31627 -13.229594,15.78809 -12.73,25.79701 0.167434,91.17658 -0.334922,182.38498 0.25127,273.54166 3.187701,14.54215 19.853108,9.92051 30.656196,10.66133 144.120844,0 288.241694,0 432.362534,0 13.79919,-0.31627 13.22959,-15.78809 12.73,-25.79701 -0.16743,-91.17658 0.33492,-182.38498 -0.25127,-273.54166 C 492.72767,105.77243 487.35366,100.87543 481.27,101 Z M 470,383 c -142,0 -284,0 -426,0 0,-85.33333 0,-170.66667 0,-256 142,0 284,0 426,0 0,85.33333 0,170.66667 0,256 z"
     id="path4"
     inkscape:connector-curvature="0" />
</svg>
