<?xml version="1.0" encoding="UTF-8" standalone="no"?>
<svg
   xmlns:dc="http://purl.org/dc/elements/1.1/"
   xmlns:cc="http://creativecommons.org/ns#"
   xmlns:rdf="http://www.w3.org/1999/02/22-rdf-syntax-ns#"
   xmlns:svg="http://www.w3.org/2000/svg"
   xmlns="http://www.w3.org/2000/svg"
   xmlns:sodipodi="http://sodipodi.sourceforge.net/DTD/sodipodi-0.dtd"
   xmlns:inkscape="http://www.inkscape.org/namespaces/inkscape"
   width="512"
   height="512"
   viewBox="0 0 512 512"
   version="1.1"
   id="svg6"
   sodipodi:docname="racks or data cabinets2.svg"
   inkscape:version="0.92.1 r15371">
  <metadata
     id="metadata12">
    <rdf:RDF>
      <cc:Work
         rdf:about="">
        <dc:format>image/svg+xml</dc:format>
        <dc:type
           rdf:resource="http://purl.org/dc/dcmitype/StillImage" />
      </cc:Work>
    </rdf:RDF>
  </metadata>
  <defs
     id="defs10" />
  <sodipodi:namedview
     pagecolor="#ffffff"
     bordercolor="#666666"
     borderopacity="1"
     objecttolerance="10"
     gridtolerance="10"
     guidetolerance="10"
     inkscape:pageopacity="0"
     inkscape:pageshadow="2"
     inkscape:window-width="640"
     inkscape:window-height="493"
     id="namedview8"
     showgrid="false"
     inkscape:zoom="0.4609375"
     inkscape:cx="256"
     inkscape:cy="256"
     inkscape:window-x="0"
     inkscape:window-y="0"
     inkscape:window-maximized="0"
     inkscape:current-layer="svg6" />
  <path
     d="m 73.77,333 c 15.911765,-1.0184 32.66452,2.68093 47.75813,-3.38938 19.78668,-10.02173 22.67474,-33.55457 21.48187,-53.39384 -0.67501,-22.7873 1.56676,-45.82435 -1.57913,-68.40536 C 137.50293,188.86321 119.08889,175.17731 99.876729,178 c -11.006402,1.02789 -23.06037,-2.41919 -33.207784,2.49697 -9.45439,8.64261 -4.371347,22.56511 -5.668945,33.86952 0.174081,35.84853 -0.348928,71.7324 0.262832,107.55874 C 62.426465,327.75942 67.602047,333.00351 73.77,333 Z M 86,204 c 8.935578,1.1439 19.39075,-2.64722 27.12354,2.64199 8.28401,11.36993 3.66509,26.36042 4.87646,39.52447 -0.48731,17.05451 1.05278,34.29479 -0.92297,51.21479 C 113.90513,311.04802 98.629818,306.10409 88.533486,307 82.794958,305.84964 87.556048,294.19965 86,288.86681 86,260.57787 86,232.28894 86,204 Z m 75.3,127.54 c 15.03923,3.12621 16.61077,-14.24041 19.4994,-24.5511 0.92132,-7.64553 3.03309,-13.74563 11.96719,-10.9889 6.89114,0 13.78227,0 20.67341,0 3.80404,10.77451 3.93855,23.37121 10.84971,32.64193 12.65585,10.73556 26.54021,-7.05564 18.74708,-19.18198 C 232.27119,269.11664 221.5056,228.77332 210.74,188.43 c -8.69386,-20.03828 -27.87037,-3.12577 -27.60979,12.06627 -10.31414,39.39264 -21.31648,78.63681 -31.20929,118.11973 -0.43054,5.83404 3.68184,11.56302 9.37908,12.924 z m 37.26,-91.06 c 2.71333,10.17333 5.42667,20.34667 8.14,30.52 -4.79042,-1.64969 -19.13294,4.03898 -15.11176,-4.38018 2.32392,-8.71328 4.64784,-17.42655 6.97176,-26.13982 z M 266.6,204 c 7.13333,0 14.26667,0 21.4,0 0.16626,39.29055 -0.33334,78.6139 0.25123,117.88385 3.43532,17.45597 29.6004,9.16078 24.74877,-7.07715 0,-36.93556 0,-73.87113 0,-110.8067 10.72507,-1.34964 24.39436,3.9257 32.13158,-5.81934 8.25813,-13.28746 -7.5648,-23.26411 -19.54817,-20.18066 -20.50418,0.1827 -41.0474,-0.36497 -61.52726,0.27271 C 249.45783,181.24242 251.60378,204.02483 266.6,204 Z m 98.85,127.54 c 15.04927,3.13926 16.61906,-14.23689 19.5094,-24.5511 0.92132,-7.64553 3.03309,-13.74563 11.96719,-10.9889 6.89447,0 13.78894,0 20.68341,0 3.80582,10.77591 3.93669,23.37829 10.85551,32.64633 12.65949,10.72654 26.55723,-7.05242 18.76128,-19.18638 C 436.46119,269.11664 425.6956,228.77332 414.93,188.43 c -8.6792,-20.03913 -27.87281,-3.12171 -27.60888,12.06651 -10.31747,39.3908 -21.2985,78.63987 -31.2002,118.11949 -0.45662,5.83766 3.74903,11.5718 9.32908,12.924 z m 37.27,-91.06 c 2.71333,10.17333 5.42667,20.34667 8.14,30.52 -4.79042,-1.64969 -19.13294,4.03898 -15.11176,-4.38018 2.32392,-8.71328 4.64784,-17.42655 6.97176,-26.13982 z M 480.07,101 c -149.87333,0 -299.74667,0 -449.62,0 -13.56705,0.43382 -12.921796,15.67696 -12.45,25.53657 0.165906,90.99413 -0.331912,182.02047 0.249082,272.99447 3.219998,14.34243 19.65804,9.71669 30.334108,10.46896 143.82894,0 287.65787,0 431.48681,0 13.69586,-0.29919 13.56789,-15.46592 12.93,-25.49657 -0.17964,-90.99498 0.35939,-182.02763 -0.26971,-272.99906 C 491.53714,105.68465 486.07891,100.95704 480.07,101 Z M 467,384 c -141.33333,0 -282.66667,0 -424,0 0,-85.66667 0,-171.33333 0,-257 141.33333,0 282.66667,0 424,0 0,85.66667 0,171.33333 0,257 z"
     id="path4"
     inkscape:connector-curvature="0" />
</svg>
