<?xml version="1.0" encoding="UTF-8" standalone="no"?>
<svg
   xmlns:dc="http://purl.org/dc/elements/1.1/"
   xmlns:cc="http://creativecommons.org/ns#"
   xmlns:rdf="http://www.w3.org/1999/02/22-rdf-syntax-ns#"
   xmlns:svg="http://www.w3.org/2000/svg"
   xmlns="http://www.w3.org/2000/svg"
   xmlns:sodipodi="http://sodipodi.sourceforge.net/DTD/sodipodi-0.dtd"
   xmlns:inkscape="http://www.inkscape.org/namespaces/inkscape"
   width="512"
   height="512"
   viewBox="0 0 512 512"
   version="1.1"
   id="svg6"
   sodipodi:docname="socket outlet data.svg"
   inkscape:version="0.92.1 r15371">
  <metadata
     id="metadata12">
    <rdf:RDF>
      <cc:Work
         rdf:about="">
        <dc:format>image/svg+xml</dc:format>
        <dc:type
           rdf:resource="http://purl.org/dc/dcmitype/StillImage" />
      </cc:Work>
    </rdf:RDF>
  </metadata>
  <defs
     id="defs10" />
  <sodipodi:namedview
     pagecolor="#ffffff"
     bordercolor="#666666"
     borderopacity="1"
     objecttolerance="10"
     gridtolerance="10"
     guidetolerance="10"
     inkscape:pageopacity="0"
     inkscape:pageshadow="2"
     inkscape:window-width="638"
     inkscape:window-height="493"
     id="namedview8"
     showgrid="false"
     inkscape:zoom="0.4609375"
     inkscape:cx="256"
     inkscape:cy="256"
     inkscape:window-x="0"
     inkscape:window-y="0"
     inkscape:window-maximized="0"
     inkscape:current-layer="svg6" />
  <path
     d="m 211.43,402 c -10.14333,0 -20.28667,0 -30.43,0 13.67273,-29.48679 27.77473,-58.82706 41.18219,-88.40375 7.8529,-26.5603 -20.01569,-59.12767 -47.68625,-47.17563 -20.38612,3.86799 -36.52655,50.56973 -4.99969,42.88063 3.64276,-12.56797 20.6527,-32.25742 28.51779,-10.54658 3.76286,10.68938 -6.01076,19.94251 -9.05,29.76069 -12.83388,28.11756 -26.51245,55.90004 -38.81576,84.22808 -1.67055,15.58698 16.44032,13.39883 26.75094,13.26656 13.0557,-0.47867 26.30942,1.04681 39.2164,-0.93703 C 228.15816,420.30826 224.30985,401.70629 211.43,402 Z M 343.55,236 c -48.51667,0 -97.03333,0 -145.55,0 0,-55.51 0,-111.02 0,-166.53 -6.74679,-25.456499 -30.28461,-3.785025 -24,13.629286 0,50.966904 0,101.933814 0,152.900714 -48.01,0 -96.02,0 -144.03,0 -16.407563,2.1277 -11.058152,20.82849 -11.97,32.36896 0,56.82701 0,113.65403 0,170.48104 6.989963,25.33411 31.393703,4.15542 25,-13.63929 C 43,370.14048 43,315.07024 43,260 c 96,0 192,0 288,0 0,60.84333 0,121.68667 0,182.53 6.74679,25.4565 30.28461,3.78502 24,-13.62929 0,-60.12023 0,-120.24047 0,-180.36071 0.18704,-6.27673 -4.84879,-12.69131 -11.45,-12.54 z M 451.17,71 c -16.95968,0.541358 -34.13603,-1.130934 -50.9475,0.924531 -11.56827,7.029492 -5.83239,22.061471 -7.2225,33.314299 0,50.44372 0,100.88745 0,151.33117 1.6142,15.69629 19.63018,10.54286 30.49903,11.43 20.05752,-0.50441 43.96905,3.92622 57.96597,-14.52625 18.15517,-21.14249 11.11029,-49.78565 12.535,-75.15167 -0.80725,-23.92568 1.88185,-48.16339 -1.92335,-71.83414 C 487.52079,87.85201 471.32404,70.789943 451.17,71 Z M 469,218 c 1.77282,16.95158 -12.88393,29.50191 -28.98942,26 -7.67019,0 -15.34039,0 -23.01058,0 0,-49.66667 0,-99.33333 0,-149 13.69966,0.942396 28.16441,-2.15997 41.25063,2.123125 15.92359,13.052005 9.34291,35.038985 10.74937,52.925385 0,22.65049 0,45.30099 0,67.95149 z"
     id="path4"
     inkscape:connector-curvature="0" />
</svg>
