<?xml version="1.0" encoding="UTF-8" standalone="no"?>
<svg
   xmlns:dc="http://purl.org/dc/elements/1.1/"
   xmlns:cc="http://creativecommons.org/ns#"
   xmlns:rdf="http://www.w3.org/1999/02/22-rdf-syntax-ns#"
   xmlns:svg="http://www.w3.org/2000/svg"
   xmlns="http://www.w3.org/2000/svg"
   xmlns:sodipodi="http://sodipodi.sourceforge.net/DTD/sodipodi-0.dtd"
   xmlns:inkscape="http://www.inkscape.org/namespaces/inkscape"
   width="512"
   height="512"
   viewBox="0 0 512 512"
   version="1.1"
   id="svg6"
   sodipodi:docname="socket outlet fax.svg"
   inkscape:version="0.92.1 r15371">
  <metadata
     id="metadata12">
    <rdf:RDF>
      <cc:Work
         rdf:about="">
        <dc:format>image/svg+xml</dc:format>
        <dc:type
           rdf:resource="http://purl.org/dc/dcmitype/StillImage" />
      </cc:Work>
    </rdf:RDF>
  </metadata>
  <defs
     id="defs10" />
  <sodipodi:namedview
     pagecolor="#ffffff"
     bordercolor="#666666"
     borderopacity="1"
     objecttolerance="10"
     gridtolerance="10"
     guidetolerance="10"
     inkscape:pageopacity="0"
     inkscape:pageshadow="2"
     inkscape:window-width="640"
     inkscape:window-height="493"
     id="namedview8"
     showgrid="false"
     inkscape:zoom="0.4609375"
     inkscape:cx="256"
     inkscape:cy="256"
     inkscape:window-x="0"
     inkscape:window-y="0"
     inkscape:window-maximized="0"
     inkscape:current-layer="svg6" />
  <path
     d="m 228.42,318.62 c 11.38586,-28.24955 -18.94942,-65.50829 -49.09609,-52.46609 -15.92369,5.97219 -35.78924,34.0333 -16.98514,46.56494 20.62067,9.26401 23.38706,-44.2479 40.884,-12.35903 3.71387,10.74904 -6.16484,20.03943 -9.19916,29.92716 -13.3081,29.2093 -27.60572,58.03037 -40.28439,87.48661 -2.16308,16.61935 16.75399,15.80622 28.03066,15.21641 13.63591,-0.59978 27.60511,1.27772 41.00762,-1.08844 16.42577,-7.47498 4.44639,-30.96912 -11.41328,-25.91156 -8.02141,0 -16.04281,0 -24.06422,0 13.75089,-29.08977 27.15103,-58.44389 41.12,-87.37 z M 354.13,236 c -49.71,0 -99.42,0 -149.13,0 -0.18859,-58.43146 0.37694,-116.90299 -0.2823,-175.309453 C 200.69109,42.45669 172.93838,51.134207 178,68.366627 178,124.24442 178,180.12221 178,236 127.89272,236.15427 77.758188,235.69154 27.66793,236.23119 13.214068,240.48006 19.301355,257.32317 18,268.46651 18.174325,328.12416 17.651636,387.816 18.26082,447.45232 25.779532,469.6477 49.897961,451.66549 44,434.72675 44,377.15116 44,319.57558 44,262 c 98.66667,0 197.33333,0 296,0 0.18841,63.09814 -0.37669,126.23631 0.2823,189.30945 4.02661,18.23386 31.77932,9.55634 26.7177,-7.67608 -0.17019,-65.97253 0.34019,-131.97813 -0.25482,-197.93003 C 365.74367,239.81765 359.89,235.83014 354.13,236 Z m 127.11,-92 c -16.74667,0 -33.49333,0 -50.24,0 0,-17.66667 0,-35.33333 0,-53 18.42037,-0.585415 37.1388,1.225716 55.35594,-1.010312 C 505.8532,78.839125 485.5663,59.834282 469.90759,65 450.79263,65.536677 431.42902,63.888632 412.47984,65.894844 400.46661,72.448959 406.44956,87.590692 405,98.675666 c 0.17387,53.510324 -0.34776,107.054804 0.26082,160.543784 7.51538,22.19823 31.63502,4.2134 25.73918,-12.7227 0,-25.49892 0,-50.99783 0,-76.49675 18.42037,-0.58542 37.1388,1.22572 55.35594,-1.01031 C 499.57011,163.88898 495.23663,143.61625 481.24,144 Z"
     id="path4"
     inkscape:connector-curvature="0" />
</svg>
