<?xml version="1.0" encoding="UTF-8" standalone="no"?>
<svg
   xmlns:dc="http://purl.org/dc/elements/1.1/"
   xmlns:cc="http://creativecommons.org/ns#"
   xmlns:rdf="http://www.w3.org/1999/02/22-rdf-syntax-ns#"
   xmlns:svg="http://www.w3.org/2000/svg"
   xmlns="http://www.w3.org/2000/svg"
   xmlns:sodipodi="http://sodipodi.sourceforge.net/DTD/sodipodi-0.dtd"
   xmlns:inkscape="http://www.inkscape.org/namespaces/inkscape"
   width="512"
   height="512"
   viewBox="0 0 512 512"
   version="1.1"
   id="svg6"
   sodipodi:docname="television joint box.svg"
   inkscape:version="0.92.1 r15371">
  <metadata
     id="metadata12">
    <rdf:RDF>
      <cc:Work
         rdf:about="">
        <dc:format>image/svg+xml</dc:format>
        <dc:type
           rdf:resource="http://purl.org/dc/dcmitype/StillImage" />
      </cc:Work>
    </rdf:RDF>
  </metadata>
  <defs
     id="defs10" />
  <sodipodi:namedview
     pagecolor="#ffffff"
     bordercolor="#666666"
     borderopacity="1"
     objecttolerance="10"
     gridtolerance="10"
     guidetolerance="10"
     inkscape:pageopacity="0"
     inkscape:pageshadow="2"
     inkscape:window-width="638"
     inkscape:window-height="493"
     id="namedview8"
     showgrid="false"
     inkscape:zoom="0.4609375"
     inkscape:cx="256"
     inkscape:cy="256"
     inkscape:window-x="0"
     inkscape:window-y="0"
     inkscape:window-maximized="0"
     inkscape:current-layer="svg6" />
  <path
     d="m 174.35,117 c 6.32263,2.03756 21.71233,-4.99194 19.65,5.43058 0.19281,35.92505 -0.38558,71.89008 0.28902,107.79016 8.22757,23.3243 34.00492,4.44119 27.71098,-13.6419 0,-33.19295 0,-66.38589 0,-99.57884 11.23263,-0.83378 27.77316,4.0617 31.77957,-10.73215 C 256.32907,88.639053 235.95933,89.250355 223.96826,90 205.67513,90.612321 187.07701,88.724946 168.98906,91.037812 155.05073,96.307256 159.73402,117.50393 174.35,117 Z m 118.53,114 c 10.23301,22.56439 30.78803,2.32964 30.50636,-14.44027 9.75367,-37.32228 20.24315,-74.48765 29.53801,-111.90778 -1.8377,-24.6877 -31.368,-12.80152 -29.91934,6.14343 C 317.40336,131.83025 311.80168,152.86513 306.2,173.9 299.23433,148.52554 292.98461,122.92095 285.57379,97.68957 271.67309,77.19838 252.01795,102.20833 262.70052,117.9139 272.76035,155.60926 282.82017,193.30463 292.88,231 Z M 229,272.3 c -17.06829,0.80777 -13.90703,19.63823 -14,31.44939 -0.40672,27.95842 0.83227,56.04163 -0.65422,83.91858 -4.22213,16.02664 -35.97917,0.57607 -31.53576,25.12137 5.76213,16.64305 29.38512,12.324 41.53128,6.10409 22.55757,-14.14745 18.39621,-42.42448 18.6587,-65.20398 -0.18847,-23.45292 0.37974,-46.94501 -0.28902,-70.37306 C 241.47889,277.01472 235.3691,272.20229 229,272.3 Z m 96.48,41.1 c 1.15114,-22.85637 -18.99589,-45.01135 -42.54823,-41.4 -11.87726,1.02727 -29.77832,-4.59747 -33.67411,11.3035 -0.42597,43.03868 -0.43262,86.16004 0,129.19873 4.37579,16.66259 23.47017,10.20674 36.09231,11.49777 27.18861,3.38185 47.04054,-24.86352 44.66003,-50.03 1.19143,-21.30506 -19.44538,-34.04114 -5.1275,-53.44234 -1.25497,1.64112 2.30112,-8.84493 0.5975,-7.12766 z M 277,300 c 16.03133,-5.46766 28.87319,13.84052 15.61656,25.99 -9.17253,2.83065 -19.69353,2.46719 -15.61656,-9.85116 0,-5.37961 0,-10.75923 0,-16.13884 z m 26,76.73 c 1.98514,16.14255 -13.05272,21.76667 -26,19.27 0,-13.66667 0,-27.33333 0,-41 13.34515,-2.70519 28.69656,3.94939 26,20.32765 v 1.35764 z M 496,29.8 C 495.11584,12.833777 476.29412,16.152808 464.55061,16 318.71153,16.187023 172.83483,15.625999 27.019258,16.28043 10.668453,21.364252 17.41501,40.170482 16,52.879966 16.187025,196.90885 15.625997,340.97536 16.28043,484.98074 21.364252,501.33155 40.170482,494.58499 52.879966,496 196.90885,495.81298 340.97536,496.374 484.98074,495.71957 501.33155,490.63575 494.58499,471.82952 496,459.12003 496,316.01336 496,172.90668 496,29.8 Z M 468,470 c -141.33333,0 -282.66667,0 -424,0 0,-142 0,-284 0,-426 141.33333,0 282.66667,0 424,0 0,142 0,284 0,426 z"
     id="path4"
     inkscape:connector-curvature="0" />
</svg>
