<svg xmlns="http://www.w3.org/2000/svg" width="512" height="512"><path d="M494.2 288.4a148.1 148.1 0 0 0-92.9-136.8 148.1 148.1 0 0 0-163.6 37.5 148 148 0 0 0-23.4 165.2 147.7 147.7 0 0 0 280-66zm-25.1 3.5a123 123 0 0 1-87.9 114.4 123 123 0 0 1-135.4-48 123 123 0 0 1 4.5-145.4 123 123 0 0 1 138.1-39.4A123 123 0 0 1 469.1 292zM74.8 76c-16.5.6-33.2-1.2-49.5 1-11.7 6.8-5.9 21.6-7.3 32.7.2 49.6-.3 99.3.2 148.8 3.3 14.7 20.1 9.6 31 10.5 19.3-.3 42.4 3.3 55.5-14.8 17.7-20.8 11-48.8 12.3-73.7-.6-22.4 1.4-45-1.3-67.4-3.9-19.3-20.1-37.3-40.9-37.1zM92 218.7c1.8 17.2-13.8 27.4-29.1 24.3-6-1.5-17.9 3-19.9-2.4V101c12.8.9 26.2-2 38.5 2 15.5 12 9.2 33 10.5 50v65.7zm-69.4 37.4h467.1"/></svg>