<svg xmlns="http://www.w3.org/2000/svg" width="512" height="512"><path d="M491.4 287.2a147 147 0 0 0-92.2-135.7 146.8 146.8 0 0 0-161.4 36.3c-41.1 42.9-51 111.7-24 164.6A146.9 146.9 0 0 0 359.4 433a146.8 146.8 0 0 0 132-145.9zm-24.7 3.5c-.6 51.1-37.1 99-86.2 113.2a122.2 122.2 0 0 1-135.6-47.2 122.2 122.2 0 0 1 3-142.7c30.7-42 90-59.5 138.6-41 48.6 17 82 66.2 80.2 117.7zM91.8 189.4c21.5-10.8 26.8-36.4 25.2-58.4 2.7-26.4-16.1-57.3-45.2-55-15.2.6-30.8-1.2-45.8 1-12.5 6.2-6.6 21.8-8 33 .2 49.1-.3 98.4.3 147.6 3.7 17.1 29.5 8.8 24.7-7.2V193h24c9.6 23.2 17.9 47 28.4 69.7 16 15 27.6-9.7 17-22.1-7-17-13.7-34.2-20.6-51.2zm-16.6-20.5c-10.6.3-21.5 0-32.2.1v-69c11.9.3 24-.7 35.7.5 17.2 8.8 12.8 30.1 13.2 46-.7 9.4-5.8 21.7-16.7 22.4zM22.6 256h467.1"/></svg>