<svg xmlns="http://www.w3.org/2000/svg" width="512" height="512"><path d="M488 102.7c-23.7-13.2-46.7-27.8-70.8-40.2-15.6-2.2-18.7 15.8-26 25.6L282.4 276.7A178.3 178.3 0 0 0 211 256c-.2-52.2.4-104.5-.3-156.6-3.7-18.8-32-9.8-26.7 7.7v149A180.9 180.9 0 0 0 17.4 438.7c4 18.7 32 10 27-7.6a154 154 0 0 1 100.4-139 153.9 153.9 0 0 1 168 42.4 156.8 156.8 0 0 1 38.7 104.5c3.4 18.3 31.5 10.6 26.8-6.7-.8-55-28.6-108.7-73-141.2L419 94.2c19.7 11 38.8 23 58.7 33.4 15.2 4.1 23.8-17.3 10.3-24.9zM22.6 256.1h467.1"/></svg>