<svg xmlns="http://www.w3.org/2000/svg" width="512" height="512"><path d="M292.4 288c-9.2 2.4-10.8-2.7-9.4-10.8.2-9.2 1.6-22.6-10.4-25-14-2.6-17 13-15.6 23.4 0 6.7 2.2 15.5-7.5 12.4-5.8-.8-17.6 3.2-12.4-6.3 8-36 16.8-71.8 24.4-107.9.5-17.8-27.3-15.9-26.3 1.3-9.4 42-19.7 84-28.6 126.2.3 14 15.8 13.1 25.8 12.7H257c.9 10.3-2 21.4 2.2 31 9.6 13.5 28.1.3 23.8-13.7 1.4-5-2.9-15.9 2.2-17.3 12.8 3.7 27.2-10.7 16.3-22.2a12.8 12.8 0 0 0-9.1-3.8zm201.8 73.4A238.9 238.9 0 0 0 383 166.9a239 239 0 0 0-219.2-18.2A239 239 0 0 0 23.2 317c-3.5 17.7-6.4 36-4.9 54 3.4 17.7 29.9 9.6 25.2-6.9.7-74.2 44-146 109.2-181.4a213 213 0 0 1 207.7.6 213 213 0 0 1 108.2 181.9c-3.9 14.9 19.1 24.1 24.7 8.5 1.5-3.9.7-8.2.9-12.3zM22.6 256.1h467.1"/></svg>