<svg xmlns="http://www.w3.org/2000/svg" width="512" height="512"><path d="M256.2 205c12.1-.9 25.1 2.1 36.6-2.3 14.4-9.8.5-29.2-14.1-24.7-18.4 0-39.9-2.5-52.4 14.2-17 19.2-11.2 46-12.3 69.3.6 22.9-1.4 45.9 1.3 68.5 3.8 22 24.6 40 47.3 37 10.8-1 23 3 32.3-3.9 11.7-12-3.9-27-17.3-23.1-10.9-1.2-24.8 4-32-6.7-7.8-14.4-3.5-31.3-4.6-47 .2-21.1-.4-42.4.3-63.6 1.2-7.7 6-17.3 14.9-17.7zm237.6 156c-1.8-77.1-44-151.8-109.2-193a238.1 238.1 0 0 0-220.8-19A238.5 238.5 0 0 0 18.3 370.8c3.8 18.5 32.2 10.6 27.7-7.1 1-69.7 39.3-137.4 98.7-174a210.8 210.8 0 0 1 198.4-13 210.6 210.6 0 0 1 122 168.7c2.3 10.5-1.7 22.9 5.3 31.8 11.3 10.8 27.4-2.7 23.3-16.2zM22.6 256h467.1"/></svg>