<svg xmlns="http://www.w3.org/2000/svg" width="512" height="512"><path d="M303.1 355c10.7-1 28.4 4.4 30.3-11-1.8-15.4-19.6-10-30.3-11-12.8-5.2-6.7-21.5-8.1-32.4.4-12.8-1-25.7.8-38.3 7.3-14.6 29.3 2.1 36.7-13.3 4.8-18.8-17.5-16.2-29.3-16-21.2-.2-34 22.3-31.2 41.6 1 20-2.4 40.7 2.5 60.3a31.5 31.5 0 0 0 28.6 20.1zM182.5 460c10.8-.8 28.6 4.3 30.3-11.5-1.6-15.7-19.5-10.7-30.3-11.5-10.8-5.7-5-20.7-6.5-30.8.9-14.2-2-29 2-42.7 9.7-7.3 27 4 33.8-9.5 4.9-18.8-17.5-16.2-29.2-16-21.1-.5-32.3 22.2-29.6 40.8 1 20.2-2.1 40.8 2.3 60.5 3.9 11.4 14.7 21 27.2 20.7zM409.7 50.9c-18.7-10.8-37.3-21.7-56.1-32.3-15-5-18.6 13.7-25.3 22.8l-90 155.6c-43.5.2-87.5-.5-130.5.4-7.8.6-13.2 8.4-10.8 15.8v270c1.8 15.6 20.1 9.6 31 10.8l257.8-.1c12.4-5.5 7-21.5 8.2-32.1V209c-2.4-17-21.6-11-33.5-12.1h-95.7l70.6-122c16 9 31.7 18.9 48 27.4 22.5 1.5 12.8-24.7-3-27.6L347 55.4c3.2-10.1 8.6-12.2 16.6-4.7 13.6 6.9 26 17 40.5 21.6 11.2.5 16-16 5.7-21.4zM120 471V236.9L354.2 471H120zm251-251v235.5L135.6 220H371zM22.6 256.1h467.1"/></svg>