<svg xmlns="http://www.w3.org/2000/svg" width="512" height="512"><path d="M436.8 65.4c-16.3-15.4-31-32.8-48.4-46.9-14.9-3.6-22.3 13-32.4 20.9L231.3 164c-49.7.2-99.4-.4-149 .3-16.6 5-10 24.2-11.3 37v279.9c2.3 17.4 21.8 11.9 34 12.8h283.8c17.6-1.1 12.4-20.9 13.2-32.8V177.4c-1.4-17.7-21.1-12.7-33.2-13.4h-99.6l55.6-55.5c13 12.2 24.6 26.4 38.9 37.4 26 4.5 18.2-25 3.1-33.2l-23.1-23.2L383.4 50c13 12.3 24.6 26.5 38.9 37.4 13.1 5.7 24.8-12 14.5-21.9zM375 190v278H98V190h277zM218 329.3L113.4 433.7c-14.7 25 20.5 27.2 29.3 8.6l94-94c34.9 34.7 69.7 69.6 104.5 104.4 25 14.6 27.2-20.6 8.6-29.3l-94-94.1 104.4-104.5c14.6-24.9-20.6-27-29.3-8.5l-94.1 94L132.4 206c-24.9-14.7-27.1 20.5-8.5 29.3l94 94.1zM22.5 256.1h467.1"/></svg>