<svg xmlns="http://www.w3.org/2000/svg" width="512" height="512"><path d="M423.6 315H298c-.3-33.3.6-67-.3-100-4.3-48.3-44-90.3-91.8-97.4l19.3-33.4c9.3 10.4 33.8 9.1 24.7-9.8A111 111 0 0 0 222 58.6c-13 1-14.6 16.5-21.4 25.1-3.7 5.5-.8-13.7-1.7-18.5-.5-13.9 1-28-.8-41.8C184 5 174.4 30.3 178 43.6v73.2c-49.7 3.5-93 45-99.2 94.3-2.1 23.7-.1 47.7-.8 71.6v143c1.5 16 19.7 10.3 30.6 11.4H178c.5 17.1-1 34.5.8 51.6 14.2 18.4 23.8-7 20.2-20.3V437h88.5c15.2-2.6 9.3-20.5 10.5-31.5V337h48c.5 14.3-1 28.9.9 43 14.4 18.5 25-6.4 21.1-20.2 1-7-2-18 1.3-22.8H413c.5 14.3-1 28.9.8 43 14.2 18.6 23.8-6.8 20.2-20.2-.4-12.6 1-25.4-.8-38-1.4-3.9-5.3-6.9-9.6-6.8zM100 215.7a89 89 0 0 1 86.7-77.8 89 89 0 0 1 89 75.1c.2 7-14.3 1-19.7 3-51.9-.2-104.6.3-156-.3zM277 415H99V238h178v177zm-171.3-6.6c12.4 9.6 21-7.3 29.5-14.2l52.8-52.8 67 67c22.5 11.6 20.3-18.7 4.9-25.7L203.3 326l67-67c11.6-22.4-18.7-20.3-25.7-4.9L188 310.8l-67-67c-22.4-11.6-20.3 18.7-4.9 25.8l56.6 56.5-67 67a11 11 0 0 0 0 15.3zM22.6 256.1h467.1"/></svg>