<svg xmlns="http://www.w3.org/2000/svg" width="512" height="512"><path d="M482.4 208H332c-.2-44.8.3-89.7-.2-134.5-4-15.1-21.3-9.4-32.7-10.5-90.7.2-181.4-.4-272 .3-14.7 4.6-9 22-10.1 33.6v269.5c1.9 15.7 20 10.8 31 11.6h114c.6 21-1.2 42.4 1 63.4 11.8 18.8 28.7-2 24-17.1V378h133c16-1 11.3-19.1 12-30V233h59c.6 17.4-1.2 35.1 1 52.4 11.8 18.9 28.7-2 24-17V233h54c.6 17.4-1.2 35.1 1 52.4 11.8 18.9 28.7-2 24-17-.6-17.4 1.3-35-1-52.1a13 13 0 0 0-11.6-8.3zM308 354H42V88h266v266zM157.4 221.2L57.2 321.4c-13.5 22.9 18.9 24.9 27 7.8l90.6-90.6L275 338.8c22.9 13.5 24.9-18.9 7.8-27l-90.6-90.6L292.4 121c13.4-22.9-19-24.9-27-7.8l-90.6 90.6L74.6 103.6c-23-13.4-25 19-7.9 27l90.7 90.6zm-134.8 35h467.1"/></svg>