<svg xmlns="http://www.w3.org/2000/svg" width="512" height="512"><path d="M132.4 394.8c13 10.5 22.5-6.7 31.3-14.1l76-76 90 90.1c23.7 13.1 23.7-19.6 6.7-27.4l-79.7-79.8 90.1-90c13.2-23.7-19.5-23.7-27.4-6.7l-79.8 79.7-90-90.1c-23.8-13.1-23.7 19.6-6.8 27.4l79.8 79.7-90.2 90.2a12.1 12.1 0 0 0 0 17zm280.7-336c-14.2-13.4-26.9-28.7-42-40.7-12.6-3.8-18.7 10.8-27.3 17.3L234.6 145H108.2c-17.4.5-12.4 19.6-13.1 31.1v243c2.5 17.5 22.1 12 34.5 12.9H228c.5 18.5-1.1 37.1 1 55.5 14.7 20 27.2-5.8 23-20.8V432h119.2c17.5-2.3 11.9-22 12.8-34.2V156.1c-2.8-15.8-21.4-10-32.8-11.1h-82.4l47-47.4c11.3 10.4 21.1 22.6 33.5 31.8 24.5 3.5 15.4-23.6 1.7-31.2L332.8 80l33.7-33.7C377.8 57 387.7 69.2 400 78.5c12 5.1 22.4-10.8 13.1-19.7zM360 169v239H120V169h240zM22.6 256.1h467.1"/></svg>