<svg xmlns="http://www.w3.org/2000/svg" width="512" height="512"><path d="M482.8 207H334c-.2-44.7.4-89.5-.3-134.2C329.6 57.7 312 63 300.3 62c-91.3.2-182.6-.4-273.9.3-14.8 4-9.4 21.6-10.4 33 .2 91.3-.3 182.7.3 274 3.5 15.1 21.3 9.7 32.6 10.7H161c.2 19.8-.4 39.7.3 59.5 4 18.9 32.8 10.2 27.7-7.7V380c44.6-.2 89.3.4 133.8-.3 15.5-3.6 10.3-21.4 11.2-33V234h56c.6 17.3-1.3 34.9 1.1 51.9 7.6 17 32 4.9 26.9-11.5V234h50c.6 17.3-1.3 34.9 1.1 51.9 7.6 17 32 4.9 26.9-11.5-.6-19.6 1.2-39.4-1-58.8-1.8-5-6.8-8.7-12.2-8.6zM307 352H44V89h263v263zM22.6 256.1h467.1"/></svg>