<svg xmlns="http://www.w3.org/2000/svg" width="512" height="512"><path d="M263.2 261.7a92.2 92.2 0 0 0-69.5-85.8 92.3 92.3 0 0 0-102.4 43.9 92.3 92.3 0 0 0 13.4 108.6 88.2 88.2 0 0 0 64.6 28.1c5.1-.7 11.2 1 17-.7a92.3 92.3 0 0 0 77-94.1zm-21.2 7.2c-1.1 34.6-31.5 66-66.5 66.4-11.7.4-23.8-.7-34.5-6.3a71 71 0 0 1-36.5-87 71 71 0 0 1 81.3-46.2 71.1 71.1 0 0 1 56.2 73zm-190.2-62c6.7-9.9 15-18.8 20.4-29.4 2-18.1-20.2-14-24.2-1.1-3 2.5-9.8 17.3-9 8.3 3-10.9-6.2-27.3-18-17.1-5.6 8.8-2 20.2-3 30.2.1 18.4-.3 36.8.2 55.2 6.2 18 25.6 3.3 20.8-10.4.6-4.1-1.6-20 2.3-9.7 5.2 9 7.9 19.7 15.2 27 15.2 7.2 19.4-13 10.7-22.1-5-10.3-10.2-20.6-15.4-30.9zm307.8-41.3c-.6-13-15-10.5-24-10.6-9.2 1-19.5-2.4-27.6 2.8-5.5 9.2-2 20.7-3 31 .1 24.4-.3 48.8.2 73.1 4 12.2 18.2 7 27.7 8.1 9.3-.9 23 3.7 26.5-8.4 2-13.5-13.5-13.2-22.8-12.6-7.2 1-13.2.7-10.6-8.3V217c8.8-.7 21.8 3.3 25-8.4 2-13.5-13.5-13.2-22.8-12.6-5-1.2-.8-11.7-2.2-16.5-.8-7.1 10.8-1.9 15.5-3.5 7.6.5 18 .3 18.1-10.3zm40-10.6c-10.5.7-21.5-1.7-31.4 1.6-8.7 6.3-4 18-5.2 27 .1 26.2-.3 52.3.2 78.3 6.2 18 25.6 3.3 20.8-10.4V228c13 .2 28.8 1.5 36.7-11.4 8.4-12.3 7.3-28.8 4.1-42.7-3.7-10.5-13.7-19-25.2-18.9zm6.4 41.6c.8 12.9-12.6 10.4-21 10.4-2.6-3.6-.2-12.2-1-17.6.8-5.7-3.2-16.3 6.2-13.4 9.5-2.5 18.1 4 15.8 14.3v6.3zm61-41.6c-14-1.8-29.4 4.5-33.8 18.9-4 16.8-1.4 34.4-2.2 51.5-.9 15.6.5 34.8 16.8 42.2 15 5.5 36.3 3 43-13.9 5.7-15.6 2.3-32.7 3.2-49 0-16.3 2.1-36.4-14-46a24.6 24.6 0 0 0-13-3.7zm6 83.8c2.2 14-23 14-21 0 .4-19-.7-38 .6-56.8 3.7-11.2 24.2-6.7 20.4 6.2v50.5zm-276.9 25.1c0-18.5-23.7-30.5-38.6-19.3-15.4 9.3-14 34.6 2.2 42.3 16.3 9.3 37.7-4.4 36.4-23zm-21.3 1.9c-2 7.4-11.7-1.8-4.3-4.2 2.4-.6 4.9 1.7 4.3 4.2zM22.6 256h467.1"/></svg>