<svg xmlns="http://www.w3.org/2000/svg" width="512" height="512"><path d="M226.5 262.9c-1-44.6-34.1-86-77.5-96.6-42.8-12-91.8 7.4-114.7 45.6A104.2 104.2 0 1 0 159 364.2c41.3-14.8 70-57.6 67.6-101.3zm-19.8 8.4a84.6 84.6 0 0 1-71.4 78.7A84.6 84.6 0 0 1 44 297c-14.6-35.9 0-80.5 33-101a84.5 84.5 0 0 1 104 10.2c17.5 16.7 27 41 25.7 65zM328 161c21-6 2.8-25.2-11.6-20-10.4.4-20.9-.9-31 .8-9 6.9-4.3 19.5-5.5 29.3v89.6c.6 13.7 15.8 9.7 25 10.3 10-1 21.2 2.5 30-3 10.4-15-9.7-18.9-20.6-17-5-1.6-17 3.9-15.4-4.2V210c9.6-1.2 22.1 3.7 28.5-5.7 4.1-15.3-14.2-13.5-24-13.3-8.4 2-3-9.8-4.5-14.8 1.6-4.9-3.9-16.8 4.2-15.2h24.9zm58.4-20c-11 .4-22.1-1-33 .8-9.1 6.8-4.3 19.5-5.5 29.3v89.6c5.6 21.1 24.1 2.4 19-11.6V221c14.8-.2 32.9 2.6 42.2-12 9.3-13.5 7.8-31.7 4.5-46.9-4-11.4-14.6-21.2-27.2-21.1zm9.5 46.6c1.4 13-11.1 16-21 14.4-9.5 3-8.4-4.7-8-11.6V161c8.2 1 17.7-2.4 24.8 2.5 6 6.7 3.8 16 4.2 24.1zm68.4-46.6c-13.2-1.3-27.9 2.4-34.3 15.3-8.4 16.3-4 35.2-5.1 53 .7 19-4.2 42.2 13.2 55.7 10.5 8 25.7 7.4 37.5 3.2 17.7-9 18-30.4 17.3-47.7-.5-18.4 1.2-37-1.2-55.2-3-12.6-13.7-24.5-27.4-24.3zm9.6 95.3c1.6 13.4-12.7 17.6-22.7 13.6-10-8.6-5.1-23-6.3-34.7.5-15.2-1-30.5.9-45.6 2.4-10.6 19.2-11.6 25.2-4.3 5.3 12 2 25.8 2.9 38.6v32.4zm-325.2 29.4c0-19.1-23.8-32.1-39.8-21.4a25.2 25.2 0 0 0-12.4 22.2c-1.7 18.2 20.3 32.5 36.6 24.3 9.8-4.3 16-14.6 15.6-25zm-19.9 2.4c-1.3 8.2-14.7 5.5-12.7-2.6 1.8-8.3 14.4-5.8 12.7 2.6zM22.6 256h467.1"/></svg>