<svg xmlns="http://www.w3.org/2000/svg" width="512" height="512"><path d="M169.5 352.9c16.9 0 17.5-18.4 16.5-30.9v-60c15.8-.7 32 1.4 47.5-1.3 19.7-8.4 5.9-36.5-13-30.7H186v-38c15.8-.7 32 1.4 47.5-1.3 19.7-8.4 5.9-36.5-13-30.7-19 .6-38.3-1.3-57.1 1.1-15.7 6.4-9 25.3-10.4 38.3.2 47-.5 93.8.3 140.7a16.6 16.6 0 0 0 16.2 12.8zm129.6-.9c19.8 1.7 42-3.2 52-22.3 12.6-22.4 6.4-48.8 7.9-73.3-1.3-23.3 3.7-47.8-5.6-69.9-8.7-20.4-31.2-28.8-52-26.5-31-1.8-51 31-47.4 59.2.5 30.7-1 61.5 1 92.1 3.4 21.4 21.5 41 44.1 40.7zM286 211c-2-18.6 18.6-22 32-17.7 12.8 11.1 6.4 29.9 8 44.8-.6 23.5 1.3 47.3-1.1 70.8-3.4 14.6-25.7 14.1-34.6 6-7.7-14.5-3-31.8-4.3-47.7V211zM478 17H33c-16.8 0-16.8 18.6-16 30.9v430c0 16.9 18.6 17 30.9 16.1h430c16.9 0 17-18.6 16.1-30.9v-430A16 16 0 0 0 478 17zm-15 446H49V49h414v414zM22.6 256.1h467.1"/></svg>