<svg xmlns="http://www.w3.org/2000/svg" width="512" height="512" viewBox="0 0 512 512"><path d="M495.1 248.74c-.02-.07-.02-.12-.02-.2l-.35-7.18v-.14l-.54-7.2-.03-.18-.76-7.14v-.18l-1-7.14c0-.07-.02-.13-.03-.2l-1.23-7.07-.03-.13-1.4-7.02c0-.06 0-.12-.03-.18l-1.64-7.02c0-.07-.03-.13-.05-.2l-1.87-6.9c0-.06-.02-.12-.04-.17l-2.14-7-2.22-6.85-.08-.24-2.52-6.74-.05-.13-2.7-6.67-.07-.2-2.93-6.55-.06-.1-3.1-6.5-.1-.16-3.26-6.38-.1-.17-3.5-6.28-.08-.12-3.7-6.2-.1-.2-4-6.1-4.02-5.98c-.04-.07-.1-.13-.13-.2l-4.26-5.78-.08-.1-4.4-5.68c-.04-.06-.1-.12-.13-.18l-4.67-5.55-4.68-5.45-.2-.2-4.98-5.22-.1-.1-5.08-5.1c-.04-.02-.07-.06-.12-.1l-5.2-4.9c-.05-.05-.08-.1-.12-.12l-5.4-4.8-.16-.15-5.64-4.64-5.6-4.45-.22-.14-5.94-4.27-5.9-4.1c-.06-.05-.12-.1-.18-.12l-6.02-3.87c-.06-.02-.1-.05-.17-.1l-6.2-3.67-.14-.08-6.3-3.5-.12-.07-6.32-3.34-.2-.1-6.5-3.1-.18-.08-6.7-2.9L342.6 33l-.2-.08-6.67-2.46-.17-.06-6.85-2.28-.12-.05-6.9-2.1-.2-.05-6.96-1.88c-.06 0-.1-.03-.17-.04l-6.96-1.64c-.08 0-.14-.03-.2-.04l-7.1-1.4-.1-.02-7.03-1.24c-.07 0-.13-.02-.2-.03l-7.14-1h-.13l-7.15-.83-.23-.02-7.2-.52h-.13l-7.2-.36c-.07 0-.13.1-.2.1h-14.57c-.06 0-.12-.05-.2-.05l-7.13.32h-.13l-7.14.5-.18.03-7.2.76c-.07 0-.13 0-.2.02l-7.08 1c-.05 0-.1 0-.16.02l-7.13 1.23c-.06 0-.1.02-.16.03l-7 1.4-.18.04-7.03 1.64-.2.05-6.9 1.86-.13.04-6.9 2.05-.2.06-6.8 2.3c-.04 0-.1.03-.15.05l-6.8 2.5-.14.07-6.68 2.7-.14.06-6.56 2.87-.16.07-6.5 3.1-.2.1L143 45.2l-6.32 3.46-.2.1-6.14 3.7c-.05.02-.1.05-.15.1l-6.1 3.9c-.03.04-.07.06-.12.1l-5.9 4.03-.12.07-5.85 4.2-.2.17-5.7 4.5-5.56 4.57-.15.14L95.1 79l-.16.1-5.27 5-.1.08-5.08 5.03c-.06.06-.1.12-.17.17l-4.92 5.27-.08.1-4.8 5.38-.12.15-4.57 5.5c-.03.05-.06.1-.1.13l-4.44 5.68c-.05.05-.1.1-.13.16l-4.22 5.8-.1.12-4.08 5.97-.1.14-3.86 6.03-.06.1-3.75 6.16c-.05.06-.08.12-.12.2l-3.5 6.3-.1.17L42 149.1l-.07.14-3.1 6.44-.07.16-2.93 6.6-.07.2-2.7 6.66c0 .05-.02.1-.04.13l-2.52 6.73-.07.18-2.28 6.8-.06.18-2.06 6.9c0 .06-.02.1-.03.15l-1.87 6.96c0 .05-.02.1-.03.13l-1.7 6.97c0 .06-.03.13-.04.2l-1.47 7.07-.05.22-1.18 7.18-1.05 7.08-.04.27-.7 7.24-.6 7.18v.2l-.36 7.2c0 .05.1.1.1.17l-.02 7.2v.18l.02 7.14c0 .05-.05.1-.05.13l.26 7.2v.2l.52 7.2c0 .06 0 .14.02.22l.83 7.22.94 7.14.03.24 1.23 7.08c0 .05.02.1.03.14l1.4 7.02.04.18 1.64 7.02.04.14 1.82 6.97.06.23 2.1 6.85.05.13 2.28 6.84.07.2 2.52 6.73.05.12 2.68 6.68.06.15 2.88 6.56.07.16 3.1 6.5c0 .04.03.1.06.13l3.28 6.44.1.2 3.56 6.34 3.63 6.2.14.23 3.98 6.1 4.03 5.98.12.16 4.2 5.8c.05.06.1.1.13.16l4.45 5.68.08.1 4.57 5.56.15.18 4.8 5.38.1.12 4.92 5.2.1.1 5.02 5.1.14.12 5.27 4.98.14.13 5.38 4.75.1.1 5.5 4.6c.05.05.1.08.14.1l5.6 4.47.2.15 5.94 4.27 5.92 4.1.16.1 6.03 3.87.13.1 6.2 3.74.16.1 6.27 3.5.18.1 6.38 3.27.15.1 6.5 3.1c.05 0 .1.03.13.05l6.56 2.93.14.06 6.67 2.75.22.08 6.83 2.5 6.8 2.33.22.08 6.9 2.05c.06 0 .1.03.15.04l6.96 1.87.13.03 6.98 1.7.22.05 7.03 1.4.15.04 7.14 1.22c.06 0 .12.02.17.03l7.13 1 .14.03 7.14.8c.07.02.13.03.2.03l7.14.6h.22l7.3.3 7.2.18h.23l7.13-.12h.17l7.26-.36h.15l7.15-.54h.18l7.14-.77.13-.02 7.14-.94.23-.04 7.08-1.23.14-.02 7.07-1.4.2-.04 6.96-1.64c.06 0 .12-.03.17-.04l6.97-1.88.13-.03 6.9-2.05.2-.06 6.8-2.3c.04 0 .08 0 .12-.03l6.8-2.46.17-.07 6.66-2.7c.06 0 .1-.03.15-.06l6.57-2.86.17-.08 6.5-3.1.14-.07 6.38-3.28.17-.1 6.32-3.5.16-.1 6.15-3.68.14-.1 6.02-3.85.12-.07 5.97-4.04.17-.1 5.86-4.28.14-.1 5.7-4.47 5.62-4.57.16-.14 5.4-4.74.1-.1 5.28-4.92.16-.16 5.03-5.1.1-.1 4.9-5.2.12-.1 4.8-5.4.12-.15 4.63-5.56.1-.12 4.4-5.62.06-.1 4.34-5.8.15-.2 4.1-6.06 3.9-6.03c.05-.05.1-.1.12-.17l3.7-6.14.07-.14 3.52-6.27.07-.14 3.34-6.37.1-.2 3.1-6.48c0-.05.03-.1.05-.13l2.93-6.56.06-.15 2.77-6.66.08-.2 2.46-6.74.05-.1 2.34-6.86c0-.06.02-.1.04-.17l2.1-6.84.06-.2 1.87-6.96.05-.17 1.64-6.97c0-.06.03-.13.04-.2l1.42-7.16 1.3-7.08c0-.1.02-.17.03-.24l1-7.14v-.18l.77-7.15.02-.14.58-7.15c0-.05 0-.1.02-.17l.35-7.2v-.18l.12-7.3-.13-7.8zm-11.27 14.83l-.34 7.02-.58 6.96-.74 7-.97 6.92-1.24 6.88-1.38 6.98-1.6 6.8-1.82 6.76-2.06 6.68-2.3 6.7-2.38 6.57-2.68 6.5-2.87 6.4-3.02 6.34-3.26 6.2-3.44 6.13-3.6 5.98-3.8 5.87-3.96 5.86-4.22 5.64-4.3 5.5-4.5 5.42-4.7 5.25-4.8 5.1-4.9 4.97-5.13 4.78-5.24 4.6-5.44 4.44-5.55 4.33-5.7 4.16-5.8 3.95-5.9 3.77-6 3.6-6.16 3.42-6.23 3.2-6.33 3.03-6.4 2.8-6.5 2.6-6.63 2.42-6.63 2.23-6.73 2-6.8 1.83-6.8 1.6-6.9 1.36-6.9 1.2-6.97.9-6.98.76-6.97.5-7.1.36-6.94.1-6.98-.16-7.08-.3-6.94-.55-6.98-.8-6.98-.98-6.98-1.2-6.83-1.37-6.8-1.65-6.82-1.84-6.7-1.98-6.58-2.27-6.63-2.42-6.5-2.67-6.4-2.87-6.37-3.04-6.2-3.2-6.1-3.4-6.07-3.67-5.88-3.78-5.75-3.98-5.74-4.14-5.47-4.3-5.4-4.54-5.25-4.63-5.12-4.85-4.92-4.97-4.82-5.1-4.67-5.23-4.45-5.43-4.35-5.54-4.1-5.64-3.92-5.8-3.85-5.92-3.5-6-3.47-6.17-3.18-6.27-3.03-6.35-2.8-6.4-2.64-6.52-2.46-6.57-2.23-6.7-2.05-6.66-1.77-6.77-1.6-6.87-1.37-6.87-1.2-6.9-.9-6.94-.82-7.02-.5-7-.3-7-.1-6.74h455.9v.48l-.13 7.1z"/><path fill="none" d="M22.6 256.14h467.15"/></svg>