<svg xmlns="http://www.w3.org/2000/svg" width="512" height="512"><path d="M376.8 258.6c-13.5 6.7 2.6 15 11 10.8 13.4 2.6 45.1-12.6 21.3-23-31.4-11-65.3-5.5-97.2-13.7 8.8-3.8 21.4 1.2 27.9-6.5.5-13-17.1-5.5-24.6-5.9-16.3-2.6-32.6 19-9.8 22.9 30.7 9.2 63.4 4.6 94.2 12.5-7.5 1.8-15.2 2.3-22.8 3zm-3.8 27.5c-20.4-1.6-41.2-1.5-61.1-6.8 8.8-3.9 21.4 1 27.9-6.6.5-13-17.1-5.5-24.6-6-16.2-2.5-32.6 19-9.7 22.8 30.6 9 63.2 4.2 94.1 12.4-7.7 4.7-32.5-3.8-26.5 12.3 10 4.3 21.8.5 32.1-1.4 19.1-1.2 13.8-22.7-2.8-22-9.6-2.4-19.6-3.7-29.4-4.7zM443 237c10.2 4.4 21.3-10.9 6.3-12-11.8-2.3-23.7 7-21.4 19.6 1 11-3.1 23.8 4.7 33 5.4 6.6 29.5 7.6 22.8-5.8-5.8-3.5-18.5 1.2-15.5-10.3.7-7.8-1.5-16.4 1.2-23.7zm45.3-12c-9 .3-18-.6-27 .5-12.8 11.3 9.8 8.5 8.6 15.4.3 12.7-.6 25.5.5 38 9.8 10.8 13.3-6.2 11.5-14V237c9 2.6 19.4-7.6 6.4-12zm-154.1 79h-221c22.6-14.8 31-47 20-71.6a61 61 0 0 0-19-24.4l273.8.1c10.7.7 13.8 3.7 1.9 4-11.1-4-27.9 10.5-10.2 12.6 13-1.7 29.4-.6 38.2-11.7.7-15.4-22-14.8-33.1-17-104 .2-207.9-.2-311.8.2-29 1.7-54 27.4-55 56.5-2.2 29 19.7 57 48.2 62.1 18 2.5 36.4.5 54.5 1.2h213.5c7.6 0 7.5-12.2 0-12zM114 208.1c-.1.5-1.3-.4 0 0zm-4.8 84.8c-20 18-54.5 14-70-8a48.6 48.6 0 0 1 11.8-69.1 48.6 48.6 0 0 1 68.4 15.4 48.6 48.6 0 0 1-10.2 61.7zm-21.7-67.4c-8.4-.3-9.1 10.6-13.2 16.1-2.8 4.9-5.6-8.6-8.3-11.6-6.5-11.7-15.2 1.6-12.1 10 .3 13.2-.7 26.6.5 39.7 9.8 10.7 13.3-6.3 11.5-14 0-7.3-1.2-13.5 4.1-3.9 9 2.8 10.8-13 9.9 1.4 1 6.8-3.5 18.3 6 20 9.5-1.8 4.9-13.5 6-20.5-.2-11.2.4-22.4-.3-33.5a5.7 5.7 0 0 0-4-3.8z"/></svg>