<svg xmlns="http://www.w3.org/2000/svg" width="512" height="512"><path d="M307.5 135.3c-17.5-2.2-19.9 18.5-27 30l-33 68.6c-14.4-30.3-29-60.5-43.5-90.7-15-21.5-32 4.1-27 21.2.2 66.8-.4 133.5.3 200.2 4.1 20.2 34.4 10.5 28.7-8.3v-143c10.5 21.2 19.7 43.1 31 63.8 14.6 14.2 26-5.5 30.4-18.1l21.6-45.7c.2 50.4-.4 101 .3 151.3 4.5 20 35.2 10.7 29.7-8.3V149.5c0-6.7-5-12.8-11.5-14.2zm188 112.9A243 243 0 0 0 420.7 82C361.2 24.3 270.7 2 191 25A240.4 240.4 0 0 0 25 190.4a239.5 239.5 0 0 0 226 304.7c13.8 1.4 28.5-1.4 42.6-3a240.3 240.3 0 0 0 201.8-243.6v-.4zM466 260.7a211.3 211.3 0 0 1-121.7 185.9A211.2 211.2 0 0 1 122.8 419 211.2 211.2 0 0 1 50 210.4 211.1 211.1 0 0 1 206.3 51c76-19.1 161.2 9 210.9 69.7a211.2 211.2 0 0 1 49 140z"/></svg>