<svg xmlns="http://www.w3.org/2000/svg" width="512" height="512"><path d="M483.6 198c-31.2.2-62.4-.3-93.5.3-12.8 3.8-8.3 19-9.1 29-1.2 5 2.4 14.9-2 16.7H268c-.3-9.2 2.5-22.9-9.5-25.6-13.2-2.5-15.8 12.2-14.5 21.9 1.1 7.3-10.1 2.2-14.8 3.7H40c-.3-9.2 2.5-22.9-9.5-25.6-13.2-2.5-15.8 12.2-14.5 21.9.5 15.3-1.1 30.9 1 46 6.1 15 27.4 4.6 23-9.6-2.2-8.4 2.4-10 9.9-8.7H244c.3 9.2-2.5 22.9 9.5 25.6 13.2 2.5 15.8-12.2 14.5-21.9-1.1-7.3 10.1-2.2 14.8-3.7H381c.4 12.7-1 25.7.9 38.3 4.8 11.6 18.7 6.6 28.4 7.7 25.2-.2 50.5.3 75.7-.3 13.1-3.1 9.5-18 10-28-.2-25.9.3-51.8-.3-77.7-1-5.6-6.4-10-12.1-10zM472 290h-67v-68h67v68z"/></svg>