<svg xmlns="http://www.w3.org/2000/svg" width="512" height="512"><path d="M389.5 354.3c14.7 0 15.4-16.1 14.5-27-.2-52.6.4-105.3-.3-158-3.8-19.5-33.8-11-28.7 7.5.2 55.3-.4 110.6.3 165.9a14.6 14.6 0 0 0 14.2 11.6zm-89 0c14.7 0 15.4-16.1 14.5-27-.2-52.6.4-105.3-.3-158-3.8-19.5-33.8-11-28.7 7.5.2 55.3-.4 110.6.3 165.9a14.6 14.6 0 0 0 14.2 11.6zm-89.5 0c14.8 0 16-16 15-27-.2-52.6.4-105.3-.3-158-4.1-19.4-34.5-11.3-29.7 7.5.2 55.3-.4 110.6.3 165.9 1.4 6.7 8 11.6 14.7 11.6zm-88.5 0c14.7 0 15.4-16.1 14.5-27-.2-52.6.4-105.3-.3-158-3.8-19.5-33.8-11-28.7 7.5.2 55.3-.4 110.6.3 165.9a14.6 14.6 0 0 0 14.2 11.6zm357-252.3h-447c-14.7 0-15.4 16.2-14.5 27.2.2 89.6-.4 179.4.3 269 3.4 15.4 20.8 11.3 32.3 11.8h428.9c14.7 0 15.4-16.2 14.5-27.2-.2-89.6.4-179.4-.3-269a14.7 14.7 0 0 0-14.2-11.8zM465 381H47V131h418v250z"/></svg>