<svg xmlns="http://www.w3.org/2000/svg" width="512" height="512"><path d="M448 295a192 192 0 0 0-179-185.9c-.2-26.4.4-53-.2-79.4-3.8-18-30.9-9.3-25.8 7.5v72A192.6 192.6 0 0 0 80.7 222.8a192.4 192.4 0 0 0 5.5 167.5 189.2 189.2 0 0 0-22 92c3.8 18.1 30.8 9.4 25.9-7.4a161 161 0 0 1 12.7-58.5 190.8 190.8 0 0 0 158.6 76c57.4-.6 113.6-30.1 147.9-76.1a175.6 175.6 0 0 1 12.9 66c4.2 17.8 30.8 8.6 25.6-7.9-.8-29.2-8.4-58.2-22-84a194 194 0 0 0 22.1-95.2zM394 392.8a166 166 0 0 1-277.9-2.5 166.2 166.2 0 0 1 279.5 0l-1.6 2.5zm27.8-86.4c-.7 19.8-5 39.6-12.6 58a192.4 192.4 0 0 0-184-74 192.1 192.1 0 0 0-122.5 74 166 166 0 0 1 209.6-219.6 166.3 166.3 0 0 1 109.5 161.6z"/></svg>