<svg xmlns="http://www.w3.org/2000/svg" width="512" height="512"><path d="M479.4 17H32.6C16 17 16.3 35.5 17 47.5v431.9c0 16.6 18.5 16.3 30.5 15.6h431.9c16.6 0 16.3-18.5 15.6-30.5V32.6c.2-8.4-7.2-15.8-15.6-15.6zM54.8 356.3c-4.6 9.2-8.5 15.3-6.8 1V48h192v192.7A232.7 232.7 0 0 0 54.8 356.3zm.8 107.7A201 201 0 0 1 176 288.5a201.2 201.2 0 0 1 209 30.3 201 201 0 0 1 71.3 145.1l-400.7.1zM464 368.2a235.3 235.3 0 0 0-181.5-126.5l51.7-89.5c12.6 6.3 23.9 16.2 37.7 19.3 22.5-1.1 18-30.3-.3-34.3-14-7.2-26.8-17.4-41.7-22.4-16.4-.5-19.4 18.4-27.3 29l-30.6 53V48h192v320.2z"/></svg>