<svg xmlns="http://www.w3.org/2000/svg" width="512" height="512"><path d="M322.6 432a125.9 125.9 0 0 0-92.2-115 126 126 0 0 0-137.3 51 126 126 0 0 0-21.4 69.8c5.3 24.4 29.5 6.3 25-11 4.2-46.7 45-86.4 91.8-89.7a101.8 101.8 0 0 1 105.6 71.4c4 11.1 3.6 23 5.5 34.5 8.5 15.2 26.7 4 23-11zm167.1-329.4l-67.9-39.2c-14.7-6.7-19.6 11.3-25.7 20.5L283.4 279.1a179.7 179.7 0 0 0-74.4-21.4v-157c-6.7-25.5-30.3-3.8-24 13.6v143.4A181.3 181.3 0 0 0 31 367.2a198.2 198.2 0 0 0-15 70.9c6.5 24.7 30 5.1 25.2-12.3a157.2 157.2 0 0 1 110-137.3c60-19.5 130.3 2.5 168.8 52.4a157 157 0 0 1 33.8 97.2c5 23.8 30.4 6.3 23.9-10.8-3-53-30.7-104.1-73.8-135.2l94.6-163.9c20.1 11.3 39.8 23.6 60.3 34.3 22.5 2 14.8-25.1-1.6-28.4l-46.6-26.9c4.5-4 6.2-18.8 12.9-14.8 19 10.7 37.7 22.4 57 32.4 13.3 3.8 21.4-15.3 9.2-22.2z"/></svg>