<svg xmlns="http://www.w3.org/2000/svg" width="512" height="512"><path d="M295 334.9c13.9-30.8-19.6-73.2-53-58.7-22.4 4.3-42 56.4-6.8 48.5 3.5-16.1 25.8-37.7 35-12.3 5 12.9-6.6 24-10.4 35.7-15 33.2-31.2 66-45.7 99.4-2.2 17.2 17.4 16 29 15.5 15.7-.6 31.6 1.2 47-1 21.4-15.1-5-29.6-21.2-25-5.6-1.8-23.1 4-19.6-3.7 15.2-32.8 30.5-65.5 45.6-98.4zm198.5 138.5a238.5 238.5 0 0 0-118.4-198.6A237.2 237.2 0 0 0 269 243.2V31.5c-7.3-27.7-32.8-4-26 14.8v197A238.4 238.4 0 0 0 46.9 367.6 247 247 0 0 0 18 480.5c6.8 26.8 32.6 5.7 27-13.2a212.2 212.2 0 0 1 124-179.5 212 212 0 0 1 218.7 27.4 211.8 211.8 0 0 1 79.7 165.6c3.8 23.2 31 12.7 26.2-7.4z"/></svg>