<svg xmlns="http://www.w3.org/2000/svg" width="512" height="512"><path d="M318.9 433.8a122.8 122.8 0 0 0-87.6-111.6 122.7 122.7 0 0 0-136.2 49.1 116 116 0 0 0-20.3 71.3c11.3 14 17.6-5.6 16.2-15.7 5-47.8 46-88.5 93.8-93 48-6.3 97.4 25 112.4 71 4.7 12.2 5.2 25.3 6.5 38 7 11 18 1 15.2-9zM489.5 105c-24-13.3-47.1-28.2-71.4-40.5-10.2 0-11.7 13.3-17.2 19.7L343.1 184H197c-.3 25.9.5 52.8-.4 78-67.3-1.7-132.9 40.5-161 101.5-11 23.7-17.6 50-16.6 76.1 6 18.1 19.6.3 16-11.4a162.5 162.5 0 0 1 106.6-141 162.3 162.3 0 0 1 217.1 152.7c5.6 18 20.6.9 15.7-10.8a178.3 178.3 0 0 0-75.8-135.5l77.6-134.3 61.4 35.5c21.6 2 7.5-18.7-4.7-21.2l-48.7-28.2 13.9-24.1 61.5 35.5c21.5 2 7.5-18.7-4.7-21.2L406 107.5l14-24.2 61.4 35.5c9.3 5.3 17-9 8-13.8z"/></svg>