<svg xmlns="http://www.w3.org/2000/svg" width="512" height="512"><path d="M420.5 473.5a165.4 165.4 0 0 0-108.6-147A164.9 164.9 0 0 0 91.5 481.1c6.3 26.7 31.9 6 26.8-12.8a138.8 138.8 0 0 1 111-122.8 139 139 0 0 1 165.2 136c3.9 23.5 31.9 11 26-8.1zm73.9.7c-1.8-83-50.7-163-124-202.1-31-17-66-27-101.4-28.9V30.6c-7.3-27.6-32.8-4-26 14.9v197.7A239.1 239.1 0 0 0 44.2 372.1 230.2 230.2 0 0 0 18 481.3c6.6 26.8 32 5.4 26.2-13.3a213 213 0 0 1 128.2-181.8 213 213 0 0 1 221 33.2 212.6 212.6 0 0 1 74.9 161.8c3.4 22.4 31.2 12.4 26-7z"/></svg>