<svg xmlns="http://www.w3.org/2000/svg" width="512" height="512" viewBox="0 0 512 512"><path d="M485.27 248h-50.33l-.34-2.55-.05-.3-.57-3.27-.08-.4-.73-3.23-.12-.48-.92-3.18-.12-.4-1.07-3.15c-.04-.12-.1-.24-.13-.36l-1.22-3.1-.16-.37-1.38-3.03c-.05-.12-.1-.24-.17-.36l-1.52-2.94-.2-.4-1.7-2.86-.22-.38-1.84-2.78-.23-.3-1.94-2.68-.28-.37-2.1-2.58-.25-.28-2.22-2.48-.27-.3-2.32-2.35-.3-.3-2.47-2.24-.3-.27-2.58-2.1c-.1-.1-.22-.2-.34-.27L404.1 196c-.1-.1-.2-.17-.3-.24l-2.77-1.84-.38-.24-2.87-1.7-.34-.18-2.94-1.55-.38-.2-3-1.38-.4-.17-3.06-1.24-.37-.14-3.14-1.1-.45-.14-3.17-.9c-.12-.05-.24-.08-.36-.1l-3.22-.78-.45-.1-3.3-.6c-.13 0-.16-.03-.3-.05l-2.9-.4v-4.78c0-4.56-3.9-8.17-8.45-8.17h-211.1c-4.55 0-8.45 3.6-8.45 8.17v4.8l-2.6.33-.35.07-3.24.58-.38.08-3.24.74-.43.1-3.2.93-.37.12-3.13 1.07c-.12.03-.25.08-.37.13l-3.1 1.23c-.16.05-.3.12-.45.18l-3 1.4-.3.15-2.96 1.52-.4.22-2.86 1.7-.36.2-2.75 1.84-.3.2-2.7 1.96-.37.3-2.57 2.08c-.1.1-.22.18-.33.28l-2.45 2.23c-.1.08-.2.17-.28.26l-2.35 2.32-.3.3-2.23 2.5c-.1.1-.2.2-.27.3l-2.1 2.56-.3.38-1.95 2.68-.2.3-1.84 2.76-.24.38-1.67 2.85-.17.3-1.57 2.95-.2.45-1.4 3-.14.36-1.24 3.07-.17.46-1.06 3.15c-.04.1-.08.22-.1.33l-.93 3.2-.1.4-.76 3.23-.07.4-.6 3.28-.06.37-.38 2.83H26.73c-4.57 0-8.27 3.94-8.27 8.5 0 4.56 3.7 8.5 8.27 8.5h50.33l.34 2.4.06.24.57 3.22.08.38.74 3.22.1.45.93 3.2c.04.15.1.28.13.42l1.08 3.13.12.34 1.22 3.08c.05.14.1.28.17.4l1.37 3.02.16.33 1.5 2.96c.1.13.16.26.24.4l1.67 2.86.25.4 1.82 2.76c.07.1.13.2.2.28l1.95 2.7.28.37 2.1 2.58c.1.1.17.2.26.3l2.23 2.46.27.3 2.32 2.36.33.3 2.46 2.24c.1.1.2.18.32.27l2.56 2.1c.1.1.23.18.34.27l2.68 1.97c.1.08.2.16.32.23l2.75 1.84.36.23 2.87 1.7.4.22 2.93 1.54c.1.06.22.1.33.16l3 1.4c.13.07.27.13.4.18l3.1 1.25.38.14 3.14 1.08.37.12 3.2.93c.13.04.27.08.42.1l3.2.77.44.1 3.3.58.3.06 2.9.4v4.1c0 4.56 3.9 8.16 8.45 8.16h211.1c4.55 0 8.45-3.6 8.45-8.17v-4.1l2.6-.33.38-.07 3.25-.6.35-.07 3.24-.74.43-.1 3.2-.93c.12-.05.24-.1.37-.13l3.13-1.07.37-.14 3.1-1.22c.16-.06.3-.12.45-.2l3-1.38.32-.16 2.94-1.53.4-.22 2.86-1.7.35-.2 2.76-1.83.3-.2 2.7-1.97c.13-.1.25-.2.38-.28l2.56-2.1.33-.27 2.46-2.23.28-.27 2.36-2.34.27-.28 2.24-2.46.3-.35 2.1-2.58.3-.37 1.93-2.68.2-.27 1.83-2.76.26-.4 1.67-2.88.16-.3 1.56-2.93c.07-.14.14-.28.2-.44l1.4-3 .14-.35 1.24-3.06c.06-.16.12-.3.17-.47l1.06-3.13.1-.3.94-3.18c.05-.15.1-.3.13-.47l.75-3.25.1-.45.56-3.26c.02-.1.04-.04.06-.16l.37-2.68h50.36c4.56 0 8.26-3.93 8.26-8.5 0-4.56-3.7-8.5-8.25-8.5zM142 313.06l-.55-.08-2.84-.52-2.75-.66-2.78-.8-2.73-.96-2.67-1.08-2.63-1.23-2.58-1.35-2.5-1.48-2.4-1.6-2.35-1.74-2.23-1.84-2.14-1.94-2.03-2.05-1.95-2.18-1.83-2.24-1.7-2.35-1.62-2.43-1.44-2.46-1.33-2.6-1.2-2.64-1.07-2.7-.96-2.78-.8-2.77-.62-2.8-.5-2.9-.38-2.84-.2-2.9-.08-2.93.1-2.85.23-2.9.38-2.9.52-2.85.66-2.82.82-2.82.92-2.74 1.08-2.68 1.2-2.6 1.36-2.58 1.47-2.5 1.62-2.44 1.7-2.34 1.82-2.22 1.95-2.16 2.06-2.05 2.17-1.96 2.22-1.82 2.36-1.72 2.42-1.6 2.5-1.47 2.57-1.35 2.62-1.2 2.7-1.08 2.76-.94 2.77-.8 2.83-.65 2.76-.5.3-.06v113.44zM353 326H159V186h194v140zm65.8-66.66l-.24 2.9-.38 2.92-.5 2.86-.64 2.78-.84 2.8-.92 2.76-1.1 2.68-1.18 2.62-1.38 2.58-1.46 2.5-1.6 2.42-1.72 2.35-1.82 2.24-1.95 2.14-2.07 2.06-2.16 1.96-2.22 1.8-2.37 1.73-2.43 1.6-2.48 1.47-2.58 1.34-2.62 1.2-2.7 1.08-2.76.94-2.78.8-2.83.65-2.78.53-.3.05V199.63l.55.08 2.82.53 2.8.67 2.76.8 2.73.96 2.7 1.1 2.6 1.2 2.6 1.36 2.5 1.48 2.4 1.6 2.34 1.73 2.23 1.83 2.14 1.95 2.03 2.07 1.95 2.18 1.85 2.26 1.7 2.34 1.6 2.44 1.45 2.47 1.32 2.57 1.2 2.66 1.08 2.7.95 2.78.8 2.75.63 2.82.5 2.9.38 2.84.2 2.92.1 2.9-.1 2.86z"/><path d="M170.35 265.82c0 .15.02.3.04.47l.3 3.3.1.6.56 3.27c.02.16.06.32.1.47l.75 3.23c.05.16.1.3.14.47l.94 3.18c.05.2.1.37.18.55l1.16 3.1.22.53 1.38 3.03.2.42 1.54 2.93.28.48 1.72 2.82c.1.17.22.33.34.5l1.94 2.7.28.38 2.08 2.58c.1.14.23.27.35.4l2.24 2.45.4.4 2.4 2.27c.1.12.23.23.36.34l2.54 2.14c.14.12.27.23.42.33l2.67 1.97.44.3 2.8 1.8c.15.1.3.2.45.27l2.88 1.62c.17.1.33.17.5.25l3 1.4c.15.08.3.15.46.2l3.08 1.23c.16.07.33.13.5.18l3.16 1.03c.18.07.36.12.54.17l3.2.8.52.12 3.27.6.5.07 3.3.4.55.06 3.32.27c.16 0 .3.1.47.1h.06l3.3-.1c.18 0 .36-.06.54-.07l3.32-.27.54-.07 3.27-.48.5-.08 3.26-.67c.17-.03.34-.07.5-.12l3.23-.86c.17-.06.35-.1.52-.17l3.13-1.07c.18-.05.35-.12.52-.2l3.08-1.27.46-.22.86-.42 1.75.82c.15.07.3.14.47.2l3.1 1.23c.16.07.3.13.47.18l3.14 1.03c.2.07.38.12.58.17l3.23.8c.16.05.32.1.48.12l3.24.6.52.07 3.3.4c.17.03.35.05.53.06l3.32.27c.16 0 .3.1.47.1h.06l3.33-.1c.2 0 .37-.06.55-.08l3.3-.26.52-.07 3.3-.47.52-.1 3.23-.66.5-.12 3.2-.86c.18-.06.35-.1.52-.17l3.14-1.06.52-.2 3.06-1.3c.14-.05.27-.1.4-.18l3-1.47c.18-.08.35-.17.5-.26l2.9-1.66c.16-.08.32-.18.47-.28l2.75-1.84.42-.3 2.65-2 .44-.37 2.5-2.17.33-.3 2.38-2.33.4-.4 2.22-2.5.35-.42 2.02-2.6.3-.43 1.87-2.74c.1-.13.2-.27.27-.42l1.7-2.86c.1-.14.17-.3.25-.44l1.5-2.95c.08-.16.16-.32.23-.5l1.33-3.05.23-.6 1.07-3.12.12-.4.9-3.2c.06-.17.1-.35.15-.53l.7-3.24.1-.55.48-3.28.06-.48.3-3.32c0-.16 0-.33.02-.5l.08-2.75v-.5l-.12-3.34c0-.2 0-.38-.03-.56l-.32-3.3-.07-.52-.54-3.28-.1-.48-.73-3.23-.14-.53-.95-3.2-.15-.47-1.13-3.1-.22-.53-1.35-3.04-.23-.47-1.54-2.95-.26-.47-1.73-2.84c-.1-.16-.2-.32-.32-.47l-1.92-2.72-.27-.36-2.06-2.6c-.1-.14-.23-.27-.34-.4l-2.22-2.46-.43-.44-2.4-2.3-.34-.3-2.5-2.15-.48-.38-2.7-2-.36-.23-2.76-1.8c-.17-.13-.34-.23-.5-.33l-2.93-1.6c-.14-.1-.28-.16-.43-.23l-2.98-1.43c-.16-.08-.32-.16-.5-.23l-3.07-1.23-.5-.18-3.17-1.05-.5-.15-3.22-.84-.52-.12-3.24-.62-.5-.08-3.3-.42-.55-.05-3.33-.2c-.18 0-.35 0-.54-.02l-3.32.02c-.16 0-.33 0-.5.02l-3.3.2-.53.06-3.3.43c-.17 0-.35.04-.52.08l-3.27.64-.5.12-3.22.85c-.18.04-.36.1-.53.15l-3.13 1.05-.48.18-3.08 1.26-.53.23-1.1.55-1.46-.7c-.16-.07-.3-.14-.47-.2l-3.08-1.24c-.17-.07-.33-.13-.5-.18l-3.13-1.04-.52-.16-3.2-.84-.56-.12-3.28-.62-.5-.08-3.3-.4c-.17-.04-.35-.05-.52-.07l-3.3-.2c-.18 0-.37-.02-.54 0h-3.32c-.17 0-.34 0-.5.02l-3.33.2-.53.06-3.3.43c-.18.02-.36.04-.54.08l-3.24.65-.5.1-3.22.86-.5.14-3.16 1.06c-.18.06-.35.12-.53.2l-3.06 1.25c-.16.07-.3.14-.47.2l-3 1.47-.48.26-2.87 1.63-.44.28-2.8 1.82-.4.3-2.68 2c-.17.12-.32.24-.47.38l-2.5 2.16-.32.3-2.38 2.3-.4.43-2.22 2.47-.3.36-2.08 2.6c-.13.17-.25.33-.36.5l-1.88 2.73-.24.37-1.73 2.85-.3.52-1.5 2.94-.2.43-1.35 3.04c-.08.17-.15.35-.2.53l-1.15 3.12-.17.53-.92 3.2-.14.53-.7 3.24-.08.4-.54 3.28-.08.67-.27 3.3-.02.4-.1 3.33c-.02.2-.02.4 0 .6l.13 3.32zm104.45-46.78l2.76-.36 2.77-.2h2.8l2.8.17 2.76.36 2.7.53 2.7.7 2.66.87 2.58 1.04 2.5 1.2 2.45 1.37 2.3 1.53 2.3 1.68 2.1 1.8 2 1.93 1.85 2.04 1.75 2.2 1.62 2.3 1.44 2.38 1.3 2.47 1.13 2.54.94 2.6.8 2.68.6 2.72.46 2.78.28 2.76.1 2.8-.08 2.24-.26 2.82-.4 2.78-.6 2.7-.78 2.72-.9 2.63-1.1 2.5-1.26 2.48-1.45 2.43-1.57 2.33-1.7 2.17-1.84 2.07-2 1.97-2.1 1.83-2.23 1.7-2.3 1.53-2.4 1.4-2.54 1.22-2.58 1.08-2.6.9-2.72.72-2.73.56-2.77.4-2.76.2h-2.8l-2.77-.14-2.77-.34-2.74-.52h-.02l.93-.92.36-.38 2.2-2.48.32-.38 2.06-2.6.34-.48 1.87-2.74.26-.43 1.7-2.86.24-.43 1.52-2.94c.1-.18.17-.37.25-.55l1.3-3.06.16-.42 1.14-3.13.2-.6.88-3.18.12-.48.7-3.24.1-.47.5-3.27c.03-.2.06-.4.07-.6l.27-3.32c.03-.16.04-.33.04-.5l.05-2.75v-.43l-.12-3.33c0-.17 0-.33-.03-.5l-.3-3.28c0-.18-.03-.35-.06-.53l-.53-3.3-.1-.6-.77-3.22c-.03-.16-.08-.32-.12-.47l-.95-3.18c-.05-.18-.1-.37-.18-.55l-1.16-3.1-.2-.46-1.35-3.03-.2-.42-1.52-2.95-.3-.52-1.72-2.84-.26-.42-1.9-2.72c-.1-.16-.23-.32-.36-.48l-2.1-2.6c-.1-.1-.2-.2-.28-.32l-2.22-2.46-.4-.4-.45-.44 2.27-.46zm-34.22 29.35l.95-2.63 1.1-2.53 1.3-2.5 1.43-2.4 1.57-2.28 1.72-2.18 1.9-2.08 1.95-1.94 2.14-1.8L256 227l1.17.9 2.15 1.8 1.97 1.9 1.88 2.1 1.78 2.2 1.57 2.25 1.44 2.36 1.27 2.48 1.15 2.6.97 2.6.8 2.68.62 2.7.42 2.7.25 2.8.1 2.87-.05 2.28-.23 2.76-.44 2.75-.6 2.78-.74 2.65-.95 2.63-1.1 2.57-1.25 2.45-1.44 2.43-1.56 2.3-1.72 2.18-1.88 2.1-1.97 1.95-2.1 1.83-1.55 1.17-1-.72-2.12-1.78-2-1.93-1.9-2.07-1.75-2.15-1.6-2.28-1.47-2.4-1.3-2.44-1.15-2.56-1-2.6-.78-2.65-.64-2.75-.47-2.74-.26-2.73-.1-2.84.05-2.8.26-2.73.43-2.76.6-2.73.78-2.68zm-53.74 10.9l.22-2.76.45-2.73.6-2.76.78-2.65.94-2.6 1.14-2.56 1.27-2.48 1.46-2.4 1.56-2.3 1.74-2.18 1.86-2.08 2-1.95 2.1-1.82 2.22-1.66 2.36-1.55 2.4-1.37 2.53-1.22 2.55-1.06 2.64-.88 2.72-.73 2.72-.54 2.76-.36 2.8-.18 2.8-.03 2.75.17 2.8.36 2.5.47-.7.7c-.13.1-.24.23-.34.35l-2.24 2.47c-.13.13-.26.28-.38.43l-2.05 2.6-.3.4-1.9 2.74c-.12.17-.23.34-.33.52l-1.67 2.84-.2.36-1.54 2.94c-.1.18-.18.35-.26.53l-1.32 3.04-.2.5-1.13 3.1-.17.54-.92 3.2-.12.47-.73 3.25-.1.53-.5 3.27-.07.47-.32 3.3c0 .24-.03.46-.03.7l-.05 3.3v.4l.1 3.32.04.54.33 3.3c0 .2.03.4.07.6l.56 3.28.1.48.76 3.22.1.47.96 3.18c.06.22.13.42.2.62l1.2 3.1.16.42 1.35 3.02.26.53 1.57 2.92c.07.15.16.3.24.43l1.73 2.82.3.45 1.9 2.7.33.43 2.08 2.58.38.44 2.27 2.44c.1.13.22.24.33.35l.22.2-2.05.43-2.76.38-2.78.2-2.77.03-2.78-.17-2.77-.34-2.77-.52-2.68-.68-2.64-.86-2.6-1.04-2.52-1.18-2.42-1.35-2.36-1.5-2.25-1.66-2.14-1.8-2.03-1.9-1.87-2.05-1.77-2.2-1.63-2.27-1.43-2.34-1.3-2.48-1.17-2.55-.96-2.56-.8-2.68-.64-2.76-.47-2.73-.28-2.77-.1-2.77.1-2.82z"/></svg>