<svg xmlns="http://www.w3.org/2000/svg" width="512" height="512"><path d="M218.9 404h-27.3c12.2-27 25.7-53.5 37-80.6 5.4-24-21-51.2-44.7-38.2-19.7 4.5-25.6 50 .6 33.5.7-25.2 32.8-12.5 21.4 5.8-13.5 29.6-27.9 58.9-40.9 88.7-1.4 14.4 15.5 11.8 25 11.8 11-.4 22 1 33-.8 10.3-4.2 7-20.4-4.1-20.2zm269.8-300L420.9 65c-13.6-5.8-17.5 11.4-23.4 19.7L283.9 281.4a179.4 179.4 0 0 0-81-22.3c-9.2-2.4-19.4 1-29 1.4A179.5 179.5 0 0 0 27 382c-6 19.3-10.4 39.9-8.2 60.1 12.8 17.2 23-4.7 20.6-17.6a158.8 158.8 0 0 1 112.2-138A158.2 158.2 0 0 1 355.4 438c5.1 20.9 26.3 4.2 20.4-10.5-2.9-53.1-31-104.1-74.4-134.8L419.4 88c20.6 11.6 40.7 24 61.4 35 11.4 3.3 18.5-13.2 7.9-19z"/></svg>