<svg xmlns="http://www.w3.org/2000/svg" width="512" height="512"><path d="M298.3 318.7c.7-28-28.3-56.2-56.4-44-19.1 5.9-41.8 44.8-13.4 51.7 16.1-1.2 20.7-44.2 39-17.7 7.8 13-4.8 24.6-8.6 36.5-14.9 32.7-30.8 64.9-45 97.8-2.3 17.8 18 16.6 30 16 15.3-.6 30.9 1.3 45.9-1 20.7-12.1-.9-32.5-17.7-27-6-1.5-21.8 3.1-21.4-2.4 15.4-34.2 32.6-67.7 46.8-102.3.6-2.5.8-5 .8-7.6zM483 16c-152 .2-304-.4-455.9.3-16.4 5-9.7 24-11.1 36.8.2 144.2-.4 288.5.3 432.8 5 16.4 24 9.7 36.8 11.1 144.2-.2 288.5.4 432.8-.3 16.4-5 9.7-24 11.1-36.8-.2-144.2.4-288.5-.3-432.7A14 14 0 0 0 483 16zM50.3 365c-3.8 5.8-7.8 21-6.3 6V44h198v198a238.3 238.3 0 0 0-152.4 69.8A235.2 235.2 0 0 0 50.3 365zm.7 103c1-81.8 57.7-158.6 134.7-185.6A206 206 0 0 1 400 328.9a206.2 206.2 0 0 1 61.3 139L51 468zm417-88.9c-29-67.8-94-118.3-166.2-132.5-7.4-1.5-14.8-2.6-22.4-3.3l55.1-95.4c13.1 6.5 24.8 16.7 39 20.4 22.5-2.4 12.8-28.6-3.6-32.2-13-6.8-25-16-38.8-21.1-15.6-.2-18.3 18-26 28L270 204V44h198v335.1z"/></svg>