<svg xmlns="http://www.w3.org/2000/svg" width="512" height="512"><path d="M52.35 193c-10.66.93-22.33-2.34-32.06 2.72-6.06 8.86-2.2 20.66-3.29 30.94v82.74c2.41 13.64 18.35 8.64 28.22 9.6 14.33 1.38 29.96-2.5 37.57-15.9 17.27-28.58 17.45-68.9-3.02-95.96-6.67-8.2-16.6-14.25-27.42-14.14zm4.1 106c-6.11-.74-15.17 1.47-19.45-1.1V213c10.4.02 23.34-2.01 29.13 9.23 12.85 21.44 12.41 51.52-1.93 72.13-2 2.28-4.54 4.52-7.75 4.64zm433.25-51.58L284.4 124.24c-13.95-6.54-17.04 10.64-15.4 20.61v234.33c1.72 15.26 17.98 8.84 25.68 2.4L489.7 264.56c6.4-3.53 6.4-13.66 0-17.15zM289 361.52V150.48L464.86 256C406.25 291.18 347.59 326.33 289 361.52zm-74.9-168.68c-9.66 1.3-20.42-2.28-29.12 2.88-5.56 9.44-1.95 21.4-2.98 32.03v81.65c6.07 21.48 25.32 2.54 20-12.01V266c18.08 2.1 38.1-6.5 43.56-25.15 7.72-21.59-8.74-46.34-31.46-48.01zm9.2 47.43c-3.35 5.12-23.65 11.07-21.3.26V213c12.05-2.06 27.48 3.58 25.23 18.55a16.36 16.36 0 0 1-3.93 8.72zm-88.34-47.43c-9.63 1.3-20.4-2.3-29.06 2.88-5.42 9.5-1.89 21.4-2.9 32.03v81.65c6.07 21.48 25.32 2.54 20-12.01V266c18.05 2.1 37.99-6.55 43.43-25.16 7.66-21.67-8.61-46.26-31.47-48zm9.2 47.44c-3.3 5.1-23.57 11.08-21.16.25V213c12.02-2.08 27.36 3.67 25.1 18.55-.38 3.22-1.8 6.3-3.94 8.73z"/></svg>