<svg xmlns="http://www.w3.org/2000/svg" width="512" height="512"><path d="M343.36 105c-46.37.2-92.78-.38-139.13.29-16.04 4.3-10.1 23.18-11.23 35.4.19 84.82-.37 169.68.28 254.47 3.96 19.78 33.37 10.05 27.72-8.23V270c24.2-.18 48.42.37 72.59-.28 19.77-3.96 10.04-33.37-8.24-27.72H221V133c41.73-.18 83.5.37 125.22-.28 16.47-2.88 13.87-28.18-2.86-27.72zm80.86-17.22C359.29 20.91 253.57-.24 167.55 35.06 80.92 68.7 19.15 156.98 18.25 250.05 14.73 340.22 68.22 428.9 149.1 468.63c85.19 43.93 196.32 29.28 266.53-36.23 67.05-59.07 94.42-157.55 68.82-242.96a236.6 236.6 0 0 0-60.23-101.66zM256 465.48c-93.05 1.62-180.99-66.86-202.87-157.2-23.3-85.23 14.97-182.16 90.05-228.71C218.48 29.55 325.7 37.35 393 97.67c69.25 57.98 92.43 162.73 53.94 244.46C414.22 416 336.96 466.35 256 465.48z"/></svg>