<svg xmlns="http://www.w3.org/2000/svg" width="512" height="512"><path d="M490.63 248.5c-62-36.97-123.62-74.66-185.84-111.19-12.81-2.2-10.9 13.03-10.79 21.25.18 69.99-.37 140.02.28 209.98 4.4 12.33 16.7 3.04 23.65-1.37 58.11-35.1 116.66-69.58 174.5-105.07 3.92-3.81 2.98-10.94-1.8-13.6zM311 350.76V161.23L468.96 256c-52.65 31.58-105.32 63.2-157.96 94.76zM73.95 200c-17.07.37-34.28-.75-51.27.6-9.35 5.01-4.45 17.09-5.68 25.75v77.45c6.23 19.36 22.84 1.3 18-11.75V265c8.85-.94 18.88 2.35 26.65-2.69 9.38-14.37-10.08-16.83-20.07-15.31-9.6 3.14-6-6.94-6.58-12.81 1.4-5.04-2.83-15.72 2.14-17.19 13.39-.39 26.93.8 40.22-.65 8.78-3.3 5.91-16.73-3.41-16.35zm27.05 3.53c-12.7 1.46-8.17 16-9 24.78v71.4c6.23 19.36 22.84 1.3 18-11.75V212.3c.08-4.78-4.3-8.86-9-8.77zm94.67 89.54l-33-28.3c12.3-3.94 20.79-16.88 22.42-29.08-1.99-14.73-14.2-29.65-30.1-30.38-9.84-1.26-26.94-6.26-28 8.05v86.35c6.23 19.36 22.84 1.3 18-11.75 1.22-3.87-2.99-19.56 3.24-12.54 13.02 10.7 25.2 22.57 38.76 32.52 9 3.42 16-8.8 8.68-14.87zm-40.16-44.53c-8.2 2.83-12.72 1.37-10.5-7.97.7-5.9-1.4-15.08 1.06-18.93 9.07.32 18.2 3.73 21.02 13.2-.42 5.26-5.49 13.13-11.58 13.7zM257.7 221c19.37-6.22 1.3-22.85-11.74-18-9.37.98-20-2.46-28.23 2.83-5.13 9.26-1.75 20.72-2.72 31.03v62.86c1.82 13.2 16.9 8.37 26.15 9.28 8.95-.92 23.7 3.89 25.33-9-1.46-12.7-16-8.17-24.78-9-8.34 1.9-11.69-1.2-9.71-9.61V261c11.17 3.28 30.32-6.1 15.67-17.27-5.87-2.83-18.88 3.75-15.67-7.14 1.6-5.02-3.91-17.15 4.27-15.59h21.43z"/></svg>