<svg xmlns="http://www.w3.org/2000/svg" width="512" height="512"><path d="M65 209c-13.93.39-28.01-.8-41.84.64-8.53 5.38-4.02 16.78-5.16 25.25.41 20.95-.84 42.06.66 62.9 11.06 14.6 19.3-4.99 16.34-15.72 1.27-5.1-2.6-15.36 2.06-17.07 9.85 1.68 28.37-1.47 19.17-15.3-4.92-6.55-18.47 1.02-21.23-4.76V226c11.11-.39 22.37.8 33.38-.66 8.65-3.33 5.85-16.64-3.38-16.34zm67.27 75.56l-24.48-20.98c9.75-5.46 19.86-18.55 15.18-30.22-4.38-11.34-14.4-20.12-26.98-20.28-11.28-4.06-24.27 1.48-21.01 14.81v63.24c5.77 19.08 21.65 1.23 17-11.3-2.26-11.38 4.62-2.88 9.37 1 7.53 6.03 14.28 13.15 22.34 18.44 8.9 3.38 15.8-8.71 8.58-14.71zm-27.94-40.18c-7.1 8.37-15.7 5.35-12.33-5.25-3.82-10.99 7.6-11.21 12.71-3.26 2.83 3.35 1.72 5.14-.38 8.51zm41.17-32.36c-12.12 1.57-7.64 15.63-8.5 24.1.41 19.43-.84 39.03.66 58.37 11.06 14.6 19.3-4.99 16.34-15.72-.42-20.47.85-41.1-.66-61.46a8.46 8.46 0 0 0-7.84-5.29zM317.78 282c-5.52-.75-14 1.45-17.78-1.03V262c15.77 5.24 21.49-19.73 2.81-17-5.98-.29-1.35-11.19-2.81-16 8.86-1.15 20.61 3.55 25.9-5.7 3.54-14.38-13.46-12.46-22.53-12.3-8.63-.5-22.3-1.28-20.37 11.74V258c-5.78-9.38-17.62-4.98-26.66-6-17.42 4.09-4.13 22.72 8.66 18 2.98 11.78-3.36 17.06-16.01 12.59-12.67-4.9-12.28-21.67-11.88-33.24-1.09-13.67 14.33-26.44 26.85-18.77 13.56 10.94 23.8-12.74 6.95-15.86-10.09-5.93-23.18-4.2-33.16.96-22.02 15.05-23.4 47.66-11.35 69.4 9.43 18.94 33.33 16.75 50.77 12.76 3.57.04 5.25-8.87 6.01-2.86 6.93 7.08 18.06 2.91 27.06 4.04 12.48 3.86 25.4-12.93 7.54-17.02zm172.06-33.52l-148.06-88.84c-12.67-5.77-15.25 9.76-13.78 18.74v166.56c2 13.68 16.46 7.22 23.4 1.57 46.66-28.28 93.77-55.92 140.16-84.6 3.89-3.77 3-10.8-1.72-13.43zM346 329.64v-147.3l122.6 73.57L346 329.64zM183.93 209c-8.48 1.2-19.96-3.46-25.33 5.06-1.37 26.05-.22 52.32-.6 78.45-1.27 12.88 13.17 10.39 21.5 10.49 14.86 2.3 28.71-7.8 32.73-22.21 8.25-23.58 5.52-56.56-18.56-69.72a24.14 24.14 0 0 0-9.74-2.07zm2.9 77c-6.36.01-14.8 2.11-11.83-7.2V226c13-3 22.36 8.62 23.3 20.88 1.47 12.85 1.38 32.18-11.47 39.12z"/></svg>