<svg xmlns="http://www.w3.org/2000/svg" width="512" height="512"><path d="M75 191.62c-13.7 1.47-9.25 17.1-10 26.6V240H37c-.42-14.02.9-28.2-.77-42.11-12.04-16.84-22.77 4.56-19.23 17.07v93.5c5.9 21.89 25.34 2.7 20-11.99V261h28c.46 17.13-.95 34.44.77 51.45 12.04 16.83 22.77-4.56 19.23-17.07v-93.5c.18-5.4-4.5-10.43-10-10.26zM250.6 296.1l-36.1-30.93c13.07-4.23 19.97-17.15 24.59-29.12.19-13.35-8.71-26.76-19.81-33.82-12.4-5.15-26.68-6.75-39.76-5.24-10.4 5.95-5.3 19.22-6.53 29.07v77.84c6.13 21.77 26.46 3.08 21-11.99 1.23-4.13-2.72-19.52 2.48-15.02 14.75 12.05 28.5 25.5 43.88 36.65 10.36 4.23 18.95-10.48 10.25-17.44zm-45.3-49.7c-7.53 2.03-14.07 2.91-11.3-7.02V217.2c8.8.9 19.6 1.92 22.57 11.98 4.33 6.09-5.37 16.4-11.27 17.22zM157.08 192H99.64c-21.77 6.13-3.08 26.46 11.99 21 9.83-2.99 5.46 8.23 6.37 14.17v81.28c5.9 21.89 25.35 2.7 20-11.98V213c9.67-1.2 22.68 3.81 28.53-6.47 2.96-6.46-2.28-14.7-9.45-14.53zm330.07 54.35L282.12 123.13c-14.03-6.63-16.62 10.9-15.12 20.77v234.3c1.26 15.54 17.76 9.12 25.45 2.63l194.72-116.89c6.59-3.63 6.52-14.02-.02-17.59zM288 360.08V150.06l174.84 105.08L288 360.08z"/></svg>