<svg xmlns="http://www.w3.org/2000/svg" width="512" height="512"><path d="M488.4 247.87L285.46 126.12c-13.52-6.24-15.9 10.58-14.46 20.04v231.58c1.68 14.79 17.3 8.09 24.68 2L488.4 264.14c6.08-3.35 6.04-12.93.01-16.26zM290 361V151l175.03 105L290 361zM77.5 193.72c-13.22 1.48-8.7 16.6-9.5 25.75V242H38c-.43-14.14.9-28.47-.75-42.49-11.87-15.81-21.59 4.84-18.25 16.71v92.57c6.13 20.6 24.1 1.91 19-11.93V261h30c.47 17.14-.96 34.47.75 51.49 11.86 15.8 21.6-4.82 18.25-16.7V203.2c.12-5.08-4.42-9.6-9.5-9.48zm56.3 0c-26.1 1.36-38.32 30.04-40.29 52.67-2.2 25.13 3.97 56.2 28.05 69.13 21.63 10.37 42.54-9.84 48.18-29.6 9.26-28.63 6.48-65.87-18.09-86.15-5.15-3.77-11.43-6.1-17.85-6.05zm0 105.6c-19.19-5.64-22.12-30.71-21.67-48.01-.67-15.52 11.78-49.56 31.3-33.7 16.27 20.7 16.14 53.03 1.81 74.72-2.81 3.53-6.65 6.87-11.44 6.99zm114.6-28.74c-1.56-7.52-7.41-13.6-12.71-18.83 8.6-9.23 17.43-23.88 9.43-36.25-6.77-19.78-31.98-29.64-49.77-17.87-8.74 4.23-17.13 12.08-15.31 22.18v79.2c2.72 10.06 14.55 13.96 23.18 18.02 19.86 9.8 44.07-5.31 44.95-27.18.94-6.37.95-12.91.23-19.27zM199 217.54c15.05-17.92 42.42 9.3 21.33 22.1-10.04 8.02-26.05 4.21-21.33-9.95v-12.15zm23.5 82.04c-10.88 3.42-27.82-2.89-23.5-16.42-3.7-12.43 9.28-25.24 21.55-18.74 12.7 6.67 11.51 26.57 1.95 35.16z"/></svg>