<svg xmlns="http://www.w3.org/2000/svg" width="512" height="512"><path d="M145 241h-44v-42c-7.12 1-18.16-1.93-23 1.34V311c7.12-1 18.16 1.93 23-1.34V261h44v50c6.53-1.7 19.93 3.48 22-2.69V199h-22m142.06 81c-5.36-26.57-11.3-54.08-16.97-81h-24.77c-5.7 26.83-10.58 54.5-15.87 81-4.39-27.31-11.59-54.06-17.76-81h-24.92l31.6 112c7.31-2.2 22.47 5.2 22.91-5.38A5534.8 5534.8 0 0 0 257.77 223c5.1 29.46 11.17 58.74 17.3 88 7.18-1.57 19.2 3.25 23.15-2.59L328.94 199c-7.54 1.66-20.49-3.49-24.31 2.87-5.94 26.02-12.43 51.93-17.57 78.13zM399 292.72c-24.53.13-30.5-29.77-26.97-49.04-1.33-26.19 38.62-40.09 49.8-14.68 1.63 11.15 16.53 3.97 24.79 6 .31-23.1-24.78-41.63-47.76-39.8-30.16-1.96-52.35 26.94-51.33 55.3-2.92 28.2 14.22 61.27 45.55 62.3 25.13 5.1 53.83-17.56 52.7-40.8-9.25 1.82-24.74-5.67-25.24 8.72-4.13 7.79-12.86 12.24-21.54 12zM255.84 18.4C162.4 17.14 72.49 77.42 37.09 163.71.5 247.6 18.83 351.64 82.09 417.83c60.79 66.97 161.46 93.08 247.16 64.2 90.68-28.37 159.02-115.6 163.86-210.64 7.06-91.55-45.05-183.68-126.58-225.6A236.8 236.8 0 0 0 255.84 18.4zm0 446.05c-92.52 1.6-179.97-66.48-201.73-156.3-23.75-86.53 16.53-184.92 93.8-230.36 76.11-48 182.6-37.58 248.12 24.02 67.52 59.34 88.14 164.18 47.81 244.57-33.62 71.06-109.26 118.92-188 118.07z"/></svg>