<svg xmlns="http://www.w3.org/2000/svg" width="512" height="512"><path d="M254.12 195c-19.52.48-39.23-.98-58.63.78-16.62 12 4.48 22.76 16.95 19.22 8.58-2 2.97 10.17 4.56 15.15v76.45c5.92 21.64 25.32 2.7 20-11.9V215c8.97-1.04 21 3.42 26.46-6.08 2.98-6.36-2.36-14.22-9.34-13.92zm-75.52 0c-18.16.5-36.53-1.04-54.54.84-9.88 6.7-4.8 19.98-6.06 30.12v80.64c6.16 21.51 26.44 3.09 21-11.9V266c9.9-1.26 22.98 3.83 29.35-6.07 4.33-15.81-14.45-14.25-24.5-13.93-8.82 2.16-3.33-10-4.84-15.15 1.62-5.11-3.96-17.42 4.33-15.85 13.05-.43 26.28.92 39.22-.77 10.1-3.75 6.78-19.72-3.96-19.23zM65.94 297H37v-91.85c-5.93-21.64-25.31-2.69-20 11.91v89.54c1.14 13.92 16.74 9.77 26.26 10.4 9.93-.92 21 2.38 29.84-2.9 6.47-5.92 1.57-17.5-7.16-17.1zM92 195c-13.64 1.42-9.27 16.94-10 26.38v85.22c5.92 21.64 25.32 2.7 20-11.9v-89.55c.16-5.4-4.59-10.3-10-10.15zm397.98 52.3l-194.8-116.7c-13.83-6.43-15.39 11.18-14.18 20.6.18 74.73-.35 149.5.27 224.2 4.07 13.61 17.76 4.36 25.19-.64l183.6-110.06c6.51-3.64 6.44-13.8-.08-17.4zM301 354.86v-197.7L465.96 256c-54.98 32.95-109.99 65.9-164.96 98.86z"/></svg>