<svg xmlns="http://www.w3.org/2000/svg" width="512" height="512"><path d="M489.66 247.54l-178.84-107.3c-13.7-6.49-17.65 10.07-15.82 20.16v202.89c2.04 14.89 18.04 8.93 25.74 2.45L489.6 264.45c6.33-3.46 6.36-13.44.06-16.91zM315 345.86V166.13L464.8 256 315 345.86zM109.1 205c-9.41.96-20.02-2.43-28.3 2.88-5.21 9.75-1.82 21.67-2.79 32.46v67.57c1.06 13.6 16.31 9.46 25.58 10.1 14.25 1.75 28.99-4.47 35.18-18.14 13.35-26.47 12.83-62.75-7.97-85.32-5.71-5.72-13.51-9.6-21.7-9.55zm3.58 93c-5.36-1.3-17.13 3.8-14.68-5.3V225c11.58-1.96 23.43 3.31 26.28 15.73 5.67 17.81 6.59 46.75-11.6 57.27zm137.44-92.95c-9.56 1.1-22.31-3.77-28.35 5.97-1.74 21.66-.3 43.64-.77 65.43.39 11.75-.84 23.66.72 35.3 11.64 16.28 21.64-4.62 18.28-16.57V272c19.5 2.45 40.38-12.18 40.13-32.99.67-16.97-13.1-32.53-30.01-33.96zm7.04 42.13c-4.4 5.86-21.18 8.89-17.16-2.61V225c10.71-2.45 23.88 5.15 19.74 17.62 2.3.37-4.36 4.57-2.58 4.56zm-75.96-42.13c-9.59 1.1-22.33-3.76-28.42 5.97-1.76 21.3-.3 42.93-.78 64.36.4 12.11-.84 24.38.72 36.38 11.64 16.27 21.64-4.63 18.28-16.58V272c19.5 2.46 40.44-12.14 40.18-32.99.7-16.97-13.13-32.56-29.98-33.96zm7.02 42.13c-4.4 5.86-21.23 8.9-17.22-2.61V225c10.72-2.44 23.96 5.1 19.8 17.6l-1.05 2.4zM62.87 225c21.04-5.95 2.75-25.25-11.68-20-9.26.38-18.7-.85-27.83.77-8.84 6.48-4.18 18.75-5.36 28.2v73.94c.63 13.65 15.89 9.44 25 10.1 9.78-1.26 22.82 3.84 28.96-6.14 4.28-15.53-14.03-14.26-23.96-13.86-7.41.91-13.71.71-11-8.5v-22.5c11.84 3.48 31.23-7.52 15.38-18.29-6.62-2.3-18.87 3.24-15.38-8.15 1.59-5.02-3.89-17.1 4.25-15.57h21.62z"/></svg>