<svg xmlns="http://www.w3.org/2000/svg" width="512" height="512"><path d="M272.68 201c-13.87 1.74-9.26 17.53-10.02 27.24l.08 32.01c-10.52-18.6-19.72-38.08-31.1-56.1-14.41-9.6-19.87 9.07-17.64 20.13v76.07c5.78 21.33 25.26 2.94 20-11.59v-37.34c10.51 18.57 20.16 37.7 31.22 55.93 13.2 10.42 20.3-7.59 17.67-18.61l-.16-77.42c.07-5.38-4.57-10.41-10.05-10.32zm-71.56 20c21.34-5.76 2.94-25.26-11.59-20-9.85 1.04-21.1-2.68-29.62 3.24-5.4 10.17-1.92 22.51-2.91 33.73v62.38c.94 13.9 16.3 10.16 25.8 10.65 9.33-1.14 21.78 3.62 27.6-6.1 4.33-15.55-14.08-14.3-24.03-13.9-8.9 2.27-10.83-2.43-9.37-10.53 1.3-5.23-2.66-15.71 2.1-17.47 16.79 5.93 26.76-21.08 5.21-20-9.68 3.03-7.17-6.13-7.31-12.63-2.28-8.91 2.44-10.83 10.53-9.37h13.59zm287.98 26.38L318.6 145.06c-13.71-6.56-17.34 10.22-15.6 20.21v193.02c1.64 15.08 17.8 9.2 25.48 2.7l160.61-96.35c6.43-3.6 6.45-13.66.01-17.26zM324 340.53V171.48L464.87 256c-46.95 28.17-93.93 56.38-140.87 84.53zM54.34 201.6c-25.06 1.54-35.87 29.86-36.3 51.56-.81 22.44 7.72 51.46 32.53 56.98 24.72 2.53 38.18-24.7 39.7-45.73 2.2-23.12-4.48-52.59-28.53-61.73 1.81 1.02-9.2-2.86-7.4-1.08zm0 88.68c-18.92-9.1-18.5-36.76-12.81-54.31 5.35-24.18 29-9.32 28.08 9.12 1.98 15.13 1.29 38.63-15.27 45.19zm93.24-88.3c-13.35-2.54-13.65 13.26-16.84 22.05l-11.53 39.99-15.9-55.16c-11.49-18.87-25.27 4.15-16.15 16.7 8.08 26.79 14.86 54.07 23.78 80.53 11.41 12.4 20.29-4.5 21.44-15.09l22.1-76.56c1.62-5.15-1.68-11.1-6.9-12.46z"/></svg>