<svg xmlns="http://www.w3.org/2000/svg" width="512" height="512"><path d="M72.3 284.9l-25-21.4c9.96-4.3 16.96-15.59 16.95-26.22-3.84-12.32-13.93-23.36-27.71-23.18-10.91-3.77-22.69 1.67-19.53 14.36.4 21.87-.82 43.9.63 65.65C28.6 307.88 35.75 288.73 33 278.6c-2.27-11.43 4.69-2.62 9.37 1.18 7.5 6.16 14.33 13.21 22.27 18.76 8.18 3.11 14.4-8.24 7.65-13.63zm-32.55-35.77c-9.3 4.53-6.43-5.27-6.75-11.31-4.16-11.42 10.3-8.95 13.38-1.05 3.97 4.26-2.7 11.34-6.63 12.36zM304.14 230c18.09-5.98.41-20.4-11.38-16-8.09 1.07-21.45-3.74-23.76 7.2v69.78c2.42 10.8 15.75 5.9 23.81 7.02 11.79 4.41 29.4-10.05 11.33-16H285v-20c13.08 5.15 24.62-15.3 6.33-16-9.3 3.05-5.74-6.75-6.33-12.41-.9-7.26 10.75-1.99 15.51-3.59h3.63zM263 289.64c-.29-10.5.6-21.1-.5-31.53-4.39-8.51-15.44-3.95-23.23-5.11-19.01 4.47-1.64 18.92 7.73 17.03 1.18 9.09.6 17.86-12.3 13.3-14.56-.17-16.63-18.6-16.7-29.74-.63-12.45 7.84-26.65 21.58-25.73 8.33 5.75 27.87 7.5 20.01-8.26-9.87-7.31-22.73-9.73-34.4-5.27-9.26 3.2-16.15 12.28-19.9 21.05-6.54 20.21-4.35 48.15 14.96 60.61 12.34 5.43 26.81 3.9 39.53.62 2.02-1.09 5.38-5.1 3.22-6.97zM188.76 212c-11.71 1.73-7.07 15.42-7.98 23.66l.06 24.17c-8.51-15.1-16.02-30.87-25.17-45.55-12.91-7.98-15.07 9.41-13.67 18.36.4 20.72-.82 41.6.63 62.22 10.94 13.81 18.11-5.4 15.37-15.53v-27.39c8.44 15.07 16.19 30.59 25.06 45.39 11.83 8.67 15.77-8.04 13.87-16.99-.46-21.1.72-42.38-.79-63.38a8.04 8.04 0 0 0-7.38-4.96zm-58.6 58.46c-5.45-17.94-9.88-36.26-16-53.95-10.38-10.63-16.42 5.65-17.73 14.3-5.45 20.41-12.54 40.52-16.95 61.12 6.37 16.1 18.77.2 18.72-10.2 2.02-5.84 11.93-1.3 17.3-2.74 4.3 5.84 2.39 21.65 14.46 19.44 11.73-4.7 1.18-19.6.2-27.97zM103.6 263c1.81-3.8 3.63-19.66 5.43-8.86 2.58 7.45 4.02 10.33-5.43 8.86zm386.74-15.67l-146.67-88.19c-13.68-6.6-17.41 10.13-15.67 20.15V344.1c1.5 15.1 17.7 9.48 25.4 2.9l136.92-82.14c6.55-3.62 6.54-13.94.02-17.54zM348 326.06v-140.1l116.62 70.12L348 326.06z"/></svg>