<svg xmlns="http://www.w3.org/2000/svg" width="512" height="512"><path d="M488.92 247.26L242.27 99.44C228 92.87 225.47 110.61 227 120.6v283.36c1.77 15.6 18.25 8.54 26.03 2.12 78.63-47.2 157.25-94.42 235.88-141.63 6.44-3.53 6.38-13.69.01-17.19zM247 386.26V125.73l217.13 130.13c-72.37 43.47-144.77 86.92-217.13 130.4zM54.3 181.93c-11.05 1.24-23.33-2.58-33.33 2.88-5.59 9.86-1.91 22.2-2.97 33.24V319.9c6.4 21.78 25.38 2.05 20-12.55V266c18.68 1.6 39.83-3.22 49.05-21.44 15.28-25.5-3.24-60.46-32.75-62.63zm12.75 56.43c-5.1 7.8-24.06 10.72-29.05 5.36V202c12.01-.56 27.14-.67 32.38 12.83 3.54 7.63 2.3 17.2-3.33 23.53zm79.97-56.43c-11 1.26-23.26-2.6-33.18 2.88-5.36 9.95-1.82 22.2-2.84 33.24V319.9c6.4 21.78 25.38 2.05 20-12.55V266c18.62 1.62 39.63-3.35 48.8-21.46 15.27-25.48-3.27-60.5-32.78-62.61zm12.77 56.42c-4.97 7.67-23.94 10.82-28.79 5.37V202c11.94-.6 26.93-.55 32.11 12.83 3.55 7.63 2.3 17.2-3.32 23.52z"/></svg>