<?xml version="1.0" encoding="UTF-8" standalone="no"?>
<svg
   xmlns:dc="http://purl.org/dc/elements/1.1/"
   xmlns:cc="http://creativecommons.org/ns#"
   xmlns:rdf="http://www.w3.org/1999/02/22-rdf-syntax-ns#"
   xmlns:svg="http://www.w3.org/2000/svg"
   xmlns="http://www.w3.org/2000/svg"
   xmlns:sodipodi="http://sodipodi.sourceforge.net/DTD/sodipodi-0.dtd"
   xmlns:inkscape="http://www.inkscape.org/namespaces/inkscape"
   width="512"
   height="512"
   viewBox="0 0 512 512"
   version="1.1"
   id="svg4"
   sodipodi:docname="beam sensor.svg"
   inkscape:version="0.92.1 r15371">
  <metadata
     id="metadata10">
    <rdf:RDF>
      <cc:Work
         rdf:about="">
        <dc:format>image/svg+xml</dc:format>
        <dc:type
           rdf:resource="http://purl.org/dc/dcmitype/StillImage" />
      </cc:Work>
    </rdf:RDF>
  </metadata>
  <defs
     id="defs8" />
  <sodipodi:namedview
     pagecolor="#ffffff"
     bordercolor="#666666"
     borderopacity="1"
     objecttolerance="10"
     gridtolerance="10"
     guidetolerance="10"
     inkscape:pageopacity="0"
     inkscape:pageshadow="2"
     inkscape:window-width="640"
     inkscape:window-height="493"
     id="namedview6"
     showgrid="false"
     inkscape:zoom="0.4609375"
     inkscape:cx="256"
     inkscape:cy="256"
     inkscape:window-x="0"
     inkscape:window-y="0"
     inkscape:window-maximized="0"
     inkscape:current-layer="svg4" />
  <path
     id="path2"
     d="M 492.28,276.13 C 490.32929,263.64983 477.16917,257.26743 469.99484,247.80623 401.25547,177.51536 333.02387,106.67915 263.96719,36.729062 249.71211,27.990842 240.47305,45.404462 231.31588,53.430971 161.69702,125.17437 91.520596,196.43515 22.25,268.48 c -6.757121,12.63294 2.90445,27.00694 5.120791,39.74429 27.03798,87.32193 106.255069,156.42573 197.533089,167.71197 94.10929,13.38693 192.3084,-36.84788 238.3565,-119.70178 C 477.18034,331.47066 488.16129,304.31354 492.28,276.13 Z M 298.02,443.3 C 215.14283,462.60987 124.5534,422.22875 79.640115,350.7488 71.497092,334.53966 47.771057,301.80254 57.686211,291 191.59081,291 325.4954,291 459.4,291 438.35754,366.21997 375.13864,427.88662 298.02,443.3 Z" />
</svg>
