<?xml version="1.0" encoding="UTF-8" standalone="no"?>
<svg
   xmlns:dc="http://purl.org/dc/elements/1.1/"
   xmlns:cc="http://creativecommons.org/ns#"
   xmlns:rdf="http://www.w3.org/1999/02/22-rdf-syntax-ns#"
   xmlns:svg="http://www.w3.org/2000/svg"
   xmlns="http://www.w3.org/2000/svg"
   xmlns:sodipodi="http://sodipodi.sourceforge.net/DTD/sodipodi-0.dtd"
   xmlns:inkscape="http://www.inkscape.org/namespaces/inkscape"
   width="512"
   height="512"
   viewBox="0 0 512 512"
   version="1.1"
   id="svg4"
   sodipodi:docname="button keypad.svg"
   inkscape:version="0.92.1 r15371">
  <metadata
     id="metadata10">
    <rdf:RDF>
      <cc:Work
         rdf:about="">
        <dc:format>image/svg+xml</dc:format>
        <dc:type
           rdf:resource="http://purl.org/dc/dcmitype/StillImage" />
      </cc:Work>
    </rdf:RDF>
  </metadata>
  <defs
     id="defs8" />
  <sodipodi:namedview
     pagecolor="#ffffff"
     bordercolor="#666666"
     borderopacity="1"
     objecttolerance="10"
     gridtolerance="10"
     guidetolerance="10"
     inkscape:pageopacity="0"
     inkscape:pageshadow="2"
     inkscape:window-width="638"
     inkscape:window-height="493"
     id="namedview6"
     showgrid="false"
     inkscape:zoom="0.4609375"
     inkscape:cx="256"
     inkscape:cy="256"
     inkscape:window-x="0"
     inkscape:window-y="0"
     inkscape:window-maximized="0"
     inkscape:current-layer="svg4" />
  <path
     id="path2"
     d="M 479.53,96 C 331.17667,96 182.82333,96 34.47,96 18.64763,95.553255 15.440085,112.02895 17,124.32495 c 0,91.74169 0,183.48337 0,275.22505 0.6603,15.71965 17.90968,17.58117 30.124954,16.45 144.135016,0 288.270026,0 432.405046,0 15.53094,-0.26175 16.34983,-17.45293 15.47,-29.10495 0,-91.74169 0,-183.48337 0,-275.22505 0.26649,-8.40164 -6.99269,-15.948994 -15.47,-15.67 z M 163,386 c -37.66667,0 -75.333333,0 -113,0 0,-38 0,-76 0,-114 37.666667,0 75.33333,0 113,0 0,38 0,76 0,114 z m 0,-145 c -37.66667,0 -75.333333,0 -113,0 0,-37.66667 0,-75.33333 0,-113 37.666667,0 75.33333,0 113,0 0,37.66667 0,75.33333 0,113 z m 148,145 c -38.66667,0 -77.33333,0 -116,0 0,-38 0,-76 0,-114 38.66667,0 77.33333,0 116,0 0,38 0,76 0,114 z m 0,-145 c -38.66667,0 -77.33333,0 -116,0 0,-37.66667 0,-75.33333 0,-113 38.66667,0 77.33333,0 116,0 0,37.66667 0,75.33333 0,113 z m 150,145 c -39.33333,0 -78.66667,0 -118,0 0,-38 0,-76 0,-114 39.33333,0 78.66667,0 118,0 0,38 0,76 0,114 z m 0,-145 c -39.33333,0 -78.66667,0 -118,0 0,-37.66667 0,-75.33333 0,-113 39.33333,0 78.66667,0 118,0 0,37.66667 0,75.33333 0,113 z" />
</svg>
