<?xml version="1.0" encoding="UTF-8" standalone="no"?>
<svg
   xmlns:dc="http://purl.org/dc/elements/1.1/"
   xmlns:cc="http://creativecommons.org/ns#"
   xmlns:rdf="http://www.w3.org/1999/02/22-rdf-syntax-ns#"
   xmlns:svg="http://www.w3.org/2000/svg"
   xmlns="http://www.w3.org/2000/svg"
   xmlns:sodipodi="http://sodipodi.sourceforge.net/DTD/sodipodi-0.dtd"
   xmlns:inkscape="http://www.inkscape.org/namespaces/inkscape"
   width="512"
   height="512"
   viewBox="0 0 512 512"
   version="1.1"
   id="svg8"
   sodipodi:docname="buzzer.svg"
   inkscape:version="0.92.1 r15371">
  <metadata
     id="metadata14">
    <rdf:RDF>
      <cc:Work
         rdf:about="">
        <dc:format>image/svg+xml</dc:format>
        <dc:type
           rdf:resource="http://purl.org/dc/dcmitype/StillImage" />
      </cc:Work>
    </rdf:RDF>
  </metadata>
  <defs
     id="defs12" />
  <sodipodi:namedview
     pagecolor="#ffffff"
     bordercolor="#666666"
     borderopacity="1"
     objecttolerance="10"
     gridtolerance="10"
     guidetolerance="10"
     inkscape:pageopacity="0"
     inkscape:pageshadow="2"
     inkscape:window-width="640"
     inkscape:window-height="493"
     id="namedview10"
     showgrid="false"
     inkscape:zoom="0.4609375"
     inkscape:cx="256"
     inkscape:cy="256"
     inkscape:window-x="0"
     inkscape:window-y="0"
     inkscape:window-maximized="0"
     inkscape:current-layer="svg8" />
  <path
     id="path6"
     d="m 432.6,140.05 c -20.45867,-11.35319 -29.17829,22.9497 -7.84352,27.72567 43.66726,32.04923 56.723,97.57659 28.6108,143.89126 -9.12211,17.17328 -24.44212,29.55019 -39.40259,41.1676 -11.19383,20.73532 20.55895,27.94541 30.17328,10.82453 48.37505,-37.79763 65.21475,-109.22601 39.01724,-164.70399 C 472.41321,174.99696 454.62762,154.31755 432.6,140.05 Z m -15.7,94.08 c -4.95144,-30.85969 -22.94642,-59.7532 -49.2373,-76.82027 -20.78303,-7.52642 -25.16591,23.61283 -6.42246,29.12497 34.5769,29.36188 39.80246,85.95703 11.02892,121.08428 -11.99205,10.07715 -39.4027,34.64919 -10.15916,42.03102 14.93959,-3.5089 24.98711,-17.66058 34.38,-29 17.92745,-24.60402 25.47009,-56.43591 20.41,-86.42 z M 253.24,139 C 177.9682,139.18459 102.65906,138.63087 27.410586,139.27676 13.429728,142.80763 17.650328,158.98939 17,169.67665 17.169862,233.37823 16.660035,297.11126 17.255332,360.79316 19.620266,374.51875 34.865131,371.87633 45.072065,372 115.36981,371.80537 185.70873,372.38921 255.98074,371.70818 270.30838,368.21613 266.5248,351.91615 267,340.96335 266.81157,277.26786 267.37711,213.53346 266.71678,149.8623 265.49471,143.65771 259.55113,138.90437 253.24,139 Z M 240,344 c -65.33333,0 -130.66667,0 -196,0 0,-59.33333 0,-118.66667 0,-178 65.33333,0 130.66667,0 196,0 0,59.33333 0,118.66667 0,178 z M 354.2,237.7 c -5.65106,-21.53889 -20.60158,-45.08455 -43.17977,-50.63383 -23.37968,4.61542 -8.81553,28.38849 5.1861,34.86406 21.23637,22.39529 15.17132,62.48875 -11.62633,77.77977 -20.17564,15.3099 11.30598,36.51346 23.2965,16.66486 C 350.56882,297.70957 361.41625,266.25798 354.2,237.7 Z" />
</svg>
