<?xml version="1.0" encoding="UTF-8" standalone="no"?>
<svg
   xmlns:dc="http://purl.org/dc/elements/1.1/"
   xmlns:cc="http://creativecommons.org/ns#"
   xmlns:rdf="http://www.w3.org/1999/02/22-rdf-syntax-ns#"
   xmlns:svg="http://www.w3.org/2000/svg"
   xmlns="http://www.w3.org/2000/svg"
   xmlns:sodipodi="http://sodipodi.sourceforge.net/DTD/sodipodi-0.dtd"
   xmlns:inkscape="http://www.inkscape.org/namespaces/inkscape"
   width="512"
   height="512"
   viewBox="0 0 512 512"
   version="1.1"
   id="svg6"
   sodipodi:docname="garage door.svg"
   inkscape:version="0.92.1 r15371">
  <metadata
     id="metadata12">
    <rdf:RDF>
      <cc:Work
         rdf:about="">
        <dc:format>image/svg+xml</dc:format>
        <dc:type
           rdf:resource="http://purl.org/dc/dcmitype/StillImage" />
      </cc:Work>
    </rdf:RDF>
  </metadata>
  <defs
     id="defs10" />
  <sodipodi:namedview
     pagecolor="#ffffff"
     bordercolor="#666666"
     borderopacity="1"
     objecttolerance="10"
     gridtolerance="10"
     guidetolerance="10"
     inkscape:pageopacity="0"
     inkscape:pageshadow="2"
     inkscape:window-width="640"
     inkscape:window-height="493"
     id="namedview8"
     showgrid="false"
     inkscape:zoom="0.4609375"
     inkscape:cx="256"
     inkscape:cy="256"
     inkscape:window-x="0"
     inkscape:window-y="0"
     inkscape:window-maximized="0"
     inkscape:current-layer="svg6" />
  <path
     id="path4"
     d="m 425.5,344.93 c 13.2358,-0.0671 13.12281,-14.66916 12.5,-24.28862 -0.17186,-48.25227 0.34355,-96.53999 -0.25738,-144.77013 -3.50645,-16.94499 -29.3152,-9.15221 -24.74262,6.84007 0.17184,50.7847 -0.34353,101.60485 0.25738,152.36743 1.11293,5.64049 6.51999,9.96123 12.24262,9.85125 z M 261.75,342 c 17.63632,-0.73412 35.62621,1.74175 52.96453,-1.83203 29.18654,-11.32678 39.02493,-45.94089 41.73192,-74.29659 2.7775,-35.23775 -6.06847,-77.11873 -38.42448,-96.54749 C 300.56337,160.56317 280.54218,165.15493 261.76,164 c -13.50904,-0.13871 -14.81289,14.20414 -13.76,24.33862 0.20774,48.23942 -0.41527,96.53144 0.31109,144.73802 1.56042,5.75604 7.82103,8.92444 13.43891,8.92336 z M 273,189 c 14.71856,0.85386 32.62669,-4.05772 42.63184,10.36336 21.31473,28.28673 20.78248,68.77546 7.22816,100.32164 C 318.38444,312.97887 305.75461,320.32045 292.32671,318 286.25247,317.27023 277.26186,319.45682 273,316.91467 273,274.27645 273,231.63822 273,189 Z M 84.38,282.66 c 4.837246,27.14063 21.24156,58.00857 51.5,61.89 21.55566,2.94332 43.76095,0.87947 64.78,-4.18 9.35799,-4.54622 5.75907,-15.81425 6.34,-24.00395 -0.53815,-18.13708 1.12279,-36.54829 -0.91875,-54.49949 -5.81123,-10.78178 -19.62585,-5.68131 -29.53185,-6.87656 -10.09702,1.20192 -22.72677,-3.49155 -30.29002,5.20605 -8.13048,12.89664 7.66619,21.59589 18.92326,18.79395 5.29592,1.36675 16.11894,-2.79359 17.81736,2.17066 0,12.53645 0,25.07289 0,37.60934 -18.18081,2.43115 -38.41372,5.76238 -55.17,-3.35125 -19.22061,-17.33933 -22.40543,-45.95831 -21.65063,-70.55203 0.73786,-19.71436 8.92151,-39.30421 25.31985,-50.95117 7.04943,-4.71657 16.76911,-4.86499 25.00047,-6.56867 14.51542,-1.75597 25.81507,15.78999 40.15031,9.52562 13.19433,-9.13894 1.46873,-23.29788 -10.05707,-25.83533 -14.72852,-8.85772 -32.51757,-10.77909 -48.8926,-5.37665 -8.32757,1.92127 -17.46243,2.99123 -23.12006,10.22882 C 94.097073,191.00546 83.519137,215.76451 81.502539,240.53227 80.381591,254.56073 81.013569,268.99596 84.38,282.66 Z M 492,135.35 C 491.9009,122.1512 477.27316,122.42922 467.71138,123 322.25758,123 176.80379,123 31.35,123 18.151196,123.0991 18.42922,137.72684 19,147.28862 c 0.167281,77.27917 -0.334572,154.59199 0.250937,231.85013 3.402558,13.60032 19.164496,9.10022 29.464335,9.86125 143.644908,0 287.289818,0 430.934728,0 13.1988,-0.0991 12.92078,-14.72684 12.35,-24.28862 0,-76.4538 0,-152.90759 0,-229.36138 z M 469,364 c -141.66667,0 -283.33333,0 -425,0 0,-72 0,-144 0,-216 141.66667,0 283.33333,0 425,0 0,72 0,144 0,216 z" />
</svg>
