<?xml version="1.0" encoding="UTF-8" standalone="no"?>
<svg
   xmlns:dc="http://purl.org/dc/elements/1.1/"
   xmlns:cc="http://creativecommons.org/ns#"
   xmlns:rdf="http://www.w3.org/1999/02/22-rdf-syntax-ns#"
   xmlns:svg="http://www.w3.org/2000/svg"
   xmlns="http://www.w3.org/2000/svg"
   xmlns:sodipodi="http://sodipodi.sourceforge.net/DTD/sodipodi-0.dtd"
   xmlns:inkscape="http://www.inkscape.org/namespaces/inkscape"
   width="512"
   height="512"
   viewBox="0 0 512 512"
   version="1.1"
   id="svg6"
   sodipodi:docname="lux sensor.svg"
   inkscape:version="0.92.1 r15371">
  <metadata
     id="metadata12">
    <rdf:RDF>
      <cc:Work
         rdf:about="">
        <dc:format>image/svg+xml</dc:format>
        <dc:type
           rdf:resource="http://purl.org/dc/dcmitype/StillImage" />
      </cc:Work>
    </rdf:RDF>
  </metadata>
  <defs
     id="defs10" />
  <sodipodi:namedview
     pagecolor="#ffffff"
     bordercolor="#666666"
     borderopacity="1"
     objecttolerance="10"
     gridtolerance="10"
     guidetolerance="10"
     inkscape:pageopacity="0"
     inkscape:pageshadow="2"
     inkscape:window-width="640"
     inkscape:window-height="493"
     id="namedview8"
     showgrid="false"
     inkscape:zoom="0.4609375"
     inkscape:cx="256"
     inkscape:cy="256"
     inkscape:window-x="0"
     inkscape:window-y="0"
     inkscape:window-maximized="0"
     inkscape:current-layer="svg6" />
  <path
     id="path4"
     d="m 374.3,139.27 c 13.7099,-3.77984 21.38724,-17.84034 32.0644,-26.7044 7.49609,-9.57878 23.24395,-16.627613 19.62185,-30.8156 -10.19933,-18.10297 -25.84658,-0.379974 -34.52715,9.080901 -9.56912,10.325059 -20.8694,19.232729 -29.16535,30.600189 -3.61606,8.19375 3.10968,18.07609 12.00625,17.83891 z M 113.86,359.6 c -13.890229,14.75676 -29.714913,27.9321 -42.300625,43.75531 -4.191046,25.6142 24.527667,17.13838 32.625735,2.56539 10.10348,-10.89462 22.01667,-20.30814 30.83114,-32.25773 C 140.49096,360.87685 123.44521,349.66406 113.86,359.6 Z M 403,250.24 C 402.40141,201.5696 376.22407,152.47991 333.84791,126.74612 278.05777,90.030262 198.36632,100.22651 152.26014,148.03972 103.79607,194.96473 95.967889,276.60153 135.1532,331.64605 172.97209,389.55563 254.04708,412.70666 316.62114,383.04946 368.10855,360.35258 403.6565,306.69175 403,250.24 Z M 136.68,263 c 79.55667,0 159.11333,0 238.67,0 -5.3532,61.1356 -63.85838,111.09173 -125.11117,106.7038 C 192.72783,367.85453 142.07389,320.32989 136.68,263 Z M 255,99.6 C 272.41066,98.00185 267.19987,78.385173 268,66.385178 267.47482,52.695297 269.14793,38.783973 266.97422,25.260156 251.81572,4.1848928 237.39526,30.422141 242,46.495858 c 0.54495,15.039494 -1.17605,30.306991 1.02578,45.179767 C 244.97153,96.390429 249.90624,99.658137 255,99.6 Z M 481.57,237 c -20.42808,0.59739 -41.10231,-1.24961 -61.36141,1.02578 -21.08859,15.15083 5.15155,29.58114 21.22727,24.97422 15.03612,-0.54532 30.30038,1.17659 45.16976,-1.02578 C 499.471,257.03841 495.36672,236.54682 481.57,237 Z M 255,412.15 c -17.40876,1.59195 -12.2012,21.19952 -13,33.19482 0.51527,13.78088 -1.13317,27.77972 1.02578,41.39502 15.16442,21.07862 29.57661,-5.17154 24.97422,-21.2457 -0.53546,-15.1285 1.16208,-30.48194 -1.02578,-45.44398 C 265.02693,415.34359 260.09233,412.05599 255,412.15 Z M 99.73,250 C 98.13495,232.59029 78.522824,237.79946 66.525178,237 52.828555,237.52443 38.910751,235.85318 25.380156,238.02578 4.3048928,253.18428 30.542141,267.60474 46.615858,263 61.662092,262.45578 76.936074,264.17498 91.815625,261.97422 96.52413,260.02651 99.801945,255.10855 99.73,250 Z M 377.8,376.5 c -24.65796,-14.03705 -25.79086,20.42215 -7.70903,28.82462 11.27962,10.42172 21.09733,22.64088 33.41778,31.78288 25.65496,4.16218 17.10862,-24.55335 2.49004,-32.60056 C 396.60594,395.17802 387.15943,385.79562 377.8,376.5 Z M 128.27,135.44 c 24.57825,14.21818 25.93833,-20.24863 7.90937,-28.77494 -11.21969,-10.50181 -20.9554,-22.804985 -33.23343,-32.022091 -25.601787,-4.278567 -17.235398,24.461495 -2.68436,32.609711 9.33812,9.39099 18.66045,18.82 28.00842,28.18732 z" />
</svg>
