<?xml version="1.0" encoding="UTF-8" standalone="no"?>
<svg
   xmlns:dc="http://purl.org/dc/elements/1.1/"
   xmlns:cc="http://creativecommons.org/ns#"
   xmlns:rdf="http://www.w3.org/1999/02/22-rdf-syntax-ns#"
   xmlns:svg="http://www.w3.org/2000/svg"
   xmlns="http://www.w3.org/2000/svg"
   xmlns:sodipodi="http://sodipodi.sourceforge.net/DTD/sodipodi-0.dtd"
   xmlns:inkscape="http://www.inkscape.org/namespaces/inkscape"
   width="512"
   height="512"
   viewBox="0 0 512 512"
   version="1.1"
   id="svg4"
   sodipodi:docname="reed sensor.svg"
   inkscape:version="0.92.1 r15371">
  <metadata
     id="metadata10">
    <rdf:RDF>
      <cc:Work
         rdf:about="">
        <dc:format>image/svg+xml</dc:format>
        <dc:type
           rdf:resource="http://purl.org/dc/dcmitype/StillImage" />
      </cc:Work>
    </rdf:RDF>
  </metadata>
  <defs
     id="defs8" />
  <sodipodi:namedview
     pagecolor="#ffffff"
     bordercolor="#666666"
     borderopacity="1"
     objecttolerance="10"
     gridtolerance="10"
     guidetolerance="10"
     inkscape:pageopacity="0"
     inkscape:pageshadow="2"
     inkscape:window-width="640"
     inkscape:window-height="493"
     id="namedview6"
     showgrid="false"
     inkscape:zoom="0.4609375"
     inkscape:cx="256"
     inkscape:cy="256"
     inkscape:window-x="0"
     inkscape:window-y="0"
     inkscape:window-maximized="0"
     inkscape:current-layer="svg4" />
  <path
     id="path2"
     d="M 493.58,255.34 C 491.64614,243.22362 478.55072,237.27905 471.52302,228.13528 402.10436,159.1028 333.18354,89.518343 263.45365,20.830938 248.48323,12.988082 240.06379,30.831064 230.18625,38.70777 160.48703,108.48328 90.391806,177.90089 20.94,247.9 c -7.460871,10.01889 2.683552,19.97726 9.989833,26.11098 C 102.72989,345.82065 174.52994,417.63033 246.33,489.44 c 13.67566,11.60254 24.32071,-6.0322 33.51068,-14.25068 C 350.28869,404.45304 421.3601,334.24538 491.42,263.18 c 1.4847,-2.29808 2.24984,-5.15017 2.16,-7.84 z M 255.98,461.1 C 192.28,397.4 128.58,333.7 64.88,270 c 127.41,0 254.82,0 382.23,0 -63.71195,63.69529 -127.40829,127.42828 -191.13,191.1 z" />
</svg>
