<?xml version="1.0" encoding="UTF-8" standalone="no"?>
<svg
   xmlns:dc="http://purl.org/dc/elements/1.1/"
   xmlns:cc="http://creativecommons.org/ns#"
   xmlns:rdf="http://www.w3.org/1999/02/22-rdf-syntax-ns#"
   xmlns:svg="http://www.w3.org/2000/svg"
   xmlns="http://www.w3.org/2000/svg"
   xmlns:sodipodi="http://sodipodi.sourceforge.net/DTD/sodipodi-0.dtd"
   xmlns:inkscape="http://www.inkscape.org/namespaces/inkscape"
   width="512"
   height="512"
   viewBox="0 0 512 512"
   version="1.1"
   id="svg6"
   sodipodi:docname="thermostat.svg"
   inkscape:version="0.92.1 r15371">
  <metadata
     id="metadata12">
    <rdf:RDF>
      <cc:Work
         rdf:about="">
        <dc:format>image/svg+xml</dc:format>
        <dc:type
           rdf:resource="http://purl.org/dc/dcmitype/StillImage" />
      </cc:Work>
    </rdf:RDF>
  </metadata>
  <defs
     id="defs10" />
  <sodipodi:namedview
     pagecolor="#ffffff"
     bordercolor="#666666"
     borderopacity="1"
     objecttolerance="10"
     gridtolerance="10"
     guidetolerance="10"
     inkscape:pageopacity="0"
     inkscape:pageshadow="2"
     inkscape:window-width="638"
     inkscape:window-height="493"
     id="namedview8"
     showgrid="false"
     inkscape:zoom="0.4609375"
     inkscape:cx="256"
     inkscape:cy="256"
     inkscape:window-x="0"
     inkscape:window-y="0"
     inkscape:window-maximized="0"
     inkscape:current-layer="svg6" />
  <path
     id="path4"
     d="m 381.17,328.84 c -37.95864,22.8145 -92.16588,7.55058 -112.73,-31.65 -12.6657,-20.29883 -38.45594,6.84374 -20.30344,20.91443 29.97992,47.65787 98.48277,64.30635 146.89344,35.36557 48.87985,-26.00594 70.57314,-91.12756 47.52092,-141.36899 -20.94708,-51.33814 -83.72442,-79.18778 -135.99852,-61.29091 -26.5605,8.75635 -51.48186,27.5548 -63.12506,53.27818 -0.73227,24.31719 29.35776,16.73352 33.95354,-1.24421 28.85562,-35.56678 87.5264,-38.8826 120.17159,-6.64739 35.49015,31.47256 33.95177,93.0076 -2.6302,123.00781 -4.23947,3.66684 -8.86214,6.92733 -13.75227,9.63551 z M 210.8,311 c 11.14645,2.11594 24.73339,-4.15612 22.2,-17.49476 -0.1795,-27.58009 0.35942,-55.19394 -0.27004,-82.7529 -2.4883,-14.13253 -22.76455,-14.89433 -31.76496,-7.36734 -7.07817,10.35041 -2.79891,23.79247 -3.975,35.64324 0.18062,20.25706 -0.36232,40.5488 0.27305,60.78406 1.11628,6.37332 7.04255,11.33835 13.53695,11.1877 z m -46.62,0 c 11.16587,2.02287 25.23316,-4.00742 22.82,-17.49476 -0.19693,-27.57924 0.39432,-55.19909 -0.29627,-82.7529 -3.00353,-14.08665 -23.25075,-14.90482 -32.53873,-7.36734 -7.38773,10.22609 -2.95072,23.79034 -4.165,35.64324 0.19141,20.25653 -0.38398,40.552 0.28937,60.78406 1.22761,6.42067 7.3775,11.30559 13.89063,11.1877 z m -46.62,0 c 11.15268,2.07984 24.92766,-4.09826 22.44,-17.49476 -0.18607,-27.57978 0.37257,-55.19582 -0.27992,-82.7529 -2.76402,-14.26439 -23.09636,-14.77902 -32.36508,-7.36734 -7.694562,10.09864 -3.10418,23.78752 -4.355,35.64324 0.2022,20.25598 -0.40563,40.55539 0.3057,60.78406 1.35696,6.48405 7.69724,11.26619 14.2543,11.1877 z m -46.62,0 C 82.118031,312.98807 96.367306,307.05343 94,293.50524 93.796233,265.92636 94.408015,238.304 93.693438,210.75234 90.544829,196.77375 70.343073,195.77096 61.045,203.385 53.852469,213.68999 58.190355,227.17676 57,239.02824 57.184596,259.28511 56.629698,279.5782 57.279063,299.8123 58.426293,306.19165 64.452618,311.14292 70.94,311 Z M 480.6,94 C 330.86667,94 181.13333,94 31.4,94 16.719918,93.698956 16.114785,109.62497 17,120.37412 c 0.198253,95.58904 -0.396785,191.21978 0.298008,286.78272 4.293346,15.111 22.023311,9.91776 33.735631,10.84316 143.188791,0 286.377571,0 429.566361,0 14.67692,0.29686 15.28635,-15.62473 14.4,-26.37412 -0.19825,-95.58904 0.39678,-191.21978 -0.29801,-286.78272 C 493.40976,98.40399 487.03137,93.882069 480.6,94 Z M 466,390 c -140,0 -280,0 -420,0 0,-89.33333 0,-178.66667 0,-268 140,0 280,0 420,0 0,89.33333 0,178.66667 0,268 z" />
</svg>
