<?xml version="1.0" encoding="UTF-8" standalone="no"?>
<svg
   xmlns:dc="http://purl.org/dc/elements/1.1/"
   xmlns:cc="http://creativecommons.org/ns#"
   xmlns:rdf="http://www.w3.org/1999/02/22-rdf-syntax-ns#"
   xmlns:svg="http://www.w3.org/2000/svg"
   xmlns="http://www.w3.org/2000/svg"
   xmlns:sodipodi="http://sodipodi.sourceforge.net/DTD/sodipodi-0.dtd"
   xmlns:inkscape="http://www.inkscape.org/namespaces/inkscape"
   width="512"
   height="512"
   viewBox="0 0 512 512"
   version="1.1"
   id="svg6"
   sodipodi:docname="cctv dome camera.svg"
   inkscape:version="0.92.1 r15371">
  <metadata
     id="metadata12">
    <rdf:RDF>
      <cc:Work
         rdf:about="">
        <dc:format>image/svg+xml</dc:format>
        <dc:type
           rdf:resource="http://purl.org/dc/dcmitype/StillImage" />
      </cc:Work>
    </rdf:RDF>
  </metadata>
  <defs
     id="defs10" />
  <sodipodi:namedview
     pagecolor="#ffffff"
     bordercolor="#666666"
     borderopacity="1"
     objecttolerance="10"
     gridtolerance="10"
     guidetolerance="10"
     inkscape:pageopacity="0"
     inkscape:pageshadow="2"
     inkscape:window-width="640"
     inkscape:window-height="493"
     id="namedview8"
     showgrid="false"
     inkscape:zoom="0.4609375"
     inkscape:cx="256"
     inkscape:cy="256"
     inkscape:window-x="0"
     inkscape:window-y="0"
     inkscape:window-maximized="0"
     inkscape:current-layer="svg6" />
  <path
     d="m 490,205.8 c -1.26498,-11.76149 3.00894,-25.10635 -3.18938,-35.55531 -20.60737,-12.54772 -24.40797,-45.98137 -44.10531,-63.6036 C 384.84297,32.42867 280.98082,-0.6872013 190.83622,26.06257 97.665639,51.446112 25.461544,138.22488 18.098739,234.61061 c -9.4540753,91.94151 40.67615,185.97348 121.715181,230.13051 83.62383,48.11911 195.97347,37.83697 269.24023,-25.10636 30.38539,-25.29354 54.40632,-58.19002 69.09585,-94.90476 14.95833,0.46745 11.59445,-16.92981 11.85,-26.82776 -0.26814,-20.72817 7.00841,-40.91156 5.33,-61.87224 0.001,-16.8471 -1.28161,-33.90153 -5.33,-50.23 z M 41,290.42 c -4.048977,-18.40069 -2.374436,-60.03735 0,-64.76306 0,21.58104 0,43.21535 0,64.76306 z M 256.2,38.66 c 87.75589,-1.299371 171.95621,56.869349 202.68,138.92 -33.62667,20.06667 -67.25333,40.13333 -100.88,60.2 -0.47444,-21.25095 0.96258,-42.67537 -0.74203,-63.81469 C 350.09934,163.75789 335.71689,169.51958 324.96067,168 235.77378,168 146.58689,168 57.4,168 90.795382,90.286736 171.55402,37.640922 256.2,38.66 Z M 337,189 c 0,45.66667 0,91.33333 0,137 -91.66667,0 -183.33333,0 -275,0 0,-45.66667 0,-91.33333 0,-137 91.66667,0 183.33333,0 275,0 z M 256.2,473.9 C 173.2544,474.90329 93.086597,423.32225 58.7,348 c 96.41667,0 192.83333,0 289.25,0 14.88774,-2.81727 8.75513,-20.61657 10.05,-31.4347 0,-14.13177 0,-28.26353 0,-42.3953 33.63333,20.16667 67.26667,40.33333 100.9,60.5 C 428.04512,416.82346 344.15502,475.17181 256.2,473.9 Z M 468,303.94 c 1.10352,18.54571 -13.75459,0.87025 -21.90215,-1.99629 C 420.6219,286.6258 395.14595,271.3079 369.67,255.99 c 32.02,-19.26667 64.04,-38.53333 96.06,-57.8 4.52696,19.962 1.29778,40.88824 2.27,61.28791 0,14.8207 0,29.64139 0,44.46209 z M 22.6,256.14 c 155.71667,0 311.43333,0 467.15,0"
     id="path4"
     inkscape:connector-curvature="0" />
</svg>
