<?xml version="1.0" encoding="UTF-8" standalone="no"?>
<svg
   xmlns:dc="http://purl.org/dc/elements/1.1/"
   xmlns:cc="http://creativecommons.org/ns#"
   xmlns:rdf="http://www.w3.org/1999/02/22-rdf-syntax-ns#"
   xmlns:svg="http://www.w3.org/2000/svg"
   xmlns="http://www.w3.org/2000/svg"
   xmlns:sodipodi="http://sodipodi.sourceforge.net/DTD/sodipodi-0.dtd"
   xmlns:inkscape="http://www.inkscape.org/namespaces/inkscape"
   width="512"
   height="512"
   viewBox="0 0 512 512"
   version="1.1"
   id="svg6"
   sodipodi:docname="external siren.svg"
   inkscape:version="0.92.1 r15371">
  <metadata
     id="metadata12">
    <rdf:RDF>
      <cc:Work
         rdf:about="">
        <dc:format>image/svg+xml</dc:format>
        <dc:type
           rdf:resource="http://purl.org/dc/dcmitype/StillImage" />
      </cc:Work>
    </rdf:RDF>
  </metadata>
  <defs
     id="defs10" />
  <sodipodi:namedview
     pagecolor="#ffffff"
     bordercolor="#666666"
     borderopacity="1"
     objecttolerance="10"
     gridtolerance="10"
     guidetolerance="10"
     inkscape:pageopacity="0"
     inkscape:pageshadow="2"
     inkscape:window-width="640"
     inkscape:window-height="493"
     id="namedview8"
     showgrid="false"
     inkscape:zoom="0.4609375"
     inkscape:cx="256"
     inkscape:cy="256"
     inkscape:window-x="0"
     inkscape:window-y="0"
     inkscape:window-maximized="0"
     inkscape:current-layer="svg6" />
  <path
     d="m 277,145.76 c -1.3617,-13.34285 -16.51588,-9.04119 -25.73051,-9.76 -74.16983,0 -148.33966,0 -222.50949,0 -13.342854,1.3617 -9.041186,16.51588 -9.76,25.73051 0,67.50316 0,135.00633 0,202.50949 1.361703,13.34285 16.515878,9.04119 25.730505,9.76 74.169835,0 148.339665,0 222.509495,0 13.34285,-1.3617 9.04119,-16.51588 9.76,-25.73051 0,-67.50316 0,-135.00633 0,-202.50949 z M 257,356 c -73,0 -146,0 -219,0 0,-66.66667 0,-133.33333 0,-200 73,0 146,0 219,0 0,66.66667 0,133.33333 0,200 z m 65.32,-166.35 c -7.42826,16.2553 15.94968,30.62903 13.72323,49.29921 3.73094,25.20196 -0.12687,52.8116 -16.48073,73.08313 0.0639,24.90408 26.91958,5.54425 28.29078,-9.30437 14.03909,-35.12322 12.82588,-78.87832 -9.90273,-110.14234 C 334.69653,187.2271 327.15852,185.06168 322.32,189.65 Z m 54.16,-33.21 c -9.18224,17.0454 15.61892,32.90961 15.99365,51.93293 10.71917,43.45296 7.00302,92.95619 -19.45115,130.21816 0.60463,23.31579 25.45257,7.02336 27.19076,-7.26793 22.27596,-45.8156 22.85224,-101.46158 4.07017,-148.56362 C 398.2716,172.82827 392.16187,148.52071 376.48,156.44 Z m 114.85,70.86 c -3.90368,-31.74805 -13.43669,-64.12576 -34.28,-89.04 -19.88259,-12.07948 -19.18864,16.0086 -6.41932,24.25695 26.10638,45.33256 28.30955,101.72671 15.00865,151.48169 -4.85268,18.36524 -13.76121,35.39731 -25.28949,50.35636 3.00409,28.17732 29.06451,-0.60489 32.4675,-14.69244 C 491.12236,311.98534 495.99146,268.57989 491.33,227.3 Z M 22.6,256.14 c 155.71667,0 311.43333,0 467.15,0"
     id="path4"
     inkscape:connector-curvature="0" />
</svg>
