<?xml version="1.0" encoding="UTF-8" standalone="no"?>
<svg
   xmlns:dc="http://purl.org/dc/elements/1.1/"
   xmlns:cc="http://creativecommons.org/ns#"
   xmlns:rdf="http://www.w3.org/1999/02/22-rdf-syntax-ns#"
   xmlns:svg="http://www.w3.org/2000/svg"
   xmlns="http://www.w3.org/2000/svg"
   xmlns:sodipodi="http://sodipodi.sourceforge.net/DTD/sodipodi-0.dtd"
   xmlns:inkscape="http://www.inkscape.org/namespaces/inkscape"
   width="512"
   height="512"
   viewBox="0 0 512 512"
   version="1.1"
   id="svg8"
   sodipodi:docname="heat detector.svg"
   inkscape:version="0.92.1 r15371">
  <metadata
     id="metadata14">
    <rdf:RDF>
      <cc:Work
         rdf:about="">
        <dc:format>image/svg+xml</dc:format>
        <dc:type
           rdf:resource="http://purl.org/dc/dcmitype/StillImage" />
      </cc:Work>
    </rdf:RDF>
  </metadata>
  <defs
     id="defs12" />
  <sodipodi:namedview
     pagecolor="#ffffff"
     bordercolor="#666666"
     borderopacity="1"
     objecttolerance="10"
     gridtolerance="10"
     guidetolerance="10"
     inkscape:pageopacity="0"
     inkscape:pageshadow="2"
     inkscape:window-width="640"
     inkscape:window-height="493"
     id="namedview10"
     showgrid="false"
     inkscape:zoom="0.4609375"
     inkscape:cx="256"
     inkscape:cy="256"
     inkscape:window-x="0"
     inkscape:window-y="0"
     inkscape:window-maximized="0"
     inkscape:current-layer="svg8" />
  <path
     d="m 210,172.65 c -7.92537,-21.49031 -23.04507,1.35791 -18,14.80565 0,51.31478 0,102.62957 0,153.94435 7.90683,21.49978 23.05154,-1.33256 18,-14.78565 0,-20.87145 0,-41.7429 0,-62.61435 30.66667,0 61.33333,0 92,0 0.45175,26.96687 -0.91169,54.10933 0.69609,80.96437 13.69487,16.23605 20.19146,-8.07597 17.30391,-19.69507 0,-50.86977 0,-101.73953 0,-152.6093 -7.92537,-21.49031 -23.04507,1.35791 -18,14.80565 0,19.51145 0,39.0229 0,58.53435 -30.66667,0 -61.33333,0 -92,0 0,-24.45 0,-48.9 0,-73.35 z M 491.2,249.3 C 414.95,173.2 338.7,97.1 262.45,21 250.81993,12.866341 243.35559,29.163918 235.26946,35.252449 163.77964,106.60163 92.289819,177.95082 20.8,249.3 12.649893,260.96154 28.952088,268.41707 35.06619,276.50681 106.56079,348.00454 178.0554,419.50227 249.55,491 c 11.65854,8.13003 19.10823,-8.16511 27.19525,-14.27775 C 348.23017,405.22483 419.71508,333.72742 491.2,262.23 c 3.57699,-3.37377 3.51733,-9.59853 0,-12.93 z M 256,471.6 C 184.06667,399.66667 112.13333,327.73333 40.2,255.8 112.13333,183.99333 184.06667,112.18667 256,40.38 c 71.93333,71.8 143.86667,143.6 215.8,215.4 C 399.86667,327.72 327.93333,399.66 256,471.6 Z M 22.6,256.14 c 155.71667,0 311.43333,0 467.15,0"
     id="path6"
     inkscape:connector-curvature="0" />
</svg>
