<?xml version="1.0" encoding="UTF-8" standalone="no"?>
<svg
   xmlns:dc="http://purl.org/dc/elements/1.1/"
   xmlns:cc="http://creativecommons.org/ns#"
   xmlns:rdf="http://www.w3.org/1999/02/22-rdf-syntax-ns#"
   xmlns:svg="http://www.w3.org/2000/svg"
   xmlns="http://www.w3.org/2000/svg"
   xmlns:sodipodi="http://sodipodi.sourceforge.net/DTD/sodipodi-0.dtd"
   xmlns:inkscape="http://www.inkscape.org/namespaces/inkscape"
   width="512"
   height="512"
   viewBox="0 0 512 512"
   version="1.1"
   id="svg4"
   sodipodi:docname="reed switch.svg"
   inkscape:version="0.92.1 r15371">
  <metadata
     id="metadata10">
    <rdf:RDF>
      <cc:Work
         rdf:about="">
        <dc:format>image/svg+xml</dc:format>
        <dc:type
           rdf:resource="http://purl.org/dc/dcmitype/StillImage" />
      </cc:Work>
    </rdf:RDF>
  </metadata>
  <defs
     id="defs8" />
  <sodipodi:namedview
     pagecolor="#ffffff"
     bordercolor="#666666"
     borderopacity="1"
     objecttolerance="10"
     gridtolerance="10"
     guidetolerance="10"
     inkscape:pageopacity="0"
     inkscape:pageshadow="2"
     inkscape:window-width="640"
     inkscape:window-height="493"
     id="namedview6"
     showgrid="false"
     inkscape:zoom="0.4609375"
     inkscape:cx="256"
     inkscape:cy="256"
     inkscape:window-x="0"
     inkscape:window-y="0"
     inkscape:window-maximized="0"
     inkscape:current-layer="svg4" />
  <path
     d="M 494.4,252.8 C 478.27255,234.01633 459.3505,217.43667 442.15477,199.49713 382.24985,139.69142 322.34492,79.885709 262.44,20.08 250.61518,11.692165 242.95425,28.163344 234.76587,34.399748 162.76062,106.41041 90.488368,178.17644 18.65,250.34 c -6.435889,9.9676 7.11578,17.06448 12.456554,23.60455 C 103.77104,346.59637 176.43552,419.24818 249.1,491.9 c 11.81684,8.42682 19.49165,-8.07838 27.67319,-14.32069 C 348.88498,405.17183 421.66367,333.32966 493.36,260.57 c 1.13119,-2.27753 1.94234,-5.67583 1.04,-7.77 z M 255.78,471.66 C 186.87667,402.77333 117.97333,333.88667 49.07,265 c 137.79333,0 275.58667,0 413.38,0 -68.88431,68.88431 -137.81414,137.78748 -206.67,206.66 z"
     id="path2"
     inkscape:connector-curvature="0" />
</svg>
