<?xml version="1.0" encoding="UTF-8" standalone="no"?>
<svg
   xmlns:dc="http://purl.org/dc/elements/1.1/"
   xmlns:cc="http://creativecommons.org/ns#"
   xmlns:rdf="http://www.w3.org/1999/02/22-rdf-syntax-ns#"
   xmlns:svg="http://www.w3.org/2000/svg"
   xmlns="http://www.w3.org/2000/svg"
   xmlns:sodipodi="http://sodipodi.sourceforge.net/DTD/sodipodi-0.dtd"
   xmlns:inkscape="http://www.inkscape.org/namespaces/inkscape"
   width="512"
   height="512"
   viewBox="0 0 512 512"
   version="1.1"
   id="svg6"
   sodipodi:docname="security gdi.svg"
   inkscape:version="0.92.1 r15371">
  <metadata
     id="metadata12">
    <rdf:RDF>
      <cc:Work
         rdf:about="">
        <dc:format>image/svg+xml</dc:format>
        <dc:type
           rdf:resource="http://purl.org/dc/dcmitype/StillImage" />
      </cc:Work>
    </rdf:RDF>
  </metadata>
  <defs
     id="defs10" />
  <sodipodi:namedview
     pagecolor="#ffffff"
     bordercolor="#666666"
     borderopacity="1"
     objecttolerance="10"
     gridtolerance="10"
     guidetolerance="10"
     inkscape:pageopacity="0"
     inkscape:pageshadow="2"
     inkscape:window-width="640"
     inkscape:window-height="493"
     id="namedview8"
     showgrid="false"
     inkscape:zoom="0.4609375"
     inkscape:cx="256"
     inkscape:cy="256"
     inkscape:window-x="0"
     inkscape:window-y="0"
     inkscape:window-maximized="0"
     inkscape:current-layer="svg6" />
  <path
     d="m 427,343.46 c 13.6513,-1.34861 9.27767,-16.7841 10,-26.18464 0,-46.88179 0,-93.76357 0,-140.64536 -6.22016,-21.09359 -25.27922,-2.40575 -20,12.0154 0,48.34487 0,96.68973 0,145.0346 -0.10172,5.30871 4.78277,9.93194 10,9.78 z M 259.95,341 c 17.57133,-0.73738 35.50496,1.71867 52.77945,-1.75262 28.89466,-11.86232 38.52223,-46.45635 40.9604,-74.86831 2.40908,-34.35796 -6.0617,-74.9714 -37.39808,-94.13559 C 299.23486,161.5808 279.6057,166.15666 261.22609,165 247.55174,164.59097 250.10197,179.93657 250,189.08002 c 0,47.53333 0,95.06665 0,142.59998 -0.16946,5.29645 4.86252,9.49463 9.95,9.32 z M 269,185 c 15.99585,1.05383 35.2592,-4.38068 46.88544,10.06389 22.8393,28.52953 22.982,70.12568 10.4078,103.09173 -4.91206,13.28813 -16.38198,26.61545 -31.81941,23.84438 -8.49127,0 -16.98255,0 -25.47383,0 0,-45.66667 0,-91.33333 0,-137 z M 82.1,282.8 c 4.807264,26.25862 20.46247,56.36613 49.82,60.3 21.47571,3.47474 43.51636,0.66946 64.54,-3.95 9.0525,-5.39805 4.41707,-17.62253 5.56,-26.16695 -0.48184,-16.79522 1.00006,-33.79131 -0.80797,-50.45086 -6.23886,-10.55655 -19.84915,-5.21274 -29.98591,-6.52219 -9.29341,1.15807 -21.82436,-3.66205 -27.47425,6.15937 -4.22092,15.71633 14.33059,14.1786 24.32046,13.84063 5.46243,1.33398 17.49344,-3.90063 14.92767,5.46155 0,13.52615 0,27.0523 0,40.57845 -20.98503,2.8348 -45.11314,7.64923 -63.51637,-5.50363 -21.067846,-22.5456 -22.806991,-56.5917 -18.74758,-85.74069 1.94529,-18.09415 14.33921,-32.94917 28.54864,-42.95978 14.05807,-3.38719 29.85294,-8.28565 42.84225,0.79733 8.36844,6.65427 27.12337,9.97083 24.16681,-6.70823 -5.50814,-8.38139 -16.55017,-10.63364 -25.05967,-15.37883 -17.24399,-6.52084 -35.80004,-0.53351 -52.72408,4.13383 -16.84589,13.60329 -32.908739,30.30813 -36.29,52.69 -4.592273,19.26227 -4.151637,40.11648 -0.12,59.42 z M 485.2,123 c -152.46667,0 -304.93333,0 -457.4,0 -13.514349,1.43932 -9.026416,16.84114 -9.8,26.18464 0,76.67179 0,153.34357 0,230.01536 1.439317,13.51435 16.841141,9.02642 26.184643,9.8 147.005117,0 294.010237,0 441.015357,0 13.51435,-1.43932 9.02642,-16.84114 9.8,-26.18464 0,-76.67179 0,-153.34357 0,-230.01536 0.13626,-5.2515 -4.5485,-9.93626 -9.8,-9.8 z M 473,369 c -145.33333,0 -290.66667,0 -436,0 0,-75.33333 0,-150.66667 0,-226 145.33333,0 290.66667,0 436,0 0,75.33333 0,150.66667 0,226 z"
     id="path4"
     inkscape:connector-curvature="0" />
</svg>
