<?xml version="1.0" encoding="UTF-8" standalone="no"?>
<svg
   xmlns:dc="http://purl.org/dc/elements/1.1/"
   xmlns:cc="http://creativecommons.org/ns#"
   xmlns:rdf="http://www.w3.org/1999/02/22-rdf-syntax-ns#"
   xmlns:svg="http://www.w3.org/2000/svg"
   xmlns="http://www.w3.org/2000/svg"
   xmlns:sodipodi="http://sodipodi.sourceforge.net/DTD/sodipodi-0.dtd"
   xmlns:inkscape="http://www.inkscape.org/namespaces/inkscape"
   width="512"
   height="512"
   viewBox="0 0 512 512"
   version="1.1"
   id="svg6"
   sodipodi:docname="Smoke detector.svg"
   inkscape:version="0.92.1 r15371">
  <metadata
     id="metadata12">
    <rdf:RDF>
      <cc:Work
         rdf:about="">
        <dc:format>image/svg+xml</dc:format>
        <dc:type
           rdf:resource="http://purl.org/dc/dcmitype/StillImage" />
      </cc:Work>
    </rdf:RDF>
  </metadata>
  <defs
     id="defs10" />
  <sodipodi:namedview
     pagecolor="#ffffff"
     bordercolor="#666666"
     borderopacity="1"
     objecttolerance="10"
     gridtolerance="10"
     guidetolerance="10"
     inkscape:pageopacity="0"
     inkscape:pageshadow="2"
     inkscape:window-width="640"
     inkscape:window-height="493"
     id="namedview8"
     showgrid="false"
     inkscape:zoom="0.4609375"
     inkscape:cx="256"
     inkscape:cy="256"
     inkscape:window-x="0"
     inkscape:window-y="0"
     inkscape:window-maximized="0"
     inkscape:current-layer="svg6" />
  <path
     d="m 236.26,134.9 c -15.60032,7.15197 -33.95297,10.26092 -45.08474,24.43408 -7.48451,6.44181 -15.50712,13.95159 -13.17526,24.806 -1.18941,13.23414 4.03712,26.14787 9.94,37.65992 10.81694,11.89233 23.83527,22.24013 38.58913,28.53258 25.58986,5.84812 51.99283,8.57666 76.88087,17.11742 7.3182,13.12642 11.07763,27.96879 9.58,42.99517 2.32338,9.58264 -4.28107,16.43351 -9.25,23.78483 -13.42886,4.57892 -26.12483,13.02918 -40.85013,10.76 -11.53012,0.12438 -23.23652,1.18384 -33.5967,-4.89741 -9.83055,-3.21417 -19.18602,-7.16541 -25.62669,-15.63882 -7.1698,-16.22297 -36.06394,-9.405 -20.25557,8.0594 9.71559,9.1841 18.18684,20.65048 32.02257,23.50616 11.40211,4.46503 22.6844,9.78475 35.24662,7.97067 15.23886,-0.48821 31.14949,2.39607 45.02556,-5.44566 10.58337,-4.32241 23.40719,-6.6298 28.025,-18.53515 6.06987,-7.47845 9.78104,-16.10149 8.25934,-25.86428 0.21479,-14.451 0.93555,-28.94352 -5.02961,-42.4699 -3.68601,-10.4988 -8.67644,-22.9045 -21.22558,-24.34853 -24.57846,-8.32567 -51.02087,-10.22171 -75.8581,-17.08626 -12.40128,-8.13914 -27.63598,-16.28171 -30.39712,-32.25819 -1.66517,-6.72423 -4.27515,-16.87193 2.37021,-21.49022 6.74053,-7.95847 14.86851,-13.78498 25.01715,-16.50659 9.76495,-5.12507 20.1346,-7.11019 31.10321,-5.98522 10.69303,-0.42761 21.33832,-0.60934 30.85227,5.03433 7.82573,3.31215 17.06607,4.87922 20.28184,13.87826 4.19793,18.40235 34.00921,12.99771 20.02878,-5.7574 -6.28808,-9.33455 -11.68239,-20.47758 -23.81043,-22.79744 -13.49248,-5.47073 -26.83706,-12.59641 -41.86776,-10.36775 -9.00985,0.47436 -18.41493,-1.03214 -27.19486,0.91 z m 254.6,114.06 C 414.91667,173.02667 338.97333,97.093333 263.03,21.16 251.0062,12.302003 243.00612,28.973473 234.72148,35.423512 163.52099,106.59901 92.320493,177.7745 21.12,248.95 12.312694,261.00111 28.92069,268.97346 35.386643,277.25539 106.5911,348.45359 177.79555,419.6518 249,490.85 c 12.04083,8.8148 20.01412,-7.80602 28.2957,-14.26633 C 348.48714,405.38911 419.67857,334.19456 490.87,263 c 3.84577,-3.66782 3.85438,-10.38909 -0.01,-14.04 z M 256,469.78 C 184.73333,398.51333 113.46667,327.24667 42.2,255.98 113.46667,184.72 184.73333,113.46 256,42.2 327.26667,113.46667 398.53333,184.73333 469.8,256 398.53333,327.26 327.26667,398.52 256,469.78 Z"
     id="path4"
     inkscape:connector-curvature="0" />
</svg>
