<svg xmlns="http://www.w3.org/2000/svg" width="512" height="512"><path d="M414.3 476.9A158.9 158.9 0 0 0 268 323.6c-.2-45.7.3-91.5-.2-137.2-3.5-16.8-28.6-8.6-23.8 7v130.2a158.9 158.9 0 0 0-137 104c-6.3 18.7-11.5 39-8.1 58.7 7.5 16 27.5 2.8 23-11.3a134.8 134.8 0 0 1 95.6-122.1 134.7 134.7 0 0 1 173 131c5 16.3 27.4 8.8 23.8-7zM188.4 151c-10.6 1-22-2.2-32 2.2-12.9 9.5.2 27 13.7 22.8 15.5.2 33.7 1.7 44.3-12.4 13.4-15.6 11.5-37.9 9-56.8a38.6 38.6 0 0 0-43-28.8c-9.6 2.4-3.9-10.4-5.4-16 1.4-5.7-2.9-17 2.3-19 13.6-.5 27.5 1.1 41-1 15.1-6.6 3.8-27.7-10.5-23-16.4.5-33-1-49.3.8-12 6-6.1 20.6-7.5 31.2.5 14.4-1.2 29.1 1 43.3 6 12 21 6.4 31.8 7.7 13.6-2.5 19 12.8 17.2 24 .4 9.7 0 24-12.6 25zm59.5 24.1c13 3.3 16.1-11.4 18.3-20.7 3.2-5.3.9-17.9 9.2-16.4H307c4.3 11.6 4.7 25.2 12.4 35 15.1 9.7 23.7-10.3 16.4-21.6L300.5 27C291.9 8 274 24.8 274 39.2c-11.5 41.2-23.6 82.2-34.7 123.4-.5 5.6 3.3 11 8.7 12.5zm41-100.9l11.3 39.8h-22.5l11.2-39.8z"/></svg>