<svg xmlns="http://www.w3.org/2000/svg" width="512" height="512"><path d="M495 255.8A239.8 239.8 0 0 0 380.6 52.3a239.3 239.3 0 0 0-240-5.5A239.3 239.3 0 0 0 17.2 258.1c0 81.5 45.4 161 115.5 202.5a239.5 239.5 0 0 0 231.8 8.3 239.6 239.6 0 0 0 130-199.1c.2-4.6.5-9.6.5-14zM117.7 97.3a211.2 211.2 0 0 1 208.7-39.6 209.1 209.1 0 0 1 67.9 39.8L256 236 117.6 97.5l.2-.2zM97.5 394.4a211.2 211.2 0 0 1-35.8-219.2 211.5 211.5 0 0 1 35.8-57.5L235.9 256c-46.2 46-92.3 92.3-138.4 138.3zm292.4 24c-40.5 33.7-94 51-146.5 47.5a208 208 0 0 1-125.9-51.4L256 276.1l138.5 138.5-4.4 3.8zm76.3-151.1c-2.4 46.6-21 92-51.7 127.2L276.1 256l138.4-138.4c33.7 38.6 53.2 90 51.5 141.4 1 1.8 0 5.8.1 8.3z"/></svg>