<svg xmlns="http://www.w3.org/2000/svg" width="512" height="512"><path d="M114.4 334c17-.7 34.3 1.4 51-1.2 17.7-7.6 6-33.8-11.4-28.8h-24v-41c11.6-.6 29.1 3.8 32.8-11.6 3-15.5-14.2-19-25.8-17.4-10.3 3.4-6.3-7.5-7-13.7-.8-8-1-15.3 9.1-12.3 11.7-1.1 28 4.3 34.1-9.2 6.2-15.4-11-23.4-23.8-20.8-13.5.6-27.3-1.2-40.7 1.1-13 6.2-7.5 22.3-8.7 33.7.2 36.6-.4 73.3.3 109.8a14.2 14.2 0 0 0 14.1 11.4zm72.4-1.3c13.1 7 21.4-7 25.8-17.2l15-28.3c8 14.2 14.8 29 23.5 42.7 15.5 15 34-9.8 20.3-23.1l-27-50.8c10.3-19.9 21.4-39.4 31.3-59.5 6-19.3-24.8-26-29.1-7l-19 35.3c-8.4-14.5-14.7-30.5-24.6-43.9-15-12.2-32.2 10.6-19.6 23.3l27.7 51.8c-10.4 19.9-21.5 39.5-31.5 59.6-2 6.4 1.2 14 7.2 17zm108.7 1.7c14.8 0 15.3-16.3 14.5-27.3-.2-39.2.4-78.5-.3-117.8-3.7-19.8-33.9-11.1-28.7 7.6.2 41.9-.4 83.9.3 125.8a14.5 14.5 0 0 0 14.2 11.7zM329.6 208c5.4 1.5 16.8-3 18.4 2.3.2 37.4-.4 75 .3 112.4 4 19.7 34.7 11.3 29.7-7.6V208c11.4-1 27.2 4 33.1-9.2 6.2-15.4-11.1-23.4-23.8-20.8-20.2.2-40.4-.4-60.6.3-17 3.4-14.5 29.8 3 29.7zm151-108H31.4c-14.8.2-15.2 16.7-14.4 27.6.2 90.8-.4 181.6.3 272.3 2.9 15.2 19.9 11.8 31.2 12.1h432.1c14.8-.2 15.2-16.7 14.4-27.6-.2-90.8.4-181.6-.3-272.3a14.7 14.7 0 0 0-14.1-12.1zM466 382H46V130h420v252z"/></svg>