<svg xmlns="http://www.w3.org/2000/svg" width="512" height="512"><path d="M352.4 295.4c7-7.4 14.9-13.9 21.1-21.9 1-16.4-15.6-5.6-20.4 2-6.6 8.8-13 13.3-20.7 2a120.5 120.5 0 0 0-151 9.5c-7.7-7.3-14.6-15.7-23-22.3-16.4-.9-5.5 15.6 2.1 20.4 6.1 6.4 16.8 12.4 5 19.8a120.4 120.4 0 0 0 7.6 150.8c-7.7 8.1-16.4 15.4-23.4 24.1-.9 16.5 15.6 5.6 20.4-2 5.5-3 10.6-17.3 16.6-9.1a120.5 120.5 0 0 0 153-.8c5.5-2.3 10.6 9 16 12.4 4.7 11.7 26 9 14.8-4.3l-19.2-19.2a120.5 120.5 0 0 0 1-161.4zM192.2 436.5a93.5 93.5 0 0 1-1-120.7l60.9 60.9-59.9 59.8zm140 1.2l-61-61 62-62.1a93.3 93.3 0 0 1-1 123.1zM126.7 61H171c.8 9.3-1.7 19.4 1.6 28.2 12.6 7 10.5-11.6 10.4-19.2-2.7-9.3 3.2-10.2 11-9 6.9 0 16.2-2.4 13 7.7 1 8-3.8 21.2 8 22.4 12-1.4 7-15.1 8-23.3-.4-8.2 3-22.1-9.7-21.8h-86.6c-8.8.4-8.8 14.6 0 15zm0 81c-16.3 6.9 1.8 17.9 12.1 14 26-.4 52.3.8 78.2-.6 12.3-11.1-6.8-15.5-15.8-13.4-5.4-1.4-16.4 2.8-18.2-2.2V115c11.3-.3 22.8.6 34-.5 12.3-10.8-7.3-14.4-15.8-12.5-25.7.3-51.5-.7-77.1.5-12.3 10.8 7.3 14.4 15.8 12.5H171v27h-44.3zm64.1 79.5c19.1.8 34.5-17.5 32.2-35.8 1.8-9.2-1.4-19.5-13-16.7-28.6.3-57.3-.5-86 .4-12.1 10.5 7.8 13.2 16 11.6 5.9.8 15-1.6 19 1.1 0 6.8 2 14.8-7.2 15.3-9.7 4.4-20.1 7.5-29.5 12.6-7.6 14.2 11.1 11.8 18.3 6.4l23.5-9.7c5.3 9.3 16 15 26.7 14.8zM173 181h34c.7 10.5.5 25-13.2 26.7C177 211.2 172.2 194 173 181zm90.9-93h67.4c10.3-3 5.6-15.8 6.7-23.9-7.8-17.8-13.2 4.7-15.2 8.9H271c-.3-8.6-.1-16.7 2.6-24.7 5.3-17.9 25.6-16.6 40.6-16.3h37.4c12.7-4.1 28.8 9.2 27.4 23.1.9 9.8-2 20.5 1.9 29.6 12.9 7.3 11.5-11.2 11.1-19.2.8-14.8-.2-31.8-14.3-40.6-19.6-13-43.5-7.8-65.9-9-19.9-1.5-43.8 4.5-51.2 25.4-4.8 8.7-5.1 18.2-4.6 28.1.2 7-2 17.3 7.9 18.6zm123.7 64.3l-121.4-45c-17.7.6-4 16.9 6.7 16.8 37.5 13.6 74.7 28.3 112.4 41.2 7.3.3 9.4-10.7 2.3-13zm-24.8 35c-16.6-6.1-10.2 14.5-.2 18.7 10.5 6.9-1.6 4.8-8 5-31 .2-62.3-.4-93.4.3-12.1 10 8.2 12 15.9 10.7h108.2c14.8-2.8-.2-15.4-6.1-20l-16.4-14.7z"/></svg>