<svg xmlns="http://www.w3.org/2000/svg" width="512" height="512"><path d="M146.9 135H268v74.7c7.4 28 34 4.6 27-14.9V135h76c.5 26.6-1 53.4.8 80 14.7 21.8 27.5-6.1 23.2-21.5-.5-26 1-52.1-.8-78-6.7-12.2-22.5-6-34-7.5H147c-17.4-.3-17.4 27.3 0 27zm-8.2 210.7c11.4 50 77.1 70.4 119 45 15.3-7.2 22.8-30 36.5-9.4 33.5 24.2 88.2 8.1 99.2-32.8 3.4-18.7.8-38.1 1.6-57.1.4-11.2 1.8-30.7-14.4-29.4-78.8.2-157.7-.4-236.5.3-17 4.8-11 24.3-12.1 37.3 1 13.8-2.1 28.3 2 41.4-.7-1.7 4.7 7 4.7 4.7zM295 289h76c-.8 17.7 1.8 35.9-1.7 53.3-11.2 32.5-65.6 30.5-73.5-3.2-1.7-16.6-.4-33.4-.8-50.1zm-136 0h109c-.9 18.6 2.2 37.8-2.3 56-17.1 42.9-92.9 38.4-101.2-8.3-2.6-11.2-7.7-20.7-5.5-33.1V289zM468.2 17c-142.4 0-284.8-.2-427.1.1C20.5 18.6 15 40.3 17 57.3c0 137.9-.2 275.8.1 413.6 1.5 20.6 23.2 26.1 40.2 24.1 137.9 0 275.8.2 413.6-.1 20.6-1.5 26.1-23.2 24.1-40.2-.1-138 .2-275.8-.2-413.7a27 27 0 0 0-26.6-24zM440 440H72V72h368v368z"/></svg>