<svg xmlns="http://www.w3.org/2000/svg" width="512" height="512"><path d="M341 435h-95l-32.5-22 111-55.7c13.8-9 0-21.5-10.8-24.1l-97-46 107.8-53.8c13.7-8.8 0-21.4-10.5-24.3l-97.4-48.7c36.6-17.5 73.7-34.3 110-52.3 10.4-10.2-3.2-19.3-11.6-24-4-3.1-16.3-8.8-4.3-7.1 15.7-1.1 32.8 3.3 47-5 19.7-11.5 16.5-44.3-5-51.7-16.2-4.3-33.3-1.5-49.9-2.3-44.9.1-89.8-.2-134.8.1-23 1-35.8 31.4-20.1 48.3 12.7 15.2 33.5 9.5 50.7 10.6H266l32 21.4c-37.5 18-75.6 35.1-112.8 53.8-10.5 11 4.3 19.6 13.6 23.1l97 48.6c-36.8 18.7-74.3 36.5-110.8 55.8-10.3 11.3 4.7 19.6 14.2 22.8l96.1 45.4c-36.6 18.6-73.8 36.4-110.1 55.5-10.1 10.2 3.2 19.4 11.6 24.2 4 3.3 16.5 9.1 4.5 7.4-15.8 1.1-32.8-3.3-47.1 5-19.7 11.5-16.5 44.3 5 51.7 16.2 4.3 33.3 1.5 49.9 2.3 45-.1 89.9.2 134.8-.2 23-.8 35.7-31.3 20.1-48.2A30.2 30.2 0 0 0 341 435z"/></svg>