<svg xmlns="http://www.w3.org/2000/svg" width="512" height="512"><path d="M460.2 16H52.8C37.5 17.9 43 35.4 42 46v438.2c1.9 15.3 19.4 9.8 30 10.8h388.2c15.3-1.9 9.8-19.4 10.8-30V26.7c.1-5.8-5-11-10.8-10.8zm-328 458a124 124 0 0 1 76.5-115.4A123.2 123.2 0 0 1 378.4 474H132.2zm315.8 0h-48.6A144.2 144.2 0 0 0 267 328.2V205c-7.5-23.6-27.9-1.8-22 14.2v109A144.6 144.6 0 0 0 117 431c-4.5 13.3-5 27.8-7 41.3-.1 4.2-14.7.7-20.6 1.8H63V38h385v436zM193.7 171c-11.1 1.5-26-4.4-33 6.8-4.5 17.9 16.8 15.4 28 15.2 24.3 3 42.6-21.8 39.3-44.5 3.3-22.4-14-47.2-38.2-44.5-11.5 3.8-7-8.5-7.8-15.4 1.6-6.5-4.6-20.6 6.4-17.6 11.9-1.2 25.2 2.9 35.8-3.3C235.7 50.3 212 47.1 199.9 49c-11 .5-22.4-1-33.2 1-9.7 8.7-4.3 23.2-5.7 34.9 1 12.3-2.4 25.6 2.6 37 12 8.7 31.9-4.3 41 10.5 3.3 11.1 5.2 26.8-3.8 35.8-.6.3-7.2 5.4-7.2 2.8zm54.4 21.2c15.1 2 14.5-16.4 18.4-26.4-.6-11.2 10.2-7.2 17.6-7.8 7 1.5 19.7-4.4 19.7 6.2 4.2 9.9 2.6 26.2 16 28.2 17-2 8-20.4 5.4-30.8-10.5-35.7-19.6-72-31-107.3-13.3-13.8-22 6.5-23.4 18L240.6 179a10.8 10.8 0 0 0 7.5 13.3zm37.3-92.7L296 137c-5.9-1.5-20 3.2-20.5-2.5l9.9-35z"/></svg>