<svg xmlns="http://www.w3.org/2000/svg" width="512" height="512"><path d="M245.6 201.2c-11.5-9.2-19.8 6-27.5 12.5l-27.3 27.4c-14.6-14-28-29.4-43.4-42.2-21.6-3.2-13.4 20.6-1.4 27.2l29.8 29.9c-13.9 14.6-29.3 27.9-42.2 43.4-3.2 21.5 20.6 13.3 27.3 1.4l29.9-29.9c14.6 14 27.9 29.4 43.3 42.2 21.6 3.2 13.4-20.6 1.4-27.3L205.7 256c13.9-14.6 29.3-27.9 42.2-43.4 1.6-3.8.6-8.5-2.3-11.4zM393 443.4c-16.3-22-31.4-45.2-48.4-66.6-4.8-3.8-12-2-15.4 2.7-11.2-10.5-21-22.5-33-32-21.7-3.1-13.4 20.7-1.5 27.4l19.6 19.6c-7.7 5.4-5.1 17.3 3.5 20.5l112 80-36.8-51.6zM148.5 332.7a88 88 0 0 1-40.3-106 88 88 0 0 1 40.4-47.5c15.8-13-7.4-26-17.7-14A109 109 0 0 0 86.6 287c8.3 27.8 28 52.5 54.2 65.1 11.6 3.2 18.6-13.7 7.7-19.4zm143.6-167.5c11.4-3.2 17.8-15 26.7-22.3 4.4-2.3 8.6-13.8 13.2-7.8 6.7 5.9 15 0 18.4-7L429.8 17c-39.2 28.2-79 55.8-117.8 84.4-4.3 4.7-2.7 12.5 2.3 16-10.5 11.3-22.5 21.2-32 33.2-3 6.7 2.6 14.7 9.8 14.6zM429.7 495"/></svg>