<svg xmlns="http://www.w3.org/2000/svg" width="512" height="512"><path d="M275 253.1a77.7 77.7 0 0 0-68.5-74 77.6 77.6 0 0 0-83.3 56.2 77.6 77.6 0 0 0 42 90.7A77.6 77.6 0 0 0 275 253zm-109.1-43.8c18.6-13 45.2-13 63.8 0l-32 32c-10.5-10.7-21.6-21.4-31.8-32zm-14.8 78.6a56.7 56.7 0 0 1 0-63.9l32 32-32 32zm77.2 15.7a56.2 56.2 0 0 1-62.5-1l32-32 31.9 32c-.6-.7-.9 1.2-1.4 1zm25.9-44.6c-.6 10.3-4 20.4-9.9 28.9L212.4 256l32-32a56.5 56.5 0 0 1 9.8 35zm-105.3 73.8a88 88 0 0 1-40.8-105 88 88 0 0 1 40.8-48.7c15.6-13-7.4-25.6-17.5-13.7a108.9 108.9 0 0 0-45.7 116c7.2 30 27.7 57 55.6 70.5 11.4 3.2 18.2-13.5 7.6-19.1zm198.3 46.4c-4-6.2-13.6-5.4-17.6.5-11.2-10.5-21.2-22.6-33.2-32-21.4-3.1-13 20.3-1.3 27l19.8 19.7c-7.3 4.8-5.8 16.5 2.3 19.7l112.1 80-82.1-115zM292.5 165c11.3-3.2 17.6-14.9 26.5-22.2 4.5-2.5 8.8-14 13.4-7.9 7.3 5.7 15.8-.9 18.8-8L429.3 18c-38.9 28-78.3 55.3-116.8 83.8-4.3 4.7-2.6 12.4 2.4 15.9-10.6 11.2-22.6 21.2-32 33.2-3 6.5 2.4 14.5 9.6 14.3z"/></svg>