<svg xmlns="http://www.w3.org/2000/svg" width="512" height="512"><path d="M124.8 255.3c11.5 7.8 24 14.4 35 23.1 14.7 19.4-9.5 39.5-27.6 24.5-20.5-19.8-37.1 17.6-10.3 22 18.5 8.7 45.5 11.9 58.2-8 15.4-20.9 7.9-54.1-15.9-65.3-9.5-6.5-20-11.8-29-19-15.1-19.1 9.1-40.2 27.6-24.7 13.6 17.1 37.8-8.4 17.4-18.3-18.8-10.7-47.3-18-63.3 1.2-16 18.4-13.1 51 7.9 64.5zm85.2 76.5c13.3-.2 12.4-15.2 12-24.7-.2-39.5.3-79-.2-118.5-3.4-17-28.6-8.6-23.8 7 .2 42.2-.3 84.4.2 126.5a12 12 0 0 0 11.8 9.7zm57.5.2c13-.6 26.2 1.2 39-1 11.8-6.2 6.2-21.1 7.5-31.9-.6-18.5 1.2-37.3-1-55.6-5.2-11-18.7-6.6-28.4-7.5-18 0-13.9 29.2 3.4 25 4.5 2.6.8 13.5 2 19.4V308c-8.7-.7-18 1.4-26.3-1.3-10.7-10.2-5.4-26.3-6.7-39.6.5-18-1-36.2 1-54.2 2.3-13 16-9.5 25.4-9.9 10.6-.9 26.8 4 30.2-10 2.6-14-13-16.4-23.3-15-16.4.4-36.3-3.3-47.3 12.4-15 18.8-8.7 43.6-10 65.7 1.3 21.5-4.8 45.7 10 63.9a32 32 0 0 0 24.5 12zm68.5-.2c13.3-.2 12.4-15.2 12-24.7v-58.8c12.1 26.4 23 53.4 35.9 79.3 14.6 13.2 25.6-7 22.1-20.5-.1-39.5.3-79-.2-118.5-3.4-17-28.6-8.6-23.8 7v66.8L347.6 186c-12.4-18.4-28.1 2.6-23.6 17.5.2 39.5-.3 79 .3 118.5a12 12 0 0 0 11.7 9.7zM482.8 101H29.2c-13.4.4-12.6 15.4-12.2 25 .2 91.7-.3 183.3.2 275 3.4 14 19.7 9.2 30.2 10h435.4c13.4-.4 12.6-15.4 12.2-25-.2-91.7.3-183.3-.2-275-1.1-5.5-6.2-10-12-10zM471 385H41V126h430v259z"/></svg>