<svg xmlns="http://www.w3.org/2000/svg" width="512" height="512"><path d="M285 247.3c-1-7.9-9.3-11.8-16-12.3-.2-20 .3-40-.3-59.9-3.4-18.5-30.9-9.6-25.7 7.4V235c-9.3-.1-19 8.8-15.5 18.9L256 425.3c9.6-59 20.2-117.9 29.1-177l-.1-1zM482.5 86.7c-14.3 0-14.2 16-13.5 26.3 3.4 10.8-7 7.7-14.1 8H43c-1.3-11.2 4.4-27-8.3-33.2C20 82 13.7 99 16 110.7c.2 20-.4 40 .3 60 3.7 18.4 31.7 10 26.7-7.3 1.5-6-4.2-19 5.9-16.4H469c1.3 11.3-4.4 27 8.3 33.4 14.8 5.8 21-11.2 18.7-23-.2-20 .4-40-.3-60-1.2-6.1-7-10.8-13.2-10.7z"/></svg>