<svg xmlns="http://www.w3.org/2000/svg" width="512" height="512"><path d="M271.6 296.5c2 12.7 17 7.3 25.9 8.5H422c16.9-4.7 2.4-19.3-7.8-21.5l-52.5-27.3c22-11.7 44.7-22.3 66.2-34.8 8.5-14.1-10.5-15.8-20-14.4H279.7c-18.8 7.3.7 21.7 13 17H389c-16.8 8.9-33.9 17-50.3 26.3-8.7 10.9 8.2 15.7 15.5 19.9l34.7 17.8H279.7c-4.4 0-8.1 4.2-8 8.5zM478.4 114c-86 .2-172.2-.4-258.3.3-16 4-11.5 22.4-12.1 34.6V241h-94V114c18-.7 36.2 1.5 53.9-1.2 19.3-8 6.5-36.3-12.2-30.8-42 .2-84.2-.4-126.2.3-21.6 4-12.5 37.2 8 31.7H82v284c-18.5.7-37.3-1.5-55.6 1.2-19.3 8-6.5 36.3 12.2 30.8 42.1-.2 84.2.4 126.2-.3 21.6-4 12.5-37.2-8-31.7H114V273h94c.2 37.5-.4 75.1.3 112.6 3 15.8 21 12 32.8 12.4 80.2-.2 160.4.4 240.6-.3 15.2-2.5 13.5-19.1 13.3-30.7V130c.2-8.8-8-16.2-16.6-16zM463 366H240V146h223v220z"/></svg>