<svg xmlns="http://www.w3.org/2000/svg" width="512" height="512"><path d="M165 251.7l97.5-195.1c10-20.5-13-33.2-30.5-29.6-65 .1-130.1-.2-195.2.2-20.2 2.1-21.4 25.9-11.2 39l92.8 185.6c-32.8 65.9-66 131.6-98.6 197.6C13 468.5 33.7 480.2 50 477c66.2-.3 132.5.6 198.7-.4 22.1-5 17.4-29.4 7.1-43L165 251.6zM73 68h137.2c-23 45.7-45.8 91.4-68.6 137.2L73 68zm0 367l68.6-137.2L210.2 435H73.2zm414.6-293l-82.6-42.7c28.3-15.2 57.6-28.9 85.4-45C501.2 37.9 479 34 467.1 36H299.3c-23.2 8-1.3 27.9 14.5 22h126.4c-21.5 11.4-43.6 22-64.9 33.8-10.6 12.4 7.5 19.1 16.5 23.5l48.4 24.7H299.3c-23.2 8-1.3 27.9 14.5 22H483c10.7.3 14.4-15.4 4.8-20zm-53.3 321h-70.2c-19.9-4-50.2-12.2-47.4-39.3 2.1-18.4 23.3-33.5 40.6-26.7 27-.5 54.2 1 81.1-.8 17.9-13.8-7-22.6-19.9-19.2h-54.4c-17-9.2-39.2 1.8-52.6 13.8-23.3 20.5-19.6 60.8 6.2 77.8 15.3 7.5 30.3 17.2 47.5 16.4 24.4-.6 49 1.2 73.2-1 10.2-4.3 7.2-21-4-21z"/></svg>