<svg xmlns="http://www.w3.org/2000/svg" width="512" height="512"><path d="M462.3 314.2l-88.6-47.8 88.6-44.3c16.1-14-3-31-18.9-26.1-60.8.3-121.7-.5-182.4.4-17.2 9.1-5.5 35.5 12.4 29.6h138.4c-23.2 11.3-46.7 21.8-69.5 33.7-10.8 12.3 5.4 23 16 27.3l53.5 29c-50.3.3-100.6-.5-150.8.4-17.4 8.9-5 34.5 12.4 28.6h184.1c10.6-4.2 15.2-23.8 4.8-30.8zm-266.7-55c34-68.5 68.7-136.7 102.4-205.4 6.3-18.2-9.3-41.7-29.4-37.8-68.7.3-137.4-.5-206.1.4A29.8 29.8 0 0 0 49.4 61l97.9 197c-34 68.6-68.7 137-102.4 205.8-6.5 17.3 10.4 35.7 28 32.1h205.3c24.4-1.4 25.4-30.5 12.7-45.5l-95.3-191.3zM100.2 75h142.5l-71.3 142.4L100.2 75zm0 391l71.2-142.4L242.6 466H100.2z"/></svg>