<svg xmlns="http://www.w3.org/2000/svg" width="512" height="512"><path d="M319.3 233.4c14.6 15.3 36-11.8 18.4-23l-23.9-24A97.6 97.6 0 0 0 315 67.9c9.3-10.2 20.5-18.8 28.3-30 7.3-17.6-19.2-27.7-27.8-12L294.1 47a97.6 97.6 0 0 0-118.5 1.1c-10.5-9.6-19.4-21.3-31-29.4-17.7-7.3-27.7 19.2-12.1 27.8l22.6 22.6a98 98 0 0 0 1.1 115.9c-10 10.9-22.2 20.3-30.8 32.4-7.3 17.6 19.3 27.6 27.8 12l23.8-23.7a98 98 0 0 0 115.8 1.1l26.5 26.5zM235.5 196c-10.9-.3-35.5-4-35.3-13.5l34.1-34.2 37.3 37.3a69.2 69.2 0 0 1-36 10.4zm-1.2-89.2l-38-38a69.4 69.4 0 0 1 77-.9l-39 39zm7.3 223.6c.3 13.8 14.7 10 23.7 10.5h113.2c14.4-7.4 4.6-22.8-7.3-25.4L321.6 290l60.2-30.6c11.4-11.5-2.7-24.4-15.3-20.4H249c-16.4 8-1.8 26 12 21h86.5c-15.7 8-31.8 15.4-47.3 23.8-7.9 9.7 6.2 15.2 13.3 18.6l34 17.6H249c-4.8.7-7 6.3-7.3 10.5zM276 403h102.6c16.6-7.8 1.4-25-12-20-32.6-.2-65.3.5-98-.4-7.5-6.8 4.2-23.8-9.7-27-15.7-4.5-12.6 12.2-15.2 20.4.3 15.6 19 31 32.3 27zm111 61.4c.6-25.1-24-41-46.8-41.4-18.3.5-37-1-55.1.7-20.6-1.5-50.6 20.5-40 41.3.6 8.2-1.3 17 1 24.8 12.5 12.6 23.8-3.4 20-15.9 4.6-12.4-14.3-8-4.3-20.6 8.9-14.7 26.6-9.2 40.8-10.3 17 .2 34.4-.3 51 .3 15.4 3.5 19.3 17 13.5 27.1 1 8.2-3.8 20.4 7.1 23.4 15 3.8 14.7-12.3 13.9-22-.7-2.2 1.5-6.5-1.2-7.4z"/></svg>