<svg xmlns="http://www.w3.org/2000/svg" width="512" height="512"><path d="M222.7 252.4a86.3 86.3 0 0 0-65.2-79.6A85.9 85.9 0 0 0 60.8 217a85.7 85.7 0 1 0 162 40.4c.4-1.5-.1-3.5-.1-5zm-121.5-49a63.9 63.9 0 0 1 72.3.5L137 240.4 100.5 204l.7-.5zm-16.3 89.1a63.8 63.8 0 0 1 0-73l36.5 36.5L85 292.5zm88.6 15.6a63.4 63.4 0 0 1-68.8 2.7c-9-2.9 3-8.2 5.4-12.3l26.9-27 36.5 36.6zm27-48.7a64 64 0 0 1-11.4 33.1L152.6 256l36.5-36.5a63.6 63.6 0 0 1 11.4 39.9zm142.8 23.1c-7.5-1.6-14.7 6.3-12.3 13.5-27.8.1-55.5-.3-83.2.2-15.4 3.2-7.9 26.1 6.4 21.8H331c-1.5 6.2 1 13.8 8 15 16.7-.8 33.2-5.2 49.8-7.4l106.6-17.8-152.1-25.3zM250 213h81c-2.3 7.8 4.4 17.2 13.3 14.4l151.1-25.2c-51.5-8.4-102.9-17.5-154.4-25.4-7.1.1-12.1 7.7-10 14.2-27.8.2-55.5-.3-83.3.2-12.8 2.6-10.8 22 2.3 21.8zM89.5 342.2A98.8 98.8 0 0 1 41 234.8c6-28.3 25.4-52.7 50.6-66.4 11.4-9.6-5.1-26.4-15.5-16.2a120.7 120.7 0 0 0-57.6 124c6 36.4 29.9 70 63.2 86.3 12.4 3.3 19.1-14.7 8-20.3z"/></svg>