<svg xmlns="http://www.w3.org/2000/svg" width="512" height="512"><path d="M196.8 195.5c-9-8.8-18.5 1.4-24.5 8.2l-36 35.9c-15.3-15.1-30.2-30.7-45.8-45.6-13.6-9-25.4 13.4-11.6 21l41 41c-15 15.4-30.7 30.3-45.5 45.9-9 13.6 13.4 25.4 20.9 11.6l41-41c15.4 15 30.3 30.7 46 45.5 13.6 9 25.3-13.4 11.6-21l-41.1-41c15.1-15.3 30.7-30.3 45.5-45.9 3-4.4 2.4-10.8-1.5-14.6zm142.7 85.9c-7.8-.7-13.5 7.3-12.5 14.6-27 .1-54-.4-81 .2-16.1 3.2-8.5 27.2 6.5 22.8H327c-1.3 9 7.8 17.2 16.9 13.6l151.6-25.3c-52-8.6-104-17.4-156-25.9zM248.3 215H327a13 13 0 0 0 16.8 13.5c50.7-8.2 101.3-16.5 151.8-25.3-52.5-8.7-105-17.9-157.6-26.3-7 .3-11.7 7.5-11 14.1-27 .2-54.1-.3-81.1.3-13.4 3-11.5 23.5 2.4 23.7zM89.7 340.7a97 97 0 0 1 2-170.9c12-10-5.2-27.8-16.1-17.2a120.5 120.5 0 0 0-57.8 121.7c5.6 37 29.6 71.4 63.4 87.9 13.2 3.4 20-15.3 8.5-21.5z"/></svg>