<?xml version="1.0" encoding="UTF-8" standalone="no"?>
<svg
   xmlns:dc="http://purl.org/dc/elements/1.1/"
   xmlns:cc="http://creativecommons.org/ns#"
   xmlns:rdf="http://www.w3.org/1999/02/22-rdf-syntax-ns#"
   xmlns:svg="http://www.w3.org/2000/svg"
   xmlns="http://www.w3.org/2000/svg"
   xmlns:sodipodi="http://sodipodi.sourceforge.net/DTD/sodipodi-0.dtd"
   xmlns:inkscape="http://www.inkscape.org/namespaces/inkscape"
   width="512"
   height="512"
   viewBox="0 0 512 512"
   version="1.1"
   id="svg4"
   sodipodi:docname="denotes whether proof.svg"
   inkscape:version="0.92.1 r15371">
  <metadata
     id="metadata10">
    <rdf:RDF>
      <cc:Work
         rdf:about="">
        <dc:format>image/svg+xml</dc:format>
        <dc:type
           rdf:resource="http://purl.org/dc/dcmitype/StillImage" />
      </cc:Work>
    </rdf:RDF>
  </metadata>
  <defs
     id="defs8" />
  <sodipodi:namedview
     pagecolor="#ffffff"
     bordercolor="#666666"
     borderopacity="1"
     objecttolerance="10"
     gridtolerance="10"
     guidetolerance="10"
     inkscape:pageopacity="0"
     inkscape:pageshadow="2"
     inkscape:window-width="640"
     inkscape:window-height="493"
     id="namedview6"
     showgrid="false"
     inkscape:zoom="0.4609375"
     inkscape:cx="256"
     inkscape:cy="256"
     inkscape:window-x="0"
     inkscape:window-y="0"
     inkscape:window-maximized="0"
     inkscape:current-layer="svg4" />
  <path
     d="m 488.57,357.42 c -11.14506,-9.475 -21.44012,3.08975 -27.91283,11.46365 C 448.19812,383.2491 435.73906,397.61455 423.28,411.98 385.44,372.21333 347.6,332.44667 309.76,292.68 c 15.18611,-21.4466 15.07397,-52.07691 0,-73.55 37.84,-39.76667 75.68,-79.53333 113.52,-119.3 16.19073,18.34096 31.76135,37.28314 48.34922,55.23906 16.53249,11.53716 29.95812,-14.91663 14.31742,-24.4114 C 467.56337,110.03291 450.18315,88.334459 431.23,68.32 419.89766,60.730804 411.31477,72.760691 404.65011,80.008369 366.46007,120.13891 328.27004,160.26946 290.08,200.4 269.7135,187.5625 242.24815,187.606 221.86,200.37 179.85306,156.49215 138.34087,112.05236 96.03,68.52 87.170277,62.036643 77.082923,69.486287 72.324284,77.25014 55.109271,97.386089 37.309732,117.06484 20.459453,137.48607 11.002668,155.12413 39.238012,165.45621 46.533103,148.42743 60.585402,132.22495 74.637701,116.02248 88.69,99.82 c 37.85,39.76 75.7,79.52 113.55,119.28 -15.13445,21.46102 -15.07258,52.11779 0,73.59 C 164.4,332.45667 126.56,372.22333 88.72,411.99 72.612035,393.68667 57.016776,374.89207 40.582051,356.90184 25.459957,345.22041 9.8837987,370.3961 25.256688,380.25388 43.808779,401.15585 61.494827,422.96675 80.54,443.35 c 8.558365,6.4601 18.401107,-0.78304 23.48785,-8.04471 C 143.33028,394.04891 182.619,352.66952 221.93,311.49 c 20.35597,12.7784 47.84652,12.7827 68.18,-0.04 42.01824,43.87502 83.53282,88.3061 125.86,131.84 8.1481,6.27533 18.30267,-0.0472 22.81922,-7.68152 17.50471,-20.46722 35.58867,-40.48109 52.73133,-61.23168 3.1884,-5.46967 1.82586,-12.87081 -2.95055,-16.9568 z M 293.95,258.14 c -0.54806,24.91967 -29.12915,43.17494 -51.96,33.14 -23.49863,-8.29418 -31.8762,-41.17068 -15.16,-59.67 15.07329,-19.40078 48.26485,-17.43384 60.92578,3.62074 4.49326,6.65301 6.60036,15.34116 6.19422,22.90926 z"
     id="path2"
     inkscape:connector-curvature="0" />
</svg>
