<?xml version="1.0" encoding="UTF-8" standalone="no"?>
<svg
   xmlns:dc="http://purl.org/dc/elements/1.1/"
   xmlns:cc="http://creativecommons.org/ns#"
   xmlns:rdf="http://www.w3.org/1999/02/22-rdf-syntax-ns#"
   xmlns:svg="http://www.w3.org/2000/svg"
   xmlns="http://www.w3.org/2000/svg"
   xmlns:sodipodi="http://sodipodi.sourceforge.net/DTD/sodipodi-0.dtd"
   xmlns:inkscape="http://www.inkscape.org/namespaces/inkscape"
   width="512"
   height="512"
   viewBox="0 0 512 512"
   version="1.1"
   id="svg6"
   sodipodi:docname="indicates timer switch.svg"
   inkscape:version="0.92.1 r15371">
  <metadata
     id="metadata12">
    <rdf:RDF>
      <cc:Work
         rdf:about="">
        <dc:format>image/svg+xml</dc:format>
        <dc:type
           rdf:resource="http://purl.org/dc/dcmitype/StillImage" />
      </cc:Work>
    </rdf:RDF>
  </metadata>
  <defs
     id="defs10" />
  <sodipodi:namedview
     pagecolor="#ffffff"
     bordercolor="#666666"
     borderopacity="1"
     objecttolerance="10"
     gridtolerance="10"
     guidetolerance="10"
     inkscape:pageopacity="0"
     inkscape:pageshadow="2"
     inkscape:window-width="638"
     inkscape:window-height="493"
     id="namedview8"
     showgrid="false"
     inkscape:zoom="0.4609375"
     inkscape:cx="256"
     inkscape:cy="256"
     inkscape:window-x="0"
     inkscape:window-y="0"
     inkscape:window-maximized="0"
     inkscape:current-layer="svg6" />
  <path
     d="m 129.66,229.42 c -7.24352,-5.23871 -15.94898,-8.87557 -22.2,-15.20375 -4.7735,-25.94936 38.78213,13.58342 35.40484,-18.30281 -8.98465,-16.71212 -38.93358,-22.5902 -52.30734,-7.16969 -14.242541,15.68698 -7.858336,42.91609 11.42647,51.25141 6.81473,5.53044 21.28455,8.74232 16.19728,20.36734 -10.8412,2.29087 -38.709334,-14.61813 -34.63875,11.28125 11.386349,15.42395 41.155,21.06591 53.48471,3.25142 C 147.23776,261.06158 144.34632,238.96822 129.66,229.42 Z M 492.03,188 c -23.24303,-26.56258 -46.06249,-53.55673 -69.56,-79.86 -8.54744,-6.79741 -17.1403,1.262 -22.14663,7.83949 C 351.44892,167.30966 302.57446,218.63983 253.7,269.97 c -29.47492,-21.17611 -73.78656,-15.72673 -97.46786,11.6954 -23.12703,24.79272 -25.51439,65.52951 -5.35415,92.80853 20.21817,29.80132 63.20541,40.32197 94.86758,23.12424 31.80228,-15.59497 48.18315,-55.58823 36.6678,-89.02492 -2.57093,-7.97937 -6.46558,-15.56096 -11.56337,-22.22325 47.95,-50.37667 95.9,-100.75333 143.85,-151.13 20.47586,23.31018 40.40369,47.15092 61.22188,70.12969 C 487.39804,213.81057 501.01659,198.23548 492.03,188 Z M 262.28,334.4 c -0.93486,28.64878 -29.64768,52.09173 -57.909,47.13213 -28.31116,-3.23115 -49.19364,-33.46988 -42.23361,-61.0934 5.37525,-28.395 37.97776,-47.04581 65.1726,-37.2294 C 248.9451,289.87214 263.85444,311.8505 262.28,334.4 Z M 72.77,180 C 56.650302,180.54913 40.240254,178.8488 24.318906,180.95109 9.4070738,187.58507 20.391459,208.59984 34.593572,204 43.089079,202.61687 37.311083,215.50725 39,220.93072 c 0.563249,19.19129 -1.170849,38.67802 0.951094,57.67037 C 46.585071,293.51293 67.599837,282.52854 63,268.32643 63,246.88429 63,225.44214 63,204 73.438744,206.09269 88.894397,200.73897 83.734531,187.35328 81.96037,183.01207 77.482895,179.94105 72.77,180 Z"
     id="path4"
     inkscape:connector-curvature="0" />
</svg>
