<?xml version="1.0" encoding="UTF-8" standalone="no"?>
<svg
   xmlns:dc="http://purl.org/dc/elements/1.1/"
   xmlns:cc="http://creativecommons.org/ns#"
   xmlns:rdf="http://www.w3.org/1999/02/22-rdf-syntax-ns#"
   xmlns:svg="http://www.w3.org/2000/svg"
   xmlns="http://www.w3.org/2000/svg"
   xmlns:sodipodi="http://sodipodi.sourceforge.net/DTD/sodipodi-0.dtd"
   xmlns:inkscape="http://www.inkscape.org/namespaces/inkscape"
   width="512"
   height="512"
   viewBox="0 0 512 512"
   version="1.1"
   id="svg4"
   sodipodi:docname="one pole two way light switch.svg"
   inkscape:version="0.92.1 r15371">
  <metadata
     id="metadata10">
    <rdf:RDF>
      <cc:Work
         rdf:about="">
        <dc:format>image/svg+xml</dc:format>
        <dc:type
           rdf:resource="http://purl.org/dc/dcmitype/StillImage" />
      </cc:Work>
    </rdf:RDF>
  </metadata>
  <defs
     id="defs8" />
  <sodipodi:namedview
     pagecolor="#ffffff"
     bordercolor="#666666"
     borderopacity="1"
     objecttolerance="10"
     gridtolerance="10"
     guidetolerance="10"
     inkscape:pageopacity="0"
     inkscape:pageshadow="2"
     inkscape:window-width="638"
     inkscape:window-height="493"
     id="namedview6"
     showgrid="false"
     inkscape:zoom="0.4609375"
     inkscape:cx="256"
     inkscape:cy="256"
     inkscape:window-x="0"
     inkscape:window-y="0"
     inkscape:window-maximized="0"
     inkscape:current-layer="svg4" />
  <path
     d="M 492.3,164.73 C 461.09373,129.07201 430.49768,92.811009 398.92,57.52 389.07171,49.478567 377.50888,57.121698 371.54473,65.602312 305.19649,135.31487 238.84824,205.02744 172.5,274.74 134.60979,247.68 78.236778,252.75588 45.805443,286.16992 13.200977,317.17605 6.5525303,370.80914 30.500905,408.87658 47.186842,437.02021 78.507564,455.59118 111.17,456.98 c 9.96237,1.95137 20.77111,-1.39457 30.8607,-3.35166 45.55049,-11.34594 78.36744,-58.21783 73.50468,-104.88864 -1.5632,-18.76453 -8.6064,-37.0392 -20.02538,-52.0097 64.36667,-67.63333 128.73333,-135.26667 193.1,-202.9 27.4806,31.30491 54.24106,63.30624 82.17703,94.17078 C 485.88475,199.26073 504.44477,178.74411 492.3,164.73 Z M 184,361.13 c -1.23693,35.52086 -34.1515,65.86436 -69.66917,64.06964 -35.536831,-0.0572 -66.985561,-31.94476 -66.29083,-67.52439 -1.311071,-36.4353 31.322952,-69.36108 67.73928,-68.53827 36.49511,-1.11441 69.33914,31.65075 68.33072,68.15302 -0.0378,1.22963 -0.0583,2.71665 -0.11,3.84 z"
     id="path2"
     inkscape:connector-curvature="0" />
</svg>
