<?xml version="1.0" encoding="UTF-8" standalone="no"?>
<svg
   xmlns:dc="http://purl.org/dc/elements/1.1/"
   xmlns:cc="http://creativecommons.org/ns#"
   xmlns:rdf="http://www.w3.org/1999/02/22-rdf-syntax-ns#"
   xmlns:svg="http://www.w3.org/2000/svg"
   xmlns="http://www.w3.org/2000/svg"
   xmlns:sodipodi="http://sodipodi.sourceforge.net/DTD/sodipodi-0.dtd"
   xmlns:inkscape="http://www.inkscape.org/namespaces/inkscape"
   width="512"
   height="512"
   viewBox="0 0 512 512"
   version="1.1"
   id="svg6"
   sodipodi:docname="push button on off.svg"
   inkscape:version="0.92.1 r15371">
  <metadata
     id="metadata12">
    <rdf:RDF>
      <cc:Work
         rdf:about="">
        <dc:format>image/svg+xml</dc:format>
        <dc:type
           rdf:resource="http://purl.org/dc/dcmitype/StillImage" />
      </cc:Work>
    </rdf:RDF>
  </metadata>
  <defs
     id="defs10" />
  <sodipodi:namedview
     pagecolor="#ffffff"
     bordercolor="#666666"
     borderopacity="1"
     objecttolerance="10"
     gridtolerance="10"
     guidetolerance="10"
     inkscape:pageopacity="0"
     inkscape:pageshadow="2"
     inkscape:window-width="640"
     inkscape:window-height="493"
     id="namedview8"
     showgrid="false"
     inkscape:zoom="0.4609375"
     inkscape:cx="256"
     inkscape:cy="256"
     inkscape:window-x="0"
     inkscape:window-y="0"
     inkscape:window-maximized="0"
     inkscape:current-layer="svg6" />
  <path
     d="M 493.96,249.66 C 492.44758,166.62593 443.72788,86.549364 370.51061,47.28399 296.00385,5.34964 198.9141,8.724931 127.43611,55.592293 57.571327,99.555108 14.333123,181.99199 18.102896,264.46426 20.17423,348.24446 70.68945,428.44248 145.19947,466.72881 220.10989,507.01663 316.50665,502.17236 387.03914,454.65434 454.85201,410.74273 496.67023,330.377 493.85,249.65 Z m -152.9,13.93 c -2.81785,41.73022 -40.24669,77.1992 -82.07214,77.75676 -42.30377,2.44318 -82.52768,-31.25697 -87.57732,-73.31806 -6.89325,-41.85934 22.39483,-85.44009 63.73884,-94.92182 33.83517,-8.41667 72.05509,5.25052 91.40062,34.64312 11.03467,16.23089 16.376,36.27611 14.51,55.84 z m -13.7,-78.97 c -32.5159,-33.74343 -89.08053,-39.37149 -127.52246,-12.51439 -40.578,25.95258 -56.61135,82.73882 -35.57227,126.0732 4.93205,10.86266 11.88956,20.80224 20.28473,29.25119 -28.65,28.65333 -57.3,57.30667 -85.95,85.96 C 43.875474,359.35535 20.315646,275.73629 40.263123,201.28257 59.470047,122.0887 125.82784,56.962912 205.38124,39.28449 278.78235,21.056134 360.3238,44.954953 413.34,98.63 c -28.64805,28.65472 -57.39164,57.37831 -85.98,85.99 z m -208.32,230.3 c 24.98667,-24.99333 49.97333,-49.98667 74.96,-74.98"
     id="path4"
     inkscape:connector-curvature="0" />
</svg>
