<?xml version="1.0" encoding="UTF-8" standalone="no"?>
<svg
   xmlns:dc="http://purl.org/dc/elements/1.1/"
   xmlns:cc="http://creativecommons.org/ns#"
   xmlns:rdf="http://www.w3.org/1999/02/22-rdf-syntax-ns#"
   xmlns:svg="http://www.w3.org/2000/svg"
   xmlns="http://www.w3.org/2000/svg"
   xmlns:sodipodi="http://sodipodi.sourceforge.net/DTD/sodipodi-0.dtd"
   xmlns:inkscape="http://www.inkscape.org/namespaces/inkscape"
   width="512"
   height="512"
   viewBox="0 0 512 512"
   version="1.1"
   id="svg4"
   sodipodi:docname="push button internally illuminated.svg"
   inkscape:version="0.92.1 r15371">
  <metadata
     id="metadata10">
    <rdf:RDF>
      <cc:Work
         rdf:about="">
        <dc:format>image/svg+xml</dc:format>
        <dc:type
           rdf:resource="http://purl.org/dc/dcmitype/StillImage" />
      </cc:Work>
    </rdf:RDF>
  </metadata>
  <defs
     id="defs8" />
  <sodipodi:namedview
     pagecolor="#ffffff"
     bordercolor="#666666"
     borderopacity="1"
     objecttolerance="10"
     gridtolerance="10"
     guidetolerance="10"
     inkscape:pageopacity="0"
     inkscape:pageshadow="2"
     inkscape:window-width="640"
     inkscape:window-height="493"
     id="namedview6"
     showgrid="false"
     inkscape:zoom="0.4609375"
     inkscape:cx="256"
     inkscape:cy="256"
     inkscape:window-x="0"
     inkscape:window-y="0"
     inkscape:window-maximized="0"
     inkscape:current-layer="svg4" />
  <path
     d="M 493.87,249.72 C 492.30776,167.16605 444.1858,87.510503 371.61287,48.037967 299.5988,7.0916431 206.16586,8.2673966 135.18,50.97 64.601083,91.746487 18.658305,170.93623 18.04,252.42 c -1.911698,82.56517 42.961977,164.15543 113.86918,206.56183 69.98925,43.64457 162.88029,46.51574 235.42522,7.25533 73.96264,-38.30362 124.0031,-117.95577 126.43376,-201.21291 0.2814,-5.08725 0.36931,-10.24773 0.10184,-15.30425 z M 122.53,95.46 C 180.72987,46.159426 266.71302,33.234483 336.74658,63.547309 357.139,72.137909 376.21347,83.922738 392.88,98.49 c -24.65308,24.35863 -49.25508,49.84324 -73.94,73.5 -36.05446,-27.85477 -90.23816,-27.7693 -126.18,0.23 -24.57333,-24.57333 -49.14667,-49.14667 -73.72,-73.72 1.14597,-1.026912 2.38202,-1.981995 3.49,-3.04 z M 331.8,256.04 c 0.80783,39.65079 -33.8956,75.47898 -73.59427,75.67051 -40.18882,2.23155 -77.45695,-32.57205 -77.98228,-72.81666 -2.52794,-39.84178 31.35656,-77.20726 71.26468,-78.50291 40.1628,-3.43446 78.31622,30.38606 80.08187,70.59906 0.0911,1.65103 0.0296,3.53387 0.23,5.05 z M 98.42,392.86 C 49.360918,337.40493 33.67366,254.97164 59.489103,185.49795 68.190015,161.18582 81.478107,138.56043 98.4,119.06 c 24.58667,24.58 49.17333,49.16 73.76,73.74 -28.08163,35.99601 -28.08188,90.373 -0.04,126.4 -24.5494,24.52942 -49.23666,49.24995 -73.7,73.66 z m 293,21.92 C 333.51676,465.2194 246.9444,478.90515 176.27464,448.89745 155.45118,440.29082 136.00006,428.32897 119.02,413.51 c 24.60458,-24.48436 49.17263,-49.38621 73.8,-73.61 36.08494,27.9061 90.3271,27.98152 126.32,-0.12 24.57667,24.56667 49.15333,49.13333 73.73,73.7 1.98891,-0.50781 -2.12929,1.30926 -1.45,1.3 z m 73.2,-152.75 c -1.28435,47.77501 -19.6373,94.88046 -51.12,130.85 -24.57667,-24.56667 -49.15333,-49.13333 -73.73,-73.7 28.03937,-35.98063 28.07455,-90.38378 -0.04,-126.33 24.58333,-24.58 49.16667,-49.16 73.75,-73.74 34.21785,39.01342 52.62199,91.285 51.14,142.92 z"
     id="path2"
     inkscape:connector-curvature="0" />
</svg>
