<?xml version="1.0" encoding="UTF-8" standalone="no"?>
<svg
   xmlns:dc="http://purl.org/dc/elements/1.1/"
   xmlns:cc="http://creativecommons.org/ns#"
   xmlns:rdf="http://www.w3.org/1999/02/22-rdf-syntax-ns#"
   xmlns:svg="http://www.w3.org/2000/svg"
   xmlns="http://www.w3.org/2000/svg"
   xmlns:sodipodi="http://sodipodi.sourceforge.net/DTD/sodipodi-0.dtd"
   xmlns:inkscape="http://www.inkscape.org/namespaces/inkscape"
   width="512"
   height="512"
   viewBox="0 0 512 512"
   version="1.1"
   id="svg6"
   sodipodi:docname="two pole pull cord operated.svg"
   inkscape:version="0.92.1 r15371">
  <metadata
     id="metadata12">
    <rdf:RDF>
      <cc:Work
         rdf:about="">
        <dc:format>image/svg+xml</dc:format>
        <dc:type
           rdf:resource="http://purl.org/dc/dcmitype/StillImage" />
      </cc:Work>
    </rdf:RDF>
  </metadata>
  <defs
     id="defs10" />
  <sodipodi:namedview
     pagecolor="#ffffff"
     bordercolor="#666666"
     borderopacity="1"
     objecttolerance="10"
     gridtolerance="10"
     guidetolerance="10"
     inkscape:pageopacity="0"
     inkscape:pageshadow="2"
     inkscape:window-width="640"
     inkscape:window-height="493"
     id="namedview8"
     showgrid="false"
     inkscape:zoom="0.4609375"
     inkscape:cx="256"
     inkscape:cy="256"
     inkscape:window-x="0"
     inkscape:window-y="0"
     inkscape:window-maximized="0"
     inkscape:current-layer="svg6" />
  <path
     d="M 491.82,168.7 C 459.85442,132.21661 428.55593,95.006407 396.18,58.97 388.17622,55.926029 384.44541,67.043541 378.98996,70.769226 309.56331,143.72282 240.13665,216.67641 170.71,289.63 137.28651,260.34745 82.694441,260.96593 50.015053,291.11013 16.495188,319.46381 8.9259075,372.38563 32.614935,409.17813 48.21099,434.85092 77.0669,451.66098 107.05,452.88 c 7.93591,1.99206 17.25785,-1.24148 25.83,-2.45 42.37975,-9.40636 73.97107,-51.68827 70.85,-95.01 -1.2476,-21.34515 -9.81175,-42.56916 -24.81,-57.93 51.69333,-54.38667 103.38667,-108.77333 155.08,-163.16 0,42.46667 0,84.93333 0,127.4 -6.21774,-4.80969 -10.32515,-13.30296 -17.71,-16.05 -7.88517,-0.16879 -6.47792,9.64023 -4.06756,14.38685 7.85788,28.8667 14.86991,58.06784 23.23756,86.73315 3.51805,5.30392 10.72946,1.94963 11.01075,-4.15897 7.83018,-30.56451 16.5777,-60.99436 23.84925,-91.64103 -0.47658,-6.88288 -9.91426,-6.58626 -12.46524,-1.07382 -4.34654,2.83009 -13.94115,18.29922 -11.85476,5.63674 0,-40.0643 0,-80.12861 0,-120.19292 27.96667,32.25 55.93333,64.5 83.9,96.75 15.74096,6.47323 7.83555,-13.20529 -0.16209,-17.84787 C 402.50527,182.86142 375.27264,151.45071 348.04,120.04 c 15.04667,-15.80667 30.09333,-31.613333 45.14,-47.42 29.96667,34.55 59.93333,69.1 89.9,103.65 4.85616,5.8552 13.79415,-2.04261 8.74,-7.57 z m -311.8,149.06 c 21.61724,33.31446 13.47355,81.53309 -17.98,105.81 -30.32654,25.49986 -79.005898,23.34321 -107,-4.68 C 27.811219,393.45502 21.965782,348.74493 42.624457,317.53782 63.45398,282.49013 112.39054,269.06792 148.21383,288.49426 161.19459,295.10185 172.41101,305.45222 180.02,317.76 Z M 334,299 c -2.5,-9.46667 -5,-18.93333 -7.5,-28.4 7.41817,4.57036 8.58264,11.73599 7.5,19.83415 0,2.85529 0,5.71057 0,8.56585 z m 19.5,-28.4 c -2.5,9.46667 -5,18.93333 -7.5,28.4 1.0301,-7.36946 -2.1466,-16.48472 1.74947,-22.66481 1.91684,-1.91173 3.83369,-3.82346 5.75053,-5.73519 z M 119.04,414.92 c 24.98667,-24.99333 49.97333,-49.98667 74.96,-74.98"
     id="path4"
     inkscape:connector-curvature="0" />
</svg>
