<?xml version="1.0" encoding="UTF-8" standalone="no"?>
<svg
   xmlns:dc="http://purl.org/dc/elements/1.1/"
   xmlns:cc="http://creativecommons.org/ns#"
   xmlns:rdf="http://www.w3.org/1999/02/22-rdf-syntax-ns#"
   xmlns:svg="http://www.w3.org/2000/svg"
   xmlns="http://www.w3.org/2000/svg"
   xmlns:sodipodi="http://sodipodi.sourceforge.net/DTD/sodipodi-0.dtd"
   xmlns:inkscape="http://www.inkscape.org/namespaces/inkscape"
   width="512"
   height="512"
   viewBox="0 0 512 512"
   version="1.1"
   id="svg6"
   sodipodi:docname="two pole one way.svg"
   inkscape:version="0.92.1 r15371">
  <metadata
     id="metadata12">
    <rdf:RDF>
      <cc:Work
         rdf:about="">
        <dc:format>image/svg+xml</dc:format>
        <dc:type
           rdf:resource="http://purl.org/dc/dcmitype/StillImage" />
      </cc:Work>
    </rdf:RDF>
  </metadata>
  <defs
     id="defs10" />
  <sodipodi:namedview
     pagecolor="#ffffff"
     bordercolor="#666666"
     borderopacity="1"
     objecttolerance="10"
     gridtolerance="10"
     guidetolerance="10"
     inkscape:pageopacity="0"
     inkscape:pageshadow="2"
     inkscape:window-width="640"
     inkscape:window-height="493"
     id="namedview8"
     showgrid="false"
     inkscape:zoom="0.4609375"
     inkscape:cx="256"
     inkscape:cy="256"
     inkscape:window-x="0"
     inkscape:window-y="0"
     inkscape:window-maximized="0"
     inkscape:current-layer="svg6" />
  <path
     d="M 489.83,157.8 C 456.15166,126.01293 422.99223,93.62173 388.98953,62.212285 374.95031,54.189252 366.06504,70.742742 357.28875,78.804521 294.67916,144.60301 232.06958,210.40151 169.46,276.2 133.33578,249.8811 79.387127,253.93358 47.52,285.24 26.464344,304.90601 15.442086,334.40281 17.86,362.9 c 2.438732,46.39369 43.135657,86.548 89.48178,88.77777 45.5465,4.11685 90.58894,-28.92208 100.58605,-73.5093 7.22816,-28.12364 0.27988,-59.19738 -17.58783,-82.10847 46.28667,-48.64 92.57333,-97.28 138.86,-145.92 30.16147,28.4597 59.83073,57.49135 90.30078,85.5925 16.98114,10.88012 31.21964,-17.07838 14.06366,-26.04592 C 405.39963,182.87772 377.23481,156.06886 349.07,129.26 c 10.93333,-11.48333 21.86667,-22.96667 32.8,-34.45 30.16568,28.45807 59.8589,57.46317 90.32078,85.57828 C 486.64447,189.641 502.32083,169.53884 489.83,157.8 Z M 181.7,359.3 c -1.24613,35.34651 -34.02425,65.53035 -69.36788,63.75072 C 76.376342,423.1253 43.419005,389.64211 46.99,353.31 c -1.521415,-37.3333 35.104541,-69.19031 71.72843,-65.60099 35.39716,1.62905 65.28089,34.81782 62.98781,70.21836 1.98839,-4.17761 -0.42819,1.9025 -0.006,1.37263 z m -62.66,55.62 c 24.98667,-24.99333 49.97333,-49.98667 74.96,-74.98"
     id="path4"
     inkscape:connector-curvature="0" />
</svg>
