<?xml version="1.0" encoding="UTF-8" standalone="no"?>
<svg
   xmlns:dc="http://purl.org/dc/elements/1.1/"
   xmlns:cc="http://creativecommons.org/ns#"
   xmlns:rdf="http://www.w3.org/1999/02/22-rdf-syntax-ns#"
   xmlns:svg="http://www.w3.org/2000/svg"
   xmlns="http://www.w3.org/2000/svg"
   xmlns:sodipodi="http://sodipodi.sourceforge.net/DTD/sodipodi-0.dtd"
   xmlns:inkscape="http://www.inkscape.org/namespaces/inkscape"
   width="512"
   height="512"
   viewBox="0 0 512 512"
   version="1.1"
   id="svg8"
   sodipodi:docname="two pole dimming.svg"
   inkscape:version="0.92.1 r15371">
  <metadata
     id="metadata14">
    <rdf:RDF>
      <cc:Work
         rdf:about="">
        <dc:format>image/svg+xml</dc:format>
        <dc:type
           rdf:resource="http://purl.org/dc/dcmitype/StillImage" />
      </cc:Work>
    </rdf:RDF>
  </metadata>
  <defs
     id="defs12" />
  <sodipodi:namedview
     pagecolor="#ffffff"
     bordercolor="#666666"
     borderopacity="1"
     objecttolerance="10"
     gridtolerance="10"
     guidetolerance="10"
     inkscape:pageopacity="0"
     inkscape:pageshadow="2"
     inkscape:window-width="640"
     inkscape:window-height="493"
     id="namedview10"
     showgrid="false"
     inkscape:zoom="0.4609375"
     inkscape:cx="256"
     inkscape:cy="256"
     inkscape:window-x="0"
     inkscape:window-y="0"
     inkscape:window-maximized="0"
     inkscape:current-layer="svg8" />
  <path
     d="M 58.76,210 H 59 Z M 492.7,156.9 C 463.82817,129.83965 435.71534,101.7984 406.37,75.35 397.20878,75.458073 392.85527,86.196357 386.13589,91.498374 331.91744,148.37344 277.64317,205.72398 223.42,262.26 c -28.08434,-23.72329 -73.1999,-22.45177 -99.72,3.08 -15.60667,-15.06667 -31.213333,-30.13333 -46.82,-45.2 6.197439,-1.36112 17.309369,3.18972 19.63,-5.18 -0.09036,-8.26193 -11.382739,-8.97687 -16.473653,-13.45847 C 61.182277,191.41652 42.890069,179.90319 23.7,170.67 c -7.256618,-0.37973 -7.484546,9.11141 -2.84652,12.78619 13.250369,21.13849 25.34906,43.21288 39.28652,63.79381 4.752682,4.42632 10.922801,-3.02087 8.948936,-8.41232 -2.056612,-11.98862 1.92427,-10.03199 8.466375,-2.15951 12.784897,12.34394 25.569789,24.68789 38.354689,37.03183 -23.644049,28.18014 -21.85739,73.22835 3.77,99.57 21.77753,23.79052 58.75611,31.34651 87.72791,17.10333 6.36903,-2.8886 12.28228,-6.7674 17.57209,-11.33333 20.15905,19.0658 39.60715,39.02842 60.2125,57.53125 15.66807,-0.35469 2.22802,-14.94141 -4.22022,-19.45373 C 265.01818,401.72168 249.06409,386.31584 233.11,370.91 252.49961,348.58807 257.2027,315.51037 244.28087,288.97696 241.05422,282.17941 236.87023,275.82555 231.8,270.26 275,224.87 318.2,179.48 361.4,134.09 c 26.00283,24.365 51.31021,49.61601 77.7475,73.4275 15.69083,-0.42694 2.14889,-14.95889 -4.34772,-19.42435 C 412.96985,167.31877 391.13993,146.54438 369.31,125.77 c 11.74,-12.33333 23.48,-24.66667 35.22,-37 27.464,25.74973 54.22257,52.40172 82.1275,77.5875 5.76768,2.40459 10.65572,-5.45971 6.0425,-9.4575 z m -429.9,52 c -4.186643,-0.12161 -6.283646,4.21743 -4.977427,7.29662 0.860215,11.80327 -5.913348,-5.74707 -8.953958,-8.94335 -1.434843,-4.02503 -13.927284,-18.68355 -5.076473,-12.81742 8.572619,4.78805 17.145239,9.5761 25.717858,14.36415 -2.229078,0.0333 -4.514544,0.067 -6.71,0.1 z m 153.1,162.8 c -25.80069,21.8423 -68.16206,18.03965 -89.58998,-8.14125 C 106.42688,341.33703 105.55756,304.99218 124.15,281.74 c 30.83333,29.76667 61.66667,59.53333 92.5,89.3 l -0.75,0.63 z m 16.16,-81.36 c 12.75351,22.70413 9.77419,52.93965 -7.27,72.65 -30.93333,-29.87333 -61.86667,-59.74667 -92.8,-89.62 24.89418,-23.72935 68.46864,-21.60842 90.97905,4.37502 3.53766,3.78612 6.58239,8.20757 9.09095,12.59498 z M 119.04,414.92 c 24.98667,-24.99333 49.97333,-49.98667 74.96,-74.98"
     id="path6"
     inkscape:connector-curvature="0" />
</svg>
