<svg xmlns="http://www.w3.org/2000/svg" width="512" height="512"><path d="M432.6 140c-20.5-11.3-29.2 23-7.8 27.8 43.6 32 56.7 97.6 28.6 143.9-9.2 17.1-24.5 29.5-39.4 41.1-11.2 20.8 20.5 28 30.1 10.9a139 139 0 0 0 39-164.7 137.8 137.8 0 0 0-50.5-59zm-15.7 94.1a114 114 0 0 0-49.2-76.8c-20.8-7.5-25.2 23.6-6.5 29.1a89.4 89.4 0 0 1 11 121.1c-12 10.1-39.3 34.7-10 42 14.8-3.5 24.9-17.6 34.3-29 18-24.6 25.5-56.4 20.4-86.4zM253.2 139c-75.2.2-150.5-.4-225.8.3-14 3.5-9.7 19.7-10.4 30.4.2 63.7-.3 127.4.3 191C19.6 374.6 34.9 372 45 372c70.3-.2 140.6.4 210.9-.3 14.3-3.5 10.5-19.8 11-30.7-.2-63.7.4-127.5-.3-191.1-1.2-6.2-7.1-11-13.5-10.9zM240 344H44V166h196v178zm114.2-106.3c-5.7-21.5-20.6-45-43.2-50.6-23.4 4.6-8.8 28.4 5.2 34.8a51.6 51.6 0 0 1-11.6 77.8c-20.2 15.3 11.3 36.5 23.3 16.7a78.7 78.7 0 0 0 26.3-78.7z"/></svg>