<svg xmlns="http://www.w3.org/2000/svg" width="512" height="512"><path d="M425.5 345c13.2-.1 13.1-14.7 12.5-24.4-.2-48.2.3-96.5-.3-144.7-3.5-17-29.3-9.2-24.7 6.8.2 50.8-.3 101.6.3 152.4 1 5.6 6.5 10 12.2 9.8zm-163.8-3c17.7-.7 35.7 1.7 53-1.8 29.2-11.4 39-46 41.7-74.3 2.8-35.3-6-77.1-38.4-96.6-17.4-8.7-37.5-4.1-56.2-5.3-13.5-.1-14.9 14.2-13.8 24.3.2 48.3-.4 96.6.3 144.8 1.6 5.7 7.8 8.9 13.4 8.9zM273 189c14.7.9 32.6-4 42.6 10.4 21.3 28.3 20.8 68.7 7.3 100.3a26.9 26.9 0 0 1-30.6 18.3c-6-.7-15 1.5-19.3-1V189zM84.4 282.7c4.8 27.1 21.2 58 51.5 61.9 21.5 2.9 43.7.8 64.8-4.2 9.3-4.6 5.7-15.8 6.3-24-.5-18.2 1.1-36.6-1-54.5-5.7-10.8-19.5-5.7-29.5-7-10 1.3-22.7-3.4-30.2 5.3-8.2 12.9 7.6 21.6 18.9 18.8 5.3 1.4 16.1-2.8 17.8 2.2v37.6c-18.2 2.4-38.4 5.7-55.2-3.4-19.2-17.3-22.4-46-21.6-70.5.7-19.7 8.9-39.3 25.3-51 7-4.7 16.8-4.8 25-6.6 14.5-1.7 25.8 15.8 40.2 9.6 13.1-9.2 1.4-23.3-10.1-25.9a58.9 58.9 0 0 0-48.9-5.3c-8.3 1.9-17.5 3-23.1 10.2-20.5 15.1-31 39.9-33.1 64.6-1.1 14-.5 28.5 2.9 42.2zM492 135.4c-.1-13.2-14.7-13-24.3-12.4H31.4c-13.2.1-13 14.7-12.4 24.3.2 77.3-.3 154.6.3 231.8 3.4 13.6 19.1 9.1 29.4 9.9h431c13.1-.1 12.9-14.7 12.3-24.3V135.4zM469 364H44V148h425v216z"/></svg>