<svg xmlns="http://www.w3.org/2000/svg" width="512" height="512"><path d="M374.3 139.3c13.7-3.8 21.4-17.9 32-26.7 7.6-9.6 23.3-16.7 19.7-30.8-10.2-18.2-25.9-.4-34.5 9-9.6 10.4-21 19.3-29.2 30.6-3.6 8.2 3.1 18.1 12 17.9zM113.9 359.6c-14 14.8-29.8 28-42.3 43.8-4.2 25.6 24.5 17 32.6 2.5 10-10.9 22-20.3 30.8-32.2 5.5-12.8-11.6-24-21.1-14.1zM403 250.2a149 149 0 0 0-69.2-123.5C278.1 90 198.4 100.2 152.3 148c-48.5 47-56.3 128.6-17.1 183.6 37.8 58 118.8 81.1 181.4 51.4 51.5-22.6 87-76.3 86.4-132.8zM136.7 263h238.7c-5.4 61.1-64 111-125.2 106.7A120.6 120.6 0 0 1 136.7 263zM255 99.6c17.4-1.6 12.2-21.2 13-33.2-.5-13.7 1.1-27.6-1-41.1-15.2-21.1-29.6 5.1-25 21.2.5 15-1.2 30.3 1 45.2 2 4.7 7 8 12 7.9zM481.6 237c-20.5.6-41.1-1.2-61.4 1-21 15.2 5.2 29.6 21.2 25 15-.5 30.3 1.2 45.2-1 12.9-5 8.8-25.5-5-25zM255 412.1c-17.4 1.6-12.2 21.2-13 33.2.5 13.8-1.1 27.8 1 41.4 15.2 21.1 29.6-5.1 25-21.2-.5-15.1 1.2-30.5-1-45.4a13 13 0 0 0-12-8zM99.7 250c-1.6-17.4-21.2-12.2-33.2-13-13.7.5-27.6-1.1-41.1 1-21.1 15.2 5.1 29.6 21.2 25 15-.5 30.3 1.2 45.2-1 4.7-2 8-6.9 8-12zm278.1 126.5c-24.7-14-25.8 20.4-7.7 28.8 11.3 10.4 21 22.7 33.4 31.8 25.7 4.2 17.1-24.5 2.5-32.6l-28.2-28zm-249.5-241c24.5 14.2 26-20.3 7.9-28.8-11.2-10.5-21-22.8-33.3-32-25.6-4.3-17.2 24.4-2.6 32.6l28 28.1z"/></svg>