<svg xmlns="http://www.w3.org/2000/svg" width="512" height="512"><path d="M415.1 265.8c8.1-8 2.3-20-5.8-25.4-48.8-48.6-97-97.8-146.2-146-14.3-8.4-23.5 9.1-32.9 17C184.8 156.8 139 202 94 247.8c-5.8 8.7-1.2 17 6.3 22.7 49.2 49 98 98.3 147.5 146.9 15.2 8 23.8-10 33.7-18l133.7-133.7zM255.3 386.1L139 270h232.5L255.3 386.2zM293 82.6c13-2.5 20-16 29.8-24.1 8-10.2 24.8-17.5 20.6-32.6-8-16.8-25.7-4.5-33.3 5.9-9.8 10.7-21.7 19.8-30 31.6a14 14 0 0 0 12.9 19.2zm40.2 45.7c12.6 11.4 23.7-4.2 32-12.5 9.2-10 20.3-18.5 28-29.7 6-23-23.5-22.2-31.4-6.4-10.4 11.3-22.8 21-31.8 33.5a14 14 0 0 0 3.2 15.1zm49.7 50c12.6 11.5 23.7-4.2 32.1-12.4 9.2-10 20.4-18.6 28.2-29.7 6.2-23-23.4-22.3-31.4-6.5-10.4 11.3-23 21-32 33.5a14 14 0 0 0 3.1 15.1zm50 50c12.6 11.5 23.7-4.1 32.1-12.4 9.2-10 20.4-18.5 28.2-29.7 6.2-23-23.4-22.3-31.4-6.5-10.4 11.3-23 21-32 33.5a14 14 0 0 0 3.1 15.1zm19.7 55.4c-20.3-15.8-32 17.3-13 26.3 12 11.1 22.4 24.3 35.5 34 23 6.1 22.2-23.5 6.5-31.4l-29-29zM302.7 433.5c-20.3-15.8-32 17.3-13 26.4 12 11 22.4 24.2 35.4 33.9 23.1 6.1 22.3-23.5 6.6-31.4l-29-29zm50-50c-20.2-15.9-32 17.2-13 26.3 11.9 11.1 22.1 24.3 35.2 34 23 6.2 22.3-23.4 6.6-31.4l-28.7-29zm49.8-49.8c-20.4-15.8-32 17.4-13 26.4 12 11 22.4 24 35.4 33.6 23.2 6.2 22.3-23.5 6.5-31.4l-29-28.7zm-193 99.8c-13.3 14.2-28.7 26.8-40.5 42.1-6.2 23.1 23.4 22.3 31.3 6.5 10.5-11.3 23-21 32-33.5 6-13.8-12.5-25.9-22.8-15.1zm-30.3-50c-12.6-11.5-23.7 4-32.1 12.3-9.2 10.1-20.4 18.6-28.2 29.8-6.1 23 23.5 22.2 31.4 6.5 10.4-11.4 23-21.1 32-33.6a14 14 0 0 0-3.1-15zm-50-49.8c-12.6-11.5-23.7 4-32.1 12.3-9.2 10-20.4 18.4-28.2 29.5-6.2 23 23.4 22.4 31.4 6.6 10.4-11.2 22.9-20.9 32-33.3a14 14 0 0 0-3-15zm-50-50C66.5 272.2 55.5 287.8 47 296 38 306 26.7 314.6 19 325.8c-6.2 23.1 23.4 22.3 31.4 6.5 10.4-11.3 23-21 32-33.5a14 14 0 0 0-3.1-15.1zm-19.8-55.4c20.4 15.8 32-17.3 13.1-26.3-12-11.1-22.3-24.3-35.4-34-23.1-6.1-22.3 23.5-6.6 31.4l29 29zM209.6 78.5c20.4 15.8 32-17.3 13-26.3-12-11.1-22.3-24.3-35.4-34-23-6.1-22.2 23.5-6.5 31.4l29 29zm-50 49.8c20.4 15.7 32-17.3 13-26.4-12-11-22.3-24.2-35.4-34-23-6-22.3 23.5-6.5 31.4l28.9 29zm-50 50c20.3 15.8 32-17.3 13-26.4-12-11-22.3-24.2-35.4-33.9-23.1-6.2-22.3 23.4-6.5 31.4l28.9 28.9z"/></svg>