<svg xmlns="http://www.w3.org/2000/svg" width="512" height="512"><path d="M329.6 18H34.7c-19 .2-15.8 19.8-15.7 32.7.2 94-.4 188.1.3 282.1 3.3 17.3 22.9 12.6 35.6 13.2 92.7-.2 185.4.4 278.1-.3 17.5-4.3 12.2-24.4 13-37.7-.2-92.3.4-184.5-.3-276.8A16.4 16.4 0 0 0 329.6 18zM52 312V74.4L289.5 312H52zM403.3 52c25.7-.2 51.4.5 77-.4 22.5-4.6 12.8-39.3-8.7-33.6-23.9.2-47.8-.5-71.7.4-19.2 4.1-16.4 33.4 3.4 33.6zm73.7 64c-25.7.2-51.4-.5-77 .4-22.5 4.6-12.8 39.3 8.7 33.6 23.9-.2 47.8.5 71.7-.4 19.2-4 16.4-33.4-3.4-33.6zm0 98c-25.7.2-51.4-.5-77 .4-22.5 4.6-12.8 39.3 8.7 33.6 23.9-.2 47.8.5 71.7-.4 19.2-4 16.4-33.4-3.4-33.6zm0 98c-25.7.2-51.4-.5-77 .4-22.5 4.6-12.8 39.3 8.7 33.6 23.9-.2 47.8.5 71.7-.4 19.2-4 16.4-33.4-3.4-33.6zm-147.5 74.6c-17 0-17.4 18.9-16.5 31.4.7 21.8-1.5 44 1.3 65.4 8.5 20.3 37.6 6.3 31.7-13.2-.2-23.4.4-46.9-.3-70.3a16.6 16.6 0 0 0-16.2-13.3zm-294 0c-17 0-17.4 18.9-16.5 31.4.7 21.8-1.5 44 1.3 65.4 8.5 20.3 37.6 6.3 31.7-13.2-.2-23.4.4-46.9-.3-70.3a16.6 16.6 0 0 0-16.2-13.3zm98 0c-17 0-17.4 18.9-16.5 31.4.7 21.8-1.5 44 1.3 65.4 8.5 20.3 37.6 6.3 31.7-13.2-.2-23.4.4-46.9-.3-70.3a16.6 16.6 0 0 0-16.2-13.3zm98 0c-17 0-17.4 18.9-16.5 31.4.7 21.8-1.5 44 1.3 65.4 8.5 20.3 37.6 6.3 31.7-13.2-.2-23.4.4-46.9-.3-70.3a16.6 16.6 0 0 0-16.2-13.3z"/></svg>