<svg xmlns="http://www.w3.org/2000/svg" width="512" height="512"><path d="M265.8 127.7c19.5 13.3 40-8.6 52.6-22 13.8-17.8 24.7-37.6 37.1-56.3 9.3-23.8-20.8-23-30.8-8.7-25 20.3-58 37.8-64.4 72.2a17.9 17.9 0 0 0 5.5 14.8zm178.3-23.4c15.6-18.2 26.7-39.8 40.1-59.6 9.3-23.8-20.9-23-30.9-8.7-24.3 19.7-55 36.7-64 69-5.3 26.5 30 27.4 42.4 11 4.4-3.6 8.6-7.6 12.4-11.7zm45.4 52.2c-13.4-10-24.4 6.5-35 13-23.1 17.6-50 35.2-58 65-4.6 25.7 29.4 26.4 41.6 10.9 24-19 36.6-47.3 53.6-72a13.4 13.4 0 0 0-2.2-17zM384.4 303.7c-2.3-11.6-14.8-17.5-21.7-26.3l-152-152c-13.4-11.3-23.8 6-32.8 14C125.5 192 72.8 244.2 20.7 297c-7.5 10.3 3.7 20 10.8 26.5L192 483.8c13.5 11.3 23.9-6 33-14.1 52.4-52.8 105.5-105 157.5-158 1.5-2.4 2.2-5.2 2-8zm-183 152L63.5 318H339L201.3 455.8z"/></svg>