<svg xmlns="http://www.w3.org/2000/svg" width="512" height="512"><path d="M381.2 328.8a83 83 0 0 1-112.8-31.6c-12.6-20.3-38.4 6.8-20.3 20.9 30 47.7 98.5 64.3 147 35.4 48.8-26 70.5-91.2 47.5-141.4-21-51.3-83.8-79.2-136-61.3-26.6 8.8-51.5 27.6-63.2 53.3-.7 24.3 29.4 16.7 34-1.3 28.8-35.5 87.5-38.8 120.2-6.6 35.4 31.5 33.9 93-2.7 123-4.2 3.7-8.8 7-13.7 9.6zM210.8 311c11.1 2.1 24.7-4.2 22.2-17.5-.2-27.6.4-55.2-.3-82.7-2.5-14.2-22.7-15-31.7-7.4-7.1 10.3-2.8 23.8-4 35.6.2 20.3-.4 40.6.3 60.8 1 6.4 7 11.4 13.5 11.2zm-46.6 0c11.1 2 25.2-4 22.8-17.5-.2-27.6.4-55.2-.3-82.7-3-14.1-23.2-15-32.5-7.4-7.4 10.2-3 23.8-4.2 35.6.2 20.3-.4 40.6.3 60.8a14.2 14.2 0 0 0 13.9 11.2zm-46.6 0c11.1 2 24.9-4.1 22.4-17.5-.2-27.6.4-55.2-.3-82.7-2.7-14.3-23-14.8-32.3-7.4-7.7 10-3.1 23.8-4.4 35.6.2 20.3-.4 40.6.3 60.8a14.6 14.6 0 0 0 14.3 11.2zm-46.7 0c11.2 2 25.5-4 23.1-17.5-.2-27.6.4-55.2-.3-82.7-3.2-14-23.4-15-32.7-7.4-7.1 10.3-2.8 23.8-4 35.6.2 20.3-.4 40.6.3 60.8A14 14 0 0 0 70.9 311zM480.6 94H31.4c-14.7-.3-15.3 15.6-14.4 26.4.2 95.6-.4 191.2.3 286.8 4.3 15 22 9.9 33.7 10.8h429.6c14.7.3 15.3-15.6 14.4-26.4-.2-95.6.4-191.2-.3-286.8-1.3-6.4-7.7-11-14.1-10.8zM466 390H46V122h420v268z"/></svg>