<svg xmlns="http://www.w3.org/2000/svg" width="512" height="512"><path d="M480.4 97H31.6c-14.1-.2-14.4 15.2-13.6 25.5.2 94-.4 188.2.3 282.2C22.6 419.3 39.7 414 51 415h429.3c14.1.2 14.4-15.2 13.6-25.5-.2-94 .4-188.2-.3-282.2-1.3-6-7.2-10.4-13.3-10.3zM108 389H45V123h63v29c-10.7.8-22.2-2-32.3 2.2-9.6 8-4.4 21.6-5.7 32.5.2 54.2-.3 108.5.3 162.7 3.4 14.5 20.1 9.8 31 10.6 10.4-3.1 5.7 8.7 6.7 14.9V389zm309-211v156H96V178h321zm52 211h-65v-29c11.2-.9 23.2 2 33.8-2.3C448 350 442.7 336 444 325c-.2-54.2.4-108.5-.3-162.7-4.5-14.5-21.6-9.3-33-10.3-10.3 3.1-5.8-8.6-6.7-14.9.8-6.2-3.4-17.4 6.9-14.1H469v266z"/></svg>