<svg xmlns="http://www.w3.org/2000/svg" width="512" height="512"><path d="M297.8 253.7c-4.4-10.2-14.9-16.4-22-24.8-37.3-37-74.2-74.6-111.8-111.3-12.5-6.5-20 8-28.1 14.7-39 39-78.1 77.9-117 117-6.5 8.7 2.8 17.3 9 22.8C69 312.8 109.7 354 151 394.4c12.5 6.5 20-8 28-14.8 39.1-39.3 78.8-78.1 117.4-117.7 1.4-2.4 2-5.4 1.4-8.2zM157.5 369L56.5 268h201.7L157.5 368.9zM320 161.8c22.4-15 54.2-8.4 70.7 12.2 26.8 25.5 72.8 29.7 102.3 6.7 9.7-18.9-16.5-22.6-27-11.6a61 61 0 0 1-66.5-19.1c-25.2-23.6-68.5-27.3-95.4-4.7-7.3 10 5.5 23.4 16 16.5zM477.6 230a60.8 60.8 0 0 1-78-13.8c-25.2-23.5-68.4-27-95.3-4.8-9.3 18.4 16 22.6 26.4 11.5 21.2-7.9 45.9.1 60 17.3 26.9 25.6 73 29.7 102.4 6.7 7.6-9.9-4.9-23.6-15.5-16.9zm0 65.7a60.6 60.6 0 0 1-78-13.8c-25.2-23.5-68.4-27-95.3-4.8-9.3 18.4 16 22.5 26.4 11.5 21.2-8 45.9.1 60 17.3 26.9 25.6 73 30 102.4 6.7 7.6-10-5-23.6-15.5-16.9zm0 65.7a60.6 60.6 0 0 1-78-13.8c-25.2-23.5-68.4-27-95.3-4.8-9.3 18.4 16 22.5 26.4 11.5 21.2-8 45.9.1 60 17.3 26.9 25.6 73 29.9 102.4 6.6 7.6-9.9-5-23.6-15.5-16.8z"/></svg>