<?xml version="1.0" encoding="UTF-8" standalone="no"?>
<svg
   xmlns:dc="http://purl.org/dc/elements/1.1/"
   xmlns:cc="http://creativecommons.org/ns#"
   xmlns:rdf="http://www.w3.org/1999/02/22-rdf-syntax-ns#"
   xmlns:svg="http://www.w3.org/2000/svg"
   xmlns="http://www.w3.org/2000/svg"
   xmlns:sodipodi="http://sodipodi.sourceforge.net/DTD/sodipodi-0.dtd"
   xmlns:inkscape="http://www.inkscape.org/namespaces/inkscape"
   width="512"
   height="512"
   viewBox="0 0 512 512"
   version="1.1"
   id="svg6"
   sodipodi:docname="extraction fan power.svg"
   inkscape:version="0.92.1 r15371">
  <metadata
     id="metadata12">
    <rdf:RDF>
      <cc:Work
         rdf:about="">
        <dc:format>image/svg+xml</dc:format>
        <dc:type
           rdf:resource="http://purl.org/dc/dcmitype/StillImage" />
      </cc:Work>
    </rdf:RDF>
  </metadata>
  <defs
     id="defs10" />
  <sodipodi:namedview
     pagecolor="#ffffff"
     bordercolor="#666666"
     borderopacity="1"
     objecttolerance="10"
     gridtolerance="10"
     guidetolerance="10"
     inkscape:pageopacity="0"
     inkscape:pageshadow="2"
     inkscape:window-width="638"
     inkscape:window-height="493"
     id="namedview8"
     showgrid="false"
     inkscape:zoom="0.4609375"
     inkscape:cx="256"
     inkscape:cy="256"
     inkscape:window-x="0"
     inkscape:window-y="0"
     inkscape:window-maximized="0"
     inkscape:current-layer="svg6" />
  <path
     id="path4"
     d="m 343.36,105 c -46.37284,0.19225 -92.78441,-0.38441 -139.13307,0.28812 -16.0403,4.30992 -10.09978,23.18312 -11.22693,35.40689 0.18724,84.81716 -0.37428,169.67093 0.28041,254.46522 3.9551,19.78202 33.36843,10.05313 27.71959,-8.23148 0,-38.97625 0,-77.9525 0,-116.92875 24.1913,-0.18229 48.41844,0.36765 72.58693,-0.28041 19.77521,-3.96317 10.04288,-33.36734 -8.23818,-27.71959 -21.44959,0 -42.89917,0 -64.34875,0 0,-36.33333 0,-72.66667 0,-109 41.7345,-0.18488 83.50528,0.37112 125.21693,-0.28041 C 362.68782,129.84139 360.09231,104.54376 343.36,105 Z M 424.22,87.78 C 359.29294,20.912879 253.57482,-0.23648982 167.54822,35.06114 80.917223,68.688477 19.155947,156.97748 18.252283,250.04914 14.729146,340.22051 68.218707,428.90661 149.09742,468.6302 234.28755,512.56378 345.41784,497.91489 415.63354,432.39764 482.67537,373.3265 510.04909,274.85192 484.45385,189.43736 473.4517,151.15198 452.42347,115.88551 424.22,87.78 Z M 256,465.48 C 162.95208,467.09581 75.012593,398.61559 53.126888,308.28804 29.820964,223.04796 68.095321,126.11862 143.17763,79.569545 218.47989,29.549255 325.69541,37.347733 393.01077,97.667124 462.2559,155.6451 485.44274,260.39886 446.94528,342.12591 414.21508,416.00065 336.96068,466.35186 256,465.48 Z" />
</svg>
