<?xml version="1.0" encoding="UTF-8" standalone="no"?>
<svg
   xmlns:dc="http://purl.org/dc/elements/1.1/"
   xmlns:cc="http://creativecommons.org/ns#"
   xmlns:rdf="http://www.w3.org/1999/02/22-rdf-syntax-ns#"
   xmlns:svg="http://www.w3.org/2000/svg"
   xmlns="http://www.w3.org/2000/svg"
   xmlns:sodipodi="http://sodipodi.sourceforge.net/DTD/sodipodi-0.dtd"
   xmlns:inkscape="http://www.inkscape.org/namespaces/inkscape"
   width="512"
   height="512"
   viewBox="0 0 512 512"
   version="1.1"
   id="svg4"
   sodipodi:docname="fire place power.svg"
   inkscape:version="0.92.1 r15371">
  <metadata
     id="metadata10">
    <rdf:RDF>
      <cc:Work
         rdf:about="">
        <dc:format>image/svg+xml</dc:format>
        <dc:type
           rdf:resource="http://purl.org/dc/dcmitype/StillImage" />
      </cc:Work>
    </rdf:RDF>
  </metadata>
  <defs
     id="defs8" />
  <sodipodi:namedview
     pagecolor="#ffffff"
     bordercolor="#666666"
     borderopacity="1"
     objecttolerance="10"
     gridtolerance="10"
     guidetolerance="10"
     inkscape:pageopacity="0"
     inkscape:pageshadow="2"
     inkscape:window-width="638"
     inkscape:window-height="493"
     id="namedview6"
     showgrid="false"
     inkscape:zoom="0.4609375"
     inkscape:cx="256"
     inkscape:cy="256"
     inkscape:window-x="0"
     inkscape:window-y="0"
     inkscape:window-maximized="0"
     inkscape:current-layer="svg4" />
  <path
     id="path2"
     d="M 490.63,248.5 C 428.63694,211.52591 367.00973,173.84103 304.78781,137.31156 291.97574,135.10064 293.89357,150.33728 294,158.56336 c 0.18481,69.98533 -0.36968,140.01495 0.27734,209.97258 4.39482,12.32962 16.6964,3.04318 23.64929,-1.36959 C 376.04212,332.06508 434.5933,297.59497 492.43625,262.09891 496.35443,258.28662 495.41448,251.15568 490.63,248.5 Z M 311,350.76 c 0,-63.17667 0,-126.35333 0,-189.53 52.65333,31.59 105.30667,63.18 157.96,94.77 C 416.30953,287.58162 363.63618,319.20362 311,350.76 Z M 73.95,200 c -17.074902,0.36552 -34.27743,-0.75346 -51.267344,0.60062 -9.355885,5.01191 -4.452392,17.08844 -5.682656,25.75164 0,25.81592 0,51.63183 0,77.44774 6.233238,19.36154 22.844269,1.29287 18,-11.74558 0,-9.01814 0,-18.03628 0,-27.05442 8.846707,-0.94103 18.877872,2.34759 26.65125,-2.685 C 71.033561,247.93528 51.574324,245.48266 41.578857,247 31.971341,250.14344 35.586353,240.06436 35,234.18664 36.404011,229.14992 32.166162,218.47133 37.13556,217 50.527841,216.61331 64.068384,217.80248 77.360625,216.3525 86.138797,213.04463 83.272175,199.62092 73.95,200 Z m 27.05,3.53 c -12.696292,1.46363 -8.165481,15.99729 -9,24.7767 0,23.8011 0,47.6022 0,71.4033 6.233238,19.36154 22.84427,1.29287 18,-11.74558 0,-25.22148 0,-50.44295 0,-75.66442 0.0832,-4.77514 -4.29735,-8.85776 -9,-8.77 z m 94.67,89.54 c -11,-9.43333 -22,-18.86667 -33,-28.3 12.30874,-3.93737 20.78897,-16.87962 22.42,-29.08 -1.99028,-14.72558 -14.19846,-29.64983 -30.10517,-30.38307 -9.83012,-1.25606 -26.93069,-6.25553 -27.99483,8.05085 0,28.78407 0,57.56815 0,86.35222 6.23324,19.36154 22.84427,1.29287 18,-11.74558 1.22143,-3.87443 -2.99017,-19.56929 3.24148,-12.54318 13.01706,10.70423 25.2044,22.57181 38.75977,32.52126 9.0019,3.41654 16.00383,-8.81086 8.67875,-14.8725 z m -40.16,-44.53 c -8.19292,2.82613 -12.72321,1.37316 -10.5,-7.97002 0.70197,-5.90014 -1.40581,-15.07891 1.05519,-18.92649 9.07269,0.31892 18.2108,3.72428 21.02704,13.19089 -0.42564,5.2652 -5.48896,13.13969 -11.58223,13.70562 z M 257.7,221 c 19.3743,-6.22045 1.30794,-22.84752 -11.73558,-18 -9.37599,0.98193 -20.00186,-2.45691 -28.23442,2.83125 -5.12669,9.26029 -1.745,20.72269 -2.72,31.0277 0,20.95368 0,41.90737 0,62.86105 1.81963,13.203 16.90903,8.36769 26.15448,9.28 8.94162,-0.91899 23.68809,3.88899 25.32552,-9 -1.46363,-12.69629 -15.99729,-8.16548 -24.7767,-9 -8.34618,1.90507 -11.68875,-1.19347 -9.7133,-9.61002 0,-6.79666 0,-13.59332 0,-20.38998 11.16928,3.27798 30.31611,-6.09753 15.66641,-17.27437 -5.86574,-2.82948 -18.87958,3.75045 -15.66641,-7.13231 1.59634,-5.02515 -3.91297,-17.15593 4.27112,-15.59332 7.14296,0 14.28592,0 21.42888,0 z" />
</svg>
