<?xml version="1.0" encoding="UTF-8" standalone="no"?>
<svg
   xmlns:dc="http://purl.org/dc/elements/1.1/"
   xmlns:cc="http://creativecommons.org/ns#"
   xmlns:rdf="http://www.w3.org/1999/02/22-rdf-syntax-ns#"
   xmlns:svg="http://www.w3.org/2000/svg"
   xmlns="http://www.w3.org/2000/svg"
   xmlns:sodipodi="http://sodipodi.sourceforge.net/DTD/sodipodi-0.dtd"
   xmlns:inkscape="http://www.inkscape.org/namespaces/inkscape"
   width="512"
   height="512"
   viewBox="0 0 512 512"
   version="1.1"
   id="svg4"
   sodipodi:docname="fridge power.svg"
   inkscape:version="0.92.1 r15371">
  <metadata
     id="metadata10">
    <rdf:RDF>
      <cc:Work
         rdf:about="">
        <dc:format>image/svg+xml</dc:format>
        <dc:type
           rdf:resource="http://purl.org/dc/dcmitype/StillImage" />
      </cc:Work>
    </rdf:RDF>
  </metadata>
  <defs
     id="defs8" />
  <sodipodi:namedview
     pagecolor="#ffffff"
     bordercolor="#666666"
     borderopacity="1"
     objecttolerance="10"
     gridtolerance="10"
     guidetolerance="10"
     inkscape:pageopacity="0"
     inkscape:pageshadow="2"
     inkscape:window-width="640"
     inkscape:window-height="493"
     id="namedview6"
     showgrid="false"
     inkscape:zoom="0.4609375"
     inkscape:cx="256"
     inkscape:cy="256"
     inkscape:window-x="0"
     inkscape:window-y="0"
     inkscape:window-maximized="0"
     inkscape:current-layer="svg4" />
  <path
     id="path2"
     d="M 65,209 C 51.068198,209.38642 36.988033,208.20204 23.155312,209.6375 14.63019,215.01675 19.140947,226.42208 18,234.89232 18.409754,255.83968 17.162717,276.9468 18.655937,297.78969 29.719885,312.39867 37.965247,292.80319 35,282.07248 36.266011,276.96169 32.394835,266.71372 37.05792,265 46.908956,266.67951 65.42783,263.5298 56.2275,249.7075 51.30988,243.14886 37.759356,250.71883 35,244.94208 35,238.62805 35,232.31403 35,226 46.109893,225.61347 57.371707,226.80636 68.378125,225.34406 77.026425,222.00552 74.23413,208.69996 65,209 Z m 67.27,75.56 c -8.16,-6.99333 -16.32,-13.98667 -24.48,-20.98 9.75084,-5.45755 19.8552,-18.55389 15.18041,-30.22036 -4.3786,-11.33869 -14.40444,-20.1205 -26.982364,-20.28133 -11.273371,-4.056 -24.267109,1.48073 -21.008046,14.81441 0,21.07909 0,42.15819 0,63.23728 5.766708,19.08006 21.648833,1.23259 17,-11.30856 -2.258915,-11.3747 4.619908,-2.8671 9.37038,1.00953 7.52858,6.03245 14.28318,13.14955 22.33837,18.44403 8.89867,3.37707 15.80283,-8.71592 8.58125,-14.715 z m -27.94,-40.18 c -7.092774,8.37211 -15.692227,5.35175 -12.33,-5.2496 -3.824016,-10.98737 7.600304,-11.21429 12.71135,-3.26097 2.8306,3.34678 1.72289,5.13656 -0.38135,8.51057 z m 41.17,-32.36 c -12.11936,1.57242 -7.64323,15.62689 -8.5,24.0944 0.41451,19.43954 -0.84397,39.0404 0.65594,58.37529 11.06394,14.60898 19.30931,-4.9865 16.34406,-15.71721 -0.41661,-20.4683 0.8468,-41.09859 -0.65594,-61.46217 C 152.1179,214.17708 148.88167,211.95463 145.5,212.02 Z M 317.78,282 c -5.52458,-0.74507 -13.99414,1.45484 -17.78,-1.02896 0,-6.32368 0,-12.64736 0,-18.97104 15.77183,5.23983 21.48508,-19.73305 2.81416,-17 -5.98544,-0.28595 -1.35623,-11.18655 -2.81416,-16 8.85517,-1.15297 20.61096,3.54633 25.90875,-5.69281 C 329.44208,208.91901 312.44121,210.83939 303.37456,211 294.73914,210.49604 281.06274,209.71528 283,222.73792 c 0,11.75403 0,23.50805 0,35.26208 -5.7767,-9.38052 -17.61528,-4.98355 -26.66,-6 -17.41707,4.08838 -4.1272,22.72369 8.66,18 2.98295,11.78174 -3.36389,17.06457 -16.01,12.59 -12.67047,-4.89751 -12.28003,-21.67183 -11.8775,-33.245 -1.08774,-13.66703 14.32351,-26.43511 26.85134,-18.76087 13.55435,10.93326 23.79198,-12.73963 6.94409,-15.86226 -10.08309,-5.93655 -23.17863,-4.20629 -33.15793,0.95813 -22.01754,15.05044 -23.39444,47.66307 -11.35463,69.39059 9.43828,18.95356 33.3376,16.75979 50.77463,12.76941 3.56802,0.0391 5.25115,-8.86999 6.01484,-2.86156 6.92589,7.0864 18.05716,2.91198 27.0554,4.04156 12.48241,3.8592 25.39616,-12.92788 7.53976,-17.02 z m 172.06,-33.52 c -49.35333,-29.61333 -98.70667,-59.22667 -148.06,-88.84 -12.66502,-5.7707 -15.24974,9.76492 -13.78,18.73856 0,55.52048 0,111.04096 0,166.56144 2.00896,13.67767 16.46062,7.21847 23.40067,1.56846 46.66377,-28.27655 93.76765,-55.91817 140.15558,-84.59268 3.89109,-3.7734 2.99805,-10.79785 -1.71625,-13.43578 z M 346,329.64 c 0,-49.1 0,-98.2 0,-147.3 40.86667,24.52333 81.73333,49.04667 122.6,73.57 -40.86667,24.57667 -81.73333,49.15333 -122.6,73.73 z M 183.93,209 c -8.48143,1.20013 -19.9574,-3.45669 -25.33469,5.0625 -1.36408,26.04738 -0.2169,52.31697 -0.59531,78.45156 -1.26823,12.87113 13.16867,10.38626 21.49648,10.48594 14.86583,2.29323 28.71414,-7.79936 32.73562,-22.21015 8.24503,-23.5756 5.52103,-56.55517 -18.55725,-69.71904 -3.05808,-1.35364 -6.4287,-2.0788 -9.74485,-2.07081 z m 2.9,77 c -6.35566,0.0114 -14.80306,2.11458 -11.83,-7.20272 0,-17.59909 0,-35.19819 0,-52.79728 12.99068,-2.99991 22.35781,8.62275 23.29459,20.88157 1.47509,12.84899 1.38404,32.18257 -11.46459,39.11843 z" />
</svg>
