<?xml version="1.0" encoding="UTF-8" standalone="no"?>
<svg
   xmlns:dc="http://purl.org/dc/elements/1.1/"
   xmlns:cc="http://creativecommons.org/ns#"
   xmlns:rdf="http://www.w3.org/1999/02/22-rdf-syntax-ns#"
   xmlns:svg="http://www.w3.org/2000/svg"
   xmlns="http://www.w3.org/2000/svg"
   xmlns:sodipodi="http://sodipodi.sourceforge.net/DTD/sodipodi-0.dtd"
   xmlns:inkscape="http://www.inkscape.org/namespaces/inkscape"
   width="512"
   height="512"
   viewBox="0 0 512 512"
   version="1.1"
   id="svg4"
   sodipodi:docname="heated towel rail.svg"
   inkscape:version="0.92.1 r15371">
  <metadata
     id="metadata10">
    <rdf:RDF>
      <cc:Work
         rdf:about="">
        <dc:format>image/svg+xml</dc:format>
        <dc:type
           rdf:resource="http://purl.org/dc/dcmitype/StillImage" />
      </cc:Work>
    </rdf:RDF>
  </metadata>
  <defs
     id="defs8" />
  <sodipodi:namedview
     pagecolor="#ffffff"
     bordercolor="#666666"
     borderopacity="1"
     objecttolerance="10"
     gridtolerance="10"
     guidetolerance="10"
     inkscape:pageopacity="0"
     inkscape:pageshadow="2"
     inkscape:window-width="640"
     inkscape:window-height="493"
     id="namedview6"
     showgrid="false"
     inkscape:zoom="0.4609375"
     inkscape:cx="256"
     inkscape:cy="256"
     inkscape:window-x="0"
     inkscape:window-y="0"
     inkscape:window-maximized="0"
     inkscape:current-layer="svg4" />
  <path
     id="path2"
     d="m 75,191.62 c -13.696049,1.46839 -9.245956,17.10839 -10,26.60761 0,7.25746 0,14.51493 0,21.77239 -9.333333,0 -18.666667,0 -28,0 -0.420918,-14.02122 0.897283,-28.20766 -0.765156,-42.11094 C 24.189293,181.0489 13.460316,202.44949 17,214.95809 c 0,31.1673 0,62.33461 0,93.50191 5.897832,21.88959 25.342109,2.69462 20,-11.98825 0,-11.82391 0,-23.64783 0,-35.47175 9.333333,0 18.666667,0 28,0 0.457962,17.12913 -0.949409,34.43528 0.765156,51.44516 C 77.812516,329.27828 88.540045,307.89154 85,295.38191 85,264.21461 85,233.0473 85,201.88 85.177851,196.47176 80.493448,191.44543 75,191.62 Z M 250.6,296.1 c -12.03333,-10.31 -24.06667,-20.62 -36.1,-30.93 13.07479,-4.22697 19.97279,-17.1485 24.58625,-29.1175 0.19165,-13.35729 -8.70842,-26.76529 -19.80707,-33.82654 -12.40405,-5.14101 -26.67448,-6.75035 -39.75434,-5.23877 -10.41308,5.95676 -5.30989,19.22471 -6.53484,29.06994 0,25.94762 0,51.89525 0,77.84287 6.13497,21.76696 26.46412,3.07932 21,-11.98825 1.23144,-4.13309 -2.72239,-19.52566 2.48448,-15.02639 14.74398,12.05124 28.48935,25.51233 43.87802,36.65339 10.3572,4.23356 18.94514,-10.48174 10.2475,-17.43875 z m -45.3,-49.7 c -7.52655,2.02826 -14.06588,2.90968 -11.3,-7.01873 0,-7.39375 0,-14.78751 0,-22.18127 8.80853,0.89862 19.5968,1.9246 22.56775,11.98378 4.33451,6.08306 -5.3685,16.3931 -11.26775,17.21622 z M 157.08,192 c -19.14667,0 -38.29333,0 -57.44,0 -21.766963,6.13497 -3.079317,26.46412 11.98825,21 9.83627,-2.98971 5.46467,8.22845 6.37175,14.16793 0,27.09402 0,54.18805 0,81.28207 5.89124,21.88693 25.34508,2.70788 20,-11.97825 0,-27.82391 0,-55.64783 0,-83.47175 9.67251,-1.19463 22.678,3.81171 28.53281,-6.46734 C 169.49066,200.07051 164.24848,191.82459 157.08,192 Z m 330.07,54.35 C 418.80667,205.27667 350.46333,164.20333 282.12,123.13 c -14.0303,-6.63083 -16.61602,10.90363 -15.12,20.76825 0,78.10058 0,156.20117 0,234.30175 1.26058,15.53634 17.75575,9.12226 25.44851,2.62989 C 357.35567,341.86659 422.26284,302.9033 487.17,263.94 c 6.58759,-3.62616 6.52117,-14.01939 -0.02,-17.59 z M 288,360.08 c 0,-70.00667 0,-140.01333 0,-210.02 58.28,35.02667 116.56,70.05333 174.84,105.08 C 404.56,290.12 346.28,325.1 288,360.08 Z" />
</svg>
