<?xml version="1.0" encoding="UTF-8" standalone="no"?>
<svg
   xmlns:dc="http://purl.org/dc/elements/1.1/"
   xmlns:cc="http://creativecommons.org/ns#"
   xmlns:rdf="http://www.w3.org/1999/02/22-rdf-syntax-ns#"
   xmlns:svg="http://www.w3.org/2000/svg"
   xmlns="http://www.w3.org/2000/svg"
   xmlns:sodipodi="http://sodipodi.sourceforge.net/DTD/sodipodi-0.dtd"
   xmlns:inkscape="http://www.inkscape.org/namespaces/inkscape"
   width="512"
   height="512"
   viewBox="0 0 512 512"
   version="1.1"
   id="svg6"
   sodipodi:docname="hot water cylinder.svg"
   inkscape:version="0.92.1 r15371">
  <metadata
     id="metadata12">
    <rdf:RDF>
      <cc:Work
         rdf:about="">
        <dc:format>image/svg+xml</dc:format>
        <dc:type
           rdf:resource="http://purl.org/dc/dcmitype/StillImage" />
      </cc:Work>
    </rdf:RDF>
  </metadata>
  <defs
     id="defs10" />
  <sodipodi:namedview
     pagecolor="#ffffff"
     bordercolor="#666666"
     borderopacity="1"
     objecttolerance="10"
     gridtolerance="10"
     guidetolerance="10"
     inkscape:pageopacity="0"
     inkscape:pageshadow="2"
     inkscape:window-width="640"
     inkscape:window-height="493"
     id="namedview8"
     showgrid="false"
     inkscape:zoom="0.4609375"
     inkscape:cx="256"
     inkscape:cy="256"
     inkscape:window-x="0"
     inkscape:window-y="0"
     inkscape:window-maximized="0"
     inkscape:current-layer="svg6" />
  <path
     id="path4"
     d="m 145,241 c -14.66667,0 -29.33333,0 -44,0 0,-14 0,-28 0,-42 -7.121546,0.99314 -18.15692,-1.92755 -23,1.34405 0,36.88532 0,73.77063 0,110.65595 7.121546,-0.99314 18.15692,1.92755 23,-1.34405 0,-16.21865 0,-32.4373 0,-48.65595 14.66667,0 29.33333,0 44,0 0,16.66667 0,33.33333 0,50 6.52588,-1.70349 19.93412,3.47538 22,-2.68811 0,-36.4373 0,-72.87459 0,-109.31189 -7.33333,0 -14.66667,0 -22,0 m 142.06,81 c -5.36107,-26.57424 -11.29967,-54.08222 -16.97,-81 -8.25667,0 -16.51333,0 -24.77,0 -5.69275,26.82814 -10.58084,54.50332 -15.87,81 -4.38582,-27.30995 -11.58842,-54.0627 -17.76,-81 -8.30667,0 -16.61333,0 -24.92,0 10.53333,37.33333 21.06667,74.66667 31.6,112 7.31298,-2.19227 22.46663,5.20949 22.91386,-5.38379 C 246.92644,278.2053 252.62586,250.0973 257.77,223 c 5.09899,29.46081 11.1731,58.73945 17.3,88 7.17666,-1.57375 19.20129,3.24929 23.14672,-2.58801 C 308.45782,271.94133 318.69891,235.47066 328.94,199 c -7.54438,1.6608 -20.48869,-3.48652 -24.31049,2.86764 C 298.68972,227.89039 292.1981,253.80223 287.06,280 Z M 399,292.72 c -24.5266,0.13076 -30.49172,-29.77241 -26.96914,-49.04414 -1.33262,-26.18354 38.6187,-40.08303 49.7968,-14.67274 1.63115,11.15027 16.53313,3.96359 24.79127,5.99688 0.31489,-23.10391 -24.78196,-41.62962 -47.75893,-39.8 -30.16221,-1.96232 -52.35155,26.93766 -51.33429,55.29093 -2.91239,28.20247 14.21933,61.28111 45.55776,62.30133 25.12965,5.10604 53.82777,-17.55126 52.70248,-40.79226 -9.25136,1.81867 -24.748,-5.67284 -25.24767,8.72188 C 416.40678,288.50543 407.68033,292.95727 399,292.72 Z M 255.84,18.4 C 162.4037,17.144465 72.489267,77.423345 37.089375,163.71062 0.51452498,247.59913 18.82749,351.63875 82.08776,417.82736 c 60.78834,66.9767 161.4615,93.07925 247.15813,64.19424 90.68694,-28.35683 159.02426,-115.59623 163.8608,-210.636 C 500.17389,179.83787 448.0567,87.713489 366.53134,45.787321 332.60231,27.788882 294.19778,18.357516 255.84,18.4 Z m 0,446.05 C 163.31631,466.05858 75.870197,397.96658 54.109633,308.14704 30.359401,221.6218 70.644568,123.22637 147.91366,77.793132 224.02131,29.793373 330.50286,40.209631 396.02784,101.81285 463.55239,161.1517 484.17187,265.98855 443.83965,346.37781 410.21581,417.44397 334.58475,465.2994 255.84,464.45 Z" />
</svg>
