<?xml version="1.0" encoding="UTF-8" standalone="no"?>
<svg
   xmlns:dc="http://purl.org/dc/elements/1.1/"
   xmlns:cc="http://creativecommons.org/ns#"
   xmlns:rdf="http://www.w3.org/1999/02/22-rdf-syntax-ns#"
   xmlns:svg="http://www.w3.org/2000/svg"
   xmlns="http://www.w3.org/2000/svg"
   xmlns:sodipodi="http://sodipodi.sourceforge.net/DTD/sodipodi-0.dtd"
   xmlns:inkscape="http://www.inkscape.org/namespaces/inkscape"
   width="512"
   height="512"
   viewBox="0 0 512 512"
   version="1.1"
   id="svg4"
   sodipodi:docname="motorised blind.svg"
   inkscape:version="0.92.1 r15371">
  <metadata
     id="metadata10">
    <rdf:RDF>
      <cc:Work
         rdf:about="">
        <dc:format>image/svg+xml</dc:format>
        <dc:type
           rdf:resource="http://purl.org/dc/dcmitype/StillImage" />
      </cc:Work>
    </rdf:RDF>
  </metadata>
  <defs
     id="defs8" />
  <sodipodi:namedview
     pagecolor="#ffffff"
     bordercolor="#666666"
     borderopacity="1"
     objecttolerance="10"
     gridtolerance="10"
     guidetolerance="10"
     inkscape:pageopacity="0"
     inkscape:pageshadow="2"
     inkscape:window-width="638"
     inkscape:window-height="493"
     id="namedview6"
     showgrid="false"
     inkscape:zoom="0.4609375"
     inkscape:cx="256"
     inkscape:cy="256"
     inkscape:window-x="0"
     inkscape:window-y="0"
     inkscape:window-maximized="0"
     inkscape:current-layer="svg4" />
  <path
     id="path2"
     d="m 71.85,212.57 c -11.063836,-1.85869 -13.982421,11.49273 -19.814607,18.22397 -3.432822,10.17775 -6.924989,-0.0895 -10.40058,-4.64644 -3.973627,-8.94315 -16.399048,-21.59602 -23.153563,-7.55894 -1.081288,23.85812 -0.17062,47.87218 -0.47125,71.79141 5.6747,20.12308 24.00563,2.57556 19,-11.17081 0,-8.90639 0,-17.81279 0,-26.71919 2.981777,9.46271 16.245508,15.27641 20.916132,3.54419 4.03269,-7.66837 1.275307,8.33886 2.083868,11.91236 0.911323,9.67303 -2.257224,20.37025 2.55,29.11845 14.206065,9.84722 16.983888,-9.83403 15.45,-19.86868 -0.255132,-19.51975 0.518346,-39.10804 -0.40125,-58.58351 -0.7302,-2.81 -2.928507,-5.24792 -5.75875,-6.04281 z M 135,252.52 c 13.22347,-17.79057 -2.90695,-46.03489 -24.91931,-43.51 -8.87278,-0.636 -23.126082,-0.72884 -21.07069,12.18931 0.03421,24.78531 -0.06785,49.58312 0.05,74.36069 1.977645,9.86194 13.28329,7.25263 20.4707,7.41181 10.59069,-0.27928 23.22241,2.27074 30.0168,-8.42681 C 150.0981,282.33357 147.87164,262.2133 135,252.52 Z M 108,228 c 17.73254,-4.16046 13.31912,24.9188 0,17.98356 0,-5.99452 0,-11.98904 0,-17.98356 z m 18.95,50.83 c -1.54108,7.99106 -14.68646,5.65937 -18.94,4.36356 0.67403,-5.7293 -1.35114,-14.15781 1.01644,-18.19356 8.93405,-0.68273 21.02187,1.62269 17.92356,13.83 z M 489.6,247.92 c -44.13333,-26.45333 -88.26667,-52.90667 -132.4,-79.36 -13.07277,-6.19802 -16.96338,9.59215 -15.18,19.26081 0,49.17973 0,98.35946 0,147.53919 2.00865,14.22304 17.28822,8.5342 24.67193,2.33498 41.54764,-25.12884 83.57309,-49.56619 124.82073,-75.1292 4.24747,-4.11612 3.27386,-11.79035 -1.91266,-14.64578 z M 361,318.72 c 0,-41.81333 0,-83.62667 0,-125.44 34.89,20.90667 69.78,41.81333 104.67,62.72 -34.89,20.90667 -69.78,41.81333 -104.67,62.72 z M 186.03,282 c -5.12983,-1.22446 -15.24364,2.53505 -17.03,-2.03287 0,-19.51571 0,-39.03142 0,-58.54713 -5.68238,-20.11223 -24.00424,-2.56106 -19,11.18081 0.45167,20.4829 -0.92897,41.1471 0.7375,61.50982 5.62026,9.46759 17.85,4.73931 26.95837,5.88937 13.26585,4.0741 28.08679,-13.45703 8.33413,-18 z m 21.47,-70 c -12.87314,1.24607 -8.85259,15.79343 -9.5,24.66655 0.45689,19.11771 -0.94267,38.42431 0.75313,57.41595 11.33417,15.43036 21.60782,-4.0898 18.24687,-15.85974 -0.46054,-20.13483 0.94769,-40.45965 -0.75313,-60.46839 C 214.81094,214.32803 211.22298,211.95209 207.5,212 Z m 60.15,1 c -12.89262,0.90958 -8.72002,15.47492 -9.38107,24.19651 -0.70016,3.55453 1.61921,19.00715 -1.40615,13.39949 -6.79676,-11.92762 -12.49695,-24.57076 -20.02075,-36.02397 -13.58198,-9.14591 -17.71947,8.96598 -15.83203,19.04521 0.46061,20.13377 -0.94778,40.4577 0.75313,60.46526 11.33417,15.43036 21.60782,-4.0898 18.24687,-15.85974 0,-6.53426 0,-13.06851 0,-19.60276 7.12839,12.73018 13.50233,25.93628 21.11703,38.35969 12.4341,9.77109 18.48458,-7.63706 16.11359,-17.77046 -0.0502,-19.10641 -0.10041,-38.21282 -0.15062,-57.31923 0.19356,-5.04516 -4.57673,-9.11309 -9.44,-8.89 z m 39.05,0 c -8.08049,1.0331 -18.94895,-3.14347 -24.05906,5.05406 -1.46027,24.00356 -0.23965,48.24745 -0.64094,72.34594 0.72365,13.0075 15.31088,8.95632 24.04655,9.6 20.65639,1.80682 30.74525,-21.39804 31.1948,-38.8916 C 338.81482,241.33659 329.93698,214.03076 306.7,213 Z m 2.76,69 c -8.63498,2.42686 -9.6019,-2.81434 -8.46,-10.16437 0,-13.27854 0,-26.55709 0,-39.83563 15.7359,-2.36241 18.74471,19.22464 17.24541,30.78281 C 317.18834,269.48389 315.88306,278.4079 309.46,282 Z" />
</svg>
