<?xml version="1.0" encoding="UTF-8" standalone="no"?>
<svg
   xmlns:dc="http://purl.org/dc/elements/1.1/"
   xmlns:cc="http://creativecommons.org/ns#"
   xmlns:rdf="http://www.w3.org/1999/02/22-rdf-syntax-ns#"
   xmlns:svg="http://www.w3.org/2000/svg"
   xmlns="http://www.w3.org/2000/svg"
   xmlns:sodipodi="http://sodipodi.sourceforge.net/DTD/sodipodi-0.dtd"
   xmlns:inkscape="http://www.inkscape.org/namespaces/inkscape"
   width="512"
   height="512"
   viewBox="0 0 512 512"
   version="1.1"
   id="svg4"
   sodipodi:docname="outdoor double power.svg"
   inkscape:version="0.92.1 r15371">
  <metadata
     id="metadata10">
    <rdf:RDF>
      <cc:Work
         rdf:about="">
        <dc:format>image/svg+xml</dc:format>
        <dc:type
           rdf:resource="http://purl.org/dc/dcmitype/StillImage" />
      </cc:Work>
    </rdf:RDF>
  </metadata>
  <defs
     id="defs8" />
  <sodipodi:namedview
     pagecolor="#ffffff"
     bordercolor="#666666"
     borderopacity="1"
     objecttolerance="10"
     gridtolerance="10"
     guidetolerance="10"
     inkscape:pageopacity="0"
     inkscape:pageshadow="2"
     inkscape:window-width="640"
     inkscape:window-height="493"
     id="namedview6"
     showgrid="false"
     inkscape:zoom="0.4609375"
     inkscape:cx="256"
     inkscape:cy="256"
     inkscape:window-x="0"
     inkscape:window-y="0"
     inkscape:window-maximized="0"
     inkscape:current-layer="svg4" />
  <path
     id="path2"
     d="m 489.66,247.54 c -59.61333,-35.76667 -119.22667,-71.53333 -178.84,-107.3 -13.70053,-6.48817 -17.65419,10.06628 -15.82,20.16026 0,67.62991 0,135.25983 0,202.88974 2.03798,14.88722 18.03557,8.93337 25.73643,2.45171 C 377.02429,331.97781 433.31214,298.2139 489.6,264.45 c 6.32746,-3.46467 6.35932,-13.44028 0.06,-16.91 z M 315,345.86 c 0,-59.91 0,-119.82 0,-179.73 49.93333,29.95667 99.86667,59.91333 149.8,89.87 -49.93333,29.95333 -99.86667,59.90667 -149.8,89.86 z M 109.1,205 c -9.410931,0.95552 -20.020651,-2.4317 -28.30875,2.8825 -5.201619,9.75101 -1.809544,21.67247 -2.78125,32.4617 0,22.52194 0,45.04387 0,67.5658 1.057214,13.59577 16.310214,9.45735 25.57763,10.1 14.25507,1.75439 28.99283,-4.47178 35.18382,-18.13526 13.34503,-26.47901 12.83139,-62.75014 -7.97641,-85.32509 C 125.08714,208.8294 117.2903,204.94111 109.1,205 Z m 3.58,93 C 107.32334,296.69359 95.553755,301.80011 98,292.69079 98,270.12719 98,247.5636 98,225 c 11.58429,-1.95618 23.4285,3.31266 26.27666,15.73145 C 129.94622,258.54372 130.86827,287.4792 112.68,298 Z m 137.44,-92.95 c -9.56341,1.10813 -22.31168,-3.773 -28.35063,5.96594 -1.73666,21.66362 -0.29947,43.64174 -0.76937,65.43088 0.3905,11.75614 -0.83619,23.66188 0.71797,35.31037 11.63808,16.27665 21.64037,-4.63103 18.28203,-16.57929 0,-7.72597 0,-15.45193 0,-23.1779 19.49121,2.45184 40.37931,-12.18078 40.12941,-32.98555 C 280.8031,222.03967 267.03404,206.48213 250.12,205.05 Z m 7.04,42.13 c -4.39472,5.85572 -21.18107,8.88957 -17.16,-2.61289 0,-6.52237 0,-13.04474 0,-19.56711 10.7131,-2.44518 23.88238,5.14541 19.73625,17.61625 2.29953,0.37326 -4.35264,4.57171 -2.57625,4.56375 z M 181.2,205.05 c -9.58774,1.10187 -22.328,-3.76206 -28.41813,5.96594 -1.76317,21.30509 -0.30558,42.9344 -0.78187,64.36904 0.39441,12.10972 -0.84169,24.37029 0.71797,36.37221 11.63808,16.27665 21.64037,-4.63103 18.28203,-16.57929 0,-7.72597 0,-15.45193 0,-23.1779 19.50746,2.46482 40.44411,-12.1437 40.17941,-32.98605 C 211.87623,222.04034 198.04643,206.44955 181.2,205.05 Z m 7.02,42.13 c -4.4057,5.85639 -21.22715,8.89052 -17.22,-2.61289 0,-6.52237 0,-13.04474 0,-19.56711 10.72297,-2.44016 23.95645,5.09421 19.8025,17.60875 l -1.05594,2.39484 z M 62.87,225 c 21.04349,-5.95305 2.751105,-25.25057 -11.68026,-20 -9.26429,0.38402 -18.695044,-0.84832 -27.831928,0.77281 -8.837559,6.47423 -4.18111,18.74654 -5.357812,28.20034 0,24.64562 0,49.29123 0,73.93685 0.625492,13.65235 15.890195,9.44005 25.007627,10.1 9.770275,-1.25851 22.81109,3.84195 28.956748,-6.13828 C 76.23598,296.33674 57.930389,297.61173 48.004215,298.01 40.589979,298.92459 34.290287,298.72463 37,289.51527 37,282.01351 37,274.51176 37,267.01 48.837092,270.49071 68.230469,259.48764 52.379844,248.71953 45.759143,246.4201 33.510326,251.95654 37,240.56711 38.585111,235.54739 33.114028,223.47149 41.247367,225 c 7.207544,0 14.415089,0 21.622633,0 z" />
</svg>
