<?xml version="1.0" encoding="UTF-8" standalone="no"?>
<svg
   xmlns:dc="http://purl.org/dc/elements/1.1/"
   xmlns:cc="http://creativecommons.org/ns#"
   xmlns:rdf="http://www.w3.org/1999/02/22-rdf-syntax-ns#"
   xmlns:svg="http://www.w3.org/2000/svg"
   xmlns="http://www.w3.org/2000/svg"
   xmlns:sodipodi="http://sodipodi.sourceforge.net/DTD/sodipodi-0.dtd"
   xmlns:inkscape="http://www.inkscape.org/namespaces/inkscape"
   width="512"
   height="512"
   viewBox="0 0 512 512"
   version="1.1"
   id="svg4"
   sodipodi:docname="rangehood power.svg"
   inkscape:version="0.92.1 r15371">
  <metadata
     id="metadata10">
    <rdf:RDF>
      <cc:Work
         rdf:about="">
        <dc:format>image/svg+xml</dc:format>
        <dc:type
           rdf:resource="http://purl.org/dc/dcmitype/StillImage" />
      </cc:Work>
    </rdf:RDF>
  </metadata>
  <defs
     id="defs8" />
  <sodipodi:namedview
     pagecolor="#ffffff"
     bordercolor="#666666"
     borderopacity="1"
     objecttolerance="10"
     gridtolerance="10"
     guidetolerance="10"
     inkscape:pageopacity="0"
     inkscape:pageshadow="2"
     inkscape:window-width="638"
     inkscape:window-height="493"
     id="namedview6"
     showgrid="false"
     inkscape:zoom="0.4609375"
     inkscape:cx="256"
     inkscape:cy="256"
     inkscape:window-x="0"
     inkscape:window-y="0"
     inkscape:window-maximized="0"
     inkscape:current-layer="svg4" />
  <path
     id="path2"
     d="m 72.3,284.9 c -8.333333,-7.13333 -16.666667,-14.26667 -25,-21.4 9.959797,-4.30213 16.962943,-15.58939 16.9525,-26.22375 C 60.407073,224.95875 50.319342,213.91556 36.537778,214.09935 25.628433,210.33 13.850359,215.76646 17.01,228.4598 c 0.404155,21.86551 -0.817488,43.89305 0.627031,65.65489 10.958267,13.76513 18.112757,-5.38966 15.372969,-15.52577 -2.26559,-11.42882 4.688645,-2.62346 9.365816,1.18457 7.495167,6.15641 14.331425,13.21108 22.272934,18.75901 C 72.832191,301.64146 79.051962,290.28537 72.3,284.9 Z M 39.75,249.13 C 30.443285,253.65943 33.318178,243.8614 33,237.81892 28.841884,226.39757 43.299131,228.8695 46.384314,236.76522 50.349973,241.03339 43.67114,248.10544 39.75,249.13 Z M 304.14,230 c 18.08836,-5.98201 0.40981,-20.40908 -11.37683,-16 -8.08868,1.07259 -21.45548,-3.74365 -23.76317,7.2 0,23.26 0,46.52 0,69.78 2.41548,10.79197 15.74803,5.90882 23.81385,7.02 11.78274,4.41467 29.3895,-10.04909 11.32615,-16 -6.38,0 -12.76,0 -19.14,0 0,-6.66667 0,-13.33333 0,-20 13.07605,5.15428 24.6189,-15.29442 6.33149,-16 -9.29433,3.04681 -5.74232,-6.75273 -6.33149,-12.41108 -0.89334,-7.26093 10.74681,-1.98837 15.51385,-3.58892 1.20872,0 2.41743,0 3.62615,0 z M 263,289.64 c -0.28958,-10.5007 0.60697,-21.09442 -0.49891,-31.53109 -4.38891,-8.50977 -15.44412,-3.94637 -23.2292,-5.10891 -19.01177,4.47395 -1.63851,18.92025 7.72811,17.03426 1.18491,9.08489 0.60322,17.85432 -12.29641,13.29574 C 220.1381,283.15926 218.07493,264.72642 218,253.59 c -0.62705,-12.45105 7.84127,-26.64991 21.58,-25.73 8.33298,5.75036 27.87317,7.49286 20.01016,-8.25797 -9.8724,-7.31606 -22.73077,-9.73686 -34.39227,-5.27438 -9.26555,3.20394 -16.15685,12.28522 -19.89914,21.05235 -6.55088,20.21223 -4.35682,48.14981 14.94953,60.61326 12.34102,5.42739 26.8166,3.90326 39.53172,0.61674 2.01676,-1.08947 5.37722,-5.1049 3.22,-6.97 z M 188.76,212 c -11.71101,1.72573 -7.07291,15.41976 -7.9809,23.6638 0.0203,8.0554 0.0406,16.1108 0.0609,24.1662 -8.50955,-15.10642 -16.01678,-30.87347 -25.17312,-45.55359 -12.907,-7.97558 -15.06522,9.41626 -13.66688,18.36467 0.40838,20.71966 -0.82334,41.60201 0.62703,62.2183 10.94297,13.8143 18.11567,-5.3901 15.37297,-15.53046 0,-9.12964 0,-18.25928 0,-27.38892 8.44119,15.07413 16.18954,30.59043 25.06094,45.39 11.83363,8.67365 15.77088,-8.04091 13.87047,-16.98679 -0.46294,-21.10744 0.72104,-42.3836 -0.79141,-63.38352 -1.19022,-2.91552 -4.2165,-5.02697 -7.38,-4.95969 z m -58.6,58.46 c -5.44694,-17.938 -9.88291,-36.25991 -15.99469,-53.94734 -10.38104,-10.63668 -16.425687,5.64534 -17.73218,14.30306 -5.451994,20.40715 -12.542194,40.51146 -16.95313,61.11022 6.372112,16.11301 18.768327,0.20861 18.72081,-10.19886 2.02089,-5.84173 11.93367,-1.30462 17.3073,-2.73708 4.28489,5.83981 2.37957,21.6531 14.45189,19.44 11.72512,-4.69396 1.17541,-19.60825 0.2,-27.97 z M 103.6,263 c 1.81062,-3.80872 3.62928,-19.65574 5.43015,-8.86041 2.57751,7.44882 4.01807,10.33231 -5.43015,8.86041 z m 386.74,-15.67 c -48.89,-29.39667 -97.78,-58.79333 -146.67,-88.19 -13.68178,-6.60828 -17.41247,10.13449 -15.67,20.14683 0,54.94105 0,109.88211 0,164.82317 1.49606,15.09778 17.70721,9.4822 25.39578,2.90706 45.64141,-27.38235 91.28281,-54.76471 136.92422,-82.14706 6.55059,-3.62268 6.54248,-13.93559 0.02,-17.54 z M 348,326.06 c 0,-46.7 0,-93.4 0,-140.1 38.87333,23.37333 77.74667,46.74667 116.62,70.12 -38.87333,23.32667 -77.74667,46.65333 -116.62,69.98 z" />
</svg>
