<svg xmlns="http://www.w3.org/2000/svg" width="512" height="512" viewBox="0 0 512 512"><path d="M0 496h16v16H0zM0 0h16v16H0zM496 0h16v16h-16zM496 496h16v16h-16zM76.15 255.06c-1.4-.63-4-1.38-7.77-2.23-3.78-.86-6.1-1.7-7-2.5-.9-.82-1.37-1.86-1.37-3.12 0-1.44.65-2.68 1.94-3.7 1.28-1.04 3.33-1.56 6.14-1.56 2.7 0 4.74.57 6.12 1.7 1.38 1.14 2.2 2.8 2.43 5.03l4.45-.33c-.08-2.06-.65-3.9-1.72-5.53-1.07-1.62-2.6-2.86-4.6-3.7-1.98-.83-4.27-1.25-6.87-1.25-2.38 0-4.52.4-6.45 1.2-1.94.8-3.4 1.96-4.4 3.5-1 1.54-1.52 3.2-1.52 4.97 0 1.6.4 3.07 1.24 4.37.82 1.3 2.06 2.38 3.74 3.26 1.3.7 3.56 1.42 6.8 2.2 3.2.77 5.3 1.34 6.24 1.7 1.47.56 2.52 1.25 3.16 2.07.64.83.96 1.8.96 2.9 0 1.08-.34 2.08-1 3-.66.92-1.67 1.64-3.03 2.16-1.35.52-2.92.78-4.7.78-2 0-3.78-.34-5.38-1.04s-2.77-1.6-3.53-2.73c-.76-1.1-1.24-2.55-1.45-4.3l-4.38.38c.05 2.34.7 4.45 1.92 6.3 1.22 1.87 2.9 3.26 5.05 4.18 2.14.93 4.8 1.4 7.98 1.4 2.5 0 4.76-.47 6.77-1.38 2-.92 3.54-2.2 4.6-3.86 1.08-1.65 1.62-3.4 1.62-5.28 0-1.88-.5-3.55-1.47-5-.97-1.44-2.48-2.63-4.52-3.57zM104.98 239.97c-1.66-1.12-3.58-1.68-5.75-1.68-1.66 0-3 .32-4.16.96-1.17.65-2.07 1.62-3.07 2.9V239h-4v35h4v-12.34c1 .93 1.8 1.7 2.93 2.3 1.14.6 2.5.9 3.93.9 1.97 0 3.87-.55 5.65-1.65 1.8-1.1 3.16-2.7 4.1-4.78.93-2.1 1.4-4.43 1.4-7.03 0-2.44-.42-4.67-1.26-6.7-.85-2.04-2.1-3.62-3.76-4.73zm-1.42 18.92c-1.37 1.62-3 2.43-4.93 2.43-1.88 0-3.48-.78-4.8-2.35-1.34-1.56-2-3.98-2-7.26 0-3.27.7-5.76 2.12-7.48 1.42-1.7 3.04-2.57 4.88-2.57 1.85 0 3.44.8 4.77 2.42 1.34 1.6 2 4.02 2 7.26 0 3.4-.68 5.92-2.04 7.53zM125.64 242.7c-3.5 0-6.36 1.2-8.57 3.55-2.2 2.37-3.3 5.7-3.3 9.97 0 4.13 1.1 7.34 3.27 9.63 2.18 2.3 5.13 3.44 8.85 3.44 2.94 0 5.37-.73 7.27-2.16 1.9-1.44 3.2-3.46 3.9-6.06l-4.46-.55c-.64 1.82-1.53 3.14-2.64 3.97-1.12.83-2.47 1.25-4.05 1.25-2.1 0-3.9-.8-5.3-2.28s-2.22-3.47-2.38-6.47h18.97v-1.1c0-4.2-1.06-7.43-3.22-9.74-2.16-2.32-4.94-3.45-8.33-3.45zM118 254v-.4c1-2.44 1.12-4 2.47-5.33s3.13-2 5.1-2c2.2 0 4.03 1.04 5.4 2.7.9 1.07 1.5 2.03 1.7 5.03H118zM163.3 265.3c-.17-1.05-.3-3.23-.3-7.24v-5.75c0-1.9-.04-3.23-.18-3.96-.26-1.18-.7-2.16-1.32-2.94-.64-.77-1.63-1.4-3-1.92-1.35-.5-3.1-.77-5.28-.77s-4.1.3-5.76.9c-1.66.6-2.93 1.46-3.8 2.57-.9 1.1-1.52 2.57-1.9 4.37l4.2.57c.48-1.8 1.2-3.05 2.16-3.76.96-.7 2.46-1.06 4.5-1.06 2.16 0 3.8.48 4.9 1.46.8.72 1.22 1.95 1.22 3.7 0 .17 0 .54-.03 1.13-1.63.58-4.2 1.07-7.67 1.5-1.7.2-3 .4-3.84.64-1.15.32-2.2.8-3.1 1.42-.92.62-1.67 1.45-2.23 2.48-.57 1.02-.85 2.16-.85 3.4 0 2.13.75 3.87 2.25 5.24 1.5 1.36 3.65 2.05 6.44 2.05 1.7 0 3.3-.3 4.76-.85 1.48-.56 3.02-1.87 4.6-3.23.14 1.2.43 2.78.87 2.78h4.5c-.53 0-.93-1.63-1.12-2.7zM158 258h.12c0 1 .06 3.1-.4 4.08-.6 1.26-1.4 2.14-2.7 2.86-1.3.73-2.7 1.03-4.36 1.03-1.67 0-2.9-.4-3.78-1.18-.87-.77-1.28-1.74-1.28-2.9 0-.74.2-1.43.6-2.05.4-.6.98-1.08 1.7-1.4.74-.32 1.64-.6 3.4-.87 3.14-.44 5.7-1 6.7-1.63V258zM189.87 249h-5.58l-10.3 9.47V239h-5v34h5v-9.52l3.08-3.2 8.45 12.72h5.32l-10.7-15.28M204.7 242.7c-3.5 0-6.36 1.2-8.56 3.55-2.2 2.37-3.3 5.7-3.3 9.97 0 4.13 1.1 7.34 3.26 9.63 2.18 2.3 5.13 3.44 8.85 3.44 2.96 0 5.38-.73 7.28-2.16 1.9-1.44 3.2-3.46 3.9-6.06l-4.45-.55c-.65 1.82-1.54 3.14-2.66 3.97-1.1.83-2.46 1.25-4.04 1.25-2.13 0-3.9-.8-5.32-2.28-1.42-1.48-2.2-3.47-2.37-6.47h18.96c0-1 .02-.84.02-1.1 0-4.2-1.08-7.43-3.23-9.74-2.16-2.32-4.94-3.45-8.34-3.45zM198 254v-.4c0-2.44.65-4 2-5.33s2.9-2 4.88-2c2.2 0 3.9 1.04 5.28 2.7.9 1.07 1.38 2.03 1.57 5.03H198zM228.43 244.06c-.84.57-1.43 1.76-2.43 3.56V244h-4v25h4v-13.12c0-1.8.14-3.5.62-5.02.32-1 .8-1.8 1.56-2.36.75-.57 1.57-.85 2.5-.85 1.07 0 2.1.3 3.16.93l1.48-4c-1.5-.92-2.82-1.4-4.28-1.4-1 0-1.77.3-2.6.88zM273.95 240.16c-2.6-1.55-5.52-2.32-8.77-2.32-4.94 0-8.98 1.64-12.1 4.94-3.14 3.3-4.7 7.86-4.7 13.7 0 3.07.67 6 2 8.75 1.35 2.76 3.32 4.94 5.92 6.54 2.6 1.6 5.56 2.4 8.86 2.4 3.05 0 5.9-.73 8.53-2.18 2.62-1.45 4.66-3.58 6.1-6.4 1.43-2.8 2.15-5.98 2.15-9.54 0-3.5-.7-6.65-2.05-9.42-1.36-2.77-3.35-4.93-5.95-6.48zm-.18 26.34c-2.26 2.46-5.14 3.7-8.63 3.7-3.44 0-6.3-1.23-8.56-3.66-2.28-2.44-3.42-5.77-3.42-10 0-5.28 1.2-9.06 3.56-11.3 2.37-2.27 5.2-3.4 8.5-3.4 2.3 0 4.4.58 6.25 1.76 1.86 1.17 3.27 2.82 4.24 4.95.97 2.14 1.46 4.63 1.46 7.5 0 4.5-1.13 8-3.4 10.45zM304 256.37c0 2.17-.44 3.82-.9 4.96-.48 1.15-1.38 2.05-2.52 2.7s-2.4 1-3.7 1c-1.28 0-2.4-.32-3.27-.97-.87-.64-1.25-1.53-1.52-2.67-.18-.8-.08-2.3-.08-4.56V243h-5v15.5c0 1.83.23 3.17.4 4.02.27 1.26.78 2.33 1.4 3.2.64.87 1.64 1.6 2.94 2.16 1.3.58 2.7.86 4.2.86 3.4 0 6.06-1.44 8.06-4.3V268h4v-25h-4v13.37zM322.18 269.3c-.64 0-1.13-.1-1.48-.3-.34-.22-.45-.5-.6-.85-.16-.35-.1-1.14-.1-2.37V251h4v-3h-4v-9.32l-5 2.58V248h-2v3h2v14.54c0 2.6.4 4.3.75 5.1.35.8 1.07 1.45 1.93 1.94.86.5 2.13.74 3.7.74.95 0 2.07-.12 3.28-.38l-.6-3.8c-.8.1-1.4.16-1.88.16zM38 239h-3.38L18 261.22V265h16v8h4v-8h5v-4h-5v-22zm-4 22H22.84L34 245.4V261zM489.27 248.72l-124.34-74.64c-2.65-1.6-5.92-1.64-8.6-.1-2.7 1.5-4.33 4.37-4.33 7.46v149.12c0 3.1 1.63 5.95 4.32 7.47 1.3.75 2.75 1.12 4.2 1.12 1.53 0 3.05-.4 4.4-1.22l124.35-74.5c2.58-1.54 4.17-4.33 4.17-7.35 0-3-1.6-5.8-4.17-7.36zM369 315.42V196.6l99.07 59.47L369 315.42z"/></svg>