<svg xmlns="http://www.w3.org/2000/svg" width="512" height="512" viewBox="0 0 512 512"><path d="M23 233h-5v44h26v-6H23M62.7 244c-3.86 0-7.13 1.15-9.8 3.46-3.22 2.78-4.83 7.06-4.83 12.83 0 5.26 1.35 9.3 4.04 12.1 2.7 2.8 6.23 4.2 10.6 4.2 2.72 0 5.23-.65 7.53-1.92s4.05-3.06 5.26-5.36c1.2-2.3 1.8-5.46 1.8-9.47 0-4.96-1.37-8.83-4.1-11.65-2.7-2.8-6.2-4.2-10.5-4.2zm6.55 25.25c-1.74 2-3.93 3-6.55 3-2.64 0-4.84-1-6.58-3-1.74-1.97-2.6-4.96-2.6-8.96s.86-7 2.6-8.97c1.74-1.97 3.94-2.96 6.58-2.96 2.6 0 4.78 1 6.53 2.98 1.76 1.98 2.63 4.9 2.63 8.77 0 4.1-.87 7.13-2.6 9.13zM101.2 270.34c-1.4 1.27-3.12 1.9-5.2 1.9-2.58 0-4.67-.95-6.28-2.85-1.6-1.9-2.4-4.95-2.4-9.14 0-4.13.82-7.15 2.5-9.06 1.65-1.9 3.82-2.87 6.48-2.87 1.76 0 3.26.53 4.5 1.6 1.25 1.05 2.12 2.62 2.6 4.72l5.15-.8c-.6-3.15-2-5.58-4.14-7.3-2.15-1.7-4.92-2.56-8.3-2.56-2.7 0-5.17.62-7.45 1.88-2.28 1.27-3.98 3.16-5.1 5.68-1.12 2.53-1.67 5.48-1.67 8.84 0 5.22 1.3 9.2 3.9 12 2.58 2.8 6 4.2 10.28 4.2 3.4 0 6.28-1.02 8.63-3.05 2.32-2.02 3.78-4.83 4.35-8.4l-5.2-.7c-.37 2.66-1.26 4.62-2.64 5.9zM139 262.82v-7.05c0-2.35-.17-3.98-.35-4.88-.3-1.46-.9-2.66-1.7-3.6-.77-.95-2-1.74-3.68-2.37-1.66-.63-3.84-.94-6.5-.94-2.68 0-5.05.36-7.08 1.1-2.05.73-3.6 1.77-4.7 3.14-1.06 1.36-1.84 3.14-2.3 5.36l5.16.7c.57-2.2 1.44-3.75 2.63-4.63 1.17-.87 3-1.3 5.5-1.3 2.66 0 4.67.6 6.02 1.8 1 .87 1.5 2.4 1.5 4.54 0 .2 0 .67-.03 1.4-2.03.7-5.17 1.3-9.44 1.8-2.1.27-3.66.53-4.7.8-1.4.4-2.68.98-3.8 1.74-1.13.77-2.04 1.78-2.74 3.04-.7 1.27-1.04 2.66-1.04 4.2 0 2.6.92 4.73 2.76 6.4 1.84 1.68 4.47 2.52 7.9 2.52 2.08 0 4.02-.35 5.83-1.03 1.8-.68 3.7-1.3 5.66-2.97.15 1.47.5 2.4 1.06 4.4h5.5c-.66-2-1.02-3-1.24-4.3-.23-1.3-.26-4.97-.26-9.88zm-5-.82h-.14c0 3-.47 4.18-1.04 5.37-.74 1.55-2 2.8-3.6 3.7-1.57.9-3.43 1.36-5.47 1.36-2.06 0-3.64-.46-4.7-1.4-1.07-.94-1.62-2.1-1.62-3.52 0-.9.24-1.74.73-2.5.5-.75 1.18-1.32 2.08-1.7.9-.4 2.7-.76 4.87-1.07 3.85-.55 5.9-1.2 8.9-2V262zM148 233h4v44h-4zM186.27 233l-16.54 44h6.05l4.73-14h18l5.04 14h6.5l-17.64-44h-6.13zm-4.12 26l4.73-13.03c1-2.72 1.78-5.66 2.32-8.42.67 2.33 1.7 5.6 3.06 9.23l4.5 12.22h-14.6zM227.68 264.2c-.88 2.35-1.65 4.65-2.32 7-.6-2.2-1.36-4.48-2.26-6.98L211.9 233h-6.16l16.68 44h5.85l16.86-44h-5.82l-11.62 31.2zM268 233h5v44h-5zM306.4 247.66c-.8-1.1-1.97-1.98-3.54-2.66-1.58-.67-3.18-1-5.06-1-4.33 0-7.8 1.7-9.8 5.13V245h-5v32h5v-18.15c0-4 .95-6.7 2.6-8.13 1.62-1.43 3.64-2.15 5.9-2.15 1.4 0 2.66.32 3.7.96 1.05.63 1.78 1.5 2.2 2.55.4 1.07.6 2.68.6 4.83V277h6v-20.3c0-2.44-.43-4.15-.63-5.13-.3-1.5-1.2-2.8-1.97-3.9zM489.7 247.88l-138.64-83.23c-2.96-1.77-6.92-1.82-9.92-.12-3 1.7-5.14 4.88-5.14 8.33v166.3c0 3.43 2.13 6.62 5.13 8.3 1.47.84 3.23 1.26 4.86 1.26 1.7 0 3.46-.46 4.97-1.36l138.7-83.06c2.88-1.73 4.66-4.84 4.67-8.2 0-3.37-1.75-6.5-4.63-8.22zM355 322.26v-132.5l110.47 66.32L355 322.26z"/></svg>