<svg xmlns="http://www.w3.org/2000/svg" width="512" height="512" viewBox="0 0 512 512"><path d="M55 249H25v-25h-7v60h7v-28h30v28h7v-60h-7M115.57 229.35c-2.4-2.03-5.27-3.58-8.64-4.36-2.42-.57-5.9-1-10.5-1H76v60h21.4c3.56 0 6.72-.72 9.46-1.4 2.75-.67 5.1-1.85 7.04-3.15 1.94-1.3 3.73-3.18 5.36-5.44 1.64-2.25 2.98-5.17 4.02-8.62 1.05-3.46 1.57-7.45 1.57-11.92 0-5.25-.77-9.94-2.3-14.02-1.55-4.1-3.88-7.46-6.98-10.1zm-.3 35.3c-1.04 3.14-2.48 5.62-4.33 7.47-1.3 1.3-3.07 2.7-5.28 3.42-2.2.73-5.26 1.46-9.15 1.46H83v-45h13.3c4.65 0 8 .02 10.1.83 2.9 1.12 5.35 3.15 7.38 6.46s3.03 7.94 3.03 14.1c0 4.45-.5 8.14-1.53 11.26zM166.97 265.14c-1.42 4.16-2.46 7.38-3.13 9.52-.6-1.93-1.53-4.94-2.82-8.83L147.08 224H135v60h8v-50.95L159.9 284h7.03L184 233.9V284h8v-60h-10.92l-14.1 41.14zM205 224h9v60h-9zM488.07 244.9L298.34 131c-4.05-2.43-9.34-2.5-13.44-.17-4.1 2.32-6.9 6.68-6.9 11.4v227.55c0 4.7 2.8 9.07 6.9 11.4 2 1.13 4.35 1.7 6.57 1.7 2.33 0 4.73-.63 6.8-1.87l189.76-113.64c3.94-2.37 6.38-6.63 6.38-11.23.02-4.6-2.38-8.87-6.33-11.24zM304 346.66v-181.3l151.18 90.74L304 346.68z"/></svg>