<svg xmlns="http://www.w3.org/2000/svg" width="512" height="512" viewBox="0 0 512 512"><path d="M494.16 338.55c.03-.32 0-.63 0-.94 0 0-.16-.03-.16-.05v-.03V174.57c0-5.14-3.83-8.57-8.97-8.57H27c-.04 0-.07-.36-.1-.36-.07 0-.15-.18-.22-.18-.27 0-.54-.06-.8-.03-.1 0-.18-.02-.27 0-.28.03-.56.06-.83.13-.05 0-.1 0-.16.02l-.97.3-.16.08c-.25.1-.5.22-.75.35l-.23.13c-.6.33-1.15.7-1.65 1.16-.07.05-.14.1-.2.18-.2.18-.4.37-.57.56l-.15.16c-.2.25-.4.52-.6.8-.04.04-.07.1-.1.16-.16.22-.3.46-.43.7l-.12.23c-.13.25-.25.52-.36.8 0 .03-.03.07-.05.1-.12.32-.22.64-.3.96l-.06.28-.1.43c0 .1-.02.2-.04.3 0 .1-.03.2-.04.3-.03.3.1.6.1.9 0 .04.14.07.14.1v162.97c0 5.15 3.87 8.46 9 8.46H485.03c.44 0 .87.4 1.3.33.06 0 .12.2.18.2.43-.08.84-.07 1.23-.2.07 0 .13.02.2 0 .4-.13.8-.26 1.17-.44l.1-.06c.72-.36 1.38-.8 1.97-1.32.07-.05.14-.1.2-.17.2-.2.4-.38.57-.6l.14-.13c.22-.25.42-.52.6-.8l.1-.14c.16-.24.3-.48.44-.72.04-.08.08-.15.1-.23.15-.27.28-.54.38-.83l.04-.1c.12-.3.22-.62.3-.95l.06-.25.1-.45.04-.3c0-.1-.1-.2-.08-.3zM41 328V189.45l166.97 59.9L427.2 328H41z"/></svg>