<svg xmlns="http://www.w3.org/2000/svg" width="512" height="512" viewBox="0 0 512 512"><path d="M495 125.06c0-4.45-3.6-8.06-8.06-8.06H25.06c-4.45 0-8.06 3.6-8.06 8.06v261.88c0 4.45 3.6 8.06 8.06 8.06h461.88c4.45 0 8.06-3.6 8.06-8.06V125.06zM33 379V133h244c-50.92 18-87.67 65.75-87.67 122.54 0 58.05 38.58 107.46 91.43 123.46H33zm172.46-122.98c0-62.34 50.6-113.06 112.77-113.06 62.35 0 113.07 50.72 113.07 113.06 0 62.18-50.72 112.77-113.07 112.77-62.18 0-112.77-50.6-112.77-112.78zM477 379H355.78c52.98-16 91.65-65.4 91.65-123.46 0-56.8-36.84-104.54-87.88-122.54H477v246z"/><path d="M317.3 147.44c-56.8 0-103.02 48.76-103.02 108.7 0 59.76 46.2 108.4 103.02 108.4 56.97 0 103.31-48.64 103.31-108.4.02-59.94-46.33-108.7-103.3-108.7zm0 200.96c-47.92 0-86.9-41.4-86.9-92.27 0-51.04 38.98-92.56 86.9-92.56 48.08 0 87.2 41.52 87.2 92.56 0 50.88-39.13 92.27-87.2 92.27zM110.86 204.85c-31.28 0-56.72 25.32-56.72 56.44 0 31.28 25.44 56.73 56.72 56.73 31.3 0 56.74-25.45 56.74-56.74 0-31.13-25.45-56.45-56.74-56.45zm.6 86.52c-15.1 0-27.4-13.35-27.4-29.77 0-16.4 12.3-29.77 27.41-29.77 15.28 0 27.7 13.36 27.7 29.77.02 16.42-12.42 29.77-27.7 29.77z"/></svg>