<svg xmlns="http://www.w3.org/2000/svg" width="512" height="512" viewBox="0 0 512 512"><path d="M495 106.88c0-6.56-5.32-11.88-11.88-11.88H29.88C23.32 95 18 100.32 18 106.88v298.24c0 6.56 5.32 11.88 11.88 11.88h453.24c6.56 0 11.88-5.32 11.88-11.88V106.88zM472 395H41V119h431v276z"/><path d="M256.54 392.04c74.77 0 135.6-60.7 135.6-135.3 0-74.78-60.83-135.6-135.6-135.6-74.6 0-135.3 60.82-135.3 135.6 0 74.6 60.7 135.3 135.3 135.3zm0-247.14c61.67 0 111.84 50.17 111.84 111.83 0 61.5-50.17 111.54-111.84 111.54-61.5 0-111.54-50.04-111.54-111.54 0-61.66 50.04-111.83 111.54-111.83z"/></svg>