<svg xmlns="http://www.w3.org/2000/svg" width="512" height="512"><path d="M488.6 357.4c-11.2-9.5-21.5 3.1-28 11.5l-37.3 43-113.5-119.2c15.1-21.5 15-52.1 0-73.6L423.3 99.8c16.2 18.4 31.7 37.3 48.3 55.3 16.6 11.5 30-15 14.3-24.4-18.3-20.7-35.7-42.4-54.7-62.4-11.3-7.6-19.9 4.5-26.5 11.7L290 200.4a65.4 65.4 0 0 0-68.2 0c-42-44-83.6-88.3-125.9-131.9-8.8-6.5-19 1-23.7 8.8-17.2 20-35 39.8-51.8 60.2-9.5 17.6 18.7 28 26 11l42.2-48.7 113.5 119.3a65.4 65.4 0 0 0 0 73.6L88.7 412c-16-18.3-31.7-37.1-48.1-55.1-15.1-11.7-30.7 13.5-15.3 23.4 18.5 20.9 36.2 42.7 55.2 63 8.6 6.5 18.4-.7 23.5-8l118-123.8a65.3 65.3 0 0 0 68.1 0c42 43.8 83.5 88.3 125.9 131.8 8.1 6.3 18.3 0 22.8-7.7 17.5-20.5 35.6-40.5 52.7-61.2a13.7 13.7 0 0 0-3-17zm-194.7-99.3c-.5 25-29 43.2-52 33.2-23.4-8.3-31.8-41.2-15-59.7 15-19.4 48.2-17.4 60.9 3.6a38.7 38.7 0 0 1 6.1 23z"/></svg>