<svg xmlns="http://www.w3.org/2000/svg" width="512" height="512"><path d="M490.1 157.8c-33.7-31.9-67-64.3-101-95.8-13.8-7.8-22.4 8.7-31 16.5L169.2 276.8A96.7 96.7 0 0 0 47.9 285a94.9 94.9 0 0 0-30.2 74.7c.3 47.6 42 89.7 89.2 92 45 4 89.6-28.3 100-72.2 7.6-28.5.8-60.3-17.5-83.4l34.3-36c30.4 28.5 60.3 57.7 91 86 16.5 10.6 30-16.6 13.4-25.2l-85.2-81 33.7-35.4c30.3 28.7 60.2 57.8 90.8 86.2 16.5 10.5 30.2-16.7 13.5-25.3l-85.1-81 33.6-35.4c30.3 28.7 60.2 57.9 90.8 86.2 16.5 10.5 30.2-16.7 13.5-25.3l-85.1-81 33.6-35.3c30.3 28.6 60.2 57.8 90.9 86.1 14 9 29-10.5 17-22zm-308 201.7a68.8 68.8 0 0 1-70.2 64.5c-36.3 0-69.8-33.8-66-70.5-1.7-37.2 34.6-69.3 71.1-66.4 35.4.9 66 33.1 65 68.5v4z"/></svg>