<svg xmlns="http://www.w3.org/2000/svg" width="512" height="512"><path d="M492.5 188.7c-23.9-27.1-47-55.1-71.4-81.7-8.8-5.8-15.2 6-21 11.3-49.5 51.8-99 104.4-148.5 155.7a73.5 73.5 0 0 0-95.5 8 71 71 0 0 0-20.4 53.4c-.5 37.1 32.5 70 69.4 71A73.5 73.5 0 0 0 265.4 287l150.5-158.3 62.6 72.1c7.8 9.5 22.3-3.3 14-12.2zM263 336.4c-1 30.4-31 55.4-61 51a54.8 54.8 0 0 1-47-64.8 54.9 54.9 0 0 1 66.4-42.4 54.9 54.9 0 0 1 41.6 56.2zM49.1 225.7c7.5-11 16.6-21.2 23-32.9-.5-20-20-8-24 3.5l-12 17c-1-9.8 2.3-20.6-3-29.2-15.1-10-17.7 10.7-16 21.3v69.2c6.4 20.6 24 1.4 19-12.4.6-6.4-1.6-13.5 1-19.4 6.6 12.6 12.2 25.8 19.3 38.1 16.3 10.7 18.5-12.5 9.5-21.6L49 225.7zm51.2-25.6c10.2 2 35.2 14.7 30.7-7-11.9-12.5-38.1-18-49.4-1.5-11.7 15.7-4 39.2 13.6 46.6 7.5 5.8 21.3 9 17.6 21.4-6.2 14.4-44.6-15.2-34.3 14.6 13.7 11 39.4 15.8 49.3-2.6 9.8-15.8 1.7-37.2-15-44.4-7.4-5.7-21.3-9.2-17.6-21.5.8-2.4 2.2-5.4 5.1-5.6z"/></svg>