<svg xmlns="http://www.w3.org/2000/svg" width="512" height="512"><path d="M129.7 229.4c-7.3-5.2-16-8.9-22.2-15.2-4.8-26 38.7 13.6 35.4-18.3-9-16.7-39-22.6-52.3-7.2-14.3 15.7-7.9 43 11.4 51.3 6.8 5.5 21.3 8.7 16.2 20.4-10.9 2.3-38.7-14.7-34.7 11.2 11.4 15.5 41.2 21.1 53.5 3.3 10.2-13.8 7.3-36-7.3-45.5zM492 188c-23.2-26.6-46-53.6-69.5-79.9-8.6-6.8-17.2 1.3-22.2 7.9L253.7 270a74.6 74.6 0 1 0-8 127.6 74.7 74.7 0 0 0 25.1-111.2l143.9-151.2c20.5 23.3 40.4 47.2 61.2 70.1 11.5 8.5 25.1-7 16.1-17.3zM262.3 334.4a51 51 0 0 1-58 47.1 51 51 0 0 1-42.2-61 50.8 50.8 0 1 1 100.1 14zM72.8 180c-16.1.5-32.6-1.2-48.5 1-14.9 6.6-4 27.6 10.3 23 8.5-1.4 2.7 11.5 4.4 17 .6 19.1-1.2 38.6 1 57.6 6.6 15 27.6 4 23-10.3V204c10.4 2 25.9-3.3 20.7-16.6a12 12 0 0 0-11-7.4z"/></svg>