<svg xmlns="http://www.w3.org/2000/svg" width="512" height="512"><path d="M488.4 357.4c-11.1-9.5-21.4 3-27.9 11.4l-37.3 43-113.5-119.1a65.3 65.3 0 0 0 0-73.6L423.2 100c16.1 18.3 31.7 37.3 48.3 55.2 16.5 11.5 30-14.9 14.3-24.4-18.4-20.6-35.7-42.3-54.7-62.3-11.3-7.6-19.9 4.5-26.6 11.7L290.1 200.4a65.3 65.3 0 0 0-68.2 0c-42-43.8-83.5-88.2-125.8-131.7-8.8-6.5-18.9 1-23.6 8.7-17.2 20.1-35 39.8-51.8 60.2-9.5 17.6 18.7 28 26 11L88.8 100l113.5 119.2a65.3 65.3 0 0 0 0 73.5L89 411.9c-16.1-18.3-31.7-37-48.1-55-15.1-11.7-30.7 13.4-15.4 23.3 18.6 20.9 36.3 42.7 55.3 63 8.6 6.5 18.3-.8 23.5-8 39.2-41.3 78.5-82.7 117.8-123.8a65.3 65.3 0 0 0 68 0c42 43.8 83.5 88.2 125.8 131.7 8.2 6.3 18.3 0 22.9-7.7 17.5-20.4 35.5-40.4 52.7-61.2 3.1-5.4 1.8-13-3-16.8zm-194.5-99.2c-.5 24.8-29 43-51.9 33-23.1-8.2-31.7-40.3-15.7-59 14.5-19.6 47.5-18.6 60.9 1.9 4.8 7 7.3 15.7 6.7 24z"/></svg>