<svg xmlns="http://www.w3.org/2000/svg" width="512" height="512"><path d="M489.9 136c-19.8-22.3-38.6-45.6-59-67.2-9-5.7-16.8 3.6-22 9.9-39.5 41.3-79 83.1-118.3 124a64 64 0 0 0-87.2 17.6 64 64 0 0 0 1 73L87.7 416.2l-48-55.3c-21-14.2-24.4 16.6-8.7 25.3C47.6 405 63.4 424.7 80.6 443c5.4 3.4 12.7 2 16.7-3.4l124-130.3a64 64 0 0 0 82-10.9 64 64 0 0 0 4.2-79.6l117-123c16.6 19 32.7 38.5 49.7 57 10.7 8.2 24.9-6.7 15.7-16.8zM296.2 258.4c-.6 26-30 45.3-54 35.4-24.4-7.8-34.4-40.7-19.1-61a40.3 40.3 0 1 1 73.2 25.6z"/></svg>