<svg xmlns="http://www.w3.org/2000/svg" width="512" height="512"><path d="M494 249.7A238.7 238.7 0 0 0 370.5 47.3a238.6 238.6 0 0 0-243 8.3A238.5 238.5 0 0 0 18 264.5c2 83.7 52.6 164 127.1 202.2a238.8 238.8 0 0 0 241.8-12 238.6 238.6 0 0 0 106.9-205zm-153 13.9a85.8 85.8 0 0 1-82 77.7 85.8 85.8 0 0 1-87.6-73.3 85.9 85.9 0 0 1 63.7-94.9c33.9-8.4 72.1 5.3 91.4 34.6a85.8 85.8 0 0 1 14.6 55.9zm-13.6-79a101.3 101.3 0 0 0-127.6-12.5 101.3 101.3 0 0 0-15.3 155.3l-85.9 86a222.9 222.9 0 0 1-58.3-212.1 222.6 222.6 0 1 1 373-102.7l-86 86zM119 415l75-75"/></svg>