<svg xmlns="http://www.w3.org/2000/svg" width="512" height="512"><path d="M493.9 249.7A238.8 238.8 0 0 0 371.6 48c-72-41-165.4-39.7-236.4 3A238.8 238.8 0 0 0 18 252.4C16.1 335 61 416.6 132 459a238.5 238.5 0 0 0 235.3 7.2A238.7 238.7 0 0 0 494 249.7zM122.5 95.5a209.4 209.4 0 0 1 270.4 3c-24.7 24.3-49.3 49.8-74 73.5a105.5 105.5 0 0 0-126.1.2L119 98.5l3.5-3zM331.8 256a76.3 76.3 0 0 1-73.6 75.7 76.2 76.2 0 0 1-78-72.8 76.1 76.1 0 0 1 71.3-78.5 76.3 76.3 0 0 1 80 70.6c.2 1.6.1 3.5.3 5zM98.4 393a209 209 0 0 1 0-273.8l73.8 73.7c-28.1 36-28.1 90.4 0 126.4l-73.8 73.7zm293 21.9a209.5 209.5 0 0 1-272.4-1.3c24.6-24.5 49.2-49.4 73.8-73.6 36.1 28 90.3 28 126.3-.1l73.8 73.7c2-.5-2.2 1.3-1.5 1.3zM464.6 262A209 209 0 0 1 413.5 393l-73.7-73.7c28-36 28-90.4 0-126.3l73.7-73.8a210 210 0 0 1 51.1 143z"/></svg>