<svg xmlns="http://www.w3.org/2000/svg" width="512" height="512"><path d="M360 249.3a104.6 104.6 0 0 0-90.6-96.8 104.5 104.5 0 0 0-112.4 71 104.4 104.4 0 0 0 50.3 124.2c41.8 23.2 98.3 12 128.4-25 17-20.2 25.9-47 24.2-73.4zm-28.4 13.2a76.2 76.2 0 0 1-82.1 68.8 76.3 76.3 0 0 1-69.3-80.5 76.3 76.3 0 0 1 77.7-71c40.3 0 75.7 37 73.9 77.3 0 1.8-.3 3.6-.2 5.4zm161-13a238.4 238.4 0 0 0-95-183.2 237 237 0 0 0-234.5-28 237.2 237.2 0 0 0-142.5 194 237 237 0 0 0 230 259.8c12.8 1.4 26.7-1 40-2.4a237.2 237.2 0 0 0 202-240.2zm-28.4 12.3a209 209 0 0 1-114.9 180 209 209 0 0 1-216.8-18.4 210.2 210.2 0 0 1-84.8-157.9 209 209 0 0 1 179-216 208 208 0 0 1 237.6 212.3zM119 414.9l75-75"/></svg>