<svg xmlns="http://www.w3.org/2000/svg" width="512" height="512"><path d="M482.5 251H417c-.2-39.1.3-78.3-.2-117.4-3.3-13.6-19-8.7-29.2-9.6-94.5.2-189-.3-283.5.2-13.1 3.9-8.1 19.5-9.1 29.6V251c-22.6.1-45.2-.3-67.8.2-19.9 6.6-3.8 28 11.3 22.8 23.4-.1 47 .3 70.4-.2 13.6-2.4 9.5-17.9 10-27.7V147h274c.3 39.4-.3 78.8.4 118.2 4.7 13 20.6 7.7 31.2 8.8 20-.1 40.2.3 60.3-.2 14-2.7 11.6-23-2.3-22.8zm-172 16.2c-1-30-30.3-54.9-60-51a55 55 0 0 0-48.6 61.2c3 30 34.2 52.8 63.7 46.7a54.9 54.9 0 0 0 44.8-57zm-23.7 6c-1 21.2-26.9 35.3-45.2 24.6-19.2-9.1-22.2-38.3-5.4-51.2 15.8-14.3 44-5.8 49.4 14.8a32 32 0 0 1 1.2 11.8zm86.6-6.1c-.9-46.5-32-90.3-75.6-106.4a117.9 117.9 0 0 0-159.5 107.9A117.7 117.7 0 0 0 302 378.4c41.3-17.2 70.4-59.7 71.2-104.5 1-1.8.8-5.3.1-6.8zm-23.7 8.5a94.2 94.2 0 0 1-78.9 87.4c-42 7.6-87-18-102-58a94.2 94.2 0 0 1 34-111.8 93.6 93.6 0 1 1 147 82.4zM119 415l75-75"/></svg>