<svg xmlns="http://www.w3.org/2000/svg" width="512" height="512"><path d="M489.6 158.3c-33.6-31.8-66.8-64-100.7-95.5-9.3-6.1-18.6 2.1-24 9.3L169.9 277a95.8 95.8 0 1 0-45 173.5A96.3 96.3 0 0 0 210 362a96.5 96.5 0 0 0-20.3-66.2l192.3-202c30.3 28.6 60.1 57.7 90.7 85.9 13.7 8.8 28.7-10.3 16.8-21.6zM48 337.9a68.6 68.6 0 0 1 52.9-49.7V341H47.4l.7-3zm134.6 21.3a68.7 68.7 0 0 1-70 64.4A68.6 68.6 0 0 1 47.4 369c23.3-.2 46.6.4 69.8-.3 15.1-4 9.9-21.7 10.8-33.2v-47.3a68.6 68.6 0 0 1 54.7 71zM119 415l75-75"/></svg>