<svg xmlns="http://www.w3.org/2000/svg" width="512" height="512"><path d="M491.8 168.7c-32-36.5-63.2-73.7-95.6-109.7-8-3-11.8 8-17.2 11.8L170.7 289.6A92.9 92.9 0 0 0 50 291.1a93 93 0 0 0-17.4 118A92.9 92.9 0 0 0 107 453c8 2 17.3-1.3 25.9-2.5a93.1 93.1 0 0 0 70.8-95 91 91 0 0 0-24.8-58l155.1-163v127.3c-6.2-4.8-10.3-13.3-17.7-16-7.9-.2-6.5 9.6-4 14.4 7.8 28.8 14.8 58 23.2 86.7 3.5 5.3 10.7 2 11-4.2 7.8-30.5 16.5-61 23.8-91.6-.5-6.9-9.9-6.6-12.4-1-4.4 2.8-14 18.2-11.9 5.6V135.4l83.9 96.7c15.7 6.5 7.8-13.2-.2-17.8L348 120l45.2-47.4L483 176.3c4.8 5.8 13.8-2 8.7-7.6zM180 317.7a81.4 81.4 0 0 1-18 105.9 81.4 81.4 0 0 1-107-4.7 81.1 81.1 0 1 1 125-101.1zM334 299l-7.5-28.4c7.4 4.6 8.6 11.7 7.5 19.8v8.6zm19.5-28.4L346 299c1-7.4-2.1-16.5 1.7-22.7l5.8-5.7zM119 414.9l75-75"/></svg>