<svg xmlns="http://www.w3.org/2000/svg" width="512" height="512"><path d="M492.3 166.5c-31.5-36-62.5-72.4-94.2-108.2-9.5-7.2-17.8 2.8-23.3 9.4L171.5 281.3A97.2 97.2 0 0 0 47.7 288a97.3 97.3 0 0 0-14.1 125.5c24.8 38 78 53.3 119.3 34a97.2 97.2 0 0 0 35.5-150.2l150-157.6c28.7 32.8 56.8 66.2 85.9 98.7 22 9.4 20.6-19 6.7-27.4l-76.6-88.2 36.2-38c28.7 32.8 57 66.2 86 98.7 10.6 8.4 24.9-7 15.7-17zM72.3 298a74 74 0 0 1 84.5 1.3l-43.2 43.2-43.2-43.2c.8.1 1.1-1.3 1.9-1.3zM54 402.2a74 74 0 0 1 0-86.5L97.2 359 54 402.2zm102.7 16.6a74 74 0 0 1-86.2-.2l43.2-43.2c14.2 14.4 29.4 29 43 43.4zm30.5-55.5c-.8 13.9-5.6 27.6-13.9 38.8L130.1 359l43.2-43.1a74 74 0 0 1 13.9 47.5zM119 414.9l75-75"/></svg>