<svg xmlns="http://www.w3.org/2000/svg" width="512" height="512"><path d="M58.8 210zm433.9-53.1c-28.9-27-57-55.1-86.3-81.6-9.2.2-13.5 10.9-20.3 16.2-54.2 56.9-108.5 114.2-162.7 170.8a76.6 76.6 0 0 0-99.7 3l-46.8-45.2c6.2-1.3 17.3 3.2 19.6-5.1 0-8.3-11.4-9-16.5-13.5-18.8-10-37.1-21.6-56.3-30.8-7.3-.4-7.5 9-2.8 12.8 13.2 21 25.3 43.2 39.2 63.7 4.8 4.5 11-3 9-8.4-2-12 2-10 8.5-2.1l38.3 37A76 76 0 1 0 225 379c20.2 19.1 39.7 39 60.3 57.6 15.7-.4 2.2-15-4.2-19.5L233 371a76 76 0 0 0-1.3-100.6L361.4 134c26 24.4 51.3 49.6 77.7 73.4 15.7-.4 2.2-15-4.3-19.4l-65.5-62.3 35.2-37c27.5 25.7 54.3 52.4 82.2 77.6 5.7 2.4 10.6-5.5 6-9.5zm-429.9 52c-4.2-.1-6.3 4.2-5 7.3.9 11.8-5.9-5.8-9-9-1.4-4-13.9-18.6-5-12.8l25.7 14.4-6.7.1zm153.1 162.8a65 65 0 0 1-89.6-8.1 65.2 65.2 0 0 1-2.1-81.9l92.5 89.3-.8.7zm16.2-81.4a65 65 0 0 1-7.3 72.7L132 273.4a64.9 64.9 0 0 1 100 17zM119 415l74.9-75"/></svg>