<svg xmlns="http://www.w3.org/2000/svg" width="512" height="512"><path d="M117.1 350c10.2-14.9 22.2-28.7 31.2-44.3-.5-22.3-22.6-9.3-27.3 3.5l-22 30.4c-.5-13.4 1-27-.8-40.4-13.5-17.7-23.9 5.9-20.2 19v97.5c7 23 26.7 1.7 21-13.7.5-9.1-1-18.9.7-27.6 4.7-11.7 7.3 5.1 10.8 9.3 6.8 13 12.6 26.5 20 39.2 18.1 12 21.1-13.9 11-24.2L117 350zm375.2-182.9c-31.5-36-62.6-72.6-94.4-108.4-10.8-7.5-17.7 5.8-24.3 12L171.4 283a96.6 96.6 0 0 0-123.8 6.2 96 96 0 1 0 71.7 166 96.1 96.1 0 0 0 67.3-157.7L391.1 82.6l85.2 98.3c8.9 10.6 25.2-3.7 16-13.8zm-305.1 180a75.5 75.5 0 0 1-56.7 85.4 75.4 75.4 0 0 1-89.3-51.7 75.4 75.4 0 0 1 46.8-92 75.4 75.4 0 0 1 99.2 58.2zM119 414.8l75-75"/></svg>