<svg xmlns="http://www.w3.org/2000/svg" width="512" height="512"><path d="M492.8 172l-85.6-81.4c-11.7-9-19.8 6.3-27.4 13.1L216 276a82 82 0 1 0 33.6 72 82.5 82.5 0 0 0-18-57.3l122.8-129c26 24.6 51.8 49.3 77.7 74 21.3 11.2 20.9-17.9 5.6-24.5L369.3 146l30.8-32.5 77.8 74c10 10 25.2-6.4 14.9-15.5zM228 346a61 61 0 0 1-66.5 56.7 61 61 0 0 1-54-68.7 61 61 0 0 1 70-51.4c30 4.6 52.7 33.1 50.6 63.4zM68.3 245c-3.6-5.2-3.9-30.5-20.3-17.5-2.7 3.6-3.7 26.3-7 14 4-20.1 10.2-40 13-60.4-8.8-20.1-25-.6-24.3 13.3L16 253.6c-1.7 15.6 16 12.1 25.8 12.4 5.7 3.7 2.8 32.3 21 18.4 6.8-8.2-2.8-22.3 13-21.4 7-6.3 1.7-18.5-7.6-18zM119 415l75-75"/></svg>