<svg xmlns="http://www.w3.org/2000/svg" width="512" height="512"><path d="M274.6 216c-13.2.3-26.5-.6-39.6.5-13.3 13 11.8 9.5 14 14 .3 21-.6 42 .5 63 11.3 11.4 12.9-8.9 11.5-17V228c8 1.6 27.3-.6 16-11.5zm217-79.4c-19.8-22.5-39-45.8-59.4-67.9-8-3.2-11.9 7.9-17.3 11.7L292.3 209a59.7 59.7 0 0 0-84 11.6 59.8 59.8 0 0 0 2.6 74l-95.3 100.1c-17.6-19.7-34.3-40.4-52.4-59.6-16.2-1.1-4.1 15.2 2.2 20.4l41.7 48.1L83 429.2c-18.5-21-36.2-42.8-55.3-63-16.2-1.3-4.1 15 2.2 20.3 16.9 18.9 32.8 38.8 50.1 57 8 2.8 12.3-8.3 18-12.6 40.7-42.4 81.3-86 122-127.6a59.8 59.8 0 0 0 82.2-9.8 59.8 59.8 0 0 0-.9-76l95.4-100.2c18.6 20.9 36.2 43 55.5 63.1 15.9.8 3.8-15.3-2.5-20.5L405 108.4 429.2 83c18.6 20.9 36.2 42.9 55.5 63.1 5.8 2.8 11.5-5 7-9.5zM301.5 243.1a47.5 47.5 0 0 1-39.6 59.9c-27.5 4.2-54.9-20.4-52.8-48.2a47.1 47.1 0 1 1 92.4-11.6zM119 415l75-75"/></svg>