<svg xmlns="http://www.w3.org/2000/svg" width="512" height="512"><path d="M489.8 157.8C456.2 126 423 93.6 389 62.2c-14-8-23 8.5-31.7 16.6L169.5 276.2a96.6 96.6 0 1 0-151.6 86.7 96.7 96.7 0 0 0 89.4 88.8 96.5 96.5 0 1 0 83-155.6l138.9-146c30.2 28.5 59.8 57.5 90.3 85.6 17 11 31.2-17 14-26l-84.4-80.4 32.8-34.5c30.1 28.5 59.8 57.5 90.3 85.6 14.4 9.2 30.1-10.9 17.6-22.6zM181.7 359.3a68.1 68.1 0 0 1-69.4 63.8c-36 0-68.9-33.5-65.3-69.8-1.5-37.3 35-69.2 71.7-65.6a68.1 68.1 0 0 1 63 70.2c2-4.2-.4 2 0 1.4zM119 414.9l75-75"/></svg>