<svg xmlns="http://www.w3.org/2000/svg" width="512" height="512"><path d="M490.12 157.77c-33.74-31.85-67-64.27-101.05-95.77-13.81-7.8-22.38 8.71-31.06 16.54-62.9 66.11-125.85 132.18-188.74 198.3-35.78-26.33-89.43-22.7-121.35 8.19-20.4 18.82-32.16 47.16-30.24 74.68.35 47.56 41.94 89.68 89.24 91.91 44.97 4.07 89.6-28.19 100-72.13 7.58-28.54.8-60.28-17.47-83.43l34.3-36.05c30.35 28.64 60.25 57.8 90.9 86.1 16.5 10.54 30.13-16.63 13.45-25.23l-85.16-81.02 33.63-35.33c30.34 28.64 60.24 57.8 90.86 86.13 16.52 10.56 30.16-16.64 13.46-25.25l-85.14-81.03 33.63-35.33c30.34 28.64 60.22 57.81 90.84 86.13 16.51 10.55 30.15-16.65 13.46-25.25l-85.12-81.04 33.6-35.3c30.36 28.64 60.25 57.82 90.9 86.12 14.07 8.92 29.04-10.5 17.06-21.94zm-308.1 201.75c-1.24 35.73-34.37 66.25-70.1 64.43-36.28.1-69.8-33.76-65.95-70.46-1.73-37.23 34.54-69.29 71.08-66.42 35.4.9 65.92 33.15 65.02 68.53.03 1.25-.17 2.76-.05 3.92z"/></svg>