<svg xmlns="http://www.w3.org/2000/svg" width="512" height="512"><path d="M129.66 229.42c-7.24-5.24-15.95-8.88-22.2-15.2-4.77-25.95 38.78 13.58 35.4-18.3-8.98-16.72-38.93-22.6-52.3-7.18-14.25 15.7-7.86 42.92 11.42 51.26 6.82 5.53 21.29 8.74 16.2 20.36-10.84 2.3-38.7-14.62-34.64 11.28 11.39 15.43 41.16 21.07 53.49 3.26 10.2-13.84 7.32-35.93-7.37-45.48zM492.03 188c-23.24-26.56-46.06-53.56-69.56-79.86-8.55-6.8-17.14 1.26-22.15 7.84L253.7 269.97c-29.47-21.18-73.79-15.73-97.47 11.7-23.12 24.79-25.51 65.52-5.35 92.8 20.22 29.8 63.2 40.33 94.87 23.13 31.8-15.6 48.18-55.59 36.66-89.03a73.95 73.95 0 0 0-11.56-22.22L414.7 135.22c20.48 23.31 40.4 47.15 61.22 70.13 11.48 8.46 25.1-7.11 16.11-17.35zM262.28 334.4c-.93 28.65-29.65 52.1-57.9 47.13-28.32-3.23-49.2-33.47-42.24-61.1 5.37-28.39 37.98-47.04 65.17-37.22 21.64 6.66 36.54 28.64 34.97 51.19zM72.77 180c-16.12.55-32.53-1.15-48.45.95C9.4 187.6 20.39 208.6 34.59 204c8.5-1.38 2.72 11.5 4.41 16.93.56 19.2-1.17 38.68.95 57.67 6.64 14.91 27.65 3.93 23.05-10.27V204c10.44 2.1 25.9-3.26 20.73-16.65A11.97 11.97 0 0 0 72.77 180z"/></svg>