<svg xmlns="http://www.w3.org/2000/svg" width="512" height="512"><path d="M492.53 188.67c-23.9-27.1-47.01-55.1-71.38-81.65-8.85-5.84-15.28 6.07-21.08 11.3-49.5 51.8-98.93 104.35-148.45 155.68-28.15-21.34-71.38-17.78-95.5 8.08-13.78 13.9-21.73 34.13-20.43 53.36-.46 37.1 32.54 70 69.4 70.9 13.35 1.15 27.64-2.94 39.58-9.44 30.98-16.84 45.67-57.53 32.19-90.1a72.51 72.51 0 0 0-11.48-19.76l150.56-158.2 62.52 72.08c7.84 9.46 22.33-3.3 14.07-12.25zM262.93 336.4c-.97 30.36-30.95 55.4-61 50.92-30.5-2.76-53.83-34.81-46.97-64.69 5.05-29.56 37.33-50.22 66.29-42.42 25.24 5.73 43.4 30.46 41.68 56.19zM49.12 225.74c7.5-11.07 16.57-21.23 23.02-32.91-.56-19.96-19.97-7.94-24.09 3.44L36.01 213.2c-.95-9.67 2.4-20.54-2.81-29.11-15.24-9.98-17.77 10.73-16.19 21.3v69.19c6.53 20.64 24.13 1.38 19-12.44.72-6.37-1.48-13.47 1.17-19.37 6.5 12.66 12.15 25.83 19.2 38.17 16.31 10.64 18.52-12.55 9.5-21.67-5.6-11.18-11.17-22.36-16.76-33.54zm51.18-25.68c10.25 1.95 35.17 14.74 30.73-6.91-11.93-12.5-38.14-18.14-49.44-1.55-11.67 15.7-3.98 39.2 13.62 46.63 7.46 5.73 21.31 9.05 17.61 21.42-6.27 14.35-44.58-15.26-34.36 14.55 13.7 10.92 39.47 15.77 49.39-2.61 9.77-15.83 1.65-37.22-14.98-44.39-7.44-5.7-21.34-9.2-17.64-21.54.73-2.35 2.22-5.37 5.07-5.6z"/></svg>