<svg xmlns="http://www.w3.org/2000/svg" width="512" height="512"><path d="M488.4 357.35c-11.13-9.47-21.42 3.1-27.89 11.46l-37.34 43.07-113.45-119.2c15.14-21.46 15.12-52.1.02-73.57l113.43-119.2c16.18 18.33 31.73 37.26 48.3 55.2 16.53 11.53 29.96-14.9 14.32-24.4-18.37-20.6-35.7-42.32-54.67-62.28-11.32-7.6-19.92 4.45-26.57 11.68L290.06 200.45c-20.35-12.8-47.8-12.85-68.17-.05-41.98-43.84-83.46-88.24-125.74-131.73-8.86-6.5-18.91.98-23.66 8.74-17.2 20.11-34.99 39.77-51.82 60.18-9.46 17.62 18.75 27.94 26.05 10.94l42.12-48.58 113.45 119.2c-15.13 21.45-15.06 52.09.02 73.54L88.87 411.89c-16.1-18.29-31.67-37.08-48.1-55.04-15.12-11.67-30.7 13.47-15.33 23.33 18.55 20.9 36.22 42.69 55.26 63.06 8.56 6.49 18.32-.83 23.45-8.08 39.28-41.23 78.51-82.67 117.81-123.77 20.34 12.75 47.79 12.74 68.11-.05 42 43.86 83.47 88.28 125.78 131.79 8.17 6.28 18.23-.1 22.82-7.73 17.5-20.45 35.57-40.44 52.7-61.18 3.16-5.42 1.87-12.95-2.97-16.87zm-194.48-99.2c-.54 24.88-29.09 43.1-51.87 33.06-23.16-8.17-31.76-40.32-15.7-58.92 14.48-19.73 47.5-18.68 60.81 1.81a37.7 37.7 0 0 1 6.76 24.05z"/></svg>