<svg xmlns="http://www.w3.org/2000/svg" width="512" height="512"><path d="M492.3 164.73c-31.2-35.66-61.8-71.92-93.38-107.21-9.85-8.04-21.41-.4-27.38 8.08L172.5 274.74c-37.89-27.06-94.26-21.98-126.7 11.43-32.6 31-39.25 84.64-15.3 122.7 16.69 28.15 48 46.72 80.67 48.11 9.96 1.95 20.77-1.4 30.86-3.35 45.55-11.35 78.37-58.22 73.5-104.89a100.02 100.02 0 0 0-20.02-52.01l193.1-202.9c27.48 31.3 54.24 63.3 82.18 94.17 15.1 11.26 33.65-9.26 21.51-23.27zM184 361.13c-1.24 35.52-34.15 65.86-69.67 64.07-35.54-.06-66.98-31.95-66.29-67.52-1.31-36.44 31.32-69.37 67.74-68.54 36.5-1.12 69.34 31.65 68.33 68.15-.04 1.23-.06 2.72-.11 3.84z"/></svg>