<svg xmlns="http://www.w3.org/2000/svg" width="512" height="512"><path d="M489.88 135.97c-19.77-22.24-38.55-45.55-58.92-67.15-9.13-5.73-16.88 3.57-22.1 9.86-39.44 41.3-78.87 83.14-118.31 124.1-27.63-18.84-68.97-10.53-87.12 17.56-14.9 21.44-14.48 51.95 1.03 72.96L87.58 416.16l-47.9-55.23c-21.14-14.2-24.46 16.56-8.83 25.29 16.7 18.8 32.6 38.45 49.76 56.75 5.38 3.43 12.69 2.09 16.71-3.39l124.03-130.31c25.25 16.92 61.96 12.27 81.96-10.83 19.81-21.41 21.45-56.3 4.17-79.66l116.95-122.9c16.66 18.93 32.78 38.38 49.79 56.98 10.7 8.14 24.86-6.71 15.66-16.89zM296.24 258.42c-.6 26-30.07 45.3-54.13 35.42-24.35-7.87-34.34-40.72-19.04-61.03 13.95-21.44 48.37-22.8 63.96-2.51a40.33 40.33 0 0 1 9.21 28.12z"/></svg>