<svg xmlns="http://www.w3.org/2000/svg" width="512" height="512"><path d="M359.92 249.26c-2.17-48.41-42.33-91.47-90.54-96.75-48.13-7.18-98.25 24.42-112.37 71.02-16.17 46.43 6.36 102.14 50.33 124.18 41.73 23.15 98.26 12.02 128.32-24.99 17.13-20.19 25.9-47.08 24.26-73.46zm-28.37 13.22c-2.58 40.35-41.86 73.35-82.05 68.8-39.89-2.39-72.82-40.65-69.26-80.45 1.56-39.47 38.2-72.94 77.63-71.01 40.33.04 75.72 36.93 73.92 77.25-.06 1.8-.25 3.64-.24 5.41zm161.09-12.98c-2.08-71.21-37.45-140.9-95.07-183.18C331.74 16.16 238.92 5 163.1 38.24c-78.16 32.43-134.9 109.9-142.5 194.14-7.98 72.95 21.56 149.2 76.34 198.36 41.62 38.07 97.27 60.27 153.65 61.41 12.75 1.4 26.69-1.12 39.92-2.48 81.2-11.27 153.95-68.18 184.36-144.31a242.26 242.26 0 0 0 17.76-95.86zm-28.48 12.26c-1.48 75.12-47.36 147.08-114.85 180.11-68.2 35.05-155.46 27.67-216.76-18.43-50.22-36.35-81.75-96.12-84.89-157.9-1.75-27.08 3.52-54.52 12.28-80.12C84.77 113.9 151.55 59.46 226.6 49.5c77.13-11.84 158.9 24.46 201.92 89.55 24.32 35.81 37.1 79.51 35.64 122.71zM119.04 414.92L194 339.94"/></svg>