<svg xmlns="http://www.w3.org/2000/svg" width="512" height="512"><path d="M493.87 249.72c-1.56-82.55-49.68-162.2-122.26-201.68C299.6 7.09 206.17 8.27 135.18 50.97 64.6 91.75 18.66 170.94 18.04 252.42 16.13 334.99 61 416.58 131.91 458.98c69.99 43.65 162.88 46.52 235.42 7.26 73.97-38.3 124-117.96 126.44-201.22.28-5.08.37-10.24.1-15.3zM122.53 95.46c58.2-49.3 144.18-62.23 214.22-31.91a208.24 208.24 0 0 1 56.13 34.94c-24.65 24.36-49.26 49.84-73.94 73.5-36.05-27.85-90.24-27.77-126.18.23L119.04 98.5c1.15-1.03 2.38-1.98 3.49-3.04zM331.8 256.04c.8 39.65-33.9 75.48-73.6 75.67-40.18 2.23-77.45-32.57-77.98-72.82-2.52-39.84 31.36-77.2 71.27-78.5 40.16-3.43 78.31 30.39 80.08 70.6.1 1.65.03 3.53.23 5.05zM98.42 392.86C49.36 337.4 33.67 254.97 59.49 185.5a209.23 209.23 0 0 1 38.91-66.44l73.76 73.74c-28.08 36-28.08 90.37-.04 126.4-24.55 24.53-49.24 49.25-73.7 73.66zm293 21.92c-57.9 50.44-144.48 64.13-215.15 34.12a208.1 208.1 0 0 1-57.25-35.39c24.6-24.48 49.17-49.39 73.8-73.61 36.08 27.9 90.33 27.98 126.32-.12l73.73 73.7c1.99-.5-2.13 1.3-1.45 1.3zm73.2-152.75c-1.28 47.78-19.64 94.88-51.12 130.85l-73.73-73.7c28.04-35.98 28.07-90.38-.04-126.33l73.75-73.74c34.22 39.01 52.62 91.29 51.14 142.92z"/></svg>