<svg xmlns="http://www.w3.org/2000/svg" width="512" height="512"><path d="M493.96 249.66c-1.51-83.03-50.23-163.11-123.45-202.38-74.5-41.93-171.6-38.56-243.07 8.31C57.57 99.56 14.34 182 18.1 264.46c2.07 83.78 52.59 163.98 127.1 202.27 74.91 40.29 171.3 35.44 241.84-12.08 67.81-43.9 109.63-124.27 106.81-205zm-152.9 13.93c-2.82 41.73-40.25 77.2-82.07 77.76-42.3 2.44-82.53-31.26-87.58-73.32-6.9-41.86 22.4-85.44 63.74-94.92 33.83-8.42 72.05 5.25 91.4 34.64 11.03 16.23 16.38 36.28 14.51 55.84zm-13.7-78.97c-32.52-33.74-89.08-39.37-127.52-12.51-40.58 25.95-56.61 82.73-35.57 126.07a100.85 100.85 0 0 0 20.28 29.25L98.6 413.39c-54.72-54.03-78.28-137.65-58.34-212.1 19.21-79.2 85.57-144.33 165.12-162 73.4-18.23 154.94 5.66 207.96 59.34-28.65 28.65-57.4 57.38-85.98 85.99zm-208.32 230.3L194 339.94"/></svg>