<svg xmlns="http://www.w3.org/2000/svg" width="512" height="512"><path d="M482.46 251H417c-.15-39.14.3-78.3-.23-117.42-3.22-13.57-19-8.68-29.13-9.58-94.5.16-189.03-.33-283.5.25-13.14 3.82-8.18 19.4-9.14 29.57V251c-22.6.15-45.24-.3-67.83.23-19.87 6.61-3.75 28.02 11.3 22.77 23.47-.14 46.97.28 70.42-.21 13.63-2.43 9.49-17.84 10.1-27.7V147h274c.18 39.39-.36 78.82.27 118.18 4.7 13.07 20.61 7.7 31.21 8.82 20.12-.15 40.26.3 60.36-.23 13.88-2.64 11.54-22.95-2.37-22.77zm-172.03 16.18c-1.02-29.94-30.21-54.85-59.95-51-29.6 2.27-53.13 31.91-48.57 61.26 3.08 29.91 34.2 52.79 63.66 46.64 26.7-4.22 46.8-30.15 44.86-56.9zm-23.58 5.98c-1 21.26-26.91 35.37-45.3 24.64-19.18-9.1-22.2-38.3-5.36-51.2 15.78-14.3 44.05-5.84 49.38 14.78a32.04 32.04 0 0 1 1.28 11.78zm86.55-6.08c-.87-46.43-32.02-90.31-75.6-106.37-44.47-17.6-98.78-4.23-129.92 32.09-18.57 20.69-28.58 48.13-29.62 75.75 0 30.5 11.92 62.28 34.08 84.2 32.69 34 86.55 44.74 129.67 25.59 41.4-17.1 70.45-59.67 71.25-104.45 1-1.75.8-5.25.14-6.81zm-23.7 8.56c-1.65 42.88-36.36 81.43-78.88 87.4-42.1 7.51-86.94-18.03-102.02-58.03-16.38-39.24-1.5-88.27 33.94-111.78 34.76-24.93 86.22-21.19 117.1 8.38 20.31 18.6 31.74 46.75 29.86 74.03zM119.04 414.92L194 339.94"/></svg>