<svg xmlns="http://www.w3.org/2000/svg" width="512" height="512"><path d="M490.9 157.74c-34.02-32-67.33-64.87-101.8-96.34-14.84-6.95-22.74 10.5-32.18 18.53-62.66 65.82-125.3 131.66-187.95 197.49-35.83-26.44-89.68-22.99-121.68 8.03-32.35 29.03-40 80.55-18.22 117.97 17.41 31.8 54.15 51.66 90.12 48.77 46.36-1.73 87.02-41.8 89.97-88.02 1.89-23.85-5.08-48.94-20.33-67.92l87.8-92.24c30.52 28.8 60.58 58.13 91.38 86.6 16.35 10.4 29.74-16.5 13.23-24.95l-85.68-81.55 34.1-35.84c30.52 28.81 60.58 58.14 91.38 86.63 16.33 10.43 29.72-16.49 13.21-24.94l-85.66-81.57 34.1-35.83c30.52 28.81 60.6 58.14 91.4 86.63 13.82 8.9 28.7-10.57 16.81-21.45zM182 360.1c-1.26 35.55-33.77 66.09-69.35 65-34.7.57-67.82-29.48-67.8-64.61-1.6-18.3 4.32-37.05 16.93-50.59 23.42-27.38 68.71-30.56 95.72-6.68 16.54 13.7 25.96 35.5 24.5 56.88zm-62.96 54.82L194 339.94"/></svg>