<svg xmlns="http://www.w3.org/2000/svg" width="512" height="512"><path d="M489.58 158.25c-33.62-31.73-66.78-64.03-100.69-95.41-9.26-6.15-18.64 2.1-24 9.28L169.9 277c-35.65-26.17-89.09-22.72-120.88 8.1-27.34 25.06-38.18 66.63-25.25 101.51 13.54 41.4 57.9 69.47 101.12 63.87 44.8-4 82.8-43.49 85.17-88.4 1.63-23.47-5.48-47.65-20.24-66.19L382.1 93.9c30.28 28.57 60.1 57.66 90.66 85.9 13.76 8.83 28.74-10.3 16.82-21.55zM48.13 337.95c6.34-24.8 27.6-45.16 52.87-49.74V341H47.4l.73-3.05zm134.6 21.28c-1.2 35.7-34.33 66.15-70 64.36-30.97-.22-59.63-24.14-65.3-54.6 23.25-.19 46.54.37 69.76-.28 15.14-3.98 9.91-21.66 10.84-33.2V288.2c32.78 6.04 57.2 37.89 54.7 71.03zm-63.69 55.69L194 339.94"/></svg>