<svg xmlns="http://www.w3.org/2000/svg" width="512" height="512"><path d="M274.65 216c-13.21.3-26.54-.6-39.68.47-13.3 13.04 11.82 9.55 14.03 13.95.31 21-.63 42.1.47 63.02 11.36 11.45 12.9-8.83 11.53-16.89V228c7.94 1.62 27.33-.64 16.01-11.53zm217.03-79.36c-19.91-22.53-39.08-45.88-59.44-67.91-8.04-3.27-11.91 7.83-17.34 11.62L292.3 209.14c-24.9-20.36-65.5-14.74-83.98 11.58-16.34 21.4-15.2 53.69 2.6 73.9l-95.36 100.2c-17.57-19.75-34.26-40.42-52.37-59.59-16.14-1.16-4.12 15.18 2.26 20.4l41.68 48.07-24.23 25.46c-18.55-20.9-36.21-42.74-55.31-63.05-16.14-1.16-4.12 15.18 2.26 20.4 16.8 18.89 32.74 38.75 50.06 57.04 8.06 2.78 12.32-8.36 18.04-12.6 40.7-42.4 81.27-86.11 122.03-127.7 24.36 19.37 62.97 14.85 82.16-9.78 17.9-21.3 17.5-55.15-.93-76l95.35-100.2c18.63 20.91 36.22 42.94 55.5 63.16 15.92.76 3.8-15.3-2.47-20.52l-44.61-51.47 24.22-25.47c18.63 20.9 36.23 42.92 55.5 63.14 5.77 2.82 11.49-5.1 6.98-9.47zm-190.3 106.5c8.6 26.65-11.73 57.3-39.58 59.85-27.47 4.26-54.9-20.35-52.78-48.24-.54-28.4 29.26-51.57 56.7-44.84 16.84 3.35 31.25 16.7 35.66 33.23zM119.04 414.92L194 339.94"/></svg>