<svg xmlns="http://www.w3.org/2000/svg" width="512" height="512"><path d="M117.12 350.02c10.2-14.9 22.2-28.75 31.22-44.34-.5-22.25-22.62-9.32-27.35 3.5L99 339.6c-.49-13.44 1.01-27.08-.83-40.4-13.48-17.7-23.84 5.86-20.17 19.04v97.44c7.06 23.1 26.7 1.7 21-13.67.5-9.13-1-18.88.71-27.63 4.72-11.64 7.3 5.13 10.82 9.33 6.74 13 12.58 26.5 19.92 39.14 18.15 12.03 21.15-13.82 10.96-24.12-8.1-16.22-16.21-32.55-24.29-48.71zM492.26 167.1c-31.5-36.07-62.6-72.57-94.33-108.39-10.84-7.47-17.75 5.8-24.37 11.92L171.39 283.05c-35.62-28.26-91.1-25.52-123.75 6.12-33.3 29.8-40.41 83.57-16.12 121.05 17.95 29.78 53.46 47.8 87.8 45.04 46.15-1.68 86.59-41.58 89.57-87.56 2.68-24.39-6.1-51-22.29-70.16l204.53-214.9 85.22 98.24c8.82 10.62 25.1-3.67 15.91-13.78zm-305.1 179.94c7.19 37.6-19.19 77.46-56.63 85.49-37.36 9.86-79.31-14.38-89.36-51.7-11.97-36.8 10.15-80.02 46.87-92.06 36.08-13.82 80.36 5.87 94.36 41.87a78.43 78.43 0 0 1 4.76 16.4zm-68.12 67.88L194 339.94"/></svg>