<svg xmlns="http://www.w3.org/2000/svg" width="512" height="512"><path d="M489.83 157.8c-33.68-31.79-66.84-64.18-100.84-95.59-14.04-8.02-22.92 8.53-31.7 16.6L169.46 276.2c-36.12-26.32-90.07-22.27-121.94 9.04-21.06 19.67-32.08 49.16-29.66 77.66 2.44 46.4 43.14 86.55 89.48 88.78 45.55 4.11 90.6-28.92 100.59-73.51 7.23-28.13.28-59.2-17.59-82.11L329.2 150.14c30.16 28.46 59.83 57.5 90.3 85.6 16.98 10.87 31.22-17.09 14.06-26.05l-84.49-80.43 32.8-34.45c30.17 28.46 59.86 57.46 90.32 85.58 14.45 9.25 30.13-10.85 17.64-22.59zM181.7 359.3c-1.25 35.35-34.02 65.53-69.37 63.75-35.95.08-68.91-33.4-65.34-69.74-1.52-37.33 35.1-69.19 71.73-65.6 35.4 1.63 65.28 34.82 62.99 70.22 1.98-4.18-.43 1.9-.01 1.37zm-62.66 55.62L194 339.94"/></svg>