<svg xmlns="http://www.w3.org/2000/svg" width="512" height="512"><path d="M58.76 210H59zm433.94-53.1c-28.87-27.06-56.98-55.1-86.33-81.55-9.16.1-13.51 10.85-20.23 16.15-54.22 56.87-108.5 114.22-162.72 170.76-28.08-23.72-73.2-22.45-99.72 3.08l-46.82-45.2c6.2-1.36 17.3 3.19 19.63-5.18-.09-8.26-11.38-8.98-16.47-13.46-18.86-10.08-37.15-21.6-56.34-30.83-7.26-.38-7.48 9.11-2.85 12.79 13.25 21.13 25.35 43.2 39.29 63.79 4.75 4.43 10.92-3.02 8.95-8.41-2.06-12 1.92-10.03 8.47-2.16l38.35 37.03c-23.64 28.18-21.86 73.23 3.77 99.57 21.78 23.8 58.76 31.35 87.73 17.1a73.44 73.44 0 0 0 17.57-11.33c20.16 19.07 39.6 39.03 60.21 57.53 15.67-.35 2.23-14.94-4.22-19.45l-47.86-46.22c19.39-22.32 24.1-55.4 11.17-81.93a76.5 76.5 0 0 0-12.48-18.72l129.6-136.17c26 24.36 51.31 49.62 77.75 73.43 15.69-.43 2.15-14.96-4.35-19.43l-65.49-62.32 35.22-37c27.46 25.75 54.22 52.4 82.13 77.59 5.77 2.4 10.65-5.46 6.04-9.46zm-429.9 52c-4.19-.12-6.28 4.22-4.98 7.3.86 11.8-5.91-5.75-8.95-8.95-1.44-4.02-13.93-18.68-5.08-12.81l25.72 14.36-6.71.1zm153.1 162.8c-25.8 21.84-68.16 18.04-89.59-8.14-19.88-22.22-20.75-58.57-2.16-81.82l92.5 89.3-.75.63zm16.16-81.36c12.75 22.7 9.77 52.94-7.27 72.65l-92.8-89.62c24.9-23.73 68.47-21.6 90.98 4.38a68.01 68.01 0 0 1 9.09 12.59zM119.04 414.92L194 339.94"/></svg>