<svg xmlns="http://www.w3.org/2000/svg" width="512" height="512"><path d="M492.78 172.02L407.22 90.6c-11.69-9.09-19.8 6.28-27.37 13.1L215.98 275.89C184.46 252 136.11 256 109 284.8c-22 22.12-29.87 57.04-18.4 86.13 11.77 33.12 46.88 56.02 81.78 53.2 40.15-1.25 75.29-36.28 77.22-76.32 1.53-20.35-5.2-41.27-18.02-57.18l122.83-129.06 77.73 74c21.23 11.19 20.82-17.84 5.52-24.5l-68.38-65.11 30.87-32.44 77.77 74c10.07 10.02 25.2-6.43 14.86-15.5zM228.15 345.87c-1.11 33.28-33.5 60.97-66.56 56.76-33.2-2.4-59.53-35.93-54.01-68.75 3.77-32.72 37.6-57.64 69.96-51.33 30.03 4.5 52.8 33.05 50.61 63.32zM68.33 245c-3.62-5.23-3.9-30.48-20.31-17.48-2.75 3.6-3.7 26.25-7.07 14.05 4.08-20.18 10.28-40.1 12.98-60.46-8.77-20.15-24.97-.63-24.26 13.26l-13.52 59.18c-1.72 15.67 15.89 12.16 25.76 12.46 5.65 3.67 2.75 32.33 21.07 18.41 6.75-8.25-2.9-22.3 12.97-21.44 6.92-6.26 1.62-18.5-7.62-17.98zm50.71 169.92L194 339.94"/></svg>