<svg xmlns="http://www.w3.org/2000/svg" width="512" height="512"><path d="M492.26 166.54c-31.44-36.01-62.45-72.45-94.15-108.2-9.52-7.23-17.8 2.78-23.36 9.39L171.53 281.27c-35.9-27.88-91.22-24.9-123.86 6.77-34.74 30.9-40.94 87.61-14.07 125.47 24.84 38.06 78.1 53.31 119.28 34.04 42.43-17.78 67.18-68.66 54.58-112.75a96.16 96.16 0 0 0-19.07-37.51l149.97-157.6c28.71 32.84 56.88 66.2 85.94 98.7 22.06 9.4 20.64-19.05 6.7-27.34l-76.55-88.28 36.14-37.96c28.73 32.83 56.92 66.18 85.99 98.68 10.65 8.4 24.88-7.08 15.68-16.95zm-420 131.48c24.83-17.37 60.28-16.78 84.59 1.27l-43.23 43.23-43.2-43.2c.78.1 1.08-1.33 1.84-1.3zM54 402.16c-18.56-24.9-18.6-61.54.01-86.42l43.2 43.2c-14.4 14.4-28.82 28.8-43.21 43.22zm102.66 16.63c-24.93 18.3-61.43 18.4-86.21-.21l43.2-43.2c14.2 14.46 29.46 28.97 43.01 43.41zm30.54-55.53a73.64 73.64 0 0 1-13.9 38.89l-43.2-43.2 43.2-43.2a74 74 0 0 1 13.9 47.51zm-68.16 51.66L194 339.94"/></svg>