<svg xmlns="http://www.w3.org/2000/svg" width="512" height="512"><path d="M491.82 168.7c-31.97-36.48-63.26-73.7-95.64-109.73-8-3.04-11.73 8.07-17.19 11.8L170.71 289.63c-33.42-29.28-88.02-28.66-120.7 1.48-33.51 28.35-41.08 81.28-17.4 118.07 15.6 25.67 44.46 42.48 74.44 43.7 7.94 2 17.26-1.24 25.83-2.45 42.38-9.4 73.97-51.69 70.85-95.01-1.25-21.35-9.81-42.57-24.81-57.93L334 134.33v127.4c-6.22-4.81-10.33-13.3-17.71-16.05-7.89-.17-6.48 9.64-4.07 14.39 7.86 28.86 14.87 58.06 23.24 86.73 3.52 5.3 10.73 1.95 11.01-4.16 7.83-30.56 16.58-61 23.85-91.64-.48-6.88-9.91-6.59-12.47-1.07-4.34 2.83-13.94 18.3-11.85 5.63V135.37l83.9 96.75c15.74 6.47 7.84-13.2-.16-17.85l-81.7-94.23 45.14-47.42 89.9 103.65c4.86 5.86 13.8-2.04 8.74-7.57zm-311.8 149.06c21.62 33.31 13.47 81.53-17.98 105.81-30.33 25.5-79 23.34-107-4.68-27.23-25.43-33.07-70.15-12.42-101.35 20.83-35.05 69.77-48.47 105.6-29.05a80.98 80.98 0 0 1 31.8 29.27zM334 299l-7.5-28.4c7.42 4.57 8.58 11.74 7.5 19.83V299zm19.5-28.4L346 299c1.03-7.37-2.15-16.48 1.75-22.66l5.75-5.74zM119.04 414.92L194 339.94"/></svg>