<svg xmlns="http://www.w3.org/2000/svg" width="512" height="512"><path d="M80 332.3c13.9 0 13.6-15.5 13-25.5V275c16.4-.2 35.6 2.8 47.2-12 13.6-15 11.8-37 9.1-55.5a38.8 38.8 0 0 0-42.6-29.5c-11.2.9-23.2-2.2-33.6 2.4-10.1 8.2-4.7 22.5-6.1 33.8.2 35.9-.4 71.8.3 107.7A13 13 0 0 0 80 332.3zM93 204c9 1 19.2-2.6 27 2.7 7.4 9.2 5 22.4 4 33.4-4.1 13.3-19.5 7.7-29.8 8.9-3-4-.3-13.4-1.2-19.3V204zm75.1 127.9c13.4 3.5 17.2-11.4 19.2-21.3 2.4-6 1-16.7 10.5-13.6H220c4 10.9 4 23.8 11.6 32.7 15.7 10.3 25.8-10.3 18.2-22.6l-31.8-119c-8.7-20.5-28.7-3.6-28.4 12-10.3 39.5-21.4 78.9-31.3 118.4-.4 6 3.8 12 9.7 13.4zm37.4-89.4l7.7 28.5c-5.3-1.3-19 4-13.8-5.5l6.1-23zm68.2 89.5c20-.8 44 4.5 58.3-13.7a55 55 0 0 0-2.3-71.7c18.5-23.7 5-67.9-27.6-68.6-11.8 1-24.5-2.3-35.6 2.4-9.3 8.6-4.2 22.5-5.5 33.8.2 35.9-.3 71.8.3 107.7 1 5.9 6.5 10.3 12.4 10.1zM287 204c8 .8 19.5-3.2 23 7 6.3 12.2-2.6 29.2-17 25-9.9 3-4.8-9-6-14.8V204zm0 58c10 .5 23.4-3 28.3 9 7.2 13.4.7 38.1-17.8 35-8.8 2-12.7-1.1-10.5-10.2V262zm71.5 68.8c12.2 6.4 19.3-7.2 23.5-16.4l16.7-31.3c8.3 15 15.6 30.7 24.7 45.3 14.3 13.5 30.2-9.4 17.7-21.3l-27.6-51.7c10.5-20.1 21.6-40 31.8-60.2 5.3-17.5-22.6-23-26.2-5.9l-20.4 38.3c-8.9-15.2-15.7-32-25.9-46.3-13.7-11-28.6 10-17 21.3l28 52.8c-10.5 20-21.6 39.9-31.8 60.2a13 13 0 0 0 6.5 15.2zM481.3 101H30.7c-13.8.3-13.2 15.8-12.7 25.8.2 91.2-.3 182.4.3 273.5 3.1 14.6 19.8 10 30.6 10.7h432.4c13.8-.3 13.2-15.8 12.7-25.8-.2-91.2.3-182.4-.3-273.5-1-6-6.3-10.8-12.4-10.7zM470 383H44V127h426v256z"/></svg>