<svg xmlns="http://www.w3.org/2000/svg" width="512" height="512"><path d="M73.8 333c15.9-1 32.6 2.7 47.7-3.4 19.8-10 22.7-33.5 21.5-53.4-.7-22.8 1.6-45.8-1.6-68.4-3.9-19-22.3-32.6-41.5-29.8-11 1-23-2.4-33.2 2.5-9.5 8.6-4.4 22.6-5.7 33.9.2 35.8-.3 71.7.3 107.5 1.1 5.9 6.3 11.1 12.5 11.1zM86 204c9 1.1 19.4-2.6 27.1 2.6 8.3 11.4 3.7 26.4 4.9 39.6-.5 17 1 34.3-1 51.2-3 13.6-18.4 8.7-28.5 9.6-5.7-1.2-1-12.8-2.5-18.1V204zm75.3 127.5c15 3.2 16.6-14.2 19.5-24.5 1-7.7 3-13.8 12-11h20.6c3.8 10.8 4 23.4 10.9 32.6 12.6 10.8 26.5-7 18.7-19.1l-32.3-121c-8.7-20.1-27.8-3.2-27.6 12-10.3 39.4-21.3 78.6-31.2 118.1a12.6 12.6 0 0 0 9.4 13zm37.3-91l8.1 30.5c-4.8-1.6-19.1 4-15.1-4.4l7-26.1zm68-36.5H288c.2 39.3-.3 78.6.3 117.9 3.4 17.4 29.6 9.1 24.7-7V204c10.7-1.3 24.4 4 32.1-5.8 8.3-13.3-7.5-23.3-19.5-20.2-20.5.2-41-.4-61.5.3-14.6 3-12.5 25.7 2.5 25.7zm98.8 127.5c15.1 3.2 16.7-14.2 19.6-24.5.9-7.7 3-13.8 12-11h20.6c3.8 10.8 4 23.4 10.9 32.6 12.6 10.8 26.5-7 18.7-19.1l-32.3-121c-8.6-20.1-27.8-3.2-27.6 12-10.3 39.4-21.3 78.6-31.2 118.1a12.7 12.7 0 0 0 9.3 13zm37.3-91L411 271c-4.8-1.6-19.2 4-15.2-4.4l7-26.1zM480.1 101H30.4c-13.5.4-12.9 15.7-12.4 25.5.2 91-.3 182 .2 273C21.5 414 38 409.2 48.6 410H480c13.7-.3 13.5-15.5 12.9-25.5-.2-91 .4-182-.3-273a13.3 13.3 0 0 0-12.6-10.5zM467 384H43V127h424v257z"/></svg>