<svg xmlns="http://www.w3.org/2000/svg" width="512" height="512"><path d="M228.4 318.6c11.4-28.2-19-65.5-49-52.4-16 6-35.9 34-17 46.5 20.6 9.3 23.3-44.2 40.8-12.3 3.7 10.7-6.1 20-9.2 29.9-13.3 29.2-27.6 58-40.3 87.5-2.1 16.6 16.8 15.8 28 15.2 13.7-.6 27.7 1.3 41-1.1 16.5-7.5 4.5-31-11.3-26h-24.1c13.8-29 27.2-58.4 41.1-87.3zM354.1 236H205c-.2-58.4.4-116.9-.3-175.3-4-18.2-31.8-9.6-26.7 7.7V236c-50.1.2-100.2-.3-150.3.2-14.5 4.3-8.4 21.1-9.7 32.3.2 59.6-.3 119.3.3 179 7.5 22.1 31.6 4.2 25.7-12.8V262h296c.2 63.1-.4 126.2.3 189.3 4 18.2 31.8 9.6 26.7-7.7-.2-66 .3-132-.3-197.9-1-5.9-6.8-9.9-12.6-9.7zm127.1-92H431V91c18.4-.6 37.1 1.2 55.4-1 19.5-11.2-.8-30.2-16.5-25-19.1.5-38.5-1.1-57.4.9-12 6.5-6 21.7-7.5 32.8.2 53.5-.3 107 .3 160.5 7.5 22.2 31.6 4.2 25.7-12.7V170c18.4-.6 37.1 1.2 55.4-1 13.2-5.1 8.8-25.4-5.2-25z"/></svg>