<svg xmlns="http://www.w3.org/2000/svg" width="512" height="512"><path d="M224 239h-85c-.2-33.6.3-67.3-.3-101-3.5-16.8-29.2-9-24.7 6.9V239c-28.8.2-57.7-.3-86.5.3-13.3 3.6-8.7 19.2-9.5 29.4.2 34.3-.3 68.6.3 103 3.5 16.8 29.2 9 24.7-6.9V263h168c.2 37-.3 74 .3 111 3.5 16.8 29.2 9 24.7-6.9-.2-39.4.3-78.8-.2-118.2-1-5.6-6.1-10-11.8-9.9zm95.3-102c-20 .2-40-.3-59.8.2-17 3.2-9 28.6 6.8 23.8 7.5-.8 14.5-1 11.7 8.6.2 29.8-.3 59.5.3 89.2 3.5 17 29.2 9.2 24.7-6.8v-91c9.9-.7 25 3.5 28.3-9.5 1.8-7.5-4.6-14.8-12-14.5zm89 0c-12.7-3.3-16.2 10.9-18 20.2l-13.7 51.3c-6-21.7-11.3-43.5-17.7-65.1-7.6-15.5-30.3-1.3-21.8 12.9l27.6 103.2c8.3 19.4 27 3.3 26.8-11.5 8.6-32.8 17.8-65.5 26-98.4.4-5.7-3.6-11.2-9.1-12.6zm84.8 114.8l-14.4-36c17.4-12 16.9-35.3 13.9-53.7a33.6 33.6 0 0 0-37.6-25c-9.9 1-21.2-2.8-29.6 3.3-6.2 9-2.3 20.9-3.4 31.2.2 29-.4 58.2.2 87.2 3.6 17 29.3 9.2 24.8-6.8v-30c8.7-3 9.3 6 12 12 5.5 10.9 7.5 24 15.8 33 9.8 6.7 23-4.6 18.3-15.2zM469 184.7c1.3 13.5-11.6 13-20.8 12.3-2.9-3.6-.3-12.7-1.2-18.4 1.4-5.2-2.8-16 2.2-17.6 9.2-1.1 21.9-.4 19.8 12.9v10.8z"/></svg>