<svg xmlns="http://www.w3.org/2000/svg" width="512" height="512"><path d="M223.7 239H138c-.2-34 .3-68.2-.3-102.2-3.4-17-29.4-9.2-24.7 6.9V239c-29.3.2-58.7-.3-88 .2-13.8 3.3-9.2 19.2-10 29.6.2 34.7-.3 69.4.3 104 3.4 17.2 29.3 9.3 24.7-6.8V263h171c.2 37.4-.3 74.8.3 112.2 3.4 17 29.4 9.2 24.7-6.9-.2-39.8.3-79.7-.2-119.5-1-5.6-6.4-10-12.1-9.8zm96.2-104c-20 .2-40.3-.3-60.4.3-17 3.4-9.2 29.4 6.9 24.7 7.6-.9 14.4-.9 11.6 8.7.2 30-.3 60.1.3 90.2 3.4 17 29.3 9.1 24.7-7V160c10.2-.7 25.8 3.6 29.1-10a12.6 12.6 0 0 0-12.2-15zm90.1.7c-12.9-3.3-16.4 11-18.3 20.5L377.9 208c-6-21.9-11.4-44-17.9-65.8-7.7-15.7-30.7-1.3-22 13l27.8 104.4c8.4 19.6 27.4 3.3 27.2-11.7 8.6-33.1 18-66.2 26.2-99.4.4-5.8-3.6-11.4-9.2-12.8zm85.6 116l-14.8-36.4c17.6-12.1 16.6-35.6 13.8-54.3a33.5 33.5 0 0 0-37.5-26c-9.9 1.1-21.6-3-29.8 3.8-6 9.7-2.2 22-3.3 33 .2 29-.3 58 .3 87 3.4 17.2 29.3 9.2 24.7-6.8v-31c8.8-3 9.5 6.1 12.2 12.2 5.4 11.1 7.6 24.4 16 33.7 9.7 7 23.2-4.4 18.4-15.2zM471 184c1.4 13.6-11.7 12.7-20.8 12.1-3-3.6-.3-12.9-1.2-18.6 1.6-5.3-3.6-17.3 3.3-17.4 9.8-1.8 21.3 1.4 18.7 14v10z"/></svg>