<svg xmlns="http://www.w3.org/2000/svg" width="512" height="512"><path d="M205.3 398h-28.8c13.1-28.7 27-57 39.6-85.9 7.9-26.1-19.6-58.2-46.8-46.5-20.4 3.9-35.8 50.4-4.4 42.4 4.4-11 18.7-32 27-10.4 3.5 10.3-6 19.2-9 28.7-12.3 27.3-25.7 54.1-37.5 81.6-2.2 16 15.7 15.9 26.7 15.1 12.6-.5 25.4 1.1 37.9-1 12-4.8 8.3-24.2-4.7-24zm128-161H193V75.2c-4.8-24-30.2-6.3-24 11V237H29.4C13 238 17.6 256.1 17 267.2v166c6.8 25.5 31.4 4.3 25-13.5V262h279v174.8c4.8 24 30.2 6.3 24-11v-177c.3-6.4-5.3-12-11.7-11.8zM482.5 76h-89.7c-25.5 6.8-4.3 31.4 13.5 25 5.6 2 19.1-4.2 18.7 3.7v151.8c4.8 24 30.2 6.3 24-11V101c12.7-.5 25.7 1.2 38.3-1 12-5 8.4-24-4.8-24z"/></svg>