<svg xmlns="http://www.w3.org/2000/svg" width="512" height="512"><path d="M211.4 402H181c13.7-29.5 27.8-58.8 41.2-88.4 7.8-26.6-20-59.1-47.7-47.2-20.4 3.9-36.5 50.6-5 42.9 3.6-12.6 20.6-32.3 28.5-10.5 3.8 10.6-6 19.9-9 29.7-12.9 28.1-26.5 56-38.9 84.2-1.6 15.6 16.5 13.4 26.8 13.3 13-.5 26.3 1 39.2-1 12-4.7 8.2-23.3-4.7-23zm132.2-166H198V69.5c-6.7-25.5-30.3-3.8-24 13.6V236H30c-16.4 2.1-11 20.8-12 32.4v170.5c7 25.3 31.4 4.1 25-13.7V260h288v182.5c6.7 25.5 30.3 3.8 24-13.6V248.5c.2-6.2-4.8-12.7-11.4-12.5zM451.1 71c-17 .5-34.2-1.1-51 1-11.5 7-5.8 22-7.2 33.2v151.4c1.6 15.7 19.6 10.5 30.5 11.4 20-.5 44 4 58-14.5 18.1-21.2 11-49.8 12.5-75.2-.8-23.9 1.9-48.1-2-71.8-4.5-18.6-20.7-35.7-40.8-35.5zM469 218a23.7 23.7 0 0 1-29 26h-23V95c13.7 1 28.2-2.2 41.3 2.1 15.9 13 9.3 35 10.7 53V218z"/></svg>