<svg xmlns="http://www.w3.org/2000/svg" width="512" height="512"><path d="M406.4 233H233c-.2-67.8.4-135.6-.3-203.3-4.2-19.8-34.2-10.4-28.7 8.2V233c-58.5.2-117-.4-175.4.3C12.2 237 18 256 17 268.2c.2 69.6-.4 139.2.3 208.8 4.2 19.8 34.2 10.4 28.7-8.2V261h347c.2 73.5-.4 147 .3 220.5 3.9 20 33.4 10 27.7-8.3-.2-76.4.4-153-.3-229.4-1.4-6.5-8-10.9-14.3-10.8zm73.1-198.6c-15.8.2-15.1 17.7-14.5 29 .2 65.3-.4 130.5.3 195.7 4.2 19.8 34.2 10.3 28.7-8.3-.2-68.3.4-136.7-.3-205a14.6 14.6 0 0 0-14.2-11.4z"/></svg>