<svg xmlns="http://www.w3.org/2000/svg" width="512" height="512"><path d="M99.8 314c16-1 36 4.4 46.8-11.3 10.2-15 5.2-33.7 6.4-50.7-.4-16.7 3.2-37-12.3-48.5-11.9-8.8-27.2-4.4-40.9-5.5-13.5 1.6-9 17.2-9.8 26.6V304c-.4 5.4 4.3 10.4 9.8 10.1zm11.2-94c8.3 0 22-2.5 20 11-.3 18.6.6 37.3-.5 55.8-.7 8-17.3 8.1-19.5 4V220zm56 94.6c13.3-.6 11-15.2 11-24.5 1.4-5-2.8-15.6 2.1-17.1 12.5.7 27 0 34.4-12 8.6-12.5 7.6-29.4 4.2-43.5-4.6-14.6-20-21.4-34.3-19.5-9.7.9-24.2-3.7-28.1 8.6a4124 4124 0 0 0 0 99.4c1 5 5.8 8.6 10.7 8.6zm11-94.6c8.2.4 21.7-3.3 21 9.9.5 8.5.8 23.6-11.5 21.1-8.2 2-11.4-1.2-9.5-9.5V220zm229.1-47c-17.6.1-35.3-.3-52.9.2-18 6.5-3.5 26.7 10.6 21.8 9.6-2.9 5.3 8 6.2 13.8.1 24.3-.3 48.6.2 72.9 8 19.2 25.7 1.2 20.8-12.8V195c9.1-.7 22.5 3.4 25.6-8.8 1.5-6.4-3.9-13.3-10.5-13.2zm78.9 1c-13-2.7-14.2 12.1-16.7 21l-11.5 43c-5.3-19.5-10-39-15.7-58.4-10.8-16-26.1 3.5-17.8 15.7l23.2 86.9c8 17.3 24 1.7 23.7-11.3 7.5-28.7 15.6-57.2 22.7-86 .4-4.9-3.2-9.7-7.9-10.9zm-194-23.3c-.7-13.2-15.3-10.6-24.5-10.7-80.3.1-160.6-.3-241 .2-12.7 4-7.4 18.6-8.5 28.5.1 65-.3 129.9.2 194.8 4 12.7 18.6 7.4 28.5 8.5 79-.1 157.9.3 236.8-.2 12.7-4 7.4-18.6 8.5-28.5V150.7zM270 351H39V162h231v189z"/></svg>