<svg xmlns="http://www.w3.org/2000/svg" width="512" height="512"><path d="M100.5 339c14.4 0 14.1-16.1 13.5-26.6v-62.2c12.9 28 24.4 56.6 38.2 84 14 14.2 27.7-5.3 23.8-19.4-.2-44.1.4-88.2-.3-132.3-3.5-18.8-31.9-10-26.7 7.5v70.4c-12.4-27.6-24.3-55.4-37-82.8-12.3-15.9-29.4 2.2-25 17 .2 44.5-.4 89 .3 133.5 1 6.2 6.9 11.1 13.2 11zm110.8-11.3c4.8 20 29.7 10 29-6.8l9.5-35.5c4.7 15.8 7.7 32.2 13.5 47.6 12 15.4 28-1.2 26.8-15.6 7.7-44.2 16-88.2 23.2-132.4-.3-19.2-30-15.8-28.1 2.5L272 261.8c-3.7-12.4-6-25.4-10.8-37.5-13.7-16.3-27.5 3.4-28.3 17.7-1.8 5.4-3.9 17-5.5 18.6-5-26.8-9.2-53.7-14.6-80.4-7-17.8-33.6-4.4-25.5 12.2l24 135.3zM337 199H361c.2 43-.4 86 .3 129 3.5 19 31.9 10.2 26.7-7.4V199c11-1.2 23.9 3.2 33.2-4.2 11.8-12.5-4-27.8-17.9-23.8-23 .2-46.2-.4-69.2.3-16 3.4-13.7 27.6 2.8 27.7zM480.5 87h-449c-14.4.3-14.1 16.4-13.5 27 .2 99.8-.4 199.8.3 299.7 3.3 15.2 20.6 10.6 31.9 11.3h430.3c14.4-.3 14.1-16.4 13.5-26.9-.2-100 .4-200-.3-299.8A13.7 13.7 0 0 0 480.5 87zM467 396H45V115h422v281z"/></svg>