<svg xmlns="http://www.w3.org/2000/svg" width="512" height="512"><path d="M107 319c16.5-1.2 36.4 4.7 48.5-10 12.9-15.7 7.3-36.9 8.5-55.5-.7-18.7 4.1-41.4-12.9-54.7-12.8-9.4-29.3-4.6-44-5.8-13.6.7-11 15.9-11.1 25.3.1 30.5-.3 61.1.2 91.7a11 11 0 0 0 10.8 9zm12-103c8.1.8 21.3-3.7 21.9 8.9 0 21.4.7 43-.4 64.4-1.5 9.5-16.4 7.2-21.5 5.6V216zm61.5 103c12.6 0 12-14.1 11.5-23.1V273c14 .3 30.7 1.3 39.2-12.4 9.1-13.5 7.9-31.6 4.4-46.7-4.7-15.4-21-22.9-36-20.9-10 1.2-23.8-4-29.7 6.9-2 17.7-.4 36-.9 53.9.2 18.7-.3 37.5.2 56.2 1 5.2 6 9.1 11.3 9zM192 216c7.8 1.2 19.6-3.9 22.4 6.7.3 9.3 4 24.8-7.3 28.3-4.8-1.6-17 4-15.1-4.3V216zm290.4-50c-19.1.2-38.3-.3-57.4.2-15.8 3.4-8.2 27.2 6.5 22.8 7.6-.8 14.3-.9 11.5 8.6.2 28.6-.3 57.3.2 85.9 3.4 15.8 27.2 8.2 22.8-6.6V189c9.6-.7 24.4 3.6 27.5-9.2 1.6-6.8-4.1-14-11.1-13.8zM315 141.4c-.2-12.6-14.2-11.8-23.2-11.4-88.2.2-176.5-.3-264.7.2-13 3.4-8.2 18.6-9.1 28.4.2 71-.3 142.2.2 213.3 3.4 13 18.6 8.2 28.4 9.1 86.4-.2 172.9.3 259.3-.2 13-3.4 8.2-18.6 9.1-28.4v-211zM292 359H41V153h251v206z"/></svg>