<svg xmlns="http://www.w3.org/2000/svg" width="512" height="512"><path d="M219 354.6c15.6 0 15.8-17 15-28.5v-85.7l46.4 105.4c11 20.4 33 1 27.6-16-.2-54 .4-108-.3-162.1-4.1-20.2-35-11.1-29.7 8V270c-16-35.9-31.4-72-47.7-107.7-13-17.2-31 2.6-26.3 18.3.2 54-.4 108.1.3 162.1a15 15 0 0 0 14.7 11.8zM479.4 54H32.6C17 54.1 17.3 71.3 18 82.6c.2 121.2-.4 242.4.3 363.6 3.7 16 22.2 11 34.2 11.8h427c15.4-.1 15.2-17.3 14.5-28.5-.2-121.2.4-242.5-.3-363.7-1.2-6.7-7.5-12-14.3-11.8zM465 427H47V84h418v343z"/></svg>