<svg xmlns="http://www.w3.org/2000/svg" width="512" height="512"><path d="M174.3 117c6.4 2 21.8-5 19.7 5.4.2 36-.4 72 .3 107.8 8.2 23.3 34 4.5 27.7-13.6V117c11.2-.8 27.8 4 31.8-10.7 2.5-17.7-17.8-17-29.8-16.3-18.3.6-37-1.3-55 1-14 5.3-9.3 26.5 5.3 26zM293 231c10.2 22.6 30.8 2.3 30.5-14.4 9.7-37.4 20.2-74.5 29.5-112-1.8-24.6-31.3-12.7-29.9 6.2l-16.8 63.1c-7-25.4-13.2-51-20.6-76.2-14-20.5-33.6 4.5-22.9 20.2L292.9 231zM229 272.3c-17 .8-14 19.6-14 31.4-.4 28 .8 56-.7 84-4.2 16-36 .5-31.5 25 5.8 16.7 29.4 12.4 41.5 6.2 22.6-14.2 18.4-42.4 18.7-65.2-.2-23.5.4-47-.3-70.4a14.1 14.1 0 0 0-13.7-11zm96.5 41.1c1.1-22.9-19-45-42.6-41.4-11.8 1-29.7-4.6-33.6 11.3-.5 43-.5 86.2 0 129.2 4.3 16.7 23.4 10.2 36 11.5 27.2 3.4 47-24.9 44.7-50 1.2-21.3-19.4-34-5.1-53.5-1.3 1.7 2.3-8.8.6-7.1zM277 300c16-5.5 28.9 13.8 15.6 26-9.2 2.8-19.7 2.5-15.6-9.9V300zm26 76.7c2 16.2-13 21.8-26 19.3v-41c13.3-2.7 28.7 4 26 20.3v1.4zM496 29.8c-.9-17-19.7-13.6-31.4-13.8-145.9.2-291.8-.4-437.6.3-16.3 5-9.6 23.9-11 36.6.2 144-.4 288 .3 432 5 16.4 23.9 9.7 36.6 11.1 144-.2 288 .4 432-.3 16.4-5 9.7-23.9 11.1-36.6V29.8zM468 470H44V44h424v426z"/></svg>