<svg xmlns="http://www.w3.org/2000/svg" width="512" height="512"><path d="M71.85 212.57c-11.06-1.86-13.98 11.5-19.81 18.22-3.44 10.18-6.93-.09-10.4-4.64-3.98-8.95-16.4-21.6-23.16-7.56-1.08 23.86-.17 47.87-.47 71.79 5.67 20.12 24 2.58 19-11.17v-26.72c2.98 9.46 16.25 15.28 20.92 3.54 4.03-7.66 1.27 8.34 2.08 11.92.91 9.67-2.26 20.37 2.55 29.11 14.2 9.85 16.98-9.83 15.45-19.86-.26-19.52.52-39.11-.4-58.59a8.53 8.53 0 0 0-5.76-6.04zM135 252.52c13.22-17.8-2.9-46.03-24.92-43.51-8.87-.64-23.13-.73-21.07 12.19.03 24.78-.07 49.58.05 74.36 1.98 9.86 13.28 7.25 20.47 7.41 10.6-.28 23.22 2.27 30.02-8.42 10.55-12.22 8.32-32.34-4.55-42.03zM108 228c17.73-4.16 13.32 24.92 0 17.98V228zm18.95 50.83c-1.54 8-14.69 5.66-18.94 4.36.67-5.73-1.35-14.15 1.02-18.19 8.93-.68 21.02 1.62 17.92 13.83zm362.65-30.91l-132.4-79.36c-13.07-6.2-16.96 9.6-15.18 19.26v147.54c2 14.22 17.29 8.53 24.67 2.33 41.55-25.12 83.58-49.56 124.82-75.12 4.25-4.12 3.28-11.8-1.91-14.65zM361 318.72V193.28L465.67 256 361 318.72zM186.03 282c-5.13-1.22-15.24 2.54-17.03-2.03v-58.55c-5.68-20.11-24-2.56-19 11.18.45 20.48-.93 41.15.74 61.51 5.62 9.47 17.85 4.74 26.96 5.89 13.26 4.07 28.08-13.46 8.33-18zm21.47-70c-12.87 1.25-8.85 15.8-9.5 24.67.46 19.11-.94 38.42.75 57.41 11.34 15.43 21.61-4.09 18.25-15.86-.46-20.13.95-40.46-.75-60.47a9.56 9.56 0 0 0-8.75-5.75zm60.15 1c-12.9.91-8.72 15.47-9.38 24.2-.7 3.55 1.62 19-1.4 13.4-6.8-11.93-12.5-24.57-20.03-36.03-13.58-9.14-17.72 8.97-15.83 19.05.46 20.13-.95 40.45.75 60.46 11.34 15.43 21.61-4.09 18.25-15.86v-19.6c7.13 12.73 13.5 25.94 21.12 38.36 12.43 9.77 18.48-7.64 16.11-17.77l-.15-57.32c.2-5.05-4.58-9.11-9.44-8.89zm39.05 0c-8.08 1.03-18.95-3.14-24.06 5.05-1.46 24-.24 48.25-.64 72.35.72 13 15.31 8.96 24.05 9.6 20.65 1.8 30.74-21.4 31.2-38.9 1.56-19.76-7.31-47.07-30.55-48.1zm2.76 69c-8.63 2.43-9.6-2.81-8.46-10.16V232c15.74-2.36 18.74 19.22 17.25 30.78-1.06 6.7-2.37 15.63-8.79 19.22z"/></svg>