<?xml version="1.0" encoding="UTF-8" standalone="no"?>
<svg
   xmlns:dc="http://purl.org/dc/elements/1.1/"
   xmlns:cc="http://creativecommons.org/ns#"
   xmlns:rdf="http://www.w3.org/1999/02/22-rdf-syntax-ns#"
   xmlns:svg="http://www.w3.org/2000/svg"
   xmlns="http://www.w3.org/2000/svg"
   xmlns:sodipodi="http://sodipodi.sourceforge.net/DTD/sodipodi-0.dtd"
   xmlns:inkscape="http://www.inkscape.org/namespaces/inkscape"
   width="512"
   height="512"
   viewBox="0 0 512 512"
   version="1.1"
   id="svg4"
   sodipodi:docname="check velve.svg"
   inkscape:version="0.92.1 r15371">
  <metadata
     id="metadata10">
    <rdf:RDF>
      <cc:Work
         rdf:about="">
        <dc:format>image/svg+xml</dc:format>
        <dc:type
           rdf:resource="http://purl.org/dc/dcmitype/StillImage" />
      </cc:Work>
    </rdf:RDF>
  </metadata>
  <defs
     id="defs8" />
  <sodipodi:namedview
     pagecolor="#ffffff"
     bordercolor="#666666"
     borderopacity="1"
     objecttolerance="10"
     gridtolerance="10"
     guidetolerance="10"
     inkscape:pageopacity="0"
     inkscape:pageshadow="2"
     inkscape:window-width="640"
     inkscape:window-height="493"
     id="namedview6"
     showgrid="false"
     inkscape:zoom="0.4609375"
     inkscape:cx="256"
     inkscape:cy="256"
     inkscape:window-x="0"
     inkscape:window-y="0"
     inkscape:window-maximized="0"
     inkscape:current-layer="svg4" />
  <path
     d="M 381.12,465.63 C 349.04667,336.42 316.97333,207.21 284.9,78 c 26.22971,-0.140602 52.48651,0.281764 78.69922,-0.212122 19.96296,-7.474616 24.9703,-36.447458 11.47922,-52.216347 C 367.03591,12.760944 351.08472,18.128436 338.64571,17 275.03415,17.141651 211.39533,16.716851 147.80078,17.212122 128.86058,24.250826 123.03801,51.349908 134.79875,67.20125 139.75292,78.070666 151.67403,78.767424 161.91891,78 c 22.63703,0 45.27406,0 67.91109,0 -33.66745,131.52287 -67.69851,262.96346 -101.13865,394.53777 -2.38447,14.35371 12.33698,24.90509 25.6328,22.47223 69.95537,-0.0665 139.91676,0.13301 209.86836,-0.0998 C 378.24232,494.41865 388.39146,478.00977 381.12,465.63 Z M 177.64,465 c 26.5,-104.23333 53,-208.46667 79.5,-312.7 25.62,104.23333 51.24,208.46667 76.86,312.7 -52.12,0 -104.24,0 -156.36,0 z"
     id="path2"
     inkscape:connector-curvature="0" />
</svg>
