<?xml version="1.0" encoding="UTF-8" standalone="no"?>
<svg
   xmlns:dc="http://purl.org/dc/elements/1.1/"
   xmlns:cc="http://creativecommons.org/ns#"
   xmlns:rdf="http://www.w3.org/1999/02/22-rdf-syntax-ns#"
   xmlns:svg="http://www.w3.org/2000/svg"
   xmlns="http://www.w3.org/2000/svg"
   xmlns:sodipodi="http://sodipodi.sourceforge.net/DTD/sodipodi-0.dtd"
   xmlns:inkscape="http://www.inkscape.org/namespaces/inkscape"
   width="512"
   height="512"
   viewBox="0 0 512 512"
   version="1.1"
   id="svg6"
   sodipodi:docname="emergency exit luminair with pitogram.svg"
   inkscape:version="0.92.1 r15371">
  <metadata
     id="metadata12">
    <rdf:RDF>
      <cc:Work
         rdf:about="">
        <dc:format>image/svg+xml</dc:format>
        <dc:type
           rdf:resource="http://purl.org/dc/dcmitype/StillImage" />
      </cc:Work>
    </rdf:RDF>
  </metadata>
  <defs
     id="defs10" />
  <sodipodi:namedview
     pagecolor="#ffffff"
     bordercolor="#666666"
     borderopacity="1"
     objecttolerance="10"
     gridtolerance="10"
     guidetolerance="10"
     inkscape:pageopacity="0"
     inkscape:pageshadow="2"
     inkscape:window-width="640"
     inkscape:window-height="493"
     id="namedview8"
     showgrid="false"
     inkscape:zoom="0.4609375"
     inkscape:cx="256"
     inkscape:cy="256"
     inkscape:window-x="0"
     inkscape:window-y="0"
     inkscape:window-maximized="0"
     inkscape:current-layer="svg6" />
  <path
     d="m 114.42,334 c 16.96841,-0.65931 34.29822,1.40713 51.01094,-1.20469 17.66252,-7.60999 5.95384,-33.82062 -11.41907,-28.79531 -8.00396,0 -16.00791,0 -24.01187,0 0,-13.66667 0,-27.33333 0,-41 11.61117,-0.61359 29.10988,3.76723 32.81141,-11.55137 C 165.82314,235.92648 148.61271,232.37151 136.98373,234 126.72596,237.36335 130.65295,226.54194 130,220.30048 129.16841,212.32439 129.01657,205.02805 139.13302,208 c 11.68805,-1.1092 27.93911,4.32238 34.11229,-9.23906 6.15811,-15.40729 -11.13286,-23.39332 -23.79995,-20.76094 -13.54029,0.55526 -27.3681,-1.21579 -40.69567,1.09531 -13.106148,6.19046 -7.55287,22.27944 -8.74969,33.75398 0.18918,36.59236 -0.379606,73.22158 0.28656,109.79075 1.16095,6.60355 7.48343,11.5335 14.13344,11.35996 z m 72.38,-1.34 c 13.09778,6.99675 21.37532,-7.00063 25.78106,-17.12972 5.03631,-9.44009 10.07263,-18.88019 15.10894,-28.32028 7.94009,14.15404 14.69666,29.04815 23.42188,42.71125 15.49691,15.05792 33.98023,-9.80502 20.27415,-23.15486 C 262.36069,289.84759 253.33534,272.9288 244.31,256.01 c 10.39022,-19.89054 21.48728,-39.44831 31.43008,-59.54949 5.96277,-19.25754 -24.85356,-25.98274 -29.18035,-7.03195 -6.29324,11.79048 -12.58649,23.58096 -18.87973,35.37144 -8.46403,-14.47676 -14.73092,-30.5099 -24.72938,-43.90313 -14.93791,-12.18151 -32.11183,10.59934 -19.50398,23.34947 9.20445,17.25456 18.40891,34.50911 27.61336,51.76366 -10.39071,19.89046 -21.4865,39.44886 -31.4309,59.54951 -2.03377,6.48699 1.12312,14.0342 7.1709,17.10049 z m 108.7,1.72 c 14.81787,-0.006 15.31829,-16.30089 14.5,-27.2379 -0.19221,-39.26148 0.38553,-78.56074 -0.29082,-117.79847 -3.67679,-19.85166 -33.89489,-11.15824 -28.70918,7.52288 0.19241,41.92527 -0.38581,83.88835 0.29082,125.78986 1.20201,6.63582 7.43584,11.8626 14.20918,11.72363 z M 329.63,208 c 5.38237,1.50204 16.79999,-3.03116 18.37,2.28325 0.20523,37.45238 -0.41241,74.9481 0.3123,112.37312 4.01819,19.72633 34.64379,11.39055 29.6877,-7.52288 0,-35.71116 0,-71.42233 0,-107.13349 11.38526,-0.9833 27.21477,4.06544 33.10531,-9.23906 6.15606,-15.40443 -11.13402,-23.39353 -23.79995,-20.76094 -20.2057,0.20218 -40.45419,-0.40839 -60.63259,0.3123 C 309.65976,181.68365 312.2014,208.09833 329.63,208 Z M 480.6,100 c -149.73333,0 -299.46667,0 -449.2,0 -14.800185,0.24961 -15.164953,16.65997 -14.4,27.6379 0.19049,90.74732 -0.381328,181.53128 0.286523,272.25565 C 20.20439,415.08676 37.181289,411.71761 48.524404,412 192.5496,412 336.5748,412 480.6,412 495.40019,411.75039 495.76495,395.34003 495,384.3621 494.80951,293.61478 495.38133,202.83082 494.71348,112.10645 493.53233,105.46217 487.48607,99.879398 480.6,100 Z M 466,382 c -140,0 -280,0 -420,0 0,-84 0,-168 0,-252 140,0 280,0 420,0 0,84 0,168 0,252 z"
     id="path4"
     inkscape:connector-curvature="0" />
</svg>
