<?xml version="1.0" encoding="UTF-8" standalone="no"?>
<svg
   xmlns:dc="http://purl.org/dc/elements/1.1/"
   xmlns:cc="http://creativecommons.org/ns#"
   xmlns:rdf="http://www.w3.org/1999/02/22-rdf-syntax-ns#"
   xmlns:svg="http://www.w3.org/2000/svg"
   xmlns="http://www.w3.org/2000/svg"
   xmlns:sodipodi="http://sodipodi.sourceforge.net/DTD/sodipodi-0.dtd"
   xmlns:inkscape="http://www.inkscape.org/namespaces/inkscape"
   width="512"
   height="512"
   viewBox="0 0 512 512"
   version="1.1"
   id="svg4"
   sodipodi:docname="fire hose reel.svg"
   inkscape:version="0.92.1 r15371">
  <metadata
     id="metadata10">
    <rdf:RDF>
      <cc:Work
         rdf:about="">
        <dc:format>image/svg+xml</dc:format>
        <dc:type
           rdf:resource="http://purl.org/dc/dcmitype/StillImage" />
      </cc:Work>
    </rdf:RDF>
  </metadata>
  <defs
     id="defs8" />
  <sodipodi:namedview
     pagecolor="#ffffff"
     bordercolor="#666666"
     borderopacity="1"
     objecttolerance="10"
     gridtolerance="10"
     guidetolerance="10"
     inkscape:pageopacity="0"
     inkscape:pageshadow="2"
     inkscape:window-width="638"
     inkscape:window-height="493"
     id="namedview6"
     showgrid="false"
     inkscape:zoom="0.4609375"
     inkscape:cx="256"
     inkscape:cy="256"
     inkscape:window-x="0"
     inkscape:window-y="0"
     inkscape:window-maximized="0"
     inkscape:current-layer="svg4" />
  <path
     d="m 352.38,295.44 c 6.92896,-7.40245 14.91013,-13.94385 21.155,-21.90609 0.89651,-16.45645 -15.60979,-5.59328 -20.39662,2.04771 -6.59545,8.74485 -12.96619,13.22098 -20.77502,1.95816 C 288.02754,244.68793 221.37599,248.85819 181.47,286.97 c -7.75544,-7.29559 -14.66493,-15.62772 -22.98312,-22.23375 -16.4445,-0.89123 -5.58087,15.61265 2.05026,20.39985 6.10137,6.39454 16.78419,12.31503 4.96817,19.74917 -33.29481,43.88885 -29.90834,110.4296 7.59469,150.76473 -7.6702,8.15658 -16.41714,15.43283 -23.39937,24.15187 -0.8986,16.48312 15.58295,5.59595 20.38313,-2.04136 5.5533,-2.93318 10.64882,-17.2537 16.6348,-9.08036 42.61475,36.29767 110.64792,35.96867 152.91079,-0.73461 5.60339,-2.34307 10.6605,8.93339 16.03299,12.34697 4.70694,11.75127 26.11604,9.08504 14.83739,-4.28278 -6.39324,-6.39324 -12.78649,-12.78649 -19.17973,-19.17973 38.79703,-40.57076 42.30365,-108.76676 7.84312,-153.084 -2.13667,-2.86707 -4.41277,-5.63458 -6.78312,-8.306 z M 192.2,436.52 c -29.75903,-32.96436 -30.23997,-87.29685 -1.02,-120.75 20.3,20.3 40.6,40.6 60.9,60.9 -19.96098,19.94764 -39.91414,39.91414 -59.88,59.85 z m 140.03,1.2 c -20.35667,-20.35333 -40.71333,-40.70667 -61.07,-61.06 20.7,-20.7 41.4,-41.4 62.1,-62.1 30.67552,34.04 30.16731,89.69147 -1.03,123.16 z M 126.7,61 c 14.76667,0 29.53333,0 44.3,0 0.77419,9.326563 -1.7261,19.377198 1.605,28.1575 C 185.20956,96.249708 183.07695,77.620937 183,70.037392 180.30908,60.656416 186.16948,59.826757 194.03278,61 c 6.84406,0.05266 16.14532,-2.351884 12.96722,7.722943 0.92707,7.927928 -3.7559,21.168993 8,22.407057 11.93401,-1.409291 6.96307,-15.135672 8,-23.299163 C 222.59723,59.60099 226.09167,45.679256 213.29672,46 184.43115,46 155.56557,46 126.7,46 c -8.80561,0.428941 -8.79706,14.5557 0,15 z m 0,81 c -16.28592,6.86154 1.84281,17.8544 12.14605,14 26.04171,-0.37532 52.24487,0.75346 78.18489,-0.56922 C 229.27501,144.25691 210.17881,139.86131 201.16067,142 195.7528,140.61879 184.75455,144.82797 183,139.79344 c 0,-8.26448 0,-16.52896 0,-24.79344 11.32699,-0.30717 22.76936,0.62799 34.02094,-0.49109 12.237,-10.84773 -7.31382,-14.39484 -15.87027,-12.50891 -25.67614,0.32385 -51.47319,-0.65011 -77.07317,0.49109 -12.24815,10.83834 7.30633,14.39868 15.86183,12.50891 10.35356,0 20.70711,0 31.06067,0 0,9 0,18 0,27 -14.76667,0 -29.53333,0 -44.3,0 z m 64.1,79.53 c 19.13388,0.80701 34.45452,-17.56025 32.2,-35.80622 1.84737,-9.2334 -1.42774,-19.55627 -13.01311,-16.72378 -28.6225,0.27302 -57.3309,-0.54761 -85.89939,0.41297 -12.21818,10.46766 7.749,13.22615 15.86183,11.58703 5.91785,0.80013 14.99758,-1.56161 19.05067,1.10328 0.0644,6.75989 2.03263,14.80055 -7.15355,15.33713 -9.78831,4.32518 -20.18196,7.50099 -29.56348,12.5985 -7.58796,14.13217 11.14254,11.76028 18.27817,6.36834 7.84629,-3.23242 15.69257,-6.46483 23.53886,-9.69725 5.34485,9.32202 16.0796,14.97028 26.7,14.82 z M 173,181 c 11.33333,0 22.66667,0 34,0 0.71731,10.51628 0.51311,25.09169 -13.15918,26.73277 C 176.99201,211.17626 172.15568,193.96383 173,181 Z m 90.87,-93 c 22.48,0 44.96,0 67.44,0 10.31154,-3.080949 5.63944,-15.789144 6.7,-23.85 -7.81215,-17.891648 -13.17615,4.695955 -15.20656,8.85 -17.26448,0 -34.52896,0 -51.79344,0 -0.35452,-8.555946 -0.14167,-16.740078 2.5577,-24.692187 C 278.8771,30.400071 299.22233,31.678742 314.15589,32 c 12.4647,0 24.92941,0 37.39411,0 12.7429,-4.146343 28.81322,9.159212 27.47,23.096555 0.87671,9.783347 -1.96414,20.48522 1.8475,29.567195 C 393.80068,91.950721 392.35477,73.464914 392.02,65.547392 392.81058,50.737658 391.79496,33.720856 377.73671,24.907334 358.10648,11.837463 334.17869,17.092188 311.84201,15.99 291.90249,14.427398 268.03032,20.369438 260.57125,41.327402 255.77307,49.989607 255.50477,59.489537 256,69.429163 256.21446,76.35924 253.99955,86.711303 263.87,88 Z m 123.75,64.25 c -40.46667,-14.99333 -80.93333,-29.98667 -121.4,-44.98 -17.67883,0.63713 -4.0662,16.88178 6.68027,16.87582 37.49623,13.59927 74.70186,28.25572 112.37973,41.19418 7.2793,0.27081 9.3866,-10.77178 2.34,-13.09 z m -24.79,35.09 c -16.59776,-6.14351 -10.19234,14.44421 -0.26485,18.62946 10.54988,6.89592 -1.5694,4.81387 -7.88448,5.03054 -31.14073,0.22158 -62.33761,-0.44368 -93.44317,0.33344 -12.16983,10.04691 8.16593,12.06134 15.86183,10.66656 36.06022,0 72.12045,0 108.18067,0 14.83946,-2.82347 -0.16603,-15.37357 -6.10863,-19.98596 C 373.72341,197.12488 368.28222,192.21803 362.83,187.34 Z"
     id="path2"
     inkscape:connector-curvature="0" />
</svg>
