<?xml version="1.0" encoding="UTF-8" standalone="no"?>
<svg
   xmlns:dc="http://purl.org/dc/elements/1.1/"
   xmlns:cc="http://creativecommons.org/ns#"
   xmlns:rdf="http://www.w3.org/1999/02/22-rdf-syntax-ns#"
   xmlns:svg="http://www.w3.org/2000/svg"
   xmlns="http://www.w3.org/2000/svg"
   xmlns:sodipodi="http://sodipodi.sourceforge.net/DTD/sodipodi-0.dtd"
   xmlns:inkscape="http://www.inkscape.org/namespaces/inkscape"
   width="512"
   height="512"
   viewBox="0 0 512 512"
   version="1.1"
   id="svg4"
   sodipodi:docname="fire hydrent.svg"
   inkscape:version="0.92.1 r15371">
  <metadata
     id="metadata10">
    <rdf:RDF>
      <cc:Work
         rdf:about="">
        <dc:format>image/svg+xml</dc:format>
        <dc:type
           rdf:resource="http://purl.org/dc/dcmitype/StillImage" />
      </cc:Work>
    </rdf:RDF>
  </metadata>
  <defs
     id="defs8" />
  <sodipodi:namedview
     pagecolor="#ffffff"
     bordercolor="#666666"
     borderopacity="1"
     objecttolerance="10"
     gridtolerance="10"
     guidetolerance="10"
     inkscape:pageopacity="0"
     inkscape:pageshadow="2"
     inkscape:window-width="640"
     inkscape:window-height="493"
     id="namedview6"
     showgrid="false"
     inkscape:zoom="0.4609375"
     inkscape:cx="256"
     inkscape:cy="256"
     inkscape:window-x="0"
     inkscape:window-y="0"
     inkscape:window-maximized="0"
     inkscape:current-layer="svg4" />
  <path
     d="m 313,348.76 c 13.68146,4.43604 5.75961,-11.61704 -1.24637,-15.07724 -16.53993,-10.28946 12.51338,-22.86252 11.34696,-37.33685 10.33242,-29.12012 3.41386,-63.42806 -17.43059,-86.24591 4.9607,-6.0417 12.76965,-10.40997 15.675,-17.68 -4.05777,-11.44249 -13.26619,1.89042 -17.97416,6.19239 -9.47483,11.44151 -21.58607,-14.66094 -34.71092,-12.98759 -29.38463,-10.2386 -63.92464,-2.93483 -86.61992,18.3652 -6.31635,-5.21382 -10.94788,-13.29474 -18.49,-16.455 -11.44002,4.05531 1.88756,13.26904 6.18301,17.98352 13.47106,9.55806 -13.06878,21.86663 -11.52468,35.21338 -9.88391,28.91205 -2.84471,62.71597 17.76167,85.2781 -5.48986,6.58955 -13.86371,11.47973 -17.295,19.3 4.05553,11.46083 13.25778,-1.90708 17.97381,-6.20273 9.92404,-15.14413 22.3956,12.73501 36.33483,11.37386 28.65075,9.97379 62.23378,3.32517 84.89636,-16.85113 5.04,5.04333 10.08,10.08667 15.12,15.13 z m -72.18,-148.2 c 13.84583,-0.013 40.4466,6.60101 41.87405,18.69595 C 268.4627,233.4873 254.23135,247.71865 240,261.95 c -14.72333,-14.72 -29.44667,-29.44 -44.17,-44.16 12.19223,-11.0272 28.58293,-17.3368 44.99,-17.23 z m -67.5,67.5 c 0.0207,-13.45144 6.23604,-39.74471 17.9557,-41.0238 13.94143,13.9446 27.88287,27.8892 41.8243,41.8338 -14.43333,14.43333 -28.86667,28.86667 -43.3,43.3 -10.56201,-12.08866 -16.55587,-28.08542 -16.48,-44.11 z m 67.5,67.5 c -13.85817,0.0137 -40.45975,-6.62619 -41.89405,-18.72595 C 212.6173,303.1427 226.30865,289.45135 240,275.76 c 14.68667,14.68667 29.37333,29.37333 44.06,44.06 -11.98438,10.10071 -27.58051,15.78444 -43.24,15.74 z m 6.1,-66.7 c 14.97333,-14.97333 29.94667,-29.94667 44.92,-44.92 22.11789,24.42092 21.77017,65.03884 -0.73,89.1 -14.7243,-14.7243 -29.49416,-29.46748 -44.19,-44.18 z M 155.43,49 c 9.52333,0 19.04667,0 28.57,0 1.12736,6.898429 -2.75782,16.099839 3.07969,21.057187 10.61374,1.169281 5.88285,-12.659046 6.92031,-19.187694 2.34186,-4.227465 12.41644,-0.7222 17.83847,-1.869493 2.99136,3.73039 -0.0765,12.814078 1.48497,18.461562 9.31592,9.22469 9.43452,-8.211544 8.67656,-14.493425 C 223.19187,45.454228 221.89639,36.221195 211.99339,39 192.52084,39.263079 172.93824,38.470782 153.53531,39.401562 148.67313,41.423785 150.18591,49.034282 155.43,49 Z m 61.81,69 c 12.80949,-6.62264 -4.03021,-12.57666 -11.54254,-10 -6.43994,0.0924 -14.74942,2.05428 -11.69746,-7.34525 1.25851,-5.041941 -3.73859,-16.339495 5.24661,-13.65475 7.06845,-0.762748 15.00013,1.667659 21.44589,-1.4875 5.27895,-11.075176 -10.63971,-8.286245 -17.09368,-8.5125 -16.67453,0.261476 -33.45854,-0.527064 -50.06351,0.401563 -9.37163,9.778066 7.76216,10.629339 14.49655,9.598437 4.7394,1.63264 16.30788,-3.563808 15.96814,3.147966 -0.78386,5.516591 1.51643,14.117334 -1.04932,17.852034 -9.79331,0.2689 -19.69896,-0.53788 -29.42224,0.40156 -9.3402,9.79086 7.7594,10.62455 14.49342,9.59844 16.40605,0 32.81209,0 49.21814,0 z m 48.78,-51 c 16.85351,-0.314142 33.80432,0.650057 50.5925,-0.5225 C 318.30226,60.862038 320.55458,49.032316 314,46.03 307.70635,50.230528 312.42241,60.972013 300.5561,57 290.70407,57 280.85203,57 271,57 c 0.43128,-9.800871 -2.85192,-22.962986 8.74719,-27.771875 7.54737,-2.13875 16.25023,0.837876 24.78264,-0.228125 8.37606,-0.398145 16.99691,0.800427 25.21892,-0.6025 12.41316,-3.646205 20.26506,11.784314 18.26125,22.787075 0.28797,5.958124 -2.56313,21.218993 7.7625,16.192925 2.56405,-8.822401 0.73427,-18.729493 1.17048,-27.984634 C 355.07229,22.379514 336.57464,12.84121 320.85271,16 307.61963,16.459929 294.19873,15.037794 281.16448,16.759819 266.13709,20.250997 259.21641,35.944168 261.03,50.135253 262.38041,55.343729 257.33421,67.528379 266.02,67 Z m 87.92,49.3 c -29.40015,-10.82427 -58.53719,-22.632967 -88.10234,-32.839844 -12.13412,5.760656 3.72196,12.448293 10.25323,13.885696 25.40001,9.371888 50.58324,19.516628 76.11911,28.404148 5.43882,0.14979 6.6851,-7.80269 1.73,-9.45 z M 261.15,162 c 2.4621,8.64497 13.85126,3.68354 20.61983,5 23.96905,-0.18883 48.00806,0.37614 71.93376,-0.27969 8.98118,-7.62521 -5.61173,-13.57619 -10.41174,-18.90679 -3.92907,-7.98859 -21.10658,-9.517 -12.9022,2.05592 6.44892,4.74504 11.19372,8.86387 -0.0142,7.12056 -22.06487,0.26904 -44.24206,-0.5373 -66.23698,0.40156 -1.79023,0.774 -2.99478,2.6688 -2.98844,4.60844 z M 359,399.4 c -0.97598,-6.26946 3.48249,-19.65137 -6.67797,-18.4 -28.37509,0.26479 -56.84847,-0.52881 -85.16234,0.39531 -7.48346,4.0936 -2.89224,14.30457 -4.15969,21.35384 1.33325,14.06517 13.84077,25.81121 28.07,27.05085 7.30682,4.37777 16.89043,1.26153 25.21644,2.2 9.99338,0.94936 18.86532,-1.31001 28.0784,-4.74828 C 353.58713,424.12694 366.8176,407.79214 359,399.4 Z m -28.73,20.85 c -5.47248,2.59895 -13.35402,1.6028 -20.38915,1.75 -11.24191,-0.21986 -22.03288,-1.34765 -31.25905,-9.38428 -2.63883,-4.2702 -8.19921,-22.4043 0.57549,-21.61572 23.26757,0 46.53514,0 69.80271,0 -1.77277,9.49733 5.30153,19.78126 -5.37625,25.4275 -3.91503,2.62591 -8.70133,3.83312 -13.35375,3.8225 z m 25.2,34.75 c 12.84569,-6.61444 -4.02357,-12.57735 -11.54254,-10 -25.50154,0.26982 -51.11632,-0.53833 -76.54746,0.40156 -9.31764,9.79715 7.77044,10.62178 14.50186,9.59844 10.37272,0 20.74543,0 31.11814,0 0,10.33333 0,20.66667 0,31 -15.1936,0.26396 -30.49774,-0.53052 -45.62156,0.40156 -9.33592,9.78733 7.76115,10.62643 14.49342,9.59844 25.15517,-0.26984 50.42301,0.53835 75.50814,-0.40156 9.32313,-9.79828 -7.76847,-10.62112 -14.50186,-9.59844 -6.62605,0 -13.25209,0 -19.87814,0 0,-10.33333 0,-20.66667 0,-31 10.82333,0 21.64667,0 32.47,0 z"
     id="path2"
     inkscape:connector-curvature="0" />
</svg>
