<?xml version="1.0" encoding="UTF-8" standalone="no"?>
<svg
   xmlns:dc="http://purl.org/dc/elements/1.1/"
   xmlns:cc="http://creativecommons.org/ns#"
   xmlns:rdf="http://www.w3.org/1999/02/22-rdf-syntax-ns#"
   xmlns:svg="http://www.w3.org/2000/svg"
   xmlns="http://www.w3.org/2000/svg"
   xmlns:sodipodi="http://sodipodi.sourceforge.net/DTD/sodipodi-0.dtd"
   xmlns:inkscape="http://www.inkscape.org/namespaces/inkscape"
   width="512"
   height="512"
   viewBox="0 0 512 512"
   version="1.1"
   id="svg8"
   sodipodi:docname="flood any type.svg"
   inkscape:version="0.92.1 r15371">
  <metadata
     id="metadata14">
    <rdf:RDF>
      <cc:Work
         rdf:about="">
        <dc:format>image/svg+xml</dc:format>
        <dc:type
           rdf:resource="http://purl.org/dc/dcmitype/StillImage" />
      </cc:Work>
    </rdf:RDF>
  </metadata>
  <defs
     id="defs12" />
  <sodipodi:namedview
     pagecolor="#ffffff"
     bordercolor="#666666"
     borderopacity="1"
     objecttolerance="10"
     gridtolerance="10"
     guidetolerance="10"
     inkscape:pageopacity="0"
     inkscape:pageshadow="2"
     inkscape:window-width="640"
     inkscape:window-height="493"
     id="namedview10"
     showgrid="false"
     inkscape:zoom="0.4609375"
     inkscape:cx="256"
     inkscape:cy="256"
     inkscape:window-x="0"
     inkscape:window-y="0"
     inkscape:window-maximized="0"
     inkscape:current-layer="svg8" />
  <path
     d="m 245.55,201.2 c -11.42138,-9.20582 -19.73898,6.00439 -27.47076,12.53762 -9.10975,9.10746 -18.21949,18.21492 -27.32924,27.32238 -14.59969,-13.88739 -27.89694,-29.36559 -43.36438,-42.19312 -21.58068,-3.18319 -13.34696,20.59265 -1.40678,27.27699 9.94705,9.95204 19.89411,19.90409 29.84116,29.85613 -13.88643,14.59674 -29.36722,27.88833 -42.19172,43.35438 -3.17918,21.58366 20.60996,13.35129 27.29307,1.40427 9.94622,-9.94622 19.89243,-19.89243 29.83865,-29.83865 14.59787,13.88771 27.89693,29.36106 43.36,42.1925 21.57472,3.1896 13.36022,-20.61661 1.40488,-27.29008 C 225.57658,275.88162 215.62829,265.94081 205.68,256 c 13.88537,-14.60164 29.36291,-27.90063 42.1875,-43.37016 1.60349,-3.82156 0.65386,-8.56385 -2.3175,-11.42984 z M 393,443.44 c -16.2581,-22.10388 -31.40593,-45.19557 -48.35,-66.69 -4.81179,-3.74578 -11.97684,-1.94441 -15.43,2.79 -11.17106,-10.49173 -21.07209,-22.53478 -33.11016,-31.9675 -21.58578,-3.18748 -13.35277,20.59481 -1.41356,27.28392 6.5379,6.54453 13.07581,13.08905 19.61372,19.63358 -7.69227,5.39022 -5.1101,17.28181 3.458,20.48857 C 355.12238,441.61636 392.4309,468.37815 429.77,495 417.51333,477.81333 405.25667,460.62667 393,443.44 Z M 148.52,332.7 c -36.87304,-19.41695 -54.967905,-66.99203 -40.29,-106 7.05964,-20.07474 21.75025,-37.25796 40.4,-47.48 15.80936,-13.11335 -7.4798,-26.04229 -17.7,-13.95 -39.393579,25.08365 -58.435697,77.21774 -44.312771,121.76309 8.286546,27.7378 28.043911,52.42313 54.201521,65.10441 11.62683,3.19717 18.54689,-13.77172 7.70125,-19.4375 z M 292.1,165.2 c 11.39856,-3.21641 17.79574,-14.94388 26.70351,-22.33 4.43783,-2.3059 8.64406,-13.79659 13.20649,-7.78 6.71616,5.87557 15.06048,-0.0585 18.43572,-7.05 C 376.88381,91.026665 403.32191,54.013332 429.76,17 c -39.18171,28.203224 -78.86717,55.809931 -117.71,84.42 -4.31183,4.71527 -2.75191,12.47236 2.24,16.07 -10.49464,11.17833 -22.53411,21.09163 -31.97313,33.13438 -2.96263,6.70512 2.57161,14.71968 9.78313,14.57562 z m 137.55,329.78 0.1,0.03 -0.05,-0.02"
     id="path6"
     inkscape:connector-curvature="0" />
</svg>
