<?xml version="1.0" encoding="UTF-8" standalone="no"?>
<svg
   xmlns:dc="http://purl.org/dc/elements/1.1/"
   xmlns:cc="http://creativecommons.org/ns#"
   xmlns:rdf="http://www.w3.org/1999/02/22-rdf-syntax-ns#"
   xmlns:svg="http://www.w3.org/2000/svg"
   xmlns="http://www.w3.org/2000/svg"
   xmlns:sodipodi="http://sodipodi.sourceforge.net/DTD/sodipodi-0.dtd"
   xmlns:inkscape="http://www.inkscape.org/namespaces/inkscape"
   width="512"
   height="512"
   viewBox="0 0 512 512"
   version="1.1"
   id="svg6"
   sodipodi:docname="flood enclosed.svg"
   inkscape:version="0.92.1 r15371">
  <metadata
     id="metadata12">
    <rdf:RDF>
      <cc:Work
         rdf:about="">
        <dc:format>image/svg+xml</dc:format>
        <dc:type
           rdf:resource="http://purl.org/dc/dcmitype/StillImage" />
      </cc:Work>
    </rdf:RDF>
  </metadata>
  <defs
     id="defs10" />
  <sodipodi:namedview
     pagecolor="#ffffff"
     bordercolor="#666666"
     borderopacity="1"
     objecttolerance="10"
     gridtolerance="10"
     guidetolerance="10"
     inkscape:pageopacity="0"
     inkscape:pageshadow="2"
     inkscape:window-width="640"
     inkscape:window-height="493"
     id="namedview8"
     showgrid="false"
     inkscape:zoom="0.4609375"
     inkscape:cx="256"
     inkscape:cy="256"
     inkscape:window-x="0"
     inkscape:window-y="0"
     inkscape:window-maximized="0"
     inkscape:current-layer="svg6" />
  <path
     d="m 274.95,253.1 c -0.65614,-37.09116 -31.51476,-70.42576 -68.44,-73.95 -36.64268,-4.96384 -74.10482,20.38545 -83.26902,56.18205 -10.50955,35.1684 8.32912,75.82173 41.86994,90.65879 32.31771,15.69976 74.60253,4.86777 95.16144,-24.72396 C 270.4026,287.50362 275.58339,269.93532 274.95,253.1 Z M 165.9,209.27 c 18.64532,-13.00379 45.19581,-12.99754 63.78,0.12 -10.64333,10.64333 -21.28667,21.28667 -31.93,31.93 -10.54168,-10.67445 -21.67861,-21.41278 -31.85,-32.05 z m -14.8,78.66 c -13.16377,-18.62611 -13.10397,-45.25552 0.01,-63.89 10.64333,10.65333 21.28667,21.30667 31.93,31.96 -10.64095,10.64096 -21.32751,21.30083 -31.94,31.93 z m 77.16,15.62 c -18.64969,12.35179 -44.18225,11.98582 -62.46,-0.93 10.65,-10.65 21.3,-21.3 31.95,-31.95 10.64667,10.64667 21.29333,21.29333 31.94,31.94 -0.62302,-0.74649 -0.87966,1.16016 -1.43,0.94 z m 25.9,-44.56 c -0.5471,10.29618 -4.00109,20.41439 -9.84,28.91 -10.64,-10.63333 -21.28,-21.26667 -31.92,-31.9 10.64667,-10.65 21.29333,-21.3 31.94,-31.95 6.99768,10.14148 10.52629,22.70815 9.82,34.94 z M 148.86,332.8 C 112.30892,313.56911 94.041578,266.65325 108.11067,227.79836 115.01703,207.22271 129.89404,189.48126 148.95,179.09 c 15.55242,-12.99524 -7.42231,-25.57011 -17.5,-13.7 -37.594282,24.05148 -56.774137,72.69631 -45.742708,115.93495 7.179447,29.98201 27.691458,57.09388 55.565208,70.59505 11.41692,3.14718 18.22889,-13.54985 7.5875,-19.12 z m 198.32,46.38 c -4.06237,-6.1581 -13.62755,-5.35794 -17.6,0.5 -11.18655,-10.52064 -21.1512,-22.5332 -33.18141,-32.02375 -21.35262,-3.08507 -13.01044,20.37297 -1.25251,26.95983 6.58464,6.58464 13.16928,13.16928 19.75392,19.75392 -7.30196,4.87482 -5.81557,16.48072 2.33602,19.69394 37.36133,26.68202 74.72265,53.36404 112.08398,80.04606 -27.38117,-38.29567 -54.7529,-76.70602 -82.14,-114.93 z m -54.72,-214.1 c 11.29226,-3.2276 17.64783,-14.87221 26.49271,-22.20559 4.52507,-2.42517 8.84364,-14.01996 13.47729,-7.83441 7.22172,5.64747 15.75041,-0.93886 18.81988,-7.96063 C 377.26658,90.676249 403.28329,54.273124 429.3,17.87 c -38.85695,28.011045 -78.26961,55.375814 -116.78,83.79 -4.30106,4.69453 -2.64409,12.40535 2.34,15.94 -10.52025,11.19196 -22.53808,21.15853 -32.02375,33.19703 -2.91253,6.50468 2.50063,14.5376 9.62375,14.28297 z"
     id="path4"
     inkscape:connector-curvature="0" />
</svg>
