<?xml version="1.0" encoding="UTF-8" standalone="no"?>
<svg
   xmlns:dc="http://purl.org/dc/elements/1.1/"
   xmlns:cc="http://creativecommons.org/ns#"
   xmlns:rdf="http://www.w3.org/1999/02/22-rdf-syntax-ns#"
   xmlns:svg="http://www.w3.org/2000/svg"
   xmlns="http://www.w3.org/2000/svg"
   xmlns:sodipodi="http://sodipodi.sourceforge.net/DTD/sodipodi-0.dtd"
   xmlns:inkscape="http://www.inkscape.org/namespaces/inkscape"
   width="512"
   height="512"
   viewBox="0 0 512 512"
   version="1.1"
   id="svg6"
   sodipodi:docname="flow switch.svg"
   inkscape:version="0.92.1 r15371">
  <metadata
     id="metadata12">
    <rdf:RDF>
      <cc:Work
         rdf:about="">
        <dc:format>image/svg+xml</dc:format>
        <dc:type
           rdf:resource="http://purl.org/dc/dcmitype/StillImage" />
      </cc:Work>
    </rdf:RDF>
  </metadata>
  <defs
     id="defs10" />
  <sodipodi:namedview
     pagecolor="#ffffff"
     bordercolor="#666666"
     borderopacity="1"
     objecttolerance="10"
     gridtolerance="10"
     guidetolerance="10"
     inkscape:pageopacity="0"
     inkscape:pageshadow="2"
     inkscape:window-width="640"
     inkscape:window-height="493"
     id="namedview8"
     showgrid="false"
     inkscape:zoom="0.4609375"
     inkscape:cx="256"
     inkscape:cy="256"
     inkscape:window-x="0"
     inkscape:window-y="0"
     inkscape:window-maximized="0"
     inkscape:current-layer="svg6" />
  <path
     d="m 266.7,172 c 25.1,0 50.2,0 75.3,0 0.48626,18.24431 -1.00071,36.71321 0.79531,54.80844 12.43797,15.11678 21.51106,-5.3824 18.20469,-17.17993 0,-12.54284 0,-25.08567 0,-37.62851 17.33333,0 34.66667,0 52,0 0.48626,18.24431 -1.00071,36.71321 0.79531,54.80844 12.43797,15.11678 21.51106,-5.3824 18.20469,-17.17993 -0.46614,-16.16224 0.95505,-32.53114 -0.75125,-48.55757 -6.86727,-8.65597 -19.35681,-3.79301 -29.04599,-5.07094 -45.16759,0 -90.33517,0 -135.50276,0 -11.51397,-0.85019 -11.51365,16.85219 0,16 z m 131.86,84.77 c -21.7583,-5.46218 -43.26865,8.29244 -52.2609,27.78869 -8.69597,13.79028 -16.31688,28.62678 -25.69785,41.73133 -20.77413,18.29069 -51.52865,-6.9379 -42.52328,-30.71127 1.87736,-12.57119 28.80473,-38.77896 1.91609,-37.81656 -13.65359,14.74279 -27.17164,39.59141 -18.56406,59.04781 5.13979,32.73605 51.22869,44.09868 73.15828,20.68516 8.28775,-10.23575 13.39233,-22.76113 20.83553,-33.78103 8.17907,-13.41408 16.09108,-32.16772 35.13664,-30.23657 27.73795,2.07797 30.41739,37.28495 18.40955,56.47244 0.54233,26.26939 25.25927,3.04303 23.0525,-12.54 6.0204,-18.25156 -0.58384,-37.72494 -13.91124,-50.92852 -5.53694,-4.8557 -12.38121,-8.15342 -19.55126,-9.71148 z M 478.72,100 c -93.25,0 -186.5,0 -279.75,0 -16.55456,-0.411862 -19.38265,17.19207 -17.97,29.9372 0,39.6876 0,79.3752 0,119.0628 -51.92,0 -103.84,0 -155.76,0 -20.020344,6.45756 -0.135077,21.75817 12.597203,17 47.720933,0 95.441867,0 143.162797,0 0.24714,43.90541 -0.49499,87.86232 0.37225,131.73545 3.06465,15.59332 20.1989,14.68747 32.47354,14.26455 88.2914,0 176.58281,0 264.87421,0 16.48346,0.072 18.45071,-17.85273 17.28,-30.4172 0,-88.0776 0,-176.1552 0,-264.2328 0.29772,-9.36562 -7.88829,-17.645467 -17.28,-17.35 z M 462,378 c -82.33333,0 -164.66667,0 -247,0 0,-80.33333 0,-160.66667 0,-241 82.33333,0 164.66667,0 247,0 0,80.33333 0,160.66667 0,241 z"
     id="path4"
     inkscape:connector-curvature="0" />
</svg>
