<?xml version="1.0" encoding="UTF-8" standalone="no"?>
<svg
   xmlns:dc="http://purl.org/dc/elements/1.1/"
   xmlns:cc="http://creativecommons.org/ns#"
   xmlns:rdf="http://www.w3.org/1999/02/22-rdf-syntax-ns#"
   xmlns:svg="http://www.w3.org/2000/svg"
   xmlns="http://www.w3.org/2000/svg"
   xmlns:sodipodi="http://sodipodi.sourceforge.net/DTD/sodipodi-0.dtd"
   xmlns:inkscape="http://www.inkscape.org/namespaces/inkscape"
   width="512"
   height="512"
   viewBox="0 0 512 512"
   version="1.1"
   id="svg6"
   sodipodi:docname="flw switch assembly.svg"
   inkscape:version="0.92.1 r15371">
  <metadata
     id="metadata12">
    <rdf:RDF>
      <cc:Work
         rdf:about="">
        <dc:format>image/svg+xml</dc:format>
        <dc:type
           rdf:resource="http://purl.org/dc/dcmitype/StillImage" />
      </cc:Work>
    </rdf:RDF>
  </metadata>
  <defs
     id="defs10" />
  <sodipodi:namedview
     pagecolor="#ffffff"
     bordercolor="#666666"
     borderopacity="1"
     objecttolerance="10"
     gridtolerance="10"
     guidetolerance="10"
     inkscape:pageopacity="0"
     inkscape:pageshadow="2"
     inkscape:window-width="640"
     inkscape:window-height="493"
     id="namedview8"
     showgrid="false"
     inkscape:zoom="0.4609375"
     inkscape:cx="256"
     inkscape:cy="256"
     inkscape:window-x="0"
     inkscape:window-y="0"
     inkscape:window-maximized="0"
     inkscape:current-layer="svg6" />
  <path
     d="m 197.02,136 c 20.32667,0 40.65333,0 60.98,0 0.47554,14.25431 -0.97721,28.77189 0.77406,42.85203 11.74383,12.65299 19.13079,-5.32408 16.22594,-15.82845 0,-9.00786 0,-18.01572 0,-27.02358 14,0 28,0 42,0 0.33186,14.2694 -0.68116,28.66771 0.53828,42.85203 10.96614,12.77689 15.64882,-6.74035 13.46172,-15.82845 -0.41012,-12.38397 0.84441,-24.97338 -0.67109,-37.22092 -6.92331,-6.77038 -17.88818,-2.65946 -26.76355,-3.79266 -35.51512,0 -71.03024,0 -106.54536,0 -9.31714,-0.30288 -9.29348,14.32371 0,13.99 z m 106.6,69.47 c -16.63066,-4.54017 -31.94789,6.34947 -41.93985,17.96466 -7.1674,11.81997 -13.24015,24.6286 -21.10124,35.80987 -16.09531,14.4179 -41.61838,-4.76101 -33.93313,-23.85016 2.66904,-9.27519 22.05519,-30.65382 1.08172,-29.15781 -11.2838,11.61434 -19.13166,29.16231 -16.925,45.43344 6.27954,14.09927 18.82433,27.73791 35.9975,26.72 15.11724,0.43884 28.87321,-9.91825 33.61069,-23.97791 4.19643,-7.33736 8.39287,-14.67473 12.58931,-22.01209 9.90227,-18.25278 43.62991,-17.97563 43.5325,6.94 3.97181,9.57552 -15.30907,38.68497 7.20625,30.71594 10.13603,-17.15439 12.66461,-39.55698 -2.01144,-54.49709 C 316.93608,210.43398 310.38979,206.87909 303.62,205.47 Z M 194.48,373.86 c -13.89932,10.45223 5.89354,17.59776 14.8792,10.78725 39.22173,-11.36121 78.79662,-21.77565 117.79736,-33.72928 9.84841,-10.34508 -6.715,-14.82146 -14.64927,-16.31443 C 274.67152,323.89236 236.83576,313.18118 199,302.47 c -17.82114,1.47903 -4.50927,18.07676 6.99934,17.08776 4.77541,3.05368 16.29632,1.03289 16.02066,7.88635 0,12.82196 0,25.64393 0,38.46589 -9.17949,2.64453 -18.36299,5.33252 -27.54,7.95 z M 239,328.2 c 19.82333,5.60667 39.64667,11.21333 59.47,16.82 -19.82333,5.61 -39.64667,11.22 -59.47,16.83 0,-11.21667 0,-22.43333 0,-33.65 z M 369.63,16 C 292.92298,16.2023 216.17323,15.594914 139.49299,16.304551 124.6872,19.87148 128.44166,36.680803 128,48.008566 128,192.47238 128,336.93619 128,481.4 c -0.0383,14.37183 15.54704,15.58417 26.33839,14.6 72.71852,-0.20222 145.47972,0.40498 218.17149,-0.30455 C 387.31569,492.12972 383.55673,475.31808 384,463.99143 384,319.52762 384,175.06381 384,30.6 384.14036,22.918139 377.35412,15.81673 369.63,16 Z M 355,467 c -66.66667,0 -133.33333,0 -200,0 0,-140.33333 0,-280.66667 0,-421 66.66667,0 133.33333,0 200,0 0,140.33333 0,280.66667 0,421 z"
     id="path4"
     inkscape:connector-curvature="0" />
</svg>
