<?xml version="1.0" encoding="UTF-8" standalone="no"?>
<svg
   xmlns:dc="http://purl.org/dc/elements/1.1/"
   xmlns:cc="http://creativecommons.org/ns#"
   xmlns:rdf="http://www.w3.org/1999/02/22-rdf-syntax-ns#"
   xmlns:svg="http://www.w3.org/2000/svg"
   xmlns="http://www.w3.org/2000/svg"
   xmlns:sodipodi="http://sodipodi.sourceforge.net/DTD/sodipodi-0.dtd"
   xmlns:inkscape="http://www.inkscape.org/namespaces/inkscape"
   width="512"
   height="512"
   viewBox="0 0 512 512"
   version="1.1"
   id="svg6"
   sodipodi:docname="illuminated sign.svg"
   inkscape:version="0.92.1 r15371">
  <metadata
     id="metadata12">
    <rdf:RDF>
      <cc:Work
         rdf:about="">
        <dc:format>image/svg+xml</dc:format>
        <dc:type
           rdf:resource="http://purl.org/dc/dcmitype/StillImage" />
      </cc:Work>
    </rdf:RDF>
  </metadata>
  <defs
     id="defs10" />
  <sodipodi:namedview
     pagecolor="#ffffff"
     bordercolor="#666666"
     borderopacity="1"
     objecttolerance="10"
     gridtolerance="10"
     guidetolerance="10"
     inkscape:pageopacity="0"
     inkscape:pageshadow="2"
     inkscape:window-width="640"
     inkscape:window-height="493"
     id="namedview8"
     showgrid="false"
     inkscape:zoom="0.4609375"
     inkscape:cx="256"
     inkscape:cy="256"
     inkscape:window-x="0"
     inkscape:window-y="0"
     inkscape:window-maximized="0"
     inkscape:current-layer="svg6" />
  <path
     d="m 124.76,255.3 c 11.57453,7.83974 24.12621,14.40644 35.03266,23.11656 14.6949,19.36223 -9.4527,39.4354 -27.61016,24.44547 -20.50408,-19.77019 -37.118885,17.63348 -10.25906,22.02453 18.50567,8.70013 45.44412,11.88827 58.18645,-7.947 15.42216,-20.93839 7.88424,-54.1694 -15.86699,-65.30116 -9.55416,-6.49379 -19.95415,-11.869 -28.96602,-19.07996 -15.17626,-19.05775 9.06284,-40.16808 27.5275,-24.67297 13.6016,17.11339 37.74909,-8.37501 17.34842,-18.31028 -18.7259,-10.72393 -47.24992,-17.8923 -63.2403,1.23981 -16.03986,18.43082 -13.12869,50.93988 7.8475,64.485 z M 210,331.8 c 13.32933,-0.22365 12.40171,-15.16766 12,-24.6939 -0.15931,-39.49991 0.31944,-79.03116 -0.24082,-118.51137 -3.3843,-16.91376 -28.56328,-8.64164 -23.75918,7.01305 0.15946,42.15861 -0.31964,84.34858 0.24082,126.48749 1.00342,5.51056 6.16062,9.79325 11.75918,9.70473 z m 57.47,0.2 c 12.97152,-0.56848 26.24936,1.19459 39.01219,-0.98766 11.80645,-6.22529 6.20821,-21.15502 7.51781,-31.88236 -0.57926,-18.52648 1.20194,-37.35677 -0.97203,-55.67967 C 307.78145,232.41388 294.26672,236.94982 284.6,236 c -18.01398,0.0333 -13.8582,29.17124 3.40834,25 4.49777,2.61964 0.75355,13.48127 1.98166,19.37057 0,9.20981 0,18.41962 0,27.62943 -8.7149,-0.66434 -18.00737,1.44522 -26.30484,-1.28547 -10.71154,-10.23575 -5.4026,-26.36413 -6.69516,-39.57289 0.48249,-18.05139 -1.04562,-36.2805 0.92297,-54.20226 2.33758,-12.97867 16.10685,-9.58036 25.49927,-9.93938 10.54719,-0.85052 26.7394,4.02447 30.22049,-10.03926 2.52781,-14.00015 -13.07681,-16.32401 -23.30719,-14.96074 -16.44153,0.379 -36.27662,-3.28539 -47.34804,12.3875 -14.90353,18.7999 -8.64533,43.60786 -9.9975,65.69476 1.29659,21.4874 -4.79209,45.71484 9.99375,63.87149 C 248.92166,327.20906 257.97303,332.0999 267.47,332 Z M 336,331.8 c 13.32933,-0.22365 12.40171,-15.16766 12,-24.6939 0,-19.5887 0,-39.1774 0,-58.7661 12.11295,26.33355 23.01319,53.31838 35.89375,79.23969 14.57867,13.2408 25.60026,-6.99491 22.11625,-20.49359 -0.1594,-39.48672 0.31956,-79.00478 -0.24082,-118.4718 -3.37667,-16.92233 -28.56017,-8.65379 -23.75918,7.00348 0,22.24741 0,44.49481 0,66.74222 -11.45333,-25.41333 -22.90667,-50.82667 -34.36,-76.24 -12.42277,-18.40086 -28.14714,2.61133 -23.64,17.4939 0.15936,39.49338 -0.3195,79.01811 0.24082,118.4918 0.99706,5.49821 6.17656,9.8314 11.74918,9.6943 z M 482.84,101 C 331.61333,101 180.38667,101 29.16,101 15.796099,101.42228 16.554469,116.41502 17,126.0839 17.165017,217.68943 16.670071,309.328 17.247285,400.91289 20.643901,414.95175 36.853771,410.174 47.391129,411 192.54075,411 337.69038,411 482.84,411 496.2039,410.57772 495.44553,395.58498 495,385.9161 494.83498,294.31057 495.32993,202.672 494.75271,111.08711 493.69539,105.53938 488.58514,100.92933 482.84,101 Z M 471,385 c -143.33333,0 -286.66667,0 -430,0 0,-86.33333 0,-172.66667 0,-259 143.33333,0 286.66667,0 430,0 0,86.33333 0,172.66667 0,259 z"
     id="path4"
     inkscape:connector-curvature="0" />
</svg>
