<?xml version="1.0" encoding="UTF-8" standalone="no"?>
<svg
   xmlns:dc="http://purl.org/dc/elements/1.1/"
   xmlns:cc="http://creativecommons.org/ns#"
   xmlns:rdf="http://www.w3.org/1999/02/22-rdf-syntax-ns#"
   xmlns:svg="http://www.w3.org/2000/svg"
   xmlns="http://www.w3.org/2000/svg"
   xmlns:sodipodi="http://sodipodi.sourceforge.net/DTD/sodipodi-0.dtd"
   xmlns:inkscape="http://www.inkscape.org/namespaces/inkscape"
   width="512"
   height="512"
   viewBox="0 0 512 512"
   version="1.1"
   id="svg6"
   sodipodi:docname="linear direction.svg"
   inkscape:version="0.92.1 r15371">
  <metadata
     id="metadata12">
    <rdf:RDF>
      <cc:Work
         rdf:about="">
        <dc:format>image/svg+xml</dc:format>
        <dc:type
           rdf:resource="http://purl.org/dc/dcmitype/StillImage" />
      </cc:Work>
    </rdf:RDF>
  </metadata>
  <defs
     id="defs10" />
  <sodipodi:namedview
     pagecolor="#ffffff"
     bordercolor="#666666"
     borderopacity="1"
     objecttolerance="10"
     gridtolerance="10"
     guidetolerance="10"
     inkscape:pageopacity="0"
     inkscape:pageshadow="2"
     inkscape:window-width="638"
     inkscape:window-height="493"
     id="namedview8"
     showgrid="false"
     inkscape:zoom="0.4609375"
     inkscape:cx="256"
     inkscape:cy="256"
     inkscape:window-x="0"
     inkscape:window-y="0"
     inkscape:window-maximized="0"
     inkscape:current-layer="svg6" />
  <path
     d="m 285,247.3 c -0.90942,-7.87196 -9.33371,-11.84663 -16,-12.3 -0.1656,-19.953 0.33417,-39.93735 -0.25508,-59.87039 -3.42011,-18.51838 -30.93463,-9.67422 -25.74492,7.39967 0,17.49024 0,34.98048 0,52.47072 -9.27155,-0.13892 -19.04704,8.8235 -15.54444,18.86779 C 236.95786,311.01394 246.4684,368.15872 256,425.3 c 9.57207,-58.99126 20.16845,-117.89225 29.1,-176.94 l -0.12,-1.06 z M 482.5,86.7 c -14.3304,0.08303 -14.15797,15.91665 -13.5,26.32301 3.40351,10.76178 -6.995,7.72155 -14.09783,7.97699 C 317.60145,121 180.30072,121 43,121 41.720864,109.75129 47.414002,94.020106 34.73125,87.753125 19.901414,81.989309 13.669339,98.989703 16,110.67337 c 0.177914,20.0213 -0.360063,40.07915 0.276563,60.07702 C 20.029879,189.13857 47.979869,180.66913 43,163.35072 44.4523,157.39475 38.789081,144.32326 48.874096,147 188.91606,147 328.95803,147 469,147 c 1.29526,11.29299 -4.44367,27.09296 8.26875,33.39688 14.82984,5.76381 21.06191,-11.23658 18.73125,-22.92025 -0.17791,-20.0213 0.36006,-40.07915 -0.27656,-60.077021 C 494.54111,91.294344 488.71157,86.598573 482.5,86.7 Z"
     id="path4"
     inkscape:connector-curvature="0" />
</svg>
