<?xml version="1.0" encoding="UTF-8" standalone="no"?>
<svg
   xmlns:dc="http://purl.org/dc/elements/1.1/"
   xmlns:cc="http://creativecommons.org/ns#"
   xmlns:rdf="http://www.w3.org/1999/02/22-rdf-syntax-ns#"
   xmlns:svg="http://www.w3.org/2000/svg"
   xmlns="http://www.w3.org/2000/svg"
   xmlns:sodipodi="http://sodipodi.sourceforge.net/DTD/sodipodi-0.dtd"
   xmlns:inkscape="http://www.inkscape.org/namespaces/inkscape"
   width="512"
   height="512"
   viewBox="0 0 512 512"
   version="1.1"
   id="svg4"
   sodipodi:docname="modular luminair.svg"
   inkscape:version="0.92.1 r15371">
  <metadata
     id="metadata10">
    <rdf:RDF>
      <cc:Work
         rdf:about="">
        <dc:format>image/svg+xml</dc:format>
        <dc:type
           rdf:resource="http://purl.org/dc/dcmitype/StillImage" />
      </cc:Work>
    </rdf:RDF>
  </metadata>
  <defs
     id="defs8" />
  <sodipodi:namedview
     pagecolor="#ffffff"
     bordercolor="#666666"
     borderopacity="1"
     objecttolerance="10"
     gridtolerance="10"
     guidetolerance="10"
     inkscape:pageopacity="0"
     inkscape:pageshadow="2"
     inkscape:window-width="640"
     inkscape:window-height="493"
     id="namedview6"
     showgrid="false"
     inkscape:zoom="0.4609375"
     inkscape:cx="256"
     inkscape:cy="256"
     inkscape:window-x="0"
     inkscape:window-y="0"
     inkscape:window-maximized="0"
     inkscape:current-layer="svg4" />
  <path
     d="M 479.44,22 C 330.48,22 181.52,22 32.56,22 16.70377,22.176652 17.407186,39.82638 18,51.230306 18.197258,193.27324 17.605496,335.35585 18.295859,477.37398 22.498359,493.68581 41.525369,487.97562 53.898627,489 195.74575,489 337.59288,489 479.44,489 495.29623,488.82335 494.59281,471.17362 494,459.76969 493.80274,317.72676 494.3945,175.64415 493.70414,33.626016 492.4556,27.011051 486.17737,21.878718 479.44,22 Z M 463,462 c -138.66667,0 -277.33333,0 -416,0 0,-137 0,-274 0,-411 138.66667,0 277.33333,0 416,0 0,137 0,274 0,411 z"
     id="path2"
     inkscape:connector-curvature="0" />
</svg>
