<?xml version="1.0" encoding="UTF-8" standalone="no"?>
<svg
   xmlns:dc="http://purl.org/dc/elements/1.1/"
   xmlns:cc="http://creativecommons.org/ns#"
   xmlns:rdf="http://www.w3.org/1999/02/22-rdf-syntax-ns#"
   xmlns:svg="http://www.w3.org/2000/svg"
   xmlns="http://www.w3.org/2000/svg"
   xmlns:sodipodi="http://sodipodi.sourceforge.net/DTD/sodipodi-0.dtd"
   xmlns:inkscape="http://www.inkscape.org/namespaces/inkscape"
   width="512"
   height="512"
   viewBox="0 0 512 512"
   version="1.1"
   id="svg4"
   sodipodi:docname="single dual channel datecator.svg"
   inkscape:version="0.92.1 r15371">
  <metadata
     id="metadata10">
    <rdf:RDF>
      <cc:Work
         rdf:about="">
        <dc:format>image/svg+xml</dc:format>
        <dc:type
           rdf:resource="http://purl.org/dc/dcmitype/StillImage" />
      </cc:Work>
    </rdf:RDF>
  </metadata>
  <defs
     id="defs8" />
  <sodipodi:namedview
     pagecolor="#ffffff"
     bordercolor="#666666"
     borderopacity="1"
     objecttolerance="10"
     gridtolerance="10"
     guidetolerance="10"
     inkscape:pageopacity="0"
     inkscape:pageshadow="2"
     inkscape:window-width="640"
     inkscape:window-height="493"
     id="namedview6"
     showgrid="false"
     inkscape:zoom="0.4609375"
     inkscape:cx="256"
     inkscape:cy="256"
     inkscape:window-x="0"
     inkscape:window-y="0"
     inkscape:window-maximized="0"
     inkscape:current-layer="svg4" />
  <path
     d="M 380.8,474.5 C 375.29798,431.87464 359.54224,390.58746 334.98,355.3 373.89245,324.10583 390.96928,268.91061 376.27039,221.2286 369.04106,196.51476 354.07195,174.13271 333.95,158.06 360.38553,120.37891 377.41954,75.75592 381.36398,29.833789 380.00488,10.085241 349.32029,14.674876 351.96775,33.621283 342.84356,110.0843 294.09517,180.22943 225.7622,215.66532 199.23105,229.97029 169.82949,238.09841 140.13,242.29 c -12.07206,3.6547 -12.7489,22.53295 -0.89,26.92 18.77492,3.58447 37.95384,6.5203 55.92735,13.52131 74.89948,26.25097 134.07368,92.23487 152.04676,169.53669 3.41433,11.55105 3.58707,23.84951 6.87073,35.32169 8.15097,16.3438 33.1712,3.61397 26.74468,-12.74595 L 380.78,474.41 Z M 333.98,314.36 c -4.85623,6.64226 -10.47025,12.73368 -16.78,18.02 -29.7078,-34.27301 -68.2047,-60.88233 -110.83,-76.41 42.06755,-15.34727 80.17448,-41.38919 109.7,-75.06 34.4893,26.89733 46.42295,78.01641 27.3254,117.37911 -2.60847,5.64014 -5.76481,11.05855 -9.4154,16.07089 z"
     id="path2"
     inkscape:connector-curvature="0" />
</svg>
