<?xml version="1.0" encoding="UTF-8" standalone="no"?>
<svg
   xmlns:dc="http://purl.org/dc/elements/1.1/"
   xmlns:cc="http://creativecommons.org/ns#"
   xmlns:rdf="http://www.w3.org/1999/02/22-rdf-syntax-ns#"
   xmlns:svg="http://www.w3.org/2000/svg"
   xmlns="http://www.w3.org/2000/svg"
   xmlns:sodipodi="http://sodipodi.sourceforge.net/DTD/sodipodi-0.dtd"
   xmlns:inkscape="http://www.inkscape.org/namespaces/inkscape"
   width="512"
   height="512"
   viewBox="0 0 512 512"
   version="1.1"
   id="svg6"
   sodipodi:docname="spot projector enclosed.svg"
   inkscape:version="0.92.1 r15371">
  <metadata
     id="metadata12">
    <rdf:RDF>
      <cc:Work
         rdf:about="">
        <dc:format>image/svg+xml</dc:format>
        <dc:type
           rdf:resource="http://purl.org/dc/dcmitype/StillImage" />
      </cc:Work>
    </rdf:RDF>
  </metadata>
  <defs
     id="defs10" />
  <sodipodi:namedview
     pagecolor="#ffffff"
     bordercolor="#666666"
     borderopacity="1"
     objecttolerance="10"
     gridtolerance="10"
     guidetolerance="10"
     inkscape:pageopacity="0"
     inkscape:pageshadow="2"
     inkscape:window-width="638"
     inkscape:window-height="493"
     id="namedview8"
     showgrid="false"
     inkscape:zoom="0.4609375"
     inkscape:cx="256"
     inkscape:cy="256"
     inkscape:window-x="0"
     inkscape:window-y="0"
     inkscape:window-maximized="0"
     inkscape:current-layer="svg6" />
  <path
     d="m 222.7,252.43 c -1.2112,-37.09665 -28.94125,-71.24125 -65.17335,-79.58369 -37.39084,-9.98408 -79.763217,9.36355 -96.759882,44.11616 -18.651494,34.82279 -8.718226,81.69125 22.592063,105.82259 25.764639,21.13142 63.814179,24.9571 93.162699,9.1485 27.61242,-13.93486 45.64325,-43.75907 46.25847,-74.55356 0.46576,-1.52183 -0.10686,-3.46827 -0.08,-4.95 z m -121.53,-49 c 21.16087,-14.85064 51.38538,-14.63318 72.35,0.48 -12.16667,12.16667 -24.33333,24.33333 -36.5,36.5 -12.16667,-12.16667 -24.33333,-24.33333 -36.5,-36.5 l 0.67,-0.47 z M 84.89,292.5 c -15.260434,-21.19827 -15.303473,-51.83744 0.02,-73.02 12.166667,12.16667 24.33333,24.33333 36.5,36.5 -12.17472,12.16471 -24.338298,24.39833 -36.52,36.52 z m 88.58,15.63 c -19.89447,14.26755 -47.86095,15.50051 -68.79,2.69 -8.925009,-2.9005 2.94127,-8.18995 5.42532,-12.34323 8.96489,-8.97226 17.92979,-17.94451 26.89468,-26.91677 12.12482,12.18802 24.50412,24.391 36.47,36.57 z m 27.06,-48.76 c -0.63323,11.82866 -4.63888,23.45189 -11.44,33.15 -12.17333,-12.17333 -24.34667,-24.34667 -36.52,-36.52 12.16667,-12.17333 24.33333,-24.34667 36.5,-36.52 8.15538,11.48445 12.25254,25.91402 11.46,39.89 z M 343.3,282.5 c -7.53522,-1.57213 -14.71044,6.34191 -12.32,13.5 -27.73474,0.1486 -55.49924,-0.29704 -83.21541,0.22246 -15.33113,3.16158 -7.85265,26.1208 6.40987,21.77754 25.60185,0 51.20369,0 76.80554,0 -1.47031,6.15678 1.11017,13.75264 8.09625,15.0725 16.64446,-0.87938 33.1391,-5.22294 49.72361,-7.46621 C 424.3365,319.67617 459.87361,313.75253 495.41,307.82 444.70667,299.38 394.00333,290.94 343.3,282.5 Z M 250,213 c 27,0 54,0 81,0 -2.34281,7.80533 4.35753,17.1551 13.34416,14.40647 C 394.6959,218.94309 445.05034,210.49587 495.43,202.2 443.93261,193.83514 392.50656,184.74576 340.97,176.8 c -7.11124,0.10699 -12.09321,7.73844 -10.01,14.21 -27.73474,0.1486 -55.49924,-0.29704 -83.21541,0.22246 C 234.93021,193.77578 236.88012,213.13607 250,213 Z M 89.54,342.2 C 51.980831,322.21508 31.08633,276.17942 40.931704,234.7673 46.877443,206.51218 66.275368,182.13859 91.482598,168.44408 102.90815,158.82228 86.367465,141.98587 75.99,152.18 33.515029,176.34393 9.4662176,228.17843 18.35,276.22 c 6.058726,36.41828 29.90332,69.98129 63.2075,86.2325 12.4717,3.35201 19.17361,-14.61663 7.9825,-20.2525 z"
     id="path4"
     inkscape:connector-curvature="0" />
</svg>
