<?xml version="1.0" encoding="UTF-8" standalone="no"?>
<svg
   xmlns:dc="http://purl.org/dc/elements/1.1/"
   xmlns:cc="http://creativecommons.org/ns#"
   xmlns:rdf="http://www.w3.org/1999/02/22-rdf-syntax-ns#"
   xmlns:svg="http://www.w3.org/2000/svg"
   xmlns="http://www.w3.org/2000/svg"
   xmlns:sodipodi="http://sodipodi.sourceforge.net/DTD/sodipodi-0.dtd"
   xmlns:inkscape="http://www.inkscape.org/namespaces/inkscape"
   width="512"
   height="512"
   viewBox="0 0 512 512"
   version="1.1"
   id="svg4"
   sodipodi:docname="5a single gang.svg"
   inkscape:version="0.92.1 r15371">
  <metadata
     id="metadata10">
    <rdf:RDF>
      <cc:Work
         rdf:about="">
        <dc:format>image/svg+xml</dc:format>
        <dc:type
           rdf:resource="http://purl.org/dc/dcmitype/StillImage" />
      </cc:Work>
    </rdf:RDF>
  </metadata>
  <defs
     id="defs8" />
  <sodipodi:namedview
     pagecolor="#ffffff"
     bordercolor="#666666"
     borderopacity="1"
     objecttolerance="10"
     gridtolerance="10"
     guidetolerance="10"
     inkscape:pageopacity="0"
     inkscape:pageshadow="2"
     inkscape:window-width="640"
     inkscape:window-height="493"
     id="namedview6"
     showgrid="false"
     inkscape:zoom="0.4609375"
     inkscape:cx="256"
     inkscape:cy="256"
     inkscape:window-x="0"
     inkscape:window-y="0"
     inkscape:window-maximized="0"
     inkscape:current-layer="svg4" />
  <path
     id="path2"
     d="M 414.32,476.9 C 413.18525,416.77922 374.43374,359.51596 318.9601,336.253 302.84639,329.226 285.53788,324.95388 268.01,323.62 c -0.1625,-45.74605 0.32462,-91.52448 -0.24287,-137.25035 -3.43436,-16.80653 -28.52098,-8.58791 -23.75713,7.01038 0,43.40999 0,86.81998 0,130.22997 -60.85534,3.85706 -116.92199,46.39861 -137.01514,103.97241 -6.24767,18.72081 -11.468838,39.1006 -8.116266,58.71321 7.536316,16.00547 27.485936,2.80787 22.929006,-11.32932 1.87785,-55.53549 42.23838,-106.88773 95.64921,-122.08897 52.05604,-16.31865 112.74109,3.38642 145.21941,47.23445 18.44388,23.76778 27.64515,53.84037 27.81163,83.75857 5.05264,16.35638 27.36445,8.84152 23.83215,-6.97035 z M 188.4,151 c -10.57982,0.93506 -22.05008,-2.17489 -31.91578,2.19639 -12.94779,9.48711 0.12196,27.08436 13.60082,22.80361 15.55255,0.15984 33.75173,1.73478 44.29246,-12.4325 13.43246,-15.57064 11.51704,-37.84468 8.99621,-56.75911 C 219.15278,87.422612 199.52806,75.39258 180.40245,78 170.84375,80.426179 176.5131,67.624315 175,62.0049 176.39794,56.3062 172.11874,44.930368 177.28501,43 190.90132,42.479875 204.78867,44.104832 218.21562,42.062969 233.40133,35.417358 222.09401,14.299231 207.79746,19 c -16.40343,0.518112 -33.04524,-1.065816 -49.2923,0.844687 -11.93063,5.91864 -6.12228,20.537283 -7.50516,31.120442 0.54362,14.423134 -1.15265,29.13467 0.97438,43.356746 6.05805,12.012755 21.09463,6.367565 31.82075,7.678125 13.61182,-2.542868 18.96901,12.8482 17.19487,23.98504 0.40958,9.70054 -0.0688,23.98008 -12.59,25.01496 z m 59.53,24.12 c 12.92742,3.25567 16.09663,-11.39887 18.29647,-20.72992 3.18465,-5.2994 0.85638,-17.87229 9.17356,-16.40008 10.54332,0 21.08665,0 31.62997,0 4.22839,11.5855 4.66392,25.17156 12.3875,34.9525 15.10058,9.75216 23.68744,-10.19485 16.34045,-21.56627 C 324.02135,109.95433 312.28712,68.531756 300.55,27.11 291.7706,7.9004172 273.96032,24.782511 273.90503,39.201882 c -11.49024,41.15519 -23.60641,82.165938 -34.7063,123.411208 -0.50403,5.57353 3.34439,11.05221 8.73127,12.50691 z m 41,-100.9 c 3.75667,13.26 7.51333,26.52 11.27,39.78 -7.51333,0 -15.02667,0 -22.54,0 3.75909,-13.25679 7.49879,-26.53925 11.27,-39.78 z" />
</svg>
