<?xml version="1.0" encoding="UTF-8" standalone="no"?>
<svg
   xmlns:dc="http://purl.org/dc/elements/1.1/"
   xmlns:cc="http://creativecommons.org/ns#"
   xmlns:rdf="http://www.w3.org/1999/02/22-rdf-syntax-ns#"
   xmlns:svg="http://www.w3.org/2000/svg"
   xmlns="http://www.w3.org/2000/svg"
   xmlns:sodipodi="http://sodipodi.sourceforge.net/DTD/sodipodi-0.dtd"
   xmlns:inkscape="http://www.inkscape.org/namespaces/inkscape"
   width="512"
   height="512"
   viewBox="0 0 512 512"
   version="1.1"
   id="svg4"
   sodipodi:docname="ceiling mounted luminair.svg"
   inkscape:version="0.92.1 r15371">
  <metadata
     id="metadata10">
    <rdf:RDF>
      <cc:Work
         rdf:about="">
        <dc:format>image/svg+xml</dc:format>
        <dc:type
           rdf:resource="http://purl.org/dc/dcmitype/StillImage" />
      </cc:Work>
    </rdf:RDF>
  </metadata>
  <defs
     id="defs8" />
  <sodipodi:namedview
     pagecolor="#ffffff"
     bordercolor="#666666"
     borderopacity="1"
     objecttolerance="10"
     gridtolerance="10"
     guidetolerance="10"
     inkscape:pageopacity="0"
     inkscape:pageshadow="2"
     inkscape:window-width="640"
     inkscape:window-height="493"
     id="namedview6"
     showgrid="false"
     inkscape:zoom="0.4609375"
     inkscape:cx="256"
     inkscape:cy="256"
     inkscape:window-x="0"
     inkscape:window-y="0"
     inkscape:window-maximized="0"
     inkscape:current-layer="svg4" />
  <path
     id="path2"
     d="M 494,259.15 C 497.11627,170.25652 443.60973,83.116937 364.18928,43.669546 289.28496,4.580201 193.72056,10.082435 123.87611,57.663784 52.620129,104.01284 10.677127,190.85768 18.442571,275.48169 c 6.023167,84.29869 60.961526,162.75983 138.161699,197.18047 50.11758,23.35029 108.15857,27.65939 161.41135,13.57592 78.527,-20.50205 143.82759,-83.92677 166.47438,-161.87808 6.02318,-21.04331 10.3251,-43.57994 9.51,-65.21 z m -28,-2.92 C 467.88065,339.26379 413.7049,419.41507 336.8858,450.31188 287.14244,471.27459 229.12461,471.56395 178.93,451.9 109.3749,425.22005 57.273707,359.05472 47.604688,285.19342 36.560714,210.95982 69.207168,132.48458 129.58412,87.930418 190.94796,40.866263 278.82494,32.322282 348.01558,66.924645 419.22982,100.77481 467.78448,177.29047 466,256.23 Z" />
</svg>
