<?xml version="1.0" encoding="UTF-8" standalone="no"?>
<svg
   xmlns:dc="http://purl.org/dc/elements/1.1/"
   xmlns:cc="http://creativecommons.org/ns#"
   xmlns:rdf="http://www.w3.org/1999/02/22-rdf-syntax-ns#"
   xmlns:svg="http://www.w3.org/2000/svg"
   xmlns="http://www.w3.org/2000/svg"
   xmlns:sodipodi="http://sodipodi.sourceforge.net/DTD/sodipodi-0.dtd"
   xmlns:inkscape="http://www.inkscape.org/namespaces/inkscape"
   width="512"
   height="512"
   viewBox="0 0 512 512"
   version="1.1"
   id="svg4"
   sodipodi:docname="electric pump.svg"
   inkscape:version="0.92.1 r15371">
  <metadata
     id="metadata10">
    <rdf:RDF>
      <cc:Work
         rdf:about="">
        <dc:format>image/svg+xml</dc:format>
        <dc:type
           rdf:resource="http://purl.org/dc/dcmitype/StillImage" />
      </cc:Work>
    </rdf:RDF>
  </metadata>
  <defs
     id="defs8" />
  <sodipodi:namedview
     pagecolor="#ffffff"
     bordercolor="#666666"
     borderopacity="1"
     objecttolerance="10"
     gridtolerance="10"
     guidetolerance="10"
     inkscape:pageopacity="0"
     inkscape:pageshadow="2"
     inkscape:window-width="640"
     inkscape:window-height="493"
     id="namedview6"
     showgrid="false"
     inkscape:zoom="0.4609375"
     inkscape:cx="256"
     inkscape:cy="256"
     inkscape:window-x="0"
     inkscape:window-y="0"
     inkscape:window-maximized="0"
     inkscape:current-layer="svg4" />
  <path
     id="path2"
     d="m 256,261.44 c -39.65205,-0.39925 -78.38016,21.57316 -98.76,55.52 -10.74793,15.77555 -15.87263,37.05125 -16.8388,56.65343 -2.78408,55.77216 40.44663,109.02885 95.5945,117.7663 16.81141,4.78106 32.62031,1.78727 49.60271,-2.14761 53.66067,-13.28831 92.19924,-68.94853 85.45339,-123.87903 C 366.14276,307.80622 313.82995,260.39094 256,261.44 Z m -97.5,115.63 c 0.0916,-10.02078 2.47885,-42.7504 10.8981,-20.71618 22.7073,38.82206 45.4146,77.64412 68.1219,116.46618 -44.86586,-7.93154 -79.75321,-50.25495 -79.02,-95.75 z M 180.17,316 c 32.6555,-44.02376 103.97405,-48.5399 142.61488,-10.05707 11.3645,8.44585 8.36466,11.75967 -3.68896,10.05707 -46.30864,0 -92.61728,0 -138.92592,0 z m 92.45,157.15 c 24.93333,-43.32333 49.86667,-86.64667 74.8,-129.97 17.53044,44.3838 -3.57852,99.32742 -46.50715,120.41615 -8.86271,4.62131 -18.44299,7.85869 -28.29285,9.55385 z M 214,57.34 c 8.69947,-2.345896 3.65482,-13.745324 5,-20.460102 -2.51976,-9.019747 2.90847,-10.091505 10.62007,-8.879898 7.79331,0 15.58662,0 23.37993,0 0.80294,6.727151 -1.75421,14.454874 1.5625,20.4625 C 265.63576,53.491968 262.7444,37.868932 263,31.443912 262.29256,24.27847 274.13928,29.667183 278.9301,28 c 8.27671,-1.734057 12.15658,0.92873 10.0699,9.558061 1.29746,6.522403 -3.63093,17.612397 5,19.791939 8.69766,-2.355524 3.65586,-13.751558 5,-20.470102 -1.13865,-6.5517 3.47775,-18.212849 -5.51201,-19.859898 -26.35266,0 -52.70533,0 -79.05799,0 -9.01927,2.974726 -4.2202,14.336306 -5.43,21.510102 1.25196,5.974511 -3.52248,17.364942 5,18.809898 z m 32.2,38.73 c 2.10697,24.2679 39.47883,29.47115 50.16281,8.51578 4.34919,-9.583492 2.39309,-20.640078 2.29485,-30.843592 C 293.5081,68.383785 284.44541,72.109108 277.55789,71 c -21.61899,0.23533 -43.33082,-0.470105 -64.89195,0.351562 -8.75241,9.490036 8.27261,9.329769 14.49814,8.648438 5.91096,0.721686 14.7014,-1.43612 18.83592,1.062007 0.15015,4.989859 -0.29039,10.055984 0.2,15.007993 z M 256,80 c 11,0 22,0 33,0 -0.21469,9.92273 2.45778,23.73949 -9.87187,27.61875 C 263.80245,113.95998 252.86212,98.589043 256,84.831939 256,83.221293 256,81.610646 256,80 Z m -18,55.97 c 0.64848,11.07562 -1.33612,22.7115 1.0625,33.42 10.07747,4.44144 6.22761,-11.2005 6.9375,-17.00609 -0.99765,-6.7377 2.30735,-15.20335 -2.32031,-20.6061 -2.89695,-1.39027 -5.91624,1.17033 -5.67969,4.19219 z M 214.43,209 c 26.70667,0 53.41333,0 80.12,0 11.27418,-5.99929 -4.48943,-13.56781 -9.31293,-18.59608 -3.78666,-8.75155 -20.12812,-4.76268 -9.10355,2.55381 11.07836,5.50798 -0.75992,3.8851 -6.8776,4.04227 -18.832,0.38903 -37.91586,-0.77924 -56.58998,0.58594 -4.16565,2.7454 -3.47565,10.47839 1.76406,11.41406 z" />
</svg>
