<?xml version="1.0" encoding="UTF-8" standalone="no"?>
<svg
   xmlns:dc="http://purl.org/dc/elements/1.1/"
   xmlns:cc="http://creativecommons.org/ns#"
   xmlns:rdf="http://www.w3.org/1999/02/22-rdf-syntax-ns#"
   xmlns:svg="http://www.w3.org/2000/svg"
   xmlns="http://www.w3.org/2000/svg"
   xmlns:sodipodi="http://sodipodi.sourceforge.net/DTD/sodipodi-0.dtd"
   xmlns:inkscape="http://www.inkscape.org/namespaces/inkscape"
   width="512"
   height="512"
   viewBox="0 0 512 512"
   version="1.1"
   id="svg4"
   sodipodi:docname="emergency exit luminair.svg"
   inkscape:version="0.92.1 r15371">
  <metadata
     id="metadata10">
    <rdf:RDF>
      <cc:Work
         rdf:about="">
        <dc:format>image/svg+xml</dc:format>
        <dc:type
           rdf:resource="http://purl.org/dc/dcmitype/StillImage" />
      </cc:Work>
    </rdf:RDF>
  </metadata>
  <defs
     id="defs8" />
  <sodipodi:namedview
     pagecolor="#ffffff"
     bordercolor="#666666"
     borderopacity="1"
     objecttolerance="10"
     gridtolerance="10"
     guidetolerance="10"
     inkscape:pageopacity="0"
     inkscape:pageshadow="2"
     inkscape:window-width="640"
     inkscape:window-height="493"
     id="namedview6"
     showgrid="false"
     inkscape:zoom="0.4609375"
     inkscape:cx="256"
     inkscape:cy="256"
     inkscape:window-x="0"
     inkscape:window-y="0"
     inkscape:window-maximized="0"
     inkscape:current-layer="svg4" />
  <path
     id="path2"
     d="m 494.33,263.5 c 0.99722,-25.22664 -3.87447,-51.14984 -15.68,-73.8 -25.60911,-51.86224 -84.22878,-84.66381 -141.82027,-79.41329 -57.15912,3.76355 -109.45967,44.62759 -127.04834,99.12475 -3.65125,10.87409 -6.10607,22.17821 -7.03139,33.61854 -52.91667,0 -105.833333,0 -158.75,0 C 43.827141,197.214 44.345685,151.36454 43.74082,105.56945 40.272584,87.342594 12.965841,95.906438 18,112.83985 18.172421,210.70051 17.654916,308.59466 18.25918,406.43437 21.731547,424.64975 49.028024,416.09908 44,399.17015 44,355.7801 44,312.39005 44,269 c 52.9,0 105.8,0 158.7,0 4.39728,57.71671 46.64748,110.06493 102.11332,126.5957 52.56904,16.93687 113.9031,0.62119 150.91557,-40.4767 23.06035,-24.74991 37.06276,-57.96321 38.60111,-91.619 z" />
</svg>
