<?xml version="1.0" encoding="UTF-8" standalone="no"?>
<svg
   xmlns:dc="http://purl.org/dc/elements/1.1/"
   xmlns:cc="http://creativecommons.org/ns#"
   xmlns:rdf="http://www.w3.org/1999/02/22-rdf-syntax-ns#"
   xmlns:svg="http://www.w3.org/2000/svg"
   xmlns="http://www.w3.org/2000/svg"
   xmlns:sodipodi="http://sodipodi.sourceforge.net/DTD/sodipodi-0.dtd"
   xmlns:inkscape="http://www.inkscape.org/namespaces/inkscape"
   width="512"
   height="512"
   viewBox="0 0 512 512"
   version="1.1"
   id="svg6"
   sodipodi:docname="fire blanket.svg"
   inkscape:version="0.92.1 r15371">
  <metadata
     id="metadata12">
    <rdf:RDF>
      <cc:Work
         rdf:about="">
        <dc:format>image/svg+xml</dc:format>
        <dc:type
           rdf:resource="http://purl.org/dc/dcmitype/StillImage" />
      </cc:Work>
    </rdf:RDF>
  </metadata>
  <defs
     id="defs10" />
  <sodipodi:namedview
     pagecolor="#ffffff"
     bordercolor="#666666"
     borderopacity="1"
     objecttolerance="10"
     gridtolerance="10"
     guidetolerance="10"
     inkscape:pageopacity="0"
     inkscape:pageshadow="2"
     inkscape:window-width="640"
     inkscape:window-height="493"
     id="namedview8"
     showgrid="false"
     inkscape:zoom="0.4609375"
     inkscape:cx="256"
     inkscape:cy="256"
     inkscape:window-x="0"
     inkscape:window-y="0"
     inkscape:window-maximized="0"
     inkscape:current-layer="svg6" />
  <path
     id="path4"
     d="m 146.9,135 c 40.36667,0 80.73333,0 121.1,0 0,24.90667 0,49.81333 0,74.72 7.42225,28.0533 33.9727,4.55852 27,-14.87187 0,-19.94938 0,-39.89875 0,-59.84813 25.33333,0 50.66667,0 76,0 0.52056,26.62594 -1.06444,53.41923 0.83438,79.93563 14.68063,21.88915 27.42179,-6.05439 23.16562,-21.43949 -0.47698,-25.99596 0.98653,-52.14229 -0.79219,-78.03739 -6.69059,-12.12817 -22.51064,-5.91892 -33.92161,-7.45875 -71.12873,0 -142.25747,0 -213.3862,0 -17.44673,-0.26896 -17.39026,27.2895 0,27 z m -8.24,210.72 c 11.41776,50.02016 77.14445,70.37458 119.02224,44.94977 15.34429,-7.14747 22.78238,-29.99226 36.522,-9.36989 33.48747,24.18908 88.18126,8.09869 99.21967,-32.81338 3.32919,-18.64285 0.77652,-38.08574 1.57609,-57.13012 0.35792,-11.19389 1.83076,-30.61345 -14.43398,-29.35638 -78.80106,0.21656 -157.65311,-0.43343 -236.42225,0.32555 -16.97055,4.77548 -11.12935,24.25768 -12.14377,37.29825 0.93476,13.7337 -2.10125,28.23646 1.995,41.37495 -0.66163,-1.66818 4.67298,6.96657 4.665,4.72125 z M 295,289 c 25.33333,0 50.66667,0 76,0 -0.78088,17.74807 1.77352,35.88279 -1.7138,53.32793 -11.16885,32.45843 -65.57456,30.50978 -73.5097,-3.21006 C 294.14084,322.53197 295.39213,305.68164 295,289 Z m -136,0 c 36.33333,0 72.66667,0 109,0 -0.89374,18.64069 2.15913,37.78044 -2.34134,55.98644 -17.08402,42.91791 -92.81109,38.39941 -101.14424,-8.26781 C 161.91873,325.46596 156.82554,316.0314 159,303.56216 159,298.70811 159,293.85405 159,289 Z M 468.2,17 C 325.82339,17.092476 183.43739,16.815 41.06665,17.138823 20.511043,18.623264 14.989797,40.323624 17,57.339882 17.092476,195.19771 16.814999,333.06491 17.138823,470.91687 18.614493,491.48009 40.317871,497.0131 57.339882,495 195.19771,494.90752 333.06491,495.185 470.91687,494.86118 491.48009,493.38551 497.0131,471.68213 495,454.66012 494.88768,316.79298 495.2246,178.88987 494.83163,41.045227 493.71778,27.695254 481.52666,16.759165 468.2,17 Z M 440,440 c -122.66667,0 -245.33333,0 -368,0 0,-122.66667 0,-245.33333 0,-368 122.66667,0 245.33333,0 368,0 0,122.66667 0,245.33333 0,368 z" />
</svg>
