<?xml version="1.0" encoding="UTF-8" standalone="no"?>
<svg
   xmlns:dc="http://purl.org/dc/elements/1.1/"
   xmlns:cc="http://creativecommons.org/ns#"
   xmlns:rdf="http://www.w3.org/1999/02/22-rdf-syntax-ns#"
   xmlns:svg="http://www.w3.org/2000/svg"
   xmlns="http://www.w3.org/2000/svg"
   xmlns:sodipodi="http://sodipodi.sourceforge.net/DTD/sodipodi-0.dtd"
   xmlns:inkscape="http://www.inkscape.org/namespaces/inkscape"
   width="512"
   height="512"
   viewBox="0 0 512 512"
   version="1.1"
   id="svg4"
   sodipodi:docname="flexible connection.svg"
   inkscape:version="0.92.1 r15371">
  <metadata
     id="metadata10">
    <rdf:RDF>
      <cc:Work
         rdf:about="">
        <dc:format>image/svg+xml</dc:format>
        <dc:type
           rdf:resource="http://purl.org/dc/dcmitype/StillImage" />
      </cc:Work>
    </rdf:RDF>
  </metadata>
  <defs
     id="defs8" />
  <sodipodi:namedview
     pagecolor="#ffffff"
     bordercolor="#666666"
     borderopacity="1"
     objecttolerance="10"
     gridtolerance="10"
     guidetolerance="10"
     inkscape:pageopacity="0"
     inkscape:pageshadow="2"
     inkscape:window-width="638"
     inkscape:window-height="493"
     id="namedview6"
     showgrid="false"
     inkscape:zoom="0.4609375"
     inkscape:cx="256"
     inkscape:cy="256"
     inkscape:window-x="0"
     inkscape:window-y="0"
     inkscape:window-maximized="0"
     inkscape:current-layer="svg4" />
  <path
     id="path2"
     d="m 340.93,435 c -31.63333,0 -63.26667,0 -94.9,0 -10.86,-7.34 -21.72,-14.68 -32.58,-22.02 37,-18.55667 74,-37.11333 111,-55.67 13.87903,-8.9717 -0.0346,-21.50926 -10.73476,-24.15008 C 281.3535,317.86328 248.99175,302.56664 216.63,287.27 c 35.94,-17.96667 71.88,-35.93333 107.82,-53.9 13.79302,-8.81553 0.0959,-21.32019 -10.40141,-24.22312 C 281.56573,192.89792 249.08286,176.64896 216.6,160.4 253.21188,142.85199 290.28136,126.13263 326.60578,108.06406 336.97159,97.94361 323.42452,88.819263 315.04336,84.12224 310.97867,80.955446 298.65357,75.287602 310.70375,77 c 15.70026,-1.13024 32.76477,3.294877 47.0399,-4.951758 C 377.42127,60.5283 374.1646,27.732719 352.61891,20.275 336.48912,15.987125 319.41332,18.818091 302.83749,18 c -44.93806,0.09829 -89.88562,-0.197141 -134.81771,0.148706 -22.93732,0.863733 -35.78777,31.368687 -20.14842,48.25208 12.68019,15.174091 33.51376,9.482306 50.71823,10.599214 22.4968,0 44.99361,0 67.49041,0 10.7,7.133333 21.4,14.266667 32.1,21.4 -37.55663,18.0519 -75.65426,35.13986 -112.87109,53.79719 -10.55744,10.99816 4.2885,19.62391 13.62851,23.12809 32.34086,16.17491 64.68172,32.34981 97.02258,48.52472 -36.87517,18.7458 -74.3205,36.52826 -110.83703,55.88 -10.31982,11.23673 4.70822,19.52541 14.13073,22.81544 32.0521,15.12819 64.1042,30.25637 96.1563,45.38456 -36.65744,18.60171 -73.80908,36.35854 -110.15766,55.48828 -10.05776,10.20916 3.27285,19.40203 11.64563,24.21142 4.04732,3.24145 16.49353,9.07035 4.46828,7.3603 -15.71956,1.13033 -32.80257,-3.29482 -47.09818,4.95176 -19.6884,11.5096 -16.44103,44.32356 5.11302,51.77605 16.13086,4.28268 33.20556,1.45504 49.78142,2.27219 44.94571,-0.0983 89.90094,0.1971 134.84067,-0.14871 22.92384,-0.88394 35.73931,-31.37635 20.1212,-48.25208 C 358.47423,438.82934 349.67563,434.91235 340.93,435 Z" />
</svg>
