<?xml version="1.0" encoding="UTF-8" standalone="no"?>
<svg
   xmlns:dc="http://purl.org/dc/elements/1.1/"
   xmlns:cc="http://creativecommons.org/ns#"
   xmlns:rdf="http://www.w3.org/1999/02/22-rdf-syntax-ns#"
   xmlns:svg="http://www.w3.org/2000/svg"
   xmlns="http://www.w3.org/2000/svg"
   xmlns:sodipodi="http://sodipodi.sourceforge.net/DTD/sodipodi-0.dtd"
   xmlns:inkscape="http://www.inkscape.org/namespaces/inkscape"
   width="512"
   height="512"
   viewBox="0 0 512 512"
   version="1.1"
   id="svg6"
   sodipodi:docname="flood mounted 5a single swithed.svg"
   inkscape:version="0.92.1 r15371">
  <metadata
     id="metadata12">
    <rdf:RDF>
      <cc:Work
         rdf:about="">
        <dc:format>image/svg+xml</dc:format>
        <dc:type
           rdf:resource="http://purl.org/dc/dcmitype/StillImage" />
      </cc:Work>
    </rdf:RDF>
  </metadata>
  <defs
     id="defs10" />
  <sodipodi:namedview
     pagecolor="#ffffff"
     bordercolor="#666666"
     borderopacity="1"
     objecttolerance="10"
     gridtolerance="10"
     guidetolerance="10"
     inkscape:pageopacity="0"
     inkscape:pageshadow="2"
     inkscape:window-width="638"
     inkscape:window-height="493"
     id="namedview8"
     showgrid="false"
     inkscape:zoom="0.4609375"
     inkscape:cx="256"
     inkscape:cy="256"
     inkscape:window-x="0"
     inkscape:window-y="0"
     inkscape:window-maximized="0"
     inkscape:current-layer="svg6" />
  <path
     id="path4"
     d="M 460.24,16 C 324.41333,16 188.58667,16 52.76,16 37.512621,17.873553 43.035983,35.447391 42,46.050771 42,192.11385 42,338.17692 42,484.24 43.873553,499.48738 61.447391,493.96402 72.050771,495 201.44718,495 330.84359,495 460.24,495 475.48738,493.12645 469.96402,475.55261 471,464.94923 471,318.88615 471,172.82308 471,26.76 471.14371,20.997654 466.00235,15.85629 460.24,16 Z m -328,458 c -0.80492,-49.25696 30.34057,-97.3693 76.41105,-115.43512 50.31382,-21.67715 113.65741,-3.99934 145.41404,40.65884 C 370.1381,420.63541 378.19962,447.37281 378.38,474.01 296.34138,474.003 214.23838,474.0233 132.24,474 Z M 448,474 c -16.20667,0 -32.41333,0 -48.62,0 2.18096,-60.28181 -38.95549,-118.582 -95.95,-137.89 -11.71451,-4.19816 -24.20942,-6.69884 -36.43,-7.87 0,-41.08 0,-82.16 0,-123.24 -7.46732,-23.64069 -27.90329,-1.78483 -22,14.15657 0,36.36781 0,72.73562 0,109.10343 -58.51291,3.28184 -111.95179,46.25268 -127.94766,102.60104 -4.53511,13.33789 -5.034,27.88855 -6.99234,41.30896 -0.19246,4.20324 -14.7341,0.68023 -20.642873,1.84 -8.805709,0 -17.611418,0 -26.417127,0 0,-145.33667 0,-290.67333 0,-436.01 128.33333,0 256.66667,0 385,0 0,145.33333 0,290.66667 0,436 z M 193.65,171 c -11.0494,1.48505 -25.87387,-4.41141 -32.87391,6.77531 -4.55891,17.88685 16.69817,15.39587 27.91863,15.22469 24.2924,3.09263 42.57153,-21.81864 39.29528,-44.53026 C 231.29889,126.1106 213.91196,101.31366 189.78185,104 178.25094,107.79275 182.77978,95.525757 182,88.567383 183.57017,82.138339 177.40786,67.976813 188.43026,71 200.30261,69.83382 213.61511,73.884877 224.1875,67.7275 235.66632,50.285708 212.05347,47.118412 199.86133,49 188.81748,49.499802 177.5299,47.916362 166.66578,49.952344 157.00286,58.661778 162.42574,73.230487 161,84.884976 c 0.99565,12.308321 -2.40491,25.638584 2.61875,37.056274 12.00031,8.67014 31.86943,-4.35723 40.89746,10.41738 3.37981,11.14232 5.33026,26.8068 -3.7418,35.87754 -0.57272,0.23349 -7.13288,5.35726 -7.12441,2.76383 z m 54.4,21.23 c 15.16552,1.94057 14.5948,-16.43097 18.46123,-26.45194 -0.65832,-11.18657 10.22442,-7.1738 17.60139,-7.77806 6.97151,1.53727 19.65582,-4.44632 19.71228,6.19459 4.21359,9.86811 2.575,26.21572 15.9651,28.22541 17.10456,-2.05787 8.09834,-20.44166 5.42673,-30.8542 C 314.72336,125.88392 305.61786,89.68215 294.23078,54.333281 280.92324,40.487131 272.2514,60.792105 270.80361,72.348299 260.73908,107.87553 250.67454,143.40277 240.61,178.93 c -1.72546,5.51907 1.84734,11.86818 7.44,13.3 z m 37.34,-92.7 c 3.53667,12.49 7.07333,24.98 10.61,37.47 -5.893,-1.5411 -20.03985,3.16015 -20.51967,-2.47493 3.30528,-11.66381 6.59413,-23.33727 9.90967,-34.99507 z" />
</svg>
