<?xml version="1.0" encoding="UTF-8" standalone="no"?>
<svg
   xmlns:dc="http://purl.org/dc/elements/1.1/"
   xmlns:cc="http://creativecommons.org/ns#"
   xmlns:rdf="http://www.w3.org/1999/02/22-rdf-syntax-ns#"
   xmlns:svg="http://www.w3.org/2000/svg"
   xmlns="http://www.w3.org/2000/svg"
   xmlns:sodipodi="http://sodipodi.sourceforge.net/DTD/sodipodi-0.dtd"
   xmlns:inkscape="http://www.inkscape.org/namespaces/inkscape"
   width="512"
   height="512"
   viewBox="0 0 512 512"
   version="1.1"
   id="svg4"
   sodipodi:docname="linear any type.svg"
   inkscape:version="0.92.1 r15371">
  <metadata
     id="metadata10">
    <rdf:RDF>
      <cc:Work
         rdf:about="">
        <dc:format>image/svg+xml</dc:format>
        <dc:type
           rdf:resource="http://purl.org/dc/dcmitype/StillImage" />
      </cc:Work>
    </rdf:RDF>
  </metadata>
  <defs
     id="defs8" />
  <sodipodi:namedview
     pagecolor="#ffffff"
     bordercolor="#666666"
     borderopacity="1"
     objecttolerance="10"
     gridtolerance="10"
     guidetolerance="10"
     inkscape:pageopacity="0"
     inkscape:pageshadow="2"
     inkscape:window-width="638"
     inkscape:window-height="493"
     id="namedview6"
     showgrid="false"
     inkscape:zoom="0.4609375"
     inkscape:cx="256"
     inkscape:cy="256"
     inkscape:window-x="0"
     inkscape:window-y="0"
     inkscape:window-maximized="0"
     inkscape:current-layer="svg4" />
  <path
     id="path2"
     d="m 480,207.58 c -14.01813,-0.18448 -16.11673,14.87067 -15,25.62973 2.573,8.74633 -3.92412,8.42255 -10.72973,7.79027 C 318.51351,241 182.75676,241 47,241 46.147373,229.85461 50.740115,214.50101 37.815781,208.7525 23.218882,202.6913 14.433,218.83331 17,231.25887 c 0.195381,20.4146 -0.396807,40.86929 0.306973,61.25801 C 20.92743,312.14403 51.601845,304.52012 47,285.62828 48.447215,280.89883 43.453007,269.72795 50.90172,271 c 138.03276,0 276.06552,0 414.09828,0 0.85263,11.14539 -3.74012,26.49899 9.18422,32.2475 14.5969,6.0612 23.38278,-10.08081 20.81578,-22.50637 -0.19538,-20.4146 0.39681,-40.86929 -0.30697,-61.258 C 493.37838,212.68641 486.90597,207.44512 480,207.58 Z" />
</svg>
