<?xml version="1.0" encoding="UTF-8" standalone="no"?>
<svg
   xmlns:dc="http://purl.org/dc/elements/1.1/"
   xmlns:cc="http://creativecommons.org/ns#"
   xmlns:rdf="http://www.w3.org/1999/02/22-rdf-syntax-ns#"
   xmlns:svg="http://www.w3.org/2000/svg"
   xmlns="http://www.w3.org/2000/svg"
   xmlns:sodipodi="http://sodipodi.sourceforge.net/DTD/sodipodi-0.dtd"
   xmlns:inkscape="http://www.inkscape.org/namespaces/inkscape"
   width="512"
   height="512"
   viewBox="0 0 512 512"
   version="1.1"
   id="svg6"
   sodipodi:docname="spot projector any type.svg"
   inkscape:version="0.92.1 r15371">
  <metadata
     id="metadata12">
    <rdf:RDF>
      <cc:Work
         rdf:about="">
        <dc:format>image/svg+xml</dc:format>
        <dc:type
           rdf:resource="http://purl.org/dc/dcmitype/StillImage" />
      </cc:Work>
    </rdf:RDF>
  </metadata>
  <defs
     id="defs10" />
  <sodipodi:namedview
     pagecolor="#ffffff"
     bordercolor="#666666"
     borderopacity="1"
     objecttolerance="10"
     gridtolerance="10"
     guidetolerance="10"
     inkscape:pageopacity="0"
     inkscape:pageshadow="2"
     inkscape:window-width="640"
     inkscape:window-height="493"
     id="namedview8"
     showgrid="false"
     inkscape:zoom="0.4609375"
     inkscape:cx="256"
     inkscape:cy="256"
     inkscape:window-x="0"
     inkscape:window-y="0"
     inkscape:window-maximized="0"
     inkscape:current-layer="svg6" />
  <path
     id="path4"
     d="m 196.85,195.54 c -8.97587,-8.80589 -18.52931,1.39931 -24.58679,8.15864 C 160.30214,215.66243 148.34107,227.62621 136.38,239.59 121.03656,224.46451 106.11421,208.87341 90.506348,194.04031 76.873833,184.99082 65.129165,207.4475 78.866441,214.91644 92.560961,228.61096 106.25548,242.30548 119.95,256 c -15.12067,15.35038 -30.710194,30.27735 -45.536406,45.89365 -9.040227,13.64162 13.400772,25.36908 20.88251,11.63957 C 108.99074,299.83548 122.68537,286.13774 136.38,272.44 c 15.34187,15.1172 30.25065,30.71484 45.86437,45.53047 13.63984,9.052 25.37066,-13.42006 11.62953,-20.88725 C 180.1826,283.38881 166.4913,269.69441 152.8,256 c 15.12092,-15.33925 30.70829,-30.25679 45.53641,-45.86076 3.02025,-4.43391 2.38348,-10.87015 -1.48641,-14.59924 z m 142.7,85.86 c -7.85123,-0.69883 -13.53084,7.25501 -12.56,14.55 -27.01479,0.1551 -54.06025,-0.30981 -81.05594,0.23164 -16.04721,3.1824 -8.39946,27.23527 6.53112,22.76836 24.84494,0 49.68988,0 74.53482,0 -1.25742,9.0775 7.83571,17.29159 16.85343,13.67187 C 394.39762,324.17994 444.94366,315.74908 495.49,307.32 443.52902,298.7099 391.4165,289.86087 339.55,281.4 Z M 248.3,215 c 26.23333,0 52.46667,0 78.7,0 -1.00106,9.00419 8.11518,16.38584 16.84569,13.47561 C 394.46849,220.33797 445.06482,212.04184 495.57,203.2 443.05262,194.50016 390.56727,185.32257 338.03,176.92 c -7.06407,0.25321 -11.70559,7.49074 -11.07,14.08 -27.01405,0.16948 -54.0647,-0.33854 -81.05594,0.25313 C 232.45337,194.25246 234.40182,214.84546 248.3,215 Z M 89.74,340.73 C 51.673217,320.56719 31.17198,273.12119 42.816204,231.6121 49.377255,205.19137 68.049566,182.77697 91.766113,169.81811 103.73653,159.79459 86.539117,141.95884 75.59,152.58 33.901861,176.4267 9.8630028,226.94146 17.829477,274.3266 23.362201,311.35884 47.371318,345.72781 81.175,362.17 c 13.263634,3.44477 20.01678,-15.24302 8.565,-21.44 z" />
</svg>
