<svg xmlns="http://www.w3.org/2000/svg" width="512" height="512"><path d="M376.77 258.63c-13.49 6.69 2.62 14.88 11 10.77 13.46 2.61 45.14-12.62 21.32-23-31.34-10.95-65.3-5.48-97.2-13.69 8.83-3.84 21.4 1.14 27.9-6.51.5-13.06-17.12-5.46-24.62-5.9-16.26-2.58-32.56 18.93-9.72 22.86 30.67 9.24 63.3 4.62 94.19 12.59-7.5 1.79-15.22 2.24-22.87 2.88zm-3.79 27.47c-20.43-1.6-41.14-1.5-61.12-6.78 8.83-3.9 21.44 1.06 27.91-6.64.51-13.06-17.1-5.5-24.6-5.91-16.17-2.57-32.6 18.9-9.72 22.71 30.7 9.03 63.28 4.22 94.16 12.38-7.75 4.77-32.5-3.74-26.5 12.35 9.93 4.24 21.83.53 32.14-1.42 19.09-1.23 13.75-22.65-2.81-21.93-9.65-2.46-19.6-3.74-29.46-4.76zm70.14-49.1c10.21 4.43 21.26-10.88 6.27-12-11.75-2.27-23.74 7.03-21.39 19.63 1.06 11.01-3.1 23.75 4.65 32.92 5.5 6.67 29.58 7.7 22.83-5.76-5.79-3.46-18.47 1.17-15.48-10.27.7-7.8-1.47-16.4 1.2-23.68zm45.3-12c-8.98.31-18.08-.63-26.98.48-12.85 11.36 9.8 8.53 8.57 15.45.31 12.67-.63 25.47.48 38.06 9.84 10.67 13.3-6.28 11.52-14.06V237c8.99 2.6 19.35-7.64 6.41-12zm-154.15 79H113.32c22.62-14.8 30.92-47.06 19.94-71.59-4-9.63-10.74-17.98-18.94-24.38 91.25.05 182.5-.1 273.76.07 10.73.66 13.8 3.71 1.88 4.06-11.06-4.12-27.83 10.47-10.16 12.53 13.04-1.64 29.36-.63 38.2-11.66.66-15.45-21.94-14.88-33.14-16.99-103.92.11-207.85-.23-311.75.17-29.09 1.73-54.08 27.41-55.05 56.53-2.15 28.93 19.73 56.96 48.26 62.07 18.02 2.52 36.37.5 54.53 1.15h213.42c7.65.06 7.55-12.14 0-11.96zM114.1 208.1c-.14.5-1.33-.39 0 0zm-4.82 84.76c-20.06 17.98-54.5 14.09-69.98-7.97-16.65-20.97-10.84-54.86 11.83-69.1 21.8-15.5 55.3-7.96 68.34 15.4 12.24 19.64 7.49 47.13-10.19 61.67zm-21.66-67.41c-8.4-.24-9.12 10.67-13.2 16.15-2.78 4.86-5.58-8.62-8.37-11.57-6.48-11.71-15.1 1.6-12.07 9.93.32 13.24-.64 26.6.48 39.76 9.84 10.67 13.3-6.28 11.52-14.06.04-7.28-1.14-13.5 4.13-3.83 8.94 2.73 10.81-13 9.86 1.4 1.05 6.82-3.45 18.25 6 20.05 9.54-1.9 4.9-13.62 6-20.57-.21-11.16.42-22.4-.32-33.53a5.74 5.74 0 0 0-4.03-3.73z"/></svg>