<?xml version="1.0" encoding="UTF-8" standalone="no"?>
<svg
   xmlns:dc="http://purl.org/dc/elements/1.1/"
   xmlns:cc="http://creativecommons.org/ns#"
   xmlns:rdf="http://www.w3.org/1999/02/22-rdf-syntax-ns#"
   xmlns:svg="http://www.w3.org/2000/svg"
   xmlns="http://www.w3.org/2000/svg"
   xmlns:sodipodi="http://sodipodi.sourceforge.net/DTD/sodipodi-0.dtd"
   xmlns:inkscape="http://www.inkscape.org/namespaces/inkscape"
   width="512"
   height="512"
   viewBox="0 0 512 512"
   version="1.1"
   id="svg4"
   sodipodi:docname="higest change in pipe work - Copy.svg"
   inkscape:version="0.92.1 r15371">
  <metadata
     id="metadata10">
    <rdf:RDF>
      <cc:Work
         rdf:about="">
        <dc:format>image/svg+xml</dc:format>
        <dc:type
           rdf:resource="http://purl.org/dc/dcmitype/StillImage" />
      </cc:Work>
    </rdf:RDF>
  </metadata>
  <defs
     id="defs8" />
  <sodipodi:namedview
     pagecolor="#ffffff"
     bordercolor="#666666"
     borderopacity="1"
     objecttolerance="10"
     gridtolerance="10"
     guidetolerance="10"
     inkscape:pageopacity="0"
     inkscape:pageshadow="2"
     inkscape:window-width="640"
     inkscape:window-height="493"
     id="namedview6"
     showgrid="false"
     inkscape:zoom="0.4609375"
     inkscape:cx="256"
     inkscape:cy="256"
     inkscape:window-x="0"
     inkscape:window-y="0"
     inkscape:window-maximized="0"
     inkscape:current-layer="svg4" />
  <path
     d="m 308.84,460.8 c -9.18804,-13.59934 -32.56517,-9.77804 -40.84,-15.14316 0,-116.84228 0,-233.68456 0,-350.52684 6.50579,-0.376417 11.79813,-5.95668 16.9867,-9.414606 5.08168,-7.097123 10.19904,-14.178552 11.0356,-23.143234 2.25724,-6.77993 -1.08464,-13.998207 -2.56947,-20.615826 -4.19386,-6.680381 -7.51322,-14.1792 -15.01146,-17.767038 -5.57882,-4.930017 -13.69976,-5.223382 -20.64341,-6.437116 -8.09866,1.802104 -16.91202,1.953998 -23.04279,8.299845 -6.58419,3.783569 -9.50818,11.458447 -13.18906,17.695427 -1.71086,7.596532 -4.47917,15.192657 -1.24772,22.791091 1.10849,8.120944 6.44706,15.017423 11.32134,21.281363 4.65759,3.923829 10.4143,7.497709 8.33027,14.487454 0,120.27755 0,240.55509 0,360.83264 -12.82332,8.63181 -34.24909,-21.35221 -41.29971,4.40564 -0.88851,16.54907 18.59292,24.81529 32.48803,26.63956 21.01468,5.462 33.86548,-17.20892 52.3277,-17.54831 9.95718,12.96044 36.18765,8.74358 28.55289,-11.05627 2.31982,0.0254 -5.15538,-5.29414 -3.19891,-4.78062 z"
     id="path2"
     inkscape:connector-curvature="0" />
</svg>
