<?xml version="1.0" encoding="UTF-8" standalone="no"?>
<svg
   xmlns:dc="http://purl.org/dc/elements/1.1/"
   xmlns:cc="http://creativecommons.org/ns#"
   xmlns:rdf="http://www.w3.org/1999/02/22-rdf-syntax-ns#"
   xmlns:svg="http://www.w3.org/2000/svg"
   xmlns="http://www.w3.org/2000/svg"
   xmlns:sodipodi="http://sodipodi.sourceforge.net/DTD/sodipodi-0.dtd"
   xmlns:inkscape="http://www.inkscape.org/namespaces/inkscape"
   width="512"
   height="512"
   viewBox="0 0 512 512"
   version="1.1"
   id="svg4"
   sodipodi:docname="horizontal sidewall sprinkler - Copy.svg"
   inkscape:version="0.92.1 r15371">
  <metadata
     id="metadata10">
    <rdf:RDF>
      <cc:Work
         rdf:about="">
        <dc:format>image/svg+xml</dc:format>
        <dc:type
           rdf:resource="http://purl.org/dc/dcmitype/StillImage" />
      </cc:Work>
    </rdf:RDF>
  </metadata>
  <defs
     id="defs8" />
  <sodipodi:namedview
     pagecolor="#ffffff"
     bordercolor="#666666"
     borderopacity="1"
     objecttolerance="10"
     gridtolerance="10"
     guidetolerance="10"
     inkscape:pageopacity="0"
     inkscape:pageshadow="2"
     inkscape:window-width="640"
     inkscape:window-height="493"
     id="namedview6"
     showgrid="false"
     inkscape:zoom="0.4609375"
     inkscape:cx="256"
     inkscape:cy="256"
     inkscape:window-x="0"
     inkscape:window-y="0"
     inkscape:window-maximized="0"
     inkscape:current-layer="svg4" />
  <path
     d="m 459.76,379 c -47.65333,0 -95.30667,0 -142.96,0 C 375.13033,279.48058 434.07002,180.2963 492.01902,80.567148 503.44183,56.935652 478.3584,32.964519 454.59765,38 318.9354,38.154254 183.25772,37.691333 47.605117,38.231738 22.36649,38.629281 8.0389749,71.048421 24.69793,89.955019 81.531953,186.30335 138.36598,282.65167 195.2,379 c -48.84181,0.21259 -97.721903,-0.42639 -146.539639,0.32163 -28.876108,9.43485 -39.9193355,49.74283 -23.37903,74.5051 6.944681,15.90198 23.707841,22.31215 39.889545,20.17327 131.529704,0 263.059414,0 394.589124,0 25.5338,-3.64358 39.12382,-35.78608 33.35772,-59.04294 C 488.71978,399.32683 477.92912,380.02835 459.76,379 Z M 113.06,86 c 95.3,0 190.6,0 285.9,0 C 351.30667,167.67333 303.65333,249.34667 256,331.02 208.35835,249.34955 160.67659,167.65606 113.06,86 Z"
     id="path2"
     inkscape:connector-curvature="0" />
</svg>
