<?xml version="1.0" encoding="UTF-8" standalone="no"?>
<svg
   xmlns:dc="http://purl.org/dc/elements/1.1/"
   xmlns:cc="http://creativecommons.org/ns#"
   xmlns:rdf="http://www.w3.org/1999/02/22-rdf-syntax-ns#"
   xmlns:svg="http://www.w3.org/2000/svg"
   xmlns="http://www.w3.org/2000/svg"
   xmlns:sodipodi="http://sodipodi.sourceforge.net/DTD/sodipodi-0.dtd"
   xmlns:inkscape="http://www.inkscape.org/namespaces/inkscape"
   width="512"
   height="512"
   viewBox="0 0 512 512"
   version="1.1"
   id="svg4"
   sodipodi:docname="jacking pump - Copy.svg"
   inkscape:version="0.92.1 r15371">
  <metadata
     id="metadata10">
    <rdf:RDF>
      <cc:Work
         rdf:about="">
        <dc:format>image/svg+xml</dc:format>
        <dc:type
           rdf:resource="http://purl.org/dc/dcmitype/StillImage" />
      </cc:Work>
    </rdf:RDF>
  </metadata>
  <defs
     id="defs8" />
  <sodipodi:namedview
     pagecolor="#ffffff"
     bordercolor="#666666"
     borderopacity="1"
     objecttolerance="10"
     gridtolerance="10"
     guidetolerance="10"
     inkscape:pageopacity="0"
     inkscape:pageshadow="2"
     inkscape:window-width="640"
     inkscape:window-height="493"
     id="namedview6"
     showgrid="false"
     inkscape:zoom="0.4609375"
     inkscape:cx="256"
     inkscape:cy="256"
     inkscape:window-x="0"
     inkscape:window-y="0"
     inkscape:window-maximized="0"
     inkscape:current-layer="svg4" />
  <path
     d="m 256,207.96 c -66.01453,-1.24749 -127.93085,49.4088 -140.12865,114.23029 -12.449,56.63634 14.04991,118.82167 63.28865,149.38971 10.27771,8.34524 24.11163,11.93667 36.45134,16.61951 59.20252,18.42295 128.2588,-7.4034 160.86199,-60.18382 C 412.74146,373.66808 404.17639,295.18468 357.09625,249.89375 330.66807,223.24927 293.5535,207.76404 256,207.96 Z M 175,436.3 c -36.91632,-34.32072 -48.57225,-93.17432 -24.23436,-137.93058 5.00698,-9.15265 19.16868,-32.79084 24.23436,-29.35714 0,55.76257 0,111.52515 0,167.28772 z m 81,-202.15 c 54.67615,-1.06241 105.77375,41.56005 114.84,95.43 -51.48,-29.5 -102.96,-59 -154.44,-88.5 12.66283,-4.59506 26.13057,-6.93923 39.6,-6.93 z m -52,29.16 c 51.62,29.59333 103.24,59.18667 154.86,88.78 -51.62,29.57 -103.24,59.14 -154.86,88.71 0,-59.15667 0,-118.36667 0,-177.49 z m 52,204.52 c -9.63395,-0.36202 -35.6186,-1.7334 -34.32868,-7.7766 C 271.24088,431.65227 320.81044,403.25113 370.38,374.85 359.97803,427.918 310.1709,468.60793 256,467.83 Z m -45.72,-404 c 30.8568,0.396605 61.77831,0.05671 92.66,0.17 16.01327,-7.018202 -1.96061,-17.833474 -12.19835,-14 -27.37504,-0.193414 -54.78152,0.391698 -82.1364,-0.30127 -19.57896,-0.749404 -9.91897,-22.748368 -18.98431,-31.194199 -14.14145,-1.873917 -9.74206,17.930474 -7.27234,26.0722 C 186.83789,55.78149 198.40108,63.180686 210.28,63.83 Z m 23.56,57.84 c 7.02945,31.14602 53.74538,36.56513 70.73622,10.97098 9.06902,-12.56543 5.85561,-28.11536 6.43378,-42.61098 -3.51374,-11.03136 -17.09031,-5.811318 -25.82214,-7.03 -32.65262,0 -65.30524,0 -97.95786,0 -15.97689,7.052434 1.99646,17.82109 12.21835,14 10.51722,0 21.03443,0 31.55165,0 1.03107,8.07278 -2.53612,18.02395 2.84,24.67 z M 243,97 c 18.33333,0 36.66667,0 55,0 -0.16306,12.72778 2.68744,28.93326 -11.71447,35.39648 -15.49365,8.90149 -41.13627,0.20214 -40.64053,-19.95023 C 240.67067,109.39967 243.92563,102.13132 243,97 Z"
     id="path2"
     inkscape:connector-curvature="0" />
</svg>
