<?xml version="1.0" encoding="UTF-8" standalone="no"?>
<svg
   xmlns:dc="http://purl.org/dc/elements/1.1/"
   xmlns:cc="http://creativecommons.org/ns#"
   xmlns:rdf="http://www.w3.org/1999/02/22-rdf-syntax-ns#"
   xmlns:svg="http://www.w3.org/2000/svg"
   xmlns="http://www.w3.org/2000/svg"
   xmlns:sodipodi="http://sodipodi.sourceforge.net/DTD/sodipodi-0.dtd"
   xmlns:inkscape="http://www.inkscape.org/namespaces/inkscape"
   width="512"
   height="512"
   viewBox="0 0 512 512"
   version="1.1"
   id="svg4"
   sodipodi:docname="monitored outside screw - Copy.svg"
   inkscape:version="0.92.1 r15371">
  <metadata
     id="metadata10">
    <rdf:RDF>
      <cc:Work
         rdf:about="">
        <dc:format>image/svg+xml</dc:format>
        <dc:type
           rdf:resource="http://purl.org/dc/dcmitype/StillImage" />
      </cc:Work>
    </rdf:RDF>
  </metadata>
  <defs
     id="defs8" />
  <sodipodi:namedview
     pagecolor="#ffffff"
     bordercolor="#666666"
     borderopacity="1"
     objecttolerance="10"
     gridtolerance="10"
     guidetolerance="10"
     inkscape:pageopacity="0"
     inkscape:pageshadow="2"
     inkscape:window-width="640"
     inkscape:window-height="493"
     id="namedview6"
     showgrid="false"
     inkscape:zoom="0.4609375"
     inkscape:cx="256"
     inkscape:cy="256"
     inkscape:window-x="0"
     inkscape:window-y="0"
     inkscape:window-maximized="0"
     inkscape:current-layer="svg4" />
  <path
     d="M 164.92,251.74 C 197.44,186.69333 229.96,121.64667 262.48,56.6 272.48903,36.058481 249.44502,23.396684 232.00718,27 166.93914,27.10782 101.858,26.784081 36.798164,27.162363 16.567551,29.299086 15.447449,53.056195 25.590688,66.168958 56.537126,128.04597 87.483563,189.92299 118.43,251.8 85.615737,317.68082 52.380339,383.36784 19.82918,449.36973 12.94738,468.5135 33.650561,480.20414 50.023616,477 c 66.203964,-0.2933 132.465374,0.58791 198.633274,-0.44289 22.16727,-4.93543 17.47207,-29.33667 7.16339,-43.01655 C 225.52019,372.94037 195.22009,312.34019 164.92,251.74 Z M 73.1,68 c 45.71667,0 91.43333,0 137.15,0 -22.86,45.71667 -45.72,91.43333 -68.58,137.15 C 118.81333,159.43333 95.956667,113.71667 73.1,68 Z m 0,367 c 22.856667,-45.72333 45.71333,-91.44667 68.57,-137.17 22.86,45.72333 45.72,91.44667 68.58,137.17 -45.71667,0 -91.43333,0 -137.15,0 z M 487.7,142.02 C 460.15333,127.77333 432.60667,113.52667 405.06,99.28 433.42895,84.136367 462.71742,70.430501 490.50469,54.377344 501.1533,37.753255 479.0029,33.90723 467.11958,36 411.18638,36 355.25319,36 299.32,36 c -23.19091,7.928854 -1.27939,27.892027 14.51122,22 42.1296,0 84.25919,0 126.38878,0 -21.56351,11.385617 -43.64801,21.905914 -64.88516,33.833594 -10.67568,12.388946 7.45954,19.109216 16.44933,23.474916 C 407.93278,123.539 424.08139,131.7695 440.23,140 c -46.96667,0 -93.93333,0 -140.9,0 -23.19311,7.92622 -1.28149,27.89326 14.51122,22 56.36293,0 112.72585,0 169.08878,0 10.6664,0.29409 14.3614,-15.40294 4.77,-19.98 z M 434.44,463 c -23.42333,0 -46.84667,0 -70.27,0 -19.87484,-4.05651 -50.13128,-12.20318 -47.34573,-39.25264 2.11519,-18.43831 23.30672,-33.54168 40.57413,-26.74736 27.01446,-0.4851 54.20921,0.98181 81.10816,-0.75391 17.86135,-13.84732 -7.10013,-22.6532 -19.89698,-19.24609 -18.14653,0 -36.29305,0 -54.43958,0 -17.01636,-9.17333 -39.13777,1.8456 -52.55325,13.84514 -23.3031,20.47657 -19.58958,60.79373 6.20591,77.70611 15.23793,7.52146 30.25248,17.27998 47.49096,16.44875 24.36306,-0.58062 48.98548,1.17854 73.18138,-0.91016 10.17614,-4.35267 7.19527,-21.05672 -4.055,-21.08984 z"
     id="path2"
     inkscape:connector-curvature="0" />
</svg>
