<?xml version="1.0" encoding="UTF-8" standalone="no"?>
<svg
   xmlns:dc="http://purl.org/dc/elements/1.1/"
   xmlns:cc="http://creativecommons.org/ns#"
   xmlns:rdf="http://www.w3.org/1999/02/22-rdf-syntax-ns#"
   xmlns:svg="http://www.w3.org/2000/svg"
   xmlns="http://www.w3.org/2000/svg"
   xmlns:sodipodi="http://sodipodi.sourceforge.net/DTD/sodipodi-0.dtd"
   xmlns:inkscape="http://www.inkscape.org/namespaces/inkscape"
   width="512"
   height="512"
   viewBox="0 0 512 512"
   version="1.1"
   id="svg4"
   sodipodi:docname="orifice plate.svg"
   inkscape:version="0.92.1 r15371">
  <metadata
     id="metadata10">
    <rdf:RDF>
      <cc:Work
         rdf:about="">
        <dc:format>image/svg+xml</dc:format>
        <dc:type
           rdf:resource="http://purl.org/dc/dcmitype/StillImage" />
      </cc:Work>
    </rdf:RDF>
  </metadata>
  <defs
     id="defs8" />
  <sodipodi:namedview
     pagecolor="#ffffff"
     bordercolor="#666666"
     borderopacity="1"
     objecttolerance="10"
     gridtolerance="10"
     guidetolerance="10"
     inkscape:pageopacity="0"
     inkscape:pageshadow="2"
     inkscape:window-width="640"
     inkscape:window-height="493"
     id="namedview6"
     showgrid="false"
     inkscape:zoom="0.4609375"
     inkscape:cx="256"
     inkscape:cy="256"
     inkscape:window-x="0"
     inkscape:window-y="0"
     inkscape:window-maximized="0"
     inkscape:current-layer="svg4" />
  <path
     d="m 255.5,17.1 c -16.26416,-0.482013 -24.81375,16.415542 -22.5,30.784417 0.0793,142.411843 -0.15867,284.832053 0.11898,427.238653 1.50681,24.55072 40.45238,26.48161 44.41379,2.19765 C 278.61228,434.0488 277.69644,390.64566 278,347.32275 277.92072,243.8479 278.15854,140.36469 277.88113,36.895054 276.8708,25.806407 266.49327,16.916742 255.5,17.1 Z M 366,127.36 c -17.13505,-0.4923 -24.08209,17.45972 -22,31.88622 0.0755,69.758 -0.15108,139.5236 0.11337,209.27685 1.33606,27.22476 45.3235,24.81646 43.88663,-2.24307 -0.0754,-73.03737 0.15093,-146.08231 -0.11326,-219.11495 C 387.00606,136.20785 376.97924,127.138 366,127.36 Z m -221.5,0 c -17.08388,-0.42905 -22.21461,18.01797 -20.5,31.88622 0.0643,69.75826 -0.12863,139.52203 0.0965,209.27685 0.0714,27.27989 43.5527,24.61911 40.90348,-2.24307 -0.0643,-73.03763 0.12863,-146.08076 -0.0965,-219.11495 C 164.38679,136.5709 155.38962,126.98267 144.5,127.36 Z"
     id="path2"
     inkscape:connector-curvature="0" />
</svg>
