<?xml version="1.0" encoding="UTF-8" standalone="no"?>
<svg
   xmlns:dc="http://purl.org/dc/elements/1.1/"
   xmlns:cc="http://creativecommons.org/ns#"
   xmlns:rdf="http://www.w3.org/1999/02/22-rdf-syntax-ns#"
   xmlns:svg="http://www.w3.org/2000/svg"
   xmlns="http://www.w3.org/2000/svg"
   xmlns:sodipodi="http://sodipodi.sourceforge.net/DTD/sodipodi-0.dtd"
   xmlns:inkscape="http://www.inkscape.org/namespaces/inkscape"
   width="512"
   height="512"
   viewBox="0 0 512 512"
   version="1.1"
   id="svg4"
   sodipodi:docname="pipe work riser - Copy.svg"
   inkscape:version="0.92.1 r15371">
  <metadata
     id="metadata10">
    <rdf:RDF>
      <cc:Work
         rdf:about="">
        <dc:format>image/svg+xml</dc:format>
        <dc:type
           rdf:resource="http://purl.org/dc/dcmitype/StillImage" />
      </cc:Work>
    </rdf:RDF>
  </metadata>
  <defs
     id="defs8" />
  <sodipodi:namedview
     pagecolor="#ffffff"
     bordercolor="#666666"
     borderopacity="1"
     objecttolerance="10"
     gridtolerance="10"
     guidetolerance="10"
     inkscape:pageopacity="0"
     inkscape:pageshadow="2"
     inkscape:window-width="640"
     inkscape:window-height="493"
     id="namedview6"
     showgrid="false"
     inkscape:zoom="0.4609375"
     inkscape:cx="256"
     inkscape:cy="256"
     inkscape:window-x="0"
     inkscape:window-y="0"
     inkscape:window-maximized="0"
     inkscape:current-layer="svg4" />
  <path
     d="m 309.26,70 c -1.91741,-0.84357 -0.0212,1.169325 0,0 z m -102.71,0 c -1.63288,-1.006936 -0.41587,1.394385 0,0 z M 308.64,462.24 C 300.3831,449.25388 278.34775,452.62262 271,447.37059 271,336.06039 271,224.7502 271,113.44 300.93761,107.67885 316.28211,67.713896 297.45604,43.605195 288.53605,29.717854 272.29094,21.758833 256.45249,20.61768 233.69412,19.516176 213.16089,40.402158 211.11401,63.019515 208.84039,83.826456 225.12545,103.79507 243,112.92 c 0,117.20667 0,234.41333 0,351.62 -13.64611,9.171 -35.58868,-21.29286 -43.40018,4.32672 -1.41782,16.11042 17.80257,24.21642 31.19692,26.01322 20.47824,5.35066 32.90894,-16.86643 50.89258,-17.13603 C 293.3713,494.11156 323.3778,481.14339 308.65,462.25 Z M 256,87.4 c -12.60619,0.708501 -25.21377,-22.525234 -6.49883,-17.4 8.91301,-2.840857 6.2167,5.927612 6.49883,11.717639 0,1.89412 0,3.788241 0,5.682361 z M 256,68 C 250.74077,66.840199 240.48829,70.441247 238.69653,65.975354 237.75006,53.278632 261.09292,40.146196 256,59.041169 c 0,2.986277 0,5.972554 0,8.958831 z m 2,-20.62 C 267.98506,44.715042 285.74046,66.695157 273.15765,68 268.60644,66.52219 257.84825,71.251355 258,65.07059 258,59.173727 258,53.276863 258,47.38 Z m 0,39.18 c 1.14625,-5.024733 -2.39082,-14.73278 1.95294,-16.56 5.97569,0 11.95137,0 17.92706,0 -0.79118,9.835234 -10.42388,16.761525 -19.88,16.56 z"
     id="path2"
     inkscape:connector-curvature="0" />
</svg>
