<?xml version="1.0" encoding="UTF-8" standalone="no"?>
<svg
   xmlns:dc="http://purl.org/dc/elements/1.1/"
   xmlns:cc="http://creativecommons.org/ns#"
   xmlns:rdf="http://www.w3.org/1999/02/22-rdf-syntax-ns#"
   xmlns:svg="http://www.w3.org/2000/svg"
   xmlns="http://www.w3.org/2000/svg"
   xmlns:sodipodi="http://sodipodi.sourceforge.net/DTD/sodipodi-0.dtd"
   xmlns:inkscape="http://www.inkscape.org/namespaces/inkscape"
   width="512"
   height="512"
   viewBox="0 0 512 512"
   version="1.1"
   id="svg4"
   sodipodi:docname="portable fire - Copy.svg"
   inkscape:version="0.92.1 r15371">
  <metadata
     id="metadata10">
    <rdf:RDF>
      <cc:Work
         rdf:about="">
        <dc:format>image/svg+xml</dc:format>
        <dc:type
           rdf:resource="http://purl.org/dc/dcmitype/StillImage" />
      </cc:Work>
    </rdf:RDF>
  </metadata>
  <defs
     id="defs8" />
  <sodipodi:namedview
     pagecolor="#ffffff"
     bordercolor="#666666"
     borderopacity="1"
     objecttolerance="10"
     gridtolerance="10"
     guidetolerance="10"
     inkscape:pageopacity="0"
     inkscape:pageshadow="2"
     inkscape:window-width="640"
     inkscape:window-height="493"
     id="namedview6"
     showgrid="false"
     inkscape:zoom="0.4609375"
     inkscape:cx="256"
     inkscape:cy="256"
     inkscape:window-x="0"
     inkscape:window-y="0"
     inkscape:window-maximized="0"
     inkscape:current-layer="svg4" />
  <path
     d="M 484.68,20.02 C 467.81819,10.037452 451.88806,25.645514 436.61835,31.560064 299.87843,99.478764 162.8501,166.86349 26.290469,235.116 9.6225267,245.55052 15.436637,272.15357 33.681841,277.04267 176.37123,349.02845 319.06061,421.01422 461.75,493 479.614,502.67973 499.97437,484.38405 496,465.70112 495.85946,322.66651 496.28106,179.61184 495.78922,36.589766 494.8197,29.761851 490.50386,23.623499 484.68,20.02 Z M 448,160.07 c -6.41777,-17.84998 -27.87473,-20.62579 -42.64311,-23.08 -18.62563,0 -37.25126,0 -55.87689,0 -19.32338,2.09136 -33.85435,17.15236 -39.64,34.9775 -0.68166,10.71454 -3.07756,23.05347 2.265,32.78125 22.53161,12.83791 16.36093,-18.29004 22.385,-29.77875 2.78823,-18.2118 24.03054,-13.32886 37.25665,-13.98 16.84682,1.05892 34.51518,-2.70669 50.51708,3.22621 17.25702,9.04749 0.84349,32.56104 14.83346,43.01129 16.2208,-6.9371 9.55864,7.32672 10.88281,18.27915 -0.37827,9.7147 2.49527,26.08708 -6.63625,8.29788 C 430.65036,221.26871 413.84708,218.1569 400.18112,222 c -18.90248,0.30908 -38.43597,-0.54767 -56.70442,0.25525 -27.21154,4.39313 -43.56218,40.96799 -23.15549,61.7808 11.89583,13.99588 28.27682,13.73756 43.855,11.96395 14.26127,0 28.52253,0 42.78379,0 12.42687,10.13014 36.46833,-9.88916 41.02,-18.42422 0,52.51474 0,105.02948 0,157.54422 -50.66667,-25.76667 -101.33333,-51.53333 -152,-77.3 -2.85546,-14.1974 8.3805,0.46962 13.89683,3.42076 19.35984,18.22455 59.75769,2.93856 54.6476,-25.48181 1.49246,-24.22042 -47.89439,-30.9028 -31.21787,-2.77583 24.21344,10.83186 -10.21566,18.18585 -16.94466,4.13647 -10.19277,-6.97325 -18.89953,-16.7067 -30.20065,-21.64209 -15.47321,0.34147 -10.24454,18.78914 -11.15125,29.0376 -3.71073,2.25651 -14.30022,-6.61786 -20.61427,-8.57391 C 199.95716,308.71746 145.51858,281.49373 91.08,254.27 210.05333,195.04 329.02667,135.81 448,76.58 c 0,27.82332 0,55.70002 0,83.49 z M 429.96,260 c -2.73892,16.31313 -21.28044,20.37542 -35.17199,19.98 -15.88885,-0.68634 -32.11602,1.54943 -47.74082,-1.47687 -25.48267,-8.78812 -6.95073,-41.27631 14.96169,-34.52313 16.99796,-0.25673 34.63434,0.63842 51.10684,-0.69742 8.31403,1.20041 16.91579,7.65113 16.84428,16.71742 z"
     id="path2"
     inkscape:connector-curvature="0" />
</svg>
