<?xml version="1.0" encoding="UTF-8" standalone="no"?>
<svg
   xmlns:dc="http://purl.org/dc/elements/1.1/"
   xmlns:cc="http://creativecommons.org/ns#"
   xmlns:rdf="http://www.w3.org/1999/02/22-rdf-syntax-ns#"
   xmlns:svg="http://www.w3.org/2000/svg"
   xmlns="http://www.w3.org/2000/svg"
   xmlns:sodipodi="http://sodipodi.sourceforge.net/DTD/sodipodi-0.dtd"
   xmlns:inkscape="http://www.inkscape.org/namespaces/inkscape"
   width="512"
   height="512"
   viewBox="0 0 512 512"
   version="1.1"
   id="svg6"
   sodipodi:docname="pressure reducing velve.svg"
   inkscape:version="0.92.1 r15371">
  <metadata
     id="metadata12">
    <rdf:RDF>
      <cc:Work
         rdf:about="">
        <dc:format>image/svg+xml</dc:format>
        <dc:type
           rdf:resource="http://purl.org/dc/dcmitype/StillImage" />
      </cc:Work>
    </rdf:RDF>
  </metadata>
  <defs
     id="defs10" />
  <sodipodi:namedview
     pagecolor="#ffffff"
     bordercolor="#666666"
     borderopacity="1"
     objecttolerance="10"
     gridtolerance="10"
     guidetolerance="10"
     inkscape:pageopacity="0"
     inkscape:pageshadow="2"
     inkscape:window-width="640"
     inkscape:window-height="493"
     id="namedview8"
     showgrid="false"
     inkscape:zoom="0.4609375"
     inkscape:cx="256"
     inkscape:cy="256"
     inkscape:window-x="0"
     inkscape:window-y="0"
     inkscape:window-maximized="0"
     inkscape:current-layer="svg6" />
  <path
     d="m 485.9,457.36 c -49.83333,-14.09333 -99.66667,-28.18667 -149.5,-42.28 49.84,-14.10667 99.68,-28.21333 149.52,-42.32 20.52914,-13.67788 -6.397,-25.96881 -19.64662,-16.23606 C 409.19559,372.68263 352.11779,388.84131 295.04,405 c -9.8647,9.11497 -6.80647,15.09263 -13.28182,0.3575 C 250.11212,341.53167 218.46606,277.70583 186.82,213.88 212.99446,160.51296 240.10442,107.54254 265.7,53.93 270.3819,39.331708 256.10228,25.015119 241.58122,26.99 187.26835,27.110326 132.93937,26.749333 78.636562,27.170508 61.389735,29.04341 55.426521,50.769229 65.480107,63.421646 90.330071,113.55776 115.18004,163.69388 140.03,213.83 99.949978,294.93731 59.444713,375.85333 19.63,457.08 c -5.699155,13.73096 8.300377,31.12172 22.439184,26.89 82.689026,-0.1017 165.389606,0.20356 248.071406,-0.15293 20.38764,-1.82438 21.51427,-25.74113 11.40151,-38.87087 -3.83404,-7.7154 -7.66807,-15.4308 -11.5021,-23.1462 12.91445,7.61773 28.90474,9.09559 43.13209,14.07884 50.00592,13.88071 99.79744,28.77926 149.93791,42.02116 11.85854,0.43829 14.43938,-17.83646 2.79,-20.54 z M 115.1,69 c 32.21,0 64.42,0 96.63,0 -16.1,32.47667 -32.2,64.95333 -48.3,97.43 C 147.32,133.95333 131.21,101.47667 115.1,69 Z M 73.2,442 c 30.07333,-60.65333 60.14667,-121.30667 90.22,-181.96 30.07333,60.65333 60.14667,121.30667 90.22,181.96 -60.14667,0 -120.29333,0 -180.44,0 z M 297.88,93 c 24.37333,0 48.74667,0 73.12,0 0.36011,22.78054 -3.81934,48.99208 15.39331,66.1021 29.86318,31.48663 92.21912,21.32058 104.91747,-22.14831 C 494.69221,119.33531 492.26702,101.1022 493,83.2 491.22164,68.213978 473.63033,74.238363 463.26612,73 408.14408,73 353.02204,73 297.9,73 284.20645,72.376905 284.3009,93.642508 297.88,93 Z M 393,93 c 26.66667,0 53.33333,0 80,0 -1.28648,18.31649 5.21724,40.745 -11.69375,53.8625 C 439.16542,166.84361 392.85642,155.0457 393,122.08041 393,112.38694 393,102.69347 393,93 Z m -22,175.36 c -25.76,10.75667 -51.52,21.51333 -77.28,32.27 -18.40674,15.3358 8.4455,25.55988 20.36119,14.24546 20.85627,-8.68849 41.71254,-17.37697 62.56881,-26.06546 20.83277,41.93773 89.26441,42.49151 110.785,0.93266 9.41524,-18.97713 4.22755,-40.61013 5.565,-61.00042 3.26911,-14.6475 -11.52126,-18.79288 -23.13592,-16.76224 -57.32136,0 -114.64272,0 -171.96408,0 -23.4577,7.60469 -0.89966,26.75634 14.51551,21 19.52817,0 39.05633,0 58.58449,0 0,11.79333 0,23.58667 0,35.38 z M 393,233 c 26.66667,0 53.33333,0 80,0 -1.61391,18.36838 5.23912,39.991 -9.11512,54.7117 C 442.66507,310.70138 392.94362,299.66134 393,265.28041 393,254.52027 393,243.76014 393,233 Z"
     id="path4"
     inkscape:connector-curvature="0" />
</svg>
