<?xml version="1.0" encoding="UTF-8" standalone="no"?>
<svg
   xmlns:dc="http://purl.org/dc/elements/1.1/"
   xmlns:cc="http://creativecommons.org/ns#"
   xmlns:rdf="http://www.w3.org/1999/02/22-rdf-syntax-ns#"
   xmlns:svg="http://www.w3.org/2000/svg"
   xmlns="http://www.w3.org/2000/svg"
   xmlns:sodipodi="http://sodipodi.sourceforge.net/DTD/sodipodi-0.dtd"
   xmlns:inkscape="http://www.inkscape.org/namespaces/inkscape"
   width="512"
   height="512"
   viewBox="0 0 512 512"
   version="1.1"
   id="svg6"
   sodipodi:docname="sight glass.svg"
   inkscape:version="0.92.1 r15371">
  <metadata
     id="metadata12">
    <rdf:RDF>
      <cc:Work
         rdf:about="">
        <dc:format>image/svg+xml</dc:format>
        <dc:type
           rdf:resource="http://purl.org/dc/dcmitype/StillImage" />
      </cc:Work>
    </rdf:RDF>
  </metadata>
  <defs
     id="defs10" />
  <sodipodi:namedview
     pagecolor="#ffffff"
     bordercolor="#666666"
     borderopacity="1"
     objecttolerance="10"
     gridtolerance="10"
     guidetolerance="10"
     inkscape:pageopacity="0"
     inkscape:pageshadow="2"
     inkscape:window-width="638"
     inkscape:window-height="493"
     id="namedview8"
     showgrid="false"
     inkscape:zoom="0.4609375"
     inkscape:cx="256"
     inkscape:cy="256"
     inkscape:window-x="0"
     inkscape:window-y="0"
     inkscape:window-maximized="0"
     inkscape:current-layer="svg6" />
  <path
     d="m 385.7,314.97 c -5.9609,-41.12691 -56.86097,-62.3648 -92.30924,-44.09857 -15.2453,6.01452 -23.63242,20.57466 -33.68727,32.0723 -12.61973,21.79175 -24.87958,44.10984 -37.71786,65.56359 -19.81076,20.16984 -61.59995,10.24989 -64.80362,-19.54061 -7.4508,-19.02696 3.39318,-39.45848 14.24383,-55.81222 19.59424,-12.26976 -5.10256,-40.31298 -17.82905,-20.28878 -16.58845,21.29639 -27.44548,48.01038 -27.07242,75.21476 8.22972,18.97363 16.51736,41.64905 37.81121,50.52849 30.42905,15.81982 73.46109,4.18886 88.13192,-27.76896 5.86741,-14.52995 15.43397,-27.71069 22.76949,-41.70517 4.26786,-8.06645 8.84762,-15.71788 15.11709,-22.16214 16.626,-25.20181 62.81208,-19.5106 69.06434,11.32012 5.84688,16.3269 3.77391,33.21058 -3.49959,49.56475 -17.112,17.16069 14.47667,40.51059 22.23801,15.3879 6.93918,-20.7742 19.97272,-48.09314 7.55316,-68.26546 z M 465.85,106 C 325.24519,106.0882 184.63179,105.82356 44.032349,106.13238 27.796296,107.12462 16.468753,123.20437 19,138.80921 c 0.09857,67.7833 -0.197394,135.57743 0.148438,203.35395 1.874138,22.8226 34.41333,32.14292 48.388491,14.12642 C 77.98754,343.65239 72.703458,326.42291 74,311.42163 74,260.94775 74,210.47388 74,160 c 121.66667,0 243.33333,0 365,0 0.0953,60.71979 -0.1906,121.44965 0.14282,182.16316 1.50377,22.70405 33.88339,32.2294 47.59102,14.12642 10.16895,-12.7536 4.98791,-29.87468 6.26616,-44.86795 -0.0957,-60.67891 0.19175,-121.36804 -0.14429,-182.04053 C 491.60973,116.07986 478.98516,105.77719 465.85,106 Z"
     id="path4"
     inkscape:connector-curvature="0" />
</svg>
