<?xml version="1.0" encoding="UTF-8" standalone="no"?>
<svg
   xmlns:dc="http://purl.org/dc/elements/1.1/"
   xmlns:cc="http://creativecommons.org/ns#"
   xmlns:rdf="http://www.w3.org/1999/02/22-rdf-syntax-ns#"
   xmlns:svg="http://www.w3.org/2000/svg"
   xmlns="http://www.w3.org/2000/svg"
   xmlns:sodipodi="http://sodipodi.sourceforge.net/DTD/sodipodi-0.dtd"
   xmlns:inkscape="http://www.inkscape.org/namespaces/inkscape"
   width="512"
   height="512"
   viewBox="0 0 512 512"
   version="1.1"
   id="svg4"
   sodipodi:docname="single check valve.svg"
   inkscape:version="0.92.1 r15371">
  <metadata
     id="metadata10">
    <rdf:RDF>
      <cc:Work
         rdf:about="">
        <dc:format>image/svg+xml</dc:format>
        <dc:type
           rdf:resource="http://purl.org/dc/dcmitype/StillImage" />
      </cc:Work>
    </rdf:RDF>
  </metadata>
  <defs
     id="defs8" />
  <sodipodi:namedview
     pagecolor="#ffffff"
     bordercolor="#666666"
     borderopacity="1"
     objecttolerance="10"
     gridtolerance="10"
     guidetolerance="10"
     inkscape:pageopacity="0"
     inkscape:pageshadow="2"
     inkscape:window-width="640"
     inkscape:window-height="493"
     id="namedview6"
     showgrid="false"
     inkscape:zoom="0.4609375"
     inkscape:cx="256"
     inkscape:cy="256"
     inkscape:window-x="0"
     inkscape:window-y="0"
     inkscape:window-maximized="0"
     inkscape:current-layer="svg4" />
  <path
     d="m 363.08,464 c -59.74333,0 -119.48667,0 -179.23,0 66.1,-132.64667 132.2,-265.29333 198.3,-397.94 4.63465,-14.813479 2.08437,-34.984976 -15.35438,-39.063438 C 365.29159,15.736961 357.6107,16.287124 347.86441,16.99 280.8302,17.131902 213.76848,16.706273 146.75146,17.202671 127.87123,24.297363 122.06661,51.330094 133.7975,67.1775 138.72593,78.065876 150.64451,78.77406 160.88939,78 216.64959,78 272.4098,78 328.17,78 261.75732,207.54767 194.91098,336.89013 128.76951,466.56613 c -6.10597,15.22274 8.98937,31.28703 24.52209,28.42387 71.36927,-0.11997 142.74863,0.2405 214.11156,-0.18121 C 393.37018,494.14435 387.79178,460.00678 363.08,464 Z"
     id="path2"
     inkscape:connector-curvature="0" />
</svg>
