<?xml version="1.0" encoding="UTF-8" standalone="no"?>
<svg
   xmlns:dc="http://purl.org/dc/elements/1.1/"
   xmlns:cc="http://creativecommons.org/ns#"
   xmlns:rdf="http://www.w3.org/1999/02/22-rdf-syntax-ns#"
   xmlns:svg="http://www.w3.org/2000/svg"
   xmlns="http://www.w3.org/2000/svg"
   xmlns:sodipodi="http://sodipodi.sourceforge.net/DTD/sodipodi-0.dtd"
   xmlns:inkscape="http://www.inkscape.org/namespaces/inkscape"
   width="512"
   height="512"
   viewBox="0 0 512 512"
   version="1.1"
   id="svg6"
   sodipodi:docname="sluice velve.svg"
   inkscape:version="0.92.1 r15371">
  <metadata
     id="metadata12">
    <rdf:RDF>
      <cc:Work
         rdf:about="">
        <dc:format>image/svg+xml</dc:format>
        <dc:type
           rdf:resource="http://purl.org/dc/dcmitype/StillImage" />
      </cc:Work>
    </rdf:RDF>
  </metadata>
  <defs
     id="defs10" />
  <sodipodi:namedview
     pagecolor="#ffffff"
     bordercolor="#666666"
     borderopacity="1"
     objecttolerance="10"
     gridtolerance="10"
     guidetolerance="10"
     inkscape:pageopacity="0"
     inkscape:pageshadow="2"
     inkscape:window-width="640"
     inkscape:window-height="493"
     id="namedview8"
     showgrid="false"
     inkscape:zoom="0.4609375"
     inkscape:cx="256"
     inkscape:cy="256"
     inkscape:window-x="0"
     inkscape:window-y="0"
     inkscape:window-maximized="0"
     inkscape:current-layer="svg6" />
  <path
     d="m 286.72,143.27 c -17.74984,22.93718 -32.08868,56.88325 -17.02115,84.59715 17.16991,30.1218 64.37484,33.09865 85.74115,6.12285 10.66707,-5.96482 13.67264,-19.65262 20.59618,-29.3357 10.27968,-16.6983 17.63956,-37.99921 38.24698,-44.0443 23.85879,-7.44566 45.24187,17.15519 37.46105,39.88744 -3.28672,14.36228 -19.77608,51.56321 9.09641,39.5899 11.8036,-23.02041 19.70793,-53.00843 6.8912,-77.18449 C 448.85928,129.4597 393.55875,130.33877 376.13,164.67 c -10.2,10.49581 -15.3957,25.25084 -23.45479,37.56141 -8.35141,15.47029 -22.61523,31.81656 -42.26686,28.64114 -27.84641,-2.32472 -30.40983,-34.84681 -19.10067,-54.36151 7.61782,-11.24768 25.96826,-39.82088 -1.28909,-35.92042 L 286.73,143.31 Z M 459.98,287 c -64.05528,0.082 -128.11869,-0.16413 -192.16889,0.1233 C 252.2643,285.57881 250.3847,299.50093 252,311.03082 c 0.28613,20.59354 -0.56968,41.29762 0.42279,61.82279 7.66696,15.36089 35.54769,7.86037 30.57721,-9.92402 0,-15.30986 0,-30.61973 0,-45.92959 59.70231,-0.26831 119.50313,0.53594 179.14404,-0.4009 C 473.94758,311.09694 473.26923,289.86284 459.98,287 Z M 188.75,259.77 C 222.61333,191.6516 257.11749,123.81866 290.58016,55.521777 296.90063,37.344214 281.24438,14.0675 261.25785,18 192.99251,18.250503 124.65933,17.498941 56.436387,18.375859 38.981537,24.988502 32.272025,47.971834 43.440052,62.920173 75.870035,128.15678 108.30002,193.39339 140.73,258.63 106.85365,326.87972 72.502866,394.91322 38.923535,463.2983 32.660899,479.79136 48.79067,497.34339 65.648675,494 c 68.413775,0 136.827555,0 205.241325,0 24.32814,-0.99785 25.19406,-29.66259 12.53375,-44.4313 C 251.87127,386.31002 220.27529,322.99092 188.75,259.77 Z M 93.93,79 c 47.21,0 94.42,0 141.63,0 -23.60333,47.21 -47.20667,94.42 -70.81,141.63 C 141.14333,173.42 117.53667,126.21 93.93,79 Z m 0,386 c 23.6,-47.21 47.2,-94.42 70.8,-141.63 23.61333,47.21 47.22667,94.42 70.84,141.63 -47.21333,0 -94.42667,0 -141.64,0 z"
     id="path4"
     inkscape:connector-curvature="0" />
</svg>
