<?xml version="1.0" encoding="UTF-8" standalone="no"?>
<svg
   xmlns:dc="http://purl.org/dc/elements/1.1/"
   xmlns:cc="http://creativecommons.org/ns#"
   xmlns:rdf="http://www.w3.org/1999/02/22-rdf-syntax-ns#"
   xmlns:svg="http://www.w3.org/2000/svg"
   xmlns="http://www.w3.org/2000/svg"
   xmlns:sodipodi="http://sodipodi.sourceforge.net/DTD/sodipodi-0.dtd"
   xmlns:inkscape="http://www.inkscape.org/namespaces/inkscape"
   width="512"
   height="512"
   viewBox="0 0 512 512"
   version="1.1"
   id="svg8"
   sodipodi:docname="sprinkler control velve.svg"
   inkscape:version="0.92.1 r15371">
  <metadata
     id="metadata14">
    <rdf:RDF>
      <cc:Work
         rdf:about="">
        <dc:format>image/svg+xml</dc:format>
        <dc:type
           rdf:resource="http://purl.org/dc/dcmitype/StillImage" />
      </cc:Work>
    </rdf:RDF>
  </metadata>
  <defs
     id="defs12" />
  <sodipodi:namedview
     pagecolor="#ffffff"
     bordercolor="#666666"
     borderopacity="1"
     objecttolerance="10"
     gridtolerance="10"
     guidetolerance="10"
     inkscape:pageopacity="0"
     inkscape:pageshadow="2"
     inkscape:window-width="638"
     inkscape:window-height="493"
     id="namedview10"
     showgrid="false"
     inkscape:zoom="0.4609375"
     inkscape:cx="256"
     inkscape:cy="256"
     inkscape:window-x="0"
     inkscape:window-y="0"
     inkscape:window-maximized="0"
     inkscape:current-layer="svg8" />
  <path
     d="m 328.97,359.17 c -8.18085,1.83065 -16.96999,0.35406 -25.4,0.83 -14.4489,-3.87378 -21.18344,11.29845 -18.57,22.94623 6.1073,10.89826 6.37536,-6.34708 6.23469,-11.60873 4.76983,-8.89682 15.58269,-4.14695 23.79121,-5.3275 8.07595,1.15987 17.81885,-3.15618 23.62051,3.97844 -1.29471,5.82844 2.10452,25.84044 6.35359,11.04672 2.62476,-11.20794 -2.5438,-21.70803 -16.03,-21.86516 z m 15.95,39.51 c -5.53111,-4.66355 -13.75018,1.93712 -20.45662,2.57368 -13.09139,4.13038 -26.88918,6.75161 -39.53213,11.84007 -0.6964,7.85153 11.76265,6.2599 17.30535,9.2734 13.24937,3.6686 26.43391,7.6443 39.7234,11.12285 8.26122,-6.92519 -8.66961,-8.1037 -13.86727,-10.23822 -9.78091,-2.76726 -19.56182,-5.53452 -29.34273,-8.30178 14.68,-4.15667 29.36,-8.31333 44.04,-12.47 1.4106,2.57358 2.84951,-5.26232 2.13,-3.8 z M 196.32,91 c 40.58333,0 81.16667,0 121.75,0 9.56057,-2.378648 4.7609,-14.388509 5.93,-21.634178 C 323.71075,53.45514 324.58438,37.435548 323.55297,21.594375 318.57358,15.135589 308.96673,19.098604 301.77754,18 266.62503,18 231.47251,18 196.32,18 c -10.02441,1.787762 -5.17268,14.042043 -6.32,21.234178 0.32649,15.931184 -0.66046,31.998 0.50656,47.842385 0.96664,2.27569 3.30877,3.942021 5.81344,3.923437 z M 311,79 c -25.71,0 -51.42,0 -77.13,0 25.71,-6.54 51.42,-13.08 77.13,-19.62 0,6.54 0,13.08 0,19.62 z m 0,-49 c 0,6.643333 0,13.286667 0,19.93 C 284.87667,43.286667 258.75333,36.643333 232.63,30 c 26.12333,0 52.24667,0 78.37,0 z m -109,0 c 13.34548,0.35533 26.01589,6.039362 39.07774,8.633471 C 262.22516,44.078981 283.37258,49.52449 304.52,54.97 271.99713,62.897559 239.55488,71.482601 206.98172,79 198.32441,81.244773 203.29814,69.858499 202,64.7441 202,53.162733 202,41.581367 202,30 Z m 102.87,423.87 c -5.86,3.42 -11.72,6.84 -17.58,10.26 -6.10667,-24.72667 -12.21333,-49.45333 -18.32,-74.18 17.72894,-28.90301 0.8792,-70.57168 -31.61032,-79.5703 -31.69799,-11.0546 -68.81394,13.53049 -71.14476,46.97526 -3.71375,28.88233 19.35792,57.56961 48.31508,60.28504 19.49333,18.27333 38.98667,36.54667 58.48,54.82 -6.66443,4.78862 -15.78053,7.1334 -20.40125,14.005 0.60919,14.09077 14.91211,3.74274 21.397,-0.26503 12.8913,-7.87978 26.5186,-14.72357 38.93331,-23.27544 4.0665,-5.23299 -2.39789,-12.48832 -8.06906,-9.05453 z m -126.58,-90.9 c -1.03886,-27.68938 29.23591,-50.03799 55.3893,-40.79645 26.56387,7.2409 38.98863,42.40116 22.71226,64.66172 -14.51071,23.36475 -51.66004,25.16865 -68.34044,3.28822 -6.27981,-7.55688 -9.80239,-17.32508 -9.76112,-27.15349 z m 53.56,54 c 13.19243,2.13312 29.53854,-25.72526 30.16539,-3.6456 3.41821,13.84186 6.83641,27.68373 10.25461,41.5256 -13.46843,-12.61541 -26.97589,-25.32073 -40.42,-37.88 z m 85.82,-92.53 c -5.76388,4.78459 -7.75901,13.67713 -12.51641,19.14547 C 286.8807,350.14179 291.79584,327.25154 295.4,319.23 c -13.09392,1.55409 -15.07052,26.88087 -0.70742,30.92145 14.56225,5.61731 19.47771,-9.58511 25.15991,-19.29081 9.99632,-15.61939 26.3817,1.76654 17.13126,14.59311 17.65188,3.00069 6.39167,-37.07722 -12.46375,-26.27125 -2.72903,1.0159 -5.26233,2.89283 -6.85,5.2575 z m -55.5,-147.27 c -11.68649,0.49454 -24.35934,-2.4194 -35.21586,2.96232 -17.00625,10.33747 -1.47591,33.16842 15.08725,28.86768 12.62149,-0.94007 29.32819,4.02348 36.7283,-9.68109 C 284.33033,188.28936 273.34035,176.56788 262.17,177.17 Z m 0.02,25.74 c -10.39203,-0.46496 -21.39976,1.68933 -31.34832,-1.64023 -14.43454,-11.90865 5.41693,-21.38229 16.80111,-18.25977 9.43958,0.42666 24.209,-2.84136 26.35721,10.09 -0.046,6.10099 -6.31738,9.90222 -11.81,9.81 z M 219.7,248.4 c 5.66041,4.20872 12.78777,-3.59104 19.00806,-4.89374 10.94968,-7.92231 19.11494,16.58346 33.10374,4.26253 10.29108,-5.08356 7.98217,-17.01444 8.1782,-26.31879 -2.95748,-6.76057 -13.05816,-2.0296 -19.19246,-3.44 -13.13975,0.20799 -26.38416,-0.41428 -39.4591,0.30781 -5.67825,9.84026 9.82747,5.97039 15.45746,6.69219 7.85044,-3.33101 7.27162,6.42275 5.34061,10.2568 -7.34419,3.81313 -16.01825,5.7222 -22.48651,10.78945 l 0.06,2.36375 z M 249,225 c 8.33333,0 16.66667,0 25,0 2.79467,11.11295 -6.32564,24.3558 -18.49018,17.42305 C 249.70329,238.94482 248.68611,231.1672 249,225 Z m -14.13,119.02 c -8.35631,-5.9282 -19.98446,-5.18705 -28.27258,0.30966 -9.72832,6.02131 -12.14178,19.04328 -7.40056,29.03131 3.80062,10.1575 15.82939,16.37009 26.32372,14.18062 11.09501,-1.98596 19.67076,-12.71345 18.46942,-24.00126 0.49035,-4.35899 -2.00011,-8.24904 -3,-12.38033"
     id="path6"
     inkscape:connector-curvature="0" />
</svg>
