<?xml version="1.0" encoding="UTF-8" standalone="no"?>
<svg
   xmlns:dc="http://purl.org/dc/elements/1.1/"
   xmlns:cc="http://creativecommons.org/ns#"
   xmlns:rdf="http://www.w3.org/1999/02/22-rdf-syntax-ns#"
   xmlns:svg="http://www.w3.org/2000/svg"
   xmlns="http://www.w3.org/2000/svg"
   xmlns:sodipodi="http://sodipodi.sourceforge.net/DTD/sodipodi-0.dtd"
   xmlns:inkscape="http://www.inkscape.org/namespaces/inkscape"
   width="512"
   height="512"
   viewBox="0 0 512 512"
   version="1.1"
   id="svg4"
   sodipodi:docname="upright sprinkler exposed.svg"
   inkscape:version="0.92.1 r15371">
  <metadata
     id="metadata10">
    <rdf:RDF>
      <cc:Work
         rdf:about="">
        <dc:format>image/svg+xml</dc:format>
        <dc:type
           rdf:resource="http://purl.org/dc/dcmitype/StillImage" />
      </cc:Work>
    </rdf:RDF>
  </metadata>
  <defs
     id="defs8" />
  <sodipodi:namedview
     pagecolor="#ffffff"
     bordercolor="#666666"
     borderopacity="1"
     objecttolerance="10"
     gridtolerance="10"
     guidetolerance="10"
     inkscape:pageopacity="0"
     inkscape:pageshadow="2"
     inkscape:window-width="640"
     inkscape:window-height="493"
     id="namedview6"
     showgrid="false"
     inkscape:zoom="0.4609375"
     inkscape:cx="256"
     inkscape:cy="256"
     inkscape:window-x="0"
     inkscape:window-y="0"
     inkscape:window-maximized="0"
     inkscape:current-layer="svg4" />
  <path
     d="M 433.76,414.63 C 493.25228,350.43204 511.72105,252.48356 479.69944,171.09466 446.91743,82.101617 357.14521,17.971501 262.16635,16.808324 201.99366,14.905709 141.9495,37.946187 97.4,78.23 82.383927,64.329041 69.350906,47.865812 52.935469,35.7675 31.511278,26.969897 19.556922,59.184538 38.53555,69.49555 49.987033,80.947033 61.438517,92.398517 72.89,103.85 15.583385,170.1208 0.49166537,268.81528 35.559063,349.06547 71.272844,435.96529 161.90037,496.56338 256,495.3 c 55.3218,0.27909 109.91472,-20.68737 152.15,-56.15 15.1705,14.11769 28.43613,30.69174 44.985,43.0375 21.42217,8.80886 33.38151,-23.41909 14.41069,-33.73429 C 456.29049,437.17882 444.98186,425.90438 433.76,414.63 Z M 256,424.37 C 176.81626,425.93032 102.87907,363.89024 90.283829,285.77538 81.613683,239.77182 94.197393,190.7235 123.01,153.97 201.35333,232.31333 279.69667,310.65667 358.04,389 329.07307,411.46183 292.75342,424.53576 256,424.37 Z M 383.66,364.53 C 304.93333,285.80667 226.20667,207.08333 147.48,128.36 200.27372,81.296034 283.40152,74.24476 343.24187,112.0427 409.9187,150.94097 442.11247,238.96549 414.67006,311.38913 407.67951,330.78941 397.0106,348.86795 383.66,364.53 Z"
     id="path2"
     inkscape:connector-curvature="0" />
</svg>
