<?xml version="1.0" encoding="UTF-8" standalone="no"?>
<svg
   xmlns:dc="http://purl.org/dc/elements/1.1/"
   xmlns:cc="http://creativecommons.org/ns#"
   xmlns:rdf="http://www.w3.org/1999/02/22-rdf-syntax-ns#"
   xmlns:svg="http://www.w3.org/2000/svg"
   xmlns="http://www.w3.org/2000/svg"
   xmlns:sodipodi="http://sodipodi.sourceforge.net/DTD/sodipodi-0.dtd"
   xmlns:inkscape="http://www.inkscape.org/namespaces/inkscape"
   width="512"
   height="512"
   viewBox="0 0 512 512"
   version="1.1"
   id="svg6"
   sodipodi:docname="water motor.svg"
   inkscape:version="0.92.1 r15371">
  <metadata
     id="metadata12">
    <rdf:RDF>
      <cc:Work
         rdf:about="">
        <dc:format>image/svg+xml</dc:format>
        <dc:type
           rdf:resource="http://purl.org/dc/dcmitype/StillImage" />
      </cc:Work>
    </rdf:RDF>
  </metadata>
  <defs
     id="defs10" />
  <sodipodi:namedview
     pagecolor="#ffffff"
     bordercolor="#666666"
     borderopacity="1"
     objecttolerance="10"
     gridtolerance="10"
     guidetolerance="10"
     inkscape:pageopacity="0"
     inkscape:pageshadow="2"
     inkscape:window-width="638"
     inkscape:window-height="493"
     id="namedview8"
     showgrid="false"
     inkscape:zoom="0.4609375"
     inkscape:cx="256"
     inkscape:cy="256"
     inkscape:window-x="0"
     inkscape:window-y="0"
     inkscape:window-maximized="0"
     inkscape:current-layer="svg6" />
  <path
     d="m 360,211.9 c -3.13533,-14.88429 -20.60832,-8.53725 -31.48205,-9.9 -55.52598,0 -111.05197,0 -166.57795,0 -14.92489,3.09061 -8.58272,20.57801 -9.94,31.45205 1.44046,9.85526 -3.66247,22.22255 4.35,29.78795 8.10835,45.27181 71.49991,60.26136 102.87891,29.26063 11.33362,-23.6823 27.32437,13.41255 47.93267,7.51258 C 334.59778,303.14599 369.724,277.48837 360,247.96 c 0,-12.02 0,-24.04 0,-36.06 z m -101,42.6 c -0.81078,37.67128 -56.89936,49.42012 -77.57301,20.52686 C 170.87275,259.39093 171.82359,240.13883 172,222 c 29,0 58,0 87,0 0,10.81998 0,21.74669 0,32.5 z m 51.1,27.9 c -18.76039,1.06608 -37.53301,-15.06067 -34.1,-34.63502 0,-8.58832 0,-17.17665 0,-25.76498 21.33333,0 42.66667,0 64,0 0.47905,12.27298 -0.97122,24.78931 0.745,36.90625 3.88124,13.4793 -18.66589,24.39994 -30.645,23.49375 z m 94,96.73 c 55.35798,-62.83042 61.21663,-162.46662 13.55483,-231.32346 -13.59842,-11.24759 -12.27397,-20.5423 1.12982,-29.66119 C 442.84374,93.759624 467.59067,69.996787 491.21406,45.216504 504.80087,25.25454 471.82263,6.6444622 460.2101,26.8699 433.64673,53.433267 407.08337,79.996633 380.52,106.56 317.18101,51.961444 217.65112,47.099797 149.33058,95.342963 138.09382,109.04835 128.74314,108.21619 119.53064,94.570064 94.677443,70.06524 70.453556,44.8652 45.206094,20.795937 25.242822,7.2053256 6.6458812,40.188173 26.861467,51.798333 53.970978,78.885555 81.080489,105.97278 108.19,133.06 54.194796,197.04953 50.450375,296.78775 99.57707,364.60402 c 15.35089,10.3766 5.54204,18.62889 -4.383369,27.24393 -24.717682,25.05084 -50.131444,49.47211 -74.407764,74.92215 -13.5941577,19.97854 19.400257,38.57462 31.033963,18.37 27.543367,-27.54337 55.08673,-55.08673 82.6301,-82.6301 63.48332,54.70757 163.29214,59.45243 231.62848,10.91982 10.41193,-15.1506 18.58405,-5.06645 27.13529,4.67066 24.60197,24.28326 48.57514,49.26086 73.57295,73.10702 19.96772,13.56998 38.58038,-19.37322 18.35405,-30.99807 C 458.12954,433.18198 431.09945,406.16233 404.1,379.13 Z M 369,365.3 C 319.24494,417.34441 232.68791,427.03929 172.76193,387.00044 111.11783,349.0735 83.421525,265.98692 110.42479,198.75632 134.836,131.50649 208.996,87.326129 279.7967,98.829395 310.46661,103.139 339.67153,116.92428 362.63,137.69 c 15.28504,16.21052 31.96966,33.85515 39.96403,56.24588 C 427.2851,251.19167 413.42902,321.59712 369,365.3 Z"
     id="path4"
     inkscape:connector-curvature="0" />
</svg>
