<?xml version="1.0" encoding="UTF-8" standalone="no"?>
<svg
   xmlns:dc="http://purl.org/dc/elements/1.1/"
   xmlns:cc="http://creativecommons.org/ns#"
   xmlns:rdf="http://www.w3.org/1999/02/22-rdf-syntax-ns#"
   xmlns:svg="http://www.w3.org/2000/svg"
   xmlns="http://www.w3.org/2000/svg"
   xmlns:sodipodi="http://sodipodi.sourceforge.net/DTD/sodipodi-0.dtd"
   xmlns:inkscape="http://www.inkscape.org/namespaces/inkscape"
   width="512"
   height="512"
   viewBox="0 0 512 512"
   version="1.1"
   id="svg4"
   sodipodi:docname="y type strainer.svg"
   inkscape:version="0.92.1 r15371">
  <metadata
     id="metadata10">
    <rdf:RDF>
      <cc:Work
         rdf:about="">
        <dc:format>image/svg+xml</dc:format>
        <dc:type
           rdf:resource="http://purl.org/dc/dcmitype/StillImage" />
      </cc:Work>
    </rdf:RDF>
  </metadata>
  <defs
     id="defs8" />
  <sodipodi:namedview
     pagecolor="#ffffff"
     bordercolor="#666666"
     borderopacity="1"
     objecttolerance="10"
     gridtolerance="10"
     guidetolerance="10"
     inkscape:pageopacity="0"
     inkscape:pageshadow="2"
     inkscape:window-width="640"
     inkscape:window-height="493"
     id="namedview6"
     showgrid="false"
     inkscape:zoom="0.4609375"
     inkscape:cx="256"
     inkscape:cy="256"
     inkscape:window-x="0"
     inkscape:window-y="0"
     inkscape:window-maximized="0"
     inkscape:current-layer="svg4" />
  <path
     d="m 402.1,465 c -29.36667,0 -58.73333,0 -88.1,0 0,-129 0,-258 0,-387 29.36667,0 58.73333,0 88.1,0 19.62016,-4.349396 26.92372,-31.693821 16.55299,-47.822471 C 413.76847,17.296106 399.88636,16.012876 388.08914,17 322.44609,17 256.80305,17 191.16,17 171.53731,21.347733 164.2176,48.697638 174.60431,64.826624 179.49527,77.702852 193.37369,78.987325 205.17086,78 c 26.27638,0 52.55276,0 78.82914,0 0,57.8 0,115.6 0,173.4 -44.08333,42.31 -88.16667,84.62 -132.25,126.93 -12.11678,-9.45679 -21.80067,-23.03029 -36.50664,-28.23219 -24.381875,-5.79727 -36.283262,28.91728 -15.916552,41.17241 8.504402,8.59659 17.008792,17.19319 25.513192,25.78978 2.88158,11.63529 16.16655,13.3274 22.34715,22.646 8.17898,7.66629 15.40733,16.49158 24.21285,23.394 -7.81038,17.88026 9.95975,35.77383 27.933,31.92 69.0284,-0.1049 138.06452,0.21048 207.08805,-0.15891 C 432.57462,494.57939 426.76777,460.69743 402.1,465 Z M 284,465 c -26.41,0 -52.82,0 -79.23,0 3.59047,-14.74623 -1.5274,-24.27175 -10.70163,-34.1743 -3.98946,-6.11856 -7.97891,-12.23713 -11.96837,-18.3557 33.96667,-33.46667 67.93333,-66.93333 101.9,-100.4 0,50.97667 0,101.95333 0,152.93 z"
     id="path2"
     inkscape:connector-curvature="0" />
</svg>
