<?xml version="1.0" encoding="UTF-8" standalone="no"?>
<svg
   xmlns:dc="http://purl.org/dc/elements/1.1/"
   xmlns:cc="http://creativecommons.org/ns#"
   xmlns:rdf="http://www.w3.org/1999/02/22-rdf-syntax-ns#"
   xmlns:svg="http://www.w3.org/2000/svg"
   xmlns="http://www.w3.org/2000/svg"
   xmlns:sodipodi="http://sodipodi.sourceforge.net/DTD/sodipodi-0.dtd"
   xmlns:inkscape="http://www.inkscape.org/namespaces/inkscape"
   width="512"
   height="512"
   viewBox="0 0 512 512"
   version="1.1"
   id="svg4"
   sodipodi:docname="end of line diod.svg"
   inkscape:version="0.92.1 r15371">
  <metadata
     id="metadata10">
    <rdf:RDF>
      <cc:Work
         rdf:about="">
        <dc:format>image/svg+xml</dc:format>
        <dc:type
           rdf:resource="http://purl.org/dc/dcmitype/StillImage" />
      </cc:Work>
    </rdf:RDF>
  </metadata>
  <defs
     id="defs8" />
  <sodipodi:namedview
     pagecolor="#ffffff"
     bordercolor="#666666"
     borderopacity="1"
     objecttolerance="10"
     gridtolerance="10"
     guidetolerance="10"
     inkscape:pageopacity="0"
     inkscape:pageshadow="2"
     inkscape:window-width="640"
     inkscape:window-height="493"
     id="namedview6"
     showgrid="false"
     inkscape:zoom="0.4609375"
     inkscape:cx="256"
     inkscape:cy="256"
     inkscape:window-x="0"
     inkscape:window-y="0"
     inkscape:window-maximized="0"
     inkscape:current-layer="svg4" />
  <path
     d="m 480.28,143 c -149.61333,0 -299.22667,0 -448.84,0 -13.536743,-0.40233 -14.317652,14.18601 -13.44,24.12239 0.186106,63.94152 -0.372465,127.9225 0.279727,191.83931 3.97375,13.90339 20.272071,9.21901 31.07579,10.0383 143.641493,0 287.282993,0 430.924483,0 13.59179,0.37531 14.68487,-14.18018 13.72,-24.25239 -0.19411,-63.93921 0.38849,-127.92144 -0.29176,-191.83372 C 492.39187,146.88499 486.24898,142.9179 480.28,143 Z M 152,343 c -36,0 -72,0 -108,0 0,-58 0,-116 0,-174 36,0 72,0 108,0 0,58 0,116 0,174 z m 174,0 c -37.41667,0 -74.83333,0 -112.25,0 37.41667,-21.42333 74.83333,-42.84667 112.25,-64.27 0,21.42333 0,42.84667 0,64.27 z m 0,-109.87 C 288.58333,211.75333 251.16667,190.37667 213.75,169 c 37.41667,0 74.83333,0 112.25,0 0,21.37667 0,42.75333 0,64.13 z M 467,343 c -38.33333,0 -76.66667,0 -115,0 0,-58 0,-116 0,-174 38.33333,0 76.66667,0 115,0 0,58 0,116 0,174 z"
     id="path2"
     inkscape:connector-curvature="0" />
</svg>
