<?xml version="1.0" encoding="UTF-8" standalone="no"?>
<svg
   xmlns:dc="http://purl.org/dc/elements/1.1/"
   xmlns:cc="http://creativecommons.org/ns#"
   xmlns:rdf="http://www.w3.org/1999/02/22-rdf-syntax-ns#"
   xmlns:svg="http://www.w3.org/2000/svg"
   xmlns="http://www.w3.org/2000/svg"
   xmlns:sodipodi="http://sodipodi.sourceforge.net/DTD/sodipodi-0.dtd"
   xmlns:inkscape="http://www.inkscape.org/namespaces/inkscape"
   width="512"
   height="512"
   viewBox="0 0 512 512"
   version="1.1"
   id="svg6"
   sodipodi:docname="interface unit.svg"
   inkscape:version="0.92.1 r15371">
  <metadata
     id="metadata12">
    <rdf:RDF>
      <cc:Work
         rdf:about="">
        <dc:format>image/svg+xml</dc:format>
        <dc:type
           rdf:resource="http://purl.org/dc/dcmitype/StillImage" />
      </cc:Work>
    </rdf:RDF>
  </metadata>
  <defs
     id="defs10" />
  <sodipodi:namedview
     pagecolor="#ffffff"
     bordercolor="#666666"
     borderopacity="1"
     objecttolerance="10"
     gridtolerance="10"
     guidetolerance="10"
     inkscape:pageopacity="0"
     inkscape:pageshadow="2"
     inkscape:window-width="640"
     inkscape:window-height="493"
     id="namedview8"
     showgrid="false"
     inkscape:zoom="0.4609375"
     inkscape:cx="256"
     inkscape:cy="256"
     inkscape:window-x="0"
     inkscape:window-y="0"
     inkscape:window-maximized="0"
     inkscape:current-layer="svg6" />
  <path
     d="m 195.5,356.15 c 15.85547,0.0156 16.42239,-17.3034 15.5,-28.99092 -0.21513,-53.06442 0.43028,-106.17423 -0.32271,-159.21029 -4.28766,-20.55905 -36.00968,-11.52692 -30.67729,8.09063 0.21512,56.00159 -0.43028,112.04857 0.32271,168.02179 1.42095,6.94614 8.13572,12.2015 15.17729,12.08879 z m 83.52,0 c 34.42366,-0.12439 56.15186,-37.10592 52.98,-68.66678 -0.21326,-39.83924 0.42777,-79.72353 -0.32271,-119.53443 -4.2833,-20.55317 -36.0051,-11.53394 -30.67729,8.08063 -0.29404,41.37187 0.59774,82.7979 -0.4635,124.13482 0.69143,24.72994 -34.93232,35.58608 -41.78473,8.76614 -5.16219,-19.59852 -1.77606,-40.28546 -2.75177,-60.3952 -0.19677,-26.85738 0.39623,-53.75366 -0.30123,-80.58639 C 251.74788,147.26138 220.445,156.65904 226,176.03942 c 0.36968,42.40905 -0.76395,84.88151 0.61287,127.24829 2.96661,26.54444 23.99859,53.061 52.40713,52.86229 z M 480.35,53 C 330.78333,53 181.21667,53 31.65,53 15.756786,52.873247 15.022652,70.138723 16,81.860916 16,202.56394 16,323.26697 16,443.97 16.351006,459.72571 33.876482,459.73837 45.480916,459 190.43728,459 335.39364,459 480.35,459 496.24003,459.1225 496.9785,441.86155 496,430.13908 496,309.43606 496,188.73303 496,68.03 496.13482,59.747454 488.45555,52.852385 480.35,53 Z M 465,429 c -139.33333,0 -278.66667,0 -418,0 0,-115.33333 0,-230.66667 0,-346 139.33333,0 278.66667,0 418,0 0,115.33333 0,230.66667 0,346 z"
     id="path4"
     inkscape:connector-curvature="0" />
</svg>
