<?xml version="1.0" encoding="UTF-8" standalone="no"?>
<svg
   xmlns:dc="http://purl.org/dc/elements/1.1/"
   xmlns:cc="http://creativecommons.org/ns#"
   xmlns:rdf="http://www.w3.org/1999/02/22-rdf-syntax-ns#"
   xmlns:svg="http://www.w3.org/2000/svg"
   xmlns="http://www.w3.org/2000/svg"
   xmlns:sodipodi="http://sodipodi.sourceforge.net/DTD/sodipodi-0.dtd"
   xmlns:inkscape="http://www.inkscape.org/namespaces/inkscape"
   width="512"
   height="512"
   viewBox="0 0 512 512"
   version="1.1"
   id="svg6"
   sodipodi:docname="magnetic door holder.svg"
   inkscape:version="0.92.1 r15371">
  <metadata
     id="metadata12">
    <rdf:RDF>
      <cc:Work
         rdf:about="">
        <dc:format>image/svg+xml</dc:format>
        <dc:type
           rdf:resource="http://purl.org/dc/dcmitype/StillImage" />
      </cc:Work>
    </rdf:RDF>
  </metadata>
  <defs
     id="defs10" />
  <sodipodi:namedview
     pagecolor="#ffffff"
     bordercolor="#666666"
     borderopacity="1"
     objecttolerance="10"
     gridtolerance="10"
     guidetolerance="10"
     inkscape:pageopacity="0"
     inkscape:pageshadow="2"
     inkscape:window-width="640"
     inkscape:window-height="493"
     id="namedview8"
     showgrid="false"
     inkscape:zoom="0.4609375"
     inkscape:cx="256"
     inkscape:cy="256"
     inkscape:window-x="0"
     inkscape:window-y="0"
     inkscape:window-maximized="0"
     inkscape:current-layer="svg6" />
  <path
     d="M 494,30.83 C 493.1335,13.894879 474.36416,17.127719 462.63092,17 317.77371,17.187653 172.87869,16.624769 28.045098,17.281309 11.707354,22.329564 18.392815,41.083402 17,53.765717 17.187656,196.82405 16.624765,339.92019 17.281309,482.9549 22.329564,499.29265 41.083402,492.60719 53.765717,494 196.82501,493.81234 339.92208,494.37523 482.95777,493.71869 499.29368,488.67071 492.60627,469.91581 494,457.23428 494,315.09952 494,172.96476 494,30.83 Z M 468,468 c -141,0 -282,0 -423,0 0,-141 0,-282 0,-423 141,0 282,0 423,0 0,141 0,282 0,423 z M 130.53,263.75 c 2.29457,53.29961 41.9706,102.14092 93.76911,115.04671 5.48187,2.73779 15.31637,1.1076 18.70089,4.82245 26.46811,0.37386 55.28182,-3.87968 78.55356,-18.59506 46.67361,-27.02827 71.37818,-85.99579 57.76163,-138.19991 -12.03919,-53.40843 -62.36767,-94.77901 -117.08442,-96.37675 -8.09567,0.11317 -16.71987,-1.40608 -23.30864,1.12122 -55.9833,6.88468 -102.86375,55.79517 -107.79013,111.91167 -0.88233,6.7107 -0.76595,13.54732 -0.602,20.26967 z m 27.74,-14.52 c 2.7253,-45.02745 39.88489,-84.82903 84.73,-90.23 0,65.11333 0,130.22667 0,195.34 -47.06815,-5.5465 -85.43439,-49.22043 -84.95424,-96.59697 -0.1039,-2.83848 0.12385,-5.68367 0.22424,-8.51303 z"
     id="path4"
     inkscape:connector-curvature="0" />
</svg>
