<?xml version="1.0" encoding="UTF-8" standalone="no"?>
<svg
   xmlns:dc="http://purl.org/dc/elements/1.1/"
   xmlns:cc="http://creativecommons.org/ns#"
   xmlns:rdf="http://www.w3.org/1999/02/22-rdf-syntax-ns#"
   xmlns:svg="http://www.w3.org/2000/svg"
   xmlns="http://www.w3.org/2000/svg"
   xmlns:sodipodi="http://sodipodi.sourceforge.net/DTD/sodipodi-0.dtd"
   xmlns:inkscape="http://www.inkscape.org/namespaces/inkscape"
   width="512"
   height="512"
   viewBox="0 0 512 512"
   version="1.1"
   id="svg4"
   sodipodi:docname="remote neon indicator.svg"
   inkscape:version="0.92.1 r15371">
  <metadata
     id="metadata10">
    <rdf:RDF>
      <cc:Work
         rdf:about="">
        <dc:format>image/svg+xml</dc:format>
        <dc:type
           rdf:resource="http://purl.org/dc/dcmitype/StillImage" />
      </cc:Work>
    </rdf:RDF>
  </metadata>
  <defs
     id="defs8" />
  <sodipodi:namedview
     pagecolor="#ffffff"
     bordercolor="#666666"
     borderopacity="1"
     objecttolerance="10"
     gridtolerance="10"
     guidetolerance="10"
     inkscape:pageopacity="0"
     inkscape:pageshadow="2"
     inkscape:window-width="640"
     inkscape:window-height="493"
     id="namedview6"
     showgrid="false"
     inkscape:zoom="0.4609375"
     inkscape:cx="256"
     inkscape:cy="256"
     inkscape:window-x="0"
     inkscape:window-y="0"
     inkscape:window-maximized="0"
     inkscape:current-layer="svg4" />
  <path
     d="M 480.87,17 C 330.00288,17.18898 179.09856,16.621994 28.254687,17.283574 11.680285,22.302733 18.385256,41.309645 17,54.1338 17.188409,197.32664 16.623136,340.55643 17.282715,483.72617 22.274502,500.3229 41.292102,493.61562 54.1138,495 197.31966,494.81103 340.5627,495.378 483.74531,494.71643 500.31971,489.69727 493.61474,470.69035 495,457.8662 494.81159,314.67336 495.37686,171.44357 494.71729,28.273828 493.57345,21.812448 487.37943,16.853889 480.87,17 Z M 154.13,71.73 C 222.33309,33.123919 311.96981,37.615542 375.87758,83.022689 382.29614,87.445909 388.45157,92.256232 394.35,97.35 348.21,143.48333 302.07,189.61667 255.93,235.75 209.80667,189.63333 163.68333,143.51667 117.56,97.4 128.74128,87.513535 141.14699,79.017321 154.13,71.73 Z M 414.6,117.6 c 50.94314,57.27917 66.0735,143.20311 37.6854,214.42 -8.85329,22.77007 -21.64768,43.97883 -37.6854,62.41 C 368.46667,348.28667 322.33333,302.14333 276.2,256 322.33333,209.86667 368.46667,163.73333 414.6,117.6 Z M 45,45 c 32.5,0 65,0 97.5,0 C 102.95488,67.013372 69.410581,99.666363 47.041198,139.02007 42.769904,145.93631 46.00962,125.68118 45,120.79819 45,95.532126 45,70.266063 45,45 Z m 0,208.53 C 46.269572,203.98567 64.468007,154.89996 97.27,117.57 143.41333,163.71333 189.55667,209.85667 235.7,256 189.55667,302.13333 143.41333,348.26667 97.27,394.4 63.221715,355.80525 45.24755,304.73567 45,253.53 Z M 45,467 c 0,-32.48333 0,-64.96667 0,-97.45 22.54822,40.53683 56.36194,74.75803 97.1,97.05 -11.74603,0.93463 -27.10588,0.13236 -40.23965,0.4 C 82.906902,467 63.953451,467 45,467 Z m 316.48,-28.78 c -65.53533,38.70178 -152.02086,37.48279 -216.33022,-3.2841 -9.72353,-6.0034 -18.93175,-12.8244 -27.55978,-20.3159 46.13333,-46.13333 92.26667,-92.26667 138.4,-138.4 46.0333,46.17333 92.60004,92.34668 138.3,138.52 -10.17578,8.82713 -21.19535,16.66332 -32.81,23.48 z M 467,467 c -32.5,0 -65,0 -97.5,0 40.48679,-22.61228 74.64311,-56.37079 97.07421,-96.94872 1.0667,4.83226 0.14955,16.27739 0.45579,23.64451 -0.02,24.4247 0.04,48.92952 -0.03,73.30421 z m 0,-324.35 C 445.17962,103.41571 412.93745,70.08858 374.02,47.68 363.65202,42.503714 385.03702,46.033292 389.77982,45 c 25.74006,0 51.48012,0 77.22018,0 0,32.55 0,65.1 0,97.65 z"
     id="path2"
     inkscape:connector-curvature="0" />
</svg>
