<?xml version="1.0" encoding="UTF-8" standalone="no"?>
<svg
   xmlns:dc="http://purl.org/dc/elements/1.1/"
   xmlns:cc="http://creativecommons.org/ns#"
   xmlns:rdf="http://www.w3.org/1999/02/22-rdf-syntax-ns#"
   xmlns:svg="http://www.w3.org/2000/svg"
   xmlns="http://www.w3.org/2000/svg"
   xmlns:sodipodi="http://sodipodi.sourceforge.net/DTD/sodipodi-0.dtd"
   xmlns:inkscape="http://www.inkscape.org/namespaces/inkscape"
   width="512"
   height="512"
   viewBox="0 0 512 512"
   version="1.1"
   id="svg6"
   sodipodi:docname="smoke dedector duct mounted.svg"
   inkscape:version="0.92.1 r15371">
  <metadata
     id="metadata12">
    <rdf:RDF>
      <cc:Work
         rdf:about="">
        <dc:format>image/svg+xml</dc:format>
        <dc:type
           rdf:resource="http://purl.org/dc/dcmitype/StillImage" />
      </cc:Work>
    </rdf:RDF>
  </metadata>
  <defs
     id="defs10" />
  <sodipodi:namedview
     pagecolor="#ffffff"
     bordercolor="#666666"
     borderopacity="1"
     objecttolerance="10"
     gridtolerance="10"
     guidetolerance="10"
     inkscape:pageopacity="0"
     inkscape:pageshadow="2"
     inkscape:window-width="640"
     inkscape:window-height="493"
     id="namedview8"
     showgrid="false"
     inkscape:zoom="0.4609375"
     inkscape:cx="256"
     inkscape:cy="256"
     inkscape:window-x="0"
     inkscape:window-y="0"
     inkscape:window-maximized="0"
     inkscape:current-layer="svg6" />
  <path
     d="m 256.9,229.22 c 15.16937,1.65779 40.03671,21.57088 42.12,-6.35 -1.89781,-18.35041 -24.07643,-24.63766 -39.76713,-26.14971 -27.30059,-0.73907 -39.31752,32.78115 -33.83537,55.55971 2.54084,21.04267 21.98832,31.19712 36.97551,42.82761 14.15006,5.046 10.8789,34.30364 -6.53051,24.35489 -14.6664,-17.33195 -42.276,-1.06193 -27.86891,19.27688 15.82428,15.00682 46.91451,23.38915 61.45141,2.17937 17.04608,-23.26315 11.17655,-60.61157 -14.54692,-75.03096 -7.39827,-7.18061 -19.69165,-10.72833 -22.57667,-21.37685 C 251.60177,239.46491 251.8669,231.90567 256.9,229.22 Z M 58.94,88 C 47.823919,88.680011 36.23597,86.508542 25.467188,89.34375 13.644093,98.528367 19.372124,115.08487 18,128.01215 18.150798,162.8424 17.696278,197.69408 18.231055,232.51074 19.197524,246.71393 34.420906,245.31553 44.657291,245 58.080509,245.5951 73.793585,245.47136 81.72,232.37125 95.772073,211.92734 89.630106,186.32739 91,163.10495 90.296562,139.19892 95.600504,110.38243 74.351865,93.412598 69.959418,90.046647 64.508758,87.967295 58.94,88 Z M 64,201.57 c 3.813421,12.21336 -15.623917,14.73454 -19,9.09878 0,-30.22292 0,-60.44585 0,-90.66878 10.425389,-1.97725 21.754286,1.25517 19,14.71122 0,22.27957 0,44.61254 0,66.85878 z m 430,-35.02 c 0.33222,-24.14335 -1.32474,-52.31746 -17.3475,-72.136602 -22.00987,-19.226279 -41.76443,12.866162 -43.13031,32.965042 -5.45577,35.28962 -6.73033,74.09334 10.25822,106.60158 14.46158,25.0079 44.50562,3.48178 45.52959,-19.02127 4.78635,-15.70576 4.3986,-31.8898 4.69,-48.40875 z M 467,167 c -0.58311,9.82599 -0.52742,36.9775 -5.58719,35.92297 -4.72962,-24.60609 -5.18764,-50.82705 1.16719,-75.20297 4.09612,12.59036 4.19435,26.21208 4.42,39.28 z m -79.24,103.22 c -1.18704,-53.36923 -29.11506,-108.5279 -78.43,-132.37 -36.78155,-18.49711 -83.18349,-12.94095 -115.49,12.21 -39.92248,29.9998 -60.24006,81.66983 -58.10102,130.60119 0.83729,54.75662 30.9869,111.58223 82.64851,133.87925 31.23157,13.86804 68.36228,11.45394 97.89476,-5.63462 C 364.57452,381.63639 389.64899,323.96406 387.76,270.22 Z m -27.78,11.48 c -1.63064,44.60487 -28.16669,90.77193 -72.12,105.12 -35.77272,12.37151 -76.67396,-3.55021 -98.74753,-33.31858 C 170.9804,330.07257 161.79256,299.88569 163.9761,270.35418 163.50279,223.46275 193.65732,174.42446 240.49,162.1 c 37.42798,-10.4496 78.02685,9.22709 98.41,41.14 15.32408,22.91192 22.59632,51.03617 21.08,78.46 z"
     id="path4"
     inkscape:connector-curvature="0" />
</svg>
