<?xml version="1.0" encoding="UTF-8" standalone="no"?>
<svg
   xmlns:dc="http://purl.org/dc/elements/1.1/"
   xmlns:cc="http://creativecommons.org/ns#"
   xmlns:rdf="http://www.w3.org/1999/02/22-rdf-syntax-ns#"
   xmlns:svg="http://www.w3.org/2000/svg"
   xmlns="http://www.w3.org/2000/svg"
   xmlns:sodipodi="http://sodipodi.sourceforge.net/DTD/sodipodi-0.dtd"
   xmlns:inkscape="http://www.inkscape.org/namespaces/inkscape"
   width="512"
   height="512"
   viewBox="0 0 512 512"
   version="1.1"
   id="svg6"
   sodipodi:docname="smoke dedector with integral sound.svg"
   inkscape:version="0.92.1 r15371">
  <metadata
     id="metadata12">
    <rdf:RDF>
      <cc:Work
         rdf:about="">
        <dc:format>image/svg+xml</dc:format>
        <dc:type
           rdf:resource="http://purl.org/dc/dcmitype/StillImage" />
      </cc:Work>
    </rdf:RDF>
  </metadata>
  <defs
     id="defs10" />
  <sodipodi:namedview
     pagecolor="#ffffff"
     bordercolor="#666666"
     borderopacity="1"
     objecttolerance="10"
     gridtolerance="10"
     guidetolerance="10"
     inkscape:pageopacity="0"
     inkscape:pageshadow="2"
     inkscape:window-width="640"
     inkscape:window-height="493"
     id="namedview8"
     showgrid="false"
     inkscape:zoom="0.4609375"
     inkscape:cx="256"
     inkscape:cy="256"
     inkscape:window-x="0"
     inkscape:window-y="0"
     inkscape:window-maximized="0"
     inkscape:current-layer="svg6" />
  <path
     d="m 157.97,257 c 10.93262,7.40703 22.73778,13.69652 33.17813,21.74469 13.76001,17.48101 -8.02746,36.74926 -25.08688,22.65812 -13.75312,-16.99703 -38.62875,8.29675 -17.74314,18.79092 18.23928,10.50379 46.00475,17.19205 61.56189,-1.37623 17.63704,-19.84527 11.37597,-55.01876 -12.91691,-66.42848 -9.21047,-6.26903 -19.24757,-11.45104 -27.94121,-18.39965 -13.77669,-17.517 8.07699,-36.81639 25.14312,-22.64999 18.27141,19.71388 38.75742,-15.15907 13.07246,-21.30396 -18.45254,-9.38321 -46.03971,-13.40204 -59.14784,6.70229 C 134.86696,215.0654 138.47527,244.45651 157.97,257 Z m 337.08,90.7 c -0.25191,-61.94583 0.25256,-123.97096 -0.25,-185.89 -1.80851,-9.62917 -14.53244,-12.54224 -21.43726,-6.29205 C 429.90849,181.77863 386.45425,208.03932 343,234.3 342.84398,210.47474 343.31222,186.62083 342.76574,162.8135 340.86421,150.03976 326.92375,151.9123 317.44456,152 221.36304,152 125.28152,152 29.2,152 16.260345,152.64088 16.471001,167.21889 17,176.82999 c 0.161824,57.68976 -0.323901,115.41082 0.243301,173.08099 3.009838,13.57396 18.523955,9.46773 28.660319,10.08902 95.03213,0 190.06425,0 285.09638,0 12.9026,-0.24043 12.49082,-14.6935 12,-24.06999 0,-19.2 0,-38.40001 0,-57.60001 44.45361,26.59882 88.82506,53.39362 133.33,79.87 7.89688,4.93979 18.95422,-1.43171 18.72,-10.5 z M 318,335 c -92,0 -184,0 -276,0 0,-52.66667 0,-105.33333 0,-158 92,0 184,0 276,0 0,52.66667 0,105.33333 0,158 z m 152,-9.52 C 431.61,302.42 393.22,279.36 354.83,256.3 393.22,233.06667 431.61,209.83333 470,186.6 c 0,46.29333 0,92.58667 0,138.88 z"
     id="path4"
     inkscape:connector-curvature="0" />
</svg>
