<?xml version="1.0" encoding="UTF-8" standalone="no"?>
<svg
   xmlns:dc="http://purl.org/dc/elements/1.1/"
   xmlns:cc="http://creativecommons.org/ns#"
   xmlns:rdf="http://www.w3.org/1999/02/22-rdf-syntax-ns#"
   xmlns:svg="http://www.w3.org/2000/svg"
   xmlns="http://www.w3.org/2000/svg"
   xmlns:sodipodi="http://sodipodi.sourceforge.net/DTD/sodipodi-0.dtd"
   xmlns:inkscape="http://www.inkscape.org/namespaces/inkscape"
   width="512"
   height="512"
   viewBox="0 0 512 512"
   version="1.1"
   id="svg6"
   sodipodi:docname="smoke dedector optional type.svg"
   inkscape:version="0.92.1 r15371">
  <metadata
     id="metadata12">
    <rdf:RDF>
      <cc:Work
         rdf:about="">
        <dc:format>image/svg+xml</dc:format>
        <dc:type
           rdf:resource="http://purl.org/dc/dcmitype/StillImage" />
      </cc:Work>
    </rdf:RDF>
  </metadata>
  <defs
     id="defs10" />
  <sodipodi:namedview
     pagecolor="#ffffff"
     bordercolor="#666666"
     borderopacity="1"
     objecttolerance="10"
     gridtolerance="10"
     guidetolerance="10"
     inkscape:pageopacity="0"
     inkscape:pageshadow="2"
     inkscape:window-width="638"
     inkscape:window-height="493"
     id="namedview8"
     showgrid="false"
     inkscape:zoom="0.4609375"
     inkscape:cx="256"
     inkscape:cy="256"
     inkscape:window-x="0"
     inkscape:window-y="0"
     inkscape:window-maximized="0"
     inkscape:current-layer="svg6" />
  <path
     d="m 210.25,276.16 c -12.61432,-8.44703 -26.06646,-15.80067 -38.14781,-24.94609 -16.18144,-22.61897 13.94521,-37.97221 31.39416,-21.74612 20.18121,18.63755 41.43948,-20.4204 15.13955,-27.79785 -22.27722,-12.33023 -56.53606,-18.06563 -72.88235,6.62957 -18.25712,24.587 -9.05761,63.53663 18.9503,76.36647 10.79591,8.04986 24.55174,12.98156 32.9299,23.60402 12.19513,30.85025 -26.96082,27.94715 -42.8175,14.13875 -26.96005,-1.87784 -20.10796,35.05318 2.67606,36.1777 20.94718,9.1365 50.39983,11.10294 64.41859,-10.7024 C 237.75372,326.06901 233.39411,291.20187 210.25,276.16 Z M 495,153.72 c -0.53119,-27.74681 -3.31832,-59.043029 -23.31365,-80.196191 -21.01616,-17.851963 -46.82925,4.451086 -51.0176,26.663691 -10.57574,35.54851 -10.69753,74.95973 0.8496,110.28877 4.26219,23.38521 34.20677,42.76693 52.99118,21.76873 C 491.98519,210.33008 494.80657,180.65215 495,153.72 Z m -33.75,29.06 c -0.95612,12.49658 -8.80329,32.94519 -12.311,9.8582 -7.17753,-29.44602 -7.44087,-62.08659 5.091,-90.1382 10.45594,21.78035 9.45401,46.83712 8.57139,69.91699 -0.33713,3.46737 -0.76537,6.9412 -1.35139,10.36301 z M 350.73,272.5 C 349.23687,208.70605 307.60664,148.17986 248.47395,124.13243 189.76271,98.674387 117.10222,111.36412 70.572013,155.31667 25.200073,196.27345 6.1300803,263.15817 22.63856,321.93665 c 16.187229,62.41002 71.670915,112.05689 135.5014,121.19339 9.22832,1.64882 18.66,2.12972 27.71004,0.90996 17.81036,2.1137 36.74022,-2.98277 53.91574,-8.58549 C 300.16199,414.74165 345.25516,356.63938 350.17,292.96 c 0.63507,-6.76927 0.87706,-13.77656 0.56,-20.46 z m -31.77,13.18 c -2.45123,54.85623 -41.70996,105.58889 -94.33535,121.42585 -45.98094,14.63073 -99.49557,2.7979 -134.134344,-31.10935 C 61.154918,348.6246 45.760963,307.69734 49.09,267.78 52.226503,210.35889 96.74158,158.73122 152.79122,146.39542 c 54.95345,-13.7592 116.69895,11.70152 145.91982,60.24446 14.66436,23.43393 21.79143,51.58785 20.24896,79.04012 z"
     id="path4"
     inkscape:connector-curvature="0" />
</svg>
