<?xml version="1.0" encoding="UTF-8" standalone="no"?>
<svg
   xmlns:dc="http://purl.org/dc/elements/1.1/"
   xmlns:cc="http://creativecommons.org/ns#"
   xmlns:rdf="http://www.w3.org/1999/02/22-rdf-syntax-ns#"
   xmlns:svg="http://www.w3.org/2000/svg"
   xmlns="http://www.w3.org/2000/svg"
   xmlns:sodipodi="http://sodipodi.sourceforge.net/DTD/sodipodi-0.dtd"
   xmlns:inkscape="http://www.inkscape.org/namespaces/inkscape"
   width="512"
   height="512"
   viewBox="0 0 512 512"
   version="1.1"
   id="svg6"
   sodipodi:docname="smoke dedector beam type.svg"
   inkscape:version="0.92.1 r15371">
  <metadata
     id="metadata12">
    <rdf:RDF>
      <cc:Work
         rdf:about="">
        <dc:format>image/svg+xml</dc:format>
        <dc:type
           rdf:resource="http://purl.org/dc/dcmitype/StillImage" />
      </cc:Work>
    </rdf:RDF>
  </metadata>
  <defs
     id="defs10" />
  <sodipodi:namedview
     pagecolor="#ffffff"
     bordercolor="#666666"
     borderopacity="1"
     objecttolerance="10"
     gridtolerance="10"
     guidetolerance="10"
     inkscape:pageopacity="0"
     inkscape:pageshadow="2"
     inkscape:window-width="638"
     inkscape:window-height="493"
     id="namedview8"
     showgrid="false"
     inkscape:zoom="0.4609375"
     inkscape:cx="256"
     inkscape:cy="256"
     inkscape:window-x="0"
     inkscape:window-y="0"
     inkscape:window-maximized="0"
     inkscape:current-layer="svg6" />
  <path
     d="m 172.38,166.44 c 21.63392,-2.34568 39.39454,13.21314 59.02951,16.42512 30.84798,-14.05804 -6.01387,-41.07094 -25.87076,-42.47887 -24.39781,-8.21106 -56.02741,-7.81212 -72.10997,15.47625 -24.69588,31.29831 -15.06346,83.67772 21.6329,101.29436 16.50432,11.29893 34.75753,20.39121 50.01426,33.26845 15.45996,17.337 7.70211,58.00471 -20.21832,54.41649 -21.3674,2.76256 -38.44061,-21.01427 -58.3078,-13.79875 -22.29797,23.55372 21.18682,38.5297 39.51372,42.21054 23.39787,6.83177 51.87459,2.00795 65.62212,-19.845 22.74926,-31.5492 12.41418,-81.88715 -23.38604,-99.0275 C 191.82398,243.09615 173.60697,234.02565 158.38719,221.13734 145.18303,205.35035 148.38875,169.79179 172.38,166.44 Z m 188.15,111.38 c 26.38356,-13.24935 33.46725,-44.6708 31.47,-71.80825 2.80608,-30.22424 -13.54273,-66.16621 -46.53314,-70.68502 -21.4337,-0.49534 -42.95489,-0.5853 -64.37477,0.009 -17.1018,5.06132 -10.94874,25.21066 -12.09209,38.52951 0.20978,63.25511 -0.42003,126.55264 0.31574,189.78117 4.26048,21.22604 36.44036,11.43905 30.68426,-8.50146 0,-23.71506 0,-47.43012 0,-71.14518 9.87333,0 19.74667,0 29.62,0 12.10344,28.85264 22.51616,58.54296 35.70281,86.85891 15.7968,16.85564 35.99795,-8.26607 23.11782,-23.49459 C 379.14167,324.18598 369.80609,300.98287 360.53,277.82 Z m -20.6,-25.35 c -12.57572,1.23857 -26.74315,0.17524 -39.93,0.53 0,-29 0,-58 0,-87 14.78064,0.37439 29.68025,-0.79202 44.37732,0.66455 20.82925,9.91529 16.05465,35.23512 16.62268,54.16545 -0.0561,12.92817 -6.14746,30.31978 -21.07,31.64 z M 493.82,248.4 C 491.86739,167.28112 445.04362,89.132638 374.23319,49.428935 304.36663,8.723374 213.6837,7.7110807 142.90152,46.790542 71.107631,85.004159 22.345624,162.28745 18.854126,243.54825 c -2.230288,31.19896 3.377547,63.16642 13.766847,92.76657 27.360414,78.656 99.294197,139.26546 181.319027,153.35518 29.50591,5.47806 59.44931,5.24043 88.85803,-0.84634 79.85024,-15.18 149.11657,-74.62378 176.5784,-151.08209 C 489.76184,309.21882 494.81313,278.6873 493.82,248.4 Z m -31.14,18.93 c -3.5576,74.71674 -51.20052,145.07154 -119.35729,175.94342 -45.54007,21.22224 -98.79933,25.57663 -146.85133,10.42721 C 122.07354,432.11453 63.580048,365.27261 52.109982,288.65404 38.927354,214.62346 71.596384,135.16575 131.86244,90.502426 192.91779,43.655578 280.67263,35.648985 349.05411,71.072156 420.7474,106.02544 467.22575,185.55336 462.65014,265.15985 c 1.05947,-0.41716 -0.82921,2.36953 0.0299,2.17015 z"
     id="path4"
     inkscape:connector-curvature="0" />
</svg>
