<svg xmlns="http://www.w3.org/2000/svg" width="512" height="512"><path d="M237.8 246c4 4.7 10-2.8 9.6-9.1L266 171c-8.9-3-8.7 6-10.7 12.2l-17 61.2c-5.7-15 1.8-32.4-5.3-46.7-11.5-11.2-41.3-6.1-40.3 10.9 12 4.2 17.4-18.8 32-6 11.8 21.1-28.5 6-32.8 22.7-11.4 27.9 30.3 21.8 36.6 17.7-.1 5.2 6.5 2.2 9.5 3zM227 223c6.2 20.6-36.5 24-24.7 3.2 4.5-1 26.4-9.7 24.7-3.1zM66 272c-14-7-30.4-3-45.5-4-7.2-.8-1.9 11-3.5 15.8V341c8.2 1.7 12-1 10-9.5V310c13.7-1 29.6 3.4 41.2-5.8 8.5-8.6 8-25-2.1-32.2zm-5.8 26.4C49.9 303 38 300.2 27 301v-24c10.7.7 22-1.7 32.1 2 6.3 4.2 6.9 14.6 1.1 19.4zm54.4-9.2c-8.6-9-26 5.8-27.6 1.9V268c-9.4-2.9-8.5 4.6-8 11.6V341c9.4 2.9 8.5-4.6 8-11.6.7-12-3.7-29.4 11.3-34.2 15-4.6 16.9 12.4 15.7 23V341c9 2.4 10.3-2.7 9-10.5-1.1-12.8 3.2-27.4-4.6-38.5.2 1.1-3.8-4.3-3.8-2.7zM152 287c-19.2-1.3-29.1 20.7-24 37 3.6 23.2 40.6 25.1 47.2 3 5.8-15.8-1-39-20.5-39.9H152zm11.2 43.2c-17.5 17-34.7-12.1-24.3-27.8 15-22.3 38.3 7.5 26.3 24.9l-2 2.8zm58.3-36.9c-8-14.6-30.8.6-32.5-.7 4-7.9-11.6-8-8-.2V341c9 2.4 10.3-2.7 9-10.5 1.1-11.3-3.6-25.8 6.7-33.7 16-9 20.4 9.7 18.3 21.7V341c9 2.4 10.3-2.7 9-10.5-.9-12.4 2.2-25.8-2.5-37.3zm32.9-6.3c-19.2-1.1-28.8 21-23.9 37.2 3.7 23.7 43.1 25.2 47.8 1.3-12.9-6.3-14.8 17.2-29.4 8.3-12.5-6.5-13.1-22.7 2.6-17.7h27c1.8-14.7-8.2-30.1-24.1-29zm-15 22.1c-2.6-23.5 38.7-13.3 26.6 0h-26.6zM490 247.2L322 146.5c-13.8-6.7-18 10.2-16 20.4v189.8c1.7 15.2 18 9.5 26 2.8l157.8-94.7c6.6-3.6 6.6-14 0-17.6zm-163 91.3v-165L464.6 256 327 338.5zM90.9 245c21.2-4.4 25.4-31.2 20.8-49.2-3.5-18.7-23.3-25.8-40.2-23.8H52v74c13-.3 26 .8 38.9-1zM63 237v-56c13.8.2 32.6-3 38.1 13.7 5.5 15.8 2.4 43.9-19.7 42.3H63zm74.4-21.2c-28-3.5-25.3 40.3 2.4 31.4 8.4-.1 14.9-12.7 17.3-1.2 15.5 3.7.5-15.6 4.9-25 1-12.5.3-30-16.8-28.9-10.1-6.1-37.6 14-21 17.2 4.4-9.7 31.2-16.7 29.3 3.4-5.2 1.7-10.8 2.4-16.1 3.1zm16.6 4c3 13.5-12.5 26.8-25.2 18.4-11.6-17.2 17-14.1 25.2-18.4zm17 11c-7 15.1 25.9 24.6 19.2 7.6-13.7 3-8-13.8-9.2-21.8 1.6-5-3.5-16.6 3.2-16.6 8.5 3.5 7.9-11-.5-7-5.9-.7-1.2-11.8-2.7-16.9-2-1.8-13.4 3.8-10 10.2 3.7 10-9.4 3.3-6 13 7.9-1.4 6 6.9 6 13.3V231z"/></svg>