<svg xmlns="http://www.w3.org/2000/svg" width="512" height="512"><path d="M197.6 158.2c14.7-12.4 34.2 17 8.4 13.3-25.6-5.3-30.9 35.9-2.7 31 10-.4 16.5-11 20.3-.5 5.4-1 13 5.1 13.8-4.2l19-67.8c-8.9-3-8.3 6.5-10.4 12.5L229.7 200c-6.4-14.5 1-31.6-5.2-45.8-11-10.9-39.9-5.7-38.7 10.5 7.8 2.4 7.5-.2 11.8-6.6zm21.4 20.6c6.6 22.8-39.6 20-21.8 1.8 4.7.5 23.6-8.5 21.8-1.8zM59 382c9.6 3 8.4-4.9 8-11.9V349h34c2.6-9.2-3-10.2-10.8-9H67v-21h40c3-9.6-4.9-8.4-11.9-8H59m52 0c8.6-2.2 10.5 2.2 9 10-10.2 1.3-9.5-.6-9-10zm0 18c9.2-2.6 10.2 3 9 10.8V382c-9.2 2.6-10.2-3-9-10.8V329zm55.5 7c-8.3-11.2-28.7-6.4-29.5-3.6V311c-9.2-2.6-10.2 3-9 10.8V382c11.7 4 3-14.6 14-1.5 17.4 8.4 33.4-11.9 30-28.5a29.8 29.8 0 0 0-5.5-16zm-7.3 34.3c-20.2 19-33.8-24-14.8-33.2 19.4-7.5 23.4 22.3 14.8 33.2zm45.7-38.8c-12.3-11-21.4 14.4-21-2.5-9.6-3-8.2 5-7.9 11.9V382c8.4 1.8 12-1 10-9.7 1-11-3-23.7 4.4-32.9 8.1-4.2 12.9 4.2 14.5-7.9zm20.4-2.8c-19.7-1.1-28.5 22.4-22.4 38.4 6 20.8 41.2 20.4 45.5-1.3-12.9-6-16.7 18.8-31 6.6-11.2-8.7-7.4-19.2 5.8-15.4h25.4c1.8-14-8-29.3-23.3-28.3zM210.8 350c-2.5-23 37.6-12.3 25.4 0h-25.4zm-145-92.2c12.8-12.5 3.3-37.4-15.4-35.6-10.8-.4-21.6-.1-32.4-.2v70c9.6 3 8.4-4.9 8-11.9 1.6-5.2-4-17.5 4.3-16.1 11.9-.7 26 2.6 35.5-6.2zm-7.7-5.3c-9.6 5.8-21.4 2.7-32.1 3.5v-26c11.2 1.2 24.8-3.4 33.6 5.1 3.4 5.1 3.2 13.2-1.5 17.4zM118 292c-.6-14.4 1.4-29-1.6-43.1-6.3-14.4-30.6-5.8-30.4-4.6V222c-8.4-1.8-12 1-10 9.7V292c8.4 1.8 12-1 10-9.7 1.2-10.8-3.6-24.5 5.8-32.4 15.4-8.7 20.3 9.7 18.2 21.3V292h8zm28.7 2.1c22 1.2 29.8-26.7 20.2-43-10.2-18-42.5-12-43.8 9.5-3.5 15.8 5.5 34.6 23.6 33.5zm-10.9-41.6c19.5-18.5 36.4 19.3 19.4 31.7-20.6 12.7-30.1-18.5-19.4-31.7zM184 265c-6.4-19.5 29.8-23.4 24-1.1V292c9.1 2.6 10.2-3 9-10.8-1.2-12.4 3.6-27.2-5.8-37.2-8-11.7-27.4 4.7-27.2 1.7 3.3-7.4-13.1-6.9-9 .7V292c9.1 2.6 10.2-3 9-10.8V265zm75.5 11.4c-3 23-40.3 2-24.8-6.4h34c3-16.2-11.3-33.5-28.4-29-25.4 4.2-25.6 49 .3 52.7 11.5 8 40.3-17.8 19-17.3zm-24-24.5c9.2-16 36.3 12.8 16.6 11.1h-21.2a16 16 0 0 1 4.5-11zM267 294c9 3 8.3-6.4 10.4-12.5l17-61.5h-6.9m201.7 27.9l-161.9-97.2c-13.8-6.4-17 10.5-15.4 20.4v182.4c1.8 15 17.9 8.8 25.5 2.4 51.2-31 102.9-61.2 153.8-92.6a10 10 0 0 0-2-15.4zM332 336V176.7l132.7 79.7L332 336zM87.7 200.5c22.8-6.1 26-36.8 17.3-55.3-8.5-18.1-29.8-13.7-46-14.2-9.2-2.6-10.2 3-9 10.8V202c12.5-.4 25.3 1.1 37.7-1.5zM60 193v-53c12.3 1.1 28.5-4.4 36 8.6 7.8 15.4 4.8 44.9-17.5 44.3-6.1.2-12.3 0-18.5.1zm72.5-21.2c-27-3.3-24.4 38.8 2.3 30.4 8.2-.5 15-11.6 16.8-.2 15.2 3.6 1.1-16.4 5.4-25.3 2-13.6-2.8-30.6-20-27.8-10.2-5-33.6 16.4-15.7 16.8 1.4-16 36.2-9.6 24 4-4.2 1-8.5 1.6-12.8 2.1zm15.6 7.2c6.4 22.7-39.6 19.8-21.9 1.6 5.7.5 22.6-8.8 22-1.6zm18.9 7.4c-8.2 14.5 23.2 23.5 16.6 7.2-13.4 2.8-7.2-14-8.6-21.9 1.3-5.4-3.8-17.2 5.4-14.7 7.5.8 3.8-12.6-4-8-4-2 .8-14.7-2.3-16.3-8 2.4-7.7 9.3-7.1 16.3-7.7-4.5-12 7.9-4.8 8 8.8-2.1 3.3 10 4.8 15v14.4z"/></svg>