<svg xmlns="http://www.w3.org/2000/svg" width="512" height="512"><path d="M249.1 230.7c-7-10.7 6-32.9-11.4-36.1-8.5-5.3-30 10.9-14.8 11.9 2.4-18 31.9 3 10.9 3.8-20.6-5-24 27.7-1.9 22.2 9.5-9 13.2 3.6 22-.6l14.4-52c-8.2-2.1-6.2 9.4-9 14.4l-10.2 36.4zM242 216c3.7 18.2-32.5 11.5-14 .5 3.2 1.5 15.2-6.2 14-.5zM85.2 268.6C75 262.8 63 265.7 52 265v52c9.5 2.9 5-8.2 6-13.8-3-9.8 6.4-7 12.8-7.2 16.3 3.2 27.5-16.2 14.4-27.4zm-4 19c-5.6 2-20.2 5-23.2.3 1.6-5.2-3.9-17.3 4.3-15.9 10.3-.6 29.2-.8 18.8 15.5zm37.6-7.1c-11.6-4.8-21 9.5-17.8-8.2 4.3-8.3-9.7-11-7-2V317c9.7 3.1 6.7-6.5 7-12.8-5.7-13.6 14.7-30.8 17-9.9V317c9.5 2.9 5-8.2 6-13.8-.7-7.5 2.6-18-5.2-22.7zm26-1.6c-23.2-1.4-23.2 40 0 38.5 23.2 1.2 23-39.7 0-38.5zm7.7 29.9c-15.9 14.9-27.8-20.2-10-24.5 13.5-2.6 16.2 16.3 10 24.5zm40.3-25.6c-9.1-12.2-21.6 6.1-24-3.2-6 .5-1.3 12-2.8 17v20c8.9 2.2 3.6-9.7 5-14.9-6.2-14.8 19-26.6 18-6.8V317c9.5 2.9 5-8.2 6-13.8-.5-6.6 1.5-14-2.2-20zm22.8-4.3c-26.7-.5-20 47.6 6.2 37.8 14.5-2.3 8.1-21.2.1-6.2-12.8 9.1-24.8-16.3-6.4-10.5 6-1.5 20 4.4 16.6-6.1-.7-8.3-8-15.4-16.5-15zM205.2 295c-2.6-18.9 29.3-7.5 17.4 0h-17.4zm284.3-46.8L306.6 138.6c-13.1-6.1-16.2 10-14.6 19.4v207.7c2.2 14.2 17.3 7.7 24.6 1.7 58.1-35.1 116.8-69.6 174.6-105 4.1-4 3.2-11.3-1.7-14.2zM310 349.7V162.3L466.2 256 310 349.7zM53 214c-9.5 2.9-5-8.2-6-13.8V181c-7.7-2.3-9.4 6.9-13.7 11.3C28.5 200 22 207.2 18 215.2c-2.1 8.7 9.8 3.3 14.9 4.8 9.3-3 7 5.7 7.1 12 9.3 3 6.9-5.8 7-12 6.1.5 6.6.5 6-6zm-13 0c-4.2-1.3-19.5 3.2-13.4-3.5L40 191.2V214zm36.2 18c3.6-3.2 7.3-15.4 10.8-12.7 4.3 4.2 5.5 14 12.7 12.7 7.6.6-4.6-9.1-5.7-13-7.2-5.5-2-10.7 2.3-16 6.1-5.4 6.4-11-2.2-7.1-5 7.7-9.5 15.6-14 3.3-1.3-6.7-16-5.6-6.8 1 1.9 5.4 12 10.7 6.3 16l-11 15.8h7.6zm78.4-46.5c-10-7.2-23-3.6-34.6-4.5v51c13.7-.9 32.5 4.2 39.7-11.3 4.7-11.1 4.4-26.7-5.1-35.2zm-.3 30.5c-2.5 12-20 11.2-27.3 9v-37c10.4.2 25.9-2.6 28 11.3 1 5.5 1 11.4-.7 16.7zm25-5.2c-22.3-1.9-14.6 31.3 5 20.9 7.6-8.3 6 2.7 14.4.3-6-11 4.8-29.5-8.5-36.6-8.5-7.2-34.3 8.8-18.3 11.1 6-19.4 34.3 5.5 7.4 4.3zm10 11.4c-6.7 15.6-29.3-3.7-9.3-6.3 8.7-1.5 12.3-4.9 9.3 6.3zM203 221c-6 14.8 23 12 10.2 5.7-6.2-4-2-15-3.2-22.1-.8-4.1 12.9-6.4 2.8-9.6-7.4 1.7 2-17.5-6.6-10.7-5.9 2.9-1.4 11.9-7.2 12.8 1.7 4.8 6 7 4 15.6v8.3z"/></svg>