<svg xmlns="http://www.w3.org/2000/svg" width="512" height="512"><path d="M417.4 458.2c-5.2-1.8-20.8-3.7-7-.5 1.2-.4 8.2 3.1 7 .5zm-247.8-58.5c-9.5-7-12 6.3-14.2 13-4.2 13-10.5 26-13.4 39.3 11.1 5 6.5-13.6 13.9-14 6.6 1.7 18.4-3.8 21 3.6-1.8 7.7 12.6 17.1 9.9 5.7l-17.2-47.6zM155.2 432c3-8.7 6.1-17.4 9.3-26l9.4 26h-18.7zm68-14.9c-24.3-23.3-46 30.2-16.1 35.6 10.2 6.8 29.1-12.5 9.7-5.7-19 4-21.6-19.8-2-13 13.4 2.5 15.8-5.4 8.5-16.9zM199.8 429c-3-22.8 33-3.8 15.4 0h-15.4zm58.9-15.1c-10.5-6.2-14 9.2-18.6-1.4-6.9 1.9-1.3 14-3.1 20 1.9 6-4 18.5 3.3 20 7.8-1.4 1.8-14 3.7-20-4.4-14 14.6-10 14.8-17.5 0-.4-.3-.8-.1-1.1zm10.8-16.8c-15.9 9.3 15.1 8.5 0 0zm3.8 16.1c-11.2-4.8-6.4 9.6-7.3 15.6.5 7.6-1 16.2.7 23.3 11.4 3.4 6.2-10.8 7.3-17.2-.5-7 1-15.3-.7-21.7zM313 426c6.4-20.5-36.9-14.4-25.8-5.3 12-14 30.9 13.5 9.8 8.5-29.4 2-4.1 36.9 10 19.5 4.8 11.2 7.9-5.4 6-11.2V426zm-6 16c-11.4 17.2-28.1-10.1-5.3-8 8-1.6 4.6 2.5 5.3 8zm25-46.3c-9.3-6.2-5.2 8.4-6 13.7v42.8c10.5 2.8 4.4-11.6 6-17.3v-39.2zm32.6 38.1c-10-1.5-25.2-17.9-5.6-16.1 20 4.5-13-17.4-16.1 1-9 15 33.8 20.2 10.1 28.8-7.3-6.1-18.3-1.8-7.2 4.3 11.5 5.3 29.1-5.4 18.8-18zM200 359c22-5.7 2-26.7-13.3-23.1-11.1-6.5-46.3-4-38.7-21.8l33.2-102.3c28.2-3 21.2-49.5-7-43.6-23.2 3.2-17.7 28.4-13.8 42l-33.6 103.2c-54-28.5-90-88-88.1-149.2-.2-35.2 11.6-69 25.7-100.6-9.4-26.9-28 6-30.3 20.1C9 146.1 12.7 222 54 276.6c34.1 46.7 89.6 73.9 145.9 82.4zm283.6-135H448c-.5-20.5 1-41.3-.8-61.7-13.3-17.3-22.7 6.4-19.2 19V224h-25c-.4-13 .9-26.1-.8-39-13.3-17.3-22.7 6.3-19.2 19-1.8 6.1 4 19.9-3.8 20-6.4-1.5-18.8 3-21.2-2.5v-77.9c-7.3-22.5-26.6-1.4-21 13.8V224h-24c-.5-20.5 1.1-41.3-.9-61.7-13.5-17.2-23.8 6-20.1 19V224h-26V120.9c-7.1-22.6-25.5-1-20 13.8v213.2c7 22.6 25.5 1 20-13.8V244h26c.5 20.8-1 41.8.9 62.4 13.5 17.3 23.8-5.8 20.1-19V244h24v81.2c7.3 22.5 26.7 1.4 21-13.8V244h25c.4 13.2-1 26.6.8 39.7 13.3 17.4 22.7-6.3 19.2-19 1.5-6.2-3.2-18.6 2.5-20.7 7.1.8 17.5-1.6 22.5 1.3.5 20.3-1 40.9.8 61.1 13.3 17.3 22.7-6.3 19.2-19V244c13.2-.4 26.5 1 39.5-.8 10.2-3.7 6.8-19.7-4-19.2z"/></svg>