<svg xmlns="http://www.w3.org/2000/svg" width="512" height="512"><path d="M72.7 262c-3 15.3-6.4-8.7-10-14.9-2.6-5.3-3.2-13.5-7-17.1H18c-2.9 9.4 8 5 13.7 6 .7 12 0 25.4.3 38 9.4 2.9 5-8 6-13.7V236c5.7 1.2 15.5-3.5 16.3 4.9l13 33.1c8.4 2.6 8-7.6 10.9-12.7L90.3 230c-8.3-2.7-7.7 7.6-10.6 12.8l-7 19.3zm58.7-5.3c-6.9-2.7 15.2-7 8.4-17.5-4.9-13.3-21-8.1-32-9.2-6 .4-1.3 11.8-2.8 16.8V274c9.4 2.9 5-8 6-13.7-1.7-12.2 19.8-2.7 20.4 5.7.6 5.8 11.2 11.8 11.3 6.2-3.7-5.2-6.6-11.1-11.3-15.5zm-7.9-6.7c-6.5 0-15.5 2.3-12.5-7.4-3-9.4 4.9-7.9 11.6-7.6 14-2.7 16.2 16.7 1 15zm34.5-8c-24.4 0-15.5 43.6 7.5 31.6 12.2-6.9 1.5-14.5-4.4-3.3-14.6 1.5-15-15.3-.7-10.3 14.6 5.2 15.5-11 3.4-16.9-1.7 0-4-2-5.8-1zm-8.9 14c2.4-21.7 30 4.3 7.1 0h-7.1zm35.6 13.8c-5.4-4-1.5-14.4-2.7-21.2 4.9-1.7 7-5.5 0-6.7 2.4-7.7-2.7-13.6-6-4.9 2 7.2-9.1 8 0 11 .6 8.3-1.5 17.1 1.8 24.8 4.6 5.8 15.8-1.1 6.9-3zM222 260c0 18.5-21.1 8-15-6 2-5.9-1.7-16.2-6-8.9 1.1 9.6-3.6 23 6.4 29 9.4 4.5 14.4-7.2 17.7-.1 4.3-2.3.7-12.4 1.9-17.9-.1-4.9 1.8-17.4-5-12V260zm50.8-14.2c-8.3-10.2-18.1 4.7-20.9-2.8-5.4-1.8-15.4 1.3-14.9 2.5-3.6-8.2-6.7 3.9-5 9V274c9.4 2.9 5-8 6-13.7-5-10 13.7-18.2 11-11.2V274c8.8 2.2 3.6-9.5 5-14.7-3.2-17 21.3-14.9 16 1.1.2 5-1.9 17.8 5 12.5-.7-9 1.8-19-2.2-27.1zm216.6 2.9c-58.2-34.7-116-70-174.4-104.3-12.7-2.3-11.3 12.6-11 20.8.2 65.5-.4 131 .3 196.4 4.6 12 16.6 3 23.5-1.4 54.4-32.8 109.2-65 163.3-98.3a8.6 8.6 0 0 0-1.7-13.2zM321 344.3V167.7L468.2 256 321 344.3z"/></svg>