<svg xmlns="http://www.w3.org/2000/svg" width="512" height="512"><path d="M42.6 256.5c17-11.6-3.8-25.7-17.3-21.5-9.6-2.9-8.9 4.5-8.3 11.7V280c10.4-1.1 22.8 3.1 31.4-4 5.5-6.4 3-17.7-5.8-19.5zM23 241c9.4-2.2 29 2.5 15.4 13.1-7.6 1.4-19 3.7-15.4-7.6V241zm21 30.5c-3.4 3-23.5 8.3-21-1.8-2-8.4 1.2-11.7 9.6-9.7 7-1.6 15.6 3.6 11.5 11.5zm39-4.5c3.9-14.6-10.1-26.8-24.1-17.5-10.3 9 2.4 11 6.1 2.4 16-3.2 12.8 14.2-1.5 10.3-25.3 7.7 5.7 28 13.9 16.6 10.1 6.3 4-5.7 5.6-11.8zm-6-1c3.9 16.5-29.4 11.2-12.6 1 2.4 1.3 14-5.5 12.6-1zm30.6-2.6c-10.5.8-24.8-13-6-11.5 8 12.7 14.5-3.1.3-4.8-17.4-5.3-21.4 21-2.5 19.8 19.5 4.3-7.8 17.8-10 3.4-15 7.7 25 20.9 23.3 1a8 8 0 0 0-5-7.9zM117 247c8.9-2.2 3.6 9.7 5 15-1.3 5.4 2.6 16-2.1 18-6.2-.5-1.4-12-2.9-17v-16zm0-12c9.9-3.6 3.3 13.8 0 4.9V235zm28.1 40c-22 12.6-17.2-37.4 1.3-19.7 12.5 10.3.5-16.3-10.9-8-22.7 6.2-7.3 47.2 13.4 31.2 10.4-7.5-1.1-16-3.8-3.4zm21.9-34c5.2 1.3 16.7-3.8 14 5.3V280c9.7 3.1 6.6-6.6 7-12.8V241c4.8-1.6 16.8 4 15-4.3-2.6-4-12.6-.6-18.1-1.7H167m70.9 33.5c-3.2 15.7-6.7-8.8-10.3-15L221 235c-10.8-3-3.5 6.4-1.9 11.9l13.2 33c8.5 2.8 8.3-7.4 11.4-12.8l12.9-32.1c-8.6-2.8-8.2 7.5-11 13l-7.7 20.5zm252.3-20.2L308.1 139c-13.2-6-15.5 10.2-14.1 19.4v207c1.9 14.1 17 7.4 24 1.6 58-35 116.4-69.3 174-104.7a9 9 0 0 0-1.8-14zM313 349.3V162.8c51.9 31 103.7 62.2 155.6 93.3L313 349.4z"/></svg>