<svg xmlns="http://www.w3.org/2000/svg" width="512" height="512"><path d="M289 258.8c5-15-15-25.1-23.7-11.4-.7 10.2 18.5-13 18.5 5.1-11.7-2-30.8 12.1-12.6 19 8.6.2 11.6-4.9 17-.5 4.6 1.6-1.4-9.8.8-12.2zm-6.4 4.3c-9.6 14-21.8-7.8-2.5-5.7 4.8-4.2 2.5 3.9 2.5 5.7zm208.3-13.8c-53.5-31.9-106.6-64.4-160.3-95.8-12.3-2.3-10.9 12-10.6 20V351c2.1 13 15.7 6 22.2.8 50-30.2 100.5-59.8 150.2-90.3a7.9 7.9 0 0 0-1.5-12.2zM336 337V174.8L471.3 256 336 337.1zM43.3 264.5c-23.4 15-29.2-36.1-3.5-29.3 2.9 4.4 15.6 13 10 1.7-11-15.8-37.3-1.7-32.3 16.5-1.4 20.6 31.8 25.4 35.3 4.8-8-3.7-4.3 2.1-9.5 6.3zm23.9-23.3c-25.3.3-10.8 45.1 9.8 26.5 7.6-8.6 3.8-27.2-9.8-26.5zm6 23.6c-18.9 14.4-19-31.1 0-16.7a15 15 0 0 1 0 16.7zm31.8-20.2c-8.2-9.4-18 5.4-20-3.6-4.4 2.2-.8 12.3-2 17.7-1.1 5 .2 17.8 5 10.2 1-8-3.7-21.9 7.8-23.4 10.3 1.9 4.8 15 6.2 22.3 2 9.4 5.9-3.4 4-8.2-.5-5 1.2-10.4-1-15zm14.7 22.1c-7-2.9-2.3-13.3-3.7-19.6 5.4.6 9.9-7.8 0-6.1 2.8-9.4-4.7-11-4-1.1-7.1 3.3 1.6 5.8 0 12.3-2.7 8.4 4 27.2 10 15.6-.3-1 .3-3-2.3-1zm19.4-23.9c-8.2-5.7-11 7.6-12.1-1.8-7.8-1.2-2.4 10.6-4 15.6 1.3 5.1-3.7 16.7 5 14.4.8-7.8-2-17 2.8-23.7 5.4-2.6 6.7 3 8.3-4.5zm11.4-1.6c-25.3.3-10.8 45.1 9.8 26.5 7.7-8.6 3.8-27.2-9.8-26.5zm6 23.6c-18.9 14.4-18.9-31.1 0-16.7a15 15 0 0 1 0 16.7zM167 231c7.8-1.2 2.4 10.6 4 15.6V271c-7.8 1.2-2.4-10.6-4-15.6V231zm48.4 3.3c-7.3-4.5-20.6-4.1-27.4-2.3v39c11.8-.3 29 3 32.6-12.2 2.1-8.2 1.6-18.6-5.2-24.5zm-.2 24c-.6 8.3-22 12.2-21.2 3.6V236c14.1-3.4 27.6 7 21.2 22.3zm33.8.5c5-15-15.2-25.1-23.9-11.4-.6 10.2 18.6-13 18.5 5.1-11.6-2-30.7 12.1-12.5 19 8.6.2 11.6-4.9 17-.5 4.6 1.6-1.3-9.8.9-12.2zm-6.4 4.2c-9.6 14.2-22-7.7-2.5-5.6 4.8-4.2 2.4 4 2.5 5.6zm19 3.7c-5.2-4-1.5-14-2.6-20.6 10.3-1.5-2.1-4.8 0-10.3-1.2-10.3-5.2 4.9-7 5.2-6.5 4.2 6 5.2 2 13.3-4 8.8 7.9 25.5 9.7 12.2z"/></svg>