<svg xmlns="http://www.w3.org/2000/svg" width="512" height="512"><path d="M30 282h47c1.9-8.5-1.1-12-9.8-10H30v-26h50c1-7.6.6-13.7-8.7-11H19v87h64c1.9-8.5-1.1-12-9.8-10H30m54-66h29v76c6.6.1 15.2 2.1 12-7.6V246h28c1-7.6.6-13.7-8.7-11H84m130 5c-15.9-8.3-34.6-3.9-52-5-9-2.3-3.5 9.9-5 15.2V322c6.6.1 15.2 2.1 12-7.6V286c16.5-1.2 36.8 4.4 49.2-9.4 8.2-10.7 7.1-28.4-4.2-36.6zm-6.9 32c-11.4 6.8-25.4 3-38.1 4v-30c12.3.8 25.3-2 36.9 2.2 7.5 5.2 7.9 17.8 1.2 23.8zm281.4-24.6L286.3 126.1c-14-6.6-18.2 10.2-16.3 20.5v230.7c2.2 15.2 18.5 9 26.4 2.5l192-115.2c6.4-3.5 6.5-13.6 0-17.2zM291 359.6V152.4L463.7 256 291 359.6z"/></svg>