<svg xmlns="http://www.w3.org/2000/svg" width="512" height="512"><path d="M19 276c10.2 3.3 6.4-7.3 7-13.6 0-7-2.4-16.7 8-13.4 6.2-.8 15.6 1.5 20-1.1 2.2-9-10.6-3.3-15.8-4.9-8 .8-15.1 1-12.2-9-2.5-9.6 2.7-11.5 11.3-10H59c3.3-10.2-7.3-6.4-13.6-7H19m45 0c8.6-5 10.4 11.3 2.5 9-5 1.6-1.4-6.5-2.5-9zm0 17c10.2-3.3 6.4 7.3 7 13.6V276c-10.2 3.3-6.4-7.3-7-13.6V234zm46.6 4.5c-10.3-16.6-31 10.2-25.6-12.7 4.5-8-8.2-13.7-7-4.3V276c10.8 1 4.4-7 15 1.5 21.5 4.4 28.5-25.3 17.6-39zm-6.1 29.2c-18.1 16.9-29.6-24-10.4-29 15.3-2.5 17 20 10.4 29zm38.7-33c-11.9-8.7-17.3 10.4-20.5-.7-9-2-3 10.7-4.7 15.8V276c10.1 3 9.7-4.6 9-12.4-1.9-12 2.4-26.9 14.5-24.1l1.7-4.8zm17.4-2.3c-26-1.4-27.8 44.5-2 45.5 9.6 5.1 31.3-15.9 14-15-3.6 24.4-39.2-6-16.8-4.9h24.6c1.4-12.1-6-26.2-19.8-25.6zM148 251c-2.4-20.8 33.7-9.7 21.2 0H148zm339.4-5.1L249.6 103.3c-15.3-7.6-20.9 10.8-18.6 22.5v272.8c2 17 20.3 11.4 29.2 3.7l227.1-136.2c7.6-4.2 7.6-16 .1-20.2zM254 377.9V134.1L457 256 254 377.8z"/></svg>