<svg xmlns="http://www.w3.org/2000/svg" width="512" height="512"><path d="M91.4 162c20.5 14.7 21.8-17.3 6.8-25.4C80.9 113.9 65.1 89.8 46 68.7c-31-1-1.8 30.4 7.5 42 12.8 17 25.4 34 37.9 51.3zm19.1-44.7c16.3 16.3 25.7-13.5 10.1-22.6C107 82 99.3 38.8 76.5 52.7c-.9 22.7 25.2 43.4 34 64.6zm20-48.3c21 15 21.6-18 6.2-26-10.7-23.3-34.8 3-14.2 15.1a728 728 0 0 1 8 10.9zm355.4 184H66v-97.5c-2.2-15-19.6-9.4-30.3-10.5C23 141.9 13 151.7 16 164.7v304.1c2 14.9 19.4 9 29.8 10.2h440c14.9-2 9-19.4 10.2-29.8V263.9c0-5.5-4.4-11-10.1-10.9zM45 253c-12 3.8-8.8-7.7-9-15.7V165c12-3.8 8.8 7.7 9 15.7V253zm165.5 171c-2 8.7-8.7 7.4-15 7-5.4-4.1-4.9-11.4-10.2-17.9l-16.5-28.4c-9.2 15.7-18.7 32.6-27.4 47.4-7.6-3.5-15.4 3-15-10.2L94.7 304c7.2-1 18.4-9.2 18 3.2l26 97 26-45.2c5.8 4.9 13.6 4.3 15 11.6l18.1 31.6 27.5-102.6c6.7 2.8 20.5 1.6 13.9 12l-29.8 110.8c1-.5.4 1.7 1 1.7zm107.5 8.2L304.6 382h-29.2L262 432.2c-6.7-2.9-20.4-1.7-13.8-12.1l32.3-120.6c6.2 6.4 18.3-3.8 20.1 3.9l33.5 124.4-16 4.4zm104-115.6V376h-52v56c-6.6-1.6-21 4.7-18-6.6V300h70v16.6zM279.8 365c5.6-2 21.7 4.2 19.4-3.8l-9.2-34.4m0-24.6c-10.4-6.7-11.6 2.7-13.3 11.2l-30.5 114.3c7.2 1 18.3 9.3 17.8-3.1l11.4-42.6h29.2l13.4 50.2c6.7-2.8 20.7-1.5 14-12l-32.4-120.6-9.6 2.6zM279.8 365l10.2-38.2 10.2 38.2h-20.4zm-54.5-65.5l-27.5 102.6c-7.4-12.6-15-26.6-22-38.1-7.1-2-13.6-8.2-16.4 4l-20.8 36.1-28-104.6c-6.7 2.8-20.5 1.6-13.9 12L129.1 432c7.8-3.6 15 2.3 16.9-7.9l22.8-39.5 23 39.8c-.9 8.4 8 5.3 14.2 7.3 4-5.3 3.7-12.1 6.2-19.6l29-108.3m123.1-3.9c-10.2-2.2-14.8 1.2-12.3 11.8V432c6.6-1.6 21 4.7 18-6.6V376h52v-76h-53M36 165c12-3.8 8.8 7.7 9 15.7V253c-12 3.8-8.8-7.7-9-15.7V165zm334 151h36v44h-36v-44z"/></svg>