<svg xmlns="http://www.w3.org/2000/svg" width="512" height="512"><path d="M195 374c10.2 3 9.7-4.7 9-12.5V340h36c3.3-10.2-5.5-8.1-12.5-8H204v-24h42c2.5-9.6-2.7-11.5-11.4-10H195m122 13v63c9.6 2.5 11.5-2.7 10-11.4V298c-7 0-15.5-2.2-15.6 7.5-6.5 19.3-13.3 38.5-19.5 57.8-6.9-21.9-14.4-43.5-21.6-65.3-6.2.8-17.5-3.5-14.3 6.8V374c9.6 2.5 11.5-2.7 10-11.4V310l20.8 64c9.2 2.9 11.2-4.4 13-11.9l17.2-51zM169.6 430c-9.3-7.6-14.5 3.9-16 11.8-6.2 17.4-12.8 34.6-18.6 52 9.2 7.3 11-7 13.4-13.4 1.7-7.2 12.5-1.7 18.2-3.4 8.3-1.8 13.2 1 14 9.7-1.5 10.4 17.1 12.3 10 1l-21-57.7zm-17.9 41l11.6-34 11.7 34h-23.3zm84.6-19.4c-15.5-17-43 1.4-37.8 22.4-1.2 20.8 25.5 28 40.2 17.8 1.7-14.5-29.6 9-30.7-12.6-4.9-12.2 11.7-5.5 18.6-7.2 14.3 4.4 19.8-9 9.7-20.3zm-29 14.4c-3.4-22.8 36-12 21.8 0h-21.9zm73-18.4c-9.2-11.1-21.4 15.9-20-1.3-11.2-3.8-6.3 10-7.3 16 .2 10.7-.5 21.7.3 32.3 11.4 5.6 8.6-7.8 8.7-14.3.8-8.7-3-19.3 6-24.9 5.1-6.5 15.7 5.4 12.4-7.8zm16.8-1.3c-11.4-4-5.9 9.9-7.1 16 .3 10.9-.6 22.4.4 32.8 11.5 4 6.6-9.7 7.6-16-.2-10.7.3-21.6-.2-32.3l-.7-.5zm-3.4-19.6c-18.2 7.4 14.8 16.1 2.6.3l-2.6-.3zm50.2 23c-6.2-11.4-40.9-.4-28.2 6.4 8.4-12.3 33.7 4 20.9 9.9-16.4-4.4-38 15.1-20 28 11 9.7 22.6-10.9 25.4 1.4 10.6 1.8 4.4-12.4 6-18.5-.7-9 2.2-20-4.1-27.3zm-3.9 33c-8.4 16.4-33.6-1.4-13.9-9.7 9.6-3.3 17-1.2 13.9 9.7zm31-58.4c-11-5.6-7.6 8-8 14.3 0 18.7-.2 37.4.1 56 11.1 5.5 7.4-8.1 7.9-14.3v-56zM398.5 130c-14.3 1.4-9.7 17.7-10.5 27.6-3.7 3.2-13.4.3-19.4 1.3-5.3-1.7-17.8 3.8-17.6-3.4V83.4c-6.3-22.5-26.6-2.7-21 12.6v63h-35c-.5-17 1-34.3-.8-51.2-12.7-17.3-24 4.7-20.2 17.7V159h-36V55c-6.3-22.5-26.6-2.8-21 12.5V159h-37V83.4c-6.3-22.5-26.6-2.7-21 12.6v63h-35V26.3c-6.3-22.5-26.6-2.7-21 12.5v273c6.3 22.4 26.6 2.7 21-12.6V180h35v74.6c6.3 22.5 26.6 2.7 21-12.5V180h37v103.3c6.4 22.5 26.6 2.7 21-12.6V180h36c.5 16.7-1 33.6.8 50.2 12.7 17.3 24-4.7 20.2-17.7V180h35v74.6c6.3 22.5 26.6 2.7 21-12.5V180h37c.8 10-4 26.4 10.5 28 14.3-1.5 9.7-17.7 10.5-27.6-.5-14.6 1-29.4-.8-44a10.5 10.5 0 0 0-9.7-6.3z"/></svg>