<?xml version="1.0" encoding="UTF-8" standalone="no"?>
<svg
   xmlns:dc="http://purl.org/dc/elements/1.1/"
   xmlns:cc="http://creativecommons.org/ns#"
   xmlns:rdf="http://www.w3.org/1999/02/22-rdf-syntax-ns#"
   xmlns:svg="http://www.w3.org/2000/svg"
   xmlns="http://www.w3.org/2000/svg"
   xmlns:sodipodi="http://sodipodi.sourceforge.net/DTD/sodipodi-0.dtd"
   xmlns:inkscape="http://www.inkscape.org/namespaces/inkscape"
   width="512"
   height="512"
   viewBox="0 0 512 512"
   version="1.1"
   id="svg6"
   sodipodi:docname="1x blue cat6.svg"
   inkscape:version="0.92.1 r15371">
  <metadata
     id="metadata12">
    <rdf:RDF>
      <cc:Work
         rdf:about="">
        <dc:format>image/svg+xml</dc:format>
        <dc:type
           rdf:resource="http://purl.org/dc/dcmitype/StillImage" />
      </cc:Work>
    </rdf:RDF>
  </metadata>
  <defs
     id="defs10" />
  <sodipodi:namedview
     pagecolor="#ffffff"
     bordercolor="#666666"
     borderopacity="1"
     objecttolerance="10"
     gridtolerance="10"
     guidetolerance="10"
     inkscape:pageopacity="0"
     inkscape:pageshadow="2"
     inkscape:window-width="640"
     inkscape:window-height="493"
     id="namedview8"
     showgrid="false"
     inkscape:zoom="0.4609375"
     inkscape:cx="256"
     inkscape:cy="256"
     inkscape:window-x="0"
     inkscape:window-y="0"
     inkscape:window-maximized="0"
     inkscape:current-layer="svg6" />
  <path
     d="m 237.85,246 c 4.00754,4.71841 9.86406,-2.79215 9.57911,-9.14923 C 253.56941,214.90051 259.7097,192.95026 265.85,171 c -8.85026,-2.93483 -8.69648,5.99062 -10.61883,12.18135 -5.69372,20.40621 -11.38745,40.81243 -17.08117,61.21865 -5.65736,-14.9433 1.83727,-32.35008 -5.29,-46.74 -11.474,-11.17596 -41.28276,-6.05693 -40.29601,10.89408 12.10406,4.24764 17.42933,-18.72492 31.96601,-6.00408 11.82025,21.16749 -28.44355,6.08335 -32.77,22.75 -11.32833,27.86576 30.37127,21.79643 36.6825,17.7125 -0.1552,5.23399 6.44233,2.14358 9.4075,2.9875 z M 227,223.06 c 6.21232,20.49453 -36.53359,23.86776 -24.66625,3.145 4.45583,-1.07768 26.39698,-9.71443 24.66625,-3.145 z M 66.07,272 C 52.032379,265.05562 35.645703,269.06852 20.496742,268 13.290162,267.22843 18.647055,279.02033 17,283.80829 c 0,19.0639 0,38.12781 0,57.19171 8.21299,1.718 12.072864,-0.91712 10,-9.48497 0,-7.17168 0,-14.34335 0,-21.51503 13.71215,-1.05535 29.633155,3.36279 41.22,-5.75 8.518246,-8.67257 8.065334,-25.12683 -2.15,-32.25 z m -5.87,26.4 c -10.260227,4.63729 -22.161607,1.82323 -33.2,2.6 0,-8 0,-16 0,-24 10.690745,0.66773 21.985556,-1.67352 32.12875,1.975 6.262036,4.23245 6.850023,14.58098 1.07125,19.425 z m 54.42,-9.15 c -8.61205,-9.03669 -25.928584,5.73174 -27.62,1.82834 0,-7.69278 0,-15.38556 0,-23.07834 -9.434306,-2.90339 -8.459826,4.602 -8,11.59274 0,20.46909 0,40.93817 0,61.40726 9.434306,2.90339 8.459826,-4.602 8,-11.59274 0.695747,-12.01268 -3.717575,-29.44037 11.32625,-34.19476 15.06004,-4.58744 16.87359,12.42344 15.67375,22.94636 0,7.61371 0,15.22743 0,22.84114 8.93961,2.42666 10.28798,-2.73792 9,-10.53886 -1.12195,-12.76493 3.15544,-27.33346 -4.57125,-38.44239 0.21195,1.0926 -3.81726,-4.36285 -3.80875,-2.76875 z m 37.42,-2.33 c -19.2333,-1.27147 -29.17164,20.64736 -24.00969,37.05801 3.52476,23.14105 40.54979,25.04943 47.19,2.97058 5.74682,-15.87663 -1.03634,-39.05597 -20.51808,-39.92609 L 152.02,286.91 Z m 11.18,43.13 c -17.47327,17.13654 -34.68339,-12.0995 -24.35141,-27.7425 15.01944,-22.27455 38.29179,7.51442 26.3286,24.845 L 163.24,330.04 Z m 58.23,-36.85 c -7.90333,-14.63635 -30.7325,0.5634 -32.44,-0.66166 3.91711,-7.89901 -11.609,-8.00501 -8,-0.26891 0,16.24352 0,32.48705 0,48.73057 8.93961,2.42666 10.28798,-2.73792 9,-10.53886 1.11581,-11.27271 -3.65233,-25.72121 6.65656,-33.66239 16.08719,-9.05001 20.39308,9.68616 18.33344,21.67622 0,7.50501 0,15.01002 0,22.51503 8.93961,2.42666 10.28798,-2.73792 9,-10.53886 -0.8524,-12.33503 2.16572,-25.75006 -2.55,-37.25114 z m 32.95,-6.28 c -19.188,-1.13758 -28.84446,20.97222 -23.89812,37.22145 3.74595,23.61696 43.10934,25.11549 47.83812,1.25855 -12.93113,-6.27849 -14.80496,17.20188 -29.48625,8.33 -12.49691,-6.50137 -13.08092,-22.73911 2.66288,-17.73 9.02446,0 18.04891,0 27.07337,0 1.70915,-14.65382 -8.25934,-30.09554 -24.19,-29.08 z M 239.38,309 c -2.58393,-23.51886 38.76199,-13.26907 26.57834,0 -8.85944,0 -17.71889,0 -26.57834,0 z M 489.97,247.2 C 434.03,213.63333 378.09,180.06667 322.15,146.5 c -13.8657,-6.66184 -18.00089,10.15083 -16.14,20.41274 0,63.25576 0,126.51151 0,189.76726 1.78317,15.21859 18.17046,9.53076 26.01111,2.84628 C 384.66074,327.94752 437.30037,296.36876 489.94,264.79 c 6.57782,-3.59806 6.60148,-14.0043 0.03,-17.59 z M 327,338.53 c 0,-55.02333 0,-110.04667 0,-165.07 45.86,27.51333 91.72,55.02667 137.58,82.54 -45.85714,27.50495 -91.73715,55.05029 -137.58,82.53 z M 90.86,245 c 21.24306,-4.44638 25.46629,-31.23577 20.82,-49.19812 C 108.21621,177.08853 88.405824,169.98733 71.516686,172 65.011124,172 58.505562,172 52,172 c 0,24.66667 0,49.33333 0,74 12.941298,-0.32873 26.0268,0.83118 38.86,-1 z M 63,237 c 0,-18.66667 0,-37.33333 0,-56 13.773719,0.24557 32.640971,-2.92852 38.14109,13.72359 5.47219,15.80677 2.3492,43.86185 -19.750309,42.25297 C 75.26069,237.02233 69.130227,236.99063 63,237 Z m 74.38,-21.2 c -28.03986,-3.50762 -25.32463,40.26246 2.395,31.44375 8.40169,-0.15007 14.90142,-12.73517 17.30889,-1.24375 15.53037,3.66621 0.56231,-15.64501 4.91611,-25.01166 1.04871,-12.4429 0.32156,-30.05271 -16.79906,-28.86881 -10.10473,-6.15345 -37.64274,13.90699 -20.97713,17.15591 4.37965,-9.66023 31.13131,-16.6306 29.24619,3.40456 -5.19662,1.72523 -10.73404,2.40088 -16.09,3.12 z m 16.62,3.95 c 2.96766,13.56231 -12.53571,26.84912 -25.19,18.46 -11.65938,-17.20698 17.01178,-14.11634 25.19,-18.46 z m 17,11.13 c -7.06707,15.05154 25.90004,24.48947 19.24,7.52 -13.71309,3.04053 -8.06972,-13.80972 -9.24,-21.7744 1.5625,-5.03325 -3.45697,-16.64848 3.16166,-16.6256 8.56328,3.48708 7.89498,-10.91242 -0.48497,-7 -5.84356,-0.66939 -1.18537,-11.84054 -2.67669,-16.86217 -1.97081,-1.85154 -13.44251,3.76363 -10,10.20548 3.68711,10.01378 -9.36017,3.29316 -6,12.98 7.86479,-1.42369 6.00383,6.87838 6,13.32332 0,6.07779 0,12.15558 0,18.23337 z"
     id="path4"
     inkscape:connector-curvature="0" />
</svg>
