<?xml version="1.0" encoding="UTF-8" standalone="no"?>
<svg
   xmlns:dc="http://purl.org/dc/elements/1.1/"
   xmlns:cc="http://creativecommons.org/ns#"
   xmlns:rdf="http://www.w3.org/1999/02/22-rdf-syntax-ns#"
   xmlns:svg="http://www.w3.org/2000/svg"
   xmlns="http://www.w3.org/2000/svg"
   xmlns:sodipodi="http://sodipodi.sourceforge.net/DTD/sodipodi-0.dtd"
   xmlns:inkscape="http://www.inkscape.org/namespaces/inkscape"
   width="512"
   height="512"
   viewBox="0 0 512 512"
   version="1.1"
   id="svg4"
   sodipodi:docname="blue cat6 black RGB.svg"
   inkscape:version="0.92.1 r15371">
  <metadata
     id="metadata10">
    <rdf:RDF>
      <cc:Work
         rdf:about="">
        <dc:format>image/svg+xml</dc:format>
        <dc:type
           rdf:resource="http://purl.org/dc/dcmitype/StillImage" />
      </cc:Work>
    </rdf:RDF>
  </metadata>
  <defs
     id="defs8" />
  <sodipodi:namedview
     pagecolor="#ffffff"
     bordercolor="#666666"
     borderopacity="1"
     objecttolerance="10"
     gridtolerance="10"
     guidetolerance="10"
     inkscape:pageopacity="0"
     inkscape:pageshadow="2"
     inkscape:window-width="638"
     inkscape:window-height="493"
     id="namedview6"
     showgrid="false"
     inkscape:zoom="0.4609375"
     inkscape:cx="256"
     inkscape:cy="256"
     inkscape:window-x="0"
     inkscape:window-y="0"
     inkscape:window-maximized="0"
     inkscape:current-layer="svg4" />
  <path
     d="M 42.63,256.48 C 59.629844,244.88786 38.829817,230.80807 25.251779,235 15.702323,232.1099 16.449106,239.51605 17,246.7263 c 0,11.09124 0,22.18247 0,33.2737 10.418425,-1.14974 22.771587,3.09668 31.42375,-4.04625 C 53.864512,269.57599 51.461694,258.29684 42.63,256.48 Z M 23,241 c 9.392167,-2.21738 28.94305,2.51606 15.37,13.12 -7.548839,1.3496 -19.000662,3.64249 -15.37,-7.64822 0,-1.82393 0,-3.64785 0,-5.47178 z m 21.08,30.54 C 40.582122,274.51942 20.529083,279.82754 23,269.66986 21.087318,261.33581 24.208725,258.03585 32.594248,260 39.578306,258.41814 48.157877,263.64849 44.08,271.54 Z M 83,267.02 c 3.902644,-14.63887 -10.14958,-26.84163 -24.15,-17.56625 -10.262167,9.01317 2.439026,11.0361 6.165,2.4275 15.95133,-3.18353 12.796106,14.23135 -1.54375,10.3025 -25.284272,7.67802 5.705319,28.0816 13.89125,16.60875 C 87.510261,285.062 81.423394,273.14719 83,267.02 Z M 77,266 c 3.883349,16.45469 -29.391124,11.24539 -12.59,0.92125 C 66.761555,268.32213 78.375721,261.48122 77,266 Z m 30.63,-2.6 c -10.523378,0.76046 -24.841654,-12.96476 -6.085,-11.52125 8.13722,12.67882 14.54864,-3.09371 0.3525,-4.735 -17.389924,-5.38512 -21.408482,20.92981 -2.4575,19.72625 19.44941,4.37765 -7.798262,17.87385 -9.953104,3.47549 -15.139732,7.6294 24.990504,20.83565 23.203104,0.87451 0.20647,-3.37341 -1.95579,-6.61931 -5.06,-7.82 z M 117,247 c 8.88471,-2.24325 3.57599,9.70694 5,14.92439 -1.25184,5.48404 2.61079,16.08257 -2.13206,18.07561 -6.1577,-0.48375 -1.34166,-11.94126 -2.86794,-17.05644 0,-5.31452 0,-10.62904 0,-15.94356 z m 0,-12 c 9.87805,-3.58838 3.28482,13.82773 0,4.86794 0,-1.62264 0,-3.24529 0,-4.86794 z m 28.14,40.08 c -22.03561,12.47044 -17.25037,-37.47121 1.2775,-19.7475 12.49603,10.25995 0.475,-16.38237 -10.8925,-7.96375 -22.68087,6.11612 -7.31508,47.13041 13.345,31.16125 10.38746,-7.54558 -1.08742,-15.98065 -3.73,-3.45 z M 167,241 c 5.16275,1.28063 16.68322,-3.79647 14,5.33014 0,11.22329 0,22.44657 0,33.66986 9.70683,3.10938 6.64168,-6.5532 7,-12.79233 0,-8.73589 0,-17.47178 0,-26.20767 4.79465,-1.62672 16.81371,3.97097 15,-4.26411 -2.64045,-3.979 -12.60697,-0.63194 -18.12247,-1.73589 -5.95918,0 -11.91835,0 -17.87753,0 m 70.9,33.46 c -3.22258,15.70055 -6.65291,-8.75605 -10.31667,-15.05222 -2.20111,-6.13926 -4.40222,-12.27852 -6.60333,-18.41778 -10.7589,-2.91492 -3.48452,6.40955 -1.87639,11.88828 4.38546,11.03724 8.77093,22.07448 13.15639,33.11172 8.54434,2.71848 8.37481,-7.44966 11.42164,-12.86124 4.29946,-10.71292 8.59891,-21.42584 12.89836,-32.13876 -8.59968,-2.74011 -8.15107,7.54451 -11.06621,12.98712 -2.53285,6.8265 -5.10586,13.66181 -7.61379,20.48288 z m 252.34,-20.2 C 429.52,211.83333 368.8,175.40667 308.08,138.98 c -13.13529,-6.00516 -15.51995,10.24625 -14.08,19.4563 0,68.9579 0,137.9158 0,206.8737 1.90466,14.22502 16.92635,7.5273 24.08542,1.69719 57.9326,-34.98406 116.30769,-69.32546 173.9638,-104.7111 4.07622,-3.95854 3.08184,-11.22651 -1.80922,-14.03609 z M 313,349.36 c 0,-62.23333 0,-124.46667 0,-186.7 51.86667,31.11333 103.73333,62.22667 155.6,93.34 -51.86381,31.12162 -103.75048,62.23029 -155.6,93.36 z"
     id="path2"
     inkscape:connector-curvature="0" />
</svg>
