<?xml version="1.0" encoding="UTF-8" standalone="no"?>
<svg
   xmlns:dc="http://purl.org/dc/elements/1.1/"
   xmlns:cc="http://creativecommons.org/ns#"
   xmlns:rdf="http://www.w3.org/1999/02/22-rdf-syntax-ns#"
   xmlns:svg="http://www.w3.org/2000/svg"
   xmlns="http://www.w3.org/2000/svg"
   xmlns:sodipodi="http://sodipodi.sourceforge.net/DTD/sodipodi-0.dtd"
   xmlns:inkscape="http://www.inkscape.org/namespaces/inkscape"
   width="512"
   height="512"
   viewBox="0 0 512 512"
   version="1.1"
   id="svg6"
   sodipodi:docname="blue cat.svg"
   inkscape:version="0.92.1 r15371">
  <metadata
     id="metadata12">
    <rdf:RDF>
      <cc:Work
         rdf:about="">
        <dc:format>image/svg+xml</dc:format>
        <dc:type
           rdf:resource="http://purl.org/dc/dcmitype/StillImage" />
      </cc:Work>
    </rdf:RDF>
  </metadata>
  <defs
     id="defs10" />
  <sodipodi:namedview
     pagecolor="#ffffff"
     bordercolor="#666666"
     borderopacity="1"
     objecttolerance="10"
     gridtolerance="10"
     guidetolerance="10"
     inkscape:pageopacity="0"
     inkscape:pageshadow="2"
     inkscape:window-width="640"
     inkscape:window-height="493"
     id="namedview8"
     showgrid="false"
     inkscape:zoom="0.4609375"
     inkscape:cx="256"
     inkscape:cy="256"
     inkscape:window-x="0"
     inkscape:window-y="0"
     inkscape:window-maximized="0"
     inkscape:current-layer="svg6" />
  <path
     d="m 289,258.76 c 5.03575,-15.03128 -15.01332,-25.10742 -23.74375,-11.38 -0.62357,10.19625 18.54167,-12.99514 18.49375,5.13 -11.60978,-2.01471 -30.76823,12.12764 -12.54672,18.94375 8.59832,0.25807 11.60164,-4.81913 17.0553,-0.45375 4.55412,1.61023 -1.46343,-9.8032 0.74142,-12.24 z m -6.42,4.32 c -9.56709,14.03979 -21.78853,-7.79074 -2.44125,-5.71875 4.81025,-4.15305 2.46438,3.91868 2.44125,5.71875 z m 208.3,-13.8 C 437.39624,217.42658 384.27588,184.85719 330.56484,153.45156 318.32911,151.2346 319.73639,165.56171 320,173.47431 c 0,59.17523 0,118.35046 0,177.52569 2.14233,13.0007 15.69412,5.93196 22.23634,0.84867 50.01505,-30.19912 100.42619,-59.82476 150.1935,-90.38258 3.54713,-3.43027 2.70722,-9.77383 -1.54984,-12.18609 z M 336,337.14 c 0,-54.1 0,-108.2 0,-162.3 45.09,27.05333 90.18,54.10667 135.27,81.16 -45.08714,27.04162 -90.19715,54.12362 -135.27,81.14 z M 43.28,264.5 c -23.384048,14.94961 -29.155826,-36.12333 -3.45375,-29.30875 2.857244,4.41342 15.554884,12.95091 10.03,1.70625 -11.137066,-15.78238 -37.317055,-1.69971 -32.384688,16.51688 -1.382209,20.54337 31.846019,25.40399 35.318438,4.80562 -7.905499,-3.76948 -4.338998,2.12801 -9.51,6.28 z m 23.88,-23.27 c -25.294999,0.23467 -10.735201,45.07781 9.8525,26.46375 7.625887,-8.63088 3.744523,-27.20209 -9.8525,-26.46375 z m 6.1,23.52 c -18.918635,14.47638 -18.967012,-31.09921 0,-16.66 3.420603,4.69812 3.307812,11.97467 0,16.66 z m 31.77,-20.1 c -8.236402,-9.47259 -17.963798,5.32397 -20.109052,-3.64 -4.319056,2.21191 -0.759858,12.30207 -1.920948,17.67194 -1.100573,5.09342 0.241327,17.82209 5,10.24901 0.988673,-8.08723 -3.715426,-21.90859 7.82,-23.43095 10.24377,1.85427 4.80212,14.95321 6.18,22.31337 2.05773,9.36163 5.89115,-3.4146 4,-8.24816 -0.49672,-4.9303 1.23246,-10.33468 -0.97,-14.91521 z m 14.64,22.07 c -6.99919,-2.88284 -2.29468,-13.35799 -3.67,-19.60289 5.42783,0.53601 9.85146,-7.79527 0,-6.11711 2.75783,-9.41901 -4.74737,-10.93279 -4,-1.11237 -7.14945,3.35272 1.62217,5.77659 0,12.33953 -2.65586,8.33768 4.05777,27.1411 10.04453,15.56387 -0.3374,-0.94252 0.25235,-3.08048 -2.37453,-1.07103 z m 19.39,-23.92 c -8.11935,-5.69355 -11.03003,7.57609 -12.09953,-1.8 -7.71188,-1.19409 -2.39255,10.64302 -3.96047,15.59289 1.32025,5.14879 -3.72134,16.65941 5,14.40711 0.77924,-7.84629 -2.08753,-17.00904 2.82,-23.72 5.41317,-2.58316 6.70954,3.04176 8.24,-4.48 z m 11.41,-1.57 c -25.29884,0.23766 -10.72936,45.07406 9.85625,26.46375 7.64228,-8.63226 3.76974,-27.20378 -9.85625,-26.46375 z m 6.1,23.52 c -18.92288,14.47796 -18.95282,-31.0915 0,-16.66 3.42195,4.69677 3.33104,11.98642 0,16.66 z M 167,231 c 7.75741,-1.22644 2.43706,10.62487 4,15.59289 0,8.1357 0,16.27141 0,24.40711 -7.75741,1.22644 -2.43706,-10.62487 -4,-15.59289 0,-8.1357 0,-16.27141 0,-24.40711 z m 48.4,3.28 c -7.31227,-4.43236 -20.56837,-4.11904 -27.4,-2.24047 0,12.98682 0,25.97365 0,38.96047 11.76618,-0.33425 29.03658,3.02158 32.65,-12.22 2.07813,-8.21664 1.58838,-18.53944 -5.25,-24.5 z m -0.2,24.03 c -0.62471,8.33002 -21.95298,12.23072 -21.2,3.5419 0,-8.61397 0,-17.22793 0,-25.8419 14.12752,-3.42344 27.59181,7.07351 21.2,22.31 z m 33.8,0.45 c 5.00277,-15.04101 -15.15823,-25.09741 -23.855,-11.38 -0.64359,10.19077 18.5296,-12.98507 18.495,5.13 -11.5991,-2.01368 -30.77292,12.11705 -12.56516,18.94375 8.60174,0.25912 11.61276,-4.8216 17.05374,-0.45375 4.57383,1.61516 -1.33779,-9.81304 0.87142,-12.24 z m -6.43,4.24 c -9.5858,14.15691 -21.99076,-7.7061 -2.48125,-5.63875 4.81623,-4.14107 2.45726,3.95894 2.48125,5.63875 z m 18.96,3.72 c -5.11796,-4.04215 -1.38018,-14.03876 -2.53,-20.64242 10.26816,-1.46356 -2.11454,-4.80494 0,-10.27521 -1.22615,-10.29685 -5.24126,4.9013 -7.07905,5.18763 -6.42033,4.24485 6.07911,5.21354 2.07905,13.31621 -4.06066,8.74812 7.85289,25.52126 9.7,12.21379 z"
     id="path4"
     inkscape:connector-curvature="0" />
</svg>
