<?xml version="1.0" encoding="UTF-8" standalone="no"?>
<svg
   xmlns:dc="http://purl.org/dc/elements/1.1/"
   xmlns:cc="http://creativecommons.org/ns#"
   xmlns:rdf="http://www.w3.org/1999/02/22-rdf-syntax-ns#"
   xmlns:svg="http://www.w3.org/2000/svg"
   xmlns="http://www.w3.org/2000/svg"
   xmlns:sodipodi="http://sodipodi.sourceforge.net/DTD/sodipodi-0.dtd"
   xmlns:inkscape="http://www.inkscape.org/namespaces/inkscape"
   width="512"
   height="512"
   viewBox="0 0 512 512"
   version="1.1"
   id="svg4"
   sodipodi:docname="blue CAT6.svg"
   inkscape:version="0.92.1 r15371">
  <metadata
     id="metadata10">
    <rdf:RDF>
      <cc:Work
         rdf:about="">
        <dc:format>image/svg+xml</dc:format>
        <dc:type
           rdf:resource="http://purl.org/dc/dcmitype/StillImage" />
      </cc:Work>
    </rdf:RDF>
  </metadata>
  <defs
     id="defs8" />
  <sodipodi:namedview
     pagecolor="#ffffff"
     bordercolor="#666666"
     borderopacity="1"
     objecttolerance="10"
     gridtolerance="10"
     guidetolerance="10"
     inkscape:pageopacity="0"
     inkscape:pageshadow="2"
     inkscape:window-width="638"
     inkscape:window-height="493"
     id="namedview6"
     showgrid="false"
     inkscape:zoom="0.4609375"
     inkscape:cx="256"
     inkscape:cy="256"
     inkscape:window-x="0"
     inkscape:window-y="0"
     inkscape:window-maximized="0"
     inkscape:current-layer="svg4" />
  <path
     d="m 30,282 c 15.666667,0 31.333333,0 47,0 1.881595,-8.4681 -1.126824,-12.04619 -9.759521,-10 -12.413493,0 -24.826986,0 -37.240479,0 0,-8.66667 0,-17.33333 0,-26 16.666667,0 33.333333,0 50,0 1.009909,-7.56829 0.62407,-13.74082 -8.67513,-11 -17.441623,0 -34.883247,0 -52.32487,0 0,29 0,58 0,87 21.333333,0 42.666667,0 64,0 1.881595,-8.4681 -1.126824,-12.04619 -9.759521,-10 C 58.826986,312 44.413493,312 30,312 m 54,-66 c 9.666667,0 19.33333,0 29,0 0,25.33333 0,50.66667 0,76 6.64439,0.11414 15.16025,2.09976 12,-7.59074 0,-22.80309 0,-45.60617 0,-68.40926 9.33333,0 18.66667,0 28,0 1.00991,-7.56829 0.62407,-13.74082 -8.67513,-11 -20.10829,0 -40.21658,0 -60.32487,0 m 130,5.04 c -15.88351,-8.38952 -34.64082,-3.89359 -51.92417,-5.04 -9.02912,-2.27669 -3.62422,9.88065 -5.07583,15.18148 0,23.9395 0,47.87901 0,71.81852 6.64439,0.11414 15.16025,2.09976 12,-7.59074 0,-9.46975 0,-18.93951 0,-28.40926 16.47868,-1.19664 36.7963,4.39583 49.15871,-9.41115 C 226.40954,265.9447 225.30867,248.15334 214,240.04 Z m -6.88,31.92 c -11.42563,6.82954 -25.43053,3.0562 -38.12,4.04 0,-10 0,-20 0,-30 12.2534,0.79885 25.27178,-1.96639 36.8675,2.2475 7.49092,5.12832 7.91609,17.77464 1.2525,23.7125 z M 488.48,247.4 C 421.07333,206.96667 353.66667,166.53333 286.26,126.1 c -13.95386,-6.63744 -18.18416,10.16147 -16.26,20.5083 0,76.9039 0,153.8078 0,230.7117 2.19976,15.1425 18.47328,9.07135 26.35022,2.45591 C 360.37348,341.38728 424.39674,302.99864 488.42,264.61 c 6.42215,-3.55049 6.47194,-13.63199 0.06,-17.21 z M 291,359.64 c 0,-69.09 0,-138.18 0,-207.27 C 348.58,186.91333 406.16,221.45667 463.74,256 406.16286,290.54828 348.56285,325.08362 291,359.64 Z"
     id="path2"
     inkscape:connector-curvature="0" />
</svg>
