<?xml version="1.0" encoding="UTF-8" standalone="no"?>
<svg
   xmlns:dc="http://purl.org/dc/elements/1.1/"
   xmlns:cc="http://creativecommons.org/ns#"
   xmlns:rdf="http://www.w3.org/1999/02/22-rdf-syntax-ns#"
   xmlns:svg="http://www.w3.org/2000/svg"
   xmlns="http://www.w3.org/2000/svg"
   xmlns:sodipodi="http://sodipodi.sourceforge.net/DTD/sodipodi-0.dtd"
   xmlns:inkscape="http://www.inkscape.org/namespaces/inkscape"
   width="512"
   height="512"
   viewBox="0 0 512 512"
   version="1.1"
   id="svg4"
   sodipodi:docname="core Om3.svg"
   inkscape:version="0.92.1 r15371">
  <metadata
     id="metadata10">
    <rdf:RDF>
      <cc:Work
         rdf:about="">
        <dc:format>image/svg+xml</dc:format>
        <dc:type
           rdf:resource="http://purl.org/dc/dcmitype/StillImage" />
      </cc:Work>
    </rdf:RDF>
  </metadata>
  <defs
     id="defs8" />
  <sodipodi:namedview
     pagecolor="#ffffff"
     bordercolor="#666666"
     borderopacity="1"
     objecttolerance="10"
     gridtolerance="10"
     guidetolerance="10"
     inkscape:pageopacity="0"
     inkscape:pageshadow="2"
     inkscape:window-width="638"
     inkscape:window-height="493"
     id="namedview6"
     showgrid="false"
     inkscape:zoom="0.4609375"
     inkscape:cx="256"
     inkscape:cy="256"
     inkscape:window-x="0"
     inkscape:window-y="0"
     inkscape:window-maximized="0"
     inkscape:current-layer="svg4" />
  <path
     d="M 98.73,274.3 C 94.926593,295.00072 91.453604,270.61306 87.330838,262.30557 83.087225,250.53705 78.843613,238.76852 74.6,227 c -19.533333,0 -39.066667,0 -58.6,0 -3.243523,10.66256 8.752882,6.08518 15.257098,7 10.531293,-3.19796 5.713236,8.95343 6.742902,15.2571 0,13.9143 0,27.8286 0,41.7429 9.956635,2.71123 11.424063,-3.06676 10,-11.73623 0,-15.08792 0,-30.17585 0,-45.26377 6.566827,0.80041 15.28139,-1.55702 20.591246,1.09152 C 75.954164,253.72768 83.317082,272.36384 90.68,291 c 9.302005,2.99038 11.37479,-4.72806 13.76684,-11.97355 C 111.43789,261.6843 118.42895,244.34215 125.42,227 c -9.36611,-3.0285 -11.21502,4.80374 -13.44695,12.08261 C 107.56317,250.81864 103.11736,262.57957 98.73,274.3 Z M 489.38,244.95 C 402.63,192.9 315.88,140.85 229.13,88.8 212.80264,80.678229 207.87799,100.6468 210,112.76985 c 0,99.79005 0,199.5801 0,299.37015 1.17072,18.24617 20.92894,12.58091 30.23988,4.40756 C 323.29325,366.71171 406.34663,316.87585 489.4,267.04 c 8.26419,-4.53887 8.22758,-17.59262 -0.02,-22.09 z M 235,389.37 c 0,-88.91333 0,-177.82667 0,-266.74 74.1,44.45667 148.2,88.91333 222.3,133.37 -74.1,44.45667 -148.2,88.91333 -222.3,133.37 z"
     id="path2"
     inkscape:connector-curvature="0" />
</svg>
