<?xml version="1.0" encoding="UTF-8" standalone="no"?>
<svg
   xmlns:dc="http://purl.org/dc/elements/1.1/"
   xmlns:cc="http://creativecommons.org/ns#"
   xmlns:rdf="http://www.w3.org/1999/02/22-rdf-syntax-ns#"
   xmlns:svg="http://www.w3.org/2000/svg"
   xmlns="http://www.w3.org/2000/svg"
   xmlns:sodipodi="http://sodipodi.sourceforge.net/DTD/sodipodi-0.dtd"
   xmlns:inkscape="http://www.inkscape.org/namespaces/inkscape"
   width="512"
   height="512"
   viewBox="0 0 512 512"
   version="1.1"
   id="svg12"
   sodipodi:docname="wap.svg"
   inkscape:version="0.92.1 r15371">
  <metadata
     id="metadata18">
    <rdf:RDF>
      <cc:Work
         rdf:about="">
        <dc:format>image/svg+xml</dc:format>
        <dc:type
           rdf:resource="http://purl.org/dc/dcmitype/StillImage" />
      </cc:Work>
    </rdf:RDF>
  </metadata>
  <defs
     id="defs16" />
  <sodipodi:namedview
     pagecolor="#ffffff"
     bordercolor="#666666"
     borderopacity="1"
     objecttolerance="10"
     gridtolerance="10"
     guidetolerance="10"
     inkscape:pageopacity="0"
     inkscape:pageshadow="2"
     inkscape:window-width="638"
     inkscape:window-height="493"
     id="namedview14"
     showgrid="false"
     inkscape:zoom="0.4609375"
     inkscape:cx="256"
     inkscape:cy="256"
     inkscape:window-x="0"
     inkscape:window-y="0"
     inkscape:window-maximized="0"
     inkscape:current-layer="svg12" />
  <path
     d="m 91.4,161.96 c 20.51301,14.75958 21.84895,-17.22179 6.801454,-25.40296 C 80.881871,113.91944 65.053464,89.835133 45.987969,68.725781 14.940735,67.678431 44.227703,99.075955 53.504057,110.72434 66.261721,127.70856 78.896099,144.79208 91.4,161.96 Z m 19.12,-44.63 c 16.27871,16.27122 25.6484,-13.55774 10.08016,-22.657087 C 107.04446,82.101495 99.336469,38.841325 76.463437,52.716875 75.620372,75.412034 101.69646,96.096723 110.52,117.33 Z m 19.95,-48.35 c 21.00636,14.926518 21.62034,-17.955271 6.25,-25.972891 -10.71235,-23.257233 -34.79333,2.967475 -14.2625,15.121641 2.7036,3.592729 5.37592,7.209039 8.0125,10.85125 z M 485.87,253 C 345.91333,253 205.95667,253 66,253 66,220.5 66,188 66,155.5 63.796517,140.43549 46.357619,146.09642 35.748608,145 22.907153,141.87963 12.919082,151.74327 16,164.67065 c 0.0013,101.38999 -5.46e-4,202.77752 0,304.16935 2.026803,14.84409 19.398293,8.96734 29.781392,10.16 146.696198,0 293.392408,0 440.088608,0 14.81537,-2.067 8.93262,-19.42695 10.13,-29.81139 0,-61.7762 0,-123.55241 0,-185.32861 0.0717,-5.46789 -4.44005,-10.90995 -10.13,-10.86 z M 45,253 c -12.025563,3.78519 -8.770756,-7.70999 -9,-15.72111 0,-24.09297 0,-48.18593 0,-72.27889 12.025563,-3.78519 8.770756,7.70999 9,15.72111 0,24.09297 0,48.18593 0,72.27889 z m 165.46,171.03 c -1.94699,8.70101 -8.62187,7.40796 -14.89563,6.89576 -5.49878,-4.04791 -4.95212,-11.34641 -10.30436,-17.80599 C 179.78001,403.64651 174.3,394.17326 168.82,384.7 c -9.17781,15.69425 -18.73061,32.62665 -27.39,47.35 -7.58482,-3.45733 -15.47428,2.98486 -15.06721,-10.12239 C 115.80186,382.58507 105.24093,343.24254 94.68,303.9 c 7.17463,-1.02755 18.4494,-9.22594 17.93599,3.19231 8.67133,32.33589 17.34267,64.67179 26.01401,97.00769 8.67333,-15.06 17.34667,-30.12 26.02,-45.18 5.87442,4.88147 13.67703,4.26981 14.98733,11.58074 6.06423,10.53309 12.12845,21.06617 18.19267,31.59926 9.16667,-34.2 18.33333,-68.4 27.5,-102.6 6.68903,2.80834 20.4714,1.56454 13.82297,11.99203 -9.90765,36.92599 -19.81531,73.85198 -29.72297,110.77797 0.94499,-0.45741 0.34231,1.77091 1.03,1.76 z m 107.57,8.16 c -4.47667,-16.73 -8.95333,-33.46 -13.43,-50.19 -9.72333,0 -19.44667,0 -29.17,0 -4.48333,16.73333 -8.96667,33.46667 -13.45,50.2 -6.66239,-2.8615 -20.36551,-1.73869 -13.73179,-12.12439 C 258.98214,379.88374 269.71607,339.69187 280.45,299.5 c 6.2421,6.39647 18.31035,-3.8145 20.15328,3.86473 11.18224,41.46843 22.36448,82.93685 33.54672,124.40527 -5.37357,1.47155 -10.74524,2.95729 -16.12,4.42 z M 422,316.56 c 0,19.81333 0,39.62667 0,59.44 -17.33333,0 -34.66667,0 -52,0 0,18.66667 0,37.33333 0,56 -6.57826,-1.60522 -21.04967,4.68269 -18,-6.55046 0,-41.81652 0,-83.63303 0,-125.44954 23.33333,0 46.66667,0 70,0 0,5.51313 0,11.08028 0,16.56 z M 279.8,365 c 5.62612,-1.90774 21.69145,4.20204 19.38608,-3.79724 C 296.12405,349.73517 293.06203,338.26759 290,326.8 m 0,-24.63 c -10.36013,-6.6525 -11.5682,2.73142 -13.26839,11.25304 -10.17054,38.08232 -20.34107,76.16464 -30.51161,114.24696 7.13314,1.09983 18.32231,9.36894 17.79431,-3.07275 3.80523,-14.20242 7.61046,-28.40483 11.41569,-42.60725 9.72,0 19.44,0 29.16,0 4.47667,16.73333 8.95333,33.46667 13.43,50.2 6.72815,-2.83786 20.68981,-1.53941 14.05345,-12.01947 C 321.2323,379.96702 310.39115,339.76351 299.55,299.56 c -3.17973,0.8727 -6.38648,1.72493 -9.55,2.61 z M 279.8,365 c 3.4,-12.73333 6.8,-25.46667 10.2,-38.2 3.4,12.73333 6.8,25.46667 10.2,38.2 -6.8,0 -13.6,0 -20.4,0 z m -54.45,-65.5 c -9.17333,34.2 -18.34667,68.4 -27.52,102.6 -7.41662,-12.5995 -15.08447,-26.62377 -21.96,-38.14 -7.18898,-1.89084 -13.66589,-8.11745 -16.45586,4.04495 -6.92471,12.03835 -13.84943,24.0767 -20.77414,36.11505 -9.34667,-34.86667 -18.69333,-69.73333 -28.04,-104.6 -6.69772,2.80186 -20.508803,1.53133 -13.863348,11.97213 10.781118,40.18929 21.562228,80.37858 32.343348,120.56787 7.82399,-3.56682 15.06214,2.37702 16.87159,-7.82828 7.61947,-13.17724 15.23894,-26.35448 22.85841,-39.53172 7.67333,13.25333 15.34667,26.50667 23.02,39.76 -0.93175,8.44913 7.92021,5.30719 14.1978,7.3703 4.06468,-5.36296 3.64505,-12.15275 6.13722,-19.67327 C 221.84335,376.07135 231.52167,339.98568 241.2,303.9 M 364.33,300 c -10.21573,-2.17545 -14.87637,1.20419 -12.33,11.79084 0,40.06972 0,80.13944 0,120.20916 6.57826,-1.60522 21.04967,4.68269 18,-6.55046 0,-16.48318 0,-32.96636 0,-49.44954 17.33333,0 34.66667,0 52,0 0,-25.33333 0,-50.66667 0,-76 -17.66667,0 -35.33333,0 -53,0 M 36,165 c 12.025563,-3.78519 8.770756,7.70999 9,15.72111 0,24.09297 0,48.18593 0,72.27889 -12.025563,3.78519 -8.770756,-7.70999 -9,-15.72111 C 36,213.18592 36,189.09296 36,165 Z m 334,151 c 12,0 24,0 36,0 0,14.66667 0,29.33333 0,44 -12,0 -24,0 -36,0 0,-14.66667 0,-29.33333 0,-44 z"
     id="path10"
     inkscape:connector-curvature="0" />
</svg>
