<?xml version="1.0" encoding="UTF-8" standalone="no"?>
<svg
   xmlns:dc="http://purl.org/dc/elements/1.1/"
   xmlns:cc="http://creativecommons.org/ns#"
   xmlns:rdf="http://www.w3.org/1999/02/22-rdf-syntax-ns#"
   xmlns:svg="http://www.w3.org/2000/svg"
   xmlns="http://www.w3.org/2000/svg"
   xmlns:sodipodi="http://sodipodi.sourceforge.net/DTD/sodipodi-0.dtd"
   xmlns:inkscape="http://www.inkscape.org/namespaces/inkscape"
   width="512"
   height="512"
   viewBox="0 0 512 512"
   version="1.1"
   id="svg6"
   sodipodi:docname="White RG6.svg"
   inkscape:version="0.92.1 r15371">
  <metadata
     id="metadata12">
    <rdf:RDF>
      <cc:Work
         rdf:about="">
        <dc:format>image/svg+xml</dc:format>
        <dc:type
           rdf:resource="http://purl.org/dc/dcmitype/StillImage" />
      </cc:Work>
    </rdf:RDF>
  </metadata>
  <defs
     id="defs10" />
  <sodipodi:namedview
     pagecolor="#ffffff"
     bordercolor="#666666"
     borderopacity="1"
     objecttolerance="10"
     gridtolerance="10"
     guidetolerance="10"
     inkscape:pageopacity="0"
     inkscape:pageshadow="2"
     inkscape:window-width="638"
     inkscape:window-height="493"
     id="namedview8"
     showgrid="false"
     inkscape:zoom="0.4609375"
     inkscape:cx="256"
     inkscape:cy="256"
     inkscape:window-x="0"
     inkscape:window-y="0"
     inkscape:window-maximized="0"
     inkscape:current-layer="svg6" />
  <path
     d="m 195,374 c 10.21144,3.03441 9.68609,-4.66799 9,-12.53111 0,-7.1563 0,-14.31259 0,-21.46889 12,0 24,0 36,0 3.31899,-10.16269 -5.53816,-8.14925 -12.53111,-8 -7.82296,0 -15.64593,0 -23.46889,0 0,-8 0,-16 0,-24 14,0 28,0 42,0 2.5162,-9.64684 -2.74589,-11.51539 -11.39192,-10 -13.20269,0 -26.40539,0 -39.60808,0 m 122,13.06 c 0,20.98 0,41.96 0,62.94 9.64684,2.5162 11.51539,-2.74589 10,-11.39192 0,-21.53602 0,-43.07205 0,-64.60808 -7.01482,-0.0327 -15.54868,-2.18903 -15.5763,7.54671 -6.50659,19.26148 -13.28288,38.43361 -19.5537,57.77329 -6.84966,-21.87975 -14.37815,-43.54085 -21.54,-65.32 -6.25438,0.80067 -17.56089,-3.45079 -14.33,6.83515 0,23.05495 0,46.1099 0,69.16485 9.64684,2.5162 11.51539,-2.74589 10,-11.39192 0,-17.54602 0,-35.09205 0,-52.63808 6.93333,21.34333 13.86667,42.68667 20.8,64.03 9.24965,2.86486 11.22392,-4.39175 13.03324,-11.87782 C 305.5555,345.10145 311.27775,328.08073 317,311.06 Z M 169.64,430.03 c -9.38523,-7.65893 -14.53232,3.82456 -16.08495,11.7366 -6.13078,17.38372 -12.78537,34.61044 -18.58505,52.0934 9.26364,7.28036 11.07881,-7.07532 13.38241,-13.43562 1.71366,-7.20534 12.5585,-1.73208 18.23546,-3.43438 8.26386,-1.79908 13.24523,1.00742 14.03748,9.69159 -1.55851,10.4205 17.07283,12.32727 9.88739,1.11237 C 183.55078,468.54557 176.62397,449.24704 169.64,430.03 Z M 151.74,471 c 3.86149,-11.31731 7.63182,-22.76171 11.55,-34 3.88667,11.33333 7.77333,22.66667 11.66,34 -7.723,0 -15.55378,0 -23.21,0 z m 84.58,-19.37 c -15.56689,-17.02358 -42.98177,1.3618 -37.86625,22.3525 -1.15182,20.86172 25.52362,28.09967 40.25625,17.8575 1.68688,-14.49902 -29.58801,9.00003 -30.74,-12.65 -4.82106,-12.15613 11.70816,-5.47062 18.59626,-7.17 14.36374,4.35677 19.81526,-9.06317 9.75374,-20.37 z M 207.22,466 c -3.36236,-22.78784 36.04546,-12.06654 21.91243,0.01 -7.28972,-0.007 -14.69341,0.0133 -21.91243,-0.01 z m 73.14,-18.42 c -9.23719,-11.09723 -21.41424,15.91227 -20.13,-1.3 -11.08233,-3.7307 -6.2433,9.97103 -7.24,16.00949 0.23793,10.75488 -0.47292,21.73373 0.35,32.35051 11.31644,5.53527 8.54248,-7.80001 8.66,-14.3703 0.77823,-8.64779 -3.04176,-19.24847 6.06,-24.8397 5.04936,-6.54627 15.61994,5.41982 12.3,-7.85 z m 16.74,-1.28 c -11.3554,-4.07734 -5.85797,9.87709 -7.1,15.99949 0.31243,10.86125 -0.61272,22.39725 0.44,32.85051 11.44644,4.00124 6.57437,-9.79008 7.55,-16.00949 -0.14967,-10.76129 0.29741,-21.61805 -0.22,-32.32051 l -0.7,-0.5 z m -3.36,-19.57 c -18.26094,7.35664 14.74885,16.08793 2.52125,0.2625 L 293.75,426.73 Z m 50.11,22.89 c -6.13977,-11.27068 -40.83105,-0.28539 -28.17,6.49 8.44975,-12.32813 33.75392,3.97807 20.91243,9.89 -16.38573,-4.39501 -38.0261,15.14538 -20.02993,28.07875 11.03312,9.64127 22.64552,-10.95529 25.4475,1.31125 10.55754,1.83701 4.34207,-12.35353 6,-18.50787 -0.67214,-9.01218 2.2266,-19.90622 -4.16,-27.26213 z m -3.85,33 c -8.35693,16.46004 -33.59781,-1.36557 -13.86,-9.62 9.55453,-3.32555 16.91994,-1.24946 13.86,9.65 z m 31,-58.37 c -10.95611,-5.51505 -7.64404,8.14045 -8,14.3903 0.0811,18.66307 -0.1615,37.35368 0.12,55.9997 11.10943,5.4753 7.35007,-8.15179 7.87,-14.3703 0.007,-18.6698 -0.0135,-37.3666 0.01,-56.0197 z m 27.5,-294.18 c -14.32118,1.44846 -9.74143,17.69874 -10.5,27.58787 -3.68711,3.21569 -13.41802,0.38757 -19.36626,1.34213 -5.2865,-1.7306 -17.83773,3.80352 -17.63374,-3.41757 0,-24.05415 0,-48.10829 0,-72.16243 -6.33237,-22.478003 -26.56554,-2.725418 -21,12.531108 0,21.016302 0,42.032592 0,63.048892 -11.66667,0 -23.33333,0 -35,0 -0.49758,-17.05026 1.02911,-34.30277 -0.825,-51.2175 -12.6386,-17.274503 -23.88854,4.70338 -20.175,17.7578 0,11.15323 0,22.30647 0,33.4597 -12,0 -24,0 -36,0 0,-34.67667 0,-69.353333 0,-104.03 -6.33237,-22.478003 -26.56554,-2.725418 -21,12.531108 0,30.499631 0,60.999262 0,91.498892 -12.33333,0 -24.66667,0 -37,0 0,-25.19333 0,-50.38667 0,-75.58 -6.33237,-22.478003 -26.56554,-2.725418 -21,12.531108 0,21.016302 0,42.032592 0,63.048892 -11.66667,0 -23.33333,0 -35,0 0,-44.23333 0,-88.466667 0,-132.7 -6.33237,-22.4780035 -26.565543,-2.725418 -21,12.531108 0,90.966302 0,181.932592 0,272.898892 6.33237,22.478 26.56554,2.72542 21,-12.53111 0,-39.73296 0,-79.46593 0,-119.19889 11.66667,0 23.33333,0 35,0 0,24.86667 0,49.73333 0,74.6 6.32742,22.47439 26.56688,2.72233 21,-12.53111 0,-20.68963 0,-41.37926 0,-62.06889 12.33333,0 24.66667,0 37,0 0,34.43333 0,68.86667 0,103.3 6.35755,22.45365 26.55966,2.69503 21,-12.55111 0,-30.24963 0,-60.49926 0,-90.74889 12,0 24,0 36,0 0.49066,16.72429 -1.01943,33.64847 0.825,50.2375 12.6386,17.2745 23.88854,-4.70338 20.175,-17.7578 0,-10.82657 0,-21.65313 0,-32.4797 11.66667,0 23.33333,0 35,0 0,24.86667 0,49.73333 0,74.6 6.32742,22.47439 26.56688,2.72233 21,-12.53111 0,-20.68963 0,-41.37926 0,-62.06889 12.33333,0 24.66667,0 37,0 0.81925,9.99781 -3.98641,26.36012 10.5,27.95 14.32118,-1.44846 9.74143,-17.69874 10.5,-27.58787 -0.45834,-14.60823 0.97388,-29.40534 -0.825,-43.87963 -1.56331,-3.81431 -5.54137,-6.47483 -9.675,-6.4125 z"
     id="path4"
     inkscape:connector-curvature="0" />
</svg>
