<?xml version="1.0" encoding="UTF-8" standalone="no"?>
<svg
   xmlns:dc="http://purl.org/dc/elements/1.1/"
   xmlns:cc="http://creativecommons.org/ns#"
   xmlns:rdf="http://www.w3.org/1999/02/22-rdf-syntax-ns#"
   xmlns:svg="http://www.w3.org/2000/svg"
   xmlns="http://www.w3.org/2000/svg"
   xmlns:sodipodi="http://sodipodi.sourceforge.net/DTD/sodipodi-0.dtd"
   xmlns:inkscape="http://www.inkscape.org/namespaces/inkscape"
   width="512"
   height="512"
   viewBox="0 0 512 512"
   version="1.1"
   id="svg6"
   sodipodi:docname="battery panel.svg"
   inkscape:version="0.92.1 r15371">
  <metadata
     id="metadata12">
    <rdf:RDF>
      <cc:Work
         rdf:about="">
        <dc:format>image/svg+xml</dc:format>
        <dc:type
           rdf:resource="http://purl.org/dc/dcmitype/StillImage" />
      </cc:Work>
    </rdf:RDF>
  </metadata>
  <defs
     id="defs10" />
  <sodipodi:namedview
     pagecolor="#ffffff"
     bordercolor="#666666"
     borderopacity="1"
     objecttolerance="10"
     gridtolerance="10"
     guidetolerance="10"
     inkscape:pageopacity="0"
     inkscape:pageshadow="2"
     inkscape:window-width="640"
     inkscape:window-height="493"
     id="namedview8"
     showgrid="false"
     inkscape:zoom="0.4609375"
     inkscape:cx="256"
     inkscape:cy="256"
     inkscape:window-x="0"
     inkscape:window-y="0"
     inkscape:window-maximized="0"
     inkscape:current-layer="svg6" />
  <path
     id="path4"
     d="m 156.82,354 c 19.66726,-1.25762 40.44794,3.41639 59.0525,-4.585 37.89439,-19.22406 41.26992,-78.01786 11.0675,-105.535 24.21576,-27.86742 11.4268,-82.06582 -27.72078,-87.61155 -15.95809,0.063 -32.27167,-1.45762 -48.02547,0.8303 -14.04239,6.38015 -7.84067,23.51111 -9.21375,35.60366 0.2101,50.20274 -0.42062,100.45232 0.31605,150.62573 1.44069,6.51364 8.07739,10.75899 14.52395,10.67186 z M 170,185 c 12.09284,1.48151 27.37804,-4.39072 36.0475,6.6775 12.06076,15.53739 1.39256,44.41439 -20.15899,39.3225 -6.91728,-0.89361 -19.44214,3.82038 -15.88851,-7.54414 0,-12.81862 0,-25.63724 0,-38.45586 z m 0,75 c 14.89884,1.25724 34.50344,-5.11597 43.01877,11.50572 8.67976,17.1663 7.62361,45.21399 -12.42813,53.86131 C 190.47169,326.66467 180.19092,325.70583 170,326 c 0,-22 0,-44 0,-66 z m 108,94.67 c 15.15415,-0.16939 14.58374,-17.04859 14,-27.98092 0,-15.89636 0,-31.79272 0,-47.68908 21.69972,-0.78165 47.68879,4.77512 62.9175,-15.29875 16.40024,-18.98221 13.98491,-45.604 11.67478,-68.73997 C 362.45415,170.74867 339.12036,152.57689 314.65851,156 c -14.00446,0.61227 -28.33099,-1.30091 -42.11132,1.10016 -13.32088,6.84019 -7.11078,23.60852 -8.54719,35.60225 0.1872,50.21358 -0.37478,100.46401 0.28164,150.65452 1.16424,6.40312 7.18276,11.44425 13.71836,11.31307 z M 292,185 c 12.52714,0.86483 25.70127,-1.92271 37.74,1.77594 14.32029,10.26427 9.6746,29.64578 9.90777,44.82886 -0.54651,17.45203 -17.3984,21.29569 -31.27604,19.3952 -6.04469,-1.50814 -19.58528,4.4796 -16.37173,-6.28678 0,-19.90441 0,-39.80881 0,-59.71322 z M 481.7,53 C 331.23333,53 180.76667,53 30.3,53 15.052872,53.052583 15.315801,69.894882 16,80.930916 16.195752,203.20023 15.608459,325.50973 16.293711,447.75393 20.375175,463.34765 38.525248,458.09145 50.417696,459 194.17846,459 337.93923,459 481.7,459 496.94391,458.94309 496.68543,442.10543 496,431.06908 495.80424,308.80644 496.39155,186.5036 495.70629,64.266074 494.44595,57.781165 488.22725,52.934493 481.7,53 Z M 466,429 c -140.66667,0 -281.33333,0 -422,0 0,-116 0,-232 0,-348 140.66667,0 281.33333,0 422,0 0,116 0,232 0,348 z" />
</svg>
