<?xml version="1.0" encoding="UTF-8" standalone="no"?>
<svg
   xmlns:dc="http://purl.org/dc/elements/1.1/"
   xmlns:cc="http://creativecommons.org/ns#"
   xmlns:rdf="http://www.w3.org/1999/02/22-rdf-syntax-ns#"
   xmlns:svg="http://www.w3.org/2000/svg"
   xmlns="http://www.w3.org/2000/svg"
   xmlns:sodipodi="http://sodipodi.sourceforge.net/DTD/sodipodi-0.dtd"
   xmlns:inkscape="http://www.inkscape.org/namespaces/inkscape"
   width="512"
   height="512"
   viewBox="0 0 512 512"
   version="1.1"
   id="svg8"
   sodipodi:docname="break glass.svg"
   inkscape:version="0.92.1 r15371">
  <metadata
     id="metadata14">
    <rdf:RDF>
      <cc:Work
         rdf:about="">
        <dc:format>image/svg+xml</dc:format>
        <dc:type
           rdf:resource="http://purl.org/dc/dcmitype/StillImage" />
      </cc:Work>
    </rdf:RDF>
  </metadata>
  <defs
     id="defs12" />
  <sodipodi:namedview
     pagecolor="#ffffff"
     bordercolor="#666666"
     borderopacity="1"
     objecttolerance="10"
     gridtolerance="10"
     guidetolerance="10"
     inkscape:pageopacity="0"
     inkscape:pageshadow="2"
     inkscape:window-width="640"
     inkscape:window-height="493"
     id="namedview10"
     showgrid="false"
     inkscape:zoom="0.4609375"
     inkscape:cx="256"
     inkscape:cy="256"
     inkscape:window-x="0"
     inkscape:window-y="0"
     inkscape:window-maximized="0"
     inkscape:current-layer="svg8" />
  <path
     id="path6"
     d="M 496.68,250.2 C 494.82869,179.12815 460.23481,109.48962 403.66252,66.121972 337.83757,13.936088 243.91033,0.69774218 166.26302,32.7907 90.856581,62.436557 33.386094,132.66061 19.43,212.5 5.2630639,285.62094 28.47346,364.7631 79.468455,419.19741 133.95933,479.09557 220.29269,507.79674 299.57965,492.36562 381.29657,478.06773 452.91192,418.09007 481.26213,340.11938 492.18335,311.56239 497.105,280.24085 496.68,250.2 Z m -27.12,10.73 C 468.4943,340.47683 418.65931,416.69029 346.19471,449.52831 275.6638,483.26686 187.14582,473.4224 125.63529,425.19964 62.37595,377.43935 29.974786,292.42687 46.414481,214.77759 60.911353,136.18695 123.52072,69.31966 200.93674,49.550791 278.34815,28.044221 366.51863,55.220701 418.11594,116.86768 452.24867,156.38163 470.99846,208.7166 469.56,260.93 Z M 424.83,249.55 C 422.72866,188.57838 385.19963,130.38503 329.96865,104.17906 270.80738,74.392209 194.67087,84.456149 145.24077,128.53362 95.072764,171.15553 74.285117,244.56753 95.18051,307.05616 c 19.31701,63.90407 80.01534,112.23545 146.56485,117.02673 64.75566,6.36663 131.2222,-29.22122 162.04464,-86.60289 14.79008,-26.74134 22.02134,-57.53973 21.04,-87.93 z m -27.1,12.25 c -1.53226,60.58473 -46.54919,116.58379 -105.34115,131.22583 -57.79037,16.34466 -123.93565,-9.32925 -155.70497,-60.26892 -15.6403,-23.94441 -22.80102,-52.81666 -23.46067,-81.10279 3.01768,-40.15147 20.73054,-79.79704 52.54875,-105.26028 45.49233,-38.6614 115.77088,-43.13175 165.82162,-10.59749 42.52101,26.37734 68.68514,76.00098 66.13642,126.00365 z m -95.73,-7 c 0.0901,-28.75428 -30.57657,-51.6647 -58.11,-43.22 -28.92645,6.78722 -43.6362,44.42205 -26.67175,68.89546 14.64221,25.15645 53.51063,28.63606 72.54175,6.67454 8.02626,-8.73926 12.43192,-20.49639 12.24,-32.35 z m -27,2.75 c -0.58765,17.13146 -25.69451,23.84533 -34.60305,9.15783 -10.26856,-13.11005 3.65136,-33.79097 19.68305,-29.37783 9.20168,1.89482 15.66481,10.93172 14.92,20.22 z" />
</svg>
