<?xml version="1.0" encoding="UTF-8" standalone="no"?>
<svg
   xmlns:dc="http://purl.org/dc/elements/1.1/"
   xmlns:cc="http://creativecommons.org/ns#"
   xmlns:rdf="http://www.w3.org/1999/02/22-rdf-syntax-ns#"
   xmlns:svg="http://www.w3.org/2000/svg"
   xmlns="http://www.w3.org/2000/svg"
   xmlns:sodipodi="http://sodipodi.sourceforge.net/DTD/sodipodi-0.dtd"
   xmlns:inkscape="http://www.inkscape.org/namespaces/inkscape"
   width="512"
   height="512"
   viewBox="0 0 512 512"
   version="1.1"
   id="svg4"
   sodipodi:docname="combination xenon beacon.svg"
   inkscape:version="0.92.1 r15371">
  <metadata
     id="metadata10">
    <rdf:RDF>
      <cc:Work
         rdf:about="">
        <dc:format>image/svg+xml</dc:format>
        <dc:type
           rdf:resource="http://purl.org/dc/dcmitype/StillImage" />
      </cc:Work>
    </rdf:RDF>
  </metadata>
  <defs
     id="defs8" />
  <sodipodi:namedview
     pagecolor="#ffffff"
     bordercolor="#666666"
     borderopacity="1"
     objecttolerance="10"
     gridtolerance="10"
     guidetolerance="10"
     inkscape:pageopacity="0"
     inkscape:pageshadow="2"
     inkscape:window-width="638"
     inkscape:window-height="493"
     id="namedview6"
     showgrid="false"
     inkscape:zoom="0.4609375"
     inkscape:cx="256"
     inkscape:cy="256"
     inkscape:window-x="0"
     inkscape:window-y="0"
     inkscape:window-maximized="0"
     inkscape:current-layer="svg4" />
  <path
     id="path2"
     d="m 494,352.73 c -0.14742,-64.93181 0.29434,-130.00848 -0.22,-194.85 -0.94849,-10.6384 -13.51431,-13.89302 -21.43203,-8.7251 C 401.56531,178.49327 330.78266,207.83163 260,237.17 c -0.28865,-27.10226 0.56759,-54.31258 -0.41,-81.35 -1.72178,-7.19646 -9.67545,-10.47692 -16.33146,-8.82 -71.92768,0.0164 -144.110434,-0.0308 -215.87854,0.02 -10.425762,2.74553 -9.910808,15.14323 -9.41,23.64652 0.186933,61.22458 -0.373691,122.55513 0.28,183.71348 0.779582,8.06541 9.199169,12.42505 16.681462,10.63 72.181818,-0.19869 144.425648,0.39824 216.568538,-0.3 9.52274,-2.88067 8.90457,-14.15031 8.43,-22.07865 0,-22.60379 0,-45.20757 0,-67.81135 72.93335,30.05311 145.65606,60.71316 218.72,90.39 7.90716,1.80888 14.96814,-4.95299 15.35,-12.48 z M 214.52,172 c -25.13333,22.47333 -50.26667,44.94667 -75.4,67.42 C 113.99667,216.94667 88.873333,194.47333 63.75,172 c 50.25,0 100.55333,0 150.77,0 z M 43,187.25 c 25.626667,22.91667 51.253333,45.83333 76.88,68.75 -25.626667,22.91667 -51.253333,45.83333 -76.88,68.75 0,-45.83333 0,-91.66667 0,-137.5 z M 63.74,340 c 25.133333,-22.46667 50.26667,-44.93333 75.4,-67.4 25.12,22.46667 50.24,44.93333 75.36,67.4 -50.25333,0 -100.50667,0 -150.76,0 z M 235,255.86 c 0,22.96 0,45.92 0,68.88 -25.62667,-22.91333 -51.25333,-45.82667 -76.88,-68.74 25.62667,-22.91667 51.25333,-45.83333 76.88,-68.75 0,22.87 0,45.74 0,68.61 z m 234,78.18 C 406.23333,308.02667 343.46667,282.01333 280.7,256 343.46667,229.98667 406.23333,203.97333 469,177.96 c 0,52.02667 0,104.05333 0,156.08 z" />
</svg>
