<?xml version="1.0" encoding="UTF-8" standalone="no"?>
<svg
   xmlns:dc="http://purl.org/dc/elements/1.1/"
   xmlns:cc="http://creativecommons.org/ns#"
   xmlns:rdf="http://www.w3.org/1999/02/22-rdf-syntax-ns#"
   xmlns:svg="http://www.w3.org/2000/svg"
   xmlns="http://www.w3.org/2000/svg"
   xmlns:sodipodi="http://sodipodi.sourceforge.net/DTD/sodipodi-0.dtd"
   xmlns:inkscape="http://www.inkscape.org/namespaces/inkscape"
   width="512"
   height="512"
   viewBox="0 0 512 512"
   version="1.1"
   id="svg6"
   sodipodi:docname="conventional smoke alarm.svg"
   inkscape:version="0.92.1 r15371">
  <metadata
     id="metadata12">
    <rdf:RDF>
      <cc:Work
         rdf:about="">
        <dc:format>image/svg+xml</dc:format>
        <dc:type
           rdf:resource="http://purl.org/dc/dcmitype/StillImage" />
      </cc:Work>
    </rdf:RDF>
  </metadata>
  <defs
     id="defs10" />
  <sodipodi:namedview
     pagecolor="#ffffff"
     bordercolor="#666666"
     borderopacity="1"
     objecttolerance="10"
     gridtolerance="10"
     guidetolerance="10"
     inkscape:pageopacity="0"
     inkscape:pageshadow="2"
     inkscape:window-width="640"
     inkscape:window-height="493"
     id="namedview8"
     showgrid="false"
     inkscape:zoom="0.4609375"
     inkscape:cx="256"
     inkscape:cy="256"
     inkscape:window-x="0"
     inkscape:window-y="0"
     inkscape:window-maximized="0"
     inkscape:current-layer="svg6" />
  <path
     id="path4"
     d="m 172.8,221.8 c 17.35755,-0.93876 51.38527,26.29715 51.105,-6.80328 -9.63126,-16.94535 -32.93903,-20.80971 -51.095,-21.84672 -35.01919,0.66531 -49.7968,47.44639 -30.76699,73.39201 11.7673,14.89776 30.23703,22.09564 45.39092,33.03598 20.36684,13.69413 0.70442,45.59373 -20.71539,29.75654 -12.90033,-15.71924 -43.89511,-3.67399 -29.12838,16.37438 18.34451,13.14801 45.21105,21.74454 66.28365,10.16325 29.36706,-18.34412 26.36476,-67.84286 -4.72308,-82.78143 -10.69127,-7.24562 -22.25692,-13.33587 -32.40011,-21.30573 -6.95806,-8.27353 -6.09287,-27.08403 6.04938,-29.985 z m 321.84,0.23 C 482.32583,175.69153 469.87883,129.38853 457.49,83.07 447.98812,61.707456 426.02284,78.852322 426.36612,95.863497 415.07775,138.93095 402.94528,181.81217 392.09666,224.97139 c -0.005,22.33068 31.48334,16.41286 30.35236,-3.33364 3.03319,-5.93801 1.75538,-17.50575 7.71069,-19.62775 9.76343,0 19.52686,0 29.29029,0 4.09779,11.5243 4.39626,24.99057 11.92107,34.81725 10.40267,9.25766 27.14972,-1.48076 23.26893,-14.79725 z M 435.4,173 c 2.74333,-10.27333 5.48667,-20.54667 8.23,-30.82 2.73333,10.27333 5.46667,20.54667 8.2,30.82 -5.47667,0 -10.95333,0 -16.43,0 z m -94.14,98.8 C 339.82946,209.78816 299.39029,150.9038 241.86341,127.5862 183.9797,102.42453 112.18652,115.64581 67.02,159.72 24.889107,199.14615 7.0822835,261.87098 21.814024,317.54843 36.72567,378.82574 90.591225,428.00642 152.93993,437.40768 c 39.49588,6.25407 81.43244,-2.12479 114.97142,-24.46529 C 314.86335,382.78507 343.37184,327.4299 341.26,271.8 Z m -28.77,12.9 c -2.39593,54.19954 -41.19895,104.30393 -93.17244,119.97287 -14.53525,4.92749 -29.87081,6.29164 -45.08126,5.4772 C 115.07438,410.44591 60.609898,364.09661 48.642363,306.57789 44.083773,283.98626 44.702071,260.00808 51.31,237.86 c 15.499807,-53.12853 67.10134,-92.72167 122.39779,-94.14609 55.44447,-2.9881 110.18387,32.69548 129.69436,84.70078 7.08993,17.75068 10.09659,37.45109 9.08785,56.28531 z" />
</svg>
