<?xml version="1.0" encoding="UTF-8" standalone="no"?>
<svg
   xmlns:dc="http://purl.org/dc/elements/1.1/"
   xmlns:cc="http://creativecommons.org/ns#"
   xmlns:rdf="http://www.w3.org/1999/02/22-rdf-syntax-ns#"
   xmlns:svg="http://www.w3.org/2000/svg"
   xmlns="http://www.w3.org/2000/svg"
   xmlns:sodipodi="http://sodipodi.sourceforge.net/DTD/sodipodi-0.dtd"
   xmlns:inkscape="http://www.inkscape.org/namespaces/inkscape"
   width="512"
   height="512"
   viewBox="0 0 512 512"
   version="1.1"
   id="svg4"
   sodipodi:docname="electronic sounder.svg"
   inkscape:version="0.92.1 r15371">
  <metadata
     id="metadata10">
    <rdf:RDF>
      <cc:Work
         rdf:about="">
        <dc:format>image/svg+xml</dc:format>
        <dc:type
           rdf:resource="http://purl.org/dc/dcmitype/StillImage" />
      </cc:Work>
    </rdf:RDF>
  </metadata>
  <defs
     id="defs8" />
  <sodipodi:namedview
     pagecolor="#ffffff"
     bordercolor="#666666"
     borderopacity="1"
     objecttolerance="10"
     gridtolerance="10"
     guidetolerance="10"
     inkscape:pageopacity="0"
     inkscape:pageshadow="2"
     inkscape:window-width="638"
     inkscape:window-height="493"
     id="namedview6"
     showgrid="false"
     inkscape:zoom="0.4609375"
     inkscape:cx="256"
     inkscape:cy="256"
     inkscape:window-x="0"
     inkscape:window-y="0"
     inkscape:window-maximized="0"
     inkscape:current-layer="svg4" />
  <path
     id="path2"
     d="m 494,351.13 c 0,-63.55667 0,-127.11333 0,-190.67 -1.12503,-7.45887 -7.22541,-16.18075 -16,-15.23 -4.10879,-0.21963 -9.53333,2.30604 -14.58891,4.56551 C 396.94073,177.40368 330.47036,205.01184 264,232.62 263.7726,207.54787 264.45955,182.42376 263.64805,157.38484 259.11173,142.44441 241.66368,146.59372 229.74643,146 163.50857,146.17981 97.239994,145.64014 31.021367,146.27025 17.248209,147.84879 17.414025,162.56904 18,173.07252 c 0,59.40916 0,118.81832 0,178.22748 0.301799,14.69189 16.650025,15.50115 27.722311,14.7 68.349779,-0.18556 136.732119,0.37137 205.061519,-0.27891 13.83551,-1.65332 13.86703,-16.39663 13.22617,-27.02361 0,-19.84916 0,-39.69832 0,-59.54748 69.20753,28.82547 139.36773,57.71381 207.98,86.5 10.50467,4.34775 20.49467,-3.34718 22.01,-14.52 z m -261,-95.4 c 0,26.42333 0,52.84667 0,79.27 -61.33333,0 -122.66667,0 -184,0 0,-52.66667 0,-105.33333 0,-158 61.33333,0 122.66667,0 184,0 0,26.24333 0,52.48667 0,78.73 z m 230,72.3 C 404.97333,303.98667 346.94667,279.94333 288.92,255.9 346.94667,231.84333 404.97333,207.78667 463,183.73 c 0,48.1 0,96.2 0,144.3 z" />
</svg>
