<?xml version="1.0" encoding="UTF-8" standalone="no"?>
<svg
   xmlns:dc="http://purl.org/dc/elements/1.1/"
   xmlns:cc="http://creativecommons.org/ns#"
   xmlns:rdf="http://www.w3.org/1999/02/22-rdf-syntax-ns#"
   xmlns:svg="http://www.w3.org/2000/svg"
   xmlns="http://www.w3.org/2000/svg"
   xmlns:sodipodi="http://sodipodi.sourceforge.net/DTD/sodipodi-0.dtd"
   xmlns:inkscape="http://www.inkscape.org/namespaces/inkscape"
   width="512"
   height="512"
   viewBox="0 0 512 512"
   version="1.1"
   id="svg4"
   sodipodi:docname="end of line resister.svg"
   inkscape:version="0.92.1 r15371">
  <metadata
     id="metadata10">
    <rdf:RDF>
      <cc:Work
         rdf:about="">
        <dc:format>image/svg+xml</dc:format>
        <dc:type
           rdf:resource="http://purl.org/dc/dcmitype/StillImage" />
      </cc:Work>
    </rdf:RDF>
  </metadata>
  <defs
     id="defs8" />
  <sodipodi:namedview
     pagecolor="#ffffff"
     bordercolor="#666666"
     borderopacity="1"
     objecttolerance="10"
     gridtolerance="10"
     guidetolerance="10"
     inkscape:pageopacity="0"
     inkscape:pageshadow="2"
     inkscape:window-width="638"
     inkscape:window-height="493"
     id="namedview6"
     showgrid="false"
     inkscape:zoom="0.4609375"
     inkscape:cx="256"
     inkscape:cy="256"
     inkscape:window-x="0"
     inkscape:window-y="0"
     inkscape:window-maximized="0"
     inkscape:current-layer="svg4" />
  <path
     id="path2"
     d="m 482.44,142 c -150.97333,0 -301.94667,0 -452.92,0 -13.584931,-0.29466 -14.412865,14.35401 -13.52,24.37085 0.189363,64.51815 -0.379064,129.07736 0.284805,193.56979 4.080698,13.93663 20.424888,9.23741 31.302879,10.05936 144.954106,0 289.908206,0 434.862316,0 13.59394,0.30403 14.45189,-14.34216 13.55,-24.37085 -0.18983,-64.52146 0.38014,-129.08421 -0.2857,-193.57979 C 494.43717,146.04478 488.4195,141.89252 482.44,142 Z M 470,344 c -142.66667,0 -285.33333,0 -428,0 0.342828,-12.98586 -0.685601,-26.32534 0.513972,-39.09026 C 56.952648,278.77649 71.391324,252.64325 85.83,226.51 c 15.57364,27.9292 30.56708,56.23256 46.5,83.93 6.17005,8.43306 20.43771,5.54769 23.45375,-4.43528 14.53208,-26.48491 29.06417,-52.96981 43.59625,-79.45472 15.44689,27.93487 30.52584,56.0931 46.2,83.89 6.12593,8.41956 20.43278,5.54683 23.42361,-4.43536 14.53213,-26.48821 29.06426,-52.97643 43.59639,-79.46464 15.4455,27.94689 30.58617,56.0752 46.22,83.91 6.17226,8.36493 20.41863,5.45884 23.4718,-4.46085 14.63607,-26.49305 29.27213,-52.9861 43.9082,-79.47915 14.6,26.42333 29.2,52.84667 43.8,79.27 0,12.74 0,25.48 0,38.22 z m 0,-92.7 c -11.47095,-20.01514 -21.87558,-40.78589 -34.01,-60.33 -6.37128,-8.23194 -20.22273,-4.89509 -23.14373,4.8353 -14.53542,26.49156 -29.07085,52.98313 -43.60627,79.4747 -15.75,-28.18357 -30.6761,-56.90549 -46.93,-84.76 -6.51823,-7.80434 -19.86788,-4.14374 -22.72406,5.29511 C 285.05729,222.28674 270.52865,248.75837 256,275.23 240.2505,247.05907 225.34573,218.33017 209.08,190.5 c -6.54599,-7.80197 -19.8781,-4.19052 -22.75335,5.2755 C 171.79777,222.26367 157.26888,248.75183 142.74,275.24 126.99287,247.07025 112.09836,218.33302 95.83,190.51 89.146316,182.55111 76.010209,186.61192 72.79518,195.76918 62.53012,214.30279 52.26506,232.83639 42,251.37 c 0,-27.79 0,-55.58 0,-83.37 142.66667,0 285.33333,0 428,0 0,27.76667 0,55.53333 0,83.3 z" />
</svg>
