<?xml version="1.0" encoding="UTF-8" standalone="no"?>
<svg
   xmlns:dc="http://purl.org/dc/elements/1.1/"
   xmlns:cc="http://creativecommons.org/ns#"
   xmlns:rdf="http://www.w3.org/1999/02/22-rdf-syntax-ns#"
   xmlns:svg="http://www.w3.org/2000/svg"
   xmlns="http://www.w3.org/2000/svg"
   xmlns:sodipodi="http://sodipodi.sourceforge.net/DTD/sodipodi-0.dtd"
   xmlns:inkscape="http://www.inkscape.org/namespaces/inkscape"
   width="512"
   height="512"
   viewBox="0 0 512 512"
   version="1.1"
   id="svg4"
   sodipodi:docname="fire alarm bell sounder.svg"
   inkscape:version="0.92.1 r15371">
  <metadata
     id="metadata10">
    <rdf:RDF>
      <cc:Work
         rdf:about="">
        <dc:format>image/svg+xml</dc:format>
        <dc:type
           rdf:resource="http://purl.org/dc/dcmitype/StillImage" />
      </cc:Work>
    </rdf:RDF>
  </metadata>
  <defs
     id="defs8" />
  <sodipodi:namedview
     pagecolor="#ffffff"
     bordercolor="#666666"
     borderopacity="1"
     objecttolerance="10"
     gridtolerance="10"
     guidetolerance="10"
     inkscape:pageopacity="0"
     inkscape:pageshadow="2"
     inkscape:window-width="640"
     inkscape:window-height="493"
     id="namedview6"
     showgrid="false"
     inkscape:zoom="0.4609375"
     inkscape:cx="256"
     inkscape:cy="256"
     inkscape:window-x="0"
     inkscape:window-y="0"
     inkscape:window-maximized="0"
     inkscape:current-layer="svg4" />
  <path
     id="path2"
     d="M 494.96,296.78 C 495.45393,216.72437 452.5205,138.11162 384.65497,95.558851 316.24894,50.974395 224.64396,45.555031 151.50017,81.88346 76.224169,117.57102 23.361545,195.32192 17.679354,278.41169 17.366093,289.34526 13.069637,306.02201 27.426953,309.73484 77.258289,310.35177 127.14666,309.82455 177,310 c 0,39.33333 0,78.66667 0,118 -32.60829,0.17195 -65.25018,-0.34483 -97.837344,0.26 -18.404286,3.64995 -9.36895,30.97674 7.62356,25.74 35.392284,-0.16113 70.814124,0.32241 106.187924,-0.24199 14.98879,-4.49033 8.67793,-21.87378 10.02586,-33.46443 0,-36.76453 0,-73.52905 0,-110.29358 35.33333,0 70.66667,0 106,0 0.1594,44.6755 -0.31949,89.38006 0.24066,134.0373 4.15394,14.63756 20.98143,8.75153 32.17421,9.9627 30.43299,-0.1729 60.89977,0.34613 91.31161,-0.26 18.37522,-3.65592 9.35964,-30.97497 -7.6227,-25.74 -30.03459,0 -60.06919,0 -90.10378,0 0,-39.33333 0,-78.66667 0,-118 50.05052,-0.26866 100.20246,0.53602 150.19,-0.4 5.70389,-1.45466 9.86353,-6.93776 9.77,-12.82 z" />
</svg>
