<?xml version="1.0" encoding="UTF-8" standalone="no"?>
<svg
   xmlns:dc="http://purl.org/dc/elements/1.1/"
   xmlns:cc="http://creativecommons.org/ns#"
   xmlns:rdf="http://www.w3.org/1999/02/22-rdf-syntax-ns#"
   xmlns:svg="http://www.w3.org/2000/svg"
   xmlns="http://www.w3.org/2000/svg"
   xmlns:sodipodi="http://sodipodi.sourceforge.net/DTD/sodipodi-0.dtd"
   xmlns:inkscape="http://www.inkscape.org/namespaces/inkscape"
   width="512"
   height="512"
   viewBox="0 0 512 512"
   version="1.1"
   id="svg6"
   sodipodi:docname="fire alarm control panel.svg"
   inkscape:version="0.92.1 r15371">
  <metadata
     id="metadata12">
    <rdf:RDF>
      <cc:Work
         rdf:about="">
        <dc:format>image/svg+xml</dc:format>
        <dc:type
           rdf:resource="http://purl.org/dc/dcmitype/StillImage" />
      </cc:Work>
    </rdf:RDF>
  </metadata>
  <defs
     id="defs10" />
  <sodipodi:namedview
     pagecolor="#ffffff"
     bordercolor="#666666"
     borderopacity="1"
     objecttolerance="10"
     gridtolerance="10"
     guidetolerance="10"
     inkscape:pageopacity="0"
     inkscape:pageshadow="2"
     inkscape:window-width="640"
     inkscape:window-height="493"
     id="namedview8"
     showgrid="false"
     inkscape:zoom="0.4609375"
     inkscape:cx="256"
     inkscape:cy="256"
     inkscape:window-x="0"
     inkscape:window-y="0"
     inkscape:window-maximized="0"
     inkscape:current-layer="svg6" />
  <path
     id="path4"
     d="m 137.5,339.8 c 14.38812,-0.11743 14.122,-16.08762 13.5,-26.52946 0,-17.42351 0,-34.84703 0,-52.27054 13.87792,-0.5868 28.05961,1.24515 41.72641,-1.05047 16.83936,-7.14924 4.82846,-31.00184 -11.16071,-25.94953 -10.18857,0 -20.37713,0 -30.5657,0 0,-11.33333 0,-22.66667 0,-34 13.87792,-0.5868 28.05961,1.24515 41.72641,-1.05047 16.83936,-7.14924 4.82846,-31.00184 -11.16071,-25.94953 -16.41775,0.53625 -33.08724,-1.13245 -49.3307,0.94891 -12.57161,5.58572 -6.99112,21.03741 -8.235,31.8057 0.17915,41.04344 -0.35941,82.12221 0.27123,123.14342 1.13239,6.19392 6.93456,11.00258 13.22877,10.90197 z M 249.75,339 c 11.49953,-1.23019 24.69873,3.18361 34.635,-3.92625 C 296.22076,322.6123 280.06033,308.03606 266.54398,312 256.63769,311.60316 242.30016,315.08353 239.08484,301.99313 236.73526,279.16525 238.59222,255.9241 238,232.92444 238.45128,221.35816 234.81397,203.42875 249.75,200 c 11.49953,-1.23019 24.69873,3.18361 34.635,-3.92625 C 296.22076,183.6123 280.06033,169.03606 266.54398,173 c -16.87206,-0.73052 -36.51349,-0.2862 -46.64742,15.84958 -13.55571,19.30976 -7.54418,43.61573 -8.89656,65.63793 1.10673,20.57324 -3.18892,42.0982 4.70331,61.64715 C 221.75694,329.1829 235.03574,339.17362 249.75,339 Z m 62.25,0.8 c 14.50575,-0.0149 14.79395,-15.89493 14,-26.52946 0,-11.75684 0,-23.51369 0,-35.27054 17.6721,-0.25041 38.74006,3.10947 50.76125,-13.42375 14.13078,-16.79691 12.26551,-40.51936 9.51493,-60.79069 C 381.90822,183.4838 361.58252,170.221 341.37398,173 c -12.30414,0.83321 -25.27985,-1.97335 -37.02388,2.08037 -10.38563,7.1941 -5.01315,21.19516 -6.3501,31.8451 0.1933,40.65244 -0.38782,81.346 0.29271,121.97256 C 299.58793,335.17138 305.65706,339.853 312,339.8 Z M 326,200 c 9.78782,1.03439 20.78296,-2.49063 29.5332,2.66414 8.26818,9.16024 4.91194,22.45224 5.19428,33.71147 C 360.45093,250.87571 346.43947,252.26153 335.51969,251 325.56016,253.88343 324.7873,247.58019 326,239.2914 326,226.19427 326,213.09713 326,200 Z M 481.03,87 C 331.01,87 180.99,87 30.97,87 16.473429,86.948742 16.209193,102.80121 17,113.39946 17.194123,213.66783 16.611646,313.97738 17.291426,414.22 21.25957,428.95523 38.371822,424.22176 49.703753,425 193.47917,425 337.25458,425 481.03,425 495.52657,425.05126 495.79081,409.19879 495,398.60054 494.80588,298.33217 495.38835,198.02262 494.70857,97.78 493.42624,91.537767 487.34288,86.914999 481.03,87 Z M 467,398 c -140.66667,0 -281.33333,0 -422,0 0,-94.66667 0,-189.33333 0,-284 140.66667,0 281.33333,0 422,0 0,94.66667 0,189.33333 0,284 z" />
</svg>
