<?xml version="1.0" encoding="UTF-8" standalone="no"?>
<svg
   xmlns:dc="http://purl.org/dc/elements/1.1/"
   xmlns:cc="http://creativecommons.org/ns#"
   xmlns:rdf="http://www.w3.org/1999/02/22-rdf-syntax-ns#"
   xmlns:svg="http://www.w3.org/2000/svg"
   xmlns="http://www.w3.org/2000/svg"
   xmlns:sodipodi="http://sodipodi.sourceforge.net/DTD/sodipodi-0.dtd"
   xmlns:inkscape="http://www.inkscape.org/namespaces/inkscape"
   width="512"
   height="512"
   viewBox="0 0 512 512"
   version="1.1"
   id="svg6"
   sodipodi:docname="fire alarm hom interface.svg"
   inkscape:version="0.92.1 r15371">
  <metadata
     id="metadata12">
    <rdf:RDF>
      <cc:Work
         rdf:about="">
        <dc:format>image/svg+xml</dc:format>
        <dc:type
           rdf:resource="http://purl.org/dc/dcmitype/StillImage" />
      </cc:Work>
    </rdf:RDF>
  </metadata>
  <defs
     id="defs10" />
  <sodipodi:namedview
     pagecolor="#ffffff"
     bordercolor="#666666"
     borderopacity="1"
     objecttolerance="10"
     gridtolerance="10"
     guidetolerance="10"
     inkscape:pageopacity="0"
     inkscape:pageshadow="2"
     inkscape:window-width="638"
     inkscape:window-height="493"
     id="namedview8"
     showgrid="false"
     inkscape:zoom="0.4609375"
     inkscape:cx="256"
     inkscape:cy="256"
     inkscape:window-x="0"
     inkscape:window-y="0"
     inkscape:window-maximized="0"
     inkscape:current-layer="svg6" />
  <path
     id="path4"
     d="m 156,339.93 c 14.54024,-0.019 14.77467,-15.97239 14,-26.6215 0,-17.10283 0,-34.20567 0,-51.3085 14.02079,-0.60364 28.37205,1.29491 42.15781,-1.11875 16.84933,-7.35684 5.16858,-31.85952 -11.19395,-26.88125 -10.32128,0 -20.64257,0 -30.96386,0 0,-11.33333 0,-22.66667 0,-34 14.02079,-0.60364 28.37205,1.29491 42.15781,-1.11875 16.84933,-7.35684 5.16858,-31.85952 -11.19395,-26.88125 -16.4991,0.60291 -33.30442,-1.28304 -49.58823,1.09203 -13.80735,5.77797 -8.21313,22.18119 -9.36563,33.77406 0.19366,40.68734 -0.38707,81.41504 0.28984,122.07719 1.25968,6.30357 7.33481,11.07692 13.70016,10.98672 z m 84.67,-0.46 c 14.0075,3.68353 18.10578,-11.77176 20.16334,-22.14472 3.16061,-5.25146 0.52671,-18.05104 9.04357,-16.32528 9.41436,0 18.82873,0 28.24309,0 4.26869,12.00557 4.3287,26.19922 12.6375,36.15625 16.32343,10.79015 27.13457,-10.62342 19.2037,-23.56459 C 318.29673,269.81375 306.62828,226.0369 294.96,182.26 c -9.02493,-21.53161 -30.16298,-4.04575 -29.89332,12.41739 -11.43135,43.59226 -23.58243,87.03094 -34.57193,130.71691 -0.48771,6.35227 4.05926,12.61613 10.17525,14.0757 z m 40.98,-99.67 c 3.03333,11.4 6.06667,22.8 9.1,34.2 -5.03282,-1.69978 -19.36862,3.74571 -17.32528,-3.389 2.74176,-10.27033 5.48352,-20.54067 8.22528,-30.811 z M 357,339.93 c 14.54024,-0.019 14.77467,-15.97239 14,-26.6215 -0.19363,-43.41539 0.38703,-86.87114 -0.28984,-130.26135 -3.886,-18.73964 -32.66028,-10.35293 -27.71016,7.44976 0.19361,46.14373 -0.38699,92.32782 0.28984,138.44637 1.25986,6.29295 7.31617,11.07704 13.71016,10.98672 z M 494,100.76 C 493.93259,86.275048 477.93498,86.307591 467.3785,87 321.839,87 176.2995,87 30.76,87 16.275048,87.067407 16.307591,103.06502 17,113.6215 17.186212,213.74742 16.627481,313.91078 17.279531,414.01328 20.93106,428.95491 38.161389,424.2462 49.467634,425 c 143.590786,0 287.181576,0 430.772366,0 14.48495,-0.0674 14.45241,-16.06502 13.76,-26.6215 0,-99.20617 0,-198.41233 0,-297.6185 z M 469,398 c -141.33333,0 -282.66667,0 -424,0 0,-94.66667 0,-189.33333 0,-284 141.33333,0 282.66667,0 424,0 0,94.66667 0,189.33333 0,284 z" />
</svg>
