<?xml version="1.0" encoding="UTF-8" standalone="no"?>
<svg
   xmlns:dc="http://purl.org/dc/elements/1.1/"
   xmlns:cc="http://creativecommons.org/ns#"
   xmlns:rdf="http://www.w3.org/1999/02/22-rdf-syntax-ns#"
   xmlns:svg="http://www.w3.org/2000/svg"
   xmlns="http://www.w3.org/2000/svg"
   xmlns:sodipodi="http://sodipodi.sourceforge.net/DTD/sodipodi-0.dtd"
   xmlns:inkscape="http://www.inkscape.org/namespaces/inkscape"
   width="512"
   height="512"
   viewBox="0 0 512 512"
   version="1.1"
   id="svg6"
   sodipodi:docname="fireman_s control panel.svg"
   inkscape:version="0.92.1 r15371">
  <metadata
     id="metadata12">
    <rdf:RDF>
      <cc:Work
         rdf:about="">
        <dc:format>image/svg+xml</dc:format>
        <dc:type
           rdf:resource="http://purl.org/dc/dcmitype/StillImage" />
      </cc:Work>
    </rdf:RDF>
  </metadata>
  <defs
     id="defs10" />
  <sodipodi:namedview
     pagecolor="#ffffff"
     bordercolor="#666666"
     borderopacity="1"
     objecttolerance="10"
     gridtolerance="10"
     guidetolerance="10"
     inkscape:pageopacity="0"
     inkscape:pageshadow="2"
     inkscape:window-width="638"
     inkscape:window-height="493"
     id="namedview8"
     showgrid="false"
     inkscape:zoom="0.4609375"
     inkscape:cx="256"
     inkscape:cy="256"
     inkscape:window-x="0"
     inkscape:window-y="0"
     inkscape:window-maximized="0"
     inkscape:current-layer="svg6" />
  <path
     id="path4"
     d="m 126,340.73 c 14.6756,-0.063 14.70899,-16.28285 14,-26.99946 0,-16.57684 0,-33.15369 0,-49.73054 13.53563,-0.5952 27.38174,1.27292 40.69844,-1.09063 17.33659,-7.29214 5.19068,-32.04346 -11.34274,-26.90937 -9.78523,0 -19.57047,0 -29.3557,0 0,-12 0,-24 0,-36 13.53563,-0.5952 27.38174,1.27292 40.69844,-1.09062 17.33659,-7.29215 5.19068,-32.04347 -11.34274,-26.90938 -16.37433,0.68494 -33.14746,-1.44698 -49.2457,1.2125 -12.58532,7.50838 -6.75285,23.76029 -8.1,35.81383 0.18704,40.13549 -0.37457,80.30793 0.28164,120.42027 1.17363,6.411 7.20738,11.41045 13.70836,11.2834 z m 82.87,-0.47 c 15.77018,3.73951 18.52211,-13.64768 21.2184,-24.6655 2.36607,-6.07615 1.06445,-16.92838 10.65676,-13.5945 8.37494,0 16.74989,0 25.12484,0 4.15219,11.66391 4.33556,25.32294 11.92201,35.30488 13.86149,11.70686 29.60364,-7.5851 21.12757,-21.09275 C 287.08972,271.85809 275.25986,227.50404 263.43,183.15 c -9.12869,-21.89817 -30.88194,-4.41272 -30.61706,12.44498 -11.37527,43.42222 -23.50219,86.68437 -34.40591,130.20701 -0.46812,6.51983 4.10846,12.88174 10.46297,14.45801 z m 40.9,-98.3 c 2.85333,10.68 5.70667,21.36 8.56,32.04 -5.05959,-1.69124 -19.91881,4.14561 -15.89281,-4.52518 2.43968,-9.1636 4.91588,-18.3907 7.33281,-27.51482 z M 324,340.73 c 14.6756,-0.063 14.70899,-16.28285 14,-26.99946 0,-11.91018 0,-23.82036 0,-35.73054 17.63316,-0.3431 38.62927,3.23262 50.8875,-12.955 14.20061,-16.71846 11.99565,-40.45949 9.41491,-60.67465 -4.13184,-20.5327 -24.06953,-35.36513 -44.84843,-32.37035 -12.30155,1.01292 -25.59214,-2.43069 -37.05164,2.61984 -10.48206,8.79433 -5.04735,23.67262 -6.40234,35.57735 0.18702,39.74521 -0.37455,79.52736 0.28164,119.24941 1.16961,6.39611 7.19398,11.41378 13.71836,11.2834 z M 338,200 c 9.06264,0.77615 18.83705,-1.6474 27.41031,1.38578 9.60818,9.19011 6.02478,23.66179 6.35332,35.58285 -0.20534,14.43764 -15.06991,13.56436 -25.3348,13.02137 -10.45834,3.35558 -8.6927,-5.51282 -8.42883,-12.87946 0,-12.36348 0,-24.7804 0,-37.11054 z M 480.55,87 C 330.85,87 181.15,87 31.45,87 16.675205,87.113709 16.149816,103.30383 17,114.23946 17,213.03964 17,311.83982 17,410.64 17.182612,425.39514 33.411017,425.81558 44.329455,425 189.7363,425 335.14315,425 480.55,425 495.3248,424.88629 495.85018,408.69617 495,397.76054 495,298.96036 495,200.16018 495,101.36 495.10422,93.679699 488.20526,86.894189 480.55,87 Z M 466,398 c -140,0 -280,0 -420,0 0,-94.33333 0,-188.66667 0,-283 140,0 280,0 420,0 0,94.33333 0,188.66667 0,283 z" />
</svg>
