<?xml version="1.0" encoding="UTF-8" standalone="no"?>
<svg
   xmlns:dc="http://purl.org/dc/elements/1.1/"
   xmlns:cc="http://creativecommons.org/ns#"
   xmlns:rdf="http://www.w3.org/1999/02/22-rdf-syntax-ns#"
   xmlns:svg="http://www.w3.org/2000/svg"
   xmlns="http://www.w3.org/2000/svg"
   xmlns:sodipodi="http://sodipodi.sourceforge.net/DTD/sodipodi-0.dtd"
   xmlns:inkscape="http://www.inkscape.org/namespaces/inkscape"
   width="512"
   height="512"
   viewBox="0 0 512 512"
   version="1.1"
   id="svg6"
   sodipodi:docname="heat deductor with integral sounder.svg"
   inkscape:version="0.92.1 r15371">
  <metadata
     id="metadata12">
    <rdf:RDF>
      <cc:Work
         rdf:about="">
        <dc:format>image/svg+xml</dc:format>
        <dc:type
           rdf:resource="http://purl.org/dc/dcmitype/StillImage" />
      </cc:Work>
    </rdf:RDF>
  </metadata>
  <defs
     id="defs10" />
  <sodipodi:namedview
     pagecolor="#ffffff"
     bordercolor="#666666"
     borderopacity="1"
     objecttolerance="10"
     gridtolerance="10"
     guidetolerance="10"
     inkscape:pageopacity="0"
     inkscape:pageshadow="2"
     inkscape:window-width="638"
     inkscape:window-height="493"
     id="namedview8"
     showgrid="false"
     inkscape:zoom="0.4609375"
     inkscape:cx="256"
     inkscape:cy="256"
     inkscape:window-x="0"
     inkscape:window-y="0"
     inkscape:window-maximized="0"
     inkscape:current-layer="svg6" />
  <path
     id="path4"
     d="m 152.62,330 c 15.32357,-0.92883 31.39429,2.45002 45.98656,-3.12078 18.23981,-8.9232 21.58984,-30.46096 20.39344,-48.72394 -0.34271,-21.33091 0.75055,-42.74015 -0.67641,-64.01253 C 215.97882,195.41259 198.351,180.28287 179.33264,183 c -11.01857,0.84187 -22.7822,-1.94985 -33.20178,1.96436 -8.62368,7.18826 -3.91696,19.58646 -5.13086,29.36895 0.15639,35.36794 -0.31341,70.76726 0.23598,106.11552 1.00603,5.29644 5.92087,9.62734 11.38402,9.55117 z M 164,206 c 8.38004,0.60632 17.25891,-1.32421 25.27531,1.18656 10.56372,9.15527 5.53274,24.40506 6.72469,36.6792 -0.48251,17.74078 1.05157,35.66694 -0.93906,53.2708 -2.03781,11.83427 -14.24894,9.95009 -23.01689,9.86344 -9.32668,2.8275 -8.57367,-4.42469 -8.04405,-11.45349 0,-29.84884 0,-59.69767 0,-89.54651 z m 330.76,-41.84 c -0.2119,-9.42847 -12.363,-15.04319 -19.47047,-8.66993 C 431.19302,182.24005 387.09651,208.99002 343,235.74 342.83741,211.45801 343.32681,187.14132 342.75244,162.88125 339.06252,150.33541 324.22503,154.83334 314.46037,154 218.54187,154.14591 122.59633,153.70823 26.694727,154.21875 13.793356,156.72754 17.518856,171.33937 17,180.8184 c 0.170207,56.31397 -0.340223,112.66498 0.254863,168.95582 3.885876,13.09881 19.3038,8.33303 29.495992,9.22578 95.568495,-0.15595 191.167975,0.31185 286.717115,-0.23381 13.09441,-3.09604 8.82761,-18.16297 9.53203,-27.98582 0,-17.98012 0,-35.96025 0,-53.94037 44.72476,26.8895 89.46476,53.75636 134.18,80.66 8.42164,5.3416 18.62288,-3.18445 17.81,-12.08245 -0.15322,-60.38252 0.3065,-121.05523 -0.23,-181.25755 z M 320,336 c -93.33333,0 -186.66667,0 -280,0 0,-53 0,-106 0,-159 93.33333,0 186.66667,0 280,0 0,53 0,106 0,159 z m 152,-9.03 c -39.25,-23.56667 -78.5,-47.13333 -117.75,-70.7 39.25,-23.76333 78.5,-47.52667 117.75,-71.29 0,47.32333 0,94.7 0,141.99 z" />
</svg>
