<?xml version="1.0" encoding="UTF-8" standalone="no"?>
<svg
   xmlns:dc="http://purl.org/dc/elements/1.1/"
   xmlns:cc="http://creativecommons.org/ns#"
   xmlns:rdf="http://www.w3.org/1999/02/22-rdf-syntax-ns#"
   xmlns:svg="http://www.w3.org/2000/svg"
   xmlns="http://www.w3.org/2000/svg"
   xmlns:sodipodi="http://sodipodi.sourceforge.net/DTD/sodipodi-0.dtd"
   xmlns:inkscape="http://www.inkscape.org/namespaces/inkscape"
   width="512"
   height="512"
   viewBox="0 0 512 512"
   version="1.1"
   id="svg6"
   sodipodi:docname="mimic panel.svg"
   inkscape:version="0.92.1 r15371">
  <metadata
     id="metadata12">
    <rdf:RDF>
      <cc:Work
         rdf:about="">
        <dc:format>image/svg+xml</dc:format>
        <dc:type
           rdf:resource="http://purl.org/dc/dcmitype/StillImage" />
      </cc:Work>
    </rdf:RDF>
  </metadata>
  <defs
     id="defs10" />
  <sodipodi:namedview
     pagecolor="#ffffff"
     bordercolor="#666666"
     borderopacity="1"
     objecttolerance="10"
     gridtolerance="10"
     guidetolerance="10"
     inkscape:pageopacity="0"
     inkscape:pageshadow="2"
     inkscape:window-width="640"
     inkscape:window-height="493"
     id="namedview8"
     showgrid="false"
     inkscape:zoom="0.4609375"
     inkscape:cx="256"
     inkscape:cy="256"
     inkscape:window-x="0"
     inkscape:window-y="0"
     inkscape:window-maximized="0"
     inkscape:current-layer="svg6" />
  <path
     id="path4"
     d="m 150,356.05 c 15.18841,-0.17384 14.56121,-17.13432 14,-28.08312 0,-31.15563 0,-62.31125 0,-93.46688 7.02264,13.76897 12.83735,28.23191 20.69375,41.52187 14.00166,14.07467 25.76852,-4.54423 29.84635,-17.0326 3.81996,-8.13642 7.63993,-16.27285 11.4599,-24.40927 0.19816,36.67911 -0.39713,73.39927 0.29902,110.05262 4.06497,19.59671 33.97606,10.63264 28.70098,-7.89466 0,-55.01266 0,-110.02531 0,-165.03796 -3.81697,-24.91439 -30.23161,-11.21909 -33.02721,6.24924 C 213.15853,196.33949 204.34426,214.72975 195.53,233.12 183.57617,209.38086 173.37687,184.609 160.26062,161.55406 142.04326,147.46238 132.7776,171.78558 136,186.73613 c 0.18413,52.6311 -0.36885,105.29759 0.27754,157.90649 1.13525,6.45643 7.13672,11.57627 13.72246,11.40738 z m 136,0 c 15.18841,-0.17384 14.56121,-17.13432 14,-28.08312 0,-15.65563 0,-31.31125 0,-46.96688 20.3767,-1.04642 44.12261,4.74719 59.85023,-12.12606 19.12996,-18.16822 17.00966,-45.94739 15.24848,-69.87472 -3.12445,-24.453 -26.11005,-44.38683 -51.01678,-40.99922 -14.44142,0.57003 -29.16018,-1.21181 -43.40818,1.02656 -13.28344,6.08027 -7.3419,22.4697 -8.67375,33.95462 0.18403,50.54609 -0.36873,101.12756 0.27754,151.65144 1.12502,6.44588 7.13615,11.56884 13.72246,11.41738 z M 300,187 c 12.5269,0.8492 25.69163,-1.88943 37.73578,1.75 14.28021,10.05201 9.7087,29.23506 9.90693,44.23379 C 346.91469,250.17993 330.25999,253.85281 316.56387,252 310.46202,250.49221 296.88251,256.46208 300,245.73495 300,226.15663 300,206.57832 300,187 Z M 495,68.3 C 494.89188,53.035493 477.97938,53.33453 466.91688,54 321.71125,54 176.50563,54 31.3,54 16.035493,54.10812 16.33453,71.020623 17,82.083119 17.193589,203.91142 16.612801,325.77864 17.29043,447.58262 21.215814,463.3117 39.438171,458.12663 51.348173,459 194.46545,459 337.58272,459 480.7,459 495.96451,458.89188 495.66547,441.97938 495,430.91688 495,310.04459 495,189.17229 495,68.3 Z M 466,431 c -140,0 -280,0 -420,0 0,-116.33333 0,-232.66667 0,-349 140,0 280,0 420,0 0,116.33333 0,232.66667 0,349 z" />
</svg>
