<?xml version="1.0" encoding="UTF-8" standalone="no"?>
<svg
   xmlns:dc="http://purl.org/dc/elements/1.1/"
   xmlns:cc="http://creativecommons.org/ns#"
   xmlns:rdf="http://www.w3.org/1999/02/22-rdf-syntax-ns#"
   xmlns:svg="http://www.w3.org/2000/svg"
   xmlns="http://www.w3.org/2000/svg"
   xmlns:sodipodi="http://sodipodi.sourceforge.net/DTD/sodipodi-0.dtd"
   xmlns:inkscape="http://www.inkscape.org/namespaces/inkscape"
   width="512"
   height="512"
   viewBox="0 0 512 512"
   version="1.1"
   id="svg6"
   sodipodi:docname="repeater fire alarm panel.svg"
   inkscape:version="0.92.1 r15371">
  <metadata
     id="metadata12">
    <rdf:RDF>
      <cc:Work
         rdf:about="">
        <dc:format>image/svg+xml</dc:format>
        <dc:type
           rdf:resource="http://purl.org/dc/dcmitype/StillImage" />
      </cc:Work>
    </rdf:RDF>
  </metadata>
  <defs
     id="defs10" />
  <sodipodi:namedview
     pagecolor="#ffffff"
     bordercolor="#666666"
     borderopacity="1"
     objecttolerance="10"
     gridtolerance="10"
     guidetolerance="10"
     inkscape:pageopacity="0"
     inkscape:pageshadow="2"
     inkscape:window-width="640"
     inkscape:window-height="493"
     id="namedview8"
     showgrid="false"
     inkscape:zoom="0.4609375"
     inkscape:cx="256"
     inkscape:cy="256"
     inkscape:window-x="0"
     inkscape:window-y="0"
     inkscape:window-maximized="0"
     inkscape:current-layer="svg6" />
  <path
     id="path4"
     d="m 91.5,333.25 c 13.56624,-0.14442 13.02207,-15.233 12.5,-25.00347 0,-10.41551 0,-20.83102 0,-31.24653 7.65588,-0.71302 15.01568,-0.98751 15.82898,8.43431 6.21257,14.45484 11.11588,29.55901 18.1943,43.58444 12.88995,13.75903 29.29269,-6.85207 18.7211,-19.20594 C 151.60626,297.04188 146.46813,284.27094 141.33,271.5 161.51314,259.2554 161.32048,233.46788 159.27955,212.74961 156.81359,192.94487 138.13461,177.07983 118.06992,180 c -11.31391,0.95297 -23.516352,-2.1799 -34.134608,2.13574 -8.490251,8.27492 -3.668266,21.34785 -4.945312,31.96117 0.167831,36.38623 -0.336703,72.80631 0.254102,109.17125 1.083121,5.69096 6.457275,10.08267 12.255898,9.98184 z M 104,205 c 9.22325,1.29214 20.95353,-3.4579 27.7725,4.46375 5.01037,9.79047 3.31375,21.67318 2.33641,32.25797 -2.59733,13.28231 -16.77386,9.97185 -26.5591,10.27828 -7.50259,0.63593 -1.75362,-11.97972 -3.54981,-17.05019 0,-9.98327 0,-19.96654 0,-29.94981 z m 78.5,128.25 c 13.56624,-0.14442 13.02207,-15.233 12.5,-25.00347 0,-15.41551 0,-30.83102 0,-46.24653 12.42792,-0.52605 25.13621,1.1313 37.36406,-0.98281 15.57179,-6.78461 4.25295,-28.76166 -10.54746,-24.01719 -8.93886,0 -17.87773,0 -26.8166,0 0,-10.66667 0,-21.33333 0,-32 12.42792,-0.52605 25.13621,1.1313 37.36406,-0.98281 15.57179,-6.78461 4.25295,-28.76166 -10.54746,-24.01719 -14.86148,0.58232 -30.03366,-1.21163 -44.68691,0.98281 -11.37056,6.50741 -5.7875,21.27483 -7.12969,31.97742 0.16786,36.76513 -0.33674,73.56409 0.2541,110.30793 1.07311,5.67809 6.46198,10.08518 12.2459,9.98184 z m 75.97,-0.42 c 13.12569,3.4804 16.5346,-11.1788 18.54379,-20.73538 2.47442,-6.08184 1.11666,-17.16116 10.60629,-14.09462 7.7933,0 15.58661,0 23.37992,0 3.88386,10.91489 3.97829,23.81853 11.5325,32.86 15.2947,9.75305 24.60931,-10.25217 17.30352,-22.08614 C 329.2375,268.94579 318.62503,229.12125 308,189.3 c -8.67584,-19.95527 -27.64903,-3.01609 -27.3933,12.06086 -10.37926,39.57637 -21.43307,79.00912 -31.41445,118.66857 -0.40969,5.77619 3.64637,11.409 9.27775,12.80057 z M 295.9,241.4 c 2.81,10.53333 5.62,21.06667 8.43,31.6 -5.00922,-1.63346 -19.48442,4.00484 -15.68805,-4.39308 2.41935,-9.06897 4.8387,-18.13795 7.25805,-27.20692 z m 68.6,91.85 c 13.56624,-0.14442 13.02207,-15.233 12.5,-25.00347 0,-10.41551 0,-20.83102 0,-31.24653 16.05468,-0.24063 35.34985,2.87655 46.0475,-12.3975 12.60106,-15.5937 10.80707,-37.18861 8.43625,-55.77843 C 427.83083,190.64069 410.13282,177.37106 391.67992,180 c -11.37625,0.93495 -23.59539,-2.1531 -34.30394,2.13574 -9.1067,7.96651 -4.06215,21.32791 -5.37598,31.96117 0.16783,36.38623 -0.3367,72.80631 0.2541,109.17125 1.07311,5.67809 6.46198,10.08518 12.2459,9.98184 z M 377,205 c 8.29736,0.60971 17.11764,-1.32331 25.03891,1.17391 9.11545,9.28989 5.61637,23.92239 5.16156,35.66734 C 405.7707,254.54306 392.68142,251.90646 383.72317,252 373.42471,255.13179 377.91136,243.47847 377,237.22317 377,226.48211 377,215.74106 377,205 Z M 494,114.5 C 493.85558,100.93376 478.767,101.47793 468.99653,102 322.49768,102 175.99884,102 29.5,102 15.933759,102.14442 16.477933,117.233 17,127.00347 c 0.169131,91.33398 -0.338442,182.70202 0.254102,274.01469 3.579655,13.96155 19.845099,9.12253 30.432769,9.98184 144.604379,0 289.208749,0 433.813129,0 13.56624,-0.14442 13.02207,-15.233 12.5,-25.00347 0,-90.49885 0,-180.99769 0,-271.49653 z M 470,387 c -142.66667,0 -285.33333,0 -428,0 0,-86.66667 0,-173.33333 0,-260 142.66667,0 285.33333,0 428,0 0,86.66667 0,173.33333 0,260 z" />
</svg>
