<?xml version="1.0" encoding="UTF-8" standalone="no"?>
<svg
   xmlns:dc="http://purl.org/dc/elements/1.1/"
   xmlns:cc="http://creativecommons.org/ns#"
   xmlns:rdf="http://www.w3.org/1999/02/22-rdf-syntax-ns#"
   xmlns:svg="http://www.w3.org/2000/svg"
   xmlns="http://www.w3.org/2000/svg"
   xmlns:sodipodi="http://sodipodi.sourceforge.net/DTD/sodipodi-0.dtd"
   xmlns:inkscape="http://www.inkscape.org/namespaces/inkscape"
   width="512"
   height="512"
   viewBox="0 0 512 512"
   version="1.1"
   id="svg6"
   sodipodi:docname="smoke deductor beam type transmitter.svg"
   inkscape:version="0.92.1 r15371">
  <metadata
     id="metadata12">
    <rdf:RDF>
      <cc:Work
         rdf:about="">
        <dc:format>image/svg+xml</dc:format>
        <dc:type
           rdf:resource="http://purl.org/dc/dcmitype/StillImage" />
      </cc:Work>
    </rdf:RDF>
  </metadata>
  <defs
     id="defs10" />
  <sodipodi:namedview
     pagecolor="#ffffff"
     bordercolor="#666666"
     borderopacity="1"
     objecttolerance="10"
     gridtolerance="10"
     guidetolerance="10"
     inkscape:pageopacity="0"
     inkscape:pageshadow="2"
     inkscape:window-width="640"
     inkscape:window-height="493"
     id="namedview8"
     showgrid="false"
     inkscape:zoom="0.4609375"
     inkscape:cx="256"
     inkscape:cy="256"
     inkscape:window-x="0"
     inkscape:window-y="0"
     inkscape:window-maximized="0"
     inkscape:current-layer="svg6" />
  <path
     id="path4"
     d="m 90.48,217.63 c 13.64869,0.008 37.22764,19.36247 39.05844,-5.84594 C 123.94005,197.07042 104.63043,193.92186 90.48,193.12 c -28.558009,0.49281 -39.344988,40.25654 -21.10875,59.37813 9.793644,9.26942 22.595216,14.67132 33.13,22.95937 11.69537,20.75382 -15.401569,21.60826 -26.20625,10.8775 -22.72996,-3.88279 -17.331943,27.63925 1.730996,28.0302 15.780291,6.65878 37.667254,5.76862 46.420804,-11.35206 11.46022,-18.55958 3.25941,-44.83423 -16.62717,-53.63999 C 100.79225,244.01364 91.571463,240.94128 86.16,233.87875 83.85298,228.76749 84.252691,219.68916 90.48,217.63 Z M 197.92,194 c -18.72527,0.15848 -37.4811,-0.31737 -56.18723,0.23836 -16.89033,3.20018 -8.91335,28.44853 6.74962,23.76164 8.32191,-1.60426 12.73201,0.70331 10.51761,9.63537 0.17304,26.95608 -0.34625,53.94852 0.25984,80.88186 3.53306,16.76069 29.2078,9.15164 24.74016,-6.74962 0,-27.92253 0,-55.84507 0,-83.76761 9.24595,-0.29167 23.13816,2.6408 25.9209,-9.54352 C 211.68485,201.1402 205.36165,193.73176 197.92,194 Z m 285.48,50 c -76.6,0 -153.2,0 -229.8,0 C 249.64058,195.81265 213.00596,152.7175 166.19,140.78 120.26842,127.73119 67.717353,146.00844 39.758805,184.69474 25.107798,204.54708 16.037222,229.21681 16.58,254.01 c -0.545005,12.68363 1.340114,26.51989 5.625134,39.00344 14.454562,45.87211 59.220194,79.81895 107.264866,81.52656 46.01329,2.85863 92.38858,-24.26122 112.34123,-65.98131 6.28635,-12.30089 10.07623,-26.29145 11.78877,-39.61869 77.41789,-0.17272 154.87201,0.3456 232.26723,-0.25943 C 500.12366,265.68169 497.93382,243.89117 483.4,244 Z m -253.76,17 c -1.74535,42.01082 -34.74621,80.08782 -76.19022,87.46789 -10.96539,2.15667 -22.03251,3.36952 -33.02542,0.62379 -42.292943,-6.05413 -77.310791,-43.93129 -79.355486,-86.70347 -3.621914,-40.78332 22.733838,-81.66945 61.325406,-95.29159 39.87493,-15.5816 88.86782,0.52305 111.75772,36.69107 11.10336,16.75825 16.52176,37.40546 15.488,57.21231 z" />
</svg>
