<?xml version="1.0" encoding="UTF-8" standalone="no"?>
<svg
   xmlns:dc="http://purl.org/dc/elements/1.1/"
   xmlns:cc="http://creativecommons.org/ns#"
   xmlns:rdf="http://www.w3.org/1999/02/22-rdf-syntax-ns#"
   xmlns:svg="http://www.w3.org/2000/svg"
   xmlns="http://www.w3.org/2000/svg"
   xmlns:sodipodi="http://sodipodi.sourceforge.net/DTD/sodipodi-0.dtd"
   xmlns:inkscape="http://www.inkscape.org/namespaces/inkscape"
   width="512"
   height="512"
   viewBox="0 0 512 512"
   version="1.1"
   id="svg6"
   sodipodi:docname="smoke dedector type rate of rise.svg"
   inkscape:version="0.92.1 r15371">
  <metadata
     id="metadata12">
    <rdf:RDF>
      <cc:Work
         rdf:about="">
        <dc:format>image/svg+xml</dc:format>
        <dc:type
           rdf:resource="http://purl.org/dc/dcmitype/StillImage" />
      </cc:Work>
    </rdf:RDF>
  </metadata>
  <defs
     id="defs10" />
  <sodipodi:namedview
     pagecolor="#ffffff"
     bordercolor="#666666"
     borderopacity="1"
     objecttolerance="10"
     gridtolerance="10"
     guidetolerance="10"
     inkscape:pageopacity="0"
     inkscape:pageshadow="2"
     inkscape:window-width="638"
     inkscape:window-height="493"
     id="namedview8"
     showgrid="false"
     inkscape:zoom="0.4609375"
     inkscape:cx="256"
     inkscape:cy="256"
     inkscape:window-x="0"
     inkscape:window-y="0"
     inkscape:window-maximized="0"
     inkscape:current-layer="svg6" />
  <path
     id="path4"
     d="m 157.6,251.56 c -8.656,-6.32132 -19.18247,-10.62919 -26.655,-18.22125 -4.01941,-27.17095 25.21002,3.53266 36.64719,-6.84828 17.03745,-13.86492 -4.09681,-31.11321 -19.19869,-32.68614 -17.67415,-6.26592 -39.49872,1.54849 -45.27444,20.43254 -7.626924,18.96572 1.7378,41.78977 20.16135,50.28248 6.82473,5.5651 17.15787,8.05384 21.00053,16.28846 -0.58387,25.4798 -28.46245,-9.4781 -39.54828,6.58703 -13.577044,16.23365 9.26795,29.39715 23.54677,31.34914 18.49911,6.09915 40.02233,-4.81167 44.18682,-24.33124 C 176.81243,278.94374 171.37686,260.47622 157.6,251.56 Z M 479.62,241 c -74.48588,-0.13339 -149.4312,0.26674 -223.63,-0.2 -5.48781,-47.07059 -41.61315,-88.61036 -87.57,-100.33 -46.50988,-13.21983 -99.83329,5.48348 -127.793458,44.9567 -17.260436,23.33286 -25.187769,53.08476 -22.471102,81.84587 3.812949,48.27555 40.160946,91.6458 86.94456,104.03743 11.7408,3.47993 24.38238,4.63522 36.21336,4.08765 50.087,-0.43354 96.91928,-36.86354 110.6256,-84.9196 1.8937,-6.36467 3.27312,-12.88268 4.19104,-19.45805 74.52667,0 149.05333,0 223.58,0 19.22546,0.15337 19.1249,-30.25891 -0.09,-30.02 z m -252.18,20.06 c -1.60674,40.53436 -33.79901,77.10129 -73.83647,83.72683 C 112.95804,353.06236 68.937746,329.00589 53.816056,290.41258 37.595421,252.94116 51.12831,205.68761 84.749394,182.50168 117.24861,158.39956 165.73676,160.52111 196.02,187.35 c 21.16807,17.98213 33.10049,45.98338 31.42,73.71 z" />
</svg>
