<?xml version="1.0" encoding="UTF-8" standalone="no"?>
<svg
   xmlns:dc="http://purl.org/dc/elements/1.1/"
   xmlns:cc="http://creativecommons.org/ns#"
   xmlns:rdf="http://www.w3.org/1999/02/22-rdf-syntax-ns#"
   xmlns:svg="http://www.w3.org/2000/svg"
   xmlns="http://www.w3.org/2000/svg"
   xmlns:sodipodi="http://sodipodi.sourceforge.net/DTD/sodipodi-0.dtd"
   xmlns:inkscape="http://www.inkscape.org/namespaces/inkscape"
   width="512"
   height="512"
   viewBox="0 0 512 512"
   version="1.1"
   id="svg6"
   sodipodi:docname="smoke dedector ceiling void mounted.svg"
   inkscape:version="0.92.1 r15371">
  <metadata
     id="metadata12">
    <rdf:RDF>
      <cc:Work
         rdf:about="">
        <dc:format>image/svg+xml</dc:format>
        <dc:type
           rdf:resource="http://purl.org/dc/dcmitype/StillImage" />
      </cc:Work>
    </rdf:RDF>
  </metadata>
  <defs
     id="defs10" />
  <sodipodi:namedview
     pagecolor="#ffffff"
     bordercolor="#666666"
     borderopacity="1"
     objecttolerance="10"
     gridtolerance="10"
     guidetolerance="10"
     inkscape:pageopacity="0"
     inkscape:pageshadow="2"
     inkscape:window-width="638"
     inkscape:window-height="493"
     id="namedview8"
     showgrid="false"
     inkscape:zoom="0.4609375"
     inkscape:cx="256"
     inkscape:cy="256"
     inkscape:window-x="0"
     inkscape:window-y="0"
     inkscape:window-maximized="0"
     inkscape:current-layer="svg6" />
  <path
     id="path4"
     d="m 210.2,277.54 c -12.90644,-8.73313 -26.783,-16.17804 -39.13344,-25.63766 -16.03729,-20.71354 10.07066,-41.18437 29.16156,-25.43656 16.43966,19.95994 44.49778,-10.87737 20.41238,-22.51785 -21.25359,-12.23281 -53.59976,-20.12718 -71.728,1.56332 -20.59142,23.16773 -13.26596,64.21744 15.10249,77.51751 10.60887,7.19911 22.12265,13.20333 32.1447,21.17765 15.97595,20.41602 -9.70237,41.14049 -28.79,25.61922 -21.5152,-22.90283 -45.36335,18.14649 -15.31384,25.33103 21.49002,10.95623 53.5935,15.53079 68.85904,-7.85547 C 236.18078,326.16171 232.25122,292.55212 210.2,277.54 Z M 479.94,210 c -10.36166,-1.01626 -21.89367,2.4474 -31.24322,-2.63408 -9.5993,-11.20443 -4.32873,-27.08586 -5.69678,-40.62081 0.6147,-19.76296 -1.30321,-39.78463 1.09922,-59.36698 C 447.98441,92.793896 464.25303,97.888295 475.29287,97 494.25799,102.04036 502.78232,71.334308 482.91043,67.310664 463.29693,67.195925 439.70792,63.086534 425.98375,80.97 408.58681,101.22901 415.39176,128.81 414,153.15893 c 1.31979,22.19601 -4.15762,45.97833 6.99943,66.35572 8.69952,16.99831 28.144,22.12399 45.76461,20.48535 11.27011,0.91874 27.94881,0.25959 27.91596,-15 0.15037,-7.91483 -6.74825,-15.14486 -14.74,-15 z M 349.8,272.5 C 348.35262,208.56165 306.36522,147.90935 246.91,124.25 187.39479,99.000041 113.8711,112.94716 67.979725,158.55272 24.663056,199.81402 6.6186742,265.37957 23.46,322.8 c 16.282954,60.79658 69.946128,109.21978 132.10134,119.14319 18.49555,3.25235 36.72387,3.52199 55.22119,0.13988 63.40549,-9.75575 118.09646,-59.67771 133.66773,-121.8926 4.0728,-15.50829 5.84977,-31.79144 5.34974,-47.69047 z m -29.57,13.2 C 317.77827,341.17271 278.076,392.4607 224.89236,408.52588 171.67758,426.12786 109.04879,406.51476 75.35,361.73 39.479072,316.59069 37.386996,248.51405 70.399793,201.25566 101.4744,153.93439 163.76132,130.56633 218.30406,145.70454 272.66152,159.18008 315.09485,209.15048 319.72,264.94 c 0.74805,6.88969 0.62772,13.91464 0.51,20.76 z" />
</svg>
