<?xml version="1.0" encoding="UTF-8" standalone="no"?>
<svg
   xmlns:dc="http://purl.org/dc/elements/1.1/"
   xmlns:cc="http://creativecommons.org/ns#"
   xmlns:rdf="http://www.w3.org/1999/02/22-rdf-syntax-ns#"
   xmlns:svg="http://www.w3.org/2000/svg"
   xmlns="http://www.w3.org/2000/svg"
   xmlns:sodipodi="http://sodipodi.sourceforge.net/DTD/sodipodi-0.dtd"
   xmlns:inkscape="http://www.inkscape.org/namespaces/inkscape"
   width="512"
   height="512"
   viewBox="0 0 512 512"
   version="1.1"
   id="svg6"
   sodipodi:docname="voice alarm head end system.svg"
   inkscape:version="0.92.1 r15371">
  <metadata
     id="metadata12">
    <rdf:RDF>
      <cc:Work
         rdf:about="">
        <dc:format>image/svg+xml</dc:format>
        <dc:type
           rdf:resource="http://purl.org/dc/dcmitype/StillImage" />
      </cc:Work>
    </rdf:RDF>
  </metadata>
  <defs
     id="defs10" />
  <sodipodi:namedview
     pagecolor="#ffffff"
     bordercolor="#666666"
     borderopacity="1"
     objecttolerance="10"
     gridtolerance="10"
     guidetolerance="10"
     inkscape:pageopacity="0"
     inkscape:pageshadow="2"
     inkscape:window-width="640"
     inkscape:window-height="493"
     id="namedview8"
     showgrid="false"
     inkscape:zoom="0.4609375"
     inkscape:cx="256"
     inkscape:cy="256"
     inkscape:window-x="0"
     inkscape:window-y="0"
     inkscape:window-maximized="0"
     inkscape:current-layer="svg6" />
  <path
     id="path4"
     d="m 135.8,328.44 c 8.96634,22.02529 30.18859,4.1462 29.96216,-12.4177 11.40759,-43.52407 23.54239,-86.89263 34.49595,-130.51378 1.33412,-19.19865 -28.58942,-18.41258 -28.29396,0.0603 C 164.3561,214.07919 156.74805,242.58959 149.14,271.1 140.72413,240.22549 133.01656,209.12335 124.15383,178.39244 115.60168,161.0668 90.236104,176.95833 99.693299,192.78946 111.72468,238.00309 123.78957,283.24248 135.8,328.44 Z m 84.45,9.46 c 14.0034,3.83928 18.17678,-11.54497 20.22522,-21.91884 3.15517,-5.11659 0.46805,-17.85742 8.98169,-15.98116 9.3677,0 18.73539,0 28.10309,0 4.28798,11.8658 4.30648,25.97443 12.645,35.76375 16.39338,10.63452 27.17553,-10.78118 19.24341,-23.75135 C 297.80555,268.3399 286.15504,224.66936 274.5,181 c -9.06618,-21.49349 -30.22958,-4.05808 -29.96569,12.42676 -11.4054,43.46311 -23.53488,86.77015 -34.48531,130.33129 -0.48496,6.38723 4.02862,12.57049 10.201,14.14195 z m 40.92,-99.74 c 3.01,11.28 6.02,22.56 9.03,33.84 -4.94856,-1.72116 -19.29899,3.77969 -17.15564,-3.38909 C 255.75291,258.4606 258.46145,248.3103 261.17,238.16 Z M 336,338.37 c 14.55275,-0.0256 14.76813,-16.00539 14,-26.6615 0,-11.5695 0,-23.139 0,-34.7085 17.66273,-0.18159 38.65765,2.91543 50.6025,-13.5975 14.27356,-16.87059 12.46498,-40.74771 9.64553,-61.14685 -4.4175,-20.47117 -24.44312,-35.18844 -45.23262,-32.25565 -12.24263,1.02211 -25.50122,-2.43677 -36.88748,2.5977 -10.11808,8.88837 -4.78231,23.53577 -6.12793,35.34684 0.19152,39.79855 -0.38417,79.63705 0.28984,119.41046 1.26421,6.29942 7.31284,11.12543 13.71016,11.015 z M 350,198 c 9.66556,1.14295 20.83498,-2.72628 29.24512,2.89828 8.56025,10.23123 5.81509,25.14346 4.65082,37.41563 C 381.26148,251.28798 367.74929,249.03076 358.00005,249 347.27506,252.38139 350.22176,242.09111 350,234.96927 350,222.64618 350,210.32309 350,198 Z M 479.7,86 C 329.86667,86 180.03333,86 30.2,86 15.603926,86.177711 15.179204,102.19474 16,112.9915 16,212.11433 16,311.23717 16,410.36 16.332183,424.82551 32.462283,424.62767 43.061499,424 188.601,424 334.1405,424 479.68,424 494.07209,423.92676 493.54091,407.86359 493,397.4985 492.82685,297.44996 493.34632,197.36924 492.74023,97.34082 491.70026,91.14626 486.13555,85.863804 479.7,86 Z M 466,395 c -140.66667,0 -281.33333,0 -422,0 0,-93.66667 0,-187.33333 0,-281 140.66667,0 281.33333,0 422,0 0,93.66667 0,187.33333 0,281 z" />
</svg>
