<?xml version="1.0" encoding="UTF-8" standalone="no"?>
<svg
   xmlns:dc="http://purl.org/dc/elements/1.1/"
   xmlns:cc="http://creativecommons.org/ns#"
   xmlns:rdf="http://www.w3.org/1999/02/22-rdf-syntax-ns#"
   xmlns:svg="http://www.w3.org/2000/svg"
   xmlns="http://www.w3.org/2000/svg"
   xmlns:sodipodi="http://sodipodi.sourceforge.net/DTD/sodipodi-0.dtd"
   xmlns:inkscape="http://www.inkscape.org/namespaces/inkscape"
   width="512"
   height="512"
   viewBox="0 0 512 512"
   version="1.1"
   id="svg6"
   sodipodi:docname="xenon beacon.svg"
   inkscape:version="0.92.1 r15371">
  <metadata
     id="metadata12">
    <rdf:RDF>
      <cc:Work
         rdf:about="">
        <dc:format>image/svg+xml</dc:format>
        <dc:type
           rdf:resource="http://purl.org/dc/dcmitype/StillImage" />
      </cc:Work>
    </rdf:RDF>
  </metadata>
  <defs
     id="defs10" />
  <sodipodi:namedview
     pagecolor="#ffffff"
     bordercolor="#666666"
     borderopacity="1"
     objecttolerance="10"
     gridtolerance="10"
     guidetolerance="10"
     inkscape:pageopacity="0"
     inkscape:pageshadow="2"
     inkscape:window-width="640"
     inkscape:window-height="493"
     id="namedview8"
     showgrid="false"
     inkscape:zoom="0.4609375"
     inkscape:cx="256"
     inkscape:cy="256"
     inkscape:window-x="0"
     inkscape:window-y="0"
     inkscape:window-maximized="0"
     inkscape:current-layer="svg6" />
  <path
     id="path4"
     d="M 400.86,123.87 C 399.76816,112.36634 386.83582,109.2962 377.25209,111 292.38756,111.24087 207.4473,110.51884 122.63,111.36 c -12.12334,2.18657 -12.60266,16.27231 -11.64,25.96017 0.21335,83.74055 -0.42669,167.55624 0.32,251.24983 1.58383,11.79556 15.18587,13.74506 24.80904,12.39 84.17637,-0.23337 168.43763,0.46671 252.56096,-0.35 11.88471,-1.52933 13.62272,-15.17637 12.28,-24.77904 -0.0667,-83.96752 0.13332,-168.09048 -0.1,-251.96096 z M 352.42,140 c -32.13333,32.13333 -64.26667,64.26667 -96.4,96.4 -32.13333,-32.13333 -64.26667,-64.26667 -96.4,-96.4 64.26667,0 128.53333,0 192.8,0 z M 140,159.52 c 32.13333,32.13333 64.26667,64.26667 96.4,96.4 -32.13333,32.13333 -64.26667,64.26667 -96.4,96.4 0,-64.26667 0,-128.53333 0,-192.8 z M 159.63,372 c 32.13333,-32.13333 64.26667,-64.26667 96.4,-96.4 32.13333,32.13333 64.26667,64.26667 96.4,96.4 -64.26667,0 -128.53333,0 -192.8,0 z M 372,352.32 c -32.13333,-32.13333 -64.26667,-64.26667 -96.4,-96.4 32.13333,-32.13333 64.26667,-64.26667 96.4,-96.4 0,64.26667 0,128.53333 0,192.8 z M 493,262.23 C 496.22534,179.16426 451.26805,96.627248 380.06,53.83 310.04561,10.06704 217.02253,7.2198954 144.48154,46.648427 67.989847,86.460317 17.285639,170.88965 18.942942,257.19111 18.232599,342.83272 68.887664,426.16672 144.89123,465.5037 c 73.102,39.59587 166.93699,36.15673 236.97882,-8.62247 C 448.44562,415.83974 491.3887,340.29523 493,262.23 Z m -28.25,-0.66 C 463.49526,339.32024 414.53246,413.6781 343.56551,445.48595 272.93358,479.02905 184.01725,467.76473 123.97314,417.67938 62.494807,368.67267 33.712673,283.11606 53.030532,206.91024 70.470033,131.13013 133.83758,68.609884 209.86803,52.255285 286.38437,33.811208 371.47574,64.1561 419.69628,126.21138 449.94894,164.22127 466.27536,213.07871 464.75,261.57 Z" />
</svg>
