<?xml version="1.0" encoding="UTF-8" standalone="no"?>
<svg
   xmlns:dc="http://purl.org/dc/elements/1.1/"
   xmlns:cc="http://creativecommons.org/ns#"
   xmlns:rdf="http://www.w3.org/1999/02/22-rdf-syntax-ns#"
   xmlns:svg="http://www.w3.org/2000/svg"
   xmlns="http://www.w3.org/2000/svg"
   xmlns:sodipodi="http://sodipodi.sourceforge.net/DTD/sodipodi-0.dtd"
   xmlns:inkscape="http://www.inkscape.org/namespaces/inkscape"
   width="512"
   height="512"
   viewBox="0 0 512 512"
   version="1.1"
   id="svg4"
   sodipodi:docname="double pwer point.svg"
   inkscape:version="0.92.1 r15371">
  <metadata
     id="metadata10">
    <rdf:RDF>
      <cc:Work
         rdf:about="">
        <dc:format>image/svg+xml</dc:format>
        <dc:type
           rdf:resource="http://purl.org/dc/dcmitype/StillImage" />
      </cc:Work>
    </rdf:RDF>
  </metadata>
  <defs
     id="defs8" />
  <sodipodi:namedview
     pagecolor="#ffffff"
     bordercolor="#666666"
     borderopacity="1"
     objecttolerance="10"
     gridtolerance="10"
     guidetolerance="10"
     inkscape:pageopacity="0"
     inkscape:pageshadow="2"
     inkscape:window-width="640"
     inkscape:window-height="493"
     id="namedview6"
     showgrid="false"
     inkscape:zoom="0.4609375"
     inkscape:cx="256"
     inkscape:cy="256"
     inkscape:window-x="0"
     inkscape:window-y="0"
     inkscape:window-maximized="0"
     inkscape:current-layer="svg4" />
  <path
     d="m 52.35,193 c -10.662755,0.9282 -22.32611,-2.33616 -32.06,2.7225 -6.055904,8.86 -2.201413,20.65492 -3.29,30.9372 0,27.5801 0,55.1602 0,82.7403 2.410034,13.64312 18.351386,8.63974 28.217966,9.6 14.333739,1.38192 29.959251,-2.50032 37.573129,-15.89138 C 100.06216,274.51834 100.24176,234.19859 79.770278,207.1387 73.09769,198.94164 63.161266,192.88868 52.35,193 Z m 4.1,106 C 50.339932,298.26219 41.282869,300.47138 37,297.90638 37,269.60425 37,241.30213 37,213 c 10.394965,0.0242 23.342535,-2.01249 29.133096,9.22746 12.850772,21.44178 12.407215,51.52327 -1.93451,72.13692 C 62.191871,296.63624 59.664124,298.87835 56.45,299 Z M 489.7,247.42 C 421.26667,206.36 352.83333,165.3 284.4,124.24 c -13.94635,-6.53971 -17.03849,10.64332 -15.4,20.60985 0,78.11005 0,156.2201 0,234.33015 1.72144,15.2648 17.97501,8.83664 25.67582,2.39121 C 359.68388,342.57081 424.69194,303.5704 489.7,264.57 c 6.39498,-3.53143 6.39667,-13.65774 0,-17.15 z M 289,361.52 c 0,-70.34667 0,-140.69333 0,-211.04 C 347.62,185.65333 406.24,220.82667 464.86,256 406.24572,291.17657 347.5857,326.32725 289,361.52 Z M 214.1,192.84 c -9.65813,1.30006 -20.42318,-2.2813 -29.12375,2.8825 -5.55806,9.44204 -1.94141,21.3901 -2.97625,32.03083 0,27.21555 0,54.43111 0,81.64667 6.0688,21.48122 25.31673,2.53804 20,-12.00985 0,-10.46338 0,-20.92677 0,-31.39015 18.08272,2.10157 38.09358,-6.49291 43.5575,-25.1525 7.72115,-21.58432 -8.73913,-46.34102 -31.4575,-48.0075 z m 9.2,47.43 c -3.35018,5.12129 -23.65109,11.07167 -21.3,0.26189 0,-9.1773 0,-18.35459 0,-27.53189 12.04809,-2.06437 27.48009,3.5838 25.23469,18.54687 -0.37245,3.22486 -1.82227,6.28092 -3.93469,8.72313 z m -88.34,-47.43 c -9.63467,1.30704 -20.39713,-2.29219 -29.06,2.8825 -5.42322,9.49581 -1.88679,21.38965 -2.9,32.03083 0,27.21555 0,54.43111 0,81.64667 6.0688,21.48122 25.31673,2.53804 20,-12.00985 0,-10.46338 0,-20.92677 0,-31.39015 18.04805,2.09776 37.98985,-6.54868 43.4275,-25.15625 7.66083,-21.67821 -8.61239,-46.26329 -31.4675,-48.00375 z m 9.2,47.44 c -3.29787,5.09597 -23.56589,11.07683 -21.16,0.25189 0,-9.1773 0,-18.35459 0,-27.53189 12.01731,-2.07916 27.35932,3.67047 25.10047,18.55 -0.37733,3.22478 -1.8063,6.30197 -3.94047,8.73 z"
     id="path2"
     inkscape:connector-curvature="0" />
</svg>
