<?xml version="1.0" encoding="UTF-8" standalone="no"?>
<svg
   xmlns:dc="http://purl.org/dc/elements/1.1/"
   xmlns:cc="http://creativecommons.org/ns#"
   xmlns:rdf="http://www.w3.org/1999/02/22-rdf-syntax-ns#"
   xmlns:svg="http://www.w3.org/2000/svg"
   xmlns="http://www.w3.org/2000/svg"
   xmlns:sodipodi="http://sodipodi.sourceforge.net/DTD/sodipodi-0.dtd"
   xmlns:inkscape="http://www.inkscape.org/namespaces/inkscape"
   width="512"
   height="512"
   viewBox="0 0 512 512"
   version="1.1"
   id="svg4"
   sodipodi:docname="electrical switch board.svg"
   inkscape:version="0.92.1 r15371">
  <metadata
     id="metadata10">
    <rdf:RDF>
      <cc:Work
         rdf:about="">
        <dc:format>image/svg+xml</dc:format>
        <dc:type
           rdf:resource="http://purl.org/dc/dcmitype/StillImage" />
      </cc:Work>
    </rdf:RDF>
  </metadata>
  <defs
     id="defs8" />
  <sodipodi:namedview
     pagecolor="#ffffff"
     bordercolor="#666666"
     borderopacity="1"
     objecttolerance="10"
     gridtolerance="10"
     guidetolerance="10"
     inkscape:pageopacity="0"
     inkscape:pageshadow="2"
     inkscape:window-width="640"
     inkscape:window-height="493"
     id="namedview6"
     showgrid="false"
     inkscape:zoom="0.4609375"
     inkscape:cx="256"
     inkscape:cy="256"
     inkscape:window-x="0"
     inkscape:window-y="0"
     inkscape:window-maximized="0"
     inkscape:current-layer="svg4" />
  <path
     d="m 494.3,336.72 c -0.70004,-45.18936 -0.1,-91.07452 -0.3,-136.53148 -0.37102,-9.86424 0.72298,-20.58194 -0.48484,-29.59477 C 487.78895,158.91264 473.3546,164.19045 463.02407,163 320.18272,163 177.34136,163 34.5,163 20.383152,160.1698 14.983572,174.25663 17,185.73049 c 0.171292,51.07867 -0.342496,102.19299 0.256719,153.24939 3.205062,13.3346 18.41149,9.46765 28.51406,10.02012 143.866411,0 287.732811,0 431.599221,0 6.68681,0.13535 15.11705,-1.63279 16.84,-9.27 0.295,-0.97634 0.5789,-2.07818 0.09,-3.01 z M 42,325 c 0,-44.09 0,-88.18 0,-132.27 121.92333,44.09 243.84667,88.18 365.77,132.27 -121.92333,0 -243.84667,0 -365.77,0 z"
     id="path2"
     inkscape:connector-curvature="0" />
</svg>
