<?xml version="1.0" encoding="UTF-8" standalone="no"?>
<svg
   xmlns:dc="http://purl.org/dc/elements/1.1/"
   xmlns:cc="http://creativecommons.org/ns#"
   xmlns:rdf="http://www.w3.org/1999/02/22-rdf-syntax-ns#"
   xmlns:svg="http://www.w3.org/2000/svg"
   xmlns="http://www.w3.org/2000/svg"
   xmlns:sodipodi="http://sodipodi.sourceforge.net/DTD/sodipodi-0.dtd"
   xmlns:inkscape="http://www.inkscape.org/namespaces/inkscape"
   width="512"
   height="512"
   viewBox="0 0 512 512"
   version="1.1"
   id="svg4"
   sodipodi:docname="hobs power.svg"
   inkscape:version="0.92.1 r15371">
  <metadata
     id="metadata10">
    <rdf:RDF>
      <cc:Work
         rdf:about="">
        <dc:format>image/svg+xml</dc:format>
        <dc:type
           rdf:resource="http://purl.org/dc/dcmitype/StillImage" />
      </cc:Work>
    </rdf:RDF>
  </metadata>
  <defs
     id="defs8" />
  <sodipodi:namedview
     pagecolor="#ffffff"
     bordercolor="#666666"
     borderopacity="1"
     objecttolerance="10"
     gridtolerance="10"
     guidetolerance="10"
     inkscape:pageopacity="0"
     inkscape:pageshadow="2"
     inkscape:window-width="640"
     inkscape:window-height="493"
     id="namedview6"
     showgrid="false"
     inkscape:zoom="0.4609375"
     inkscape:cx="256"
     inkscape:cy="256"
     inkscape:window-x="0"
     inkscape:window-y="0"
     inkscape:window-maximized="0"
     inkscape:current-layer="svg4" />
  <path
     d="M 488.4,247.87 C 420.75333,207.28667 353.10667,166.70333 285.46,126.12 c -13.52483,-6.24346 -15.90694,10.57556 -14.46,20.03971 0,77.19343 0,154.38686 0,231.58029 1.67761,14.7865 17.30283,8.08502 24.68125,2.00765 C 359.9175,341.20844 424.15375,302.66922 488.39,264.13 c 6.08246,-3.3474 6.04201,-12.92523 0.01,-16.26 z M 290,361 c 0,-70 0,-140 0,-210 58.34333,35 116.68667,70 175.03,105 C 406.68667,291 348.34333,326 290,361 Z M 77.5,193.72 c -13.2175,1.48291 -8.697769,16.59838 -9.5,25.75416 0,7.50861 0,15.01723 0,22.52584 -10,0 -20,0 -30,0 -0.429313,-14.14448 0.902217,-28.46562 -0.7475,-42.48766 C 25.380924,183.69761 15.659781,204.35332 19,216.22332 c 0,30.85556 0,61.71112 0,92.56668 6.126437,20.59597 24.096223,1.91288 19,-11.92971 0,-11.95343 0,-23.90686 0,-35.86029 10,0 20,0 30,0 0.468688,17.14053 -0.95711,34.47113 0.7475,51.48766 11.860376,15.80862 21.597606,-4.82177 18.2525,-16.69098 0,-30.86556 0,-61.73112 0,-92.59668 0.12391,-5.08372 -4.421845,-9.60536 -9.5,-9.48 z m 56.3,0 c -26.0951,1.36261 -38.31715,30.04403 -40.288698,52.6744 -2.208864,25.12105 3.964557,56.19195 28.048368,69.13049 21.63126,10.36651 42.54179,-9.8434 48.17846,-29.60205 9.25995,-28.62867 6.48553,-65.86922 -18.08863,-86.15068 -5.1449,-3.77194 -11.42822,-6.09481 -17.8495,-6.05216 z m 0,105.6 c -19.18984,-5.63947 -22.12428,-30.71287 -21.66833,-48.01185 -0.67587,-15.51849 11.77441,-49.5596 31.3065,-33.70556 16.25973,20.71177 16.13341,53.03657 1.80585,74.72593 -2.81807,3.53632 -6.65638,6.87271 -11.44402,6.99148 z m 114.6,-28.74 c -1.5567,-7.52364 -7.41497,-13.6072 -12.71,-18.83 8.60913,-9.22697 17.43464,-23.87982 9.42941,-36.24914 -6.77219,-19.77587 -31.98425,-29.64374 -49.76924,-17.86894 -8.74028,4.22776 -17.13391,12.08114 -15.31017,22.17974 0,26.39945 0,52.79889 0,79.19834 2.72496,10.0614 14.54853,13.96298 23.185,18.0175 19.8576,9.8117 44.06453,-5.30773 44.94891,-27.1775 0.93519,-6.36611 0.947,-12.9108 0.22609,-19.27 z M 199,217.54 c 15.05095,-17.92396 42.42148,9.29823 21.33453,22.09453 -10.04518,8.026 -26.05442,4.21973 -21.33453,-9.94424 0,-4.04314 0,-8.14057 0,-12.15029 z m 23.5,82.04 c -10.87721,3.41851 -27.81605,-2.88545 -23.5,-16.4161 -3.70546,-12.43722 9.28378,-25.24525 21.54604,-18.74863 12.70492,6.67274 11.51781,26.57777 1.95396,35.16473 z"
     id="path2"
     inkscape:connector-curvature="0" />
</svg>
