<?xml version="1.0" encoding="UTF-8" standalone="no"?>
<svg
   xmlns:dc="http://purl.org/dc/elements/1.1/"
   xmlns:cc="http://creativecommons.org/ns#"
   xmlns:rdf="http://www.w3.org/1999/02/22-rdf-syntax-ns#"
   xmlns:svg="http://www.w3.org/2000/svg"
   xmlns="http://www.w3.org/2000/svg"
   xmlns:sodipodi="http://sodipodi.sourceforge.net/DTD/sodipodi-0.dtd"
   xmlns:inkscape="http://www.inkscape.org/namespaces/inkscape"
   width="512"
   height="512"
   viewBox="0 0 512 512"
   version="1.1"
   id="svg4"
   sodipodi:docname="lift mechanism.svg"
   inkscape:version="0.92.1 r15371">
  <metadata
     id="metadata10">
    <rdf:RDF>
      <cc:Work
         rdf:about="">
        <dc:format>image/svg+xml</dc:format>
        <dc:type
           rdf:resource="http://purl.org/dc/dcmitype/StillImage" />
      </cc:Work>
    </rdf:RDF>
  </metadata>
  <defs
     id="defs8" />
  <sodipodi:namedview
     pagecolor="#ffffff"
     bordercolor="#666666"
     borderopacity="1"
     objecttolerance="10"
     gridtolerance="10"
     guidetolerance="10"
     inkscape:pageopacity="0"
     inkscape:pageshadow="2"
     inkscape:window-width="640"
     inkscape:window-height="493"
     id="namedview6"
     showgrid="false"
     inkscape:zoom="0.4609375"
     inkscape:cx="256"
     inkscape:cy="256"
     inkscape:window-x="0"
     inkscape:window-y="0"
     inkscape:window-maximized="0"
     inkscape:current-layer="svg4" />
  <path
     d="m 254.12,195 c -19.52061,0.47584 -39.22896,-0.97808 -58.62531,0.775 -16.62471,12.00773 4.47808,22.76146 16.94235,19.225 8.57937,-2.00787 2.96923,10.17378 4.56296,15.15155 0,25.48281 0,50.96563 0,76.44845 5.92179,21.63644 25.31574,2.70149 20,-11.90479 0,-26.56507 0,-53.13014 0,-79.69521 8.96743,-1.042 20.9942,3.41966 26.46312,-6.075 C 266.4413,202.5585 261.10386,194.70379 254.12,195 Z m -75.52,0 c -18.15725,0.50059 -36.5298,-1.03802 -54.54187,0.8375 -9.87965,6.7091 -4.79557,19.9836 -6.05813,30.12531 0,26.87907 0,53.75813 0,80.63719 6.16252,21.51048 26.43511,3.08767 21,-11.90479 0,-9.56507 0,-19.13014 0,-28.69521 9.89165,-1.26124 22.97681,3.83033 29.35156,-6.075 4.32743,-15.80808 -14.44866,-14.24311 -24.49311,-13.925 -8.82712,2.16046 -3.33582,-9.99751 -4.84845,-15.15155 1.61625,-5.10957 -3.96219,-17.41383 4.32901,-15.84845 13.05504,-0.43369 26.28395,0.91973 39.2163,-0.775 C 192.66407,210.47702 189.34297,194.51091 178.6,195 Z M 65.94,297 c -9.646667,0 -19.293333,0 -28.94,0 0,-30.61667 0,-61.23333 0,-91.85 -5.925903,-21.64112 -25.314058,-2.69026 -20,11.91479 0,29.84507 0,59.69014 0,89.53521 1.142715,13.9218 16.737482,9.77107 26.263801,10.4 9.929341,-0.92253 20.990664,2.37716 29.836199,-2.9 6.474556,-5.92138 1.568426,-17.50243 -7.16,-17.1 z M 92,195 c -13.64177,1.41773 -9.27267,16.94027 -10,26.3838 0,28.4054 0,56.8108 0,85.2162 5.921789,21.63644 25.31574,2.70149 20,-11.90479 0,-29.8484 0,-59.69681 0,-89.54521 0.16137,-5.39237 -4.58661,-10.29056 -10,-10.15 z m 397.98,52.3 c -64.93333,-38.9 -129.86667,-77.8 -194.8,-116.7 -13.8288,-6.42739 -15.38875,11.17931 -14.18,20.60479 0.17649,74.72898 -0.35323,149.49303 0.26531,224.20005 4.07477,13.6063 17.76949,4.3542 25.19361,-0.64224 C 367.65928,338.07506 428.85964,301.38753 490.06,264.7 c 6.51361,-3.63967 6.43803,-13.79595 -0.08,-17.4 z M 301,354.86 c 0,-65.9 0,-131.8 0,-197.7 54.98667,32.94667 109.97333,65.89333 164.96,98.84 -54.98381,32.95495 -109.99049,65.89695 -164.96,98.86 z"
     id="path2"
     inkscape:connector-curvature="0" />
</svg>
