<?xml version="1.0" encoding="UTF-8" standalone="no"?>
<svg
   xmlns:dc="http://purl.org/dc/elements/1.1/"
   xmlns:cc="http://creativecommons.org/ns#"
   xmlns:rdf="http://www.w3.org/1999/02/22-rdf-syntax-ns#"
   xmlns:svg="http://www.w3.org/2000/svg"
   xmlns="http://www.w3.org/2000/svg"
   xmlns:sodipodi="http://sodipodi.sourceforge.net/DTD/sodipodi-0.dtd"
   xmlns:inkscape="http://www.inkscape.org/namespaces/inkscape"
   width="512"
   height="512"
   viewBox="0 0 512 512"
   version="1.1"
   id="svg4"
   sodipodi:docname="oven power.svg"
   inkscape:version="0.92.1 r15371">
  <metadata
     id="metadata10">
    <rdf:RDF>
      <cc:Work
         rdf:about="">
        <dc:format>image/svg+xml</dc:format>
        <dc:type
           rdf:resource="http://purl.org/dc/dcmitype/StillImage" />
      </cc:Work>
    </rdf:RDF>
  </metadata>
  <defs
     id="defs8" />
  <sodipodi:namedview
     pagecolor="#ffffff"
     bordercolor="#666666"
     borderopacity="1"
     objecttolerance="10"
     gridtolerance="10"
     guidetolerance="10"
     inkscape:pageopacity="0"
     inkscape:pageshadow="2"
     inkscape:window-width="640"
     inkscape:window-height="493"
     id="namedview6"
     showgrid="false"
     inkscape:zoom="0.4609375"
     inkscape:cx="256"
     inkscape:cy="256"
     inkscape:window-x="0"
     inkscape:window-y="0"
     inkscape:window-maximized="0"
     inkscape:current-layer="svg4" />
  <path
     d="m 272.68,201 c -13.86951,1.73947 -9.25505,17.53422 -10.01862,27.2436 0.0262,10.6688 0.0524,21.3376 0.0786,32.0064 -10.52014,-18.59844 -19.72018,-38.07748 -31.09828,-56.10359 -14.41292,-9.60431 -19.87383,9.07225 -17.64172,20.13633 0,25.35575 0,50.71151 0,76.06726 5.77522,21.32823 25.26177,2.94036 20,-11.59001 0,-12.44667 0,-24.89333 0,-37.33999 10.51446,18.57378 20.16033,37.70844 31.22219,55.92875 13.19979,10.42586 20.29461,-7.58582 17.66439,-18.60874 -0.0522,-25.80667 -0.10439,-51.61334 -0.15658,-77.42001 0.0746,-5.3765 -4.5747,-10.41305 -10.05,-10.32 z m -71.56,20 c 21.34424,-5.76451 2.94298,-25.26314 -11.59001,-20 -9.85248,1.04231 -21.10549,-2.68269 -29.61874,3.24375 -5.40019,10.16457 -1.92273,22.50744 -2.91125,33.72446 0,20.79393 0,41.58786 0,62.38179 0.94263,13.90912 16.30762,10.16016 25.79093,10.65 9.34277,-1.14152 21.79015,3.61718 27.60751,-6.09187 C 214.72545,289.34725 196.32088,290.60659 186.3718,291 c -8.90683,2.2738 -10.8311,-2.43496 -9.3718,-10.52728 1.29431,-5.23175 -2.66396,-15.71608 2.10546,-17.47272 16.78283,5.92606 26.759,-21.08007 5.20635,-20 -9.68162,3.03344 -7.17011,-6.12626 -7.31181,-12.63274 -2.27559,-8.9071 2.43851,-10.82452 10.52728,-9.36726 4.53091,0 9.06181,0 13.59272,0 z M 489.1,247.38 C 432.26667,213.27333 375.43333,179.16667 318.6,145.06 c -13.71091,-6.56112 -17.33717,10.21816 -15.6,20.21001 0,64.34 0,128.67999 0,193.01999 1.63674,15.07684 17.80452,9.20806 25.4804,2.69316 53.53653,-32.11439 107.07307,-64.22877 160.6096,-96.34316 6.42524,-3.59136 6.45456,-13.66495 0.01,-17.26 z M 324,340.53 c 0,-56.35 0,-112.7 0,-169.05 46.95667,28.17333 93.91333,56.34667 140.87,84.52 -46.95381,28.17162 -93.93048,56.38362 -140.87,84.53 z M 54.34,201.6 c -25.060545,1.54186 -35.870705,29.85943 -36.293594,51.56049 -0.81936,22.44148 7.710998,51.46324 32.526958,56.98365 24.719094,2.52704 38.178428,-24.70331 39.705077,-45.73429 2.191172,-23.11487 -4.485522,-52.58858 -28.534808,-61.73327 1.809664,1.0218 -9.201776,-2.86132 -7.403633,-1.07658 z m 0,88.68 c -18.917634,-9.10152 -18.497405,-36.76309 -12.814453,-54.30977 5.358649,-24.18062 29.007972,-9.31755 28.08501,9.11857 1.983285,15.13352 1.288148,38.6266 -15.270557,45.1912 z m 93.24,-88.3 c -13.35204,-2.53653 -13.6483,13.26491 -16.84369,22.05314 -3.84211,13.32895 -7.68421,26.65791 -11.52631,39.98686 -5.3,-18.38667 -10.6,-36.77333 -15.9,-55.16 -11.488964,-18.87187 -25.266717,4.15039 -16.151233,16.70657 8.085259,26.78153 14.860003,54.06112 23.781073,80.52499 11.41374,12.40209 20.28608,-4.50945 21.44316,-15.0889 7.36567,-25.52089 14.73133,-51.04177 22.097,-76.56266 1.61511,-5.14684 -1.67909,-11.09902 -6.9,-12.46 z"
     id="path2"
     inkscape:connector-curvature="0" />
</svg>
