<?xml version="1.0" encoding="UTF-8" standalone="no"?>
<svg
   xmlns:dc="http://purl.org/dc/elements/1.1/"
   xmlns:cc="http://creativecommons.org/ns#"
   xmlns:rdf="http://www.w3.org/1999/02/22-rdf-syntax-ns#"
   xmlns:svg="http://www.w3.org/2000/svg"
   xmlns="http://www.w3.org/2000/svg"
   xmlns:sodipodi="http://sodipodi.sourceforge.net/DTD/sodipodi-0.dtd"
   xmlns:inkscape="http://www.inkscape.org/namespaces/inkscape"
   width="512"
   height="512"
   viewBox="0 0 512 512"
   version="1.1"
   id="svg4"
   sodipodi:docname="single power point.svg"
   inkscape:version="0.92.1 r15371">
  <metadata
     id="metadata10">
    <rdf:RDF>
      <cc:Work
         rdf:about="">
        <dc:format>image/svg+xml</dc:format>
        <dc:type
           rdf:resource="http://purl.org/dc/dcmitype/StillImage" />
      </cc:Work>
    </rdf:RDF>
  </metadata>
  <defs
     id="defs8" />
  <sodipodi:namedview
     pagecolor="#ffffff"
     bordercolor="#666666"
     borderopacity="1"
     objecttolerance="10"
     gridtolerance="10"
     guidetolerance="10"
     inkscape:pageopacity="0"
     inkscape:pageshadow="2"
     inkscape:window-width="638"
     inkscape:window-height="493"
     id="namedview6"
     showgrid="false"
     inkscape:zoom="0.4609375"
     inkscape:cx="256"
     inkscape:cy="256"
     inkscape:window-x="0"
     inkscape:window-y="0"
     inkscape:window-maximized="0"
     inkscape:current-layer="svg4" />
  <path
     d="M 488.92,247.26 C 406.70333,197.98667 324.48667,148.71333 242.27,99.44 227.99664,92.869879 225.47222,110.61253 227,120.60485 c 0,94.45172 0,188.90343 0,283.35515 1.76589,15.6043 18.24917,8.54009 26.03215,2.1219 C 331.6581,358.87127 410.28405,311.66063 488.91,264.45 c 6.4405,-3.528 6.37703,-13.68985 0.01,-17.19 z M 247,386.26 c 0,-86.84333 0,-173.68667 0,-260.53 72.37667,43.37667 144.75333,86.75333 217.13,130.13 C 391.75619,299.32828 319.35952,342.78363 247,386.26 Z M 54.3,181.93 c -11.054664,1.24188 -23.331123,-2.58175 -33.335,2.8825 -5.580484,9.86211 -1.906723,22.20141 -2.965,33.23947 0,33.94934 0,67.89869 0,101.84803 6.40648,21.78479 25.377714,2.04853 20,-12.55485 C 38,293.56343 38,279.78172 38,266 56.683465,267.60461 77.830858,262.78307 87.053281,244.55672 102.33448,219.06429 83.805982,184.09743 54.3,181.93 Z m 12.75,56.43 C 61.94275,246.15095 42.991669,249.078 38,243.71548 38,229.81032 38,215.90516 38,202 c 12.012849,-0.56447 27.137404,-0.6682 32.376563,12.82641 3.545949,7.63271 2.29422,17.2104 -3.326563,23.53359 z m 79.97,-56.43 c -10.99942,1.25529 -23.25751,-2.60259 -33.1825,2.8825 -5.35262,9.95051 -1.81686,22.20013 -2.8375,33.23947 0,33.94934 0,67.89869 0,101.84803 6.40648,21.78479 25.37771,2.04853 20,-12.55485 0,-13.78172 0,-27.56343 0,-41.34515 18.61751,1.62231 39.62981,-3.34849 48.80734,-21.46281 C 195.073,219.05882 176.52589,184.03529 147.02,181.93 Z m 12.77,56.42 c -4.97302,7.66809 -23.93601,10.82261 -28.79,5.36548 0,-13.90516 0,-27.81032 0,-41.71548 11.93904,-0.60888 26.92745,-0.55472 32.11234,12.83063 3.54884,7.62873 2.30259,17.20105 -3.32234,23.51937 z"
     id="path2"
     inkscape:connector-curvature="0" />
</svg>
